<svg xmlns="http://www.w3.org/2000/svg" viewBox="0 0 83.58 81.08"><defs><style>.cls-1{fill:#b9885d;}.cls-2{fill:#2b130a;}.cls-3{fill:#efcd93;}.cls-4{fill:#bd8a4e;}.cls-5{fill:#f0d8a1;}.cls-6{fill:#f7be61;}.cls-7{fill:#723e13;}.cls-8{fill:#7e4b0a;}.cls-9{fill:#754911;}.cls-10{fill:#744511;}.cls-11{fill:none;}.cls-12{fill:#0d0a08;}</style></defs><g id="Layer_2" data-name="Layer 2"><g id="Layer_1-2" data-name="Layer 1"><path class="cls-1" d="M70.88,39.05c3.67,2.63,5.74,6.62,8.2,10.18,1.73,2.49-.59,5.05-1.55,7.48a7.24,7.24,0,0,1-6.84,3.65c-3.82-.08-7.79.72-11.42-.5-4-1.34-5.52.72-6.26,3.81-1.34,5.58-5.43,9-9.49,12.32-6,4.86-15.18,1.75-17.86-5.84-1.38-3.91-1.91-8.18-5.4-11-5-1.25-9.84-3-13.84-6.39C2,49,1.68,46,5.21,41.86a31.52,31.52,0,0,1,12.1-9.11c3.61-1.47,2.9-3.68,2.41-6.09a25.53,25.53,0,0,1,3-17.74c.43-.8,1.13-.79,1.83-.88,1.49,1,1.57,2.6,1.58,4.2a7.5,7.5,0,0,1-.57,2.56c-2.69,5.86-2.14,11.59,1.46,15,1.4,3-.8,4.44-2.8,5.56-3,1.68-5.55,4-8.6,5.66-2.65,1.41-4.62,3.52-4.69,6.8-.28,2.4,1.48,3.25,3.19,3.86,4.26,1.52,8.4,3.58,13.11,3.41,1.92.18,3.93.21,4.67,2.54,0,2-2.81,5.46,2.43,4.9,6.39,4.23,7.77,3.8,11.65-3.49,1.34-2.52,2.12-5.62,5.71-6,5.26-.71,10.68.93,15.83-1.12,2.7-1.7,4.32-3.68,2.6-7.13a5.49,5.49,0,0,1,.22-5.21Z"/><path class="cls-2" d="M20.26,59.11c5.84.43,6,5.29,6.52,9.19,1.31,9,10.83,10.53,16.77,6.15,5-3.7,7.4-9,9.31-14.42,1.08-3.07,1.77-3.14,4.85-2.39,6.55,1.62,13.38,2.69,19.82-.93.71,1.46,1.41,2.91,2.12,4.36a60.16,60.16,0,0,1-18.43,1.71c-3-.1-8.11,3.87-10.23,8.89A15,15,0,0,1,38,81c-8.88.76-15-4.39-15.45-13.39-.27-5.07-3.44-3.75-6.58-5.4C15.56,58.88,20.27,62,20.26,59.11Z"/><path class="cls-3" d="M24.81,12.64c-.1-1.53-.19-3.07-.29-4.6,3.37-5,6.79-5.66,13.26-1.42C42,9.4,46.93,11.69,49.18,16.84c1.12,2.57,2.82-.88,4.14.28.86,1,2.49,1.15,2.75,2.72-2.65,3.83-8.83,4.34-13,1-2.26-1.81-4.15-4-6.25-6-2.93-2.78-6-4.87-10-1.83A1.53,1.53,0,0,1,24.81,12.64Z"/><path class="cls-4" d="M71,14.68c2.15-.15,2.21,1.37,2.22,2.84,0,5.43,1.1,11.09-3.48,15.51-2.61,2.5.65,4,1.11,6-.15.13-.3.26-.44.4-3.81,1.78-5.59-1.21-7.68-3.33s-1-4.35.1-6.49c2.17-4.37,4.29-8.76,6.59-13.06A3.39,3.39,0,0,1,71,14.68Z"/><path class="cls-5" d="M71,14.68,70.58,17c-4.84,1.81-9.66,3.69-15,2.33-1.37-.11-2.23-.75-2.27-2.21,4.36-2.6,8.75-5.14,14.11-4.62C68.93,12.64,70.87,12.25,71,14.68Z"/><path class="cls-6" d="M55.59,19.33c4.89-1.5,9.77-3,15-2.33-1.71,3.68-3.28,7.43-5.16,11-3.33,6.35-2.2,9.09,5,11.42.32,1.79.09,4,1.06,5.28,3.31,4.41.37,6-2.93,7.68-4,1.92-8.23.49-12.33.92-1.71.18-3.69-.83-5,1.11C48,55.5,48,58.81,46.77,61.15a17.16,17.16,0,0,1-4.9,5.64c-4.6,3.59-5.58-2.25-8.33-3.59-1.81-.92-3.57-1.88-2.25-4.4-.21-3.1-2.57-2-4.28-2.19C23.26,53.15,17.86,54,13.66,51.5a14.39,14.39,0,0,1-4.35-3.71c-.42-4.63,2.95-6.86,6.19-8.56s5.38-4.7,9-5.68a3,3,0,0,0,2.27-3.31c-4.19-4.62-4-9.86-2.14-15.32.05-.76.1-1.52.16-2.28,7-4.47,7.67-4.43,14.1,2.16,3.86,4,7.42,8.2,13.93,6.64C54.21,21.12,55.28,20.84,55.59,19.33Z"/><path class="cls-7" d="M9.31,47.79c4.2,1.91,8,4.6,13,4.74A4.56,4.56,0,0,1,27,56.61c-5.93.4-10.84-2.73-16.09-4.67C8.88,51.19,9.39,49.36,9.31,47.79Z"/><path class="cls-8" d="M51.22,54.43c.2-2-1.38-4.66,3.32-2.92,4.21,1.55,9.31.69,14,.89-.45,2.83-2.72,1.85-4.31,1.91C59.92,54.47,55.57,54.4,51.22,54.43Z"/><path class="cls-9" d="M24.65,14.92c-.68,5.3,1.48,10.21,2.14,15.32-1.76,0-3.95.59-4.07-2.15-.18-4-.17-7.95-.1-11.92C22.63,15.07,23.71,14.93,24.65,14.92Z"/><path class="cls-10" d="M31.29,58.8c-.2,2,2.21,2.57,2.25,4.4-.18.81-.09,2.34-1.21,1.87a5.13,5.13,0,0,1-3-3.47C29,60,29.05,58.62,31.29,58.8Z"/><path class="cls-11" d="M8.25,58.35l.63.35Z"/><path class="cls-12" d="M18.25,63h0c1.17-1.29,3.57-2,2.16-4.51-3.53-2.32-7.57-3.66-11.21-5.75-5.37-3.09-5.79-6.47-1.59-10.95,2.64-2.83,5.44-5.46,9.12-6.9,4.37-1.69,4.95-4.52,4.45-9.13-.62-5.74-.76-12,4-16.8C27.76,5.48,30.72,5,34.64,7.1c4.57,2.39,9,4.76,12.09,9,1.89,2.67,4.22,3.2,7.13,2.19,2.19-.77,4.15-2,6.27-2.94,3.42-1.47,6.8-2.12,10.07.4,2.31,5,2.31,10.1-.79,14.69-2.19,3.25-2.21,5.89.46,8.64,1.84,1.62,2,4.39,4,5.86,4.18,3.17,4.72,7,2.59,11.54-.08,1.86,1.23,3.21,1.82,4.82,2.82-1.07,6.67-3.92,4.85-11.45a20.66,20.66,0,0,0-6.64-11c-2.09-1.79-1.9-4.94-.89-6.67,3.06-5.2,1.46-10.68,2-16,.23-2.62-.71-4.25-3-5.82a13.49,13.49,0,0,0-14.37-1c-5.09,2.67-8.71,3.74-13-1.38C45,5.39,41.32,3.8,38.05,2.37,32.4-.1,26.23-2,21.62,3.89c-2.56,3.28-5.08,7-6,11.29a4.55,4.55,0,0,0,.09,6c-.42,2.93,1.89,6.94-1.34,8.58-3.63,1.83-5.75,5-8.71,7.3C-3,44-1.41,53.48,8.25,58.35l.63.35C10.75,59.71,16.28,62.64,18.25,63Z"/><path class="cls-4" d="M65.9,37.4,72,45.47l.2-2.55a18.25,18.25,0,0,0-3.87-5.84c-2.59-2.5,1-6.59,1-6.59H65.9Z"/></g></g></svg>