<svg xmlns="http://www.w3.org/2000/svg" viewBox="0 0 66.36 75.89"><defs><style>.cls-1{fill:#0a0809;}.cls-2{fill:#141414;}.cls-3{fill:#060606;}.cls-4{fill:#191915;}.cls-5{fill:#040404;}.cls-6{fill:#1b160f;}.cls-7{fill:#050504;}.cls-8{fill:#0d0e0e;}.cls-9{fill:#020202;}.cls-10{fill:#909090;}.cls-11{fill:#df5736;}.cls-12{fill:#3184fb;}.cls-13{fill:#f4f4f4;}.cls-14{fill:#d7b7a4;}.cls-15{fill:#2c64b7;}.cls-16{fill:#96b9ed;}.cls-17{fill:#a1c1f0;}.cls-18{fill:#050505;}.cls-19{fill:#848484;}.cls-20{fill:#0e110b;}.cls-21{fill:#8f849c;}.cls-22{fill:#fdefe4;}.cls-23{fill:#cd7a44;}.cls-24{fill:#f5a060;}.cls-25{fill:#f1f1f1;}.cls-26{fill:#b7aaca;}.cls-27{fill:#ededed;}.cls-28{fill:#ebebeb;}.cls-29{fill:#929292;}.cls-30{fill:#e5e5e5;}.cls-31{fill:#d0d0d0;}.cls-32{fill:#5e5e5e;}.cls-33{fill:#a6a6a6;}.cls-34{fill:#bcafd0;}.cls-35{fill:#8d849b;}.cls-36{fill:#d7d2df;}.cls-37{fill:#bcafcf;}.cls-38{fill:#afafb0;}.cls-39{fill:#b1a5c4;}.cls-40{fill:#857c93;}.cls-41{fill:#bbaecf;}.cls-42{fill:#beb1d2;}.cls-43{fill:#fcfcfc;}.cls-44{fill:#2f83fb;}.cls-45{fill:#0a0a0a;}.cls-46{fill:#a699b1;}.cls-47{fill:#9a50f9;}.cls-48{fill:#d8bc05;}.cls-49{fill:#12092b;}.cls-50{fill:none;}.cls-51{fill:#221219;}.cls-52{fill:#220d14;}.cls-53{fill:#130a0a;}.cls-54{fill:#baeefe;}.cls-55{fill:#b6a9c9;}</style></defs><g id="Layer_2" data-name="Layer 2"><g id="Layer_1-2" data-name="Layer 1"><path class="cls-1" d="M16,41.63c.24-.87-.37-1.26-.95-1.71A21.1,21.1,0,0,1,6.64,25.24a17.37,17.37,0,0,0,0-5.24c.28-1.16.06-2.43.85-3.46,1.36-1.21,1.62-3.16,3.09-4.29A22.34,22.34,0,0,1,22.64,5.82,22,22,0,0,1,42.7,12.25c.66.59.34,1.51.77,2.18.44,1.75.55,3.57,1.42,5.21.5,1.35,1.71,2.27,2.35,3.54a7.26,7.26,0,0,1-.06,1.32,49.39,49.39,0,0,1-1,5.42c-.08.34-.74.88.15,1.12.37-.14.71-.34,1.06-.49a2.28,2.28,0,0,1,1.31-.23.91.91,0,0,1,.62.76,5.65,5.65,0,0,1-3.54,3.55,2.48,2.48,0,0,1-1.26-.46,3.22,3.22,0,0,0-1.92-1c-4.26,0-5.62,1.15-6.44,5.62a5,5,0,0,1-1.51,2.81c-2.29,1.6-5.09,1.56-7.64,2.29-.32.28-.46.71-.85.93a2.54,2.54,0,0,1-1.63.11,7.61,7.61,0,0,1-1-.29,12.25,12.25,0,0,0-3.15-.8,3.87,3.87,0,0,1-1.4-.75,15.44,15.44,0,0,1-2.14-1.3C16.83,40.35,16.19,42.18,16,41.63Z"/><path class="cls-1" d="M54.46,31.43c2.6.85,3.36,3.33,4.75,5.21,1.23,1.66,2,3.6,4.24,4.39a2.49,2.49,0,0,1,1.39,2.13c.48,2.8,2.08,5.31.88,8.53-.68,1.82.55,4.33.63,6.57a6.1,6.1,0,0,1-3.18,6,.76.76,0,0,1-1.13.5c-.55-.22-1-.52-.66-1.23,4.06-2.53,3.5-6.21,2.66-10C60.83,55,60.91,55,61,58.21c0,2,.42,4.14-.42,6.14-.4.38-.8.72-1.38.29-.81-1.21-.43-2.56-.51-3.86a27.07,27.07,0,0,0-.49-6c-.19-1.18-.65-1.55-1.79-.94A16.16,16.16,0,0,1,53.68,55a19.23,19.23,0,0,1-3.2.61c.78-.17,1.39-.15,1.18.91-2.47,2-2.47,2,.27,5.67,1.19,1.15,1.35,2.88,2.72,4.07.94.82.46,2.52-.78,3.51a1.23,1.23,0,0,1-1-.15c-.88-1.16,0-2.73-.88-3.71-.19-.47-.52,0-.25-.14.09-.06.14,0,.2.1.8,1.56.43,3.09-.13,4.62a1.29,1.29,0,0,1-1.24.62c-.73-1.86-2.16-1.9-3.8-1.41a13.52,13.52,0,0,1-3.18-.07c-.54-.18-1.08-.36-1-1.08,1.38-1,3-1,4.61-1.13.92-.1,2.53.38,2.51-.69,0-1.36-1.64-.74-2.61-.85a3.76,3.76,0,0,0-1.44.24c-1.2.25-2.66,0-3.14,1.61-.22.29-.48.51-.89.33-.68-.66-.62-1.57-.89-2.37a3.74,3.74,0,0,1,0-1.49c.33-.71.15-1.78,1.37-1.88,1.36,3.06,3.91,1.53,6.07,1.48.45-.19,1.28,0,1.14-.84s-.85-.44-1.36-.49c-1.86-.19-3.71.88-5.58.08-.64-.45-.25-.78.14-1.1,1.39-1,3.18-.6,5-1.36-1.13-.83-2.07-1-3.07-.16a14.57,14.57,0,0,1-1.9,1.5.72.72,0,0,1-1.11-.36,1.88,1.88,0,0,1,.32-1.56,2.86,2.86,0,0,0-.53-4c-1.2-1.21-2.3-1.16-3.54,0a10.38,10.38,0,0,1-3.37,2.27c-1,.4-1.9.85-1.78,2.17a1.09,1.09,0,0,1-.84,1c-1.21-.17-1.56-1-1.63-2-.16-2.29,1.85-2.53,3.5-3.44A6.42,6.42,0,0,1,31.13,53a1.72,1.72,0,0,0-2.55-.57c-1.11.54-.49,1.33-.19,2.05.62,1.45,1.78,2.73,1.6,4.46-.82,1.29-1.47.08-2-.23s-.83-1.1-1.12-1.74a9,9,0,0,1-.19-9.55,1.21,1.21,0,0,1,1-.25c1.51.86,2.87-.09,4.3-.36,2.89-.46,5.61-1.94,8.66-1.43a.94.94,0,0,1,.17,1C39,48,36.58,47.94,34.42,48.56s-4.44.62-6,1.75c.23-.41,1.14-.36,1.9-.58C32.87,49,35.46,48.64,38,48c.84-.23,1.79-.28,2.38-1.07.48-.28.94-.9,1.52-.14a2.82,2.82,0,0,1-.21,2.77c-1.23,2-.77,3.59,1.23,4.81,2.32,3.45,2.72,3.4,5.21-.16,1.23-1.75,1.61-3.82,2.55-5.66a1.16,1.16,0,0,1,.53-.37A6.94,6.94,0,0,0,54.45,47c1.1-.57.84-1.37.41-2.23a18.08,18.08,0,0,0-3.55-5.09c-.79-.77-1.79-1.43-2-2.63a1.11,1.11,0,0,1,.6-.81,1.73,1.73,0,0,1,1.34.29c1.51.87,2.37,2.35,3.5,3.57,1.31,1.77,2.62,1.46,4-.94a29.46,29.46,0,0,0-4.07-5.85,2.44,2.44,0,0,1-.51-.9A1,1,0,0,1,54.46,31.43Z"/><path class="cls-1" d="M41,65.68c.93.6.42,1.58.64,2.37l-.16.1c-2.31,1.12-3.45,3.45-5.4,4.94-1.24.94-2,2.61-3.87,2.58a1.5,1.5,0,0,1-.83-.53,1.89,1.89,0,0,0-1.82-1.06c-.53-.26-1.06-.52-.91-1.25a2.35,2.35,0,0,0,.41-3c-1.92-3.85-3.3-7.94-5.47-11.68A4.34,4.34,0,0,0,22.19,57a2.36,2.36,0,0,1-.66-.64,1.19,1.19,0,0,1-.17-1.15C23.9,54,23,51.74,23,49.77c0-1.74-1.46-1.13-2.34-1.36C17.7,47.66,15.9,45,16,41.63c.39-.31.87-1.12,1,.16,1.07,1.13,1,2.89,2.31,3.88,2.9,1.91,5,1.5,7.27-1.43a1.1,1.1,0,0,1,1.81-.15c.62,1-.2,1.91-.33,2.86a.75.75,0,0,1-.42.47h-.94a5.45,5.45,0,0,0-.41,8.16A6.24,6.24,0,0,1,27.21,57c1.41,1.63,1.41,1.63,2.59,1.85a.25.25,0,0,1,.4,0c.37.76.62,1.6,1.47,2,.57.95,0,2.14.68,3.06,1.88,1.93,2.38,1.84,4.35.15,1.47-1.26,2.73-2.93,4.91-3.19a1.08,1.08,0,0,0,1.07.42l0,0-.46,1.15,0,0c-1,.29-.3,1.54-1.18,1.87-2,3.12-5.2,5.08-7.57,8.32,2-2.09,3.61-4.12,5.55-5.8C39.6,66.3,40,65.46,41,65.68Z"/><path class="cls-1" d="M10.48,12.88c-1.23,1-.72,3.42-3,3.66C9.65,6.88,20-.44,30.72,0A22.57,22.57,0,0,1,47.4,7.93c.59.66,1.08,1.43,2.07,1.56,0,.81-.71.81-1.25,1a4.7,4.7,0,0,0-3.91,2.73c-.23.47-.42,1.06-1.15,1-.62-.3-.07-1-.54-1.39C42,10.51,39.8,9.6,38,8.48,28.88,2.82,15.81,5.16,10.48,12.88Z"/><path class="cls-1" d="M40.61,46.46v-1c-1.89,0-3.48-1.32-5.4-1.16a1.6,1.6,0,0,1-1.23-1c-.2-.71,1-1.25.25-2,.86-.61.84-1.68,1.33-2.48.49.18.61.61.78,1a5.17,5.17,0,0,0,2.69,3c3.5,1.47,5.8.56,7.56-3.33-1.62.81-2.27,2.43-3.84,2.7-1.27.15-2.58.39-3.24-1.13.67-1.35,2-.08,2.69-.66-1.85-.51-3.11-1.47-2.22-3.72.19-.47-.51-.57-.5-1,1.2-2,3.27-1.44,5.07-1.69.4,0,.78.08,1,.47.27,1.06-.76,1.22-1.29,1.72s-1.64.75-1.67,1.8c4.61-.84,9.21-4.9,9.84-8.66-1.59-.06-1.72,2.14-3.34,2l-.64-.74c.14-2,2.32-3.09,2.21-5.15A3.3,3.3,0,0,1,51,24.2a4.59,4.59,0,0,0,.31-.77c0-.43-.7-.76-.21-1.26a14.83,14.83,0,0,1,3.13-.93.85.85,0,0,1,.69.66,6.72,6.72,0,0,1-1.62,2.32c-1,1.05-2.08,2.1.23,3.14,1.86.84.55,2.72,1,4.07v.92c-1.58,1.17-2.3,3.26-4.4,3.87l-.64.63c-.14,4.07-1.62,7.29-5.85,8.78-.78.28-1,1.31-1.88,1.45-.21-.59-.57-.29-.91-.15-.18-.06-.27-.15-.25-.27S40.57,46.46,40.61,46.46Z"/><path class="cls-1" d="M7.05,71.47l-.88.47C4.26,68.07,2.31,64.23.47,60.33-.65,58,.25,56.45,3,56.22c4-.33,8-.46,12-.67l6.36-.33.45,1a9.42,9.42,0,0,1-4.52.92c-4.12-.1-8.18.69-12.3.59-3.13-.08-3.61.73-2.22,3.4s2.43,5.44,3.85,8.07C7,69.89,7.46,70.62,7.05,71.47Z"/><path class="cls-1" d="M54.9,21.9l-.5-.56c-.53-2.34.53-4.93-1.21-7.06a6.27,6.27,0,0,0-3.6-2.58,5.32,5.32,0,0,1-1.18-.62,1.18,1.18,0,0,1-.52-1.15c.54-.13,1.15,0,1.58-.44C55.17,11.9,57.57,17.36,54.9,21.9Z"/><path class="cls-1" d="M6.64,20a7.34,7.34,0,0,1,0,5.24Z"/><path class="cls-1" d="M39.63,20a2.81,2.81,0,0,0,1.17-3.72,10.8,10.8,0,0,1-.21-2.77C42.15,14,42.14,15,42.09,16a7.48,7.48,0,0,0,1.53,5.2c2.46,3,1.48,6.15.42,9.31-.29.83-.86.66-1.57.63-4.63-.2-8.12,2.85-8.22,7.31a2.24,2.24,0,0,1-2,2.48c-4.78,1-6.06,1.83-11.58.49,7.35-1.95,13-5.81,17-12a19.72,19.72,0,0,0,2.07-4.59,3.69,3.69,0,0,1,1.44-2.4A3.53,3.53,0,0,0,39.63,20Z"/><path class="cls-1" d="M25.79,10c-14,10.11-14.88,12.69-9.09,25C11,33.21,9.59,26.47,10.64,20.44,11.63,14.78,18.78,9.89,25.79,10Z"/><path class="cls-1" d="M10.48,12.88C10,11.41,11.17,10.7,12,10c8.07-7.13,22.36-6.77,30,.7.65.63,1.42,1.2.56,2.18C39,9.57,35,7,29.85,6.31A21.1,21.1,0,0,0,12,11.74,17.51,17.51,0,0,1,10.48,12.88Z"/><path class="cls-1" d="M39.15,40.47c1,1.39,2.43,1.31,3.89,1.13.54-.23,1.19-.45,1.48.2.22.48-.32.85-.73,1.09-1.68,1-3.44.76-5.21.23a4.69,4.69,0,0,1-2.68-2.87c.13-5.36,2-7.3,7.25-7.56.52.35,1.5.21,1.39,1.23a4.43,4.43,0,0,1-3,1,1.65,1.65,0,0,0-2.06,1.42,2.14,2.14,0,0,1-.21.6,2.8,2.8,0,0,0,0,3A.84.84,0,0,1,39.15,40.47Z"/><path class="cls-1" d="M39.76,16.91A2.43,2.43,0,0,1,37,19.42a3.53,3.53,0,0,1-3.33-3.49,2.4,2.4,0,0,1,2.71-2.68A3.48,3.48,0,0,1,39.76,16.91Z"/><path class="cls-1" d="M47.89,9.93l.46.82c-2.27,2.25-2.12,5.05-1.86,7.87-.39.85-.81,1.65-2,1.41a9,9,0,0,1-1.33-5.8C44,12,45.22,10.22,47.89,9.93Z"/><path class="cls-1" d="M44.49,20a2.55,2.55,0,0,0,1.59-1.55c.72-.11,1.07.41,1.27.89.87,2.06,2.73,3,4.55,4l-.45.82c-1.77,1.19-3.25.93-4.41-.86C46.09,22.31,44.85,21.49,44.49,20Z"/><path class="cls-1" d="M26.8,44.49c-1.48,3.31-4.89,3.95-7.94,1.49.61-.75,1.58-.59,2.37-.9a18.2,18.2,0,0,1,3.21-.42l1.87-.21A.31.31,0,0,1,26.8,44.49Z"/><path class="cls-1" d="M49.08,31.28c.69-.79,1.39-1.56,2.07-2.36.49-.58,1-1.16,1.78-.43-2.54,4.65-6.62,7.64-11.32,10-.9-1,.16-1.19.64-1.58,1.08-.85,2.19-1.65,3.29-2.47A13.2,13.2,0,0,0,49.08,31.28Z"/><path class="cls-1" d="M46.52,31.52c-.49.15-.42,1.17-1.24.8s-.39-.9-.18-1.38a23.34,23.34,0,0,0,1.44-6.64c1.54-.54,2,.48,1.88,1.55C48.27,27.87,48.17,30,46.52,31.52Z"/><path class="cls-1" d="M51,25.19c.7,2.49-1.57,3.63-2.55,5.35l-.82.48c-.41-1.85.37-3.57.75-5.3C48.68,24.34,50,24.71,51,25.19Z"/><path class="cls-1" d="M43.15,32.69c-4.53.59-6.87,3.18-7.25,7.55-.11-.49-.23-1-.35-1.49C36,34,38.47,32.07,43.15,32.69Z"/><path class="cls-1" d="M21.35,45.51c-.7.8-1.65.35-2.49.47-1.46-1-1.65-2.62-1.85-4.19,1-.32,1.54.46,2.26.82C19.56,43.85,21.18,44.18,21.35,45.51Z"/><path class="cls-1" d="M34.22,41.23c.5,0,1,0,1.11.56.19.92-.95.58-1.19,1.12a3.3,3.3,0,0,1-2.94,1.3,18.49,18.49,0,0,1-5.38-.74C28.6,42.66,31.66,42.83,34.22,41.23Z"/><path class="cls-1" d="M51,25.19c-1.63-.11-2.66.22-2.56,2.21A13.66,13.66,0,0,1,47.62,31l-1.1.5c.41-1.73.79-3.47,1.23-5.19.28-1.1.06-1.85-1.21-2a1,1,0,0,1,.5-1,6.49,6.49,0,0,0,4.41.86Z"/><path class="cls-1" d="M25.82,43.47c2.79.06,5.61.45,8.32-.56l1,1c-2.1,1.76-4.42,1.71-6.85.76-.43-.71-.93-.8-1.52-.17l-.49,0Z"/><path class="cls-1" d="M39.63,20c1.8,0,2.72.59,1.5,2.41C39.44,22.34,38.72,21.66,39.63,20Z"/><path class="cls-1" d="M21.35,45.51c-1.06-.72-2.21-1.37-2.08-2.9l1,1c1.12.2,2.16.93,3.38.5l.76.59C23.63,45.68,22.46,45.49,21.35,45.51Z"/><path class="cls-1" d="M23.68,44.07c-1.3,1-2.4.61-3.38-.5C21.6,42.65,22.54,44,23.68,44.07Z"/><path class="cls-1" d="M41.68,47.08a3.6,3.6,0,0,1,2.43-2.45,6.35,6.35,0,0,0,4.48-6.16c0-.63-.38-1.52.82-1.62a26.3,26.3,0,0,1,6.16,7.94c.76,1.48.67,2.29-1,2.74-1.76-.11-1.76-1.87-2.69-2.76-.52-.5-.93-1.29-1.71-1.17s-.63,1-.81,1.59A23.25,23.25,0,0,1,45.23,53c-.68.82-1.25,1.94-2.68,1.68-2.7-1.21-2.95-3-1.44-5.34A7.17,7.17,0,0,0,41.68,47.08Z"/><path class="cls-1" d="M51.35,62.43a18.6,18.6,0,0,1-2.22-3.31c-.82-2,1.16-2,2.3-2.6.76-.55,2-.63,2-1.92l4.78-2.1c.65,2.62,1.35,5.18,1.07,7.89a2.16,2.16,0,0,1-3,1.94A9.13,9.13,0,0,0,51.35,62.43Z"/><path class="cls-1" d="M42.55,54.65c3.62-2.6,5.31-6.41,6.36-10.44.62-2.34,1.57-1.81,2.64-.68a39.53,39.53,0,0,1,3,4c-1,.41-1.74,1.62-3.07.82-.28-1,.62-2.06,0-3.31,0-.1-.22.46,0,.26A3.61,3.61,0,0,1,51,48.4,15.94,15.94,0,0,1,47.56,56c-2,2.5-2.83,2.42-4.38-.31C43,55.32,42.76,55,42.55,54.65Z"/><path class="cls-1" d="M61.36,63.92l-.87.28c-.11-2.79.2-5.59-.49-8.35-.26-1,0-1.53,1.21-1.79a15.79,15.79,0,0,0,3.28-1.51C66,60.19,65.56,61.94,61.36,63.92Z"/><path class="cls-1" d="M41.61,60.9c-1.53,1.83-3.8,2.78-5.44,4.6-1.44,1.61-3.22.24-4.38-1.27a4.27,4.27,0,0,0,2.69-3.13,4,4,0,0,1,2.2-2.78,35.44,35.44,0,0,0,4.9-3.18C44.12,57.05,42.77,59,41.61,60.9Z"/><path class="cls-1" d="M41.58,55.14c-.48,2.14-2.52,2.56-4.09,3.39S34.91,60.46,34.86,62c-.09,2.23-1.28,2.5-3.07,2.22-1-1.08-.55-2.22-.12-3.35.16-.18.49-.45.45-.52-1.47-2.49.69-2.41,2.12-3.06A8.94,8.94,0,0,0,37.54,55C39.14,53,40.3,53.86,41.58,55.14Z"/><path class="cls-1" d="M51.35,62.43c1.18-1.35,2.41-1.89,4.23-.87a2.55,2.55,0,0,0,3.7-1.17,10.94,10.94,0,0,1-.16,4.3c-.92,2.35-2.27,4.29-5,4.81.11-1.18.63-2.33.28-3.56-.76-.09-.22.76-.71.92A14.62,14.62,0,0,0,51.35,62.43Z"/><path class="cls-1" d="M55,33a20.52,20.52,0,0,1,4.41,6.28,3.62,3.62,0,0,1-5,1L51,36.77A5.07,5.07,0,0,1,55,33Z"/><path class="cls-1" d="M30.2,58.86l-.2,0-.2,0c-.82-1.72-1.61-3.46-2.48-5.16-.51-1-.72-1.59.81-2,1.95-.5,3.39-.67,3.92,1.75.31,1.41,1.67,1.57,2.92,1.79C33.92,57.19,30.63,56.23,30.2,58.86Z"/><path class="cls-1" d="M28.32,44.66a26.28,26.28,0,0,0,6.85-.76c2.21-.81,3.59,1.12,5.43,1.54l-8.89,1.93c-1.33-.22-2.77.56-4-.42C27,45.94,28.33,45.48,28.32,44.66Z"/><path class="cls-1" d="M59.76,48.93c-1.74-3.3-1.74-3.3.86-4.85,3.07-1.82,3.07-1.82,3.75,1.81C64.49,48.74,62.84,49.82,59.76,48.93Z"/><path class="cls-1" d="M59.76,48.93c2.06-.26,4.34-.19,4.61-3,1.41,4,.82,5.41-2.82,7-.63.26-1.32.58-1.84.15a1.27,1.27,0,0,1-.1-1.75C60.16,50.49,59.83,49.71,59.76,48.93Z"/><path class="cls-1" d="M40.61,46.46l.16.47a1.62,1.62,0,0,1-1.44,1.39c-3.94.88-7.87,1.81-11.95,2.76.06-1.8,1.45-1.87,2.53-2.14C33.47,48.07,37,47.28,40.61,46.46Z"/><path class="cls-1" d="M57.9,47.88c1.53,2,.79,3.23-1.3,4.17a23,23,0,0,1-6.8,2.13c1.13-1.59.4-3.75,2.67-4.34C55.14,51,55.27,51,57.9,47.88Z"/><path class="cls-1" d="M27.21,57a2.41,2.41,0,0,0-.56-.42c-3.76-1.46-2.32-4.73-2.55-7.32-.12-1.41,1.56-1.44,2.61-1.84.08.31.31.72.19.91C25.11,51.3,26.37,54.15,27.21,57Z"/><path class="cls-1" d="M37.49,49.93c-.42,1-1.34,2-.46,3.24a.79.79,0,0,1-.64,1.25A4,4,0,0,1,33,53.53c-1.44-1.57-1-2.76,1.07-3.16C35.2,50.17,36.25,49.51,37.49,49.93Z"/><path class="cls-1" d="M42.18,62.44a32,32,0,0,1,6.33-.59,1.65,1.65,0,0,1,0,2.41c-1.77.75-3.7.56-5.51.64s-.57-1.61-.8-2.49Z"/><path class="cls-1" d="M42.62,68.49l-.46-1c-.24-3,2.18-1.31,3.36-1.82a1.75,1.75,0,0,1,1.18-.21c.68.07,1.61-.34,2,.52S48.4,67.62,47.5,68C45.87,68.09,44.29,68.71,42.62,68.49Z"/><path class="cls-1" d="M41,65.68,32.5,73.89c0-1.65,5.19-7.37,8.53-9.61Z"/><path class="cls-1" d="M50.29,70.93l-.9.47a5.83,5.83,0,0,1-5.28.39l-.59-1.25c.95-1,2.46-.61,3.49-1.4.4-.1.8-.18,1.19-.3C50.28,68.23,50.91,69,50.29,70.93Z"/><path class="cls-1" d="M57.9,47.88a3.49,3.49,0,0,1-3.66,3.41c-1,.05-1.82-.22-1.77-1.45l3.85-2C56.85,47.59,57.39,47,57.9,47.88Z"/><path class="cls-1" d="M62.5,41.87,57,45.3c-.15-.79-1.61-1.63-.09-2.3S60,39.63,62.5,41.87Z"/><path class="cls-1" d="M42.68,61.32a3.33,3.33,0,0,1,3-2.68,3.07,3.07,0,0,1,3.06,2.07c-2.13.28-4,.83-6.08.58Z"/><path class="cls-1" d="M47.5,68c1.24-2.3,1.24-2.3-2-2.36,1.1-.69,2.34-.36,3.52-.48s1.65.16,1.77,1.29-.68,1.44-1.62,1.51C48.63,68,48.06,68,47.5,68Z"/><path class="cls-1" d="M54.33,40.26c1.75,0,3.5,0,5-1,0,1-.1.85-1.69,2C55.89,42.61,54.9,42.35,54.33,40.26Z"/><path class="cls-1" d="M53.43,54.6c.17.57,1.15,1,.7,1.59-.67.8-1.78.23-2.7.33-.85-1.56-1.75.49-2.91-.33C49.87,54.72,51.83,55.09,53.43,54.6Z"/><path class="cls-1" d="M55,33A18.31,18.31,0,0,0,51,36.77l-1-.55c1-1.13,2-2.24,3-3.4a1.12,1.12,0,0,1,1.43-.47Z"/><path class="cls-1" d="M53,69.56c-.63.18-.61,1.45-1.66.94a13.77,13.77,0,0,0,.06-5.85C53,66.33,53,68,53,69.56Z"/><path class="cls-1" d="M47,69.14c-.73,1.49-2.09,1.5-3.49,1.4-.74-.56-.43-1,.17-1.41Z"/><path class="cls-1" d="M27.69,47c1.35.12,2.77-.47,4,.42-1.35.21-2.68,1.89-4.06.05C27.66,47.26,27.68,47.11,27.69,47Z"/><path class="cls-1" d="M48.52,64.26V61.85c1.93-.64,1.64,1.21,1.69,1.83C50.3,64.74,49.11,64.05,48.52,64.26Z"/><path class="cls-1" d="M51,48.4l.63-4.1a5.07,5.07,0,0,1-.14,4.05Z"/><path class="cls-1" d="M49.3,72.88c-1.54,1.17-3,1.92-4.21-.43,1.12-.84,2.49-.46,3.73-.66C49.46,71.68,50.09,72.11,49.3,72.88Z"/><path class="cls-1" d="M49.3,72.88c.28-.92-.31-.82-.9-.76l-3.31.33c-.45,0-.86-.15-1-.66l5.28-.39C50.06,71.93,50.27,72.44,49.3,72.88Z"/><path class="cls-1" d="M22.33,56.62a1.87,1.87,0,0,1,1.47.94,2.2,2.2,0,0,1,.21,2C22.21,65.52,18.73,70,12.53,72.06a7.77,7.77,0,0,1-4.58,0L8,72C5.6,68.26,4,64.14,2.05,60.16,1.3,58.58,2,57.61,4,57.55c2.79-.09,5.57-.31,8.34-.41C15.64,57,19,56.54,22.33,56.62Z"/><path class="cls-1" d="M8,72.06c8.57-.1,14.29-6.38,15.85-14.5,2.84,4.3,4.41,9.17,6.51,13.8.56,1.23-.71,1.34-1.55,1.58l-17.37-.08C10.18,72.85,9,73,8,72.06Z"/><path class="cls-1" d="M22.33,56.62a14.45,14.45,0,0,1-5.72.81c-4.11,0-8.16.72-12.27.61-2.25-.06-2.56.58-1.61,2.63L8,72l-1-.53C5.24,67.75,3.42,64,1.64,60.31c-1-2.13-.58-3,1.81-3.12,6.12-.37,12.24-.65,18.36-1Z"/><path class="cls-1" d="M31.72,68.62c1-.75,2.08-.53,3.26-.38-.52,1.35-1.89,1.75-2.72,2.68-.1.11-.56-.08-.86-.13,0-.22,0-.57.14-.62,1.82-.85-1.3-.48-.28-1.11A.77.77,0,0,1,31.72,68.62Z"/><path class="cls-1" d="M24.45,56.24c2.11.8,2.76,2.67,3.58,4.43C25.73,60.07,26.06,57.38,24.45,56.24Z"/><path class="cls-1" d="M30.75,65.63c-1.54.94-2,.43-2.12-2.27a1.69,1.69,0,0,1,1.13-1.06l.94,3.37Z"/><path class="cls-1" d="M31.72,68.62l-.46.44c-1.51-.21-1.16-1-.61-1.84a1.42,1.42,0,0,1,2-.13C32.33,67.61,31.39,67.77,31.72,68.62Z"/><path class="cls-1" d="M29.76,62.3c0,.69-.49,1-1.13,1.06s-1.08-.81-.79-1.14A1.4,1.4,0,0,1,29.76,62.3Z"/><path class="cls-1" d="M32.61,67.09l-2,.13c-1.12-.6.7-1,.1-1.59l-.05,0C31.44,66,32.5,65.94,32.61,67.09Z"/><path class="cls-1" d="M16,5.89C24.33-1.25,37.76-.5,45.38,7.32c.4.42,1.82,1.2.44,1.93-.9.48-1.45,2.33-3.16.85C35.09,3.55,26.53,2.27,17.14,5.85a2.79,2.79,0,0,1-.71.14A1.87,1.87,0,0,1,16,5.89Z"/><path class="cls-1" d="M41.61,38.44c4-3.06,8.09-6,11.32-9.95.78.6.44,1.29.12,1.94-2,4.12-5.62,6.55-9.83,8.21A1.46,1.46,0,0,1,41.61,38.44Z"/><path class="cls-1" d="M53.46,13.71a7.25,7.25,0,0,1,.94,7.63A3.49,3.49,0,0,1,51,22.47c-1.75-.33-3.31-.83-3.07-3.06C51.24,18.88,52.62,16.54,53.46,13.71Z"/><path class="cls-1" d="M38.58,43.12c1.92-.12,4,.33,5.57-1.2-.28-.41-.73-.24-1.11-.32,1.68-.75,2-3.2,4.21-3.27C47.25,43,42.73,45.44,38.58,43.12Z"/><path class="cls-1" d="M47.89,19.59A5.76,5.76,0,0,0,51,22.47c0,.59,1.21,0,.91.91-3.27-.13-4.46-2.6-5.82-4.9-.37-1.92-.87-3.86.1-5.75.45-.9.94-1.85,2.17-2l1.15.46C46.52,13.56,47.21,16.58,47.89,19.59Z"/><path class="cls-1" d="M39.15,40.47h0c-.67-1.43-1.47-2.86.26-4.14l0,0c.66-.25,1.19-.84,2.21-.75-.85,1-2.07,1.85-1.33,3.23s2.06,1,3.34,1.09C42.38,42.08,40.67,40.56,39.15,40.47Z"/><path class="cls-1" d="M47.89,19.59a6.67,6.67,0,0,1-1-6.23,2.93,2.93,0,0,1,2.6-2.15,4.75,4.75,0,0,1,4,2.5C53.45,17.92,52.13,19.31,47.89,19.59Z"/><path class="cls-1" d="M39.41,36.32c-1,1.33-.32,2.75-.26,4.14C38,39,37.18,37.57,39.41,36.32Z"/><path class="cls-1" d="M12,63.88c2.27-2.1,3.95-2.15,6-.18a1.4,1.4,0,0,1-.79,2.13,5.38,5.38,0,0,1-4.7,0A1.21,1.21,0,0,1,12,63.88Z"/><path class="cls-1" d="M12,63.88c-.26,2.28,1.47,1.79,2.73,1.8,1.46,0,3.09.12,3.22-2,.84.17,1.51.47,1.47,1.5s-1.06,1.22-1.8,1.59a9.13,9.13,0,0,1-4.78.29,6.64,6.64,0,0,0-1.4-.87c-.66-.21-1.78.21-1.54-1.07A1.47,1.47,0,0,1,12,63.88Z"/><path class="cls-1" d="M12.83,67.08c1.55-.81,3.17-.46,4.78-.29C16.1,68.15,14.53,68.69,12.83,67.08Z"/><path class="cls-1" d="M20.6,74.36c2.29,0,4.58,0,6.87,0H20.6Z"/><path class="cls-1" d="M8,74.81c-.11-.26-.21-.56-.48-.51A5.79,5.79,0,0,0,8,74.81Z"/><path class="cls-1" d="M46.62,74.83c2.11-.32,4.75-2.29,6.39-3.88s3.75-.47,5.41-2.91,1-3.15,2.09-3.28c.43-.05,1.19-.18,1.92-.3a2,2,0,0,1-1.07-.54c-.5-.54-.66-.06-.87.28l-1.37.49c-1.64,1.64-2.92,3.65-5,4.81L53,69.56c-1-.52-.9,1-1.66.94l-1.06.43c-.48-.25-.78-.06-1,.38s0,1-.49,1.28a2.42,2.42,0,0,1-3.36-.16,10.58,10.58,0,0,1-.86-.79A4.12,4.12,0,0,1,44,70.45c-.15-.43-.09-.9-.28-1.32-.41-.12-.89-.15-1.07-.64.31-.53.16-.86-.46-1l-.43.48A2.67,2.67,0,0,1,42,69.06C42.16,71,44.5,75.15,46.62,74.83Z"/><path class="cls-1" d="M11,75.8l0,0h5.39A6.39,6.39,0,0,0,11,75.8Z"/><path class="cls-1" d="M8,74.81a3.49,3.49,0,0,0,2.34,1h.2A3.13,3.13,0,0,1,11,75.2a7.15,7.15,0,0,1,5.54-.08c.31.24.59.48.85.71l12.27,0a7,7,0,0,0,2.65-.53l-.58-.54c-.62-.54-1.37-.39-2.1-.39h-.81a6.37,6.37,0,0,1-1.31,0c-2.29,0-4.58,0-6.87,0s-4.77,0-7.16,0H28.78a1.6,1.6,0,0,0,1-.54l-1-.87c-.9-.93-2.1-.75-3.22-.77-3.35,0-6.7,0-10,0-2.11-.06-4.25.45-6.34-.24a7.12,7.12,0,0,1-.74-.35,4,4,0,0,0-1.11-.36,1,1,0,0,0-1.13.75A8.14,8.14,0,0,0,7.5,74.3C7.77,74.25,7.87,74.55,8,74.81Z"/><path class="cls-1" d="M20.6,74.36H13.44C15.83,74.36,18.22,74.37,20.6,74.36Z"/><path class="cls-1" d="M28.78,74.35H27.47A6.37,6.37,0,0,0,28.78,74.35Z"/><path class="cls-1" d="M11,75.8a6.39,6.39,0,0,1,5.36,0h1c-.26-.23-.54-.47-.85-.71A7.15,7.15,0,0,0,11,75.2a3.13,3.13,0,0,0-.44.61H11Z"/><path class="cls-1" d="M16.35,75.83l.13,0h.94l-.07-.06Z"/><path class="cls-1" d="M9.93,65.8s1.1,2.55,8.12.81l-4.93-.55Z"/><path class="cls-1" d="M27.73,63l3.67,7.79L35,68.24s-4.62-3.52-5.22-5.94C29.76,62.3,27.21,60.67,27.73,63Z"/><path class="cls-1" d="M31.69,74.74h-22v-.93H29.75C30.75,73.41,31.67,73.19,31.69,74.74Z"/><path class="cls-1" d="M9.68,73.81a2.63,2.63,0,0,0,2.28.93c1.7,0-2.56.48-2.56.48L8,73.51Z"/><path class="cls-2" d="M17.48,43.07c.21-.82-.34-1.19-.88-1.61a20,20,0,0,1-7.72-13.8,16.56,16.56,0,0,0,0-4.92c.26-1.08.06-2.28.78-3.25,1.25-1.13,1.49-3,2.83-4a20.26,20.26,0,0,1,11-6,19.83,19.83,0,0,1,18.39,6c.59.56.31,1.42.7,2.05a21.63,21.63,0,0,0,1.29,4.89c.47,1.28,1.58,2.14,2.16,3.34A7.39,7.39,0,0,1,46,27a49.05,49.05,0,0,1-1,5.09c-.07.31-.68.82.13,1,.35-.13.65-.32,1-.46a1.9,1.9,0,0,1,1.19-.21.82.82,0,0,1,.57.7,5.25,5.25,0,0,1-3.24,3.34,2.11,2.11,0,0,1-1.16-.43,2.93,2.93,0,0,0-1.75-1c-3.91,0-5.15,1.08-5.91,5.28A4.65,4.65,0,0,1,34.5,43c-2.09,1.51-4.66,1.47-7,2.15-.29.27-.42.67-.78.88a2.31,2.31,0,0,1-1.49.1,8.94,8.94,0,0,1-.88-.27,11.19,11.19,0,0,0-2.89-.75,3.51,3.51,0,0,1-1.28-.71,12.82,12.82,0,0,1-2-1.22C18.22,41.87,17.63,43.59,17.48,43.07Z"/><path class="cls-3" d="M52.7,33.49c2.38.8,3.08,3.12,4.35,4.89,1.12,1.57,1.87,3.38,3.88,4.13a2.32,2.32,0,0,1,1.28,2c.43,2.63,1.91,5,.8,8-.62,1.71.5,4.06.58,6.17a5.76,5.76,0,0,1-2.91,5.64.71.71,0,0,1-1,.48c-.5-.21-.93-.49-.6-1.16,3.71-2.38,3.2-5.84,2.44-9.4-2.94,1.42-2.87,1.42-2.8,4.39,0,1.93.39,3.89-.38,5.77-.37.36-.74.68-1.27.27-.74-1.13-.39-2.4-.47-3.62a25.53,25.53,0,0,0-.45-5.59c-.17-1.12-.59-1.46-1.63-.88a15,15,0,0,1-2.49,1,16.44,16.44,0,0,1-2.94.58c.72-.16,1.28-.14,1.08.86-2.26,1.92-2.26,1.92.25,5.32,1.09,1.08,1.24,2.71,2.49,3.83.86.77.42,2.37-.71,3.29a1.09,1.09,0,0,1-1-.14c-.8-1.09,0-2.56-.81-3.48-.17-.44-.47,0-.22-.13.08-.06.13,0,.18.09a5.28,5.28,0,0,1-.12,4.35,1.16,1.16,0,0,1-1.14.57c-.66-1.74-2-1.78-3.48-1.32a11.82,11.82,0,0,1-2.91-.07c-.49-.17-1-.33-.94-1,1.27-.93,2.77-.92,4.23-1.06.84-.09,2.31.36,2.3-.65,0-1.28-1.51-.69-2.39-.8a3.34,3.34,0,0,0-1.32.23c-1.1.23-2.43,0-2.88,1.51-.2.28-.44.48-.81.31-.62-.62-.57-1.48-.82-2.23a3.66,3.66,0,0,1,0-1.4c.31-.66.14-1.67,1.25-1.76,1.25,2.87,3.59,1.43,5.56,1.39.42-.18,1.18,0,1.06-.79s-.79-.41-1.25-.47c-1.71-.18-3.4.84-5.11.08-.59-.42-.24-.73.12-1,1.28-1,2.92-.57,4.57-1.28-1-.78-1.89-1-2.81-.15a13.08,13.08,0,0,1-1.74,1.41c-.47.27-.79.11-1-.34A1.83,1.83,0,0,1,41,59.88a2.73,2.73,0,0,0-.48-3.76c-1.1-1.13-2.1-1.08-3.24,0a9.37,9.37,0,0,1-3.09,2.14c-1,.37-1.74.79-1.64,2a1,1,0,0,1-.76,1c-1.11-.16-1.43-.93-1.49-1.9C30.15,57.27,32,57,33.5,56.19a6.05,6.05,0,0,1-2.18-2.46A1.55,1.55,0,0,0,29,53.19c-1,.51-.45,1.25-.18,1.93.57,1.37,1.63,2.56,1.46,4.19-.74,1.22-1.34.07-1.86-.22s-.76-1-1-1.63a8.68,8.68,0,0,1-.17-9,1.08,1.08,0,0,1,.93-.23c1.39.81,2.64-.09,3.94-.34,2.65-.43,5.14-1.82,7.94-1.34a.89.89,0,0,1,.15,1c-1.64,1.55-3.85,1.46-5.83,2s-4.07.59-5.47,1.65c.22-.39,1.05-.34,1.75-.55,2.3-.67,4.67-1,7-1.66.78-.22,1.65-.26,2.19-1,.44-.26.86-.84,1.39-.13A2.71,2.71,0,0,1,41,50.49c-1.13,1.92-.71,3.37,1.12,4.52,2.13,3.24,2.5,3.19,4.78-.15,1.13-1.65,1.47-3.59,2.34-5.32a1,1,0,0,1,.48-.35,6.24,6.24,0,0,0,3-1.1c1-.54.77-1.29.39-2.09a17,17,0,0,0-3.26-4.79c-.72-.73-1.64-1.34-1.83-2.47a1,1,0,0,1,.55-.76,1.53,1.53,0,0,1,1.22.27c1.39.82,2.17,2.21,3.22,3.36,1.19,1.66,2.39,1.37,3.64-.88a27.52,27.52,0,0,0-3.73-5.51,2.25,2.25,0,0,1-.47-.84A.9.9,0,0,1,52.7,33.49Z"/><path class="cls-4" d="M40.39,65.67c.85.57.39,1.49.59,2.23l-.15.1c-2.12,1-3.16,3.24-4.95,4.64-1.13.88-1.79,2.45-3.54,2.42a1.29,1.29,0,0,1-.76-.5,1.73,1.73,0,0,0-1.67-1c-.48-.24-1-.48-.83-1.17a2.23,2.23,0,0,0,.37-2.84c-1.76-3.62-3-7.47-5-11a3.92,3.92,0,0,0-1.31-1,2.14,2.14,0,0,1-.6-.6,1.15,1.15,0,0,1-.16-1.09c2.33-1.18,1.45-3.27,1.46-5.12,0-1.64-1.33-1.06-2.14-1.28-2.67-.71-4.32-3.17-4.21-6.37.36-.29.8-1,.9.15,1,1.06.94,2.71,2.13,3.65,2.65,1.79,4.57,1.41,6.66-1.35a1,1,0,0,1,1.65-.14c.57,1-.19,1.8-.3,2.69a.68.68,0,0,1-.39.44l-.85,0a5.19,5.19,0,0,0-.38,7.66,6.31,6.31,0,0,1,.83,1.33c1.3,1.54,1.3,1.54,2.37,1.75a.22.22,0,0,1,.37,0c.34.7.57,1.49,1.35,1.89.52.89,0,2,.62,2.88,1.72,1.81,2.18,1.73,4,.14,1.34-1.18,2.5-2.75,4.49-3a1,1,0,0,0,1,.39l0,0-.42,1.08,0,0c-.88.27-.28,1.45-1.09,1.76-1.79,2.93-4.77,4.77-6.94,7.82,1.87-2,3.31-3.88,5.09-5.45C39.08,66.25,39.46,65.47,40.39,65.67Z"/><path class="cls-5" d="M12.4,16.05c-1.12,1-.66,3.22-2.74,3.44C11.64,10.41,21.1,3.53,31,4A20.47,20.47,0,0,1,46.23,11.4c.54.62,1,1.34,1.9,1.47,0,.76-.66.76-1.15.93a4.33,4.33,0,0,0-3.59,2.56c-.2.45-.37,1-1,1-.57-.28-.07-1-.5-1.31-.61-2.18-2.59-3-4.24-4.09C29.26,6.6,17.29,8.8,12.4,16.05Z"/><path class="cls-6" d="M40,47.61v-1c-1.73,0-3.19-1.24-5-1.09a1.48,1.48,0,0,1-1.13-1c-.18-.66.88-1.17.23-1.89.79-.57.77-1.57,1.23-2.32.44.16.55.57.7,1a4.9,4.9,0,0,0,2.47,2.8c3.21,1.38,5.31.52,6.92-3.14-1.48.76-2.08,2.29-3.51,2.54-1.17.15-2.36.36-3-1.06.62-1.26,1.79-.08,2.46-.62-1.69-.48-2.84-1.38-2-3.49.17-.44-.46-.54-.46-.93,1.1-1.86,3-1.36,4.65-1.59a1,1,0,0,1,.92.43c.24,1-.7,1.15-1.18,1.63s-1.51.7-1.54,1.69c4.23-.8,8.44-4.61,9-8.15-1.46-.05-1.58,2-3.06,1.91l-.59-.69c.13-1.85,2.13-2.9,2-4.84a3.32,3.32,0,0,1,.3-1.12,3.79,3.79,0,0,0,.28-.73c0-.39-.64-.7-.19-1.18a13.59,13.59,0,0,1,2.87-.87c.36.05.52.31.63.62a6.3,6.3,0,0,1-1.48,2.18c-.88,1-1.91,2,.2,2.95,1.71.79.51,2.56.88,3.83v.86c-1.45,1.1-2.11,3.06-4,3.63l-.59.6c-.13,3.83-1.49,6.85-5.36,8.25-.72.26-.89,1.23-1.72,1.36-.2-.55-.53-.27-.84-.13-.16-.06-.24-.15-.23-.26S40,47.61,40,47.61Z"/><path class="cls-7" d="M9.26,71.12l-.8.43c-1.75-3.63-3.55-7.24-5.23-10.9-1-2.22-.2-3.65,2.3-3.87,3.67-.31,7.34-.43,11-.63l5.82-.31.41.95a8.47,8.47,0,0,1-4.14.87c-3.77-.1-7.49.65-11.26.55-2.87-.08-3.32.68-2,3.2S7.56,66.52,8.86,69C9.2,69.63,9.64,70.31,9.26,71.12Z"/><path class="cls-8" d="M53.1,24.53,52.65,24c-.49-2.19.47-4.63-1.12-6.63a5.76,5.76,0,0,0-3.29-2.43,4.32,4.32,0,0,1-1.08-.58,1.1,1.1,0,0,1-.48-1.08c.49-.13,1,0,1.45-.41C53.35,15.13,55.54,20.26,53.1,24.53Z"/><path d="M8.88,22.74a7,7,0,0,1,0,4.92Z"/><path class="cls-9" d="M39.11,22.77a2.69,2.69,0,0,0,1.07-3.5,10.9,10.9,0,0,1-.19-2.6c1.43.39,1.42,1.36,1.37,2.31a7.16,7.16,0,0,0,1.41,4.88c2.25,2.86,1.35,5.78.38,8.75-.26.78-.79.62-1.44.59a6.88,6.88,0,0,0-7.53,6.88,2.1,2.1,0,0,1-1.87,2.33c-4.39,1-5.56,1.72-10.62.45A25.41,25.41,0,0,0,37.27,31.61a18.65,18.65,0,0,0,1.89-4.32A3.57,3.57,0,0,1,40.48,25,3.3,3.3,0,0,0,39.11,22.77Z"/><path class="cls-10" d="M26.43,13.38C13.64,22.89,12.8,25.31,18.1,36.84c-5.2-1.68-6.51-8-5.55-13.69C13.46,17.84,20,13.25,26.43,13.38Z"/><path class="cls-11" d="M12.4,16.05c-.44-1.38.64-2,1.41-2.74,7.4-6.7,20.49-6.37,27.53.65.59.6,1.3,1.13.51,2.05-3.36-3.07-7-5.48-11.7-6.13A19,19,0,0,0,13.82,15,15.06,15.06,0,0,1,12.4,16.05Z"/><path class="cls-12" d="M38.67,42c.91,1.31,2.22,1.23,3.56,1.06.5-.21,1.09-.42,1.36.19.2.45-.29.8-.67,1a5.54,5.54,0,0,1-4.77.21,4.39,4.39,0,0,1-2.46-2.7c.12-5,1.82-6.85,6.65-7.1.47.33,1.37.2,1.27,1.16a4,4,0,0,1-2.79.89,1.53,1.53,0,0,0-1.9,1.34,1.55,1.55,0,0,1-.19.56,2.72,2.72,0,0,0,0,2.78A.73.73,0,0,1,38.67,42Z"/><path class="cls-10" d="M39.23,19.84a2.25,2.25,0,0,1-2.49,2.36,3.28,3.28,0,0,1-3.05-3.28,2.22,2.22,0,0,1,2.48-2.52A3.24,3.24,0,0,1,39.23,19.84Z"/><path class="cls-13" d="M46.68,13.28l.42.77c-2.08,2.12-1.94,4.74-1.7,7.4-.36.79-.75,1.54-1.84,1.32a8.61,8.61,0,0,1-1.21-5.45C43.08,15.21,44.23,13.55,46.68,13.28Z"/><path class="cls-14" d="M43.56,22.77A2.38,2.38,0,0,0,45,21.32c.66-.11,1,.38,1.16.83.8,1.94,2.5,2.83,4.18,3.77l-.42.77c-1.63,1.12-3,.87-4-.81C45,24.92,43.9,24.14,43.56,22.77Z"/><path class="cls-15" d="M27.36,45.76c-1.36,3.11-4.49,3.71-7.28,1.4.56-.71,1.45-.56,2.17-.85a16.22,16.22,0,0,1,2.95-.39l1.7-.2A.29.29,0,0,1,27.36,45.76Z"/><path class="cls-16" d="M47.77,33.34c.63-.74,1.27-1.47,1.89-2.21.46-.55.89-1.09,1.63-.41C49,35.1,45.23,37.91,40.92,40.07c-.82-.9.15-1.12.59-1.48,1-.8,2-1.55,3-2.33A12.2,12.2,0,0,0,47.77,33.34Z"/><path class="cls-11" d="M45.43,33.57c-.46.14-.39,1.1-1.15.75s-.35-.85-.16-1.29a22.63,22.63,0,0,0,1.32-6.25c1.41-.5,1.79.46,1.72,1.46C47,30.14,46.94,32.1,45.43,33.57Z"/><path class="cls-14" d="M49.51,27.63c.65,2.33-1.43,3.4-2.33,5l-.75.45c-.37-1.74.34-3.36.69-5C47.4,26.82,48.57,27.17,49.51,27.63Z"/><path class="cls-17" d="M42.34,34.67c-4.15.55-6.3,3-6.65,7.1-.1-.47-.21-.94-.31-1.4C35.81,35.92,38.05,34.08,42.34,34.67Z"/><path class="cls-12" d="M22.36,46.72c-.64.75-1.51.32-2.28.44-1.34-1-1.51-2.46-1.7-3.94.91-.3,1.42.43,2.08.77C20.72,45.16,22.21,45.47,22.36,46.72Z"/><path class="cls-11" d="M34.15,42.69c.46,0,.91,0,1,.53.18.87-.87.55-1.09,1.06a3.05,3.05,0,0,1-2.69,1.22,16.46,16.46,0,0,1-4.93-.7C29,44,31.81,44.2,34.15,42.69Z"/><path class="cls-18" d="M49.51,27.63c-1.49-.12-2.43.19-2.34,2.07a12.74,12.74,0,0,1-.74,3.4l-1,.47c.37-1.62.71-3.26,1.12-4.88.26-1,.06-1.73-1.11-1.91a1,1,0,0,1,.46-.9,5.79,5.79,0,0,0,4,.81Z"/><path class="cls-3" d="M26.46,44.8c2.55.05,5.13.43,7.62-.52l1,.92c-1.93,1.66-4.06,1.61-6.28.72-.39-.67-.85-.75-1.39-.16l-.46,0Z"/><path class="cls-19" d="M39.11,22.77c1.65,0,2.49.55,1.37,2.26C38.93,24.94,38.28,24.31,39.11,22.77Z"/><path class="cls-20" d="M22.36,46.72c-1-.68-2-1.29-1.9-2.73l.94.9c1,.19,2,.88,3.1.48l.7.55C24.45,46.88,23.38,46.7,22.36,46.72Z"/><path class="cls-21" d="M24.5,45.37c-1.2.91-2.2.56-3.1-.48C22.59,44,23.45,45.31,24.5,45.37Z"/><path class="cls-22" d="M41,48.19a3.34,3.34,0,0,1,2.23-2.3,6,6,0,0,0,4.1-5.79c0-.59-.35-1.43.75-1.52A24.72,24.72,0,0,1,53.71,46c.7,1.4.62,2.15-.91,2.57-1.61-.1-1.62-1.75-2.47-2.59-.47-.46-.85-1.21-1.56-1.1s-.58,1-.75,1.49a21.9,21.9,0,0,1-3.78,7.32c-.62.77-1.14,1.82-2.45,1.58-2.48-1.14-2.71-2.82-1.32-5A7,7,0,0,0,41,48.19Z"/><path class="cls-22" d="M49.84,62.62a18,18,0,0,1-2-3.11c-.76-1.9,1.06-1.91,2.1-2.44.7-.52,1.83-.6,1.83-1.81l4.38-2a21.71,21.71,0,0,1,1,7.41,2,2,0,0,1-2.72,1.82A8.17,8.17,0,0,0,49.84,62.62Z"/><path class="cls-14" d="M41.79,55.31c3.31-2.45,4.86-6,5.82-9.81.57-2.21,1.44-1.71,2.43-.64a39.79,39.79,0,0,1,2.76,3.75c-.9.39-1.6,1.53-2.81.78-.26-1,.56-1.94,0-3.11,0-.1-.21.42,0,.24a3.49,3.49,0,0,1-.47,2.91,15.26,15.26,0,0,1-3.16,7.12c-1.8,2.34-2.6,2.28-4-.29C42.19,55.93,42,55.63,41.79,55.31Z"/><path class="cls-14" d="M59,64l-.8.26c-.09-2.62.19-5.26-.45-7.84-.24-1,0-1.45,1.11-1.69a13.64,13.64,0,0,0,3-1.42C63.31,60.52,62.86,62.16,59,64Z"/><path class="cls-23" d="M40.92,61.18c-1.4,1.72-3.48,2.61-5,4.33-1.32,1.51-2.95.22-4-1.2a4,4,0,0,0,2.47-2.94,3.69,3.69,0,0,1,2-2.61,33,33,0,0,0,4.49-3C43.22,57.57,42,59.38,40.92,61.18Z"/><path class="cls-24" d="M40.9,55.77c-.44,2-2.31,2.41-3.75,3.18a4,4,0,0,0-2.41,3.28c-.08,2.09-1.17,2.34-2.81,2.08-.89-1-.5-2.08-.11-3.15.14-.17.45-.42.41-.49-1.35-2.34.63-2.26,1.94-2.87a8.2,8.2,0,0,0,3-2.21C38.66,53.71,39.73,54.56,40.9,55.77Z"/><path class="cls-14" d="M49.84,62.62c1.09-1.27,2.22-1.78,3.88-.82a2.3,2.3,0,0,0,3.39-1.1,10.57,10.57,0,0,1-.14,4c-.85,2.21-2.09,4-4.62,4.53.1-1.11.58-2.19.25-3.35-.69-.09-.19.71-.65.86A13.62,13.62,0,0,0,49.84,62.62Z"/><path class="cls-25" d="M53.16,34.91a19.4,19.4,0,0,1,4,5.9,3.27,3.27,0,0,1-4.61,1l-3-3.29A4.69,4.69,0,0,1,53.16,34.91Z"/><path class="cls-22" d="M30.47,59.27l-.18,0-.19,0c-.75-1.62-1.47-3.26-2.26-4.86-.48-.95-.67-1.49.73-1.86,1.79-.46,3.11-.63,3.59,1.65.29,1.32,1.54,1.47,2.68,1.68C33.88,57.7,30.87,56.79,30.47,59.27Z"/><path class="cls-14" d="M28.75,45.92A23.75,23.75,0,0,0,35,45.2c2-.75,3.28,1.06,5,1.45l-8.14,1.82c-1.22-.21-2.54.53-3.69-.4C27.5,47.12,28.75,46.69,28.75,45.92Z"/><path class="cls-22" d="M57.55,49.93c-1.59-3.1-1.59-3.1.79-4.56,2.81-1.71,2.81-1.71,3.43,1.7C61.88,49.75,60.37,50.77,57.55,49.93Z"/><path class="cls-14" d="M57.55,49.93c1.89-.24,4-.18,4.22-2.86,1.29,3.76.76,5.08-2.58,6.54-.57.25-1.21.55-1.69.15a1.22,1.22,0,0,1-.08-1.65C57.92,51.4,57.62,50.66,57.55,49.93Z"/><path class="cls-22" d="M40,47.61l.14.45a1.5,1.5,0,0,1-1.32,1.3c-3.61.83-7.21,1.7-10.94,2.59.05-1.69,1.33-1.76,2.32-2C33.46,49.12,36.74,48.38,40,47.61Z"/><path class="cls-14" d="M55.85,49c1.4,1.85.72,3-1.19,3.92a20.6,20.6,0,0,1-6.24,2c1-1.49.37-3.52,2.46-4.07C53.32,51.89,53.44,51.84,55.85,49Z"/><path class="cls-22" d="M27.73,57.52a2.31,2.31,0,0,0-.51-.39c-3.45-1.37-2.13-4.45-2.34-6.88-.11-1.32,1.43-1.35,2.4-1.72.06.28.28.66.17.85C25.81,52.16,27,54.83,27.73,57.52Z"/><path class="cls-22" d="M37.15,50.87c-.38,1-1.23,1.87-.42,3a.75.75,0,0,1-.59,1.18,3.59,3.59,0,0,1-3.08-.84c-1.32-1.47-1-2.59,1-3C35.05,51.09,36,50.48,37.15,50.87Z"/><path class="cls-22" d="M41.45,62.63a27.54,27.54,0,0,1,5.8-.55,1.58,1.58,0,0,1,0,2.26c-1.61.71-3.38.52-5,.6s-.53-1.52-.73-2.34Z"/><path class="cls-22" d="M41.85,68.31l-.42-.92c-.23-2.82,2-1.24,3.08-1.72a1.5,1.5,0,0,1,1.07-.19c.63.06,1.48-.32,1.8.48s-.24,1.54-1.06,1.93C44.82,67.94,43.37,68.52,41.85,68.31Z"/><path class="cls-26" d="M40.39,65.67c-2.58,2.55-5.16,5.09-7.81,7.72,0-1.56,4.75-6.93,7.81-9Z"/><path class="cls-14" d="M48.88,70.61l-.83.44a5.25,5.25,0,0,1-4.84.37l-.53-1.18c.86-.92,2.25-.57,3.19-1.32.36-.09.73-.16,1.09-.27C48.87,68.07,49.45,68.77,48.88,70.61Z"/><path class="cls-27" d="M55.85,49a3.24,3.24,0,0,1-3.36,3.2c-.9.05-1.67-.21-1.61-1.36l3.52-1.87C54.89,48.67,55.38,48.09,55.85,49Z"/><path class="cls-28" d="M60.06,43.3l-5,3.22c-.13-.75-1.47-1.54-.08-2.16S57.75,41.19,60.06,43.3Z"/><path class="cls-22" d="M41.9,61.57a3.08,3.08,0,0,1,2.74-2.52,2.83,2.83,0,0,1,2.8,2c-1.95.25-3.72.77-5.57.54Z"/><path class="cls-14" d="M46.32,67.89c1.14-2.16,1.14-2.16-1.81-2.22,1-.64,2.14-.34,3.23-.45s1.51.15,1.61,1.22-.62,1.34-1.48,1.41C47.35,67.89,46.84,67.88,46.32,67.89Z"/><path class="cls-14" d="M52.58,41.79c1.6,0,3.21,0,4.61-1,0,.93-.09.8-1.54,1.92C54,44,53.1,43.74,52.58,41.79Z"/><path class="cls-14" d="M51.75,55.26c.16.54,1,1,.64,1.49-.6.76-1.63.22-2.47.32-.77-1.47-1.6.46-2.66-.31C48.49,55.38,50.29,55.72,51.75,55.26Z"/><path class="cls-14" d="M53.16,34.91a17.07,17.07,0,0,0-3.61,3.59L48.66,38c.91-1.06,1.85-2.1,2.72-3.19a1,1,0,0,1,1.31-.44Z"/><path class="cls-29" d="M51.37,69.32c-.58.17-.56,1.36-1.52.88a13.08,13.08,0,0,0,0-5.49C51.39,66.29,51.32,67.82,51.37,69.32Z"/><path class="cls-30" d="M45.87,68.92c-.67,1.41-1.91,1.41-3.19,1.32-.69-.53-.4-.94.15-1.32Z"/><path class="cls-31" d="M28.17,48.07c1.23.11,2.53-.44,3.69.4-1.24.19-2.47,1.77-3.73,0C28.15,48.36,28.16,48.22,28.17,48.07Z"/><path class="cls-14" d="M47.25,64.34V62.08c1.76-.61,1.5,1.13,1.55,1.71C48.89,64.79,47.8,64.14,47.25,64.34Z"/><path class="cls-32" d="M49.54,49.43l.57-3.85A4.92,4.92,0,0,1,50,49.39Z"/><path class="cls-33" d="M48,72.44c-1.41,1.1-2.79,1.81-3.86-.4,1-.8,2.28-.44,3.42-.63C48.12,71.31,48.7,71.72,48,72.44Z"/><path class="cls-2" d="M48,72.44c.26-.87-.29-.77-.83-.71l-3,.31c-.41,0-.78-.14-.9-.62l4.84-.37C48.66,71.55,48.86,72,48,72.44Z"/><path class="cls-34" d="M23.26,57.15a1.75,1.75,0,0,1,1.35.89A2.13,2.13,0,0,1,24.8,60c-1.65,5.56-4.84,9.74-10.52,11.7a7,7,0,0,1-4.19,0l.05-.06A98,98,0,0,1,4.68,60.48C4,59,4.64,58.09,6.42,58c2.55-.08,5.1-.29,7.64-.38C17.13,57.53,20.18,57.08,23.26,57.15Z"/><path class="cls-35" d="M10.09,71.67c7.85-.1,13.09-6,14.52-13.63,2.6,4,4,8.62,6,13,.51,1.15-.65,1.26-1.42,1.49l-15.91-.08C12.13,72.41,11,72.51,10.09,71.67Z"/><path class="cls-36" d="M23.26,57.15a12.83,12.83,0,0,1-5.24.77c-3.77,0-7.48.68-11.24.57C4.72,58.43,4.43,59,5.3,61q2.43,5.32,4.84,10.64l-.88-.49c-1.66-3.5-3.32-7-5-10.5-.93-2-.53-2.79,1.66-2.92,5.6-.35,11.22-.61,16.82-.91Z"/><path class="cls-37" d="M31.87,68.44c.9-.71,1.9-.5,3-.36-.48,1.26-1.73,1.65-2.49,2.52-.09.1-.52-.08-.79-.13,0-.2,0-.53.13-.58,1.66-.8-1.19-.45-.26-1A.67.67,0,0,1,31.87,68.44Z"/><path class="cls-38" d="M25.2,56.8c1.93.75,2.53,2.51,3.28,4.16C26.37,60.4,26.68,57.87,25.2,56.8Z"/><path class="cls-39" d="M31,65.62c-1.41.89-1.84.41-1.94-2.13a1.6,1.6,0,0,1,1-1l.86,3.17Z"/><path class="cls-40" d="M31.87,68.44l-.43.41c-1.38-.2-1.06-.93-.55-1.73A1.26,1.26,0,0,1,32.67,67C32.42,67.49,31.56,67.63,31.87,68.44Z"/><path class="cls-41" d="M30.07,62.49c0,.66-.45.91-1,1s-1-.76-.72-1.07C28.75,61.91,29.49,62.06,30.07,62.49Z"/><path class="cls-42" d="M32.67,67l-1.78.12c-1-.56.63-1,.08-1.5l0,0C31.61,66,32.58,65.92,32.67,67Z"/><path class="cls-43" d="M17.45,9.48c7.64-6.7,20-6,26.92,1.35.37.39,1.68,1.12.41,1.81-.82.45-1.33,2.19-2.89.8C35,7.28,27.11,6.08,18.51,9.45a2.88,2.88,0,0,1-.65.13A2.26,2.26,0,0,1,17.45,9.48Z"/><path class="cls-44" d="M40.92,40.07c3.68-2.87,7.42-5.67,10.37-9.34.72.56.41,1.21.11,1.81-1.88,3.88-5.15,6.16-9,7.72A1.3,1.3,0,0,1,40.92,40.07Z"/><path class="cls-14" d="M51.78,16.83A7,7,0,0,1,52.65,24a3.18,3.18,0,0,1-3.13,1.07c-1.6-.31-3-.79-2.82-2.88C49.75,21.69,51,19.49,51.78,16.83Z"/><path class="cls-15" d="M38.15,44.47c1.76-.11,3.64.31,5.1-1.13-.25-.38-.67-.22-1-.3,1.54-.7,1.81-3,3.86-3.07C46.09,44.32,42,46.65,38.15,44.47Z"/><path class="cls-45" d="M46.68,22.36a5.34,5.34,0,0,0,2.84,2.71c0,.55,1.1,0,.84.85-3-.12-4.1-2.45-5.34-4.6-.34-1.81-.79-3.64.09-5.41.42-.85.86-1.74,2-1.86l1,.43C45.42,16.69,46.05,19.52,46.68,22.36Z"/><path class="cls-46" d="M38.67,42h0c-.61-1.34-1.34-2.68.24-3.89l0,0c.6-.23,1.08-.78,2-.71-.78.95-1.9,1.75-1.22,3s1.89,1,3.06,1C41.63,43.49,40.06,42.07,38.67,42Z"/><path class="cls-22" d="M46.68,22.36a6.38,6.38,0,0,1-.91-5.85,2.71,2.71,0,0,1,2.38-2,4.34,4.34,0,0,1,3.63,2.35C51.77,20.79,50.57,22.1,46.68,22.36Z"/><path class="cls-6" d="M38.91,38.08c-.92,1.25-.3,2.58-.24,3.89C37.59,40.6,36.87,39.26,38.91,38.08Z"/><path class="cls-47" d="M13.79,64c2.08-2,3.62-2,5.45-.17a1.33,1.33,0,0,1-.73,2,4.82,4.82,0,0,1-4.3,0A1.15,1.15,0,0,1,13.79,64Z"/><path class="cls-48" d="M13.79,64c-.24,2.14,1.34,1.69,2.5,1.69,1.33,0,2.82.12,2.95-1.86.77.17,1.38.44,1.34,1.42s-1,1.13-1.64,1.49a8.29,8.29,0,0,1-4.39.27,5.62,5.62,0,0,0-1.28-.81c-.6-.2-1.63.19-1.41-1A1.35,1.35,0,0,1,13.79,64Z"/><path class="cls-49" d="M14.55,67c1.42-.77,2.91-.43,4.39-.27C17.55,68,16.11,68.5,14.55,67Z"/><path class="cls-50" d="M21.68,73.83c2.09,0,4.19,0,6.29,0H21.68Z"/><path class="cls-50" d="M10.11,74.25c-.1-.24-.19-.52-.44-.48A5,5,0,0,0,10.11,74.25Z"/><path class="cls-51" d="M45.51,74.27c1.94-.3,4.35-2.15,5.86-3.64s3.43-.44,5-2.74,1-3,1.91-3.08c.4,0,1.09-.17,1.76-.29a1.85,1.85,0,0,1-1-.5c-.46-.51-.61-.06-.8.26L57,64.74c-1.51,1.54-2.68,3.43-4.62,4.53l-1,0c-1-.49-.83.9-1.52.88l-1,.41c-.44-.24-.72-.06-.9.35s0,.91-.45,1.2A2.18,2.18,0,0,1,44.45,72a9.09,9.09,0,0,1-.78-.74,4,4,0,0,1-.59-1.12,12.36,12.36,0,0,0-.25-1.24c-.38-.12-.81-.15-1-.61.29-.5.14-.81-.42-.92l-.39.44a2.66,2.66,0,0,1,.25,1C41.43,70.62,43.58,74.58,45.51,74.27Z"/><path class="cls-52" d="M12.87,75.19h4.91A5.67,5.67,0,0,0,12.87,75.19Z"/><path class="cls-53" d="M10.11,74.25a3.1,3.1,0,0,0,2.15.94h.18a2.85,2.85,0,0,1,.4-.58,6.41,6.41,0,0,1,5.08-.08c.28.23.54.45.78.67l11.24,0a6.41,6.41,0,0,0,2.43-.49l-.54-.51c-.56-.51-1.25-.37-1.92-.37h-.74a5.35,5.35,0,0,1-1.2,0c-2.1,0-4.2,0-6.29,0h7.49a1.4,1.4,0,0,0,.88-.51l-.9-.81c-.83-.88-1.92-.71-2.95-.73-3.07,0-6.14,0-9.21,0-1.93,0-3.89.43-5.8-.22a7.13,7.13,0,0,1-.68-.33,3.18,3.18,0,0,0-1-.33.89.89,0,0,0-1,.69,7.61,7.61,0,0,0,1.21,2.22C9.92,73.73,10,74,10.11,74.25Z"/><path class="cls-53" d="M21.68,73.83h0Z"/><path class="cls-53" d="M29.17,73.82H28A5.35,5.35,0,0,0,29.17,73.82Z"/><path class="cls-53" d="M12.87,75.19a5.67,5.67,0,0,1,4.91,0h.92c-.24-.22-.5-.44-.78-.67a6.41,6.41,0,0,0-5.08.08,2.85,2.85,0,0,0-.4.58h.43Z"/><path class="cls-54" d="M17.78,75.21l.12.05h.86l-.06-.06Z"/><path class="cls-48" d="M11.9,65.79s1,2.39,7.43.75L14.82,66Z"/><path class="cls-37" d="M28.21,63.16l3.36,7.31,3.28-2.39s-4.23-3.31-4.78-5.59C30.07,62.49,27.73,61,28.21,63.16Z"/><path class="cls-55" d="M31.83,74.19H11.67v-.88H30.05C31,72.94,31.82,72.73,31.83,74.19Z"/><path class="cls-53" d="M11.67,73.31a2.39,2.39,0,0,0,2.09.88c1.55,0-2.34.45-2.34.45L10.11,73Z"/></g></g></svg>