<svg xmlns="http://www.w3.org/2000/svg" viewBox="0 0 71.75 47.51"><defs><style>.cls-1{fill:#090809;}.cls-2{fill:#020305;}.cls-3{fill:#778392;}.cls-4{fill:#9de5c2;}.cls-5{fill:#778393;}.cls-6{fill:#5b6672;}.cls-7{fill:#5c6672;}.cls-8{fill:#404752;}.cls-9{fill:#93a1b7;}.cls-10{fill:#89c8ab;}.cls-11{fill:#8ac8ab;}.cls-12{fill:#b6f1d5;}.cls-13{fill:#4c545e;}.cls-14{fill:#709f88;}.cls-15{fill:#6ea088;}.cls-16{fill:#4c545d;}.cls-17{fill:#4a555f;}.cls-18{fill:#040708;}.cls-19{fill:#040809;}.cls-20{fill:#070c12;}.cls-21{fill:#070911;}.cls-22{fill:#090f1a;}.cls-23{fill:#b3f1d3;}.cls-24{fill:#0a1a0e;}.cls-25{fill:#162e1e;}.cls-26{fill:#12331d;}.cls-27{fill:#0b1019;}.cls-28{fill:#030808;}.cls-29{fill:#040808;}.cls-30{fill:#0d0f18;}.cls-31{fill:#10171f;}.cls-32{fill:#a8e2c6;}.cls-33{fill:#a8e3c6;}.cls-34{fill:#abe6c9;}.cls-35{fill:#ace4c8;}</style></defs><g id="Layer_2" data-name="Layer 2"><g id="Layer_1-2" data-name="Layer 1"><path class="cls-1" d="M28.12,35.13A114.33,114.33,0,0,1,8.54,21.85a33.13,33.13,0,0,1-7.18-8.16A11,11,0,0,1,.25,11.07,5,5,0,0,1,3.18,4.7,17.21,17.21,0,0,1,10,3.27a44,44,0,0,1,12,1.36,1.73,1.73,0,0,0,1.78-.42,17.16,17.16,0,0,1,12-4.2c10.14.24,17.88,4.71,22.87,13.6a16.16,16.16,0,0,1,1.94,10.88c-.09.54.19.76.49,1a45.13,45.13,0,0,1,8.6,10.38,14.64,14.64,0,0,1,2.07,5.73,4.47,4.47,0,0,1-3.11,5.13,14.57,14.57,0,0,1-6.55.64,59.07,59.07,0,0,1-15.22-3.68A127.56,127.56,0,0,1,28.12,35.13Z"/><path class="cls-1" d="M29.35,17.05c2.89,1.81,5.81,3.59,8.84,5.16C41,23.65,43.81,25,46.72,26.15a.84.84,0,0,1,.62.78.32.32,0,0,0,.22.33c.19,0,.25-.13.26-.24.06-.39.26-.34.53-.24a41,41,0,0,0,8.14,2.28.84.84,0,0,1,.67.55c1.88,3.76,3.35,7.63,3.4,11.91a14,14,0,0,1-.43,2.73.56.56,0,0,1-.38.42c-.27-.51.17-1.18-.35-1.63,0,0-.11,0-.12.07-.32,1.42-.33,1.45-1.76,1.06A92.48,92.48,0,0,1,45.1,39.78c-2.41-1.05-4.79-2.17-7.2-3.23a.82.82,0,0,1-.58-.89,1.65,1.65,0,0,0-.5-1.26c-.3.48.12,1-.23,1.65-1.4-.76-2.78-1.53-4.18-2.27-4.23-2.25-8.33-4.73-12.39-7.27a2,2,0,0,1-.3-.29c1,.25,1.49-.38,2.06-1.09A47.06,47.06,0,0,1,29,18C29.32,17.76,29.69,17.54,29.35,17.05Z"/><path class="cls-1" d="M37,1.71c-.18.26-.53.38-.6.73a1.77,1.77,0,0,1-1.24.44,15.84,15.84,0,0,0-3.84.87,1.07,1.07,0,0,0-.31.13c-.32.24-.93.38-.77.84s.66.08,1,0A23.32,23.32,0,0,1,45.44,6a8.81,8.81,0,0,0,1.19.41c.16,0,.35.13.46-.06S47,6,46.93,5.92a6,6,0,0,0-2.36-1.58A19.9,19.9,0,0,0,38,2.74c-.39,0-.87.1-1.11-.4A7.11,7.11,0,0,1,39,1.39,22.14,22.14,0,0,1,52.71,8.3,18.53,18.53,0,0,1,58,19.06a14.36,14.36,0,0,1-.76,6.2.84.84,0,0,1-1,.63c-.55-.06-1.11-.13-1.67-.18a60.46,60.46,0,0,1-9.88-3.34,101.75,101.75,0,0,1-9.15-4.62,61,61,0,0,1-11-7.76c-1.65-1.53-1.71-2.08-.22-3.73A15.28,15.28,0,0,1,35,1.23a7.25,7.25,0,0,1,1.68,0C37,1.24,37.31,1.33,37,1.71Z"/><path class="cls-1" d="M16.25,23.9A69,69,0,0,1,6,15.53a6.26,6.26,0,0,1,2.2-1.62,38.35,38.35,0,0,1,12.06-4c.3-.05.61-.14.85.16a28.87,28.87,0,0,0,5.05,4.83,12.06,12.06,0,0,0-3.62,2.39,50.73,50.73,0,0,0-5.78,5.38A1.65,1.65,0,0,0,16.25,23.9Z"/><path class="cls-1" d="M21.12,10.06a9,9,0,0,0-2.78.4,38.78,38.78,0,0,0-10,3.6c-.81.43-1.55,1-2.32,1.47l-.43-.39c-1.2-1.18-1.17-1.28.5-1.77A9,9,0,0,0,7.27,13a3,3,0,0,0-2.51.28c-.55.28-.82.15-1.16-.3a14.13,14.13,0,0,1-2-3.19,3.56,3.56,0,0,1-.35-2c.22-1,1.13-1.31,1.9-1.74a.25.25,0,0,1,.38.18,1.4,1.4,0,0,1-.2.54,1.48,1.48,0,0,0,.85,2.11A1.82,1.82,0,0,0,6.47,7.7,1.24,1.24,0,0,0,6,6.37c-.26-.21-.59-.32-.85-.53s-.13-.55.2-.68a6.14,6.14,0,0,1,1.54-.41,41.68,41.68,0,0,1,9.79.36,5.65,5.65,0,0,1,1.39.57l.65-.17A15.27,15.27,0,0,1,20.81,6c.29.07.59.17.69.51a2.06,2.06,0,0,1-.24.44A2.28,2.28,0,0,0,21.12,10.06Z"/><path class="cls-1" d="M59.75,44.67a10.31,10.31,0,0,0,.51-4.77,23.76,23.76,0,0,0-1.92-7.15c-.47-1.07-.9-2.16-1.44-3.2a1.41,1.41,0,0,0-.41-.49,11.63,11.63,0,0,1,1.32,0,1.39,1.39,0,0,0,1.72-1c.22-.7.57-.24.8-.06.87.7,1.65,1.5,2.46,2.27a1.36,1.36,0,0,1,.56,1l.12.43a.72.72,0,0,1,.81.29A24.39,24.39,0,0,1,69,38.9c.11.27.33.57-.08.79a.73.73,0,0,1-.24.07c-1.29.1-1.81.61-1.69,1.64A1.74,1.74,0,0,0,69.05,43a1.1,1.1,0,0,1,.57,0c.37.47-.08.67-.33.87a5.9,5.9,0,0,1-3,1.1,23.55,23.55,0,0,1-3.66.27A13.36,13.36,0,0,1,59.75,44.67Z"/><path class="cls-1" d="M1,10.61a16.58,16.58,0,0,0,2.2,3.11c.34.42.74.76.64,1.37,0,.16.11.46.23.36.6-.49.83.13,1.06.38a63.61,63.61,0,0,0,8,6.77,136,136,0,0,0,11.52,7.64c3.52,2.1,7.15,4,10.74,5.94.74.4.74.39.49,1.42,1-1.08,1.71-.35,2.49,0,3.88,1.79,7.79,3.52,11.82,5,2.5.89,5.05,1.64,7.55,2.51.83.29,1.66.28,2.47.51s1.86.34,2.79.53a21,21,0,0,0,2.85.26c.1,0,.23-.05.34.23-7.06.43-13.53-1.77-20-4-.06-.37.39-.5.31-.91-2.06.94-3.69-.45-5.39-1.15a142,142,0,0,1-15.82-8,11.43,11.43,0,0,1-2.41-1.52,8.36,8.36,0,0,0-2.15-1.37,43.92,43.92,0,0,1-6.21-4.11,71.78,71.78,0,0,1-7.71-6.43A23.49,23.49,0,0,1,1.42,12c-.1-.23-.18-.47-.26-.71S1,10.84,1,10.61Z"/><path class="cls-1" d="M16.25,23.9c-.5-.46-.24-.72.14-1.14A52.82,52.82,0,0,1,24.7,15.4c.42-.31.82-.82,1.47-.51.17.1.35.19.5.3.67.47,1.65.81.77,2.08.67-.79,1.28-.89,1.91-.22,0,.31.38.3.5.56a55.94,55.94,0,0,0-8,7.71,3.59,3.59,0,0,0-.25.33c-.71,1.1-.7,1.1-1.9.57C18.51,25.53,17.39,24.7,16.25,23.9Z"/><path class="cls-1" d="M37,1.71c.19-.59-.4-.33-.48-.33a17.5,17.5,0,0,0-8.61,2.16,14.74,14.74,0,0,0-4.43,4c-.18.25-.3.59-.1.78A20.9,20.9,0,0,0,24.8,10c1.21,1,2.44,2,3.69,3,1.05.83,2.18,1.54,3.29,2.27A86.79,86.79,0,0,0,41,20.45a71.72,71.72,0,0,0,9.23,3.87c1.44.47,2.92.84,4.37,1.25.43.38,0,.71-.06,1.06a.52.52,0,0,1-.69.13c-.19-.34-.05-.82-.46-1.07-.11-.06-.1-.53-.33-.16a9.17,9.17,0,0,1-.44.89,5.15,5.15,0,0,1-2.35-.5,76.89,76.89,0,0,1-9.1-3.67c-2.52-1.17-4.94-2.5-7.35-3.85a56.48,56.48,0,0,1-11.15-7.82.56.56,0,0,1-.24-.9c.21-.36.43-.7.66-1.07-.38-.15-.54.13-.76.27s-.33.7-.63.42A.92.92,0,0,1,21.48,8c.32-.43.59-.89.92-1.3A15.89,15.89,0,0,1,33.22.94a21.35,21.35,0,0,1,5.13,0Z"/><path class="cls-1" d="M54.41,26.63c-.09-.38.32-.67.18-1.06a4.87,4.87,0,0,1,1.66.12c.37,0,.56,0,.72-.45a14,14,0,0,0,.29-8.73,20,20,0,0,0-5.19-8.58A24.17,24.17,0,0,0,45,3.15a19,19,0,0,0-5-1.4,2.55,2.55,0,0,1-1-.36,1.44,1.44,0,0,1,1.19-.25C48.12,2.84,54.25,7,58.11,14.29a7.11,7.11,0,0,1,.8,3.88c0,.53,0,.53.37.57.54.87.28,1.83.27,2.75a15.56,15.56,0,0,1-1.12,4.79,1.22,1.22,0,0,1-1.37,1c-.61-.05-1.22-.06-1.83-.15C54.9,27.05,54.55,27,54.41,26.63Z"/><path class="cls-1" d="M36.88,2.34c1.07.37,2.2.15,3.29.42a21.11,21.11,0,0,1,5.73,2A6.63,6.63,0,0,1,47.29,6c.16.16.31.34.18.6s-.45.21-.66.14c-.82-.26-1.64-.54-2.44-.85A21.47,21.47,0,0,0,33,4.66c-.85.14-1.7.3-2.55.46-.23,0-.46.07-.61-.14s0-.52.17-.67a3.82,3.82,0,0,1,1.32-.82,29.16,29.16,0,0,1,5.06-1.05Z"/><path class="cls-1" d="M68.81,39.6a2.7,2.7,0,0,0-.53-1.76,29.22,29.22,0,0,0-4.08-5.62,1.26,1.26,0,0,0-.73-.51,3.21,3.21,0,0,0,.66-1.79c.63.45.63.45.44,1.94.05,0,.13.05.14,0,.68-1,1-.29,1.47.25A23.89,23.89,0,0,1,70.59,40,7.91,7.91,0,0,1,71,42.81a2.49,2.49,0,0,1-1.89,2.39,13.16,13.16,0,0,1-6.39.06,1.28,1.28,0,0,1,.77-.21c1.79-.13,3.63-.12,5.27-1,.38-.2.91-.34.85-1a.44.44,0,0,1,0-.32A2.09,2.09,0,0,0,69,39.88.43.43,0,0,1,68.81,39.6Z"/><path class="cls-1" d="M22.66,10.58a20.83,20.83,0,0,1,2.72,2.05c1.51,1.19,3.12,2.24,4.73,3.28a96.68,96.68,0,0,0,8.53,4.82A70.7,70.7,0,0,0,52,26.17a4.23,4.23,0,0,1,.62.25c-.18.75-.6.83-1.3.59a95.43,95.43,0,0,1-19-9,54.6,54.6,0,0,1-8.81-6.38A3.78,3.78,0,0,1,22.66,10.58Z"/><path class="cls-1" d="M54.41,26.63a8.3,8.3,0,0,0,3.13.39c.41,0,.5-.34.6-.6a15.77,15.77,0,0,0,1.14-7.68l.12-.55a13.35,13.35,0,0,1-.2,8.43c-.67,1.82-.22,1.83-2.63,1.59a19.43,19.43,0,0,1-3.68-.77,2.06,2.06,0,0,1,.39-.86c.2-.13.39-.17.53.08Z"/><path class="cls-1" d="M18.07,5.68A24.89,24.89,0,0,0,14,5a26.23,26.23,0,0,0-5.24-.16,9.77,9.77,0,0,0-3.27.46c-.16.08-.57.06-.17.39a5.34,5.34,0,0,1-1.84.53A3.61,3.61,0,0,0,1.25,7.76c.1-1.1.94-1.59,1.76-2.06a14.75,14.75,0,0,1,7-1.63,37.27,37.27,0,0,1,8.09.62,2.14,2.14,0,0,1,.35.1C18.54,5.22,17.68,5.19,18.07,5.68Z"/><path class="cls-1" d="M63.35,31.28A33,33,0,0,0,60,28c-.19-.17-.3,0-.42.1.2-.58.39-1.15.59-1.72.12-.34.34-.36.57-.13a27.49,27.49,0,0,1,2.56,2.62C63.79,29.55,63.5,30.46,63.35,31.28Z"/><path class="cls-1" d="M21.5,6.47c-.86-.52-2-.31-2.78-1a3.41,3.41,0,0,1,3.11,0C22.24,5.61,22.16,5.84,21.5,6.47Z"/><path class="cls-1" d="M53.81,26.66l-.53-.08.1-.89C54.17,25.73,54,26.2,53.81,26.66Z"/><path class="cls-1" d="M53.67,37.09a1.88,1.88,0,0,1,.75,2.6,1.91,1.91,0,0,1-2.59.81A2,2,0,0,1,51,37.89,1.94,1.94,0,0,1,53.67,37.09Z"/><path class="cls-1" d="M32.78,31.57A1.84,1.84,0,0,1,32,29a1.94,1.94,0,0,1,2.68-.75,2,2,0,0,1,.69,2.65A1.91,1.91,0,0,1,32.78,31.57Z"/><path class="cls-1" d="M49.07,29.58a6.92,6.92,0,0,1-.22,4.8A12.15,12.15,0,0,1,49.07,29.58Z"/><path class="cls-1" d="M28.88,23.27a15.19,15.19,0,0,1-2.47,3.43A5.68,5.68,0,0,1,28.88,23.27Z"/><path class="cls-1" d="M42.15,25.89a.33.33,0,0,1,.15.43c0,.17-.18.3-.37.24s-.2-.26-.16-.43A.31.31,0,0,1,42.15,25.89Z"/><path class="cls-1" d="M55.47,14.24a14.22,14.22,0,0,1,.88,8.9c-.33,1.22-.52,1.36-1.73,1.23A30.73,30.73,0,0,1,47,22.21a67.39,67.39,0,0,1-6.83-2.92l-.79-.43c.35-.3.57-.06.79.05a54,54,0,0,0,10.22,3.83,31.63,31.63,0,0,0,3.36.65c1,.14,1.28-.1,1.54-1.08a14.46,14.46,0,0,0,0-7.36C55.3,14.74,55.18,14.52,55.47,14.24Z"/><path class="cls-1" d="M52.32,14c.29-.78,1-1.15.51-2,.55.21.89.64,1.42.33A1.89,1.89,0,0,0,53.94,14C53.47,13.39,53,13.63,52.32,14Z"/><path class="cls-1" d="M30.67,11.09a1.56,1.56,0,0,1,.88-1.59c.1-.06.27,0,.24.13A2.23,2.23,0,0,1,30.67,11.09Z"/><path class="cls-1" d="M47.66,10.5a.5.5,0,0,1,.18.59.26.26,0,0,1-.4.14.38.38,0,0,1-.14-.51C47.36,10.56,47.45,10.42,47.66,10.5Z"/><path class="cls-1" d="M17.45,20A1.94,1.94,0,0,1,14,18.12a2,2,0,0,1,2.69-.79A2,2,0,0,1,17.45,20Z"/><path class="cls-1" d="M11.45,15.88c-.22.27-.45.59-.85.54-.23,0-.13-.27,0-.4a.91.91,0,0,1,.86-.54C11.67,15.51,11.52,15.73,11.45,15.88Z"/><path class="cls-1" d="M3.43,6.25a3.32,3.32,0,0,1,1.84-.53l.22.11A1.68,1.68,0,0,1,6.75,7.34a1.72,1.72,0,0,1-1,1.6,2,2,0,0,1-2.21-.2A1.69,1.69,0,0,1,3.43,6.25Z"/><path class="cls-1" d="M68.81,39.6c1.53.9,1.77,2,.76,3.46a1.8,1.8,0,0,1-2.48-.61,1.94,1.94,0,0,1,.16-2.52A1.71,1.71,0,0,1,68.81,39.6Z"/><path class="cls-1" d="M64.42,37.61a.93.93,0,0,1,.18,1.06c0,.14-.22.21-.31,0a1.4,1.4,0,0,1-.23-1.1C64.1,37.45,64.28,37.53,64.42,37.61Z"/><path class="cls-1" d="M8.59,19.92c-.11.16-.26.23-.42.12s-.34-.31-.2-.56a.29.29,0,0,1,.42-.14A.51.51,0,0,1,8.59,19.92Z"/><path class="cls-1" d="M53.32,37.79a1.15,1.15,0,0,1,.38,1.55,1.12,1.12,0,1,1-1.92-1.15A1.15,1.15,0,0,1,53.32,37.79Z"/><path class="cls-1" d="M34.69,30.46a1.2,1.2,0,0,1-1.54.44,1.16,1.16,0,0,1-.4-1.55,1.11,1.11,0,0,1,1.52-.43A1.15,1.15,0,0,1,34.69,30.46Z"/><path class="cls-1" d="M16.74,19.57a1.12,1.12,0,0,1-1.95-1.11,1.12,1.12,0,1,1,1.95,1.11Z"/><path class="cls-1" d="M4.17,8.21a.74.74,0,0,1-.3-1.13A1.26,1.26,0,0,1,5.5,6.69a.75.75,0,0,1,.3,1.13A1.27,1.27,0,0,1,4.17,8.21Z"/><path class="cls-1" d="M68.16,42.37a1.24,1.24,0,0,1-.56-1.57.73.73,0,0,1,1.12-.34,1.32,1.32,0,0,1,.54,1.67A.79.79,0,0,1,68.16,42.37Z"/><path class="cls-2" d="M28.48,34.42A109.33,109.33,0,0,1,9.94,21.85a31.52,31.52,0,0,1-6.79-7.73,9.84,9.84,0,0,1-1-2.48,4.72,4.72,0,0,1,2.77-6,16.29,16.29,0,0,1,6.42-1.36A41.72,41.72,0,0,1,22.63,5.54a1.63,1.63,0,0,0,1.68-.4,16.28,16.28,0,0,1,11.38-4c9.6.23,16.93,4.47,21.66,12.88a15.38,15.38,0,0,1,1.83,10.3c-.09.51.18.72.47,1a42.81,42.81,0,0,1,8.13,9.82,14,14,0,0,1,2,5.43,4.25,4.25,0,0,1-3,4.86,13.73,13.73,0,0,1-6.2.6,55.77,55.77,0,0,1-14.41-3.48A121.64,121.64,0,0,1,28.48,34.42Z"/><path class="cls-3" d="M29.64,17.3c2.74,1.71,5.5,3.39,8.37,4.88,2.64,1.37,5.32,2.64,8.08,3.74a.76.76,0,0,1,.58.73.3.3,0,0,0,.21.31c.18.05.23-.11.25-.23,0-.36.24-.32.5-.22a38.12,38.12,0,0,0,7.7,2.15.83.83,0,0,1,.64.53,25.85,25.85,0,0,1,3.22,11.28,13.33,13.33,0,0,1-.41,2.58.5.5,0,0,1-.35.39c-.26-.48.15-1.1-.34-1.54,0,0-.11,0-.11.07-.3,1.34-.31,1.38-1.67,1a88.61,88.61,0,0,1-11.75-4.16c-2.29-1-4.54-2.06-6.82-3.06a.77.77,0,0,1-.55-.84,1.52,1.52,0,0,0-.48-1.19c-.28.45.11.94-.22,1.55-1.32-.71-2.63-1.44-4-2.14-4-2.13-7.89-4.48-11.73-6.88a1.85,1.85,0,0,1-.28-.28c1,.24,1.4-.36,1.94-1a44.42,44.42,0,0,1,6.84-6.73C29.61,18,30,17.77,29.64,17.3Z"/><path class="cls-4" d="M36.83,2.77c-.16.26-.5.37-.56.7a1.63,1.63,0,0,1-1.17.41,15.14,15.14,0,0,0-3.64.83.93.93,0,0,0-.29.12c-.3.23-.89.36-.74.8s.63.08.95,0a22.51,22.51,0,0,1,8.46-.26,22,22,0,0,1,5,1.46A9.44,9.44,0,0,0,46,7.23c.15,0,.34.12.44-.06s0-.29-.15-.41a5.73,5.73,0,0,0-2.24-1.49,18.85,18.85,0,0,0-6.23-1.52c-.36,0-.83.09-1-.38a6.88,6.88,0,0,1,2-.9A21,21,0,0,1,51.76,9a17.54,17.54,0,0,1,5,10.18A13.61,13.61,0,0,1,56,25.07a.79.79,0,0,1-1,.6c-.53-.06-1.06-.13-1.58-.17a56.47,56.47,0,0,1-9.37-3.17A94.65,94.65,0,0,1,35.43,18,57.26,57.26,0,0,1,25,10.61c-1.57-1.44-1.63-2-.21-3.53A14.43,14.43,0,0,1,35,2.32a7.67,7.67,0,0,1,1.59,0C36.91,2.34,37.17,2.42,36.83,2.77Z"/><path class="cls-5" d="M17.24,23.78a64.56,64.56,0,0,1-9.69-7.92,5.88,5.88,0,0,1,2.07-1.53A36.35,36.35,0,0,1,21,10.53c.29,0,.58-.13.81.15a28,28,0,0,0,4.78,4.58,11.07,11.07,0,0,0-3.42,2.26,48.87,48.87,0,0,0-5.48,5.09A1.56,1.56,0,0,0,17.24,23.78Z"/><path class="cls-6" d="M21.85,10.68a9,9,0,0,0-2.63.38,36.81,36.81,0,0,0-9.48,3.41c-.76.4-1.46.92-2.19,1.39-.14-.12-.28-.24-.41-.37C6,14.38,6,14.28,7.61,13.82a9.77,9.77,0,0,0,1.13-.35,2.77,2.77,0,0,0-2.37.26c-.53.26-.78.14-1.11-.29a13.26,13.26,0,0,1-1.89-3A3.48,3.48,0,0,1,3,8.5c.21-1,1.06-1.24,1.79-1.64A.23.23,0,0,1,5.19,7,1.37,1.37,0,0,1,5,7.54a1.41,1.41,0,0,0,.82,2A1.73,1.73,0,0,0,8,8.45a1.16,1.16,0,0,0-.45-1.26c-.24-.2-.55-.3-.8-.5s-.12-.52.19-.65a5.64,5.64,0,0,1,1.45-.38A38.87,38.87,0,0,1,17.64,6,4.93,4.93,0,0,1,19,6.53l.62-.16a14.72,14.72,0,0,1,2,.43c.28.07.56.16.66.48A2.1,2.1,0,0,1,22,7.7,2.14,2.14,0,0,0,21.85,10.68Z"/><path class="cls-7" d="M58.43,43.44a9.84,9.84,0,0,0,.48-4.5,22.78,22.78,0,0,0-1.82-6.78c-.45-1-.86-2-1.36-3a1.32,1.32,0,0,0-.4-.47,10.38,10.38,0,0,1,1.25,0,1.32,1.32,0,0,0,1.64-.95c.2-.66.54-.22.75-.05.83.66,1.56,1.42,2.33,2.15a1.27,1.27,0,0,1,.53.92l.11.41a.7.7,0,0,1,.77.27A23.24,23.24,0,0,1,67.14,38c.1.25.32.53-.08.75a.86.86,0,0,1-.23.06c-1.21.1-1.7.58-1.6,1.55a1.66,1.66,0,0,0,2,1.56c.19,0,.36-.1.55,0,.34.44-.08.63-.31.82a5.53,5.53,0,0,1-2.79,1A22.51,22.51,0,0,1,61.2,44,11.36,11.36,0,0,1,58.43,43.44Z"/><path class="cls-8" d="M2.78,11.2a15.23,15.23,0,0,0,2.09,3c.32.39.7.72.6,1.3,0,.14.1.43.22.33.57-.46.78.13,1,.36a59.21,59.21,0,0,0,7.55,6.41,125.62,125.62,0,0,0,10.91,7.23c3.33,2,6.77,3.77,10.17,5.63.69.38.7.37.46,1.34.92-1,1.61-.32,2.35,0,3.68,1.69,7.37,3.33,11.19,4.69,2.37.85,4.78,1.55,7.15,2.38.79.27,1.57.26,2.34.48s1.76.32,2.64.5a18.8,18.8,0,0,0,2.69.24c.1,0,.22,0,.33.22-6.68.41-12.81-1.67-18.94-3.75,0-.35.38-.47.3-.87-2,.9-3.49-.42-5.1-1.09a132.88,132.88,0,0,1-15-7.55,11.42,11.42,0,0,1-2.28-1.43,8.06,8.06,0,0,0-2-1.3,41.72,41.72,0,0,1-5.89-3.9A67.2,67.2,0,0,1,8.27,19.3,22,22,0,0,1,3.2,12.54c-.09-.22-.17-.45-.24-.67S2.84,11.42,2.78,11.2Z"/><path class="cls-9" d="M17.24,23.78c-.47-.43-.22-.68.14-1.08a49.08,49.08,0,0,1,7.86-7c.4-.29.78-.78,1.39-.48.16.09.33.18.48.28.63.44,1.56.76.72,2,.64-.75,1.21-.85,1.81-.21,0,.29.36.28.48.53a52.19,52.19,0,0,0-7.56,7.3,2.34,2.34,0,0,0-.24.31c-.66,1-.66,1-1.79.54C19.38,25.33,18.32,24.54,17.24,23.78Z"/><path class="cls-10" d="M36.83,2.77c.19-.55-.38-.31-.44-.31a16.62,16.62,0,0,0-8.16,2.05A13.92,13.92,0,0,0,24,8.3c-.18.23-.28.55-.1.74.5.5.83,1.12,1.39,1.59q1.73,1.44,3.49,2.84c1,.78,2.07,1.46,3.13,2.14a81,81,0,0,0,8.71,4.91,67.51,67.51,0,0,0,8.74,3.66c1.37.44,2.76.79,4.14,1.19.4.36,0,.67-.06,1a.5.5,0,0,1-.65.13c-.18-.33,0-.79-.43-1-.12-.06-.1-.5-.32-.16s-.22.59-.41.85a4.84,4.84,0,0,1-2.23-.48,72.78,72.78,0,0,1-8.62-3.46c-2.38-1.11-4.68-2.37-7-3.66a53.27,53.27,0,0,1-10.55-7.4.52.52,0,0,1-.23-.85l.62-1c-.35-.14-.51.12-.71.25s-.31.67-.6.41a.87.87,0,0,1-.2-1.22c.3-.4.56-.84.87-1.23A15.13,15.13,0,0,1,33.31,2a20.6,20.6,0,0,1,4.85,0Z"/><path class="cls-11" d="M53.36,26.37c-.08-.36.31-.64.18-1a4.38,4.38,0,0,1,1.57.11c.35,0,.53,0,.68-.43a13.2,13.2,0,0,0,.27-8.26,18.8,18.8,0,0,0-4.9-8.12,23.16,23.16,0,0,0-6.74-4.53,18,18,0,0,0-4.71-1.33,2.26,2.26,0,0,1-1-.34,1.36,1.36,0,0,1,1.12-.23c7.53,1.61,13.33,5.54,17,12.44a6.76,6.76,0,0,1,.76,3.68c0,.5,0,.5.35.54a4.38,4.38,0,0,1,.25,2.6A14.87,14.87,0,0,1,57.17,26a1.14,1.14,0,0,1-1.29.91c-.58,0-1.16-.05-1.74-.14C53.83,26.76,53.5,26.73,53.36,26.37Z"/><path class="cls-12" d="M36.77,3.37a29.23,29.23,0,0,0,3.12.4,20.09,20.09,0,0,1,5.42,1.9A6.52,6.52,0,0,1,46.63,6.8c.14.15.29.32.17.57s-.43.19-.63.13c-.78-.25-1.55-.51-2.31-.81a20.42,20.42,0,0,0-10.8-1.12c-.8.13-1.61.29-2.41.44-.22,0-.44.06-.58-.14s0-.49.16-.63a3.58,3.58,0,0,1,1.25-.78,27.17,27.17,0,0,1,4.79-1Z"/><path class="cls-13" d="M67,38.65A2.62,2.62,0,0,0,66.5,37a28.44,28.44,0,0,0-3.86-5.32,1.2,1.2,0,0,0-.69-.48,3,3,0,0,0,.61-1.69c.6.42.6.42.42,1.83.05,0,.13,0,.14,0,.64-.94,1-.28,1.39.24A22.65,22.65,0,0,1,68.69,39,7.76,7.76,0,0,1,69,41.69,2.37,2.37,0,0,1,67.24,44a12.47,12.47,0,0,1-6,0,1.25,1.25,0,0,1,.72-.19c1.7-.13,3.44-.11,5-1,.36-.2.86-.33.81-.92a.44.44,0,0,1,0-.3,2,2,0,0,0-.6-2.7A.47.47,0,0,1,67,38.65Z"/><path class="cls-14" d="M23.31,11.17a20.23,20.23,0,0,1,2.58,1.94,53.19,53.19,0,0,0,4.47,3.11c2.6,1.68,5.33,3.15,8.08,4.57a67.69,67.69,0,0,0,12.64,5.14c.2.06.39.16.59.24-.17.71-.58.78-1.24.56a89.89,89.89,0,0,1-18-8.57,50.63,50.63,0,0,1-8.34-6A3.27,3.27,0,0,1,23.31,11.17Z"/><path class="cls-15" d="M53.36,26.37a7.86,7.86,0,0,0,3,.37c.39,0,.47-.32.57-.57A15,15,0,0,0,58,18.9l.11-.52a12.59,12.59,0,0,1-.19,8c-.64,1.72-.21,1.74-2.49,1.5a16.71,16.71,0,0,1-3.48-.73,1.89,1.89,0,0,1,.36-.8c.2-.13.37-.17.51.07Z"/><path class="cls-16" d="M19,6.53a24.53,24.53,0,0,0-3.9-.61,24.92,24.92,0,0,0-5-.15A8.82,8.82,0,0,0,7,6.21c-.15.07-.53,0-.16.36a5,5,0,0,1-1.74.51A3.41,3.41,0,0,0,3,8.5c.09-1,.89-1.5,1.67-1.94A14,14,0,0,1,11.29,5a35.74,35.74,0,0,1,7.65.59c.13,0,.25.07.34.09C19.41,6.1,18.6,6.07,19,6.53Z"/><path class="cls-17" d="M61.83,30.77a31.63,31.63,0,0,0-3.22-3.12c-.18-.15-.28,0-.39.1.18-.54.37-1.09.56-1.63.11-.31.32-.33.53-.12a25.84,25.84,0,0,1,2.43,2.48C62.24,29.13,62,30,61.83,30.77Z"/><path class="cls-16" d="M22.21,7.28c-.81-.49-1.86-.29-2.63-.91a3.27,3.27,0,0,1,2.94,0C22.91,6.47,22.84,6.69,22.21,7.28Z"/><path class="cls-11" d="M52.8,26.4l-.51-.07.11-.85C53.14,25.52,53,26,52.8,26.4Z"/><path class="cls-18" d="M52.67,36.27a1.79,1.79,0,0,1,.71,2.46,1.82,1.82,0,0,1-2.46.77A1.9,1.9,0,0,1,50.15,37,1.84,1.84,0,0,1,52.67,36.27Z"/><path class="cls-19" d="M32.89,31.05a1.76,1.76,0,0,1-.71-2.45,1.84,1.84,0,0,1,2.53-.71,1.89,1.89,0,0,1,.66,2.51A1.82,1.82,0,0,1,32.89,31.05Z"/><path class="cls-20" d="M48.31,29.17a6.51,6.51,0,0,1-.21,4.53A11.34,11.34,0,0,1,48.31,29.17Z"/><path class="cls-21" d="M29.2,23.19a14.16,14.16,0,0,1-2.34,3.24A5.32,5.32,0,0,1,29.2,23.19Z"/><path class="cls-22" d="M41.76,25.67a.32.32,0,0,1,.15.4c0,.17-.18.29-.36.23s-.19-.24-.15-.4A.29.29,0,0,1,41.76,25.67Z"/><path class="cls-23" d="M54.37,14.64a13.36,13.36,0,0,1,.83,8.42c-.31,1.16-.49,1.29-1.64,1.17a28.56,28.56,0,0,1-7.19-2.05,63.48,63.48,0,0,1-6.47-2.76L39.16,19c.33-.28.54-.05.74,0a52.25,52.25,0,0,0,9.68,3.63,30.76,30.76,0,0,0,3.18.61c.92.14,1.21-.1,1.46-1a13.61,13.61,0,0,0,0-7C54.21,15.11,54.1,14.91,54.37,14.64Z"/><path class="cls-24" d="M51.39,14.41c.28-.73,1-1.09.48-1.88.52.2.84.6,1.34.31a1.79,1.79,0,0,0-.29,1.54C52.48,13.83,52,14.06,51.39,14.41Z"/><path class="cls-25" d="M30.89,11.65a1.47,1.47,0,0,1,.84-1.5c.09-.06.25,0,.23.12A2.08,2.08,0,0,1,30.89,11.65Z"/><path class="cls-26" d="M47,11.1a.46.46,0,0,1,.16.56.23.23,0,0,1-.37.13.37.37,0,0,1-.14-.48C46.69,11.15,46.78,11,47,11.1Z"/><path class="cls-19" d="M18.37,20.06a1.85,1.85,0,0,1-2.48.73,1.87,1.87,0,0,1-.74-2.48,1.91,1.91,0,0,1,2.54-.75A1.85,1.85,0,0,1,18.37,20.06Z"/><path class="cls-27" d="M12.7,16.19c-.21.26-.43.56-.81.51-.21,0-.12-.25,0-.38a.87.87,0,0,1,.82-.51C12.9,15.85,12.76,16.05,12.7,16.19Z"/><path class="cls-28" d="M5.1,7.08a3.08,3.08,0,0,1,1.74-.51l.22.1A1.59,1.59,0,0,1,8.24,8.11a1.62,1.62,0,0,1-1,1.51,1.9,1.9,0,0,1-2.1-.19A1.6,1.6,0,0,1,5.1,7.08Z"/><path class="cls-29" d="M67,38.65c1.45.85,1.67,1.88.72,3.27a1.7,1.7,0,0,1-2.35-.57A1.83,1.83,0,0,1,65.52,39,1.62,1.62,0,0,1,67,38.65Z"/><path class="cls-30" d="M62.84,36.76a.85.85,0,0,1,.17,1c0,.14-.2.21-.29.05a1.29,1.29,0,0,1-.22-1C62.54,36.62,62.71,36.69,62.84,36.76Z"/><path class="cls-31" d="M10,20c-.1.16-.25.23-.4.12s-.32-.29-.19-.53a.27.27,0,0,1,.39-.13A.46.46,0,0,1,10,20Z"/><path class="cls-32" d="M52.33,36.94a1.07,1.07,0,0,1,.36,1.46,1,1,0,0,1-1.45.37,1.06,1.06,0,0,1-.36-1.45A1.07,1.07,0,0,1,52.33,36.94Z"/><path class="cls-33" d="M34.7,30a1.13,1.13,0,0,1-1.46.41A1.08,1.08,0,0,1,32.86,29a1.05,1.05,0,0,1,1.44-.41A1.09,1.09,0,0,1,34.7,30Z"/><path class="cls-33" d="M17.7,19.69a1.06,1.06,0,0,1-1.84-1.06,1.06,1.06,0,1,1,1.84,1.06Z"/><path class="cls-34" d="M5.8,8.93a.71.71,0,0,1-.28-1.07A1.18,1.18,0,0,1,7.06,7.5a.7.7,0,0,1,.29,1.07A1.23,1.23,0,0,1,5.8,8.93Z"/><path class="cls-35" d="M66.39,41.27a1.17,1.17,0,0,1-.53-1.49.7.7,0,0,1,1.06-.32,1.24,1.24,0,0,1,.5,1.58A.72.72,0,0,1,66.39,41.27Z"/></g></g></svg>