<svg id="Layer_1" data-name="Layer 1" xmlns="http://www.w3.org/2000/svg" xmlns:xlink="http://www.w3.org/1999/xlink" viewBox="0 0 36.61 72.2"><defs><style>.cls-1{fill:none;}.cls-2{fill:#080807;}.cls-3{fill:#366760;}.cls-4{fill:#376f6f;}.cls-5{fill:#337067;}.cls-6{fill:#5c4745;}.cls-7{fill:#050606;}.cls-8{fill:#ae504b;}.cls-9{fill:#d7b294;}.cls-10{fill:#c54e55;}.cls-11{fill:#c9b29a;}.cls-12{fill:#bc4c50;}.cls-13{fill:#e4b491;}.cls-14{fill:#dbe2e3;}.cls-15{fill:#dde1e2;}.cls-16{fill:#ebecec;}.cls-17{fill:#383339;}.cls-18{fill:#979090;}.cls-19{clip-path:url(#clip-path);}.cls-20{clip-path:url(#clip-path-2);}.cls-21{fill:#161616;}</style><clipPath id="clip-path"><circle class="cls-1" cx="-2378.63" cy="466.06" r="100"/></clipPath><clipPath id="clip-path-2"><path class="cls-1" d="M-1795.23,3063.22c477.91-257,745.16-1176.69,695.61-1708,0,0-43.57-545.6-114.43-949.37,6.77-118.45-82.38-244.35-114.32-362.17C-1413.77-271-1606.56-507.53-1868.84-690c-392.88-273.43-838.85-408-1305.71-482.41-52.35-8.35-99.2-18.66-135.21-59.12-61.13-31.46-124.69-21.83-187-7.56C-4313-1052-5055.64-729.41-5597.9-58.44c-126.07,156-252.23,320.66-291.47,528.78-31.72,77.63-64.14,154.94-95.18,232.67-81.8,207.86-221.08,398.8-186.92,641,6.45,46-13.38,82.33-58.17,102-30.61,87-22.84,175-6.29,263.17a2785.37,2785.37,0,0,0,301.19,838.75c170.22,306.33,390,585.42,690.27,775.25,589.54,372.63,1240.68,423.66,1908.9,304.31"/></clipPath></defs><path class="cls-1" d="M3,46.8l0,1A5.09,5.09,0,0,0,3,46.8Z"/><path class="cls-2" d="M3,47.83v13.8c.11.84.23,1.67.29,2.53.27,3.68.92,4.28,4.75,4.35s7.62-.19,11.42.31c4.64.25,8.92-.66,12.53-3.76l.09-.12a4.51,4.51,0,0,0,1.16-3.47c0-3.72.14-7.45.24-11.18l-.09,0V44.57c-.05-5-.14-10-.23-15.07a28,28,0,0,0-.23-3.31c-.5-3.42-.92-3.9-4.36-4-1.67-.06-2.16-.54-2.15-2.19,0-2.81-.23-5.61-.37-8.42-.09-1.62.06-3.33-2.38-3.38s-4.18,1.07-4.46,3.27a59.62,59.62,0,0,0-.47,7.9c0,2-.78,2.61-2.68,2.5-3.89-.24-7.36,1.15-10.63,3a3.82,3.82,0,0,0-2,1.94L3,46.8A5.09,5.09,0,0,1,3,47.83Z"/><path class="cls-3" d="M5.1,46.23c0-5.45,0-10.9,0-16.35,0-1.5.39-2.06,2-2.05,5.52.07,11,.79,16.56.44,1.84-.11,1.74,1.11,1.76,2.34.2,8.33.44,16.65.57,25,0,2.7.78,5.37.18,8.13-.3,1.38-.84,1.9-2.14,1.93a77,77,0,0,1-15.76-.78c-2-.37-2.87-1.26-2.69-3.24A1.39,1.39,0,0,1,7,61.31a34.69,34.69,0,0,0,11.23,0c.92-.18,1.84.33,2.76.48,2.62.44,3.84-.92,2.76-3.3-.62-1.45-1.22-2.65-.15-4.18.51-.74,0-1.84-.21-2.76a7,7,0,0,1-.12-1.11,18.14,18.14,0,0,1,.12-2.55c.28-2.55-.59-3.43-3-2.49-1.67.66-3.12,0-4.53,0a31.16,31.16,0,0,1-8.28-.46C6.45,44.68,6.62,47.21,5.1,46.23Z"/><path class="cls-4" d="M27.44,64.88c.31-3.68-.42-7.07-.47-10.56-.09-7.46-.32-14.92-.47-22.39-.1-4.69.07-4.91,4.69-6.85q.66,17.64.47,35.23C31.63,63.31,30.14,64.3,27.44,64.88Z"/><path class="cls-5" d="M30.16,24.07a10.76,10.76,0,0,1-8.06,3.2c-4.81,0-9.62-.22-14.42-.37-.65,0-1.62.13-1.77-.63-.21-1,.92-1.06,1.54-1.31a22.24,22.24,0,0,1,8.17-1.62c1.36,0,2.49-.12,3.17,1.66s5.65,1.78,7.11.15C27,23.86,28.24,23.68,30.16,24.07Z"/><path class="cls-6" d="M5.1,48.9H6a12.63,12.63,0,0,1,.09,2.46c-.22,1.36-.66.09-1,0C5.1,50.53,5.1,49.71,5.1,48.9Z"/><path class="cls-3" d="M5.66,55.54c.52.08,1.25,0,1,.92-.18.65.17,1.76-1.18,1.53C5.54,57.15,5.59,56.35,5.66,55.54Z"/><path class="cls-7" d="M17.13,42.7c-2.82.52-5.81-.48-8.86-.53-1.77,0-2.53-1.05-2.68-2.76-.22-2.57.49-5.06.57-7.6a1.35,1.35,0,0,1,1.29-1.39l.23,0c4.68,0,9.35-.28,14,.31,1.75.22,2.3,1.07,2.25,2.7-.08,2.21-.09,4.44,0,6.64.09,1.84-.6,2.7-2.49,2.61C20.12,42.64,18.75,42.7,17.13,42.7Z"/><path class="cls-6" d="M9.7,49.78a7.1,7.1,0,0,1,4.65.48A2.36,2.36,0,0,0,16.79,50c1-.87,1.78-.74,2.91,0s2.81.22,4.24.29v1.11c-1.79-.3-3.68-1.62-5.26.49-.47.63-.79,0-1.2-.29-1.84-1.07-3.68-1.63-5.19.46-.25.34-.38.61-.6.09-.86-2-2.85-.92-4.84-1.77C8.11,50.19,9,50.35,9.7,49.78Z"/><path class="cls-8" d="M8.05,51.82c1.46,0,2.45.19,2.49,1.58s-.92,1.49-2,1.52-1.89-.36-1.88-1.69S7.35,51.68,8.05,51.82Z"/><path class="cls-9" d="M8.78,61c-.35-.08-1.59.36-1.6-1.29C7.18,58.42,7.66,58,9,58s2,.22,2,1.59C11,60.72,10.48,61.32,8.78,61Z"/><path class="cls-10" d="M21.31,54.91c-1.26.14-1.93-.28-1.88-1.67,0-1.12.57-1.45,1.6-1.4,1.21.06,2.27.38,2.3,1.79S22.21,54.83,21.31,54.91Z"/><path class="cls-11" d="M21.82,58c1.32-.13,2,.5,2,1.84S22.75,61,21.87,61.1c-1.29.13-1.84-.41-1.84-1.71S20.65,57.82,21.82,58Z"/><path class="cls-12" d="M14.77,54.87c-1,.14-1.64,0-1.66-1.25A1.56,1.56,0,0,1,15,51.83c1.06,0,1.84.43,1.9,1.61C17,55.07,15.77,54.83,14.77,54.87Z"/><path class="cls-13" d="M15,58c1.39,0,2.33.22,2.42,1.6s-.92,1.49-2,1.54-1.72-.23-1.76-1.51S14.11,57.94,15,58Z"/><path class="cls-3" d="M16.62,56.58c1.38-2.28,2.83-.19,4.51-.11C19.47,57.53,18.06,57.81,16.62,56.58Z"/><path class="cls-3" d="M15.11,56.73l-1.2.29c-1,.18-2,1.21-2.84-.27-.21-.36-.51-.83,0-1.08,1-.54,1.66.48,2.5.71C13.94,56.48,14.34,56.55,15.11,56.73Z"/><path class="cls-14" d="M8.67,48.69c-1.27.22-2,0-2-1.51,0-1.11.34-1.84,1.58-1.66,1,.18,2.3,0,2.27,1.69C10.54,48.68,9.78,48.91,8.67,48.69Z"/><path class="cls-15" d="M19.58,47c-.45-1.46.5-1.55,1.52-1.52s2.23,0,2.26,1.68c0,1.31-.7,1.55-1.77,1.52S19.23,48.82,19.58,47Z"/><path class="cls-16" d="M14.87,48.66c-1.14.17-1.84-.14-1.84-1.59,0-1.61,1-1.49,2-1.51,1.28,0,1.78.6,1.77,1.89C16.85,49,15.9,48.76,14.87,48.66Z"/><path class="cls-17" d="M8,31.34a4.07,4.07,0,0,1,4,2.35c1.17,1.84,2.39,3.68,3.48,5.6.38.64,1.36,1.56.25,2.15a2.06,2.06,0,0,1-2.85-.57l-.07-.11C11.21,37.72,9.7,34.63,8,31.34Z"/><path class="cls-18" d="M21.12,41.42a30.61,30.61,0,0,1-5.21-9.73C18,34.74,20.15,37.77,21.12,41.42Z"/><g class="cls-19"><g class="cls-20"><path class="cls-21" d="M-5236.69-1005.38c1.58-92-3.39-184.12,2.9-276.07,5.29-9.79-6-19.57,0-29.35h875.24c2,5.87-2.59,8.83-5.71,12.16-10.84,11.48-19.19,25.22-31.41,35.48a10.59,10.59,0,0,0-12,9,10.57,10.57,0,0,0,.19,4,25.87,25.87,0,0,1-10.58,13.59,40,40,0,0,1-32,4.7,61.22,61.22,0,0,0-17.24-1.16,65,65,0,0,1-26.44-3.6c-23.95-3.8-48-10.57-71.54,1.8a95.56,95.56,0,0,1-18.4,4.55c-30.62,5.29-41.88,27-28.13,54.94a342.27,342.27,0,0,0,77.62,101.84,931,931,0,0,0,78.47,63.88c3.86,2.86,8.3,5.29,10.1,10.58,0,3.54-2.64,4.7-5.6,5.28-11.32,0-17.35-9.46-26-14.33-1.85-1-4-4-6.08-1.32-1.48,1.85.32,4.6.58,7,.43,3.81-1.16,7.77.8,11.53A232.12,232.12,0,0,0-4462.08-925a60.3,60.3,0,0,1,5.29,15.86c-2.81,5.29-4.24,9.83,4.7,9,6.77,3.81,7.35,12.27,12.9,17,7.46,11.37,14.92,22.74,27.08,29.82a269.32,269.32,0,0,0,118.23,73.55,465.29,465.29,0,0,0,60.23,12.64,118.85,118.85,0,0,0,41.93-.37c11.79,0,22.69-5.66,34.53-5.29,6.56,2.12,4.07,6.4,2.59,10.58-1.16,3.28-2.22,7,1.11,9.41s6.77,0,9.15-2.11c9.68-9.2,21.58-9.52,33.74-12.54,21.47-5.28,43.78-8.35,64.72-15.86,3.23-1.16,4-3.65,5.29-6.45q8.09-20.1,25.91-7.35A110,110,0,0,1-4001-786.36c1.38,1.38,2.54,3.71,4.18,4,16.71,2.86,27.5,15.18,40.29,24.38,5.29,3.65,9.21,1.74,11.85-3.7,5.29-11.48,13.85-12.54,25.59-9.26a167.07,167.07,0,0,0,66.89,4.6,71.89,71.89,0,0,1,39.93,5.29c9.25,4.18,15.28,1.85,19.83-5.29a46.94,46.94,0,0,1,27.28-20.73c10.58-3.27,12.16-15.86,21.15-21.83-14.17,10.57-30.24,10.57-46.53,10.57-13.7-.37-27.39,0-41.09,0-8.72,0-16.44-1.11-21.15-9.89a16.33,16.33,0,0,0-12.27-7.24c-3.33-.64-8,0-9.62-2.8-9.47-14.65-21.15-9.1-33.37-5-6.18,2.11-12.58,0-18.87-1-24.27-2.9-44.79,2.17-55.79,26.92-1.53,3.44-4,5.92-7.93,5.29-9.68-2-13.06-9.79-15-18a11.59,11.59,0,0,1,6.61-15l.53-.19c9.68-4.65,4.44-16.23,7.62-24.64-7.09,7.45-13.86,10.94-21.74,2.17.64-10.58,4.08-18.3,16.77-16.82a38.85,38.85,0,0,1,7.35,1.11,787.82,787.82,0,0,0,103.53,0,46.86,46.86,0,0,1,11.74-1.22c4.23.53,8.83,0,11.42,6.14-8.93,6-19.46,7.24-31.72,10.57,15.38-.68,27.86,2,36.69,13.59,2.07,2.75,6.4,5.29,8.89,3.71,10.57-7.09,25.17-2.86,34.05-13.38a19.74,19.74,0,0,1,8.51-5.29c10.58-4,23.38-7.14,10.16-22.42-1.75-2.06.58-6.56,1.21-9.89,4.55-8.3,12.75-13.91,17-22.53.95-1.69,2.59-3.54,2.38-5.28-.74-5.56,11.42-1.27,6.76-9.52-7.56-13.54-3.54-34.11-24.27-39.61a30.65,30.65,0,0,1-13.64-15.23c-1.53-5.81-1.53-13.06-10.89-11.63a19.5,19.5,0,0,1-12.69-12.85c-.27-9.94-1.8-18.56-15.39-13.8a11.31,11.31,0,0,1-9.62-6.93c-2.28-13.16-9.58-18.66-21.16-15.86-17.45-4.34-28.76-19.72-45.58-25.28-3.12-1-5.28-4.28-9.94-3.64-3.12,11.58,1.48,18,12.06,24a234.57,234.57,0,0,1,87.19,82.17c12.85,21.15,7.2,37.65-15.86,46.69a80.26,80.26,0,0,1-32.84,6.61,517.43,517.43,0,0,1-66.68,3c-10-.31-18-3.22-22.63-12.74-2.85-11,4.66-19.72,6.82-29.66a129.76,129.76,0,0,0,6.93-18.88c5.29-14,6.24-29.08,10.21-43.41,4-5.29,1.32-11,.42-16.61-.42-14.38-4.39-28.45-3.6-42.88a38.38,38.38,0,0,0-1.58-18.14c-3.92-17.5-11-34.16-14.76-51.71-1-5.71,7.72-15.07-6.08-15.87a439.65,439.65,0,0,0-85.92-95.18c-2.17-9.2-9.79-8.35-16.66-8.88a548.48,548.48,0,0,0-77.68-28.4,11.41,11.41,0,0,1-7.93-6.18c1.48-8.41,7.93-6.56,13.33-6.14a60.36,60.36,0,0,0,18.87.85c0-6-10.57-8.46-5.29-15.86h810.63c1.11,8.09-1.7,15.86-1.48,24a156.06,156.06,0,0,1-24.38,35.32,9.21,9.21,0,0,1-1.38.32c-5.71.79-13.43-6.5-16.71.64s10.21,3.06,10.58,10.15a20.5,20.5,0,0,1-6.45,14.86c-14-.32-1.16,9-4.44,12.53a86,86,0,0,1-3.18,12.64,263.19,263.19,0,0,0-14,62.76c-3.38,14.28-1.74,28.72-1.26,43.1a24,24,0,0,1,1.16,4.18,271.76,271.76,0,0,0,17.13,70.32,205.35,205.35,0,0,0,32.31,62,33.4,33.4,0,0,1,7.46,12.48c-2,7.19.47,10.57,8.24,9.89a276,276,0,0,1,32.68,29.29c.8,7.72,6.14,8.41,12.27,8,6.4,2.91,13.59,4.65,16.82,11.95-2.81,7.08-10.9,2.64-16.18,7.77,13.48,4,18.77,13.8,22,26.44A19.52,19.52,0,0,0-3234-836.11a18.67,18.67,0,0,0,19.83-11.53c5-8.94,11.89-8.41,15.38,1.37,2.49,6.82,5,10.58,12.8,10.58A12.16,12.16,0,0,1-3172.55-825a12.12,12.12,0,0,1-.37,4.64c-1.26,9.57,4.82,10.9,11.8,9.89a256.26,256.26,0,0,1,71.38,0,16.61,16.61,0,0,0,8.67-.74c2.91-1.16,5.29-3,4.87-6.4s-3.07-3.8-5.29-4.12c-17.08-2-33.31-9.89-51.56-2.38-10.15,4.18-23.31,5.71-27.49-11.37-1.11-4.34-7.72-5.29-12.27-7.19a74,74,0,0,1-18.67-8.36c-4.38-3.33-7.5-7.45,1-10.1,37,9.42,74.4,7.51,111.73,1.54a12.94,12.94,0,0,1,13.16,7.3c2.38,5.6-3.06,7.19-7.29,9.94,15.28-2.12,4.44-12.06,6.82-17.88a39.72,39.72,0,0,1,22.79-7.35c8.3,1.54,9.73,5.66,4.49,12.17a49.2,49.2,0,0,0-5.55,6.82c-1.69,3.17-2.75,6.55.42,9.3s5.66.8,7.88-1.27c11.32-10.57,22.11-9.09,34.11-.31a26.45,26.45,0,0,0,36.78-6.75c.21-.3.41-.61.6-.92,2.86-4.07,2-6.5-.58-10.58-9.57-14.38-7.35-18.77,10-21.15s19.24-5.28,18.56-22.89a24.59,24.59,0,0,1,2.06-12.91,15.85,15.85,0,0,0-3.86-20.88c-.79-6.66,4.18-10.58,7.3-15.44,12.95-20.1,28.29-38.82,35.32-62.29a276.19,276.19,0,0,0,18.56-97.56,259.16,259.16,0,0,0-23.58-119.51,30.73,30.73,0,0,1-3.6-13.11c6.19-16.29,5.66-15.86-9.1-28a92.56,92.56,0,0,1-26.43-37.8h763.5c2.59,16.55-11.47,11.1-19.09,15,0,3.17,4.39,4.28,5.29,7.61,0,4.82-1.48,10.58,5.29,12.59,12.21-1.85,12.21-1.85,25.86,9-3.71-13.48-3.55-24.64,11.47-28.92,13.33,3.22,16.71-9.42,24.32-15.28h180.64c8.77,0,10.57,1.79,10.57,10.57q-.59,200.46-.26,400.92C-1723-1021.29,191.82,1841.26,68.72,1926.92c0,14.81-1064.17-134-1254.32-866.24-118.76-463.8-209.29-287.08-245.93-373.75-120.14-283.79-243.24-452-384.8-323-96.87,88.2-160.91-135-160.91-134.78-3.8,5.55,39.56-872,40.88-866.36,6,25.12-7.35,48.07-7.14,72.39,0,3.76-.64,9-5.29,9s-5.76-4.7-6.93-8.62a2.26,2.26,0,0,1-.26-1.42c5.29-29.46-3.17-59.33,2.59-88.79a46.16,46.16,0,0,0,1.64-15.86c-1.06-6.77-2.75-12.43-11.79-11.21s-14.44-3.81-19-11c-8.41-13.43-14.92-14.44-26.92-4.18A51.65,51.65,0,0,1-2032-683.82a8.83,8.83,0,0,0-7,4.75c-7,19.46-23.32,15.87-38.28,15.55a81,81,0,0,1-24-6.66c-5.65-2.06-8.77-8.41-1.79-10A18,18,0,0,0-2087.17-696c.42-2.17,3.75-2.85,6.82-7.24-14.22,9-25,7.61-37-.74-10.58-7.35-24.7-3.44-37.28-2.44-3.23,0-4.29,3.33-5.29,6.24-4.07,10.05-26.44,24.43-36.54,23.75a13.49,13.49,0,0,1-12.32-10.9c-4.44-13.43-20.2-14-27.66-24.16-1.05-1.43-4.86-.58-6.92.74a54.19,54.19,0,0,1-31.15,6.45,16.15,16.15,0,0,0-13.53,7.19,25.17,25.17,0,0,1-31.2,7.72c-8.78-4.92-11.48-15-6.82-28.18,2.38-6.83,2.06-13-3.76-17.19-11.74-8.51-12-20.41-11.05-32.94a102.81,102.81,0,0,0,1.69-17.5c-.58-6.19-2.32-12-9.73-12.64a131.46,131.46,0,0,1-26-4c-6.14-1.85-7.51,3.17-8.09,7.67-1.43,11.1-7.09,11.58-15.87,4.91a29.65,29.65,0,0,1-17.34,22.9c-10.58,5.29-9,16.5-8.3,26.12s4.86,17.61,7.3,27.45c6.71-4.45,6.29-10.58,8.24-15.87,4.82-12.58,13.07-17,23.75-9.41,12.63,9,21.84,8.57,33.36-2,8.2-7.51,16.45-3.65,17.29,7.35.59,7.72,8,16.87,0,23.27a30.49,30.49,0,0,1-34.47,4.17c-9.47-5.28-15.44-3.75-19.88,6a34.77,34.77,0,0,1-7.3,9.15c-12.22,12.53-17.19,12.32-27.76-1.32-1.8-2.33-3.49-4.71-5.29-6.93-11.16-12.48-18.3-26.44-13.17-43.62a15.65,15.65,0,0,1,.74-4.13c6.24-12.9-.9-24.06-6.92-33.58-7.2-11.42-17.45-20.83-16.29-35.85-9.31.58-7.35,11.42-14.65,12.11a34,34,0,0,1-11.58-.9c-23.74-4-42,3.86-53.78,25.17a60.35,60.35,0,0,0,1.49,65,109.16,109.16,0,0,0,18.19,20.73,50.91,50.91,0,0,0,35.64,22.84c12.69,1.64,15.86-2.64,12.79-15.44,8.36-7.4,15.12-16.71,26-21.15,8.15,5.29,17.82,8.2,24.8,15.23,4.71,4.76,10.58,9.62,7.51,17.61s-9.73,6.55-17.34,6.66c4.34,0,7.83-.58,9.94,1.32,20.78,18.67,47.59,19.09,72.71,22.26,23.26,3,44.05,11.85,65.83,18.41,8.36,2.48,16.29,6.13,25,7.93s14.59,7.51,12.16,16.81-10.26,7.78-17.92,6.08c-23.38-5.28-47.22-4.12-71-4.86a72.68,72.68,0,0,1-25.75-4.34,28.34,28.34,0,0,0-30.24,2.7,12,12,0,0,1-4.55,0c-25.23-16.87-52.88-9.2-79.9-7.83-7.77.43-15.55,2.33-23.11-1.05a8.79,8.79,0,0,1-6.24-7.46c0-4.6,3-6.93,6.88-8.41,7.08-2.69,14.48-.32,22.52-1.21-8.56-2.28-19.25.31-20-12.48-8.19,4.44-14.54,11.79-24.32,13.64a7.28,7.28,0,0,0,4.17,2.43c4.71,1.64,10,3.33,10.1,9.2A10.94,10.94,0,0,1-2520.24-604c-20.78,2.75-38.55,14.28-58.48,19a127,127,0,0,0-56.11,30.41c-11.84,10.57-27,16.71-37.38,29.93-5.66,7.08-12.64,12.37-15.87,21.89-3.38,10.84-13.53,18.14-21.15,25.33-9.36,8.67-17.66,19.62-30.35,24.69a13.6,13.6,0,0,0-8.69,17.14c.09.27.18.53.28.79a35.86,35.86,0,0,1,1,5.81,15.87,15.87,0,0,1-12.72,18.49l-.13,0c-5.66,1.48-14.86-8.88-15.49-16.65-1.38-15.6-6.35-19.68-22.16-18-2.91.32-5.71,1.27-8.67,1.48a9.94,9.94,0,0,1-10.58-6.24c-2.48-5.28,1.22-8.3,5.29-10.25a29.9,29.9,0,0,0,18.19-27.66c.85-12.37,10.57-19.4,19.93-26,6.67-4.76,13.07-8.83,10.58-18.61a7.93,7.93,0,0,1,2.17-8.25c13.75-9.1,14.65-27.13,26.81-37.71,8.62-7.45,7.14-9.83-4-12.1-7.35-1.54-16.76-.69-18-11.22-.9-8,11.32-22.26,20-22.42,15-.26,29-1.74,40.82-12.37a13.51,13.51,0,0,1,11.37-1.37,24.36,24.36,0,0,0,21.58-5.82c8.77-7.24,18.5-3,27.33,1.69,3.86,2.06,1.22,11.26,9.15,8.83,6.88-2.17,14.91-3,18.88-10.1s10.57-9.62,16.76-13.11c-1.43-6.51-6.82-7.51-10.89-9.57-9-4.66-14.49-9-11.11-21.63,3-11.1-10.57-12.9-17.45-17.66-5.71-4-9.41.79-12,6.34-6.93,14.33-20.78,23.11-29.56,36.07a10,10,0,0,1-13.54,2C-2706.8-674-2732.92-674.62-2757-682c-22-6.66-45.47-10.57-68.42-15.12a9.92,9.92,0,0,0-9.52,2.86c-17.71,20-38.92,16.12-60.12,8.14-8.62-3.23-14-2.8-17.35,6.29-1.32,3.76-3.06,7.51-7.82,7.62s-6.45-3.6-6.77-7.78c-.58-6.87-6-8.3-11.1-10a142.3,142.3,0,0,0-47.59-6.24,151.48,151.48,0,0,1-29.35,0c-24.8-4.13-43.68,6.87-60.23,22.79a37,37,0,0,1-26.44,9.89c-30.88,1.58-61.39-4.66-92.27-3.33-19.41.79-39.4,7.24-58.17,0s-37.54-4.23-55.57-10.16a33.77,33.77,0,0,0-17.45-.74,60.55,60.55,0,0,1-38.76-3.49,5.61,5.61,0,0,0-2.8-.74c-51.56,5.56-101.58-22.63-153.61-6.82-8.36,2.54-16.45-.63-24.22-3.81a26,26,0,0,0-27.61,3.18c-19.24,14.59-40.08,18.4-64.61,14.12a320.16,320.16,0,0,0-102.27,0c-15.6,2.32-29.08-6.72-43.78-9.21a6.68,6.68,0,0,1-4.65-5.28c-2.28-13.22-9.58-14-19.83-8.52-2,1-72-1.64-74-2.53a41.46,41.46,0,0,0-26.71-2.49,138.91,138.91,0,0,0,52.09,5.76,109.37,109.37,0,0,1,19,0c5.61.64,11.16,2.33,11.63,9s-4.7,9.2-9.83,11.27a44.89,44.89,0,0,1-15.86,2.11c-18.88.42-37,0-56.11,6.88-16.44,6-35.8,2-53.83,3a15.22,15.22,0,0,1-8.25-2.8c-3.8-2.38-8-5.29-6.61-10.21s6.08-4.23,9.94-4.76c8.57-1.32,17.56,1.32,27.18-2.64a21.14,21.14,0,0,0-24.58-7.46,89.85,89.85,0,0,0-21.16,10.16c-14.91,8.56-24.85,6.18-34.58-7.78-9-12.85-36.32-19.35-49.65-11.26-10,6.13-14.38,3.54-14.7-7.77,18.51-17.72,18.51-17.72,30.72-16.24-7.24-7.61-7.24-7.61-31.09-4.17,1.22,6.66,9.31,13.85-.32,20.09-16.39,0-32.83,2.48-46.16-11.9-6.19-6.56-15.86-1.43-21.52,3.12-23.53,18.72-49.6,11.53-75.3,8.83-5.29-5.29,0-7.51,3.28-10s8.46-2.65,10.84-8.09A9.67,9.67,0,0,0-4226-729c-11.69,10.89-24.54,10.57-38.29,5.81a8.41,8.41,0,0,0-5.76.37c-.95.43-1.59,1.11-2.43,3.28,9.46,3.49,19.4,2.86,29.08,3.86,5.71.64,11.95-.47,15.86,5.61-1,24.37-4.54,27-28.13,21.73a103.17,103.17,0,0,1-25.33-7c-6.61-3.44-11.84-.53-17.29,3.75-12.37,9.73-18.77,8.46-27.55-4.28s-12.48-13.17-21.15.74c-7.19,11.74-19.14,15.12-31.25,16.55-23.63,2.75-47.91,1.11-70.33,11.42a4.61,4.61,0,0,1-2.9.42c-28.93-5.28-57.32,4.08-86.09,3.39a29.36,29.36,0,0,1-11.53-1.69c-7.29-3.39-9.62-8-2.8-15.34-27.44-.79-54.46,1-81.54-.37-9.94-.53-18.88-5.29-28-6.71-26-4.13-47.91-21.15-75.77-20.26-77.21,2.54-154.46,4.23-231.77,3.6-31.3,0-62.4-5.29-93.75-3.23a61.7,61.7,0,0,0-11.69,0c-29,7.78-52.29-1.9-72.86-22.1-4.5-4.44-8.73-7.24-6.09-14.38,8.36-22.32-2.8-41.3-12.74-59.28-8.41-15.28-20.09-28.71-25.8-45.63-2-5.77-5.77-11.53-11.95-11.69-7.3,0-7.94,7.41-9.94,12.8-.69,1.8.26-.48-.38,1.37-1.58,4.6-2.74,10.9-8.46,10.58s-5.92-7.14-6-11.74c-.27-20,0-40.08,0-60.12C-5228.29-940.23-5227.76-973.23-5236.69-1005.38Z"/></g></g></svg>