<svg id="Layer_1" data-name="Layer 1" xmlns="http://www.w3.org/2000/svg" viewBox="0 0 61.04 86.93"><defs><style>.cls-1{fill:#070908;}.cls-2{fill:#32192b;}.cls-3{fill:#f1787b;}.cls-4{fill:#d14339;}.cls-5{fill:#521110;}.cls-6{fill:#af3731;}.cls-7{fill:#f9a729;}.cls-8{fill:#f7a72a;}.cls-9{fill:#df7a7c;}.cls-10{fill:#c96a35;}.cls-11{fill:#621d04;}.cls-12{fill:#642305;}.cls-13{fill:#e4797e;}.cls-14{fill:#d69a58;}.cls-15{fill:#8c5a3b;}.cls-16{fill:#c54b43;}.cls-17{fill:#dda250;}.cls-18{fill:#6f1b19;}.cls-19{fill:#784b37;}</style></defs><path class="cls-1" d="M39.67,66.42l.6-1a3.32,3.32,0,0,0-.67-1.86q-4-7-8-14c-.34-.58-.6-1.31-1.52-1s-1.53-1.34-2.4-.24a16.11,16.11,0,0,0-1.41,2.17A134.51,134.51,0,0,1,16.86,65c-1.11,1.48-2.08,3.09-3.75,4.1A4.33,4.33,0,0,1,8.45,69c-1.55-.85-1.74-2.23-.74-3.86a68.85,68.85,0,0,1,8.09-10.3,44.92,44.92,0,0,1,10.63-8.69A1.77,1.77,0,0,0,27.29,45a3,3,0,0,1,3.16-2.46c.93,0,1.13-.66,1.36-1.27,1.14-3,2.25-6.05,3.68-8.94a24.9,24.9,0,0,1,6.43-8.55,4.13,4.13,0,0,1,2.65-1.29,2.8,2.8,0,0,1,2.2,4.34,74.62,74.62,0,0,1-8.14,11.08c-1.74,2-3.62,3.95-5.2,6.1a3.19,3.19,0,0,0,0,3.33c3.11,4.89,6,9.9,8.9,14.94a1.72,1.72,0,0,0,2.17,1.05,7.14,7.14,0,0,1,2.84-.13c1.48,0,1.81,1.21,2.26,2.27a.8.8,0,0,1-.07.43.67.67,0,0,1-.37.22c-.57,0-1.11,0-1.36-.68a2.68,2.68,0,0,0-2.68-.8c-1,.09-.59,1.21-1.16,1.62-1.19,1.18-2.66.76-4.06.7A.51.51,0,0,1,39.67,66.42Z"/><path class="cls-2" d="M30,48.55c.67-.5,1.11-.31,1.51.4,2.79,4.9,5.61,9.78,8.4,14.67a2,2,0,0,1,.33,1.8Q35.65,57.29,31,49.15A1.37,1.37,0,0,0,30,48.55Z"/><path class="cls-3" d="M43.86,66a2.55,2.55,0,0,1,.13-.39c.23-.45-.86-1.21.4-1.45,1.65-.31,3.31.14,3.73,1.12a2.24,2.24,0,0,1-.72,1.56,12.54,12.54,0,0,1-6.64,3.39c-.72.11-1.4-.06-1.4-1l.14-.5c.07-.12.17-.27.29-.26C41.72,68.55,42.74,67.18,43.86,66Z"/><path class="cls-4" d="M48.33,68.38c-1.31.79-2.62,1.6-3.95,2.36a6.44,6.44,0,0,1-4.15,1l-.46-.83c.42-.94,1.39-.72,2.1-.9A12.62,12.62,0,0,0,47,67.13a5.58,5.58,0,0,1,2-1.36l.26.22C50,67.21,48.9,67.69,48.33,68.38Z"/><path class="cls-5" d="M49,65.77a14,14,0,0,1-9.22,5.09c-.34-.51-.87-1-.41-1.68.27.73.86.71,1.46.59a11,11,0,0,0,7.3-4.51C48.18,65.83,48.68,65.64,49,65.77Z"/><path class="cls-6" d="M43.86,66a3.53,3.53,0,0,1-4.36,2.7c.08-.36.15-.72.23-1.08a.78.78,0,0,0,.24-.67,1.19,1.19,0,0,1,1.63-.32C42.43,67,43.13,66.3,43.86,66Z"/><path class="cls-7" d="M23.44,49.2l.7-.47c.64.56.14,1.33.37,2a40.64,40.64,0,0,1-3.73,5.86c-2.05,3-4.29,5.87-6.61,8.67a11.09,11.09,0,0,1-2.62,2.35,2.25,2.25,0,0,1-2.88-.08,1.09,1.09,0,0,1-.39-1.72,68.16,68.16,0,0,1,10.88-12.9C20.7,51.79,22,50.42,23.44,49.2Z"/><path class="cls-8" d="M34.07,38a33,33,0,0,1,4.32-8.8,43.46,43.46,0,0,1,3.88-4.27c.49-.42.93-.9,1.64-.76a1.18,1.18,0,0,1,.55,1.95,1.72,1.72,0,0,0-.62,1.8C43.71,29.21,42.73,30.06,42,31c-1.47,2-3,4-4.47,6.05a5,5,0,0,1-1.66,1.6l-.46.26c-.43.22-.86.58-1.36.23S34.2,38.38,34.07,38Z"/><path class="cls-9" d="M38.08,56.5c1.5,2.61,3,5.22,4.5,7.83.24.43.81.9,0,1.36s-1,0-1.25-.55q-4.47-7.7-9-15.37a5,5,0,0,1-.38-.72c-.16-.41-.22-.85.21-1.1s.74.15.94.5c1.58,2.72,3.14,5.46,4.71,8.18Z"/><path class="cls-10" d="M22.78,54.63a109.65,109.65,0,0,1-8.89,12.89,3.34,3.34,0,0,1-4.71.83c.55-.65,1.42-.36,2.11-.75,1.9-1.06,3-2.82,4.37-4.4,2.12-2.5,4-5.2,5.84-7.88a2.59,2.59,0,0,1,.78-.93C22.51,54.34,22.71,54.35,22.78,54.63Z"/><path class="cls-11" d="M22.38,54.52a90.43,90.43,0,0,1-9.23,12,5.18,5.18,0,0,1-4,1.81l-.51-.85c2,.71,3.3-.48,4.47-1.79A93.64,93.64,0,0,0,20.63,56c1.23-1.8,2.38-3.66,3.56-5.49.27-.92.33-2,1.68-2.06a.48.48,0,0,1,.14.82c-.81,1.33-1.76,2.57-2.53,3.93A4,4,0,0,1,22.38,54.52Z"/><path class="cls-12" d="M35.92,38.25A97.18,97.18,0,0,0,43.54,28,2,2,0,0,1,44,26.65c1-.86.8-1.78.28-2.77.35-.11.42-.76,1-.5,1.09,1.36.72,2.69-.09,4-1.57,2.56-3.49,4.86-5.27,7.27-2,2.5-4,4.9-6,7.34-.23.92-.67-.31-1,.1a3.82,3.82,0,0,1,1.52-2.53C34.88,39.09,35.46,38.74,35.92,38.25Z"/><path class="cls-13" d="M28.43,44.8a1.66,1.66,0,0,1,1.87-1.41c1.12,0,1.51.65,1.2,1.72-.19.91-.87,1.1-1.65,1.11C28.91,46.22,28.68,45.5,28.43,44.8Z"/><path class="cls-14" d="M35.92,38.25l-3,3.84c-.14-.1-.73.68-.44-.13a19.68,19.68,0,0,1,1.63-4C34.36,40.27,35.32,38.06,35.92,38.25Z"/><path class="cls-15" d="M39.74,34.49l.55-.05A58.83,58.83,0,0,1,33.84,42c.64-1.41,1.86-2.39,2.78-3.6S38.69,35.79,39.74,34.49Z"/><path class="cls-16" d="M32.34,45.58a2.15,2.15,0,0,1-2,2.05,1.8,1.8,0,0,1-2.06-1.18c0-.32.31-.6.54-.49,1.22.58,2.19,0,3.19-.58C32.18,45.28,32.34,45.32,32.34,45.58Z"/><path class="cls-17" d="M25.87,48.45c-.78.51-1,1.47-1.68,2.06-.44-.58,0-1.19-.05-1.78a5.72,5.72,0,0,1,2.59-1.55Z"/><path class="cls-18" d="M32.34,45.58c-1.21,1-2.65.9-4.08.87-.31-.59.38-1.08.17-1.65,1,1.31,1.68,1.38,3.07.31C32.32,45.22,32.32,45.22,32.34,45.58Z"/><path class="cls-19" d="M22.38,54.52A27.9,27.9,0,0,1,26,49.27a30,30,0,0,1-3.23,5.36Z"/><path class="cls-17" d="M23.44,49.2a.52.52,0,0,1-.23.7,9.12,9.12,0,0,0-2.93,2.7c-.33.4-.78.06-1.12.28A17.72,17.72,0,0,1,23.44,49.2Z"/><path class="cls-1" d="M40.29,72.56h.05a.73.73,0,0,0,.28-.3.88.88,0,0,0,0-.62,3,3,0,0,0-.46-.87c-.19-.49-.66-.91-.35-1.5a1.92,1.92,0,0,0,.11-.58c.12-.49.29-1-.15-1.42a1.3,1.3,0,0,0-1.09.17,5.33,5.33,0,0,0,.19,3.27C39.18,71.35,39.46,72.2,40.29,72.56Z"/><path class="cls-1" d="M48,69.68a4.47,4.47,0,0,0,1.76-2.93c-.68.3-1.06,1-1.81,1.24-2.32,1.23-4.39,3-7.17,3.29a.76.76,0,0,0-.52.41l.27.63c0,.14-.22.13-.16.24C42,73,45.64,71.62,48,69.68Z"/><path class="cls-1" d="M38.64,67.44a2.53,2.53,0,0,1,.61-.92c.42-.39,1-1.1,1-1.1l.41,1a3.58,3.58,0,0,0-1,1.38,6.15,6.15,0,0,0,0,2C39.77,70.09,38.64,67.44,38.64,67.44Z"/><path class="cls-1" d="M49,65.77a2.23,2.23,0,0,1-.72,2.08c-1,.66.8.64.8.64a3.53,3.53,0,0,0,.4-3.33C48.64,63.57,49,65.77,49,65.77Z"/><path class="cls-6" d="M40.68,66.45a4.82,4.82,0,0,0-1.18,1.39c-.29.66-.1.77.38.85s.95-1,.95-1Z"/><path class="cls-3" d="M39.36,68.43s.15.72.28,1.19a1,1,0,0,0,.74.21c.44-.06.92-.17.92-.17l-.5-.88S39.62,68.8,39.36,68.43Z"/><path class="cls-1" d="M41,71.25a.84.84,0,0,1-.83-.35c-.24-.44-.76.76.13,1.66l.87-.67Z"/><path class="cls-9" d="M38.08,56.5s-4.86-8.25-5.21-8.45,3.21,7.07,3.21,7.07l2,3Z"/></svg>