<svg id="Layer_1" data-name="Layer 1" xmlns="http://www.w3.org/2000/svg" viewBox="0 0 61.04 51.74"><defs><style>.cls-1{fill:#88b1be;}.cls-2{fill:#2b2b54;}.cls-3{fill:none;}.cls-4{fill:#f9f1e9;}.cls-5{fill:#54b26a;}.cls-6{fill:#5c8f9e;}.cls-7{fill:#1f2829;}.cls-8{fill:#6f9098;}.cls-9{fill:#c9cfca;}.cls-10{fill:#a18a71;}.cls-11{fill:#80898a;}.cls-12{fill:#080707;}.cls-13{fill:#0c0b0a;}.cls-14{fill:#100b0f;}.cls-15{fill:#0d1312;}.cls-16{fill:#211a15;}.cls-17{fill:#271d1c;}.cls-18{fill:#393031;}.cls-19{fill:#e37533;}.cls-20{fill:#ba210d;}.cls-21{fill:#6b8a76;}.cls-22{fill:#db9b8f;}.cls-23{fill:#8e556d;}.cls-24{fill:#6a91ab;}</style></defs><path class="cls-1" d="M12.22,42.65a7.36,7.36,0,0,0-.16-1.09,2.84,2.84,0,0,0,.16,1.09Z"/><path class="cls-1" d="M40.51,11.6c-2,1.41-3.11,1.64-5.18.24-3.74-2.52-7.51-1-11.12.76-.44.22-.92,1-1.36.12-.31-.63,0-1,.74-1.21,1.3-.45,1.71-1.5,1.7-2.86a2.25,2.25,0,0,0-1.82-2.31c-.9-.3-1.75-.76-2.65-1.08-1.16-.41-3.75.73-4.39,1.94-.79,1.51-.1,2.67,1,3.7.32.3.7.54,1,.81,2.38,1.87,2.45,3,.95,5.56-2,3.44-3.62,7-1.42,11.07.79,1.46.2,2.72-.88,3.72a16.35,16.35,0,0,0-3.72,4.74c-.06.12-.13.24-.2.36a14.64,14.64,0,0,0-1.11,4.4,7.36,7.36,0,0,1,.16,1.09c.68,1.66.72,2.69,3.58,3.15.36,0,.74,0,1.1-.08,3.23-.26,5.76-2.22,8.53-3.59a2.17,2.17,0,0,1,2.42-.05c3.22,1.91,8.22,2.34,11.55.42.48-.39,5.85-5.15,7.57-8.5a51.81,51.81,0,0,0,2.2-6.15h0a2.58,2.58,0,0,0-.19-2c-.68-1.08-.22-1.73.58-2.58,2.43-2.56,4.37-5.41,4-9.22a4.16,4.16,0,0,0-2.47-3.53C47.34,8.58,43.62,9.43,40.51,11.6ZM23.58,9.41c-.14.26-.45.55-.76.26s-.13-.94-.05-1.42c.05-.31.32-.33.59-.24A1.16,1.16,0,0,1,23.58,9.41ZM17.48,8a2.45,2.45,0,0,1,2.81-1.35c1.17.43,1.18,1.64,1,2.82a2.57,2.57,0,0,1-2.81.89A1.76,1.76,0,0,1,17.48,8Zm2.63,3.77c1.32.8,1.49,1.63,1.55,3A6.5,6.5,0,0,1,20.11,11.78Zm1.53,19.37a4.82,4.82,0,0,1-2-1.92c-1.41-2.51-1.54-5.48.28-9.8,1.37-3.34,4.82-6.33,9.89-7.22a7.82,7.82,0,0,1,7.81,3.27c1.41,1.8.88,4.91-.85,6.39-.33.28-.56.26-.79,0a10.88,10.88,0,0,1-.67-.92c-2.09-2.77-4.66-3.68-7.42-2.62a7.12,7.12,0,0,0-4.81,7.37,14.34,14.34,0,0,0,.88,3.48c.17.55.86,1.19.22,1.7A2.24,2.24,0,0,1,21.64,31.15Zm12.81-8.41c.65,1,.56,1.78-.37,2.43-2.1,1.48-4.3,2.81-6.29,4.45-.91.75-1.63.59-2.43-.54-1.83-2.58-.93-8.48,3-9.12h0a5.13,5.13,0,0,1,3.75.81A3.44,3.44,0,0,1,34.45,22.74ZM47.9,26c.6.38.33,1.42.14,2.15a18.17,18.17,0,0,1-5.21,8.48,30.28,30.28,0,0,1-5.69,4.43c-3,1.76-5.76,1.47-8.73-.58,3.87-2.74,7.51-5.37,11.21-7.93A42.4,42.4,0,0,0,46.12,27C46.59,26.5,47.16,25.52,47.9,26Zm4.24-9.24A22.63,22.63,0,0,1,46.25,25c-6,5.82-13,10.39-20,14.93a10.21,10.21,0,0,1-1.55.67c-2.42,1.22-4.54,3.07-7.3,3.6-3.11.68-4-.07-3.81-3.07a9.2,9.2,0,0,1,2.06-5.57c.68-1.61,2.18-2.62,3-4.14.22-.42.55-.54.91-.23,2.72,2.36,5.65,1.54,8.14,0,3.89-2.42,7.87-4.87,10.47-8.9,1.51-2.34,2.7-4.65,1-7.38a.74.74,0,0,1,.26-1.13c1.53-1.12,3-2.34,5.07-2.35h0a11.73,11.73,0,0,1,3.52-.61A4.24,4.24,0,0,1,52.14,16.75Z"/><path class="cls-1" d="M24.49,38.91h0A1.76,1.76,0,0,1,23,36.66c.21-1,.74-1.87,1.84-1.9,1.54,0,1.91,1.17,2.18,2.39s1,.74,1.45.35c1.21-1-.81-.88-.6-1.57h0a3.56,3.56,0,0,1,.63-3.78,1.66,1.66,0,0,1,3,.48,9.7,9.7,0,0,1,.4,1.63,77.1,77.1,0,0,0,9.88-7.34,2.35,2.35,0,0,0,.75-2.22h0c-1.49-1.25-1.25-2.58-.25-4s1.77-3.16,1.15-5.16c-.39-1.24.3-2.07,1.61-2.28.67-.11,1.35-.17,2-.26-.53-1.1-1.76-1-2.63-1.55-2,0-3.54,1.23-5.07,2.35a.74.74,0,0,0-.26,1.13c1.73,2.73.54,5-1,7.38-2.6,4-6.58,6.48-10.47,8.9-2.49,1.54-5.42,2.36-8.14,0-.36-.31-.69-.19-.91.23-.81,1.52-2.31,2.53-3,4.14-1.7,2.87-1.14,5.3,1.44,7.3.54.42.24.89.31,1.34,2.76-.53,4.88-2.38,7.3-3.6C24.94,40,25.29,39.41,24.49,38.91ZM19,40.07c-1.33-.49-1.51-1.57-1-2.91.58-1,1.55-1.82,2.72-1.3a2.38,2.38,0,0,1,1.21,3.08A2.14,2.14,0,0,1,19,40.07Z"/><path class="cls-1" d="M24.15,30.88c.64-.51,0-1.15-.22-1.7a14.34,14.34,0,0,1-.88-3.48,7.12,7.12,0,0,1,4.81-7.37c2.76-1.06,5.33-.15,7.42,2.62a10.88,10.88,0,0,0,.67.92c.23.26.46.28.79,0,1.73-1.48,2.26-4.59.85-6.39a7.82,7.82,0,0,0-7.81-3.27c-5.07.89-8.52,3.88-9.89,7.22-1.82,4.32-1.69,7.29-.28,9.8a4.82,4.82,0,0,0,2,1.92A2.24,2.24,0,0,0,24.15,30.88Zm7.16-17c.3.15.57.38.46.71a.72.72,0,0,1-.61.32c-1.75-.39-3.32.31-5.31,1C27.24,14,30,13.18,31.31,13.83ZM19.87,23.76A4.9,4.9,0,0,1,20.39,21a4.39,4.39,0,0,1,.51-.81c.24-.28.61-.54,1-.26s.11.59,0,.85a8.91,8.91,0,0,0-.93,3.06c0,.29-.14.65-.56.59S19.91,24.07,19.87,23.76Zm1.5,4a1.74,1.74,0,0,1-.85-1.57.48.48,0,0,1,.73-.32A1.81,1.81,0,0,1,22,27.41C21.82,27.73,21.61,27.91,21.37,27.72Z"/><path class="cls-1" d="M46.12,27a42.4,42.4,0,0,1-6.5,5.54c-3.7,2.56-7.34,5.19-11.21,7.93,3,2.05,5.76,2.34,8.73.58a30.28,30.28,0,0,0,5.69-4.43A18.17,18.17,0,0,0,48,28.14c.19-.73.46-1.77-.14-2.15S46.59,26.5,46.12,27Z"/><path class="cls-1" d="M44.41,11.45h0c1.08.06,2.22,0,2.81,1.18a1.43,1.43,0,0,1-.07.38c1.2.11,1.57,1,1.78,2,.65,3-2.39,8.52-5.3,9.6a1.74,1.74,0,0,1-.76.06,3.33,3.33,0,0,1-1.49,3.45q-4,3.13-8.26,6a1.54,1.54,0,0,1-1.07.29l-.22-.11c-.92,1.68-1.64,2.19-3,1.88.39.51.72,1-.16,1.61-.69.46-1.45.69-1.93-.16A2.77,2.77,0,0,1,25,38.83l0,0c.57.74.29,1.3-.37,1.77A10.21,10.21,0,0,0,26.2,40c7-4.54,14-9.11,20.05-14.93a22.63,22.63,0,0,0,5.89-8.27,4.24,4.24,0,0,0-4.21-5.91A11.73,11.73,0,0,0,44.41,11.45Z"/><path class="cls-1" d="M47,13h.11a1.43,1.43,0,0,0,.07-.38c-.59-1.23-1.73-1.12-2.81-1.18h0C45.28,12,46.51,11.9,47,13Z"/><path class="cls-1" d="M42.51,24.7a2.35,2.35,0,0,1-.75,2.22,77.1,77.1,0,0,1-9.88,7.34l-.05.08.22.11a1.54,1.54,0,0,0,1.07-.29q4.23-2.88,8.26-6a3.33,3.33,0,0,0,1.49-3.45Z"/><path class="cls-1" d="M27.88,35.93c-.21.69,1.81.57.6,1.57-.48.39-1.21.79-1.45-.35a3.66,3.66,0,0,1-.28.52c.48.85,1.24.62,1.93.16.88-.58.55-1.1.16-1.61a7.15,7.15,0,0,1-1-.29Z"/><path class="cls-1" d="M25,38.85l0,0a2.72,2.72,0,0,1-.51.08c.8.5.45,1.11.16,1.71C25.31,40.15,25.59,39.59,25,38.85Z"/><path class="cls-1" d="M32.33,22.6c-1.18-1.08-2.87-1.21-4-2.29,0,0,0-.23.05-.35h0c-3.93.64-4.83,6.54-3,9.12.8,1.13,1.52,1.29,2.43.54,2-1.64,4.19-3,6.29-4.45.93-.65,1-1.39.37-2.43a3.44,3.44,0,0,0-2.34-2,8.7,8.7,0,0,1,.7,1.31C32.93,22.4,32.59,22.83,32.33,22.6Z"/><path class="cls-1" d="M15.6,35.58a9.2,9.2,0,0,0-2.06,5.57c-.22,3,.7,3.75,3.81,3.07-.69-.21-.8-.92-1.17-1.38C13.59,39.68,13.57,39.19,15.6,35.58Z"/><path class="cls-1" d="M17,42.88c-2.58-2-3.14-4.43-1.44-7.3-2,3.61-2,4.1.58,7.26.37.46.48,1.17,1.17,1.38C17.28,43.77,17.58,43.3,17,42.88Z"/><path class="cls-1" d="M21.26,9.48c.21-1.18.2-2.39-1-2.82A2.45,2.45,0,0,0,17.48,8a1.76,1.76,0,0,0,1,2.36A2.57,2.57,0,0,0,21.26,9.48Z"/><path class="cls-1" d="M28.36,20h0c.92.87,2.29.73,3.29,1.51.45.35.17-.53.46-.7A5.13,5.13,0,0,0,28.36,20Z"/><path class="cls-1" d="M31.65,21.47c-1-.78-2.37-.64-3.29-1.51,0,.12-.1.3-.05.35,1.15,1.08,2.84,1.21,4,2.29.26.23.6-.2.48-.52a8.7,8.7,0,0,0-.7-1.31C31.82,20.94,32.1,21.82,31.65,21.47Z"/><path class="cls-1" d="M22.77,8.25c-.08.48-.4,1,.05,1.42s.62,0,.76-.26A1.16,1.16,0,0,0,23.36,8C23.09,7.92,22.82,7.94,22.77,8.25Z"/><path class="cls-1" d="M20.11,11.78a6.5,6.5,0,0,0,1.55,3C21.6,13.41,21.43,12.58,20.11,11.78Z"/><path class="cls-1" d="M45.54,13.76c-1.27.18-1.75.82-1.5,2.08a5.91,5.91,0,0,1-1.1,4.85,3,3,0,0,0-.12,3.81h0a11,11,0,0,0,4.72-5.21c1-2.26,1.2-4.26-.43-6.21C46.84,13.7,46.12,13.68,45.54,13.76ZM44.86,22c-.48.53-.87,1.42-1.74,1.16-.58-.17-.2-.72,0-1.14s.56-1.16,1.39-.87C44.93,21.24,45.19,21.58,44.86,22Zm2-2.78c-.39.38-.26,1.6-1.47,1-1-.44-.69-1.2-.55-1.95.2-1.09,1-.77,1.62-.63C47.41,17.83,47.17,18.46,46.84,19.17Zm.68-3.08c-.51.89-1.33-.09-1.93.08-.7-.11-1.06-.55-.84-1.07.43-1,1.42-.65,2.13-.53A1,1,0,0,1,47.52,16.09Z"/><path class="cls-1" d="M42.82,24.5a3,3,0,0,1,.12-3.81A5.91,5.91,0,0,0,44,15.84c-.25-1.26.23-1.9,1.5-2.08.58-.08,1.3-.06,1.58-.67L47,13c-.67.09-1.35.15-2,.26-1.31.21-2,1-1.61,2.28.62,2-.07,3.61-1.15,5.16s-1.24,2.75.25,4h0l.32-.19Z"/><path class="cls-1" d="M47.55,19.3a11,11,0,0,1-4.72,5.21,1.62,1.62,0,0,1,0,.19,1.74,1.74,0,0,0,.76-.06c2.91-1.08,5.95-6.58,5.3-9.6-.21-1-.58-1.92-1.78-2l0,.08C48.75,15,48.52,17,47.55,19.3Z"/><path class="cls-1" d="M42.51,24.7h.36a1.62,1.62,0,0,0,0-.19Z"/><path class="cls-1" d="M47.12,13.09l0-.08H47Z"/><path class="cls-1" d="M29.57,32.19a1.52,1.52,0,0,0-1.21,1.31,2.92,2.92,0,0,0,.1,2.21l.08.13a5.87,5.87,0,0,0,3.27-1.52A2.94,2.94,0,0,1,31,33.15C30.71,32.57,30.33,32.06,29.57,32.19Zm.7,2.05c-.17.43-.47.81-1,.55s-.19-.76-.21-1.11c.24-.35.31-.85.81-.67S30.47,33.75,30.27,34.24Z"/><path class="cls-1" d="M28.46,35.71a2.92,2.92,0,0,1-.1-2.21,1.52,1.52,0,0,1,1.21-1.31c.76-.13,1.14.38,1.46,1a2.94,2.94,0,0,0,.78,1.17l.07-.06a9.7,9.7,0,0,0-.4-1.63,1.66,1.66,0,0,0-3-.48,3.56,3.56,0,0,0-.63,3.78h0a6.57,6.57,0,0,0,.66-.09Z"/><path class="cls-1" d="M28.54,35.84c.09.13.2.26.3.38,1.35.31,2.07-.2,3-1.88l0,0A5.87,5.87,0,0,1,28.54,35.84Z"/><path class="cls-1" d="M31.81,34.32l0,0,.05-.08Z"/><path class="cls-1" d="M27.88,35.93a7.15,7.15,0,0,0,1,.29c-.1-.12-.21-.25-.3-.38A6.57,6.57,0,0,1,27.88,35.93Z"/><path class="cls-1" d="M20.66,35.86c-1.17-.52-2.14.31-2.72,1.3-.46,1.34-.28,2.42,1,2.91a2.14,2.14,0,0,0,2.88-1.13A2.38,2.38,0,0,0,20.66,35.86ZM20,37.16a1.11,1.11,0,0,1,.51,1.31.69.69,0,0,1-1,.24c-.54-.28-.37-.73-.2-1.15S19.6,36.93,20,37.16Z"/><path class="cls-1" d="M26.33,36.67c-.24-.67-.52-1.32-1.41-1.24a1.43,1.43,0,0,0-1.2,1,1.38,1.38,0,0,0,.55,1.8l.49.35a6.68,6.68,0,0,1,1.84-1.28C26.5,37.13,26.42,36.9,26.33,36.67Zm-1.75.73c-.31-.15-.38-.47-.16-1a.63.63,0,0,1,.82-.32c.33.15.33.51.21.83S25,37.61,24.58,37.4Z"/><path class="cls-1" d="M24.76,38.63l-.49-.35a1.38,1.38,0,0,1-.55-1.8,1.43,1.43,0,0,1,1.2-1c.89-.08,1.17.57,1.41,1.24.09.23.17.46.27.68l.43-.2c-.27-1.22-.64-2.44-2.18-2.39-1.1,0-1.63.92-1.84,1.9a1.76,1.76,0,0,0,1.48,2.25h0A2.37,2.37,0,0,1,24.76,38.63Z"/><path class="cls-1" d="M26.6,37.35a6.68,6.68,0,0,0-1.84,1.28l.24.2a2.77,2.77,0,0,0,1.75-1.16,2.09,2.09,0,0,1-.14-.3Z"/><path class="cls-1" d="M24.49,38.91h0a2.72,2.72,0,0,0,.51-.08l-.24-.2A2.37,2.37,0,0,0,24.49,38.91Z"/><path class="cls-1" d="M26.6,37.35v0a2.09,2.09,0,0,0,.14.3,3.66,3.66,0,0,0,.28-.52Z"/><path class="cls-1" d="M20.93,23.87a8.91,8.91,0,0,1,.93-3.06c.13-.26.33-.61,0-.85s-.74,0-1,.26a4.39,4.39,0,0,0-.51.81,4.9,4.9,0,0,0-.52,2.73c0,.31.11.65.5.7S20.91,24.16,20.93,23.87Z"/><path class="cls-1" d="M31.77,14.54c.11-.33-.16-.56-.46-.71-1.34-.65-4.07.2-5.46,2,2-.68,3.56-1.38,5.31-1A.72.72,0,0,0,31.77,14.54Z"/><path class="cls-1" d="M22,27.41a1.81,1.81,0,0,0-.72-1.58.48.48,0,0,0-.73.32,1.74,1.74,0,0,0,.85,1.57C21.61,27.91,21.82,27.73,22,27.41Z"/><path class="cls-1" d="M44.8,18.26c-.21.72-.5,1.47,0,1.73s.78-.78,1.09-1.2c.31-.71.56-1.34,0-1.38C45.53,17.38,45.1,17.2,44.8,18.26Z"/><path class="cls-1" d="M44.75,15.1c-.22.52.14,1,.84,1.07.6-.17,1.42.81,1.93-.08a1,1,0,0,0-.64-1.52C46.17,14.45,45.18,14.1,44.75,15.1Z"/><path class="cls-1" d="M43.13,22c-.21.42-.59,1,0,1.14.87.26,1.26-.63,1.74-1.16.33-.37.07-.71-.34-.85C43.69,20.81,43.44,21.49,43.13,22Z"/><path class="cls-1" d="M29.07,33.68c0,.35-.33.84.21,1.11s.82-.12,1-.55.22-1-.39-1.23S29.31,33.33,29.07,33.68Z"/><path class="cls-1" d="M19.28,37.56c-.17.42-.34.87.2,1.15a.69.69,0,0,0,1-.24A1.11,1.11,0,0,0,20,37.16C19.6,36.93,19.41,37.25,19.28,37.56Z"/><path class="cls-1" d="M25.1,36.07c-.32-.15-.57.16-.68.37-.22.49-.19.79.06.92s.57-.13.73-.51S25.36,36.18,25.1,36.07Z"/><polygon class="cls-1" points="45.68 35.88 45.68 35.88 45.68 35.88 45.68 35.88"/><path class="cls-1" d="M45.67,35.91v0h0l0,0Z"/><path class="cls-1" d="M45.66,35.92l0,0h0l0,0Z"/><path class="cls-2" d="M40.51,11.6c-2,1.41-3.11,1.64-5.18.24-3.74-2.52-7.51-1-11.12.76-.44.22-.92,1-1.36.12-.31-.63,0-1,.74-1.21,1.3-.45,1.71-1.5,1.7-2.86a2.25,2.25,0,0,0-1.82-2.31c-.9-.3-1.75-.76-2.65-1.08-1.16-.41-3.75.73-4.39,1.94-.79,1.51-.1,2.67,1,3.7.32.3.7.54,1,.81,2.38,1.87,2.45,3,.95,5.56-2,3.44-3.62,7-1.42,11.07.79,1.46.2,2.72-.88,3.72a16.35,16.35,0,0,0-3.72,4.74c-.06.12-.13.24-.2.36a14.64,14.64,0,0,0-1.11,4.4,7.36,7.36,0,0,1,.16,1.09c.68,1.66.72,2.69,3.58,3.15.36,0,.74,0,1.1-.08,3.23-.26,5.76-2.22,8.53-3.59a2.17,2.17,0,0,1,2.42-.05c3.22,1.91,8.22,2.34,11.55.42.48-.39,5.85-5.15,7.57-8.5a51.81,51.81,0,0,0,2.2-6.15h0a2.58,2.58,0,0,0-.19-2c-.68-1.08-.22-1.73.58-2.58,2.43-2.56,4.37-5.41,4-9.22a4.16,4.16,0,0,0-2.47-3.53C47.34,8.58,43.62,9.43,40.51,11.6ZM23.58,9.41c-.14.26-.45.55-.76.26s-.13-.94-.05-1.42c.05-.31.32-.33.59-.24A1.16,1.16,0,0,1,23.58,9.41ZM17.48,8A2.46,2.46,0,0,1,20.3,6.66c1.16.43,1.17,1.64,1,2.82a2.57,2.57,0,0,1-2.81.89A1.76,1.76,0,0,1,17.48,8Zm2.63,3.77c1.32.8,1.49,1.63,1.55,3A6.5,6.5,0,0,1,20.11,11.78Zm1.53,19.37a4.82,4.82,0,0,1-2-1.92c-1.41-2.51-1.54-5.48.28-9.8,1.37-3.34,4.82-6.33,9.89-7.22a7.82,7.82,0,0,1,7.81,3.27c1.41,1.8.88,4.91-.85,6.39-.33.28-.56.26-.79,0a10.88,10.88,0,0,1-.67-.92c-2.09-2.77-4.66-3.68-7.42-2.62a7.12,7.12,0,0,0-4.81,7.37,14.34,14.34,0,0,0,.88,3.48c.17.55.86,1.19.22,1.7A2.24,2.24,0,0,1,21.64,31.15Zm12.81-8.41c.65,1,.56,1.78-.37,2.43-2.1,1.48-4.3,2.81-6.29,4.45-.91.75-1.63.59-2.43-.54-1.83-2.58-.93-8.48,3-9.12h0a5.13,5.13,0,0,1,3.75.81A3.44,3.44,0,0,1,34.45,22.74ZM47.9,26c.6.38.33,1.42.14,2.15a18.17,18.17,0,0,1-5.21,8.48,30,30,0,0,1-5.69,4.43c-3,1.76-5.76,1.47-8.73-.58,3.87-2.74,7.51-5.37,11.21-7.93A42.4,42.4,0,0,0,46.12,27C46.59,26.5,47.16,25.52,47.9,26Zm4.24-9.24A22.63,22.63,0,0,1,46.25,25c-6,5.82-13,10.39-20,14.93a10.21,10.21,0,0,1-1.55.67c-2.42,1.22-4.54,3.07-7.3,3.6-3.11.68-4-.07-3.81-3.07a9.2,9.2,0,0,1,2.06-5.57c.68-1.61,2.18-2.62,3-4.14.22-.42.55-.54.91-.23,2.72,2.36,5.65,1.54,8.14,0,3.89-2.42,7.87-4.87,10.47-8.9,1.51-2.34,2.7-4.65,1-7.38a.74.74,0,0,1,.26-1.13c1.53-1.12,3-2.34,5.07-2.35h0a11.73,11.73,0,0,1,3.52-.61A4.24,4.24,0,0,1,52.14,16.75Z"/><path class="cls-3" d="M12.22,42.65a7.36,7.36,0,0,0-.16-1.09,2.84,2.84,0,0,0,.16,1.09Z"/><path class="cls-1" d="M24.49,38.91h0A1.76,1.76,0,0,1,23,36.66c.21-1,.74-1.87,1.84-1.9,1.54,0,1.91,1.17,2.18,2.39s1,.74,1.46.35c1.2-1-.82-.88-.61-1.57h0a3.58,3.58,0,0,1,.63-3.78,1.66,1.66,0,0,1,3,.48,9.7,9.7,0,0,1,.4,1.63,77.1,77.1,0,0,0,9.88-7.34,2.35,2.35,0,0,0,.76-2.22h0c-1.5-1.25-1.26-2.58-.26-4s1.77-3.16,1.15-5.16c-.39-1.24.3-2.07,1.61-2.28.67-.11,1.35-.17,2-.26-.53-1.1-1.76-1-2.63-1.55-2,0-3.54,1.23-5.07,2.35a.74.74,0,0,0-.26,1.13c1.73,2.73.54,5-1,7.38-2.6,4-6.58,6.48-10.47,8.9-2.49,1.54-5.24,2.25-7.95-.11a.86.86,0,0,0-1.25.24c-.81,1.52-2.3,2.57-2.84,4.24-1.7,2.87-1.14,5.3,1.44,7.3.54.42.24.89.31,1.34,2.76-.53,4.88-2.38,7.3-3.6C24.94,40,25.29,39.41,24.49,38.91ZM19,40.07c-1.33-.49-1.51-1.57-1-2.91.58-1,1.55-1.82,2.72-1.3a2.38,2.38,0,0,1,1.21,3.08A2.14,2.14,0,0,1,19,40.07Z"/><path class="cls-4" d="M24.15,30.88c.64-.51,0-1.15-.22-1.7a14.34,14.34,0,0,1-.88-3.48,7.12,7.12,0,0,1,4.81-7.37c2.76-1.06,5.33-.15,7.42,2.62a10.88,10.88,0,0,0,.67.92c.23.26.46.28.79,0,1.73-1.48,2.26-4.59.85-6.39a7.82,7.82,0,0,0-7.81-3.27c-5.07.89-8.52,3.88-9.89,7.22-1.82,4.32-1.69,7.29-.28,9.8a4.82,4.82,0,0,0,2,1.92A2.24,2.24,0,0,0,24.15,30.88Zm7.16-17c.3.15.57.38.46.71a.72.72,0,0,1-.61.32c-1.75-.39-3.32.31-5.31,1C27.24,14,30,13.18,31.31,13.83ZM19.87,23.76A4.9,4.9,0,0,1,20.39,21a4.39,4.39,0,0,1,.51-.81c.24-.28.61-.54,1-.26s.11.59,0,.85a8.91,8.91,0,0,0-.93,3.06c0,.29-.14.65-.56.59S19.91,24.07,19.87,23.76Zm1.5,4a1.74,1.74,0,0,1-.85-1.57.48.48,0,0,1,.73-.32A1.81,1.81,0,0,1,22,27.41C21.82,27.73,21.61,27.91,21.37,27.72Z"/><path class="cls-5" d="M46.12,27a42.4,42.4,0,0,1-6.5,5.54c-3.7,2.56-7.34,5.19-11.21,7.93,3,2.05,5.76,2.34,8.73.58a30,30,0,0,0,5.69-4.43A18.17,18.17,0,0,0,48,28.14c.19-.73.46-1.77-.14-2.15S46.59,26.5,46.12,27Z"/><path class="cls-6" d="M52.22,17A24.47,24.47,0,0,1,46.59,25c-6,5.82-13.31,10.68-20.32,15.23-.47.3-1.1.16-1.62.38.29-.6.64-1.21-.16-1.71l.51-.08a2.74,2.74,0,0,0,1.75-1.17,2.48,2.48,0,0,0,.28-.51c.24,1.13,1,.74,1.46.34,1.21-1-.82-.87-.6-1.57a6,6,0,0,0,.95.3c1.36.31,2.07-.2,3-1.88l0-.09a76,76,0,0,0,9.89-7.34,2.36,2.36,0,0,0,.75-2.22h.36a1.85,1.85,0,0,0,.75-.06c2.92-1.08,5.95-6.59,5.31-9.61-.22-1-.58-1.91-1.79-2,0,0-.26,0-.29,0a1.77,1.77,0,0,0-1-1,14.84,14.84,0,0,1-1.79-.54A14.47,14.47,0,0,1,48,10.67,4.45,4.45,0,0,1,52.22,17Z"/><path class="cls-7" d="M32.44,22.24C31.13,21,29.24,20.9,28,19.7c-.06-.05,0-.26.05-.4h0c-4.38.72-5.37,7.28-3.34,10.16.89,1.26,1.69,1.42,2.7.59,2.22-1.82,4.67-3.3,7-4.95,1-.72,1.13-1.54.42-2.69a3.83,3.83,0,0,0-2.61-2.2A9.75,9.75,0,0,1,33,21.66C33.1,22,32.72,22.51,32.44,22.24Z"/><path class="cls-8" d="M15.6,35.58a9.2,9.2,0,0,0-2.06,5.57c-.22,3,.7,3.75,3.81,3.07-.69-.21-.79-.92-1.17-1.38C13.59,39.68,13.57,39.19,15.6,35.58Z"/><path class="cls-8" d="M17,42.88c-2.58-2-3.14-4.43-1.44-7.3-2,3.61-2,4.1.58,7.26.38.46.48,1.17,1.17,1.38C17.28,43.77,17.58,43.3,17,42.88Z"/><path class="cls-5" d="M21.26,9.48c.21-1.18.2-2.39-1-2.82A2.46,2.46,0,0,0,17.48,8a1.76,1.76,0,0,0,1,2.36A2.57,2.57,0,0,0,21.26,9.48Z"/><path class="cls-9" d="M28,19.28h0c.91,1.21,2.53.91,3.65,1.78.51.39.48-.16.52-.87A5.75,5.75,0,0,0,28,19.28Z"/><path class="cls-9" d="M31.68,21C30.56,20.12,29,20.27,28,19.3c0,.14-.11.35-.05.4,1.27,1.2,3.16,1.34,4.47,2.54.28.27.66-.21.54-.58a9.75,9.75,0,0,0-.79-1.45C31.87,20.4,32.18,21.37,31.68,21Z"/><path class="cls-10" d="M22.77,8.25c-.08.48-.4,1,.05,1.42s.62,0,.76-.26A1.16,1.16,0,0,0,23.36,8C23.09,7.92,22.82,7.94,22.77,8.25Z"/><path class="cls-11" d="M20.11,11.78a6.5,6.5,0,0,0,1.55,3C21.6,13.41,21.43,12.58,20.11,11.78Z"/><path class="cls-12" d="M48.94,15c-.22-1-.58-1.91-1.79-2l0,.08a.86.86,0,0,1-.07-.1c-.68.09-1.36.16-2,.27-1.31.21-2,1-1.61,2.28.63,2-.06,3.61-1.15,5.15s-1.23,2.76.26,4l.31-.18c0,.06,0,.13.05.19a1.85,1.85,0,0,0,.75-.06C46.55,23.56,49.58,18.05,48.94,15Zm-1.41,1c-.52.9-1.34-.08-1.93.08-.7-.11-1.07-.54-.84-1.07.42-1,1.41-.64,2.13-.52A1,1,0,0,1,47.53,16.08Zm-3,5c.41.15.67.49.33.86-.48.53-.87,1.41-1.74,1.16-.58-.17-.19-.73,0-1.15S43.69,20.81,44.53,21.09Zm.29-2.83c.2-1.09,1-.77,1.62-.64,1,.21.73.84.4,1.55-.39.38-.25,1.6-1.47,1C44.41,19.77,44.68,19,44.82,18.26Z"/><path class="cls-12" d="M42.52,24.7h.35a1.62,1.62,0,0,0,0-.19Z"/><path class="cls-12" d="M47.12,13.09l0-.08H47Z"/><path class="cls-13" d="M32,34.26a11.61,11.61,0,0,0-.4-1.67,1.7,1.7,0,0,0-3.05-.49A3.63,3.63,0,0,0,27.89,36a6.37,6.37,0,0,0,1,.31c1.4.32,2.12-.21,3.08-1.93l0,0Zm-2.87-.59c.23-.36.3-.88.82-.7s.61.76.41,1.28-.5.82-1,.55S29.14,34,29.12,33.67Z"/><path class="cls-13" d="M31.81,34.32l0,0,.05-.08Z"/><path class="cls-14" d="M20.66,35.79c-1.21-.54-2.21.32-2.82,1.35-.48,1.39-.29,2.51,1.09,3a2.2,2.2,0,0,0,3-1.16A2.47,2.47,0,0,0,20.66,35.79ZM20,37.14a1.16,1.16,0,0,1,.53,1.35.72.72,0,0,1-1,.25c-.56-.28-.38-.75-.2-1.19S19.57,36.9,20,37.14Z"/><path class="cls-15" d="M24.81,34.68c-1.11,0-1.65,1-1.86,2a1.78,1.78,0,0,0,1.49,2.29l.52-.08a2.76,2.76,0,0,0,1.78-1.2,2,2,0,0,0,.29-.52C26.75,35.88,26.39,34.63,24.81,34.68Zm.61,2.23c-.16.4-.43.68-.88.47s-.39-.49-.16-1a.62.62,0,0,1,.83-.32C25.54,36.23,25.55,36.58,25.42,36.91Z"/><path class="cls-16" d="M20.93,23.87a8.91,8.91,0,0,1,.93-3.06c.13-.26.33-.61,0-.85s-.74,0-1,.26a4.39,4.39,0,0,0-.51.81,4.9,4.9,0,0,0-.52,2.73c0,.31.11.65.5.7S20.91,24.16,20.93,23.87Z"/><path class="cls-17" d="M31.77,14.54c.11-.33-.16-.56-.46-.71-1.34-.65-4.07.2-5.46,2,2-.68,3.56-1.38,5.31-1A.72.72,0,0,0,31.77,14.54Z"/><path class="cls-18" d="M22,27.41a1.81,1.81,0,0,0-.72-1.58.48.48,0,0,0-.73.32,1.74,1.74,0,0,0,.85,1.57C21.61,27.91,21.82,27.73,22,27.41Z"/><path class="cls-19" d="M44.8,18.26c-.21.72-.5,1.47,0,1.73s.78-.78,1.09-1.2c.31-.71.56-1.34,0-1.38C45.53,17.38,45.1,17.2,44.8,18.26Z"/><path class="cls-20" d="M44.62,15c-.24.58.16,1.06.94,1.19.66-.19,1.57.9,2.15-.09A1.14,1.14,0,0,0,47,14.43C46.2,14.3,45.1,13.9,44.62,15Z"/><path class="cls-21" d="M43,21.85c-.23.49-.68,1.13,0,1.32,1,.3,1.46-.72,2-1.33.38-.43.09-.82-.39-1C43.66,20.52,43.38,21.3,43,21.85Z"/><path class="cls-22" d="M29.11,33.67c0,.35-.34.85.21,1.13s.85-.12,1-.55.23-1-.4-1.27S29.35,33.31,29.11,33.67Z"/><path class="cls-23" d="M19.24,37.55c-.18.44-.36.91.2,1.19a.72.72,0,0,0,1-.25A1.16,1.16,0,0,0,20,37.14C19.57,36.9,19.36,37.24,19.24,37.55Z"/><path class="cls-5" d="M25.07,36c-.33-.15-.58.16-.69.38-.23.5-.2.81.05.93s.59-.12.75-.52S25.33,36.14,25.07,36Z"/><polygon class="cls-24" points="45.68 35.88 45.68 35.88 45.68 35.88 45.68 35.88"/><path class="cls-24" d="M45.67,35.91v0h0l0,0Z"/><path class="cls-24" d="M45.66,35.92l0,0h0l0,0Z"/></svg>