<svg id="Layer_1" data-name="Layer 1" xmlns="http://www.w3.org/2000/svg" viewBox="0 0 61.04 58.96"><defs><style>.cls-1{fill:#030607;}.cls-2{fill:#48afd6;}.cls-3{fill:#50add0;}.cls-4{fill:#286f71;}.cls-5{fill:#1e5651;}.cls-6{fill:#152b30;}.cls-7{fill:#062a35;}</style></defs><path class="cls-1" d="M44.88,8C42.72,7.1,34.23,4.13,30.44,4.57S15.7,9.48,13.21,16.22s-8.13,19.87,1.7,29.65S32.63,54.77,42.7,51s12.69-15,13.13-17S59,13.73,44.88,8Z"/><path class="cls-2" d="M48.46,34.35a6.79,6.79,0,0,1-.88,6.84c-4.95,6.48-6.64,6.75-12.76,1.52-7.89-6.75-13.3-15-14.69-25.52-.28-2.08.1-3.57,2.14-4.48,1-.44,1.86-1.2,2.84-1.69,1.77-.87,3.73-3,4.49,1.18.35,1.91,2.48,2.3,4.34,2.15s3.61.42,4.48,2.39c.6.62.24,1.25,0,1.89-1.21,3-1.13,3.23,1.88,3.88,1.55.33,3,.86,3,2.68s-1.48,2.39-3,2.6a7.44,7.44,0,0,0-3.09,1.09,3.92,3.92,0,0,0-1.57,5.32l.12.21c1.27,2.37,3.47,3.15,5.69,2.11A17.72,17.72,0,0,0,44.6,34.3,5.87,5.87,0,0,1,48.46,34.35Z"/><path class="cls-3" d="M38.25,47.85c-8,2.7-15.83.66-20.5-5.59-5-6.71-6-15.73.26-25.42C20.08,30.5,27.76,40.09,38.25,47.85Z"/><path class="cls-4" d="M38,18.24c.15-.5.31-1,.46-1.5.39-1.91-.69-2.63-2.33-3a23.17,23.17,0,0,0-3.21-.56A2.91,2.91,0,0,1,30.26,10s0-.09,0-.14c.07-1.76,1.67-1,2.6-1.06,2.74-.13,5.49-.16,7.86,1.6.58,1.73,1,3.54,2.89,4.45a1.5,1.5,0,0,1,.86,1.62c-.52,2.17.41,3.57,1.94,5a3.51,3.51,0,0,1,.28,4.94l-.06.06c-1.16,1.38-1.79,2.39-.1,3.89,1.32,1.16.29,2.1-.81,2.81h0c-.58.58-1.21,1.09-1.77,1.69-3.41,2.87-5.46,2.89-7.76.08C34.15,32.44,35,29.46,38,28.3c1-.37,2-.28,3-.58,1.29-.4,2.41-1.13,2.41-2.63s-1.27-2.11-2.58-2.4C37.13,21.91,37.13,21.93,38,18.24Z"/><path class="cls-5" d="M45.76,33.23c.44-1,1.83-2-.12-2.83-2.39-1.06-1.24-2.49-.23-3.62,2-2.24,2.07-3.87-.32-5.58-1.42-1-2-2.19-1.39-3.73s0-2-1.15-2.55c-1.9-1-2.64-2.44-1.79-4.52,5.51,1.29,11.49,8.34,11.6,14,.07,3.71.8,7.56-1.44,11.22C49.68,33.81,48,32.72,45.76,33.23Z"/><path class="cls-6" d="M21.48,19.83c.19-2.9,2.17-4.13,4.34-5.07,1.33-.57,2.83-1.09,4.35,1.41C25.92,14.87,23.76,17.34,21.48,19.83Z"/><path class="cls-7" d="M19,31.17c-1.86,5.21,1,8.32,4.79,11.16-2.59-.1-4.52-1.66-5.78-4.58A5.63,5.63,0,0,1,19,31.17Z"/></svg>