<svg id="Layer_1" data-name="Layer 1" xmlns="http://www.w3.org/2000/svg" xmlns:xlink="http://www.w3.org/1999/xlink" viewBox="0 0 54.47 50.42"><defs><style>.cls-1{fill:none;}.cls-2{fill:#381a46;}.cls-3{clip-path:url(#clip-path);}.cls-4{clip-path:url(#clip-path-2);}.cls-5{fill:#161616;}.cls-6{fill:#cba92f;}.cls-7{fill:#cd1c41;}.cls-8{fill:#cc1c42;}.cls-9{fill:#cc1c41;}.cls-10{fill:#fcd826;}.cls-11{fill:#f9a2b3;}.cls-12{fill:#f9da32;}.cls-13{fill:#f71e40;}.cls-14{fill:#fad829;}.cls-15{fill:#cba833;}.cls-16{fill:#f9a2b2;}.cls-17{fill:#fbeea0;}.cls-18{fill:#fbeea7;}.cls-19{fill:#f8a4b3;}.cls-20{fill:#f6d72c;}.cls-21{fill:#fbeda9;}.cls-22{fill:#f0d43c;}.cls-23{fill:#f1a0b1;}.cls-24{fill:#9d253e;}.cls-25{fill:#fed924;}.cls-26{fill:#fe1c41;}.cls-27{fill:#fd1d41;}.cls-28{fill:#fcd926;}</style><clipPath id="clip-path"><circle class="cls-1" cx="-2256.63" cy="60.74" r="100"/></clipPath><clipPath id="clip-path-2"><path class="cls-1" d="M-1673.22,2657.9c477.91-257,745.15-1176.7,695.61-1708,0,0-43.58-545.59-114.43-949.37,6.77-118.45-82.39-244.35-114.32-362.16-85.4-314.73-278.2-551.26-540.47-733.74-392.89-273.43-838.86-408-1305.72-482.4-52.35-8.36-99.2-18.67-135.21-59.12-61.13-31.46-124.69-21.84-187-7.56C-4191-1457.29-4933.63-1134.73-5475.9-463.76-5602-307.77-5728.13-143.11-5767.36,65c-31.73,77.62-64.14,154.93-95.18,232.66-81.81,207.87-221.09,398.81-186.93,641,6.45,45.95-13.38,82.33-58.16,102-30.62,87-22.85,175-6.3,263.18a2785.86,2785.86,0,0,0,301.2,838.75c170.21,306.32,390,585.41,690.27,775.24,589.54,372.64,1240.68,423.66,1908.9,304.32"/></clipPath></defs><path class="cls-2" d="M6,21.4c1.17,1,29.71,26.34,30,26.67s1-.18,1.35-1.83q2.53-11.4,5.09-22.8c.06-.28.14-.54.23-.92a11.91,11.91,0,0,1,.65,2c.25.83.56,1,1.37.59.58-.28,1.14-.58,1.73-.84a.81.81,0,0,0,.49-1.14,8.81,8.81,0,0,0-3.12-4.52c-.11-.09-.34-.11-.25-.42l2.09,1.15c.82.44,1.65.86,2.48,1.27.61.3.9.19,1.18-.43a10.76,10.76,0,0,0,1-3.37,3.38,3.38,0,0,0-.08-1.23c-.2-.78-.46-1-1.27-1.12s-1.73-.08-2.72-.14c.83-.71,1.56-1.37,2.33-2a1,1,0,0,0,.38-1.39A5,5,0,0,0,46.31,8.1a.83.83,0,0,0-1.17.33c-.55.82-1.13,1.63-1.69,2.45-.23-.11-.11-.3-.11-.44a10,10,0,0,0-.7-3.94.85.85,0,0,0-1.15-.59c-1.08.28-2.19.46-3.27.71-.67.15-.83.41-.63,1.06a20.11,20.11,0,0,1,.71,3.4c-.24-.07-.25-.28-.34-.42-.33-.53-.62-1.08-1-1.58-.81-1.14-.9-1.14-2.09-.47l-1.74,1c-.82.46-.88.66-.42,1.52.22.4.42.81.66,1.2s.17.49-.26.59c-2,.46-4,.95-6,1.43L5.64,19.41a2.6,2.6,0,0,1-.39.05h0S4.84,20.36,6,21.4Z"/><g class="cls-3"><g class="cls-4"><path class="cls-5" d="M-5114.69-1410.7c1.59-92-3.38-184.12,2.91-276.08,5.29-9.78-6-19.56,0-29.35h875.24c1.95,5.87-2.59,8.83-5.71,12.17-10.84,11.47-19.2,25.22-31.41,35.48a10.57,10.57,0,0,0-12,9,10.37,10.37,0,0,0,.19,4,25.88,25.88,0,0,1-10.58,13.59,40.06,40.06,0,0,1-32,4.71,60.89,60.89,0,0,0-17.24-1.17,65.11,65.11,0,0,1-26.44-3.59c-24-3.81-48-10.58-71.55,1.8a95.35,95.35,0,0,1-18.4,4.54c-30.61,5.29-41.88,27-28.13,54.94a342.47,342.47,0,0,0,77.63,101.85,929.23,929.23,0,0,0,78.47,63.87c3.86,2.86,8.3,5.29,10.1,10.58,0,3.54-2.65,4.71-5.61,5.29-11.31,0-17.34-9.47-26-14.33-1.85-1.06-4-4-6.08-1.32-1.48,1.85.32,4.6.58,7,.42,3.8-1.16,7.77.79,11.52a232,232,0,0,0,19.83,65.89,60.42,60.42,0,0,1,5.29,15.86c-2.8,5.29-4.23,9.84,4.71,9,6.76,3.81,7.35,12.27,12.9,17,7.45,11.37,14.91,22.74,27.07,29.82a269.38,269.38,0,0,0,118.24,73.56,468,468,0,0,0,60.23,12.64,119.09,119.09,0,0,0,41.93-.37c11.79,0,22.68-5.66,34.53-5.29,6.55,2.11,4.07,6.4,2.59,10.57-1.17,3.28-2.22,7,1.11,9.42s6.77,0,9.15-2.12c9.67-9.2,21.57-9.52,33.73-12.53,21.47-5.29,43.79-8.36,64.73-15.86,3.22-1.17,4-3.65,5.28-6.46q8.1-20.09,25.91-7.35a110.91,110.91,0,0,1,13.7,10.74c1.37,1.37,2.54,3.7,4.18,4,16.71,2.86,27.49,15.18,40.29,24.38,5.29,3.65,9.2,1.75,11.84-3.7,5.29-11.47,13.86-12.53,25.6-9.25a167.24,167.24,0,0,0,66.89,4.6,71.76,71.76,0,0,1,39.92,5.28c9.25,4.18,15.28,1.85,19.83-5.28a46.92,46.92,0,0,1,27.29-20.73c10.57-3.28,12.16-15.87,21.15-21.84-14.18,10.58-30.25,10.58-46.54,10.58-13.69-.38-27.39,0-41.08,0-8.73,0-16.45-1.12-21.15-9.89a16.34,16.34,0,0,0-12.27-7.25c-3.33-.63-8,0-9.63-2.8-9.46-14.65-21.15-9.09-33.36-5-6.19,2.11-12.59,0-18.88-1-24.27-2.91-44.79,2.17-55.79,26.91-1.53,3.44-4,5.92-7.93,5.29-9.67-2-13.06-9.78-15-18a11.59,11.59,0,0,1,6.61-15l.53-.19c9.67-4.65,4.44-16.23,7.61-24.64-7.08,7.46-13.85,11-21.73,2.17.63-10.58,4.07-18.3,16.76-16.82a38.87,38.87,0,0,1,7.35,1.12,788,788,0,0,0,103.54,0,45.9,45.9,0,0,1,11.74-1.22c4.23.53,8.83,0,11.42,6.13-8.94,6-19.46,7.25-31.73,10.58,15.39-.69,27.87,2,36.7,13.59,2.06,2.75,6.4,5.29,8.88,3.7,10.58-7.09,25.17-2.86,34.05-13.38a19.81,19.81,0,0,1,8.52-5.29c10.57-4,23.37-7.14,10.15-22.42-1.74-2.06.58-6.55,1.22-9.89,4.54-8.3,12.74-13.9,17-22.52.95-1.69,2.59-3.54,2.38-5.29-.74-5.55,11.42-1.27,6.77-9.52-7.56-13.53-3.54-34.1-24.27-39.6a30.64,30.64,0,0,1-13.64-15.23c-1.54-5.82-1.54-13.06-10.9-11.63a19.54,19.54,0,0,1-12.69-12.85c-.26-10-1.8-18.56-15.39-13.81a11.29,11.29,0,0,1-9.62-6.92c-2.27-13.17-9.57-18.67-21.15-15.87-17.45-4.33-28.77-19.72-45.58-25.27-3.12-1-5.29-4.28-9.94-3.65-3.12,11.58,1.48,18,12.05,23.95a234.55,234.55,0,0,1,87.2,82.18c12.85,21.15,7.19,37.65-15.86,46.69a80.62,80.62,0,0,1-32.84,6.61,521,521,0,0,1-66.68,3c-10-.32-18-3.23-22.63-12.75-2.86-11,4.65-19.72,6.82-29.66A130.51,130.51,0,0,0-3834-1368c5.28-14,6.24-29.08,10.2-43.41,4-5.29,1.32-11,.42-16.6-.42-14.39-4.38-28.45-3.59-42.89a38.4,38.4,0,0,0-1.59-18.14c-3.91-17.5-11-34.15-14.75-51.71-1-5.71,7.72-15.07-6.08-15.86a439.48,439.48,0,0,0-85.93-95.18c-2.17-9.2-9.78-8.36-16.66-8.89a547.08,547.08,0,0,0-77.67-28.39,11.46,11.46,0,0,1-7.94-6.19c1.49-8.41,7.94-6.56,13.33-6.13a60.44,60.44,0,0,0,18.88.84c0-6-10.58-8.46-5.29-15.86h810.62c1.11,8.09-1.69,15.86-1.48,24a155.74,155.74,0,0,1-24.38,35.32,13,13,0,0,1-1.37.32c-5.71.79-13.43-6.51-16.71.63s10.2,3.07,10.57,10.15a20.41,20.41,0,0,1-6.45,14.86c-14-.32-1.16,9-4.44,12.53a87.21,87.21,0,0,1-3.17,12.64,263.16,263.16,0,0,0-14,62.77c-3.38,14.27-1.75,28.71-1.27,43.09a22.76,22.76,0,0,1,1.16,4.18,271.54,271.54,0,0,0,17.14,70.33,205.17,205.17,0,0,0,32.3,62,33.27,33.27,0,0,1,7.46,12.48c-2,7.19.48,10.58,8.25,9.89a276.81,276.81,0,0,1,32.68,29.29c.79,7.72,6.13,8.41,12.27,8,6.39,2.91,13.59,4.65,16.81,12-2.8,7.09-10.89,2.65-16.18,7.77,13.48,4,18.77,13.81,22,26.44a19.51,19.51,0,0,0,16.76,16.29,18.67,18.67,0,0,0,19.83-11.53c5-8.93,11.9-8.4,15.39,1.38,2.48,6.82,5,10.57,12.8,10.57a12.16,12.16,0,0,1,13.47,10.69,12.16,12.16,0,0,1-.36,4.65c-1.27,9.57,4.81,10.89,11.79,9.89a255.57,255.57,0,0,1,71.39,0,16.84,16.84,0,0,0,8.67-.74c2.91-1.17,5.29-3,4.86-6.4s-3.06-3.81-5.29-4.13c-17.07-2-33.31-9.89-51.55-2.38-10.15,4.18-23.32,5.71-27.5-11.37-1.11-4.33-7.72-5.28-12.27-7.19a73.92,73.92,0,0,1-18.66-8.35c-4.39-3.33-7.51-7.46.95-10.1,37,9.41,74.4,7.51,111.73,1.53a13,13,0,0,1,13.17,7.3c2.38,5.6-3.07,7.19-7.3,9.94,15.28-2.11,4.44-12.06,6.82-17.87a39.64,39.64,0,0,1,22.79-7.35c8.31,1.53,9.73,5.66,4.5,12.16a49.07,49.07,0,0,0-5.55,6.82c-1.7,3.17-2.75,6.56.42,9.31s5.66.79,7.88-1.27c11.31-10.58,22.1-9.1,34.1-.32a26.45,26.45,0,0,0,36.78-6.74c.21-.31.41-.61.61-.93,2.85-4.07,2-6.5-.58-10.57-9.57-14.38-7.35-18.77,10-21.15s19.25-5.29,18.56-22.9a24.64,24.64,0,0,1,2.06-12.9,15.85,15.85,0,0,0-3.86-20.89c-.79-6.66,4.18-10.57,7.3-15.44,13-20.09,28.29-38.81,35.32-62.29a276.14,276.14,0,0,0,18.56-97.56,259,259,0,0,0-23.58-119.5,30.87,30.87,0,0,1-3.6-13.12c6.19-16.28,5.66-15.86-9.09-28a92.61,92.61,0,0,1-26.44-37.81h763.51c2.59,16.55-11.48,11.1-19.09,15,0,3.18,4.39,4.29,5.29,7.62,0,4.81-1.48,10.57,5.28,12.58,12.22-1.85,12.22-1.85,25.86,9-3.7-13.49-3.54-24.65,11.48-28.93,13.32,3.23,16.7-9.41,24.32-15.28h180.63c8.78,0,10.58,1.8,10.58,10.57q-.59,200.48-.27,400.93C-1601-1426.62,313.83,1435.94,190.73,1521.6c0,14.8-1064.17-134-1254.32-866.25-118.77-463.79-209.3-287.08-245.94-373.74-120.14-283.8-243.24-452-384.79-323-96.88,88.2-160.91-135.06-160.91-134.79-3.81,5.55,39.55-872,40.87-866.36,6,25.12-7.35,48.07-7.14,72.39,0,3.76-.63,9-5.28,9s-5.77-4.71-6.93-8.62a2.24,2.24,0,0,1-.26-1.43c5.28-29.45-3.18-59.33,2.59-88.78a46.44,46.44,0,0,0,1.64-15.87c-1.06-6.76-2.75-12.42-11.8-11.21s-14.43-3.8-19-11c-8.41-13.43-14.91-14.43-26.91-4.17a51.68,51.68,0,0,1-22.53,13.11,8.8,8.8,0,0,0-7,4.76c-7,19.46-23.32,15.86-38.29,15.54a80.8,80.8,0,0,1-24-6.66c-5.66-2.06-8.78-8.41-1.8-10a18,18,0,0,0,15.86-15.87c.43-2.16,3.76-2.85,6.83-7.24-14.23,9-25,7.61-37-.74-10.58-7.35-24.69-3.44-37.28-2.43-3.22,0-4.28,3.33-5.29,6.24-4.07,10-26.44,24.43-36.53,23.74a13.5,13.5,0,0,1-12.33-10.89c-4.44-13.43-20.2-14-27.65-24.17-1.06-1.43-4.87-.58-6.93.74a54.1,54.1,0,0,1-31.14,6.45,16.19,16.19,0,0,0-13.54,7.19,25.16,25.16,0,0,1-31.2,7.72c-8.78-4.91-11.47-15-6.82-28.18,2.38-6.82,2.06-13-3.75-17.19-11.74-8.51-11.95-20.41-11.06-32.94a102.72,102.72,0,0,0,1.7-17.5c-.58-6.19-2.33-12-9.73-12.64a130.83,130.83,0,0,1-26-4c-6.13-1.85-7.51,3.18-8.09,7.67-1.43,11.1-7.09,11.58-15.86,4.92a29.66,29.66,0,0,1-17.34,22.89c-10.58,5.29-9,16.5-8.31,26.13s4.87,17.6,7.3,27.44c6.72-4.44,6.29-10.58,8.25-15.86,4.81-12.59,13.06-17,23.74-9.42,12.64,9,21.84,8.57,33.37-2,8.19-7.5,16.44-3.64,17.29,7.35.58,7.72,8,16.87,0,23.27a30.51,30.51,0,0,1-34.48,4.18c-9.46-5.29-15.44-3.76-19.88,6a34.53,34.53,0,0,1-7.3,9.14c-12.21,12.54-17.18,12.32-27.76-1.32-1.8-2.32-3.49-4.7-5.29-6.93-11.15-12.47-18.29-26.43-13.16-43.62a14.81,14.81,0,0,1,.74-4.12c6.24-12.91-.9-24.06-6.93-33.58-7.19-11.42-17.45-20.84-16.29-35.85-9.3.58-7.35,11.42-14.64,12.11a34.2,34.2,0,0,1-11.58-.9c-23.75-4-42,3.86-53.78,25.17a60.31,60.31,0,0,0,1.48,65,109.2,109.2,0,0,0,18.19,20.73,50.94,50.94,0,0,0,35.64,22.85c12.69,1.63,15.86-2.65,12.8-15.44,8.35-7.41,15.12-16.71,26-21.16,8.14,5.29,17.82,8.2,24.8,15.23,4.71,4.76,10.58,9.63,7.51,17.61s-9.73,6.56-17.35,6.66c4.34,0,7.83-.58,10,1.33,20.78,18.66,47.59,19.08,72.7,22.26,23.27,3,44.05,11.84,65.84,18.4,8.35,2.48,16.28,6.13,24.95,7.93s14.6,7.51,12.17,16.82-10.26,7.77-17.93,6.08c-23.37-5.29-47.22-4.13-71-4.87a72.41,72.41,0,0,1-25.75-4.33,28.33,28.33,0,0,0-30.25,2.69,12,12,0,0,1-4.55,0c-25.22-16.87-52.88-9.2-79.9-7.82-7.77.42-15.54,2.32-23.1-1.06a8.75,8.75,0,0,1-6.24-7.46c0-4.6,3-6.92,6.87-8.4,7.09-2.7,14.49-.32,22.53-1.22-8.57-2.27-19.25.32-20-12.48-8.2,4.44-14.55,11.79-24.33,13.64a7.32,7.32,0,0,0,4.18,2.44c4.71,1.63,10,3.33,10.1,9.2a10.94,10.94,0,0,1-10.58,10.57c-20.78,2.75-38.54,14.28-58.48,19a126.9,126.9,0,0,0-56.1,30.4c-11.85,10.58-27,16.71-37.39,29.93-5.66,7.09-12.64,12.38-15.86,21.89-3.39,10.84-13.54,18.14-21.15,25.33-9.36,8.67-17.66,19.62-30.35,24.7a13.59,13.59,0,0,0-8.7,17.14c.09.26.19.52.29.78a36,36,0,0,1,1,5.82,15.86,15.86,0,0,1-12.71,18.48l-.14,0c-5.65,1.48-14.86-8.89-15.49-16.66-1.38-15.6-6.35-19.67-22.16-18-2.9.32-5.71,1.27-8.67,1.48a9.94,9.94,0,0,1-10.57-6.24c-2.49-5.29,1.21-8.3,5.28-10.26a29.85,29.85,0,0,0,18.19-27.65c.85-12.38,10.58-19.41,19.94-26,6.66-4.76,13.06-8.83,10.57-18.61a8,8,0,0,1,2.17-8.25c13.75-9.09,14.65-27.13,26.81-37.7,8.62-7.46,7.14-9.84-4-12.11-7.35-1.53-16.76-.69-18-11.21-.89-8,11.32-22.26,20.05-22.42,15-.27,29-1.75,40.82-12.37a13.52,13.52,0,0,1,11.37-1.38,24.31,24.31,0,0,0,21.57-5.82c8.78-7.24,18.51-3,27.34,1.7,3.86,2.06,1.21,11.26,9.15,8.83,6.87-2.17,14.91-3,18.87-10.1s10.58-9.63,16.77-13.12c-1.43-6.5-6.83-7.51-10.9-9.57-9-4.65-14.49-9-11.1-21.63,3-11.1-10.58-12.9-17.45-17.66-5.71-4-9.41.8-12.06,6.35-6.92,14.33-20.78,23.11-29.56,36.06a10,10,0,0,1-13.53,2c-22.37-13.12-48.49-13.75-72.55-21.15-22-6.67-45.48-10.58-68.43-15.13a10,10,0,0,0-9.51,2.86c-17.72,20-38.92,16.13-60.13,8.14-8.62-3.22-14-2.8-17.34,6.3-1.32,3.75-3.07,7.5-7.83,7.61s-6.45-3.6-6.77-7.77c-.58-6.88-6-8.31-11.1-10a142.27,142.27,0,0,0-47.59-6.24,149.91,149.91,0,0,1-29.35,0c-24.8-4.12-43.67,6.88-60.23,22.79a37,37,0,0,1-26.43,9.89c-30.89,1.59-61.4-4.65-92.28-3.33-19.4.79-39.39,7.24-58.16,0s-37.55-4.23-55.58-10.15a33.67,33.67,0,0,0-17.45-.74,60.62,60.62,0,0,1-38.76-3.49,5.51,5.51,0,0,0-2.8-.74c-51.56,5.55-101.58-22.63-153.61-6.82-8.35,2.53-16.45-.64-24.22-3.81a26,26,0,0,0-27.6,3.17c-19.25,14.6-40.08,18.4-64.62,14.12a320.67,320.67,0,0,0-102.26,0c-15.6,2.33-29.09-6.72-43.79-9.2a6.72,6.72,0,0,1-4.65-5.29c-2.27-13.22-9.57-14-19.83-8.51-2,1-72-1.64-74-2.54a41.5,41.5,0,0,0-26.7-2.49,138.87,138.87,0,0,0,52.08,5.77,107.54,107.54,0,0,1,19,0c5.6.63,11.15,2.32,11.63,9s-4.71,9.2-9.84,11.26a44.86,44.86,0,0,1-15.86,2.12c-18.88.42-37,0-56.1,6.87-16.45,6-35.8,2-53.83,3a15.08,15.08,0,0,1-8.25-2.8c-3.81-2.38-8-5.29-6.61-10.2s6.08-4.23,9.94-4.76c8.57-1.33,17.56,1.32,27.18-2.65a21.15,21.15,0,0,0-24.59-7.45,90.33,90.33,0,0,0-21.15,10.15c-14.91,8.57-24.85,6.19-34.58-7.77-9-12.85-36.33-19.36-49.66-11.27-10,6.14-14.38,3.55-14.7-7.77,18.51-17.71,18.51-17.71,30.73-16.23-7.25-7.62-7.25-7.62-31.1-4.18,1.22,6.66,9.31,13.85-.31,20.09-16.4,0-32.84,2.49-46.17-11.89-6.18-6.56-15.86-1.43-21.52,3.12-23.53,18.71-49.6,11.52-75.3,8.83-5.28-5.29,0-7.51,3.28-10s8.46-2.64,10.84-8.09a9.67,9.67,0,0,0-13.06-.74c-11.68,10.89-24.53,10.58-38.28,5.82a8.32,8.32,0,0,0-5.77.37c-.95.42-1.58,1.11-2.43,3.28,9.47,3.49,19.41,2.85,29.09,3.86,5.71.63,11.95-.48,15.86,5.6-1,24.38-4.55,27-28.13,21.73a102.73,102.73,0,0,1-25.33-7c-6.61-3.44-11.85-.53-17.29,3.76-12.38,9.73-18.77,8.46-27.55-4.29s-12.48-13.16-21.15.74c-7.19,11.74-19.14,15.13-31.25,16.55-23.64,2.75-47.91,1.11-70.33,11.43a4.65,4.65,0,0,1-2.91.42c-28.92-5.29-57.32,4.07-86.09,3.38a29.16,29.16,0,0,1-11.52-1.69c-7.3-3.38-9.63-8-2.81-15.33-27.44-.8-54.46,1-81.53-.37-9.94-.53-18.88-5.29-28-6.72-26-4.12-47.9-21.15-75.77-20.25-77.2,2.54-154.46,4.23-231.76,3.59-31.31,0-62.4-5.28-93.76-3.22a61.59,61.59,0,0,0-11.68,0c-29,7.77-52.3-1.91-72.87-22.1-4.49-4.45-8.72-7.25-6.08-14.39,8.35-22.31-2.8-41.3-12.74-59.27-8.41-15.29-20.1-28.72-25.81-45.64-2-5.76-5.76-11.53-11.95-11.68-7.3,0-7.93,7.4-9.94,12.79-.69,1.8.26-.47-.37,1.38-1.59,4.6-2.75,10.89-8.46,10.57s-5.92-7.14-6-11.74c-.26-20,0-40.08,0-60.12C-5106.28-1345.56-5105.75-1378.55-5114.69-1410.7Z"/></g></g><path class="cls-6" d="M31.43,42.2c1.09,1.19,2.37,2.17,3.54,3.27l.23.2c.75.66.75.66,1-.35l1.29-5.86c0-.21.06-.41.09-.61a14.49,14.49,0,0,0-.22-4.36c-.18-1.65-.52-3.26-.8-4.88a2.65,2.65,0,0,0-.42-1.08c-.28-.07-.31.17-.32.33a1.18,1.18,0,0,1-.57.83,10.09,10.09,0,0,1-3.58,1.73c-.26.07-.59,0-.73.37.06,1.19.08,2.38.25,3.56a13.75,13.75,0,0,1,.13,2.4c0,1.31.1,2.62-.05,3.94A.83.83,0,0,0,31.43,42.2Z"/><path class="cls-7" d="M31.43,42.2a39.89,39.89,0,0,0-.14-8.39A17,17,0,0,0,31,31.66a.63.63,0,0,0-.14-.88c-.12,0-.19,0-.26.13s-.05.53-.34.62a2.16,2.16,0,0,1-1,.06c-.65-.12-1.28-.29-1.94-.37-.31,0-.4-.24-.43-.51s0-.71-.09-1.05-.1-.64-.54-.6c-.23.31-.11.64-.06,1a32.74,32.74,0,0,1,.36,5.14c0,.68-.09,1.35-.07,2a1.28,1.28,0,0,0,.16.77c1,.94,2.05,1.9,3.1,2.81A9.5,9.5,0,0,0,31.43,42.2Z"/><path class="cls-6" d="M26.65,38a28.15,28.15,0,0,0,0-6.29L26.42,30c-.45.18-.14.63-.33,1-1-.36-2-.73-3-1.16l-.95-.43a1.44,1.44,0,0,1-1-1c0-.16-.1-.61-.46-.19a2.69,2.69,0,0,0,0,1,15.49,15.49,0,0,1,.32,3,1.83,1.83,0,0,0,.29,1,9.28,9.28,0,0,0,1.8,1.74C24.25,35.87,25.4,37,26.65,38Z"/><path class="cls-8" d="M21.27,33.06a19.83,19.83,0,0,0-.39-4.14,7,7,0,0,1-.09-.91c.32-.58,0-1.07-.23-1.56-.45-.22-.38.17-.37.37,0,.39.09.78.13,1.17s-.07.34-.32.26a1.89,1.89,0,0,1-.52-.18c-1.95-1.16-3.94-2.25-5.81-3.54a35.67,35.67,0,0,1-4.16-2.86c0-.29.51-.21.43-.54,0-.15-.22-.17-.36-.19-.5.08-1.07,0-1.44.46Q9.86,23,11.6,24.54l9.11,8.16A1.18,1.18,0,0,0,21.27,33.06Z"/><path class="cls-9" d="M36,28.54a43.51,43.51,0,0,1,1,5.21c.23,1.69.46,3.39.56,5.1.75-2.89,1.34-5.82,2-8.73a18.48,18.48,0,0,0-.34-4,5.92,5.92,0,0,1-.27-.88.37.37,0,0,0-.08-.18c-.37-.14-.36.17-.4.36a3.8,3.8,0,0,1-.19,1,7.16,7.16,0,0,1-.81,1.09,4.46,4.46,0,0,1-.93,1,3.46,3.46,0,0,1-.38-1.09,5.23,5.23,0,0,0-.28-1c-.09-.2-.09-.53-.37-.49s-.19.36-.23.57A7.82,7.82,0,0,0,35.63,28C35.71,28.21,35.75,28.45,36,28.54Z"/><path class="cls-10" d="M41.53,13.51a11.55,11.55,0,0,0,.12-5.72c-.09-.38-.27-.5-.65-.4-.59.16-1.38.1-1.75.47s.13,1.1.21,1.67c.11.84.25,1.67.28,2.52a.66.66,0,0,0,.4.62C40.59,12.9,41,13.2,41.53,13.51Z"/><path class="cls-11" d="M8.14,21.4l1.53-.28a6.48,6.48,0,0,0,2.4-.36c1.66-.41,3.33-.77,5-1.2a1.77,1.77,0,0,0,.7-.24c.24-.63-.21-.91-.62-1.21L9.67,19.86l-2.6.62Z"/><path class="cls-12" d="M43.62,16.51A38,38,0,0,0,47.94,19c.2.11.35.09.43-.15A7.08,7.08,0,0,0,49,16.25c0-.34-.14-.49-.47-.51a22.26,22.26,0,0,0-3.83,0C44.21,15.83,44,16.21,43.62,16.51Z"/><path class="cls-13" d="M41.92,19.26a4.42,4.42,0,0,0-1.1-4.4,3.09,3.09,0,0,0-2.37-.58.23.23,0,0,0-.12.15.75.75,0,0,0,.13.58,20.34,20.34,0,0,1,2.4,6.39.51.51,0,0,0,.07.17.25.25,0,0,0,.26.11A12.05,12.05,0,0,0,41.92,19.26Z"/><path class="cls-14" d="M42.74,14.6a2.13,2.13,0,0,0,1.64-.55c.89-.83,1.85-1.58,2.79-2.35.37-.3.46-.56.16-1s-.61-1-1.08-1.06-.66.6-.93,1c-.8,1.07-1.54,2.19-2.29,3.3A1,1,0,0,0,42.74,14.6Z"/><path class="cls-15" d="M41.16,21.66l-.11-.13c-.39,0-.42.35-.53.59a23.78,23.78,0,0,1-1.21,2.55,1.25,1.25,0,0,1-.52.5l.75,4.95,1.71-7.62C41.23,22.22,41.42,21.92,41.16,21.66Z"/><path class="cls-16" d="M35.16,13.81,30,15a6.37,6.37,0,0,0,1,1.17.61.61,0,0,0,.19,0c1.17-.27,2.33-.57,3.5-.83a1.41,1.41,0,0,0,.84-.38C35.77,14.5,35.44,14.16,35.16,13.81Z"/><path class="cls-17" d="M30.92,16.08c-.19-.44-.33-.94-.92-1l-4.17,1c-.4.52.1.81.3,1.18a.64.64,0,0,0,.19.08A2.74,2.74,0,0,0,27.64,17c.89-.24,1.83-.31,2.7-.62A1,1,0,0,0,30.92,16.08Z"/><path class="cls-18" d="M17.13,18.11c.1.43.44.69.66,1a.25.25,0,0,0,.17.23c1.38-.46,2.85-.57,4.19-1.14a.37.37,0,0,0,.13-.15c-.09-.76-.4-1-1.09-.95Z"/><path class="cls-19" d="M21.19,17.13c.64,0,.73.58,1,.94.16.19.36.16.57.12.92-.19,1.84-.42,2.76-.64a.66.66,0,0,0,.56-.43c.15-.43-.47-.65-.3-1.09Z"/><path class="cls-20" d="M35.34,12.33c.47-.09.93-.2,1.4-.26s.32-.19.2-.41-.23-.45-.36-.65c-1-1.64-.51-1.43-2.25-.52-.17.09-.27.19-.16.39l.75,1.35C35,12.42,35.18,12.4,35.34,12.33Z"/><path class="cls-21" d="M35.16,13.81c-.19.44.42.66.28,1.08l.08.08a.4.4,0,0,0,.23.08c.78-.12,1.56-.28,2.35-.38.15,0,.23-.16.3-.29a.07.07,0,0,0,0-.05,1.08,1.08,0,0,0-.81-.92A6.92,6.92,0,0,0,35.16,13.81Z"/><path class="cls-22" d="M43.18,19.86c.47,1.26.92,2.36,1.23,3.51.07.22.22.26.37.14s.78-.09.6-.58A6.82,6.82,0,0,0,43.18,19.86Z"/><path class="cls-23" d="M37.63,13.41c.32.26.42.72.81.92a13.87,13.87,0,0,1,2.38.53A4.36,4.36,0,0,0,37.63,13.41Z"/><path class="cls-24" d="M41.16,21.66l.09.84a15.68,15.68,0,0,0,.67-3.24c-.42.12-.27.54-.31.77C41.52,20.6,41.09,21.06,41.16,21.66Z"/><path class="cls-25" d="M30.92,16.08l-2.63.54c-.67.16-1.34.35-2,.53-.15.3,0,.56.14.81a44.48,44.48,0,0,1,3.77,10.5c.14.6.25,1.2.4,1.8.05.2.07.41.26.54l.19.86a2.17,2.17,0,0,0,1.48-.25,11,11,0,0,0,3.26-1.85c.39-.32.09-.7.22-1l-.54-2.21c-.29-2.62-1.48-4.93-2.54-7.28a21.14,21.14,0,0,0-1.23-2.36c-.16-.26-.3-.55-.65-.6Z"/><path class="cls-26" d="M30.85,30.8a27.18,27.18,0,0,0-.83-4,44.12,44.12,0,0,0-3.74-9.66l-.15,0-3.89.95,0,.05c-.16.29,0,.52.14.75a38.35,38.35,0,0,1,3.32,8.72,9.18,9.18,0,0,0,.19.91c.07.22.07.51.4.55.49.38.31.95.36,1.44.08.91.06.88,1,1a12.13,12.13,0,0,0,2.34.36c.57,0,1-.11.82-.82C30.76,31,30.82,30.88,30.85,30.8Z"/><path class="cls-25" d="M26.26,29.05c-.33-1-.52-2.11-.82-3.15a36.89,36.89,0,0,0-2.79-7l-.44-.81a11.25,11.25,0,0,0-2.14.49,9.33,9.33,0,0,0-1.72.4.91.91,0,0,0-.39.27c-.24.26-.08.52,0,.74a24.71,24.71,0,0,1,2.11,5.72c.06.23.07.5.32.64A9.13,9.13,0,0,1,20.79,28c.06,1.19,1,1.46,1.87,1.82,1,.41,2.06.8,3.09,1.22.5.2.77.15.64-.49a.78.78,0,0,1,0-.6C26.46,29.64,26.2,29.37,26.26,29.05Z"/><path class="cls-26" d="M20.43,26.38a21.8,21.8,0,0,0-1.65-5.33A11,11,0,0,1,18,19.28l-.17-.14L9.89,21c-.07,0-.14.07-.22.1h.06a.6.6,0,0,0,.08.08c-.24.13-.69,0-.69.36s.43.35.61.56a13.37,13.37,0,0,0,2.52,1.69c1.43,1.05,3,2,4.48,2.9A19.68,19.68,0,0,1,19,28c.51.41,1.11.37,1.66.69-.19-.6-.06-1.21-.23-1.78C20.35,26.73,20.29,26.55,20.43,26.38Z"/><path class="cls-27" d="M31,16.09a38,38,0,0,1,3.44,7.33c.33,1,.61,1.95,1,2.91V26l.08,0,.79,3c1.12-1.18,2.42-2.16,2.39-4,.24-.19.17-.44.12-.68a42.13,42.13,0,0,0-2.39-7.83c-.14-.34-.27-.69-.43-1a1,1,0,0,0-.53-.57.07.07,0,0,1-.06,0c-1.22.41-2.49.61-3.73.94C31.48,15.89,31.22,15.88,31,16.09Z"/><path class="cls-28" d="M35.5,14.91a39.15,39.15,0,0,1,2.33,6.28,31.76,31.76,0,0,1,.9,3.83l.06.15c.21.29.32.32.54-.05C40,24,40.42,22.7,41.05,21.53a15.15,15.15,0,0,0-1.66-5.24c-.31-.65-.66-1.27-1-1.91A19,19,0,0,0,35.5,14.91Z"/></svg>