<svg xmlns="http://www.w3.org/2000/svg" xmlns:xlink="http://www.w3.org/1999/xlink" viewBox="0 0 200 200"><defs><style>.cls-1{fill:none;}.cls-2{fill:#3a3e5e;}.cls-3{clip-path:url(#clip-path);}.cls-4{fill:#353535;}.cls-5{fill:#080808;}.cls-6{fill:#090909;}.cls-7{fill:#9a9a9a;}.cls-8{fill:#0b0b0b;}.cls-9{fill:#bdbdbd;}.cls-10{fill:#171717;}.cls-11{fill:#7c7c7c;}.cls-12{fill:#f3f3f3;}.cls-13{fill:#4a4a4a;}.cls-14{fill:#585858;}.cls-15{fill:#d6d6d6;}.cls-16{fill:#f9f9f9;}.cls-17{fill:#1a1a1a;}.cls-18{fill:#3b3b3b;}.cls-19{fill:#c4c4c4;}.cls-20{fill:#d2d2d2;}.cls-21{fill:#505050;}.cls-22{fill:#8c8c8c;}.cls-23{fill:#141414;}.cls-24{fill:#060606;}.cls-25{fill:#191919;}.cls-26{fill:#040404;}.cls-27{fill:#050505;}.cls-28{fill:#0e0e0e;}.cls-29{fill:#020202;}.cls-30{fill:#909090;}.cls-31{fill:#787878;}.cls-32{fill:#f4f4f4;}.cls-33{fill:#bfbfbf;}.cls-34{fill:#5c5c5c;}.cls-35{fill:#b4b4b4;}.cls-36{fill:#848484;}.cls-37{fill:#0f0f0f;}.cls-38{fill:#8a8a8a;}.cls-39{fill:#f2f2f2;}.cls-40{fill:#8d8d8d;}.cls-41{fill:#b2b2b2;}.cls-42{fill:#f1f1f1;}.cls-43{fill:#b1b1b1;}.cls-44{fill:#ededed;}.cls-45{fill:#ebebeb;}.cls-46{fill:#929292;}.cls-47{fill:#e5e5e5;}.cls-48{fill:#d0d0d0;}.cls-49{fill:#5e5e5e;}.cls-50{fill:#a6a6a6;}.cls-51{fill:#b7b7b7;}.cls-52{fill:#898989;}.cls-53{fill:#d5d5d5;}.cls-54{fill:#b6b6b6;}.cls-55{fill:#afafaf;}.cls-56{fill:#acacac;}.cls-57{fill:#818181;}.cls-58{fill:#b9b9b9;}.cls-59{fill:#fcfcfc;}.cls-60{fill:#777;}.cls-61{fill:#0a0a0a;}.cls-62{fill:#a0a0a0;}.cls-63{fill:#797979;}.cls-64{fill:#b0b0b0;}.cls-65{fill:#181818;}.cls-66{fill:#0d0d0d;}.cls-67{fill:#e0e0e0;}.cls-68{fill:#0a0809;}.cls-69{fill:#191915;}.cls-70{fill:#1b160f;}.cls-71{fill:#050504;}.cls-72{fill:#0d0e0e;}.cls-73{fill:#df5736;}.cls-74{fill:#3184fb;}.cls-75{fill:#d7b7a4;}.cls-76{fill:#2c64b7;}.cls-77{fill:#96b9ed;}.cls-78{fill:#a1c1f0;}.cls-79{fill:#0e110b;}.cls-80{fill:#8f849c;}.cls-81{fill:#fdefe4;}.cls-82{fill:#cd7a44;}.cls-83{fill:#f5a060;}.cls-84{fill:#b7aaca;}.cls-85{fill:#bcafd0;}.cls-86{fill:#8d849b;}.cls-87{fill:#d7d2df;}.cls-88{fill:#bcafcf;}.cls-89{fill:#afafb0;}.cls-90{fill:#b1a5c4;}.cls-91{fill:#857c93;}.cls-92{fill:#bbaecf;}.cls-93{fill:#beb1d2;}.cls-94{fill:#2f83fb;}.cls-95{fill:#a699b1;}.cls-96{fill:#9a50f9;}.cls-97{fill:#d8bc05;}.cls-98{fill:#12092b;}.cls-99{fill:#221219;}.cls-100{fill:#220d14;}.cls-101{fill:#130a0a;}.cls-102{fill:#baeefe;}.cls-103{fill:#b6a9c9;}</style><clipPath id="clip-path"><circle class="cls-1" cx="100" cy="100" r="93.27"/></clipPath></defs><g id="Layer_2" data-name="Layer 2"><g id="Layer_1-2" data-name="Layer 1"><circle class="cls-2" cx="100" cy="100" r="100"/><g class="cls-3"><path class="cls-4" d="M-541.88,494.89V337.54c13-1.35,20.6,6,26.67,18.43,3.52-9,5.62-17.18,14.54-19,.32-3.66-2.32-4-3.95-5.12-2.63-1.87-5.31-3.74-4.48-7.49s4.2-4.38,7.19-5c11.6-2.49,23-5.62,34.54-8.32a134.3,134.3,0,0,0,53.17-26.49,137.08,137.08,0,0,1,50.86-24.95c27.12-7.23,54.81-11.69,82.64-15.43a757.47,757.47,0,0,0,108.09-21.71c12.27-3.53,24.48-7.4,37-9.89a184.41,184.41,0,0,0,47.71-17.11c-37.93,8.28-78.2,4.33-118.37-1.51-24.89-3.64-49.17-.83-73.22,5.22a353.64,353.64,0,0,1-91.7,10.3c-35.23-.46-70.45.32-105.38-5.84-20.44-3.6-39.64-10.9-58.86-18.26a17.46,17.46,0,0,1-6.48-5.23V167c2.1-2.16,5-2.36,7.64-3.19,66.29-20.6,105.69-65.69,119.48-133.18,4.14-20.27-.49-39.77-11.24-57.44-3.36-5.62-3.13-9.66,1.14-14.16,5.86-6.18,9.59-13.81,13.95-21,8.23-13.58,6.94-28.1,3.75-42.61-.77-3.53-2.77-7.22.58-10.55,16.24-4.46,32.63-8.36,49.55-5.71a174,174,0,0,0,82.85-7.14,46.92,46.92,0,0,0,18.23-11c4-3.93,3.41-7.14-1.87-9.07a65.25,65.25,0,0,0-22.78-4.3c-15.53,0-31.12,1-46.55-1.88-7.1-1.37-14-2.92-19-8.86-1.57-3.75.32-6.61,2.34-9.46,10.55-15,19.07-30.74,22.37-49a12.91,12.91,0,0,1,4.36-8.08c16.19-7.49,33.93-7.77,51.05-10.77,30.44-5.36,61.22-8,92-10.71,5-.45,10-.68,15-.7,34.64,0,69.31-.3,103.93.13,17.21.23,34.22-2.77,51.4-2.15a10.23,10.23,0,0,0,8.6-3C15.16-268.55,29.25-274,43.5-278.44a277.52,277.52,0,0,1,110-11.09,418.49,418.49,0,0,0,159.22-15c28.33-8.34,53.45-23.92,79.13-38.09,26.9-14.83,49.27-36.13,75.21-52.45A565.5,565.5,0,0,1,574.89-446.8c20.39-7.5,38.1-18.36,50.83-36.51,3.6-5.15,4.93-9.73,1-15.27a22.82,22.82,0,0,1-4.14-13.23c-.11-9.87,3.75-15.15,13.36-17.49a94.57,94.57,0,0,1,26-2.34c24.36.92,48.6,1.59,72.82,4.23,14.07,1.52,28.1-.45,41.85-3.35,12.43-2.62,19.33-12.61,22.68-23,5.51-17.2,18.43-24.86,32.82-32.3,15-7.75,31.15-12.85,46.47-19.82,4.18-1.87,8.9-3,13.29-8.33-12.46-3.43-24.23-6-36.08-6-27.45,0-54.85-.87-82.33,1a344.7,344.7,0,0,1-66.37-.89,68.72,68.72,0,0,0-18.73.35,31.77,31.77,0,0,1-4.65.58c-3.74,0-8.86,1-9.46-3.44-.49-3.53,4.57-4.54,7.89-5.19A526.55,526.55,0,0,0,739.36-642c37.46-11.76,75.49-22,112.26-36,16.07-6.14,30.64-15.28,46-22.92,6.16-.4,8.61,4.66,11.37,8.46,20.6,28.51,50.07,37.77,83.34,38,12.79,0,25.31-3.18,37.46-7.62,9.18-3.37,11.24-2.08,12.07,7.23,5.13,52.3,34.39,85.79,81.88,105.18,6.81,2.79,15,2.66,20.34,8.67v118c-18.15,8-34.43,20.19-54.32,24.24-18.49,0-29.79-8.23-30.14-29.34-5.76,5.62-6,10.91-6.28,15.76-.51,7.68-3.58,11.87-11.56,13.11-4.34.66-9.36,1-12.4,5.86,2,4.86,9.93,3.88,10.64,10.18-1.5,4.28-5.36,5.07-9,5.61-29.37,3.75-56.42,15-83.73,25.56a363.35,363.35,0,0,0-51.69,23.8c-34.71,20-72.23,31.29-111.32,39.14-27.07,5.43-54.33,11.24-80.23,21.24-10.27,0-16.51-8.13-24.66-12.35-29.72-15.45-60.37-28-93.15-35.59a356.6,356.6,0,0,0-102.36-8.6c-41.62,2.48-81.63,12.31-116.75,36-28.91,19.5-40.15,47.56-37.94,82.27,3.11,48.7,27.52,87.5,56.2,124.1,28.25,36.08,64,63.6,104,85.85,6.15,3.41,14.28,4.35,17.87,11.8-5.21,3.75-11.67,3.75-17.51,5.47-22.87,6.65-45.13,15.12-67.64,22.75Q383.66,57.88,346.5,75c-28.7,11.41-55.67,26.47-83.38,39.94-22.38,12.38-44.69,24.92-66.35,38.57-3.74,1.88-7.08,4.84-11.56,5.17C174,154,164.46,146.43,153.13,141.82,128.23,131.5,103.26,132.33,78,139a34.3,34.3,0,0,1-18.9,0c-20-5.4-40.09-12.25-61.39-6.54-15,4.05-30,15.12-21.28,36.42C-18.22,182-13.5,195.06-5.14,206.45a13.59,13.59,0,0,1,2.32,13.28c-9.95,26.23-6.33,51.46,6,76a9,9,0,0,1,.69,2.7c-4,6.7-10.73,10.67-16.37,15.58-9.07,7.91-17.5,16.41-26,24.88-8.09,8-15.47,16.71-23.32,24.95a25,25,0,0,1-8.28,5.84c-33.71,20.09-71.29,31.12-107.45,45.47C-220.15,432-262.7,449-306.83,461.83c-38.08,11.07-76.5,20.72-115.86,25.62-33.72,4.18-67.44,8.19-101.3,10.16C-529.91,497.94-536.43,499.35-541.88,494.89Z"/><path class="cls-5" d="M-364.24-291.49c16.26,18.35,38.53,23.07,61.16,25.79,33.57,4.05,64.17-6.35,92.84-22.74,24.59-14.07,37.82-37.47,46.83-63.11,21.28-60.22,9.55-116.25-21.73-170.07-5.89-10.12-11.67-11.78-21.83-8.62-36,11.24-73.46,12.65-110.67,15.76-30,2.51-59.6-1.77-89.2-5.62-6.39-.85-10.94,1.29-13.11,6.33-8.88,20-25.65,18.95-42.88,16.86-26.41-3.23-50.15-14.28-73.83-25.48a45.81,45.81,0,0,0-5.26-1.78v-11.24c3-1.42,5.32.32,7.83,1.52,23,11,46.64,20.25,72.21,23.19a115.65,115.65,0,0,0,28.68-.22c2.46-3.58,5.62-6.86,7.23-10.79,4.22-10.59,12.37-11.24,21.49-9.13,35.59,7.93,71.63,8.19,107.82,4.52,27.9-2.85,55.84-5,83-12.37,33.72-9.12,68-15.94,99.29-32.4,1.36-.73,2.79-1.39,4.15-2.16,8.36-4.68,8.83-7.32,1.07-13.43-10.53-8.3-21.52-15.94-35-18.94-4.46-1-8.78-2.68-13.39-4.1,7.49-7.49,16.43-5.08,49.64,13.66,3.35-26.83,15.94-49,33.34-68.73,2.83-3.19,5.44-7,10.4-7.36,1.09,5.48-3.07,8.59-5.88,12A111.57,111.57,0,0,0-93.82-610a64.39,64.39,0,0,0-1.31,14.85c.39,11.24,6.48,18.14,17.6,19.22,8.36.81,16.86,1.2,25.07-1.35,54.43-17,94.05-51,117.88-103,4.37-9.58,5.38-20,5.62-30.16.32-17.89-13.3-28.4-32.07-25.72-15.75,2.23-29.63,9.08-43.08,17.08-4,2.4-7.78,6.67-13.47,4.44,15.81-19.8,37-29.35,62.6-32-4.19-6.58-7.92-12.52-11.76-18.4a49.87,49.87,0,0,1-8.94-27.11c0-2.73-.88-6.29,3-6.66,3.24-.32,3.5,3.11,3.84,5.39C33-780.8,38.54-769.66,44.7-758.83c4,7,8.3,13.83,17.31,15.77,2.81.62,5.45,3,7.68,5.08,8.13,7.61,8.23,7.79,14.39-1.87a530,530,0,0,0,32.78-59.55c7-15,14.89-29.45,22.76-44,2.14-3.95,1.72-5.84-2.23-7.94-13.11-7-23-17.85-32.89-28.7-15-22-24.88-46-24.88-73.06,0-46.68,23.15-81.54,57.88-110a145.59,145.59,0,0,1,37.15-23c9.37-3.75,2.43-11.09,2.66-16.86a14.58,14.58,0,0,1-3.47-8.4,125.1,125.1,0,0,0-6.37-28.71c-.93-2.61-1.44-5.42.6-7.89h11.24c4,3.52,5.27,8.39,6.32,13.28,11.65,53.43,13.39,106.89.46,160.41a15.62,15.62,0,0,0-.22,3.74c-1.37,16.71-6,32.9-8,49.49-2.92,8.73-3.24,18.18-7.49,26.68,27-2.27,50-27.37,49.41-53.29-.3-14.18-8-23.76-18.5-31.85a8.5,8.5,0,0,1-2.55-5,7.53,7.53,0,0,1,2.25-5.36,12.81,12.81,0,0,1,5-3c21.3-8.76,43.08-17.25,60.47-32.61,29-25.66,46.83-56.46,37.58-97.31a71.6,71.6,0,0,0-5.83-15.72c-1.44-3-4.16-5.62-2.74-9.46h11.24c3.75,12.36,10.91,23.47,11.43,37.13,1,27.52-8.07,51-24.61,72.55-12.12,15.73-28.76,25.32-45,35.68-11.5,7.35-23.27,14-37,18.44l8.93,10.39c14.67,6.45,16.86,31,11.11,45-9.08,22.2-25,38.06-47.48,44.58-16,4.63-22.15,15.12-27.11,28.7A452.15,452.15,0,0,1,103.9-752.82c-12.27,17.71-21,35.6-19.52,57.91,1.14,17-9.12,31-17.39,44.69C40.56-606.35,1.43-578.6-47-563.38a71.73,71.73,0,0,1-33.32,1.88c-8.81-1.41-16.51-.9-24.23,3.48-4.87,2.76-10.49,3.9-15.69,6a328,328,0,0,1-45.45,14c-9.61,2.06-10,3.39-5.51,11.76,14.43,27.13,26.1,55.13,30,85.94A167.84,167.84,0,0,1-140.11-417c.82,44.19-13.84,83.34-40.2,118-12.57,16.47-30.8,26-50.28,32.73A244.79,244.79,0,0,1-282.29-254c-7.29.85-14.27-.69-21.39-1.07-9-.46-10.1.75-10.51,9.86-.28,5.79,1.4,11.95-2.72,17.14-3.31,23.92-15,44.09-28.36,63.54-4,9.94-12.59,15.4-20.94,20.6-12.87,8-26.75,13.51-42.49,12.16a8.61,8.61,0,0,0-6.65,1.12c1,6.47,8.77,9.71,8.49,16.86,3,11.71,6.54,23.33,4.55,35.6-2.53,15.67-11.59,27.93-21.17,39.84-2.52,3.15-4.23,4.81-1.12,9.37a78.11,78.11,0,0,1,13.11,58.55C-420.68,85.4-452.3,126-500.56,154.07c-12.44,7.2-26.22,13.12-41.32,13.12V156a8.39,8.39,0,0,1,5.37-4.4c36.93-8.72,63.15-32.41,84.6-62.1a145.45,145.45,0,0,0,22.59-47.88c6.74-25.16,4.8-48.71-11.24-70a8.81,8.81,0,0,1-1.27-6.9c1.5-3.61,4.47-5.92,7.36-8.29,21.9-18.1,32.48-56.88,3.35-84.08a137,137,0,0,1-9.72-10.15c-1.87-2.06-4.72-3.35-5.26-6.5,1.87-14.42,6.2-28.64,4.4-43.42-3.15-25.64-11.35-48.46-35.59-62.12-8.17-2.36-9.93-7.12-8-15.54,6.33-28.1-19.18-57.16-47.82-55.12-3.06.21-6.2,1.26-8.86-1.25v-7.49c33-1.56,57.71,15.41,65.88,45.24a35.38,35.38,0,0,1,0,21.07c-1.05,3.09-1.31,4.51,2.17,6.33,27.29,14.24,39.34,38.21,42.45,67.72.28,2.71-.75,5.62,1.23,8.05,3.15,7.7,1.09,15.33-.33,22.91-1.88,9.69-1.46,9.63,7.77,11.39,39.11,7.5,66.35-16.86,81.43-44.69a97.35,97.35,0,0,0,10-66.09c-1.08-5.73-4.7-8.41-9.36-10.55-5-2.26-10.87-3.31-14-8.69l-11.42-11.14C-366.73-289.66-367.65-291.64-364.24-291.49Z"/><path class="cls-6" d="M3.14,299.7C-12.07,275-15.95,248.92-6,221.4c2-5.62,2-9.59-1.88-14.46-10.41-12.76-15.49-28.33-20.1-43.78-5.21-17.48,8.54-28.31,23.68-33,14.05-4.41,28.49-3.38,42.35.46,8.88,2.48,18.38,3,26.68,7.78,2.49,1.42,5.38.5,8.13-.45,35-12.12,68.45-8.36,100.35,10.24,4.85,2.83,8.2,7.72,13.64,9.67,4.57-1.44,6.72,2.23,9.25,4.63,12.92,12.23,21.82,27.33,30.14,42.86,2.45,21.76,14.05,38.34,28.62,54a99.41,99.41,0,0,1,23.46,40c5.05,17.61-3.6,32.63-21.27,37.19a94.23,94.23,0,0,1-39,1.08c-12.7-2.06-23.47.13-33,8.43-18.83,16.32-42.06,20.61-65.57,24.24-27.67-1.87-53.8-8.3-76.69-24.86-14.42-8.15-24.89-20.6-35.21-33.1C4.67,308.73,1.21,305.06,3.14,299.7Z"/><path class="cls-7" d="M261.75,113.07c19.26,8.73,40.34,11.54,60.19,18.38,7.05,2.43,14.41,3.91,20.79,8-.35,3.3-3,4.52-5.45,5.77-18.73,9.67-37.85,18.44-56.19,28.91a12.41,12.41,0,0,1-7.14,1.7c-15.81-3.56-31.34-8.24-47-12.45-7.23-1.88-14.61-3.13-21.84-5-3.75-.94-8.32-1-9.18-6.26,10.3-10.11,24-14.85,35.91-22.47C241.47,123.54,251.77,118.48,261.75,113.07Z"/><path class="cls-8" d="M271-5.06A16.65,16.65,0,0,0,260.22-2.6,113,113,0,0,1,234,6.76C223.37,9.33,218.8,4.89,221.24-6.09c2.15-9.7,4.36-19.4,7.3-28.88,1.48-4.82-.11-6.84-4-8.69-8.26-3.9-15-10.06-21.52-16.19-8.54-8-7.6-13.11,3-17.66A152.48,152.48,0,0,1,228.92-85c8.48-2.13,12.73-7.88,16.28-15.25,3.89-8,7.62-16.24,13.76-23.11,5-5.62,8.55-4.52,12.44.75a84.62,84.62,0,0,1,13.38,24.44c1.7,5.29,4.29,8.41,11,9.15,11,1.19,21.86,4.53,32.71,7.19,3.63.88,7.62,2.13,8.07,6.65a10.47,10.47,0,0,1-4.85,9.57C323.85-60,319.3-50.93,311-45.71c-3.87,2.42-4.23,5.85-2.86,10.51a159.2,159.2,0,0,1,6.63,30c1.05,11-2.4,14.48-13.11,11.24-7.5-2.3-14.65-5.17-22-7.79Z"/><path class="cls-9" d="M196,152.2c18.74,5,37.47,9.8,56.2,15,7.68,2.11,15.17,4.89,22.76,7.38.83,2.3-.71,3.74-2.28,4.53-14.39,8.07-28.27,17-42.94,24.62a8.44,8.44,0,0,1-5.41,1c-4.91-3.32-6.47-9-9.18-13.7a126.79,126.79,0,0,0-28.4-33.21C188.1,153.1,192.43,153.23,196,152.2Z"/><path class="cls-10" d="M91.25,59.12c0-12.19,8.64-21.43,19.9-21.36s18.73,7.12,18.73,18.49c.15,11-9.69,22.48-19.45,22.78S91.23,69.14,91.25,59.12Z"/><path class="cls-4" d="M334.57,419.77c-17.74-22.47-44.08-21.88-68.79-26.22a213.37,213.37,0,0,0-48.7-2c-27.41,1.48-54.21,4.91-79.6,15.91a59.74,59.74,0,0,0-8.58,5.62,40.44,40.44,0,0,1-25.45,7c-8.13-.41-9.72-4.25-7.61-10.94,3.64-11.48,11.86-20.25,18.51-30,2.53-3.74,5.15-7,5.08-11.67,25.14-3.74,49.41-9.89,69-27.42,8.44-7.5,18-7.29,28.09-5.62a116.21,116.21,0,0,0,33.57.58c26.14-3.22,33.72-24.35,21.41-46.66A226.41,226.41,0,0,0,235.68,241c-9.78-10.17-8.3-24.15-11.33-36.57l50.57-30.15,67.83-35,66.95-29.06C439,99.47,468,88,497.91,78.92l71-20.61c10.81-7.28,23.47-7.64,35.74-9.47,10.4,3,20.79,6.1,31.21,9,2.62.75,5.13.68,6.24,4.35C650,88.34,666.47,108.5,687,125.77c-22.18,3.35-42.15,13.24-62.27,22.12-24.12,10.62-47.86,22.22-69.81,37.15-16.66,11.24-30,25.77-43.39,40.52-9.25,10.22-15.34,22.48-23.73,33.27a22.81,22.81,0,0,0-5.08,16.59c-1.72,4.25-5.73,5.62-9.36,7-9.37,3.74-18.21,8.15-27.2,12.47C409,312.77,380.57,340,359.29,375c-2.07,3.41-3.48,7.49-7.49,9.19A147.19,147.19,0,0,0,334.57,419.77Z"/><path class="cls-11" d="M149.14,144.71l3.89,3.74a3,3,0,0,1,.43,2.53c-.32,1.15-.93,2.18-1.33,3.3.94-.75,1.22-2,2.14-2.75,1.37-1.09,2.68-2.42,4.66-1.37,14.58,5.51,25.63,15.88,36.57,26.39a2.52,2.52,0,0,1,.31,3.54,2.38,2.38,0,0,1-.56.49c-14.12,13.11-14.72,29.26-10.22,46.51-8.79-1.87-8.73-9.87-9-15.73-.4-8.09-.3-16.86,3.91-22.26-4.51,9.52-6.55,21.08-1.08,33,1.08,2.38,1.33,6.76,6.12,4.87,6,8,12.38,15.68,22.48,18.9,2.62,1.39,4,3.75,2.1,6.09-11.5,14.42-23.92,27.72-42.88,32.29-3.75-2.06-5.19-6-7.49-9.12.6,3.47,4.29,5.62,4.12,9.61a10.05,10.05,0,0,1-6.37,6.16c-18.23-3.74-34.51-12.58-50.17-21.88-20.49-12.15-42.46-22.19-60.17-38.77a44.36,44.36,0,0,1-6.65-7.63c-6-9.1-12.49-18-23.49-21.67-3.95-1.31-4.14-3-2.07-6,20.1-29.66,45.14-52,82.6-56,4.07,4.06,6.26,8.73,4.8,14.61-3.58,4.25-8.58,2.92-13.11,3-17.46.3-17.63.31-23.32,16.35-.72,2-2.14,3.63-2.95,5.75-.88.58,1.78.24.62-.21-.6-.24-.24-.3.28-.88,2.14-2.3,4.56-1.87,6.8-.65,15,8.33,29.84,9,44.64-.45,1-.66,2.31,0,3.39,0,0-6.35-5.09-11.24-5.2-17.52,1.55-3.42,4.77-3.57,7.83-3.74,7.79-.42,15.13-1.33,20.36-8.43C142.6,144.71,145.75,142.48,149.14,144.71Z"/><path class="cls-12" d="M60.16,142.12c-5.45,4.89-9.13,7.72-16.67,5.25a100.82,100.82,0,0,0-32.26-4.65c-23.16.17-28.83,10.46-20.46,32.39C-2.82,192,9,205.55,22.75,217.18,78.59,264.37,142.17,297,212.21,317.36c11.74,3.41,23.86,4.93,36,1.88,10.19-2.55,13.9-9,10.15-18.87a124.86,124.86,0,0,0-23.45-37.91c-5-5.62-6.48-11.24-4.31-19.43,11.88,11.39,19.75,24.77,28.49,37.47,2.83,4.05,4.5,8.88,6.8,13.32,11.58,22.21.81,33.72-22.76,35.7-19.5,1.58-38.55-3.26-56.85-9.36-48.16-15.83-94.39-36.27-135-67-22.18-16.75-46-32.47-59.94-58.07a166.64,166.64,0,0,1-12.85-29c-5-16,1.87-27.24,18.39-31.08a79.43,79.43,0,0,1,38,.71Z"/><path class="cls-4" d="M42.23,153.85C30.82,165.09,19,174.83,11,188c-3,4.91-6.13,5.9-8.84-.62s-6.17-12.25-8.47-18.73c-4.74-13.21-.32-20,13.5-21.85C12.93,146.15,34.79,150.33,42.23,153.85Z"/><path class="cls-13" d="M188.51,208.66c-1-6.46,2.12-12.89,5.83-19.11,4.36-7.3,6.27-7.1,11.11-.41,10.11,14,13.37,30.16,15.82,46.64.64,4.29-2.66,4.11-5.45,4.41-12.36,1.38-25.94-10.46-27.27-23.87C188.34,214.17,188.51,212,188.51,208.66Z"/><path class="cls-14" d="M100.68,154.07c.63-5.5-4.73-9.53-3.75-15.11,10.71-3.75,21.37-.51,31.84.75,6.86.8,14,1.46,20.33,5.09a8,8,0,0,0-6.3,3.52c-6.16,7.23-13.76,10.79-23.41,9.54a5.92,5.92,0,0,0-5.9,2C108.51,159.49,103.6,159,100.68,154.07Z"/><path class="cls-15" d="M158.93,150.08c-4.79,1.6-4,8.19-9,10-2-4.82.71-8.19,3.05-11.69C155.11,148.59,157.62,147.29,158.93,150.08Z"/><path class="cls-16" d="M125.23,55.2c.1,10.83-6.5,20-14.21,19.84C104.35,74.87,94.7,65,94.59,58.18c-.12-7.77,8.61-15.19,18-15.28C121.21,42.84,125.16,46.68,125.23,55.2Z"/><path class="cls-17" d="M100.68,154.07c4.34,1.78,9.36,1.88,12.85,5.81,6.63,6.45,6.33,15.34,8.67,24.17-3.9-6.58-6.5-5.75-12.5-2.16a35.57,35.57,0,0,1-36.84-.64c-7.8-4.73-9.57-2.07-13.55,3.47C62.84,176.8,62.12,168,66.62,161a15.62,15.62,0,0,1,14.44-7.06C87.6,154.07,94.23,154,100.68,154.07Z"/><path class="cls-18" d="M185,226.91c-3.15,7.66-4.76,1.31-6.12-.9-8.49-13.62-5.62-33.93,8.44-48.54C178.4,195.36,170.81,211.19,185,227Z"/><path class="cls-19" d="M146.68,187.57c-1.46,6.74-2.6,12-3.74,17.68C136.3,200,137.77,192.42,146.68,187.57Z"/><path class="cls-20" d="M142.8,182.29c-2.71-7,.81-11,3.75-15C148,172.54,146.1,177,142.8,182.29Z"/><path class="cls-21" d="M74.13,163.08c-.41,1.17-1.31,2.4-1.12,3.45.37,2.31,1.74.81,2.62.28,1.87-1.12,3.62-2.45,5.51-3.52,6.83-3.9,22,1.87,25.3,9.7,0,.64,0,1.43-.35,1.78-6.48,5.89-30.63,3.94-35.59-2.82-2.18-2.95-1.59-5.85.15-8.72h0A2.57,2.57,0,0,1,74.13,163.08Z"/><path class="cls-22" d="M70.63,163.23c-.69,5.83,1.33,9.37,7.6,10.4,9.48,1.57,18.94,5.79,28.21-.64,7.74-4.1,2.57-7.64-1-10.13-2.9-2.06-6.86-2.64-11.82-4.4a14.65,14.65,0,0,1,9.82,0c6.14,1.87,11.24,6.07,11.24,12.29-.1,5.33-6.26,7.49-11.06,8.5-10.51,2.19-21.16,2.47-30.92-3C67,173.09,64.5,168.65,70.63,163.23Z"/><path class="cls-22" d="M74.13,163.08l-3.56.21A8.55,8.55,0,0,1,80.86,158C79.66,161.66,76.08,161.21,74.13,163.08Z"/><path class="cls-6" d="M66.39,104.38c.45-1.62-.68-2.36-1.78-3.2a39.49,39.49,0,0,1-15.78-27.5,32.27,32.27,0,0,0,0-9.81c.53-2.17.12-4.55,1.6-6.49,2.54-2.25,3-5.91,5.78-8,6.35-6.13,13.62-10.58,22.59-12,14.69-2.38,27.2,1.69,37.59,12,1.22,1.11.63,2.83,1.43,4.09.83,3.27,1,6.69,2.66,9.75.94,2.54,3.21,4.25,4.4,6.64a13.73,13.73,0,0,1-.1,2.48,95.18,95.18,0,0,1-2,10.15c-.14.63-1.39,1.63.28,2.09.7-.26,1.32-.63,2-.92a4,4,0,0,1,2.44-.42,1.67,1.67,0,0,1,1.17,1.41,10.63,10.63,0,0,1-6.63,6.65,4.5,4.5,0,0,1-2.37-.86,6.05,6.05,0,0,0-3.59-1.9c-8-.05-10.52,2.16-12.07,10.53-.56,1.95-1.09,3.92-2.83,5.26-4.27,3-9.52,2.94-14.31,4.29-.58.53-.86,1.33-1.58,1.75a4.73,4.73,0,0,1-3.06.2,15.53,15.53,0,0,1-1.8-.53,23,23,0,0,0-5.9-1.5,7.24,7.24,0,0,1-2.62-1.41c-1.29-.89-2.87-1.32-4-2.44C67.91,102,66.71,105.43,66.39,104.38Z"/><path class="cls-6" d="M138.41,85.28c4.86,1.6,6.29,6.24,8.89,9.76,2.3,3.12,3.82,6.74,7.94,8.23,1.67.6,2.33,2.29,2.61,4,.89,5.25,3.9,9.93,1.64,16-1.27,3.41,1,8.1,1.19,12.3.2,4.93-1.58,8.71-6,11.25a1.42,1.42,0,0,1-2.1.94c-1-.41-1.92-1-1.24-2.29,7.6-4.75,6.55-11.65,5-18.74-6,2.81-5.87,2.81-5.72,8.75.09,3.83.8,7.74-.78,11.49-.75.71-1.51,1.36-2.59.55-1.51-2.26-.8-4.8-.95-7.23a50.22,50.22,0,0,0-.93-11.14c-.34-2.23-1.21-2.91-3.34-1.76a31.75,31.75,0,0,1-5.09,2.07c-1.9.87-4,.62-6,1.14,1.46-.31,2.61-.27,2.2,1.72-4.62,3.83-4.62,3.83.52,10.6,2.23,2.16,2.52,5.4,5.08,7.64,1.76,1.53.87,4.71-1.45,6.56a2.21,2.21,0,0,1-2-.28c-1.65-2.17,0-5.11-1.66-6.94-.35-.87-1,.07-.46-.27.16-.1.26,0,.38.19,1.49,2.93.81,5.8-.24,8.66A2.4,2.4,0,0,1,131,159.6c-1.35-3.47-4-3.55-7.11-2.63a25.82,25.82,0,0,1-6-.13c-1-.35-2-.68-1.91-2,2.58-1.87,5.66-1.84,8.64-2.12,1.72-.18,4.73.72,4.71-1.3,0-2.55-3.09-1.37-4.9-1.59a7.37,7.37,0,0,0-2.7.45c-2.25.47-5,0-5.88,3-.42.56-.9,1-1.67.62-1.26-1.23-1.15-2.94-1.66-4.44a6.68,6.68,0,0,1,0-2.78c.62-1.33.28-3.33,2.56-3.52,2.55,5.72,7.32,2.86,11.37,2.77.85-.36,2.4,0,2.15-1.57s-1.61-.82-2.55-.93c-3.5-.36-7,1.66-10.45.16-1.21-.84-.48-1.46.25-2.07,2.61-1.91,6-1.12,9.35-2.55-2.12-1.55-3.87-1.9-5.75-.3a26.89,26.89,0,0,1-3.56,2.82,1.35,1.35,0,0,1-2.09-.67,3.55,3.55,0,0,1,.61-2.92c1.8-2.8,1.32-5.25-1-7.49s-4.29-2.16-6.62.07a19.18,19.18,0,0,1-6.32,4.27c-2,.75-3.56,1.58-3.34,4a2,2,0,0,1-1.57,2c-2.27-.31-2.91-1.85-3.05-3.78-.3-4.28,3.47-4.74,6.55-6.44a12.13,12.13,0,0,1-4.45-4.9c-1.16-2-3-2-4.78-1.09-2.07,1-.92,2.51-.35,3.85,1.15,2.73,3.33,5.11,3,8.35-1.53,2.43-2.74.15-3.81-.43s-1.56-2.06-2.11-3.26c-3.69-5.9-3.48-11.87-.35-17.89a2.29,2.29,0,0,1,1.9-.47c2.84,1.62,5.39-.16,8.06-.66,5.42-.87,10.5-3.64,16.24-2.68a1.77,1.77,0,0,1,.3,2c-3.35,3.08-7.88,2.91-11.93,4.06s-8.31,1.17-11.17,3.28c.44-.77,2.15-.68,3.57-1.09,4.7-1.34,9.55-2,14.26-3.32,1.59-.43,3.37-.52,4.47-2,.91-.53,1.76-1.68,2.85-.26a5.27,5.27,0,0,1-.4,5.19c-2.3,3.83-1.44,6.73,2.3,9,4.34,6.45,5.1,6.36,9.77-.3,2.3-3.29,3-7.15,4.78-10.61a2.1,2.1,0,0,1,1-.69,13.06,13.06,0,0,0,6.1-2.18c2.06-1.08,1.57-2.57.78-4.18a33.86,33.86,0,0,0-6.66-9.55c-1.48-1.44-3.35-2.66-3.74-4.92a2,2,0,0,1,1.12-1.51,3.25,3.25,0,0,1,2.51.53c2.83,1.63,4.43,4.41,6.56,6.7,2.45,3.31,4.9,2.74,7.45-1.76a55.32,55.32,0,0,0-7.62-11,4.35,4.35,0,0,1-1-1.68A1.8,1.8,0,0,1,138.41,85.28Z"/><path class="cls-6" d="M113.24,149.44c1.75,1.13.79,3,1.2,4.43l-.29.2c-4.34,2.08-6.47,6.46-10.13,9.25-2.31,1.76-3.66,4.88-7.24,4.84a2.76,2.76,0,0,1-1.56-1c-.61-1.49-1.94-1.84-3.4-2-1-.47-2-1-1.71-2.32,1.75-1.7,1.83-3.57.77-5.68-3.6-7.21-6.18-14.88-10.24-21.88A8.28,8.28,0,0,0,78,133.2,4.27,4.27,0,0,1,76.72,132a2.24,2.24,0,0,1-.32-2.17c4.76-2.35,3-6.52,3-10.2,0-3.27-2.73-2.12-4.39-2.55-5.45-1.42-8.83-6.33-8.61-12.71.74-.58,1.64-2.08,1.86.31,2,2.11,1.91,5.4,4.34,7.26,5.42,3.59,9.34,2.82,13.61-2.68,1-1.34,2.17-1.32,3.39-.28,1.15,1.94-.39,3.58-.62,5.37a1.42,1.42,0,0,1-.79.87l-1.75,0c-4.84,4.49-5.15,10.46-.77,15.27a12.6,12.6,0,0,1,1.69,2.66c2.66,3.06,2.66,3.06,4.86,3.48a.46.46,0,0,1,.75,0c.69,1.41,1.16,3,2.75,3.78,1.08,1.77,0,4,1.27,5.74,3.52,3.6,4.47,3.43,8.16.27,2.74-2.36,5.11-5.48,9.19-6a2.05,2.05,0,0,0,2,.78l-.06-.06-.87,2.16.06-.06c-1.79.54-.56,2.89-2.22,3.51-3.66,5.84-9.74,9.51-14.18,15.58,3.82-3.92,6.77-7.72,10.41-10.86C110.56,150.59,111.34,149,113.24,149.44Z"/><path class="cls-6" d="M56,50.53c-2.3,1.94-1.36,6.41-5.6,6.85,4-18.09,23.39-31.8,43.51-30.94q19,.81,31.26,14.82c1.08,1.24,2,2.67,3.87,2.92,0,1.52-1.34,1.52-2.35,1.86a8.83,8.83,0,0,0-7.33,5.11c-.41.88-.77,2-2.14,1.91-1.17-.56-.14-1.94-1-2.6-1.24-4.36-5.27-6.07-8.65-8.17C90.49,31.69,66,36.07,56,50.53Z"/><path class="cls-6" d="M112.46,113.43l0-1.9c-3.54,0-6.51-2.47-10.11-2.18a3,3,0,0,1-2.32-2c-.36-1.31,1.79-2.32.47-3.76,1.61-1.14,1.59-3.13,2.51-4.63.9.33,1.14,1.14,1.44,1.9a9.79,9.79,0,0,0,5,5.57c6.57,2.76,10.87,1,14.17-6.25-3,1.52-4.26,4.56-7.19,5.06-2.38.29-4.83.73-6.06-2.11,1.25-2.52,3.64-.16,5-1.24-3.46-1-5.82-2.75-4.15-7,.35-.88-1-1.06-.94-1.85,2.24-3.71,6.13-2.71,9.5-3.17a2.06,2.06,0,0,1,1.88.87c.49,2-1.43,2.28-2.41,3.23s-3.08,1.41-3.14,3.38c8.64-1.59,17.25-9.19,18.43-16.24-3-.11-3.23,4-6.25,3.8l-1.21-1.38c.26-3.67,4.35-5.78,4.15-9.65a6.33,6.33,0,0,1,.61-2.22,7.2,7.2,0,0,0,.58-1.45c-.09-.79-1.31-1.41-.4-2.35a28,28,0,0,1,5.88-1.75,1.66,1.66,0,0,1,1.3,1.23,12.73,12.73,0,0,1-3,4.35c-1.79,2-3.9,4,.42,5.89,3.48,1.57,1,5.09,1.79,7.62,0,.58,0,1.16,0,1.73-3,2.18-4.32,6.1-8.24,7.24l-1.21,1.19c-.27,7.62-3,13.65-11,16.44-1.48.52-1.83,2.44-3.52,2.71-.4-1.1-1.08-.53-1.71-.27-.34-.11-.5-.28-.47-.51S112.37,113.43,112.46,113.43Z"/><path class="cls-6" d="M49.58,160.29l-1.63.87c-3.58-7.24-7.24-14.44-10.69-21.74-2.09-4.42-.4-7.27,4.71-7.7,7.49-.62,15-.86,22.52-1.26l11.91-.62.84,1.89a17.66,17.66,0,0,1-8.46,1.73c-7.72-.19-15.32,1.3-23,1.1-5.87-.15-6.78,1.37-4.16,6.37s4.54,10.19,7.2,15.12C49.48,157.33,50.37,158.69,49.58,160.29Z"/><path class="cls-6" d="M139.24,67.42l-.94-1c-1-4.37,1-9.22-2.28-13.21a11.67,11.67,0,0,0-6.74-4.84,9.71,9.71,0,0,1-2.21-1.16,2.21,2.21,0,0,1-1-2.16c1-.24,2.16.07,3-.82C139.74,48.69,144.22,58.93,139.24,67.42Z"/><path class="cls-6" d="M48.82,63.87a13.71,13.71,0,0,1,0,9.81Q48.82,68.77,48.82,63.87Z"/><path class="cls-6" d="M110.63,63.92c2.69-1.74,3.21-4,2.18-7-.52-1.49-.27-3.22-.39-5.18,2.92.78,2.9,2.71,2.81,4.59a13.92,13.92,0,0,0,2.87,9.73c4.61,5.7,2.77,11.53.77,17.44-.52,1.56-1.59,1.24-2.92,1.18-8.68-.37-15.21,5.34-15.41,13.71-.07,2.84-1.25,4.09-3.83,4.64-9,1.92-11.35,3.43-21.69.91,13.77-3.66,24.41-10.88,31.84-22.43a37.07,37.07,0,0,0,3.87-8.6c.55-1.69,1-3.49,2.7-4.51A6.67,6.67,0,0,0,110.63,63.92Z"/><path class="cls-6" d="M84.7,45.21C58.54,64.16,56.83,69,67.67,92,57,88.62,54.35,76,56.32,64.69,58.17,54.1,71.57,44.94,84.7,45.21Z"/><path class="cls-6" d="M56,50.53c-.91-2.75,1.29-4.07,2.88-5.47C74,31.71,100.78,32.37,115.17,46.37c1.23,1.18,2.67,2.25,1,4.09-6.86-6.12-14.34-10.93-23.9-12.23-12.87-1.75-23.92,1.61-33.4,10.17A34.16,34.16,0,0,1,56,50.53Z"/><path class="cls-6" d="M109.73,102.22c1.85,2.6,4.54,2.44,7.28,2.11,1-.43,2.23-.84,2.78.38.4.89-.6,1.59-1.37,2.05-3.16,1.86-6.45,1.42-9.76.41a8.74,8.74,0,0,1-5-5.38c.23-10,3.72-13.66,13.58-14.16,1,.67,2.81.4,2.6,2.32-1.72,1.12-3.43,2-5.71,1.79-1.86-.22-3.54.45-3.87,2.66a3.39,3.39,0,0,1-.39,1.12c-1.24,1.84-.86,3.69,0,5.53A1.58,1.58,0,0,1,109.73,102.22Z"/><path class="cls-6" d="M110.87,58.07c-.15,2.8-1.7,4.72-5.1,4.71a6.61,6.61,0,0,1-6.24-6.53c0-3.24,1.67-5,5.08-5S110.85,54.18,110.87,58.07Z"/><path class="cls-6" d="M126.1,45l.86,1.55c-4.25,4.21-4,9.45-3.48,14.74-.73,1.58-1.53,3.08-3.76,2.64-2.36-3.29-2.58-7-2.48-10.87C118.74,48.86,121.1,45.54,126.1,45Z"/><path class="cls-6" d="M119.72,63.93a4.79,4.79,0,0,0,3-2.9c1.36-.21,2,.76,2.39,1.67,1.62,3.85,5.1,5.63,8.53,7.5l-.85,1.54c-3.33,2.22-6.09,1.73-8.27-1.61C122.72,68.2,120.41,66.66,119.72,63.93Z"/><path class="cls-6" d="M86.6,109.75c-2.79,6.19-9.18,7.39-14.88,2.79,1.14-1.41,3-1.12,4.43-1.7a35.8,35.8,0,0,1,6-.78l3.49-.39A.58.58,0,0,1,86.6,109.75Z"/><path class="cls-6" d="M128.33,85c1.29-1.47,2.6-2.92,3.87-4.41.92-1.09,1.81-2.17,3.33-.8-4.75,8.71-12.39,14.31-21.21,18.63-1.67-1.79.31-2.23,1.22-3,2-1.59,4.1-3.09,6.16-4.63A24.68,24.68,0,0,0,128.33,85Z"/><path class="cls-6" d="M123.53,85.45c-.93.28-.78,2.19-2.33,1.5s-.73-1.69-.33-2.58c1.8-4,2.11-8.24,2.69-12.45,2.89-1,3.67.9,3.53,2.92C126.81,78.61,126.63,82.53,123.53,85.45Z"/><path class="cls-6" d="M131.89,73.6c1.33,4.66-2.93,6.79-4.77,10l-1.53.9c-.76-3.46.68-6.69,1.4-9.92C127.57,72,130,72.7,131.89,73.6Z"/><path class="cls-6" d="M117.22,87.63c-8.49,1.12-12.87,6-13.58,14.16-.22-.93-.44-1.86-.65-2.79C103.87,90.14,108.45,86.47,117.22,87.63Z"/><path class="cls-6" d="M76.38,111.65c-1.31,1.51-3.09.65-4.66.89-2.74-2-3.09-4.91-3.47-7.85,1.84-.61,2.89.85,4.24,1.54C73,108.55,76.07,109.17,76.38,111.65Z"/><path class="cls-6" d="M100.48,103.63c.94-.08,1.87,0,2.09,1.06.36,1.72-1.78,1.09-2.23,2.1-1.32,1.92-3.33,2.39-5.51,2.43a34.74,34.74,0,0,1-10.08-1.38C90,106.32,95.69,106.64,100.48,103.63Z"/><path class="cls-6" d="M131.89,73.6c-3-.22-5,.39-4.79,4.14.12,2.23-1,4.51-1.51,6.77l-2.06.94c.76-3.24,1.47-6.49,2.3-9.72.53-2.06.12-3.46-2.27-3.81a2,2,0,0,1,.94-1.79,12.19,12.19,0,0,0,8.27,1.61Z"/><path class="cls-6" d="M84.75,107.84c5.23.1,10.5.84,15.59-1l1.93,1.84c-3.94,3.3-8.29,3.22-12.83,1.44-.8-1.34-1.74-1.51-2.84-.32l-.93-.08Z"/><path class="cls-6" d="M110.63,63.92c3.36.07,5.09,1.11,2.8,4.51C110.26,68.25,108.92,67,110.63,63.92Z"/><path class="cls-6" d="M76.38,111.65c-2-1.34-4.14-2.56-3.89-5.42L74.42,108c2.1.37,4,1.74,6.32.94l1.43,1.1C80.65,112,78.46,111.62,76.38,111.65Z"/><path class="cls-6" d="M80.74,109c-2.44,1.83-4.49,1.13-6.32-.94C76.85,106.29,78.6,108.85,80.74,109Z"/><path class="cls-6" d="M114.47,114.59A6.7,6.7,0,0,1,119,110c5.37-1.83,8.11-5.93,8.39-11.53.06-1.18-.71-2.87,1.53-3a49.13,49.13,0,0,1,11.54,14.87c1.43,2.78,1.26,4.28-1.87,5.12-3.3-.2-3.3-3.49-5-5.16-1-.93-1.75-2.42-3.2-2.19s-1.18,1.9-1.53,3a43.56,43.56,0,0,1-7.72,14.58c-1.28,1.53-2.35,3.63-5,3.15-5.07-2.26-5.54-5.61-2.7-10C114.14,117.62,114.13,116,114.47,114.59Z"/><path class="cls-6" d="M132.57,143.36c-1.41-2.06-3.23-4-4.14-6.21-1.54-3.79,2.16-3.81,4.3-4.87,1.42-1,3.73-1.18,3.73-3.6l9-3.93c1.23,4.91,2.54,9.7,2,14.77-.48,3.22-2.75,4.46-5.58,3.64A17,17,0,0,0,132.57,143.36Z"/><path class="cls-6" d="M116.1,128.78c6.78-4.88,9.93-12,11.91-19.55,1.15-4.4,2.94-3.41,5-1.28a78.37,78.37,0,0,1,5.65,7.48c-1.84.78-3.26,3-5.75,1.55-.52-1.94,1.16-3.86,0-6.2,0-.2-.42.85.07.48.86,2.12,0,4-1,5.8a30.1,30.1,0,0,1-6.47,14.19c-3.67,4.68-5.3,4.54-8.2-.58C116.91,130,116.49,129.41,116.1,128.78Z"/><path class="cls-6" d="M151.33,146.14l-1.63.53c-.2-5.22.38-10.48-.93-15.64-.48-1.91,0-2.88,2.28-3.36s4.07-1.83,6.13-2.83C160.1,139.16,159.19,142.44,151.33,146.14Z"/><path class="cls-6" d="M114.33,140.49c-2.87,3.42-7.12,5.19-10.19,8.62-2.7,3-6,.44-8.19-2.39a8,8,0,0,0,5-5.87,7.47,7.47,0,0,1,4.12-5.19c3.35-1.57,6.17-3.9,9.18-6C119,133.28,116.5,136.89,114.33,140.49Z"/><path class="cls-6" d="M114.28,129.7c-.9,4-4.72,4.8-7.67,6.35s-4.82,3.62-4.93,6.52c-.16,4.17-2.38,4.67-5.73,4.15-1.82-2-1-4.15-.24-6.27.3-.34.92-.85.85-1-2.76-4.67,1.28-4.51,4-5.73a17,17,0,0,0,6.2-4.4C109.7,125.59,111.88,127.29,114.28,129.7Z"/><path class="cls-6" d="M132.57,143.36c2.21-2.54,4.52-3.55,7.93-1.64,2.72,1.52,5.32.64,6.93-2.2a20.65,20.65,0,0,1-.29,8.06c-1.74,4.41-4.27,8-9.46,9,.22-2.21,1.2-4.36.53-6.68-1.42-.16-.4,1.43-1.33,1.73A27.1,27.1,0,0,0,132.57,143.36Z"/><path class="cls-6" d="M139.34,88.12a38.43,38.43,0,0,1,8.25,11.77c-2.56,3.32-5.73,3.85-9.43,1.94L132,95.28A9.53,9.53,0,0,1,139.34,88.12Z"/><path class="cls-6" d="M93,136.67l-.38.06-.37-.06c-1.54-3.23-3-6.49-4.64-9.68-1-1.89-1.35-3,1.5-3.7,3.66-.93,6.35-1.26,7.35,3.27.58,2.64,3.14,2.95,5.48,3.36C99.93,133.54,93.77,131.74,93,136.67Z"/><path class="cls-6" d="M89.44,110.07c4.32-.16,8.65-.16,12.83-1.44,4.13-1.5,6.72,2.11,10.17,2.9L95.8,115.14c-2.5-.4-5.2,1.06-7.54-.78C86.89,112.47,89.45,111.6,89.44,110.07Z"/><path class="cls-6" d="M148.32,118.06c-3.25-6.18-3.25-6.18,1.63-9.08,5.74-3.42,5.74-3.42,7,3.39C157.18,117.7,154.1,119.74,148.32,118.06Z"/><path class="cls-6" d="M148.32,118.06c3.86-.49,8.14-.36,8.64-5.69,2.64,7.48,1.54,10.12-5.28,13-1.17.5-2.47,1.1-3.45.29a2.36,2.36,0,0,1-.18-3.28C149.08,121,148.46,119.52,148.32,118.06Z"/><path class="cls-6" d="M112.46,113.43l.3.89a3,3,0,0,1-2.7,2.6c-7.39,1.65-14.75,3.4-22.38,5.17.11-3.37,2.72-3.51,4.74-4C99.08,116.45,105.78,115,112.46,113.43Z"/><path class="cls-6" d="M144.84,116.1c2.86,3.69,1.48,6.05-2.43,7.81a42.61,42.61,0,0,1-12.75,4c2.12-3,.76-7,5-8.12C139.67,122,139.93,121.87,144.84,116.1Z"/><path class="cls-6" d="M87.35,133.19a4.49,4.49,0,0,0-1-.78c-7-2.73-4.35-8.87-4.77-13.72-.23-2.63,2.92-2.69,4.89-3.43.13.58.58,1.33.35,1.7C83.43,122.51,85.78,127.83,87.35,133.19Z"/><path class="cls-6" d="M106.6,119.94c-.77,1.94-2.5,3.72-.85,6.06a1.49,1.49,0,0,1-1.19,2.35c-2.23.13-4.67.1-6.3-1.68-2.7-2.94-1.94-5.17,2-5.91C102.32,120.38,104.29,119.15,106.6,119.94Z"/><path class="cls-6" d="M115.4,143.37c3.94-.55,7.85-1.34,11.86-1.1,1.45,1.5,1.15,3,0,4.51-3.3,1.41-6.92,1.05-10.32,1.19s-1.07-3-1.49-4.66Z"/><path class="cls-6" d="M116.23,154.7c-.29-.61-.58-1.23-.86-1.84-.47-5.62,4.08-2.47,6.29-3.43a3.2,3.2,0,0,1,2.2-.38c1.29.13,3-.64,3.67,1,.76,1.87-.49,3-2.16,3.83C122.3,154,119.34,155.11,116.23,154.7Z"/><path class="cls-6" d="M113.24,149.44l-16,15.37c0-3.09,9.73-13.81,16-18Z"/><path class="cls-6" d="M130.6,159.27l-1.7.89c-3.15,2.09-6.49,1.79-9.89.73l-1.1-2.35c1.78-1.82,4.62-1.13,6.53-2.62.75-.19,1.5-.34,2.24-.56C130.57,154.21,131.76,155.62,130.6,159.27Z"/><path class="cls-6" d="M144.84,116.1c-.46,4-2.73,6.19-6.85,6.39-1.85.09-3.42-.42-3.31-2.72l7.2-3.72C142.88,115.54,143.88,114.39,144.84,116.1Z"/><path class="cls-6" d="M153.46,104.84l-10.23,6.42c-.27-1.48-3-3.06-.17-4.31C146.2,105.57,148.74,100.64,153.46,104.84Z"/><path class="cls-6" d="M116.33,141.27c.78-2.83,2.68-4.8,5.6-5,2.5-.19,4.5,1.24,5.72,3.9-4,.51-7.6,1.54-11.38,1.07Z"/><path class="cls-6" d="M125.37,153.85c2.32-4.3,2.32-4.3-3.71-4.42,2.06-1.28,4.38-.67,6.6-.89,2-.21,3.09.29,3.3,2.42.24,2.37-1.27,2.69-3,2.82C127.48,153.85,126.42,153.83,125.37,153.85Z"/><path class="cls-6" d="M138.16,101.83c3.28,0,6.56,0,9.43-1.94,0,1.84-.19,1.59-3.16,3.82C141.08,106.23,139.22,105.73,138.16,101.83Z"/><path class="cls-6" d="M136.46,128.68c.33,1.08,2.16,2,1.32,3-1.24,1.5-3.33.43-5.05.62-1.59-2.91-3.28.93-5.45-.62C129.8,128.92,133.48,129.61,136.46,128.68Z"/><path class="cls-6" d="M139.34,88.12A34.57,34.57,0,0,0,132,95.28l-1.81-1c1.86-2.12,3.77-4.2,5.56-6.37a2.09,2.09,0,0,1,2.68-.87Z"/><path class="cls-6" d="M135.69,156.7c-1.18.35-1.15,2.72-3.1,1.77a25.75,25.75,0,0,0,.09-11C135.73,150.66,135.58,153.72,135.69,156.7Z"/><path class="cls-6" d="M124.44,155.92c-1.36,2.79-3.9,2.8-6.53,2.62-1.4-1-.81-1.87.32-2.63Z"/><path class="cls-6" d="M88.26,114.36c2.52.21,5.18-.88,7.54.78-2.54.39-5,3.54-7.62.09C88.21,114.94,88.23,114.65,88.26,114.36Z"/><path class="cls-6" d="M127.27,146.78c0-1.51,0-3,0-4.51,3.61-1.21,3.06,2.25,3.17,3.41C130.61,147.68,128.38,146.39,127.27,146.78Z"/><path class="cls-6" d="M132,117.06l1.17-7.68c1,3.2.8,5.42-.26,7.6Z"/><path class="cls-6" d="M128.74,162.92c-2.9,2.21-5.7,3.61-7.89-.8,2.1-1.57,4.66-.86,7-1.24C129,160.68,130.22,161.48,128.74,162.92Z"/><path class="cls-6" d="M128.74,162.92c.53-1.72-.59-1.53-1.7-1.42-2.06.23-4.13.42-6.19.62-.85-.07-1.61-.28-1.84-1.23l9.89-.73C130.15,161.15,130.56,162.1,128.74,162.92Z"/><path class="cls-6" d="M78.21,132.46A3.59,3.59,0,0,1,81,134.22a4.19,4.19,0,0,1,.39,3.85c-3.39,11.08-9.9,19.42-21.51,23.32a14.64,14.64,0,0,1-8.57,0l.1-.12c-4.52-7-7.6-14.72-11.16-22.19-1.42-3-.09-4.76,3.56-4.88,5.22-.17,10.43-.59,15.62-.77C65.69,133.22,71.93,132.31,78.21,132.46Z"/><path class="cls-6" d="M51.29,161.4c16.05-.2,26.76-12,29.69-27.18,5.31,8.06,8.26,17.18,12.19,25.86,1,2.3-1.33,2.51-2.91,3l-32.53-.16C55.46,162.87,53.15,163.07,51.29,161.4Z"/><path class="cls-6" d="M78.21,132.46C74.79,133.9,71,134,67.5,134c-7.7,0-15.29,1.35-23,1.14-4.21-.11-4.81,1.1-3,4.94q4.95,10.6,9.89,21.22l-1.81-1c-3.38-7-6.78-13.93-10.13-20.91-1.9-4-1.07-5.57,3.4-5.84,11.46-.69,22.93-1.22,34.39-1.81Z"/><path class="cls-6" d="M95.81,154.94c1.85-1.41,3.89-1,6.1-.71-1,2.53-3.54,3.29-5.09,5-.19.21-1-.15-1.61-.24.08-.4,0-1.06.25-1.17,3.41-1.59-2.43-.89-.52-2.06A1.47,1.47,0,0,1,95.81,154.94Z"/><path class="cls-6" d="M82.19,131.75c4,1.5,5.16,5,6.7,8.3C84.58,138.93,85.21,133.89,82.19,131.75Z"/><path class="cls-6" d="M94,149.34c-2.88,1.76-3.76.82-4-4.25a3.2,3.2,0,0,1,2.12-2l1.76,6.32Z"/><path class="cls-6" d="M95.81,154.94l-.87.84c-2.82-.4-2.17-1.87-1.13-3.46,1.14-1.24,2.38-1,3.66-.23C96.94,153.06,95.19,153.35,95.81,154.94Z"/><path class="cls-6" d="M92.14,143.1c-.07,1.31-.93,1.82-2.12,2-1.48-.1-2-1.52-1.48-2.14C89.45,141.93,91,142.24,92.14,143.1Z"/><path class="cls-6" d="M97.47,152.09l-3.66.23c-2.1-1.12,1.3-1.92.18-3l-.09.08C95.28,150.06,97.27,149.93,97.47,152.09Z"/><path class="cls-6" d="M66.33,37.43c15.63-13.36,40.79-12,55.05,2.69.76.78,3.43,2.24.84,3.62-1.69.89-2.72,4.36-5.92,1.59-14.18-12.28-30.22-14.68-47.8-8a5.8,5.8,0,0,1-1.33.25A3.69,3.69,0,0,1,66.33,37.43Z"/><path class="cls-6" d="M114.32,98.41c7.53-5.72,15.17-11.31,21.21-18.63,1.47,1.12.83,2.41.23,3.62-3.85,7.73-10.53,12.27-18.41,15.39A2.77,2.77,0,0,1,114.32,98.41Z"/><path class="cls-6" d="M136.52,52.08c3.4,4.43,3.86,9.21,1.78,14.29a6.57,6.57,0,0,1-6.39,2.13c-3.28-.61-6.2-1.57-5.76-5.73C132.38,61.77,135,57.38,136.52,52.08Z"/><path class="cls-6" d="M108.66,107.17c3.6-.22,7.43.63,10.43-2.24-.52-.76-1.37-.45-2.08-.6,3.14-1.4,3.69-6,7.89-6.13C124.9,106.88,116.43,111.52,108.66,107.17Z"/><path class="cls-6" d="M126.09,63.1c1.13,2.63,3.28,4.21,5.82,5.4,0,1.1,2.26.07,1.71,1.7-6.14-.24-8.37-4.87-10.92-9.17-.68-3.61-1.62-7.25.18-10.78.86-1.69,1.77-3.47,4.08-3.7l2.15.85C123.52,51.8,124.82,57.45,126.09,63.1Z"/><path class="cls-6" d="M109.73,102.22v0c-1.25-2.67-2.75-5.35.49-7.74l0,0c1.23-.47,2.22-1.56,4.13-1.41-1.58,1.89-3.87,3.47-2.48,6.06,1.31,2.44,3.86,2,6.25,2C115.78,105.22,112.57,102.39,109.73,102.22Z"/><path class="cls-6" d="M126.09,63.1a12.46,12.46,0,0,1-1.84-11.67,5.47,5.47,0,0,1,4.86-4c3.4.16,5.72,2,7.41,4.68C136.51,60,134.05,62.58,126.09,63.1Z"/><path class="cls-6" d="M110.21,94.45c-1.88,2.48-.6,5.14-.49,7.74C107.51,99.47,106,96.79,110.21,94.45Z"/><path class="cls-6" d="M58.85,146.07c4.26-3.94,7.4-4,11.15-.35.81,1.8.42,3.23-1.5,4-2.9,1.18-5.92,1.59-8.79.08C58.22,149,57.65,147.64,58.85,146.07Z"/><path class="cls-6" d="M58.85,146.07c-.49,4.26,2.74,3.35,5.11,3.37,2.73,0,5.78.22,6-3.72,1.57.34,2.83.88,2.74,2.83-.1,2.17-2,2.27-3.36,3a17.3,17.3,0,0,1-9,.55,11.82,11.82,0,0,0-2.61-1.63c-1.24-.39-3.34.39-2.89-2C55.28,146.41,56.6,145.37,58.85,146.07Z"/><path class="cls-6" d="M60.41,152.07c2.91-1.53,6-.87,9-.55C66.54,154.06,63.61,155.07,60.41,152.07Z"/><path class="cls-6" d="M75,165.71l12.86,0-.47,0Q81.17,165.71,75,165.71Z"/><path class="cls-6" d="M51.34,166.54c-.22-.49-.39-1-.91-.95A10.16,10.16,0,0,0,51.34,166.54Z"/><path class="cls-6" d="M123.71,166.58c4-.6,8.9-4.28,12-7.26s7-.88,10.13-5.47,2-5.89,3.91-6.13c.82-.1,2.24-.34,3.6-.57a3.79,3.79,0,0,1-2-1c-.94-1-1.24-.12-1.63.53l-2.56.91c-3.08,3.08-5.47,6.84-9.46,9l-2,.1c-2-1-1.7,1.8-3.1,1.77l-2,.8c-.9-.47-1.46-.11-1.84.71-.11.87,0,1.81-.93,2.39a4.51,4.51,0,0,1-6.28-.28,17.43,17.43,0,0,1-1.61-1.48,7.91,7.91,0,0,1-1.19-2.24c-.28-.8-.17-1.67-.52-2.46-.78-.23-1.66-.29-2-1.21.58-1,.29-1.61-.86-1.84l-.81.88a5.23,5.23,0,0,1,.52,2C115.37,159.3,119.75,167.18,123.71,166.58Z"/><path class="cls-6" d="M57,168.4l0,0H67A12,12,0,0,0,57,168.4Z"/><path class="cls-6" d="M51.34,166.54a6.47,6.47,0,0,0,4.38,1.88h.37a5.91,5.91,0,0,1,.83-1.16,13.42,13.42,0,0,1,10.37-.14c.58.46,1.11.89,1.6,1.32l23,0a12.93,12.93,0,0,0,5-1l-1.08-1c-1.17-1-2.56-.75-3.94-.74H90.3a11.89,11.89,0,0,1-2.46,0l-12.86,0h0q6.19,0,12.39,0l.47,0H90.3a2.87,2.87,0,0,0,1.81-1L90.26,163c-1.69-1.75-3.93-1.42-6-1.44-6.28-.07-12.56.09-18.83-.07-4-.1-8,.85-11.87-.43a14.78,14.78,0,0,1-1.39-.67,7.28,7.28,0,0,0-2.09-.66,1.86,1.86,0,0,0-2.1,1.39,15.15,15.15,0,0,0,2.48,4.43C51,165.49,51.12,166.05,51.34,166.54Z"/><path class="cls-6" d="M75,165.71h0Z"/><path class="cls-6" d="M90.3,165.68H87.84A11.89,11.89,0,0,0,90.3,165.68Z"/><path class="cls-6" d="M57,168.4a12,12,0,0,1,10.05,0h1.88c-.49-.43-1-.86-1.6-1.32a13.42,13.42,0,0,0-10.37.14,5.91,5.91,0,0,0-.83,1.16h.83Z"/><path class="cls-6" d="M67,168.44l.24.11H69l-.13-.12Z"/><path class="cls-6" d="M55,149.67s2.07,4.76,15.21,1.5l-9.22-1Z"/><path class="cls-6" d="M88.33,144.43,95.21,159l6.7-4.78s-8.65-6.59-9.77-11.13C92.14,143.1,87.35,140.06,88.33,144.43Z"/><path class="cls-6" d="M95.75,166.42H54.53v-1.76H92.11C94,163.92,95.71,163.51,95.75,166.42Z"/><path class="cls-6" d="M54.52,164.66s1.11,1.76,4.28,1.76-4.8.89-4.8.89l-2.66-3.2Z"/><path class="cls-23" d="M69.12,107.08c.41-1.52-.62-2.22-1.63-3A37.36,37.36,0,0,1,53,78.22,30.91,30.91,0,0,0,53,69c.49-2,.11-4.28,1.47-6.1,2.33-2.12,2.78-5.55,5.3-7.54,5.81-5.77,12.48-9.95,20.69-11.32,13.46-2.23,24.92,1.58,34.44,11.31,1.12,1,.58,2.66,1.31,3.85.76,3.07,1,6.28,2.44,9.16.86,2.39,2.94,4,4,6.24a15.14,15.14,0,0,1-.1,2.33,91.6,91.6,0,0,1-1.81,9.54c-.13.59-1.27,1.53.26,2,.64-.26,1.21-.6,1.83-.87a3.68,3.68,0,0,1,2.23-.4,1.57,1.57,0,0,1,1.07,1.33,9.83,9.83,0,0,1-6.07,6.25A4,4,0,0,1,118,94a5.48,5.48,0,0,0-3.29-1.78c-7.31,0-9.64,2-11.06,9.9-.51,1.83-1,3.67-2.59,4.94-3.92,2.82-8.72,2.76-13.11,4-.54.49-.79,1.25-1.45,1.64a4.24,4.24,0,0,1-2.81.19,14.19,14.19,0,0,1-1.65-.5,20.47,20.47,0,0,0-5.4-1.41,6.72,6.72,0,0,1-2.4-1.32c-1.18-.84-2.63-1.24-3.68-2.29C70.51,104.84,69.41,108.06,69.12,107.08Z"/><path class="cls-24" d="M135.11,89.13c4.45,1.5,5.76,5.86,8.14,9.18,2.11,2.92,3.5,6.33,7.28,7.73,1.52.56,2.13,2.15,2.39,3.74.81,4.94,3.57,9.34,1.5,15-1.16,3.21.94,7.62,1.09,11.56.18,4.64-1.44,8.19-5.46,10.58a1.31,1.31,0,0,1-1.94.88c-.94-.38-1.75-.92-1.12-2.16,6.95-4.46,6-10.94,4.55-17.61-5.5,2.65-5.37,2.65-5.24,8.23.09,3.6.74,7.28-.71,10.8-.69.66-1.38,1.28-2.37.51-1.39-2.13-.74-4.51-.88-6.79a49.07,49.07,0,0,0-.84-10.47c-.32-2.09-1.12-2.74-3.07-1.66a27.63,27.63,0,0,1-4.66,2c-1.74.82-3.7.59-5.5,1.07,1.34-.29,2.39-.25,2,1.62-4.23,3.6-4.23,3.6.47,10,2.05,2,2.31,5.08,4.66,7.18,1.61,1.44.8,4.43-1.33,6.17a2,2,0,0,1-1.79-.27c-1.51-2,0-4.8-1.52-6.52-.31-.82-.89.07-.42-.25.15-.1.24,0,.35.17,1.36,2.76.74,5.45-.22,8.15a2.2,2.2,0,0,1-2.14,1.08c-1.24-3.27-3.7-3.35-6.52-2.47a23.18,23.18,0,0,1-5.46-.13c-.92-.33-1.86-.64-1.75-1.9,2.37-1.75,5.18-1.72,7.92-2,1.57-.17,4.33.68,4.31-1.22,0-2.39-2.83-1.29-4.49-1.5a6.6,6.6,0,0,0-2.47.43c-2.06.43-4.55,0-5.39,2.83-.38.52-.82.9-1.53.58-1.15-1.16-1-2.77-1.52-4.17a6.6,6.6,0,0,1,0-2.62c.57-1.24.26-3.13,2.34-3.3,2.34,5.37,6.71,2.68,10.42,2.6.78-.34,2.2,0,2-1.48s-1.47-.77-2.34-.87c-3.2-.34-6.36,1.56-9.57.15-1.11-.79-.44-1.37.23-1.95,2.39-1.79,5.47-1.05,8.56-2.39-1.94-1.46-3.54-1.79-5.26-.28a24.37,24.37,0,0,1-3.27,2.64c-.87.52-1.48.2-1.91-.63a3.44,3.44,0,0,1,.56-2.74c1.65-2.63,1.21-4.93-.92-7s-3.93-2-6.06.07a17.59,17.59,0,0,1-5.8,4c-1.79.7-3.25,1.48-3,3.81a1.89,1.89,0,0,1-1.44,1.85c-2.08-.29-2.67-1.74-2.79-3.56-.28-4,3.18-4.45,6-6a11.4,11.4,0,0,1-4.08-4.61c-1.06-1.89-2.71-1.87-4.38-1-1.9,1-.84,2.35-.32,3.61,1,2.57,3,4.8,2.74,7.85-1.4,2.29-2.51.14-3.49-.4s-1.43-1.94-1.94-3.06c-3.38-5.55-3.18-11.16-.31-16.82a2.05,2.05,0,0,1,1.74-.44c2.6,1.52,4.94-.15,7.38-.62,5-.82,9.62-3.42,14.88-2.52a1.71,1.71,0,0,1,.28,1.83c-3.08,2.9-7.23,2.73-10.94,3.81s-7.61,1.1-10.23,3.09c.4-.72,2-.64,3.27-1,4.3-1.27,8.75-1.92,13.07-3.12,1.45-.41,3.08-.49,4.09-1.89.83-.49,1.61-1.58,2.61-.24a5.09,5.09,0,0,1-.37,4.88c-2.1,3.6-1.31,6.32,2.11,8.47,4,6.06,4.68,6,9-.29,2.1-3.08,2.75-6.72,4.37-10a2,2,0,0,1,.91-.66,11.65,11.65,0,0,0,5.59-2.05c1.89-1,1.44-2.41.71-3.92a31.71,31.71,0,0,0-6.1-9c-1.36-1.35-3.07-2.5-3.42-4.62a1.87,1.87,0,0,1,1-1.42,2.9,2.9,0,0,1,2.3.5c2.59,1.53,4.06,4.14,6,6.29,2.25,3.12,4.49,2.58,6.83-1.65a52.36,52.36,0,0,0-7-10.31,4.18,4.18,0,0,1-.88-1.58A1.71,1.71,0,0,1,135.11,89.13Z"/><path class="cls-25" d="M112.05,149.42c1.6,1.07.72,2.79,1.1,4.17l-.27.19c-4,2-5.93,6.07-9.28,8.69-2.12,1.65-3.35,4.59-6.64,4.55a2.54,2.54,0,0,1-1.42-1c-.57-1.41-1.78-1.73-3.12-1.87-.91-.45-1.82-.9-1.57-2.18,1.6-1.6,1.68-3.36.71-5.34-3.3-6.78-5.67-14-9.38-20.56a7.41,7.41,0,0,0-2.46-2A3.92,3.92,0,0,1,78.59,133a2.11,2.11,0,0,1-.29-2c4.35-2.22,2.72-6.13,2.73-9.59,0-3.07-2.49-2-4-2.4-5-1.33-8.09-6-7.89-11.94.68-.55,1.5-2,1.7.29,1.84,2,1.75,5.08,4,6.83,5,3.36,8.56,2.64,12.48-2.53.93-1.25,2-1.23,3.1-.26,1.05,1.82-.36,3.36-.57,5a1.31,1.31,0,0,1-.73.83l-1.6,0c-4.43,4.22-4.71,9.83-.71,14.36a11.13,11.13,0,0,1,1.55,2.49c2.44,2.88,2.44,2.88,4.46,3.27a.42.42,0,0,1,.68,0c.64,1.33,1.06,2.81,2.52,3.55,1,1.67,0,3.77,1.17,5.4,3.22,3.39,4.09,3.23,7.47.25,2.52-2.21,4.69-5.15,8.42-5.6a1.87,1.87,0,0,0,1.84.73l-.06-.06c-.26.68-.53,1.35-.79,2l0-.06c-1.64.51-.51,2.72-2,3.31-3.35,5.48-8.93,8.93-13,14.64,3.5-3.68,6.2-7.26,9.54-10.21C109.59,150.51,110.3,149,112.05,149.42Z"/><path class="cls-26" d="M59.62,56.47c-2.11,1.83-1.24,6-5.13,6.44C58.2,45.91,75.92,33,94.36,33.84A38.33,38.33,0,0,1,123,47.76c1,1.17,1.84,2.51,3.55,2.75,0,1.43-1.22,1.42-2.15,1.74a8.09,8.09,0,0,0-6.72,4.8c-.38.83-.7,1.86-2,1.8-1.07-.53-.12-1.82-.94-2.45-1.14-4.1-4.83-5.7-7.93-7.67C91.2,38.77,68.77,42.88,59.62,56.47Z"/><path class="cls-10" d="M111.33,115.59l0-1.79c-3.24,0-6-2.32-9.26-2a2.73,2.73,0,0,1-2.12-1.84c-.34-1.23,1.64-2.19.43-3.53,1.47-1.08,1.45-2.95,2.29-4.36.83.32,1,1.08,1.33,1.79a9,9,0,0,0,4.61,5.23c6,2.6,10,1,13-5.87-2.77,1.43-3.9,4.28-6.58,4.76-2.19.27-4.43.68-5.56-2,1.15-2.38,3.34-.15,4.61-1.17-3.17-.89-5.33-2.58-3.81-6.54.32-.83-.87-1-.86-1.74,2-3.49,5.61-2.55,8.71-3a1.88,1.88,0,0,1,1.72.82c.45,1.87-1.32,2.14-2.21,3s-2.82,1.33-2.88,3.17c7.92-1.48,15.81-8.63,16.89-15.26-2.73-.1-3,3.78-5.73,3.58l-1.11-1.3c.25-3.45,4-5.43,3.8-9.06a6.35,6.35,0,0,1,.56-2.1,6.28,6.28,0,0,0,.53-1.36c-.08-.74-1.19-1.33-.36-2.21a25.92,25.92,0,0,1,5.38-1.64c.68.1,1,.59,1.19,1.16a11.94,11.94,0,0,1-2.78,4.08c-1.64,1.86-3.57,3.71.38,5.54,3.19,1.48.95,4.79,1.65,7.16,0,.54,0,1.09,0,1.63-2.72,2-4,5.72-7.55,6.79l-1.11,1.13c-.24,7.16-2.79,12.83-10,15.45-1.35.48-1.68,2.3-3.23,2.55-.37-1-1-.5-1.57-.26-.31-.1-.45-.26-.43-.47S111.25,115.59,111.33,115.59Z"/><path class="cls-27" d="M53.72,159.63l-1.5.81C49,153.63,45.59,146.87,42.43,140c-1.91-4.16-.37-6.84,4.32-7.24,6.86-.58,13.75-.81,20.63-1.18L78.3,131l.76,1.77a15.89,15.89,0,0,1-7.75,1.63c-7.07-.18-14,1.22-21.11,1-5.37-.14-6.21,1.29-3.81,6s4.16,9.58,6.6,14.2C53.62,156.84,54.44,158.12,53.72,159.63Z"/><path class="cls-28" d="M135.86,72.35l-.86-1c-.91-4.11.9-8.67-2.08-12.42a10.75,10.75,0,0,0-6.17-4.54,9.43,9.43,0,0,1-2-1.09,2.11,2.11,0,0,1-.89-2c.91-.23,2,.06,2.71-.77C136.32,54.74,140.43,64.36,135.86,72.35Z"/><path d="M53,69a13.15,13.15,0,0,1,0,9.21Q53,73.62,53,69Z"/><path class="cls-29" d="M109.65,69.06c2.47-1.64,2.94-3.77,2-6.56-.47-1.39-.25-3-.36-4.86,2.68.73,2.66,2.54,2.58,4.32a13.36,13.36,0,0,0,2.63,9.14c4.22,5.35,2.53,10.83.71,16.38-.49,1.47-1.47,1.17-2.68,1.12-8-.35-13.94,5-14.12,12.88-.06,2.66-1.14,3.84-3.51,4.36-8.21,1.8-10.4,3.23-19.88.85,12.62-3.43,22.37-10.22,29.18-21.08a35.45,35.45,0,0,0,3.55-8.08c.5-1.58.87-3.27,2.47-4.23A6.28,6.28,0,0,0,109.65,69.06Z"/><path class="cls-30" d="M85.9,51.47c-24,17.81-25.54,22.34-15.6,44-9.75-3.16-12.21-15-10.4-25.65C61.59,59.82,73.87,51.22,85.9,51.47Z"/><path class="cls-11" d="M59.62,56.47c-.83-2.58,1.19-3.83,2.64-5.14,13.85-12.55,38.37-11.92,51.56,1.23,1.12,1.12,2.44,2.11,1,3.84-6.29-5.75-13.14-10.27-21.9-11.49C81.08,43.27,71,46.42,62.27,54.47A30.63,30.63,0,0,1,59.62,56.47Z"/><path class="cls-31" d="M108.83,105.05c1.69,2.45,4.16,2.29,6.67,2,.93-.4,2-.78,2.54.36.37.84-.54,1.5-1.25,1.92-2.89,1.76-5.91,1.34-8.94.4a8.18,8.18,0,0,1-4.6-5.06c.21-9.42,3.41-12.84,12.44-13.31.88.63,2.57.38,2.39,2.18-1.59,1-3.14,1.92-5.23,1.68-1.71-.2-3.25.43-3.55,2.5a3.33,3.33,0,0,1-.36,1.06c-1.13,1.73-.79,3.46,0,5.19A1.55,1.55,0,0,1,108.83,105.05Z"/><path class="cls-30" d="M109.87,63.56c-.13,2.63-1.55,4.43-4.67,4.43s-5.74-3-5.71-6.14,1.52-4.75,4.65-4.73S109.86,59.9,109.87,63.56Z"/><path class="cls-32" d="M123.83,51.28l.78,1.45c-3.89,4-3.64,8.88-3.18,13.85-.67,1.49-1.41,2.89-3.44,2.48-2.17-3.09-2.37-6.62-2.28-10.21C117.09,54.9,119.24,51.78,123.83,51.28Z"/><path class="cls-33" d="M118,69.06a4.46,4.46,0,0,0,2.73-2.72c1.24-.2,1.83.71,2.18,1.57,1.49,3.62,4.68,5.29,7.81,7l-.77,1.45c-3,2.08-5.58,1.62-7.58-1.52C120.73,73.08,118.61,71.63,118,69.06Z"/><path class="cls-34" d="M87.63,112.12c-2.55,5.83-8.4,6.95-13.62,2.62,1-1.32,2.71-1,4-1.59a31.15,31.15,0,0,1,5.52-.73l3.2-.37A.53.53,0,0,1,87.63,112.12Z"/><path class="cls-35" d="M125.87,88.86c1.18-1.38,2.38-2.75,3.55-4.15.84-1,1.65-2,3.05-.75-4.36,8.19-11.35,13.45-19.43,17.51-1.54-1.69.28-2.1,1.11-2.78,1.85-1.5,3.76-2.91,5.65-4.35A22.84,22.84,0,0,0,125.87,88.86Z"/><path class="cls-11" d="M121.48,89.29c-.85.26-.72,2.06-2.14,1.41s-.67-1.59-.3-2.43c1.64-3.73,1.93-7.74,2.46-11.7,2.65-.94,3.37.85,3.23,2.74C124.48,82.86,124.31,86.54,121.48,89.29Z"/><path class="cls-33" d="M129.14,78.15c1.21,4.38-2.69,6.38-4.38,9.41l-1.39.84c-.71-3.25.62-6.28,1.28-9.32C125.18,76.65,127.37,77.3,129.14,78.15Z"/><path class="cls-9" d="M115.69,91.34c-7.77,1-11.78,5.61-12.44,13.31l-.6-2.63C103.46,93.7,107.66,90.25,115.69,91.34Z"/><path class="cls-31" d="M78.28,113.91c-1.21,1.42-2.84.61-4.27.83-2.52-1.83-2.84-4.6-3.19-7.37,1.69-.57,2.66.8,3.89,1.45C75.21,111,78,111.58,78.28,113.91Z"/><path class="cls-11" d="M100.36,106.38c.85-.08,1.71,0,1.91,1,.33,1.62-1.63,1-2,2-1.21,1.8-3,2.24-5,2.28a30.76,30.76,0,0,1-9.24-1.3C90.72,108.9,96,109.2,100.36,106.38Z"/><path class="cls-27" d="M129.14,78.15c-2.79-.2-4.57.37-4.39,3.89.1,2.09-.89,4.24-1.38,6.36l-1.89.89c.69-3,1.34-6.1,2.1-9.14.49-1.94.11-3.25-2.08-3.58a1.86,1.86,0,0,1,.86-1.68,11,11,0,0,0,7.58,1.52Z"/><path class="cls-24" d="M85.94,110.33c4.79.1,9.63.79,14.29-1l1.77,1.72c-3.62,3.11-7.6,3-11.76,1.36-.73-1.27-1.6-1.42-2.61-.31l-.85-.07Z"/><path class="cls-36" d="M109.65,69.06c3.08.07,4.67,1,2.57,4.24C109.31,73.13,108.09,71.94,109.65,69.06Z"/><path class="cls-37" d="M78.28,113.91c-1.82-1.26-3.8-2.4-3.57-5.09l1.77,1.68c1.92.35,3.7,1.64,5.79.89.44.34.88.68,1.31,1C82.18,114.22,80.18,113.89,78.28,113.91Z"/><path class="cls-38" d="M82.27,111.39c-2.24,1.72-4.11,1.06-5.79-.89C78.7,108.88,80.31,111.28,82.27,111.39Z"/><path class="cls-39" d="M113.17,116.68a6.23,6.23,0,0,1,4.17-4.31c4.92-1.72,7.43-5.57,7.69-10.84,0-1.11-.65-2.69,1.4-2.85a46,46,0,0,1,10.58,14c1.3,2.6,1.15,4-1.72,4.81-3-.2-3-3.29-4.62-4.85-.89-.88-1.6-2.28-2.93-2.07s-1.08,1.79-1.4,2.8a41.36,41.36,0,0,1-7.07,13.7c-1.17,1.44-2.15,3.41-4.61,3-4.64-2.13-5.07-5.27-2.47-9.4C112.87,119.53,112.86,118,113.17,116.68Z"/><path class="cls-39" d="M129.76,143.71c-1.3-1.93-3-3.72-3.8-5.84-1.41-3.56,2-3.58,4-4.57,1.3-1,3.41-1.11,3.41-3.39l8.21-3.69c1.13,4.62,2.33,9.12,1.84,13.89-.44,3-2.52,4.19-5.11,3.41A15.24,15.24,0,0,0,129.76,143.71Z"/><path class="cls-33" d="M114.66,130c6.22-4.59,9.11-11.29,10.92-18.38,1.06-4.13,2.69-3.19,4.53-1.2a70.86,70.86,0,0,1,5.18,7c-1.68.73-3,2.86-5.27,1.45-.47-1.82,1.06-3.63,0-5.83,0-.18-.39.8.06.46.79,2,0,3.72-.88,5.45a28.58,28.58,0,0,1-5.93,13.33c-3.36,4.4-4.86,4.27-7.51-.54C115.41,131.18,115,130.6,114.66,130Z"/><path class="cls-33" d="M147,146.32l-1.5.5c-.18-4.91.35-9.85-.85-14.7-.44-1.79,0-2.7,2.09-3.15s3.72-1.73,5.62-2.66C155,139.77,154.14,142.85,147,146.32Z"/><path class="cls-40" d="M113,141c-2.62,3.21-6.52,4.88-9.33,8.1-2.47,2.83-5.52.41-7.51-2.25a7.52,7.52,0,0,0,4.62-5.51,7,7,0,0,1,3.76-4.89c3.08-1.47,5.66-3.66,8.42-5.59C117.35,134.24,115,137.63,113,141Z"/><path class="cls-41" d="M113,130.88c-.83,3.75-4.33,4.5-7,6s-4.42,3.4-4.52,6.13c-.14,3.92-2.18,4.39-5.25,3.9C94.54,145,95.26,143,96,141c.28-.31.85-.79.78-.91-2.52-4.39,1.18-4.24,3.63-5.38a15.64,15.64,0,0,0,5.68-4.13C108.81,127,110.8,128.61,113,130.88Z"/><path class="cls-33" d="M129.76,143.71c2-2.38,4.14-3.33,7.26-1.54,2.49,1.43,4.88.6,6.35-2.06a19.83,19.83,0,0,1-.27,7.56c-1.59,4.15-3.91,7.56-8.66,8.49.2-2.08,1.1-4.1.48-6.28-1.3-.15-.36,1.34-1.21,1.62A25.92,25.92,0,0,0,129.76,143.71Z"/><path class="cls-42" d="M136,91.8a36.14,36.14,0,0,1,7.56,11.06c-2.35,3.12-5.25,3.62-8.64,1.82l-5.68-6.15A8.81,8.81,0,0,1,136,91.8Z"/><path class="cls-39" d="M93.46,137.42l-.34.06-.34-.06c-1.41-3-2.77-6.1-4.25-9.09-.88-1.78-1.24-2.79,1.37-3.48,3.36-.88,5.82-1.18,6.74,3.07.53,2.49,2.87,2.77,5,3.16C99.85,134.48,94.2,132.79,93.46,137.42Z"/><path class="cls-33" d="M90.24,112.43c4-.15,7.93-.15,11.76-1.35,3.78-1.42,6.16,2,9.31,2.72l-15.25,3.39c-2.28-.38-4.76,1-6.9-.74C87.91,114.68,90.25,113.87,90.24,112.43Z"/><path class="cls-39" d="M144.19,119.93c-3-5.81-3-5.81,1.49-8.53,5.26-3.21,5.26-3.21,6.42,3.19C152.31,119.6,149.48,121.51,144.19,119.93Z"/><path class="cls-33" d="M144.19,119.93c3.53-.45,7.46-.33,7.91-5.34,2.42,7,1.42,9.51-4.83,12.24-1.08.47-2.27,1-3.17.27a2.26,2.26,0,0,1-.16-3.08C144.89,122.68,144.32,121.31,144.19,119.93Z"/><path class="cls-39" d="M111.33,115.59l.27.83a2.8,2.8,0,0,1-2.47,2.44c-6.76,1.56-13.51,3.2-20.5,4.86.1-3.16,2.49-3.29,4.34-3.76C99.07,118.42,105.21,117,111.33,115.59Z"/><path class="cls-33" d="M141,118.09c2.62,3.47,1.35,5.69-2.23,7.35a38.71,38.71,0,0,1-11.68,3.74c1.94-2.8.7-6.61,4.6-7.64C136.26,123.61,136.5,123.52,141,118.09Z"/><path class="cls-39" d="M88.32,134.15a4.26,4.26,0,0,0-.94-.73c-6.46-2.57-4-8.33-4.38-12.89-.21-2.47,2.67-2.53,4.48-3.23.12.55.53,1.26.33,1.6C84.73,124.12,86.89,129.12,88.32,134.15Z"/><path class="cls-39" d="M106,121.7c-.71,1.82-2.3,3.5-.79,5.69a1.4,1.4,0,0,1-1.09,2.21c-2,.12-4.28.1-5.77-1.57-2.47-2.76-1.78-4.86,1.84-5.55C102,122.11,103.84,121,106,121.7Z"/><path class="cls-39" d="M114,143.72c3.6-.52,7.19-1.26,10.86-1,1.33,1.41,1.06,2.82,0,4.23-3,1.33-6.34,1-9.45,1.13s-1-2.84-1.37-4.39Z"/><path class="cls-39" d="M114.78,154.37l-.78-1.73c-.43-5.28,3.74-2.33,5.76-3.22a2.88,2.88,0,0,1,2-.36c1.17.12,2.77-.6,3.36.91.69,1.76-.45,2.87-2,3.6C120.35,153.67,117.64,154.76,114.78,154.37Z"/><path class="cls-43" d="M112.05,149.42,97.41,163.87c0-2.9,8.91-13,14.64-16.9Z"/><path class="cls-33" d="M128,158.67l-1.55.83c-2.89,2-6,1.68-9.06.69l-1-2.21c1.62-1.71,4.22-1.07,6-2.47.68-.17,1.38-.31,2-.52C127.93,153.91,129,155.23,128,158.67Z"/><path class="cls-44" d="M141,118.09c-.42,3.75-2.5,5.82-6.28,6-1.69.08-3.13-.39-3-2.56l6.6-3.49C139.2,117.57,140.12,116.49,141,118.09Z"/><path class="cls-45" d="M148.9,107.51l-9.37,6c-.26-1.4-2.76-2.88-.16-4C142.25,108.2,144.57,103.56,148.9,107.51Z"/><path class="cls-39" d="M114.88,141.75c.71-2.66,2.45-4.52,5.12-4.73,2.3-.18,4.13,1.17,5.25,3.66-3.65.48-7,1.45-10.43,1Z"/><path class="cls-33" d="M123.16,153.57c2.12-4,2.12-4-3.4-4.15,1.89-1.21,4-.63,6-.84,1.83-.19,2.83.27,3,2.28.23,2.22-1.16,2.52-2.78,2.64C125.09,153.57,124.12,153.55,123.16,153.57Z"/><path class="cls-33" d="M134.88,104.68c3,0,6,0,8.64-1.82,0,1.73-.17,1.49-2.9,3.59C137.55,108.82,135.85,108.35,134.88,104.68Z"/><path class="cls-33" d="M133.32,129.91c.3,1,2,1.86,1.21,2.8-1.14,1.42-3.05.41-4.62.59-1.46-2.74-3,.87-5-.58C127.22,130.14,130.59,130.79,133.32,129.91Z"/><path class="cls-33" d="M136,91.8a32,32,0,0,0-6.76,6.73l-1.66-1c1.7-2,3.45-3.94,5.1-6a1.88,1.88,0,0,1,2.45-.81Z"/><path class="cls-46" d="M132.62,156.25c-1.09.32-1.05,2.56-2.85,1.66a24.73,24.73,0,0,0,.09-10.29C132.65,150.57,132.51,153.45,132.62,156.25Z"/><path class="cls-47" d="M122.31,155.51c-1.25,2.63-3.58,2.64-6,2.47-1.28-1-.75-1.76.29-2.48Z"/><path class="cls-48" d="M89.16,116.45c2.3.21,4.74-.82,6.9.74-2.32.37-4.61,3.33-7,.09C89.11,117,89.14,116.73,89.16,116.45Z"/><path class="cls-33" d="M124.9,146.92c0-1.41,0-2.82,0-4.23,3.31-1.14,2.81,2.12,2.91,3.21C128,147.77,125.92,146.56,124.9,146.92Z"/><path class="cls-49" d="M129.19,119l1.07-7.22c.91,3,.73,5.09-.24,7.14Z"/><path class="cls-50" d="M126.24,162.09c-2.65,2.08-5.22,3.39-7.22-.74,1.92-1.49,4.27-.82,6.4-1.18C126.52,160,127.61,160.74,126.24,162.09Z"/><path class="cls-23" d="M126.24,162.09c.49-1.61-.53-1.44-1.55-1.33-1.89.21-3.78.39-5.67.59-.78-.07-1.47-.27-1.68-1.16l9.06-.69C127.54,160.43,127.92,161.32,126.24,162.09Z"/><path class="cls-51" d="M80,133.47a3.27,3.27,0,0,1,2.53,1.65,4,4,0,0,1,.35,3.62c-3.1,10.41-9.07,18.25-19.7,21.91a13.09,13.09,0,0,1-7.86,0l.1-.11c-4.14-6.59-7-13.83-10.23-20.85-1.29-2.78-.08-4.48,3.27-4.59,4.78-.15,9.55-.55,14.31-.72C68.48,134.18,74.19,133.33,80,133.47Z"/><path class="cls-52" d="M55.28,160.66c14.71-.18,24.52-11.24,27.21-25.54,4.86,7.57,7.56,16.15,11.17,24.31,1,2.16-1.22,2.36-2.66,2.78l-29.81-.15C59.11,162.05,57,162.24,55.28,160.66Z"/><path class="cls-53" d="M80,133.47c-3.15,1.35-6.61,1.45-9.82,1.43-7.06-.05-14,1.27-21.06,1.07-3.86-.1-4.4,1-2.76,4.64l9.06,19.94-1.66-.92c-3.09-6.56-6.21-13.1-9.28-19.66-1.75-3.75-1-5.23,3.11-5.48,10.5-.66,21-1.15,31.51-1.71Z"/><path class="cls-54" d="M96.08,154.6c1.69-1.33,3.56-.93,5.59-.67-.9,2.37-3.25,3.09-4.66,4.72-.18.2-1-.14-1.48-.23.07-.38,0-1,.23-1.1,3.12-1.49-2.23-.84-.48-1.94A1.34,1.34,0,0,1,96.08,154.6Z"/><path class="cls-55" d="M83.6,132.8c3.61,1.41,4.73,4.71,6.14,7.8C85.78,139.55,86.37,134.81,83.6,132.8Z"/><path class="cls-56" d="M94.41,149.33c-2.64,1.65-3.45.77-3.64-4a3,3,0,0,1,2-1.87q.8,3,1.61,5.94Z"/><path class="cls-57" d="M96.08,154.6l-.8.78c-2.58-.37-2-1.75-1-3.25,1.05-1.16,2.19-.91,3.35-.22C97.12,152.83,95.51,153.1,96.08,154.6Z"/><path class="cls-54" d="M92.72,143.47c-.07,1.23-.86,1.71-2,1.87-1.35-.1-1.86-1.43-1.35-2C90.25,142.37,91.63,142.66,92.72,143.47Z"/><path class="cls-58" d="M97.59,151.91l-3.35.22c-1.92-1,1.2-1.8.17-2.8l-.08.08C95.59,150,97.42,149.89,97.59,151.91Z"/><path class="cls-59" d="M69.07,44.16c14.32-12.56,37.37-11.24,50.44,2.53.69.73,3.13,2.11.76,3.4-1.55.84-2.48,4.1-5.42,1.5-13-11.54-27.69-13.8-43.79-7.48a6.22,6.22,0,0,1-1.23.23A3.32,3.32,0,0,1,69.07,44.16Z"/><path class="cls-60" d="M113,101.47c6.89-5.38,13.89-10.63,19.43-17.51,1.34,1.06.76,2.27.2,3.41-3.52,7.26-9.64,11.52-16.86,14.45A2.45,2.45,0,0,1,113,101.47Z"/><path class="cls-33" d="M133.38,57.93A13,13,0,0,1,135,71.36a5.91,5.91,0,0,1-5.85,2c-3-.58-5.68-1.47-5.28-5.39C129.58,67,131.94,62.91,133.38,57.93Z"/><path class="cls-34" d="M107.85,109.71c3.3-.21,6.81.58,9.56-2.12-.48-.71-1.26-.42-1.91-.56,2.88-1.31,3.38-5.63,7.23-5.75C122.73,109.43,115,113.79,107.85,109.71Z"/><path class="cls-61" d="M123.82,68.29a10,10,0,0,0,5.33,5.07c0,1,2.07.06,1.56,1.6-5.61-.22-7.66-4.58-10-8.62-.63-3.39-1.49-6.81.16-10.13.79-1.59,1.62-3.26,3.73-3.48l2,.8C121.47,57.66,122.66,63,123.82,68.29Z"/><path class="cls-62" d="M108.83,105.05v0c-1.15-2.5-2.51-5,.45-7.28l0,0c1.13-.44,2-1.47,3.79-1.32-1.45,1.77-3.55,3.26-2.28,5.69s3.55,1.85,5.74,1.91C114.37,107.87,111.43,105.21,108.83,105.05Z"/><path class="cls-39" d="M123.82,68.29a12,12,0,0,1-1.69-11,5.06,5.06,0,0,1,4.46-3.79c3.11.15,5.23,1.84,6.79,4.4C133.36,65.35,131.11,67.8,123.82,68.29Z"/><path class="cls-10" d="M109.27,97.74c-1.72,2.33-.55,4.84-.45,7.28C106.8,102.46,105.44,99.94,109.27,97.74Z"/><path class="cls-63" d="M62.21,146.26c3.9-3.7,6.79-3.79,10.22-.33.74,1.69.38,3-1.37,3.76-2.66,1.11-5.43,1.49-8.06.07A2.15,2.15,0,0,1,62.21,146.26Z"/><path class="cls-64" d="M62.21,146.26c-.45,4,2.52,3.15,4.68,3.16,2.51,0,5.3.22,5.54-3.49,1.44.32,2.59.83,2.51,2.66-.09,2-1.81,2.13-3.08,2.79a15.49,15.49,0,0,1-8.21.52,10.91,10.91,0,0,0-2.4-1.53c-1.14-.37-3,.37-2.65-1.89C58.94,146.58,60.15,145.6,62.21,146.26Z"/><path class="cls-37" d="M63.65,151.9c2.65-1.44,5.44-.82,8.21-.52C69.26,153.77,66.57,154.72,63.65,151.9Z"/><path class="cls-1" d="M77,164.71q5.9,0,11.78,0h-.42C84.56,164.71,80.78,164.71,77,164.71Z"/><path class="cls-1" d="M55.33,165.49c-.2-.45-.35-1-.83-.89A9.94,9.94,0,0,0,55.33,165.49Z"/><path class="cls-65" d="M121.64,165.54c3.63-.57,8.15-4,11-6.83s6.43-.83,9.28-5.14,1.79-5.53,3.58-5.76c.75-.1,2.05-.32,3.3-.54a3.36,3.36,0,0,1-1.83-1c-.87-.95-1.15-.11-1.5.5l-2.35.85c-2.82,2.9-5,6.44-8.66,8.49l-1.82.09c-1.81-.91-1.56,1.69-2.85,1.66l-1.82.76c-.82-.44-1.34-.11-1.68.66-.11.82,0,1.71-.86,2.25a4,4,0,0,1-5.75-.27,14.94,14.94,0,0,1-1.48-1.39,7.62,7.62,0,0,1-1.09-2.1c-.25-.75-.15-1.58-.47-2.32-.71-.21-1.52-.27-1.84-1.13.54-.94.27-1.51-.78-1.73-.25.27-.5.55-.74.83a5,5,0,0,1,.48,1.91C114,158.7,118,166.1,121.64,165.54Z"/><path class="cls-23" d="M60.49,167.24l0,0,9.24,0A10.67,10.67,0,0,0,60.49,167.24Z"/><path class="cls-66" d="M55.33,165.49a5.88,5.88,0,0,0,4,1.77h.33a5.69,5.69,0,0,1,.77-1.09A12,12,0,0,1,70,166c.53.43,1,.84,1.46,1.25l21,0a11.71,11.71,0,0,0,4.56-.93l-1-1c-1.07-.95-2.34-.7-3.61-.69H91a10,10,0,0,1-2.26,0q-5.88,0-11.78,0h0c3.79,0,7.57,0,11.36,0H91a2.64,2.64,0,0,0,1.66-1L91,162.21c-1.56-1.64-3.61-1.33-5.54-1.36-5.75-.06-11.5.09-17.25-.06-3.62-.09-7.28.8-10.87-.41a12.56,12.56,0,0,1-1.28-.62,6.13,6.13,0,0,0-1.91-.63,1.72,1.72,0,0,0-1.93,1.31,14.47,14.47,0,0,0,2.28,4.16C55,164.51,55.13,165,55.33,165.49Z"/><path class="cls-66" d="M77,164.71h0Z"/><path class="cls-66" d="M91,164.69H88.77A10,10,0,0,0,91,164.69Z"/><path class="cls-66" d="M60.49,167.24a10.67,10.67,0,0,1,9.2,0h1.72c-.45-.41-.93-.82-1.46-1.25a12,12,0,0,0-9.5.14,5.69,5.69,0,0,0-.77,1.09h.77Z"/><path class="cls-67" d="M69.69,167.29l.22.1h1.62l-.12-.11Z"/><path class="cls-64" d="M58.67,149.64s1.89,4.48,13.93,1.41l-8.44-1Z"/><path class="cls-54" d="M89.22,144.71l6.31,13.71,6.14-4.49s-7.93-6.19-9-10.46C92.72,143.47,88.33,140.61,89.22,144.71Z"/><path class="cls-64" d="M96,165.38H58.25v-1.65H92.69C94.41,163,96,162.65,96,165.38Z"/><path class="cls-66" d="M58.24,163.73s1,1.65,3.92,1.65-4.39.84-4.39.84l-2.44-3Z"/><path class="cls-68" d="M66.89,104.56c.45-1.62-.68-2.36-1.78-3.2a39.49,39.49,0,0,1-15.78-27.5,32.27,32.27,0,0,0,0-9.81c.53-2.16.12-4.55,1.6-6.48,2.54-2.26,3-5.92,5.79-8,6.34-6.13,13.61-10.58,22.58-12,14.69-2.37,27.2,1.69,37.59,12,1.22,1.11.63,2.83,1.43,4.09.83,3.27,1,6.69,2.66,9.75,1,2.54,3.21,4.26,4.41,6.65a14.55,14.55,0,0,1-.11,2.47,95.18,95.18,0,0,1-2,10.15c-.14.63-1.39,1.63.29,2.1.69-.27,1.32-.64,2-.93a4.09,4.09,0,0,1,2.43-.42,1.67,1.67,0,0,1,1.17,1.41,10.59,10.59,0,0,1-6.63,6.65,4.35,4.35,0,0,1-2.36-.86,6.11,6.11,0,0,0-3.59-1.9c-8,0-10.53,2.16-12.08,10.54-.56,2-1.09,3.91-2.82,5.26-4.28,3-9.53,2.94-14.32,4.29-.58.52-.85,1.33-1.58,1.74a4.79,4.79,0,0,1-3.06.21c-.61-.14-1.21-.34-1.8-.53a22.66,22.66,0,0,0-5.9-1.51,7.12,7.12,0,0,1-2.61-1.41c-1.29-.88-2.88-1.32-4-2.43C68.41,102.18,67.21,105.61,66.89,104.56Z"/><path class="cls-68" d="M138.91,85.46c4.86,1.6,6.3,6.24,8.89,9.77,2.3,3.11,3.82,6.74,7.94,8.22,1.67.61,2.33,2.29,2.62,4,.88,5.25,3.89,9.94,1.64,16-1.28,3.41,1,8.1,1.18,12.3.2,4.94-1.57,8.71-6,11.25a1.43,1.43,0,0,1-2.11.94c-1-.4-1.92-1-1.23-2.29,7.59-4.75,6.54-11.64,5-18.74-6,2.82-5.87,2.81-5.72,8.75.09,3.83.8,7.75-.78,11.49-.75.71-1.5,1.37-2.59.55-1.51-2.26-.8-4.8-.95-7.23a50.26,50.26,0,0,0-.93-11.14c-.34-2.22-1.21-2.91-3.34-1.76a30.5,30.5,0,0,1-5.09,2.07c-1.9.87-4,.62-6,1.14,1.47-.31,2.61-.27,2.2,1.72-4.61,3.83-4.61,3.83.52,10.61,2.23,2.16,2.52,5.4,5.09,7.63,1.76,1.53.86,4.72-1.46,6.56a2.18,2.18,0,0,1-2-.28c-1.65-2.17,0-5.11-1.66-6.94-.34-.87-1,.08-.46-.26.16-.11.27,0,.38.18,1.49,2.93.81,5.8-.24,8.67a2.39,2.39,0,0,1-2.33,1.14c-1.36-3.47-4-3.55-7.12-2.62a25.29,25.29,0,0,1-6-.14c-1-.35-2-.67-1.91-2,2.59-1.87,5.66-1.83,8.65-2.11,1.71-.19,4.72.71,4.7-1.3,0-2.55-3.09-1.38-4.9-1.6a7.4,7.4,0,0,0-2.7.45c-2.25.47-5,0-5.88,3-.42.56-.9,1-1.67.62-1.26-1.23-1.14-2.94-1.66-4.44a7,7,0,0,1,0-2.78c.62-1.33.28-3.33,2.56-3.52,2.56,5.72,7.33,2.86,11.37,2.78.85-.37,2.4,0,2.15-1.58s-1.61-.82-2.55-.93c-3.49-.36-7,1.67-10.45.16-1.21-.84-.48-1.46.25-2.07,2.61-1.91,6-1.11,9.35-2.55-2.12-1.55-3.87-1.9-5.75-.29a26.19,26.19,0,0,1-3.56,2.81,1.35,1.35,0,0,1-2.09-.67,3.55,3.55,0,0,1,.61-2.92c1.81-2.79,1.32-5.25-1-7.49s-4.29-2.16-6.62.08a19.21,19.21,0,0,1-6.32,4.26c-2,.75-3.55,1.58-3.34,4.06a2,2,0,0,1-1.57,2c-2.27-.31-2.91-1.85-3-3.78-.31-4.28,3.46-4.74,6.54-6.44a12.2,12.2,0,0,1-4.45-4.9c-1.16-2-3-2-4.77-1.09-2.08,1-.93,2.51-.36,3.85,1.15,2.73,3.33,5.11,3,8.35-1.53,2.43-2.74.15-3.81-.43s-1.56-2.06-2.11-3.25c-3.69-5.9-3.48-11.87-.35-17.9a2.28,2.28,0,0,1,1.9-.46c2.84,1.62,5.4-.17,8.06-.67,5.42-.86,10.51-3.64,16.24-2.68a1.77,1.77,0,0,1,.3,2c-3.35,3.08-7.88,2.9-11.93,4s-8.3,1.17-11.17,3.28c.44-.77,2.15-.68,3.58-1.09,4.69-1.34,9.54-2,14.26-3.31,1.58-.43,3.36-.53,4.46-2,.91-.53,1.76-1.68,2.85-.26a5.27,5.27,0,0,1-.4,5.19c-2.29,3.83-1.44,6.73,2.3,9,4.35,6.46,5.11,6.36,9.77-.3,2.31-3.28,3-7.15,4.78-10.61a2.1,2.1,0,0,1,1-.69,13.06,13.06,0,0,0,6.1-2.18c2.06-1.08,1.57-2.57.78-4.18a33.86,33.86,0,0,0-6.66-9.55c-1.48-1.44-3.35-2.66-3.73-4.92a2,2,0,0,1,1.11-1.51,3.28,3.28,0,0,1,2.51.53c2.83,1.64,4.44,4.41,6.56,6.7,2.45,3.31,4.9,2.74,7.45-1.76a55.06,55.06,0,0,0-7.62-11,4.54,4.54,0,0,1-1-1.68A1.83,1.83,0,0,1,138.91,85.46Z"/><path class="cls-68" d="M113.74,149.62c1.75,1.13.79,3,1.2,4.44l-.29.2c-4.34,2.08-6.47,6.45-10.13,9.24-2.31,1.76-3.66,4.88-7.24,4.84a2.74,2.74,0,0,1-1.56-1c-.61-1.49-1.94-1.84-3.4-2-1-.48-2-1-1.71-2.33,1.75-1.7,1.83-3.57.77-5.68-3.6-7.21-6.18-14.87-10.24-21.87a8.2,8.2,0,0,0-2.68-2.09,4.11,4.11,0,0,1-1.23-1.19,2.2,2.2,0,0,1-.32-2.17c4.75-2.35,3-6.52,3-10.2,0-3.27-2.72-2.12-4.39-2.55-5.45-1.41-8.83-6.33-8.61-12.71.74-.58,1.64-2.08,1.86.31,2,2.11,1.91,5.4,4.34,7.27,5.42,3.58,9.34,2.81,13.62-2.69,1-1.34,2.16-1.32,3.38-.28,1.15,1.94-.38,3.58-.62,5.37a1.39,1.39,0,0,1-.79.87l-1.75,0c-4.84,4.49-5.15,10.46-.77,15.27a12.6,12.6,0,0,1,1.69,2.66c2.66,3.06,2.66,3.06,4.86,3.48a.47.47,0,0,1,.75,0c.7,1.41,1.16,3,2.75,3.78,1.08,1.78,0,4,1.27,5.74,3.52,3.61,4.47,3.44,8.16.27,2.74-2.35,5.11-5.48,9.19-6a2,2,0,0,0,2,.78l-.06-.06-.87,2.16.06-.06c-1.79.54-.56,2.89-2.21,3.52-3.67,5.83-9.75,9.51-14.19,15.58,3.82-3.92,6.77-7.73,10.41-10.87C111.06,150.78,111.84,149.22,113.74,149.62Z"/><path class="cls-68" d="M56.52,50.71c-2.3,1.94-1.36,6.41-5.6,6.86,4-18.1,23.39-31.81,43.52-30.95q19,.82,31.25,14.82c1.09,1.25,2,2.68,3.87,2.92,0,1.53-1.33,1.52-2.35,1.86a8.83,8.83,0,0,0-7.33,5.11c-.41.89-.77,2-2.14,1.91-1.16-.56-.13-1.94-1-2.6-1.25-4.36-5.28-6.07-8.66-8.17C91,31.87,66.51,36.25,56.52,50.71Z"/><path class="cls-68" d="M113,113.61l0-1.9c-3.54,0-6.51-2.47-10.11-2.18a3,3,0,0,1-2.32-2c-.36-1.32,1.8-2.33.47-3.76,1.61-1.15,1.59-3.14,2.51-4.64.9.33,1.14,1.15,1.44,1.91a9.78,9.78,0,0,0,5,5.56c6.56,2.76,10.86,1,14.16-6.25-3,1.52-4.26,4.56-7.19,5.06-2.38.3-4.83.73-6.06-2.1,1.25-2.53,3.65-.16,5-1.25-3.46-.94-5.82-2.74-4.16-7,.35-.88-1-1.06-.94-1.85,2.24-3.71,6.13-2.71,9.51-3.17a2,2,0,0,1,1.87.87c.5,2-1.43,2.29-2.41,3.24s-3.08,1.4-3.14,3.37c8.64-1.59,17.25-9.18,18.43-16.24-3-.11-3.23,4-6.25,3.81l-1.21-1.39c.27-3.67,4.35-5.78,4.15-9.64a6.32,6.32,0,0,1,.61-2.23,7.2,7.2,0,0,0,.58-1.45c-.09-.79-1.3-1.41-.4-2.35a29.25,29.25,0,0,1,5.88-1.75,1.66,1.66,0,0,1,1.3,1.23,12.73,12.73,0,0,1-3,4.35c-1.79,2-3.9,4,.42,5.9,3.48,1.57,1,5.09,1.79,7.61,0,.58,0,1.16,0,1.73-3,2.18-4.32,6.1-8.24,7.24l-1.21,1.19c-.27,7.62-3,13.65-11,16.44-1.47.52-1.83,2.45-3.52,2.72-.4-1.1-1.08-.54-1.71-.27-.34-.12-.5-.29-.47-.51S112.88,113.61,113,113.61Z"/><path class="cls-68" d="M50.09,160.47l-1.64.87c-3.57-7.24-7.24-14.44-10.69-21.74-2.09-4.42-.4-7.27,4.71-7.7,7.49-.62,15-.86,22.52-1.26L76.91,130c.27.63.55,1.26.83,1.89a17.66,17.66,0,0,1-8.46,1.73c-7.72-.19-15.32,1.3-23,1.1-5.86-.15-6.77,1.37-4.16,6.38s4.55,10.19,7.2,15.11C50,157.52,50.87,158.87,50.09,160.47Z"/><path class="cls-68" d="M139.74,67.6l-.94-1c-1-4.37,1-9.22-2.27-13.21a11.78,11.78,0,0,0-6.74-4.84,9.78,9.78,0,0,1-2.22-1.16,2.23,2.23,0,0,1-1-2.16c1-.24,2.16.08,3-.82C140.24,48.87,144.72,59.11,139.74,67.6Z"/><path class="cls-68" d="M49.32,64.05a13.71,13.71,0,0,1,0,9.81C49.33,70.59,49.32,67.32,49.32,64.05Z"/><path class="cls-68" d="M111.13,64.1c2.69-1.74,3.21-4,2.18-7-.52-1.48-.27-3.22-.39-5.18,2.92.78,2.9,2.71,2.81,4.6a14.05,14.05,0,0,0,2.87,9.73c4.61,5.69,2.77,11.52.78,17.43-.53,1.56-1.6,1.24-2.93,1.19-8.68-.38-15.21,5.34-15.41,13.7-.07,2.84-1.24,4.1-3.83,4.65-9,1.91-11.35,3.43-21.69.9,13.77-3.65,24.41-10.88,31.84-22.43a36.66,36.66,0,0,0,3.87-8.6c.55-1.68,1-3.48,2.7-4.5A6.67,6.67,0,0,0,111.13,64.1Z"/><path class="cls-68" d="M85.21,45.39c-26.17,19-27.88,23.77-17,46.76-10.65-3.35-13.33-16-11.35-27.28C58.68,54.28,72.08,45.12,85.21,45.39Z"/><path class="cls-68" d="M56.52,50.71c-.91-2.75,1.3-4.07,2.88-5.47,15.12-13.35,41.88-12.69,56.28,1.31,1.22,1.19,2.66,2.25,1,4.09-6.87-6.12-14.35-10.93-23.91-12.23C79.94,36.66,68.89,40,59.41,48.59A34.06,34.06,0,0,1,56.52,50.71Z"/><path class="cls-68" d="M110.23,102.4c1.85,2.61,4.54,2.44,7.28,2.11,1-.43,2.23-.83,2.78.38.4.89-.6,1.59-1.37,2-3.16,1.87-6.45,1.42-9.76.42a8.81,8.81,0,0,1-5-5.38c.23-10,3.72-13.66,13.58-14.17,1,.67,2.81.41,2.61,2.32-1.73,1.12-3.43,2.05-5.71,1.79-1.87-.22-3.55.45-3.87,2.67a3.69,3.69,0,0,1-.4,1.11c-1.24,1.85-.86,3.69,0,5.54A1.56,1.56,0,0,1,110.23,102.4Z"/><path class="cls-68" d="M111.37,58.26c-.15,2.79-1.69,4.71-5.1,4.7A6.59,6.59,0,0,1,100,56.43c0-3.24,1.66-5,5.07-5S111.36,54.36,111.37,58.26Z"/><path class="cls-68" d="M126.6,45.18l.86,1.55c-4.25,4.22-4,9.45-3.48,14.74-.73,1.58-1.53,3.08-3.76,2.64-2.36-3.29-2.57-7-2.48-10.87C119.25,49,121.6,45.72,126.6,45.18Z"/><path class="cls-68" d="M120.22,64.11a4.83,4.83,0,0,0,3-2.9c1.35-.21,2,.76,2.38,1.67,1.63,3.85,5.1,5.64,8.53,7.5l-.85,1.54c-3.33,2.23-6.09,1.73-8.27-1.61C123.22,68.38,120.91,66.84,120.22,64.11Z"/><path class="cls-68" d="M87.1,109.93c-2.79,6.2-9.18,7.39-14.88,2.79,1.14-1.41,3-1.11,4.43-1.7a35.93,35.93,0,0,1,6-.78l3.49-.39A.58.58,0,0,1,87.1,109.93Z"/><path class="cls-68" d="M128.83,85.18c1.29-1.47,2.6-2.93,3.87-4.42.93-1.09,1.81-2.17,3.34-.8-4.76,8.71-12.39,14.31-21.22,18.63-1.67-1.79.31-2.23,1.22-3,2-1.6,4.1-3.1,6.16-4.64A24.65,24.65,0,0,0,128.83,85.18Z"/><path class="cls-68" d="M124,85.64c-.93.27-.79,2.18-2.34,1.49s-.72-1.69-.32-2.58c1.79-4,2.1-8.24,2.68-12.45,2.89-1,3.67.9,3.53,2.92C127.31,78.79,127.13,82.71,124,85.64Z"/><path class="cls-68" d="M132.4,73.78c1.32,4.66-2.94,6.79-4.78,10l-1.52.9c-.77-3.46.68-6.69,1.4-9.92C128.07,72.18,130.47,72.88,132.4,73.78Z"/><path class="cls-68" d="M117.72,87.81c-8.48,1.12-12.86,6-13.58,14.16-.22-.93-.43-1.86-.65-2.79C104.37,90.32,109,86.66,117.72,87.81Z"/><path class="cls-68" d="M76.88,111.83c-1.31,1.51-3.09.65-4.66.89-2.74-2-3.09-4.91-3.47-7.85,1.84-.61,2.9.85,4.24,1.54C73.53,108.73,76.57,109.35,76.88,111.83Z"/><path class="cls-68" d="M101,103.82c.94-.09,1.87,0,2.09,1.05.36,1.72-1.78,1.09-2.23,2.1-1.32,1.92-3.32,2.39-5.5,2.44A34.77,34.77,0,0,1,85.25,108C90.46,106.5,96.19,106.82,101,103.82Z"/><path class="cls-68" d="M132.4,73.78c-3.05-.22-5,.4-4.79,4.14.11,2.23-1,4.51-1.51,6.77l-2.06,1c.76-3.25,1.46-6.5,2.29-9.73.53-2.06.12-3.46-2.27-3.81a2,2,0,0,1,.94-1.79,12.14,12.14,0,0,0,8.27,1.61Z"/><path class="cls-68" d="M85.25,108c5.23.1,10.5.84,15.59-1l1.94,1.84c-4,3.31-8.29,3.22-12.84,1.44-.8-1.34-1.74-1.5-2.84-.32l-.93-.08Z"/><path class="cls-68" d="M111.13,64.1c3.36.08,5.09,1.11,2.8,4.52C110.76,68.43,109.42,67.17,111.13,64.1Z"/><path class="cls-68" d="M76.88,111.83c-2-1.34-4.14-2.55-3.89-5.42l1.93,1.79c2.1.37,4,1.74,6.33,1l1.43,1.09C81.15,112.16,79,111.81,76.88,111.83Z"/><path class="cls-68" d="M81.25,109.15c-2.45,1.83-4.5,1.12-6.33-1C77.35,106.48,79.11,109,81.25,109.15Z"/><path class="cls-68" d="M115,114.78a6.69,6.69,0,0,1,4.55-4.59c5.37-1.83,8.11-5.93,8.39-11.53.06-1.18-.71-2.86,1.53-3A49.05,49.05,0,0,1,141,110.5c1.43,2.77,1.27,4.27-1.87,5.11-3.3-.2-3.3-3.49-5-5.16-1-.93-1.75-2.41-3.2-2.19s-1.17,1.9-1.53,3a43.29,43.29,0,0,1-7.72,14.58c-1.28,1.53-2.34,3.64-5,3.16-5.07-2.27-5.54-5.62-2.7-10C114.64,117.81,114.63,116.18,115,114.78Z"/><path class="cls-68" d="M133.07,143.54c-1.41-2.06-3.23-4-4.14-6.21-1.54-3.79,2.16-3.81,4.31-4.86,1.41-1,3.72-1.19,3.73-3.61l8.95-3.93c1.23,4.91,2.54,9.7,2,14.77-.48,3.22-2.75,4.46-5.57,3.64A17,17,0,0,0,133.07,143.54Z"/><path class="cls-68" d="M116.6,129c6.78-4.89,9.94-12,11.91-19.56,1.16-4.4,2.94-3.4,5-1.28a76.73,76.73,0,0,1,5.65,7.48c-1.84.79-3.26,3-5.75,1.55-.52-1.94,1.16-3.86,0-6.2,0-.2-.42.85.06.48.86,2.12,0,4-1,5.8A30,30,0,0,1,126,131.43c-3.67,4.68-5.3,4.54-8.2-.58C117.42,130.21,117,129.59,116.6,129Z"/><path class="cls-68" d="M151.84,146.32l-1.64.53c-.2-5.22.38-10.48-.92-15.64-.49-1.9,0-2.87,2.27-3.36s4.07-1.83,6.14-2.83C160.6,139.34,159.69,142.62,151.84,146.32Z"/><path class="cls-68" d="M114.83,140.67c-2.87,3.43-7.12,5.2-10.19,8.62-2.69,3-6,.44-8.19-2.39a8,8,0,0,0,5-5.86,7.44,7.44,0,0,1,4.11-5.2c3.36-1.57,6.17-3.9,9.19-6C119.54,133.46,117,137.07,114.83,140.67Z"/><path class="cls-68" d="M114.79,129.88c-.91,4-4.73,4.8-7.68,6.35s-4.82,3.62-4.93,6.52c-.15,4.17-2.38,4.67-5.73,4.15-1.82-2-1-4.15-.24-6.27.3-.33.92-.85.85-1-2.76-4.67,1.28-4.51,4-5.73a16.93,16.93,0,0,0,6.2-4.4C110.21,125.77,112.39,127.48,114.79,129.88Z"/><path class="cls-68" d="M133.07,143.54c2.21-2.54,4.52-3.54,7.94-1.63,2.71,1.52,5.31.63,6.92-2.21a20.64,20.64,0,0,1-.29,8.06c-1.74,4.41-4.27,8-9.45,9,.21-2.21,1.19-4.36.52-6.67-1.42-.17-.4,1.42-1.33,1.72A27.22,27.22,0,0,0,133.07,143.54Z"/><path class="cls-68" d="M139.84,88.3a38.38,38.38,0,0,1,8.25,11.77c-2.56,3.33-5.73,3.85-9.43,1.94l-6.2-6.55A9.53,9.53,0,0,1,139.84,88.3Z"/><path class="cls-68" d="M93.46,136.85l-.38.07-.37-.07c-1.54-3.23-3-6.49-4.64-9.68-1-1.89-1.35-3,1.51-3.7,3.65-.93,6.35-1.26,7.34,3.27.58,2.64,3.14,3,5.48,3.37C100.43,133.72,94.27,131.92,93.46,136.85Z"/><path class="cls-68" d="M89.94,110.25c4.32-.15,8.65-.16,12.84-1.44,4.12-1.5,6.72,2.12,10.16,2.9L96.3,115.32c-2.5-.4-5.2,1.06-7.54-.78C87.4,112.65,90,111.79,89.94,110.25Z"/><path class="cls-68" d="M148.82,118.24c-3.24-6.18-3.24-6.18,1.63-9.08,5.74-3.42,5.74-3.42,7,3.39C157.69,117.89,154.6,119.92,148.82,118.24Z"/><path class="cls-68" d="M148.82,118.24c3.86-.49,8.15-.36,8.64-5.69,2.64,7.48,1.55,10.13-5.27,13-1.18.5-2.48,1.1-3.46.29a2.38,2.38,0,0,1-.18-3.28C149.58,121.17,149,119.7,148.82,118.24Z"/><path class="cls-68" d="M113,113.61l.3.9a3,3,0,0,1-2.7,2.59c-7.38,1.66-14.75,3.4-22.37,5.17.1-3.36,2.71-3.5,4.73-4C99.58,116.63,106.28,115.15,113,113.61Z"/><path class="cls-68" d="M145.34,116.28c2.87,3.69,1.48,6-2.43,7.81a42.63,42.63,0,0,1-12.74,4c2.11-3,.75-7,5-8.12C140.17,122.15,140.43,122.06,145.34,116.28Z"/><path class="cls-68" d="M87.85,133.37a4.74,4.74,0,0,0-1-.78c-7-2.73-4.36-8.86-4.78-13.72-.23-2.62,2.92-2.69,4.89-3.43.13.58.58,1.33.36,1.7C83.93,122.69,86.28,128,87.85,133.37Z"/><path class="cls-68" d="M107.11,120.12c-.78,1.94-2.51,3.72-.86,6.06a1.48,1.48,0,0,1-1.19,2.35c-2.22.13-4.67.1-6.3-1.68-2.7-2.93-1.94-5.16,2-5.91C102.82,120.56,104.79,119.33,107.11,120.12Z"/><path class="cls-68" d="M115.9,143.55c3.94-.55,7.85-1.34,11.86-1.1,1.45,1.5,1.16,3,0,4.51-3.3,1.41-6.92,1-10.32,1.19s-1.07-3-1.49-4.66Z"/><path class="cls-68" d="M116.73,154.88c-.29-.61-.57-1.23-.86-1.84-.46-5.62,4.09-2.47,6.29-3.43a3.2,3.2,0,0,1,2.2-.38c1.29.13,3-.64,3.67,1,.76,1.87-.49,3.06-2.16,3.83C122.81,154.14,119.84,155.3,116.73,154.88Z"/><path class="cls-68" d="M113.74,149.62,97.77,165c0-3.09,9.72-13.81,16-18C113.75,147.88,113.74,148.75,113.74,149.62Z"/><path class="cls-68" d="M131.1,159.46l-1.69.88c-3.16,2.09-6.49,1.79-9.89.73l-1.1-2.35c1.77-1.82,4.61-1.13,6.52-2.62.75-.18,1.51-.34,2.24-.55C131.08,154.39,132.26,155.8,131.1,159.46Z"/><path class="cls-68" d="M145.34,116.28c-.46,4-2.73,6.19-6.85,6.39-1.85.09-3.42-.42-3.31-2.72,2.41-1.24,4.8-2.48,7.21-3.71C143.38,115.73,144.39,114.57,145.34,116.28Z"/><path class="cls-68" d="M154,105l-10.22,6.42c-.28-1.48-3-3.06-.17-4.31C146.7,105.75,149.24,100.82,154,105Z"/><path class="cls-68" d="M116.83,141.45c.79-2.83,2.68-4.8,5.6-5,2.5-.2,4.5,1.24,5.72,3.89-4,.51-7.59,1.54-11.38,1.07Z"/><path class="cls-68" d="M125.87,154c2.32-4.3,2.32-4.3-3.71-4.42,2.06-1.28,4.39-.67,6.6-.89,2-.2,3.09.29,3.31,2.42.24,2.37-1.28,2.69-3,2.82C128,154,126.92,154,125.87,154Z"/><path class="cls-68" d="M138.66,102c3.28-.05,6.56,0,9.43-1.94,0,1.84-.18,1.59-3.16,3.82C141.58,106.41,139.72,105.91,138.66,102Z"/><path class="cls-68" d="M137,128.86c.32,1.08,2.15,2,1.32,3-1.25,1.5-3.34.43-5,.63-1.59-2.92-3.28.92-5.46-.62C130.3,129.1,134,129.79,137,128.86Z"/><path class="cls-68" d="M139.84,88.3a34.81,34.81,0,0,0-7.38,7.16l-1.81-1c1.86-2.12,3.77-4.2,5.56-6.37a2.1,2.1,0,0,1,2.68-.87Z"/><path class="cls-68" d="M136.19,156.88c-1.18.35-1.14,2.73-3.1,1.77a25.7,25.7,0,0,0,.09-11C136.23,150.84,136.08,153.9,136.19,156.88Z"/><path class="cls-68" d="M124.94,156.1c-1.36,2.79-3.9,2.81-6.52,2.62-1.4-1.05-.82-1.87.32-2.63Z"/><path class="cls-68" d="M88.76,114.54c2.52.21,5.18-.88,7.54.78-2.54.39-5,3.54-7.62.09C88.71,115.12,88.74,114.83,88.76,114.54Z"/><path class="cls-68" d="M127.77,147c0-1.5,0-3,0-4.51,3.61-1.21,3.07,2.26,3.17,3.42C131.12,147.87,128.89,146.57,127.77,147Z"/><path class="cls-68" d="M132.45,117.24l1.17-7.68c1,3.2.8,5.43-.26,7.6Z"/><path class="cls-68" d="M129.24,163.1c-2.89,2.21-5.7,3.61-7.89-.79,2.1-1.58,4.66-.87,7-1.25C129.54,160.86,130.72,161.67,129.24,163.1Z"/><path class="cls-68" d="M129.24,163.1c.53-1.72-.59-1.53-1.7-1.41-2.06.22-4.12.41-6.19.62-.85-.08-1.6-.29-1.83-1.24l9.89-.73C130.66,161.33,131.06,162.28,129.24,163.1Z"/><path class="cls-68" d="M78.72,132.64a3.57,3.57,0,0,1,2.76,1.76,4.16,4.16,0,0,1,.39,3.85c-3.39,11.08-9.9,19.42-21.51,23.32a14.64,14.64,0,0,1-8.57,0l.1-.12c-4.51-7-7.6-14.72-11.16-22.19-1.41-3-.09-4.76,3.56-4.88,5.22-.17,10.43-.59,15.62-.77C66.19,133.4,72.43,132.49,78.72,132.64Z"/><path class="cls-68" d="M51.79,161.58c16.05-.2,26.76-12,29.69-27.18,5.31,8.06,8.26,17.19,12.19,25.86,1,2.3-1.33,2.52-2.9,3l-32.54-.16C56,163.05,53.65,163.25,51.79,161.58Z"/><path class="cls-68" d="M78.72,132.64c-3.43,1.44-7.21,1.54-10.72,1.52-7.7,0-15.29,1.35-23,1.15-4.21-.12-4.8,1.09-3,4.93l9.88,21.22-1.8-1c-3.38-7-6.79-13.93-10.13-20.91-1.91-4-1.08-5.56,3.39-5.83,11.46-.7,22.93-1.23,34.39-1.82Z"/><path class="cls-68" d="M96.31,155.13c1.85-1.41,3.89-1,6.11-.72-1,2.53-3.55,3.29-5.09,5-.19.22-1.06-.14-1.62-.24.08-.4,0-1.06.26-1.17,3.4-1.59-2.43-.89-.53-2.06A1.46,1.46,0,0,1,96.31,155.13Z"/><path class="cls-68" d="M82.69,131.93c4,1.5,5.16,5,6.7,8.31C85.08,139.12,85.71,134.07,82.69,131.93Z"/><path class="cls-68" d="M94.49,149.52c-2.88,1.76-3.76.82-4-4.25a3.22,3.22,0,0,1,2.12-2q.89,3.16,1.76,6.32Z"/><path class="cls-68" d="M96.31,155.13l-.87.83c-2.82-.4-2.17-1.87-1.13-3.46,1.14-1.24,2.39-1,3.66-.23C97.45,153.24,95.69,153.53,96.31,155.13Z"/><path class="cls-68" d="M92.64,143.28c-.07,1.31-.93,1.82-2.12,2-1.48-.1-2-1.52-1.48-2.14C90,142.12,91.46,142.42,92.64,143.28Z"/><path class="cls-68" d="M98,152.27l-3.66.23c-2.1-1.12,1.3-1.92.18-3l-.09.09C95.79,150.25,97.78,150.11,98,152.27Z"/><path class="cls-68" d="M66.84,37.61c15.62-13.36,40.79-12,55.05,2.7.75.77,3.42,2.24.83,3.61-1.69.89-2.71,4.37-5.92,1.59-14.18-12.28-30.22-14.68-47.8-8a5.8,5.8,0,0,1-1.33.25A3.56,3.56,0,0,1,66.84,37.61Z"/><path class="cls-68" d="M114.82,98.59C122.35,92.87,130,87.28,136,80c1.46,1.13.82,2.41.22,3.63-3.85,7.72-10.53,12.26-18.41,15.38A2.76,2.76,0,0,1,114.82,98.59Z"/><path class="cls-68" d="M137,52.26c3.39,4.43,3.85,9.21,1.77,14.29a6.6,6.6,0,0,1-6.39,2.14c-3.28-.62-6.2-1.58-5.76-5.74C132.88,62,135.45,57.56,137,52.26Z"/><path class="cls-68" d="M109.16,107.36c3.6-.23,7.43.62,10.43-2.25-.52-.76-1.37-.45-2.08-.6,3.14-1.39,3.69-6,7.89-6.12C125.4,107.06,116.93,111.71,109.16,107.36Z"/><path class="cls-68" d="M126.59,63.29c1.13,2.62,3.28,4.21,5.82,5.4,0,1.09,2.26.06,1.71,1.69-6.13-.23-8.37-4.87-10.91-9.17-.69-3.61-1.62-7.24.18-10.78.85-1.68,1.76-3.46,4.07-3.7l2.15.86C124,52,125.32,57.64,126.59,63.29Z"/><path class="cls-68" d="M110.23,102.4v0c-1.25-2.66-2.74-5.34.49-7.74l0,0c1.23-.46,2.22-1.56,4.13-1.41-1.58,1.89-3.87,3.48-2.48,6.06s3.87,2,6.26,2C116.28,105.4,113.07,102.57,110.23,102.4Z"/><path class="cls-68" d="M126.59,63.29a12.46,12.46,0,0,1-1.84-11.67,5.47,5.47,0,0,1,4.86-4c3.4.15,5.72,1.95,7.42,4.67C137,60.16,134.55,62.77,126.59,63.29Z"/><path class="cls-68" d="M110.71,94.63c-1.87,2.48-.6,5.14-.49,7.74C108,99.65,106.54,97,110.71,94.63Z"/><path class="cls-68" d="M59.35,146.25c4.26-3.93,7.4-4,11.15-.34.81,1.79.42,3.22-1.49,4-2.91,1.17-5.92,1.58-8.8.07C58.72,149.2,58.15,147.82,59.35,146.25Z"/><path class="cls-68" d="M59.35,146.25c-.49,4.27,2.74,3.36,5.11,3.37,2.73,0,5.78.22,6-3.71,1.57.33,2.83.87,2.74,2.82-.09,2.17-2,2.27-3.36,3a17.26,17.26,0,0,1-9,.55,12.11,12.11,0,0,0-2.62-1.63c-1.24-.39-3.33.4-2.89-2C55.78,146.59,57.1,145.55,59.35,146.25Z"/><path class="cls-68" d="M60.92,152.25c2.9-1.53,5.94-.86,9-.55C67,154.25,64.11,155.25,60.92,152.25Z"/><path class="cls-68" d="M75.48,165.89l12.86,0a3.57,3.57,0,0,0-.46,0Q81.69,165.89,75.48,165.89Z"/><path class="cls-68" d="M51.84,166.72c-.22-.49-.39-1.05-.9-.95A8.9,8.9,0,0,0,51.84,166.72Z"/><path class="cls-68" d="M124.22,166.77c4-.61,8.89-4.29,12-7.27s7-.88,10.13-5.47,2-5.88,3.91-6.13c.82-.1,2.24-.34,3.6-.57a3.72,3.72,0,0,1-2-1c-1-1-1.25-.12-1.64.53l-2.56.91c-3.08,3.08-5.47,6.84-9.45,9l-2,.1c-2-1-1.69,1.8-3.1,1.77l-2,.81c-.9-.47-1.46-.12-1.84.7-.11.88,0,1.82-.93,2.4a4.52,4.52,0,0,1-6.28-.29,17.32,17.32,0,0,1-1.61-1.48,8,8,0,0,1-1.19-2.23c-.27-.81-.17-1.68-.51-2.47-.78-.23-1.67-.29-2-1.21.58-1,.29-1.61-.86-1.84l-.8.88a5.41,5.41,0,0,1,.52,2C115.87,159.49,120.25,167.37,124.22,166.77Z"/><path class="cls-68" d="M57.47,168.58l0,0,10.09,0A11.94,11.94,0,0,0,57.47,168.58Z"/><path class="cls-68" d="M51.84,166.72a6.47,6.47,0,0,0,4.39,1.88h.36a6,6,0,0,1,.83-1.15,13.42,13.42,0,0,1,10.37-.15c.59.46,1.11.9,1.6,1.33l23,0a12.93,12.93,0,0,0,5-1l-1.09-1c-1.16-1-2.56-.75-3.94-.74H90.8a11.89,11.89,0,0,1-2.46,0l-12.86,0h0q6.19,0,12.4,0a3.57,3.57,0,0,1,.46,0H90.8a2.83,2.83,0,0,0,1.81-1l-1.84-1.62c-1.7-1.74-3.94-1.41-6-1.44-6.28-.07-12.56.09-18.83-.07-4-.09-8,.85-11.86-.43-.48-.2-.94-.42-1.4-.66a7,7,0,0,0-2.09-.67,1.87,1.87,0,0,0-2.1,1.39,15.32,15.32,0,0,0,2.49,4.43C51.45,165.67,51.62,166.23,51.84,166.72Z"/><path class="cls-68" d="M75.48,165.89h0Z"/><path class="cls-68" d="M90.8,165.86H88.34A11.89,11.89,0,0,0,90.8,165.86Z"/><path class="cls-68" d="M57.47,168.58a11.94,11.94,0,0,1,10,0h1.88c-.49-.43-1-.87-1.6-1.33a13.42,13.42,0,0,0-10.37.15,6,6,0,0,0-.83,1.15h.83Z"/><path class="cls-68" d="M67.51,168.63a2.56,2.56,0,0,1,.24.11h1.78l-.14-.12Z"/><path class="cls-68" d="M55.48,149.85s2.07,4.76,15.21,1.51l-9.22-1Z"/><path class="cls-68" d="M88.83,144.61l6.88,14.58,6.71-4.78s-8.66-6.59-9.78-11.13C92.64,143.28,87.86,140.24,88.83,144.61Z"/><path class="cls-68" d="M96.25,166.6H55v-1.76H92.61C94.5,164.1,96.21,163.69,96.25,166.6Z"/><path class="cls-68" d="M55,164.84s1.11,1.76,4.28,1.76-4.8.9-4.8.9l-2.66-3.21Z"/><path class="cls-23" d="M69.63,107.26c.4-1.52-.63-2.21-1.64-3A37.34,37.34,0,0,1,53.53,78.41a31.31,31.31,0,0,0,0-9.22c.48-2,.1-4.27,1.46-6.1,2.33-2.11,2.78-5.55,5.3-7.54C66.1,49.79,72.77,45.6,81,44.23,94.44,42,105.9,45.81,115.43,55.55c1.12,1,.57,2.65,1.31,3.84.75,3.07,1,6.28,2.43,9.16.87,2.39,2.94,4,4,6.25a13.82,13.82,0,0,1-.1,2.32,93.22,93.22,0,0,1-1.8,9.54c-.13.59-1.28,1.53.26,2,.63-.25,1.21-.6,1.82-.87a3.75,3.75,0,0,1,2.23-.4,1.59,1.59,0,0,1,1.08,1.33,9.84,9.84,0,0,1-6.08,6.25,4,4,0,0,1-2.17-.81,5.45,5.45,0,0,0-3.29-1.78c-7.31,0-9.64,2-11.06,9.9-.51,1.83-1,3.67-2.59,4.94-3.92,2.83-8.72,2.76-13.11,4-.54.5-.79,1.25-1.45,1.64a4.18,4.18,0,0,1-2.81.19,15.46,15.46,0,0,1-1.64-.49,20.28,20.28,0,0,0-5.41-1.42,6.72,6.72,0,0,1-2.4-1.32c-1.18-.84-2.63-1.24-3.68-2.29C71,105,69.91,108.24,69.63,107.26Z"/><path class="cls-24" d="M135.61,89.31c4.45,1.5,5.77,5.86,8.15,9.18,2.1,2.92,3.49,6.33,7.27,7.73,1.53.57,2.13,2.15,2.39,3.75.82,4.93,3.57,9.33,1.51,15-1.17,3.21.93,7.62,1.09,11.57.17,4.63-1.45,8.18-5.47,10.57a1.29,1.29,0,0,1-1.93.88c-1-.38-1.76-.92-1.13-2.16,6.95-4.46,6-10.94,4.56-17.6-5.51,2.64-5.38,2.64-5.25,8.22.09,3.6.74,7.28-.71,10.8-.68.67-1.38,1.28-2.37.52-1.38-2.13-.74-4.52-.87-6.8a48.44,48.44,0,0,0-.85-10.47c-.31-2.09-1.12-2.73-3.06-1.65a28.91,28.91,0,0,1-4.67,1.94c-1.74.82-3.7.59-5.5,1.08,1.35-.3,2.39-.26,2,1.61-4.23,3.6-4.23,3.6.47,10,2.05,2,2.32,5.07,4.67,7.17,1.61,1.44.79,4.43-1.34,6.17a2,2,0,0,1-1.79-.26c-1.51-2,0-4.81-1.51-6.53-.32-.82-.89.07-.43-.25.15-.1.25,0,.35.17,1.37,2.76.74,5.45-.22,8.15a2.19,2.19,0,0,1-2.14,1.08c-1.24-3.26-3.7-3.34-6.52-2.47a22.66,22.66,0,0,1-5.46-.13c-.92-.32-1.85-.63-1.75-1.9,2.37-1.75,5.18-1.72,7.92-2,1.58-.18,4.33.67,4.31-1.23,0-2.39-2.83-1.29-4.48-1.49a6.41,6.41,0,0,0-2.48.42c-2.06.44-4.55,0-5.38,2.83-.39.52-.83.9-1.53.58-1.16-1.16-1.06-2.77-1.53-4.17a6.55,6.55,0,0,1,0-2.61c.57-1.25.26-3.14,2.35-3.31,2.34,5.37,6.71,2.68,10.41,2.6.78-.34,2.2,0,2-1.47s-1.47-.78-2.33-.88c-3.21-.34-6.37,1.56-9.58.15-1.1-.79-.44-1.37.23-1.94,2.39-1.8,5.47-1,8.56-2.4-1.93-1.46-3.54-1.78-5.26-.28a24.44,24.44,0,0,1-3.27,2.65c-.87.51-1.47.2-1.91-.64a3.44,3.44,0,0,1,.56-2.74c1.65-2.62,1.21-4.93-.91-7s-3.94-2-6.07.07a17.55,17.55,0,0,1-5.79,4c-1.8.71-3.26,1.49-3.06,3.81a1.88,1.88,0,0,1-1.44,1.85c-2.08-.29-2.67-1.74-2.79-3.56-.28-4,3.18-4.45,6-6a11.33,11.33,0,0,1-4.08-4.61c-1.06-1.89-2.7-1.87-4.37-1-1.9,1-.85,2.35-.33,3.61,1.06,2.57,3,4.81,2.74,7.85-1.4,2.29-2.51.14-3.49-.4s-1.43-1.94-1.93-3.06c-3.39-5.55-3.19-11.16-.32-16.82A2.07,2.07,0,0,1,89.6,117c2.6,1.53,4.94-.15,7.38-.62,5-.81,9.63-3.42,14.88-2.52a1.72,1.72,0,0,1,.28,1.84c-3.08,2.89-7.22,2.72-10.93,3.81s-7.61,1.1-10.24,3.08c.41-.72,2-.64,3.28-1,4.3-1.27,8.74-1.92,13.06-3.12,1.46-.4,3.08-.49,4.09-1.89.83-.49,1.61-1.57,2.61-.24a5,5,0,0,1-.37,4.88c-2.1,3.6-1.31,6.32,2.11,8.47,4,6.06,4.68,6,9-.29,2.11-3.08,2.75-6.72,4.37-10a2,2,0,0,1,.92-.66,11.74,11.74,0,0,0,5.58-2c1.89-1,1.44-2.42.71-3.93a31.84,31.84,0,0,0-6.09-9c-1.36-1.36-3.08-2.51-3.43-4.63a1.89,1.89,0,0,1,1-1.42,2.9,2.9,0,0,1,2.3.5c2.59,1.53,4.07,4.14,6,6.3,2.25,3.11,4.49,2.57,6.83-1.66a52.22,52.22,0,0,0-7-10.31,4.18,4.18,0,0,1-.88-1.58A1.73,1.73,0,0,1,135.61,89.31Z"/><path class="cls-69" d="M112.55,149.61c1.6,1.06.72,2.78,1.1,4.17l-.27.18c-4,2-5.93,6.07-9.28,8.69-2.11,1.65-3.35,4.59-6.63,4.55a2.55,2.55,0,0,1-1.43-.95c-.57-1.4-1.78-1.73-3.12-1.86-.91-.45-1.82-.91-1.56-2.19,1.6-1.6,1.67-3.35.7-5.34-3.3-6.77-5.66-14-9.38-20.55a7.44,7.44,0,0,0-2.46-2,4,4,0,0,1-1.13-1.12,2.14,2.14,0,0,1-.29-2c4.35-2.21,2.72-6.13,2.73-9.59,0-3.07-2.49-2-4-2.39-5-1.33-8.09-5.95-7.88-11.95.67-.54,1.5-2,1.7.29,1.83,2,1.74,5.08,4,6.83,5,3.37,8.56,2.64,12.48-2.52.94-1.26,2-1.24,3.1-.26,1.05,1.82-.35,3.36-.57,5a1.29,1.29,0,0,1-.73.82l-1.6,0c-4.43,4.21-4.71,9.82-.71,14.35a11.38,11.38,0,0,1,1.56,2.5c2.43,2.87,2.43,2.87,4.45,3.27a.41.41,0,0,1,.68,0c.64,1.32,1.07,2.8,2.53,3.55,1,1.67,0,3.77,1.16,5.39,3.23,3.39,4.09,3.23,7.47.26,2.52-2.22,4.69-5.16,8.43-5.61a1.83,1.83,0,0,0,1.83.73l-.06-.05-.79,2,0-.05c-1.64.5-.51,2.72-2,3.3-3.35,5.48-8.93,8.94-13,14.64,3.5-3.68,6.21-7.25,9.54-10.21C110.09,150.69,110.81,149.23,112.55,149.61Z"/><path class="cls-26" d="M60.12,56.65c-2.11,1.83-1.24,6-5.13,6.44C58.7,46.09,76.42,33.21,94.86,34a38.36,38.36,0,0,1,28.63,13.92c1,1.17,1.84,2.52,3.55,2.75,0,1.43-1.22,1.42-2.15,1.74a8.09,8.09,0,0,0-6.71,4.81c-.39.83-.71,1.86-2,1.79-1.06-.53-.12-1.82-.94-2.44-1.14-4.1-4.83-5.71-7.93-7.68C91.7,39,69.27,43.06,60.12,56.65Z"/><path class="cls-70" d="M111.84,115.77l0-1.79c-3.24,0-6-2.32-9.26-2a2.73,2.73,0,0,1-2.12-1.84c-.33-1.23,1.64-2.18.43-3.53,1.47-1.08,1.45-3,2.3-4.36.82.32,1,1.08,1.32,1.8a9.09,9.09,0,0,0,4.62,5.23c6,2.59,10,1,13-5.88-2.77,1.43-3.89,4.29-6.58,4.76-2.19.27-4.42.68-5.56-2,1.15-2.38,3.34-.15,4.61-1.17-3.17-.89-5.33-2.58-3.8-6.54.32-.83-.88-1-.87-1.74,2.06-3.49,5.62-2.54,8.71-3,.68.06,1.34.13,1.72.82.45,1.87-1.32,2.15-2.21,3s-2.82,1.32-2.87,3.17c7.91-1.49,15.8-8.63,16.88-15.26-2.73-.11-3,3.77-5.73,3.57l-1.11-1.3c.25-3.45,4-5.43,3.81-9.06a5.9,5.9,0,0,1,.56-2.1,7.51,7.51,0,0,0,.53-1.36c-.08-.74-1.2-1.32-.37-2.21a25.92,25.92,0,0,1,5.38-1.64,1.54,1.54,0,0,1,1.2,1.16,12.11,12.11,0,0,1-2.79,4.09c-1.64,1.85-3.57,3.7.39,5.53,3.19,1.48.94,4.79,1.64,7.16,0,.55,0,1.09,0,1.63-2.72,2-4,5.73-7.55,6.8l-1.11,1.12c-.24,7.16-2.78,12.83-10,15.45-1.35.49-1.67,2.3-3.22,2.55-.37-1-1-.5-1.57-.25-.32-.11-.46-.27-.44-.48S111.75,115.77,111.84,115.77Z"/><path class="cls-71" d="M54.23,159.81l-1.5.81c-3.28-6.8-6.64-13.57-9.8-20.43C41,136,42.57,133.36,47.25,133c6.86-.59,13.75-.82,20.63-1.19l10.92-.58c.25.59.51,1.18.77,1.77a15.82,15.82,0,0,1-7.76,1.63c-7.07-.18-14,1.22-21.11,1-5.37-.14-6.21,1.29-3.81,6s4.17,9.58,6.6,14.21C54.13,157,54.94,158.3,54.23,159.81Z"/><path class="cls-72" d="M136.37,72.53l-.87-1c-.91-4.1.9-8.66-2.08-12.41a10.69,10.69,0,0,0-6.17-4.55,9.24,9.24,0,0,1-2-1.09,2.1,2.1,0,0,1-.89-2c.91-.23,2,.07,2.71-.77C136.83,54.92,140.93,64.55,136.37,72.53Z"/><path d="M53.53,69.19a13.24,13.24,0,0,1,0,9.22Z"/><path class="cls-29" d="M110.15,69.24c2.47-1.64,2.95-3.77,2-6.55-.47-1.4-.25-3-.36-4.87,2.68.73,2.66,2.55,2.58,4.32A13.4,13.4,0,0,0,117,71.28c4.23,5.35,2.54,10.83.71,16.39-.48,1.47-1.46,1.16-2.68,1.11-8-.35-13.94,5-14.12,12.88-.06,2.67-1.14,3.85-3.5,4.36-8.22,1.8-10.4,3.23-19.88.86,12.61-3.44,22.37-10.23,29.17-21.09a35.45,35.45,0,0,0,3.55-8.08c.5-1.58.88-3.27,2.47-4.23A6.21,6.21,0,0,0,110.15,69.24Z"/><path class="cls-30" d="M86.4,51.66C62.43,69.46,60.87,74,70.8,95.6c-9.75-3.15-12.21-15-10.4-25.64C62.1,60,74.37,51.4,86.4,51.66Z"/><path class="cls-73" d="M60.12,56.65c-.83-2.58,1.19-3.82,2.64-5.14C76.62,39,101.13,39.59,114.32,52.74c1.12,1.12,2.44,2.12,1,3.85-6.29-5.76-13.14-10.28-21.9-11.5-11.79-1.64-21.91,1.51-30.6,9.57A32.7,32.7,0,0,1,60.12,56.65Z"/><path class="cls-74" d="M109.33,105.23c1.69,2.45,4.16,2.3,6.67,2,.93-.41,2-.79,2.55.35.36.84-.55,1.5-1.26,1.92-2.89,1.76-5.91,1.34-8.94.4a8.18,8.18,0,0,1-4.6-5.06c.22-9.42,3.41-12.84,12.44-13.31.89.63,2.58.38,2.39,2.18-1.58,1-3.14,1.93-5.23,1.68-1.71-.2-3.25.43-3.55,2.51a3.27,3.27,0,0,1-.36,1c-1.13,1.73-.79,3.46,0,5.2A1.47,1.47,0,0,1,109.33,105.23Z"/><path class="cls-30" d="M110.37,63.74c-.13,2.63-1.55,4.44-4.66,4.43S100,65.2,100,62s1.53-4.75,4.65-4.72S110.36,60.08,110.37,63.74Z"/><path class="cls-32" d="M124.33,51.46l.78,1.45c-3.89,4-3.64,8.88-3.18,13.85-.67,1.49-1.41,2.9-3.44,2.49-2.17-3.09-2.37-6.62-2.28-10.22C117.59,55.08,119.75,52,124.33,51.46Z"/><path class="cls-75" d="M118.49,69.25a4.45,4.45,0,0,0,2.73-2.73c1.24-.2,1.83.71,2.18,1.57,1.49,3.62,4.68,5.3,7.82,7l-.78,1.45c-3,2.09-5.58,1.62-7.58-1.52C121.23,73.26,119.12,71.81,118.49,69.25Z"/><path class="cls-76" d="M88.14,112.3c-2.56,5.83-8.41,7-13.63,2.63,1-1.33,2.71-1.05,4.06-1.59a30.92,30.92,0,0,1,5.52-.74l3.2-.37A.53.53,0,0,1,88.14,112.3Z"/><path class="cls-77" d="M126.37,89c1.19-1.38,2.39-2.75,3.55-4.15.85-1,1.65-2,3.05-.75-4.36,8.19-11.35,13.45-19.43,17.51-1.54-1.68.28-2.1,1.11-2.78,1.85-1.5,3.76-2.91,5.65-4.35A22.52,22.52,0,0,0,126.37,89Z"/><path class="cls-73" d="M122,89.47c-.85.27-.72,2.06-2.14,1.41s-.66-1.59-.3-2.43c1.65-3.73,1.93-7.74,2.46-11.7,2.65-.94,3.37.85,3.23,2.75C125,83,124.81,86.73,122,89.47Z"/><path class="cls-75" d="M129.64,78.33c1.21,4.38-2.69,6.38-4.38,9.41l-1.39.84c-.7-3.25.62-6.28,1.28-9.31C125.68,76.83,127.88,77.48,129.64,78.33Z"/><path class="cls-78" d="M116.19,91.52c-7.77,1-11.78,5.61-12.44,13.31-.2-.87-.4-1.75-.59-2.63C104,93.88,108.16,90.43,116.19,91.52Z"/><path class="cls-74" d="M78.78,114.1c-1.2,1.41-2.84.61-4.27.83-2.52-1.84-2.84-4.61-3.18-7.38,1.68-.57,2.65.8,3.88,1.45C75.71,111.18,78.49,111.77,78.78,114.1Z"/><path class="cls-73" d="M100.86,106.56c.85-.08,1.71,0,1.91,1,.33,1.62-1.63,1-2,2-1.21,1.8-3,2.24-5,2.28a31.05,31.05,0,0,1-9.23-1.29C91.22,109.09,96.47,109.38,100.86,106.56Z"/><path class="cls-27" d="M129.64,78.33c-2.79-.2-4.56.38-4.39,3.9.1,2.09-.89,4.23-1.38,6.35l-1.89.89c.7-3,1.35-6.1,2.1-9.13.49-1.94.11-3.26-2.08-3.59a1.86,1.86,0,0,1,.86-1.68,10.91,10.91,0,0,0,7.58,1.52Z"/><path class="cls-24" d="M86.45,110.52c4.79.09,9.62.79,14.28-1l1.77,1.73c-3.61,3.1-7.59,3-11.76,1.35-.73-1.26-1.59-1.42-2.6-.31l-.85-.07Z"/><path class="cls-36" d="M110.15,69.24c3.08.07,4.67,1,2.57,4.24C109.82,73.31,108.59,72.12,110.15,69.24Z"/><path class="cls-79" d="M78.78,114.1c-1.82-1.26-3.8-2.41-3.57-5.1L77,110.68c1.92.35,3.7,1.64,5.8.89l1.31,1C82.68,114.4,80.68,114.07,78.78,114.1Z"/><path class="cls-80" d="M82.78,111.57c-2.24,1.72-4.12,1.06-5.8-.89C79.2,109.06,80.81,111.47,82.78,111.57Z"/><path class="cls-81" d="M113.68,116.86a6.21,6.21,0,0,1,4.17-4.31c4.91-1.72,7.42-5.57,7.68-10.84,0-1.11-.65-2.69,1.4-2.85a46.24,46.24,0,0,1,10.58,14c1.3,2.6,1.15,4-1.72,4.81-3-.2-3-3.28-4.62-4.85-.89-.88-1.6-2.27-2.93-2.06s-1.08,1.78-1.4,2.79a41.27,41.27,0,0,1-7.07,13.7c-1.17,1.44-2.15,3.42-4.61,3-4.64-2.14-5.06-5.28-2.47-9.41C113.37,119.71,113.37,118.18,113.68,116.86Z"/><path class="cls-81" d="M130.26,143.89c-1.29-1.93-3-3.72-3.8-5.83-1.41-3.56,2-3.58,4-4.57,1.3-1,3.41-1.12,3.42-3.39l8.2-3.69c1.13,4.61,2.33,9.11,1.85,13.88-.45,3-2.53,4.19-5.12,3.42A15.15,15.15,0,0,0,130.26,143.89Z"/><path class="cls-75" d="M115.16,130.2c6.22-4.6,9.11-11.3,10.92-18.38,1.06-4.14,2.69-3.2,4.54-1.21a72.39,72.39,0,0,1,5.17,7c-1.68.73-3,2.86-5.26,1.45-.48-1.82,1.05-3.63,0-5.83,0-.18-.39.81.06.46.79,2,0,3.72-.88,5.45a28.56,28.56,0,0,1-5.93,13.34c-3.36,4.39-4.86,4.26-7.51-.55C115.92,131.36,115.53,130.79,115.16,130.2Z"/><path class="cls-75" d="M147.45,146.51,146,147c-.18-4.9.35-9.85-.85-14.69-.44-1.8,0-2.71,2.09-3.16s3.73-1.73,5.62-2.66C155.48,140,154.65,143,147.45,146.51Z"/><path class="cls-82" d="M113.55,141.2c-2.63,3.22-6.53,4.88-9.34,8.1-2.47,2.83-5.52.41-7.51-2.25a7.5,7.5,0,0,0,4.62-5.51,7,7,0,0,1,3.77-4.88c3.07-1.48,5.65-3.67,8.41-5.6C117.86,134.42,115.54,137.81,113.55,141.2Z"/><path class="cls-83" d="M113.5,131.06c-.82,3.75-4.33,4.51-7,6s-4.42,3.4-4.51,6.13c-.15,3.92-2.19,4.39-5.26,3.9-1.66-1.91-.94-3.9-.21-5.89.27-.32.84-.8.78-.92-2.53-4.39,1.17-4.23,3.62-5.38a15.44,15.44,0,0,0,5.68-4.13C109.31,127.19,111.31,128.79,113.5,131.06Z"/><path class="cls-75" d="M130.26,143.89c2-2.38,4.14-3.33,7.27-1.53,2.49,1.43,4.87.6,6.35-2.07a19.89,19.89,0,0,1-.28,7.57c-1.59,4.15-3.9,7.55-8.66,8.48.2-2.08,1.1-4.1.49-6.28-1.31-.15-.37,1.34-1.22,1.62A25.8,25.8,0,0,0,130.26,143.89Z"/><path class="cls-42" d="M136.46,92A36.14,36.14,0,0,1,144,103c-2.35,3.13-5.25,3.62-8.64,1.82l-5.68-6.15A8.82,8.82,0,0,1,136.46,92Z"/><path class="cls-81" d="M94,137.61l-.34.06-.34-.06c-1.41-3-2.76-6.1-4.25-9.1-.88-1.78-1.24-2.79,1.38-3.48,3.35-.87,5.82-1.18,6.73,3.08.53,2.48,2.87,2.77,5,3.16C100.35,134.66,94.71,133,94,137.61Z"/><path class="cls-75" d="M90.74,112.61c4-.15,7.93-.15,11.76-1.35,3.78-1.41,6.16,2,9.31,2.72l-15.25,3.39c-2.28-.38-4.76,1-6.9-.73C88.41,114.86,90.75,114.05,90.74,112.61Z"/><path class="cls-81" d="M144.69,120.12c-3-5.81-3-5.81,1.49-8.54,5.26-3.21,5.26-3.21,6.43,3.19C152.81,119.78,150,121.69,144.69,120.12Z"/><path class="cls-75" d="M144.69,120.12c3.54-.46,7.46-.34,7.92-5.35,2.41,7,1.41,9.51-4.84,12.24-1.08.47-2.26,1-3.16.28a2.27,2.27,0,0,1-.17-3.09C145.39,122.87,144.82,121.49,144.69,120.12Z"/><path class="cls-81" d="M111.84,115.77l.27.84a2.83,2.83,0,0,1-2.48,2.44c-6.76,1.55-13.51,3.19-20.5,4.85.1-3.16,2.49-3.29,4.34-3.76C99.57,118.6,105.71,117.21,111.84,115.77Z"/><path class="cls-75" d="M141.5,118.28c2.62,3.47,1.35,5.68-2.22,7.34a38.81,38.81,0,0,1-11.68,3.74c1.94-2.79.69-6.6,4.59-7.64C136.76,123.79,137,123.7,141.5,118.28Z"/><path class="cls-81" d="M88.83,134.34a4.36,4.36,0,0,0-1-.74c-6.46-2.57-4-8.33-4.38-12.89-.21-2.47,2.68-2.53,4.48-3.22.12.54.53,1.25.33,1.6C85.23,124.3,87.39,129.3,88.83,134.34Z"/><path class="cls-81" d="M106.47,121.88c-.71,1.82-2.3,3.5-.78,5.7a1.4,1.4,0,0,1-1.1,2.21c-2,.12-4.27.09-5.77-1.58-2.47-2.76-1.78-4.86,1.84-5.55C102.54,122.3,104.35,121.14,106.47,121.88Z"/><path class="cls-81" d="M114.53,143.9c3.6-.52,7.19-1.26,10.86-1,1.33,1.41,1.06,2.82,0,4.24-3,1.32-6.34,1-9.45,1.12s-1-2.84-1.37-4.38Z"/><path class="cls-81" d="M115.28,154.55l-.78-1.73c-.43-5.28,3.74-2.32,5.76-3.22a2.93,2.93,0,0,1,2-.36c1.18.12,2.77-.6,3.36.91.69,1.76-.45,2.87-2,3.6C120.85,153.85,118.14,154.94,115.28,154.55Z"/><path class="cls-84" d="M112.55,149.61,97.91,164.06c0-2.91,8.91-13,14.64-16.91Z"/><path class="cls-75" d="M128.45,158.85l-1.55.83c-2.89,2-6,1.69-9.06.69l-1-2.21c1.63-1.71,4.23-1.07,6-2.47.69-.17,1.38-.31,2-.51C128.43,154.09,129.52,155.42,128.45,158.85Z"/><path class="cls-44" d="M141.5,118.28c-.42,3.74-2.5,5.81-6.28,6-1.69.08-3.13-.39-3-2.56l6.6-3.49C139.7,117.75,140.63,116.67,141.5,118.28Z"/><path class="cls-45" d="M149.4,107.69l-9.37,6c-.25-1.4-2.76-2.88-.16-4C142.75,108.38,145.08,103.74,149.4,107.69Z"/><path class="cls-81" d="M115.38,141.93c.72-2.66,2.45-4.51,5.13-4.72,2.29-.18,4.12,1.16,5.24,3.65-3.65.49-7,1.46-10.43,1Z"/><path class="cls-75" d="M123.66,153.75c2.12-4,2.12-4-3.4-4.15,1.89-1.2,4-.63,6-.84,1.82-.19,2.83.27,3,2.28.22,2.23-1.17,2.52-2.79,2.64C125.59,153.76,124.63,153.73,123.66,153.75Z"/><path class="cls-75" d="M135.38,104.86c3,0,6,0,8.64-1.82,0,1.73-.17,1.49-2.89,3.59C138.05,109,136.35,108.53,135.38,104.86Z"/><path class="cls-75" d="M133.83,130.1c.3,1,2,1.85,1.21,2.79-1.15,1.42-3.06.42-4.63.6-1.46-2.75-3,.86-5-.59C127.72,130.32,131.09,131,133.83,130.1Z"/><path class="cls-75" d="M136.46,92a32.19,32.19,0,0,0-6.76,6.73l-1.66-1c1.71-2,3.46-3.95,5.1-6a1.88,1.88,0,0,1,2.45-.81Z"/><path class="cls-46" d="M133.12,156.43c-1.08.33-1.05,2.56-2.85,1.66a24.73,24.73,0,0,0,.09-10.29C133.15,150.76,133,153.63,133.12,156.43Z"/><path class="cls-47" d="M122.81,155.69c-1.25,2.63-3.58,2.64-6,2.47-1.28-1-.75-1.76.29-2.47Z"/><path class="cls-48" d="M89.66,116.64c2.31.2,4.74-.83,6.9.73-2.32.37-4.61,3.33-7,.09C89.61,117.19,89.64,116.91,89.66,116.64Z"/><path class="cls-75" d="M125.4,147.11c0-1.42,0-2.83,0-4.24,3.31-1.14,2.81,2.12,2.91,3.21C128.47,148,126.42,146.74,125.4,147.11Z"/><path class="cls-49" d="M129.69,119.18l1.07-7.22c.92,3,.73,5.1-.23,7.14Z"/><path class="cls-50" d="M126.75,162.28c-2.65,2.07-5.22,3.39-7.23-.75,1.92-1.49,4.27-.81,6.41-1.17C127,160.17,128.11,160.93,126.75,162.28Z"/><path class="cls-23" d="M126.75,162.28c.48-1.62-.54-1.45-1.56-1.33-1.89.21-3.78.39-5.67.58-.78-.07-1.47-.27-1.68-1.16l9.06-.69C128.05,160.62,128.42,161.51,126.75,162.28Z"/><path class="cls-85" d="M80.46,133.65A3.26,3.26,0,0,1,83,135.3a4,4,0,0,1,.36,3.62c-3.11,10.41-9.07,18.25-19.71,21.92a13.09,13.09,0,0,1-7.86,0l.1-.11c-4.14-6.59-7-13.83-10.23-20.85-1.29-2.78-.08-4.48,3.27-4.59,4.78-.15,9.55-.55,14.31-.72C69,134.36,74.7,133.51,80.46,133.65Z"/><path class="cls-86" d="M55.78,160.84C70.49,160.66,80.3,149.61,83,135.3c4.86,7.58,7.57,16.15,11.17,24.31,1,2.16-1.22,2.36-2.66,2.78l-29.81-.15C59.61,162.23,57.49,162.42,55.78,160.84Z"/><path class="cls-87" d="M80.46,133.65c-3.14,1.35-6.61,1.45-9.82,1.43-7.06,0-14,1.27-21.06,1.07-3.85-.1-4.4,1-2.76,4.64l9.06,19.94-1.65-.92c-3.1-6.55-6.22-13.09-9.28-19.66-1.75-3.75-1-5.23,3.1-5.48,10.5-.65,21-1.15,31.52-1.71Z"/><path class="cls-88" d="M96.58,154.78c1.69-1.32,3.56-.93,5.59-.67-.89,2.37-3.25,3.09-4.66,4.72-.18.2-1-.14-1.48-.23.07-.38,0-1,.23-1.1,3.12-1.49-2.23-.84-.48-1.94A1.37,1.37,0,0,1,96.58,154.78Z"/><path class="cls-89" d="M84.1,133c3.61,1.41,4.73,4.71,6.14,7.81C86.29,139.73,86.87,135,84.1,133Z"/><path class="cls-90" d="M94.91,149.51c-2.64,1.66-3.45.77-3.64-4a3,3,0,0,1,2-1.87q.8,3,1.61,5.94Z"/><path class="cls-91" d="M96.58,154.78l-.8.78c-2.58-.37-2-1.75-1-3.25,1-1.16,2.18-.91,3.35-.21C97.62,153,96,153.28,96.58,154.78Z"/><path class="cls-92" d="M93.22,143.65c-.07,1.23-.85,1.71-2,1.87-1.35-.1-1.86-1.43-1.35-2C90.75,142.55,92.13,142.84,93.22,143.65Z"/><path class="cls-93" d="M98.1,152.1l-3.35.21c-1.93-1.05,1.19-1.8.16-2.8l-.08.08C96.1,150.19,97.92,150.07,98.1,152.1Z"/><path class="cls-59" d="M69.57,44.34C83.89,31.79,106.94,33.1,120,46.88c.69.72,3.14,2.1.76,3.39-1.54.84-2.48,4.1-5.42,1.5-13-11.54-27.69-13.8-43.79-7.48a5,5,0,0,1-1.23.23A3.57,3.57,0,0,1,69.57,44.34Z"/><path class="cls-94" d="M113.54,101.65C120.43,96.27,127.44,91,133,84.14c1.34,1.06.76,2.27.21,3.41-3.52,7.26-9.65,11.53-16.87,14.46A2.48,2.48,0,0,1,113.54,101.65Z"/><path class="cls-75" d="M133.88,58.11a13,13,0,0,1,1.62,13.43,5.89,5.89,0,0,1-5.85,2c-3-.57-5.68-1.47-5.28-5.38C130.08,67.21,132.44,63.09,133.88,58.11Z"/><path class="cls-76" d="M108.35,109.89c3.3-.21,6.81.58,9.56-2.12-.48-.71-1.26-.42-1.91-.55,2.88-1.32,3.38-5.64,7.23-5.76C123.23,109.61,115.47,114,108.35,109.89Z"/><path class="cls-61" d="M124.32,68.47a10,10,0,0,0,5.33,5.07c0,1,2.07.06,1.57,1.6-5.62-.22-7.67-4.58-10-8.62-.63-3.39-1.49-6.81.16-10.13.79-1.58,1.62-3.26,3.73-3.48l2,.81C122,57.85,123.16,63.16,124.32,68.47Z"/><path class="cls-95" d="M109.33,105.23v0c-1.14-2.5-2.51-5,.45-7.27l0-.05c1.12-.44,2-1.47,3.78-1.32-1.45,1.78-3.55,3.26-2.27,5.69s3.54,1.85,5.73,1.91C114.87,108.05,111.93,105.39,109.33,105.23Z"/><path class="cls-81" d="M124.32,68.47a12,12,0,0,1-1.69-11,5,5,0,0,1,4.46-3.78c3.11.14,5.24,1.83,6.79,4.39C133.87,65.54,131.61,68,124.32,68.47Z"/><path class="cls-70" d="M109.77,97.93c-1.72,2.33-.55,4.83-.45,7.27C107.3,102.64,106,100.13,109.77,97.93Z"/><path class="cls-96" d="M62.71,146.44c3.91-3.7,6.79-3.79,10.22-.32.74,1.69.38,3-1.37,3.76-2.66,1.1-5.42,1.48-8.06.06A2.15,2.15,0,0,1,62.71,146.44Z"/><path class="cls-97" d="M62.71,146.44c-.45,4,2.52,3.15,4.69,3.16,2.5,0,5.29.22,5.53-3.48,1.44.31,2.59.82,2.51,2.65-.09,2-1.81,2.13-3.08,2.79a15.39,15.39,0,0,1-8.21.52,10.46,10.46,0,0,0-2.4-1.53c-1.14-.37-3,.37-2.65-1.89C59.44,146.76,60.65,145.78,62.71,146.44Z"/><path class="cls-98" d="M64.15,152.08c2.66-1.44,5.44-.81,8.21-.52C69.76,154,67.07,154.9,64.15,152.08Z"/><path class="cls-1" d="M77.49,164.9l11.78,0-.42,0C85.06,164.89,81.28,164.9,77.49,164.9Z"/><path class="cls-1" d="M55.83,165.67c-.19-.45-.35-1-.83-.89A9.94,9.94,0,0,0,55.83,165.67Z"/><path class="cls-99" d="M122.14,165.72c3.63-.57,8.15-4,11-6.83s6.43-.83,9.28-5.14,1.8-5.53,3.58-5.76c.75-.1,2.05-.32,3.3-.54a3.37,3.37,0,0,1-1.83-.94c-.87-1-1.14-.12-1.5.49l-2.35.86c-2.82,2.89-5,6.43-8.66,8.48l-1.82.09c-1.8-.91-1.56,1.69-2.85,1.66l-1.82.76c-.82-.44-1.34-.11-1.68.67-.11.81,0,1.7-.85,2.24a4.06,4.06,0,0,1-5.76-.27,12.86,12.86,0,0,1-1.47-1.39,7.39,7.39,0,0,1-1.1-2.1c-.25-.75-.15-1.57-.47-2.31-.71-.22-1.52-.27-1.84-1.14.54-.94.27-1.51-.78-1.73l-.74.83a5.08,5.08,0,0,1,.48,1.91C114.5,158.88,118.51,166.28,122.14,165.72Z"/><path class="cls-100" d="M61,167.43l0,0,9.24,0A10.67,10.67,0,0,0,61,167.43Z"/><path class="cls-101" d="M55.83,165.67a5.83,5.83,0,0,0,4,1.77h.34a5.22,5.22,0,0,1,.76-1.09,12,12,0,0,1,9.5-.14c.53.43,1,.84,1.46,1.25,9,0,19.56,0,21,0a11.67,11.67,0,0,0,4.56-.93l-1-.95c-1.06-.95-2.34-.7-3.61-.69H91.53a10.66,10.66,0,0,1-2.26,0l-11.78,0h0c3.79,0,7.57,0,11.36,0l.42,0h2.26a2.64,2.64,0,0,0,1.66-1c-.57-.5-1.13-1-1.69-1.52C90,160.75,87.89,161.06,86,161c-5.75-.07-11.51.08-17.26-.07-3.62-.09-7.28.8-10.87-.41a13.51,13.51,0,0,1-1.27-.62,6.26,6.26,0,0,0-1.92-.62,1.71,1.71,0,0,0-1.92,1.3A14.45,14.45,0,0,0,55,164.78C55.48,164.69,55.64,165.22,55.83,165.67Z"/><path class="cls-101" d="M77.49,164.9h0Z"/><path class="cls-101" d="M91.53,164.87H89.27A10.66,10.66,0,0,0,91.53,164.87Z"/><path class="cls-101" d="M61,167.43a10.67,10.67,0,0,1,9.2,0h1.72c-.45-.41-.93-.82-1.46-1.25a12,12,0,0,0-9.5.14,5.22,5.22,0,0,0-.76,1.09H61Z"/><path class="cls-102" d="M70.19,167.47l.22.1H72l-.13-.11Z"/><path class="cls-97" d="M59.17,149.82s1.9,4.48,13.93,1.42l-8.44-1Z"/><path class="cls-88" d="M89.72,144.9,96,158.6l6.14-4.49s-7.93-6.19-9-10.46C93.22,143.65,88.83,140.79,89.72,144.9Z"/><path class="cls-103" d="M96.52,165.56H58.75v-1.65H93.19C94.92,163.22,96.49,162.83,96.52,165.56Z"/><path class="cls-101" d="M58.74,163.91s1,1.65,3.93,1.65-4.4.85-4.4.85l-2.44-3Z"/></g></g></g></svg>