<svg xmlns="http://www.w3.org/2000/svg" xmlns:xlink="http://www.w3.org/1999/xlink" viewBox="0 0 200 200"><defs><style>.cls-1{fill:none;}.cls-2{fill:#1f1f1f;}.cls-3{fill:#3a3e5e;}.cls-4{clip-path:url(#clip-path);}.cls-5{clip-path:url(#clip-path-2);}.cls-6{fill:#bababa;}.cls-7{fill:#f6f6f6;}.cls-8{fill:#a2a2a2;}.cls-9{fill:#8c8c8c;}.cls-10{fill:#8f8f8f;}.cls-11{fill:#a1a1a1;}.cls-12{fill:#d7d7d7;}.cls-13{fill:#868686;}.cls-14{fill:#878787;}.cls-15{fill:#9b9b9b;}.cls-16{fill:#424242;}.cls-17{fill:#7d7d7d;}.cls-18{fill:#b9b9b9;}.cls-19{fill:#6b6b6b;}.cls-20{fill:#a8a8a8;}.cls-21{fill:#959595;}.cls-22{fill:#2b2b54;}.cls-23{fill:#88b1be;}.cls-24{fill:#f9f1e9;}.cls-25{fill:#54b26a;}.cls-26{fill:#5c8f9e;}.cls-27{fill:#788d95;}.cls-28{fill:#1f2829;}.cls-29{fill:#6f9098;}.cls-30{fill:#c9cfca;}.cls-31{fill:#a18a71;}.cls-32{fill:#80898a;}.cls-33{fill:#080707;}.cls-34{fill:#0c0b0a;}.cls-35{fill:#100b0f;}.cls-36{fill:#0d1312;}.cls-37{fill:#211a15;}.cls-38{fill:#271d1c;}.cls-39{fill:#393031;}.cls-40{fill:#e37533;}.cls-41{fill:#ba210d;}.cls-42{fill:#caafa8;}.cls-43{fill:#8e556d;}.cls-44{fill:#6a91ab;}</style><clipPath id="clip-path"><circle class="cls-1" cx="100" cy="100" r="93.27"/></clipPath><clipPath id="clip-path-2"><path class="cls-2" d="M1582.21,1902.49c143.49-133,233.59-302.3,313.84-478.55,100.32-220.61,162-449.21,154.24-692.45-6.27-199.82-34.73-397.17-89.63-590-4.6-16.27-10-32.2-24.73-42.64-16.55-2.1-20.5,9.06-22.85,22a36.26,36.26,0,0,0,0,4.17c-15.52-57.15-43.39-109.72-67.69-163.52C1761-225,1659.68-399.38,1503.68-538c-223.3-198.44-473.53-316.57-780.38-308.13C382.37-836.74,99.44-703-114.14-446.91-439-57.33-550.43,404.58-481.09,900.84c55.18,395.44,237.88,737.84,530.72,1012.78,166,155.77,365.5,256.91,591.22,301.14C640.85,2214.76,1154,2299.34,1582.21,1902.49ZM1691.94,354.86a62.32,62.32,0,0,1,2.25,14.17c-.44-4.86-1.38-9.41-2.13-14.17Z"/></clipPath></defs><g id="Layer_2" data-name="Layer 2"><g id="Layer_1-2" data-name="Layer 1"><circle class="cls-3" cx="100" cy="100" r="100"/><g class="cls-4"><path class="cls-2" d="M1582.21,1902.49c143.49-133,233.59-302.3,313.84-478.55,100.32-220.61,162-449.21,154.24-692.45-6.27-199.82-34.73-397.17-89.63-590-4.6-16.27-10-32.2-24.73-42.64-16.55-2.1-20.5,9.06-22.85,22a36.26,36.26,0,0,0,0,4.17c-15.52-57.15-43.39-109.72-67.69-163.52C1761-225,1659.68-399.38,1503.68-538c-223.3-198.44-473.53-316.57-780.38-308.13C382.37-836.74,99.44-703-114.14-446.91-439-57.33-550.43,404.58-481.09,900.84c55.18,395.44,237.88,737.84,530.72,1012.78,166,155.77,365.5,256.91,591.22,301.14C640.85,2214.76,1154,2299.34,1582.21,1902.49ZM1691.94,354.86a62.32,62.32,0,0,1,2.25,14.17c-.44-4.86-1.38-9.41-2.13-14.17Z"/><g class="cls-5"><path class="cls-2" d="M2185.69-721.12l-186.84,2860a19.16,19.16,0,0,1-9.41.81c-623.35,444.32-1287.55,217.82-1951.22,0a29.8,29.8,0,0,1-9.56-.53c-2.8-4.26-1.57-9.06-1.57-13.64C27,1800.82-989.33,1851-989.33,1526.17c0-418.64-89.56-1256.9-89.5-1675.51,0-171.67,810.64-307.57,1105.89-470.24,4.2-2.32-2.7-10.63,3.13-14.42,3.14-.19,7.21,2,9.63,0,792.26-680.22,1418.91-572.76,1947.81-.16C1990.16-631.31,2182.06-722.85,2185.69-721.12Z"/><path class="cls-2" d="M857.16,962.88c3.39,3.14,5.08,5.24-.34,8.78-31.07,20.44-61.2,42.26-95,58.34-13.61,6.49-26.65,14.08-41.1,18.81-1.41.44-2.76,1.16-2.79,2.92s1.56,2.31,2.79,3.13c32.94,18,51.53,48.06,68.56,80,17.93,33.58,27.21,69.66,34.64,106.59.69,3.55,1.57,7.87,4.39,9.41,11.75,5.61,11.25,16.77,13,26.83,5.7,34.49,7.08,69.88,16.14,104,3.45,12.92,3.39,13.76,16.71,10.22a212.78,212.78,0,0,1,58.69-6.9c29.46.5,49.12,16.18,55,44.71,2.17,10.34-1.66,19.59-5.48,28.65a204.29,204.29,0,0,1-20.82,36.24c35.9-3.13,71.13-6,106.25-9.91,30.84-3.48,61.63-9.4,92.7-8.18a160,160,0,0,1,90.13,30.5c21.94,16.06,38.24,36.4,52.29,58.88,9.72,15.49,13,33.64,16.27,51.32A147.21,147.21,0,0,1,1316,1683c-14.36,53.3-46.61,91.64-97.18,114.37-22.64,10.15-46.74,13.35-71.2,14.76-6.27-1.06-10.25-3.51-6.27-10.63,3.48-3.41,8-3.13,12.36-3.13,34.48-2.35,66.46-12,94-33.61,52-40.75,71.86-110.07,51.79-167.91-21-60.69-63.79-95.46-126.27-106.15-18-3.13-36.62-1-54.93,1.29-48.9,6.27-98,10.28-147,15.52q-57,6.1-113.9,12.54c-38,4.23-76.55,8-114.83,12a92.84,92.84,0,0,0-18.09,2.75c-28.68,1.32-57,7.09-85.74,7.37a47.18,47.18,0,0,0-5.89,1.54c-19.54.91-38.82,5.11-58.41,5.36a14.81,14.81,0,0,0-5,1.32c-20.32,3.13-40.76,4.26-61.36,6.08-8.65.75-17.08,3.13-25.8,3.13-24.42,2.42-48.81,5-73.13,8.12-36,2.82-71.89,7.24-107.85,10.69-36.49,3.51-72.85,8.25-109.34,12-17.4,1.75-34.93,2.82-52.11,6-65.83,12.22-115.46,61.79-124.67,127.87-12.7,90.92,48.34,161.52,127.93,175.12,22.42,3.86,44.71.5,67-1.72,31-3.14,62-6.93,93.08-9.41,21.94-1.82,43.88-4.64,65.83-7.37,24.86-3.13,49.88-5,74.74-8.18,16.52-.5,32.76-4.17,49.28-4.73a17.63,17.63,0,0,1,8.56.59c4.32,6.27-.88,9.66-4,13.7-20.95.79-41.54,4.46-62.33,6.49-19.65,1.95-39.31,3.55-58.9,5.93-35.43,4.29-71,6.64-106.43,11.6-25.08,3.51-50.16,4.7-75.24,7.71a197.41,197.41,0,0,1-68.09-3.92c-16.49-3.73-31.35-11.47-45.59-19.47-37.62-21.06-60.34-54.64-74.14-94.61a146.33,146.33,0,0,1-.19-98.53C24.14,1648.93,54.52,1611,104,1591.78a203.77,203.77,0,0,1,59.56-12.91c19.41-1.35,38.75-3.45,58.09-5.58,27.65-3.14,55.21-7.43,83.05-8.12,7.83-.19,10-2.51,9.72-10.07-.54-15.67-.47-31.5,0-47.27.5-18.81,1.94-37.62,2.32-56.65.31-14.51-.51-29.09-.66-43.64,0-5-3.14-5.45-7-5.45-13.45,0-26.93.91-40.29,0-36.14-2.76-69.15-13.61-97.18-38.09-32.35-28.22-47.93-65-56.84-105.56a24.15,24.15,0,0,1-.88-5.14c0-8.34-4.13-11.13-12.38-13.2-24.55-6.27-43-22.35-59.28-41.06-19.28-22.1-25.08-48.78-25.46-77-.28-15.67,5.77-30.12,8.78-45.17,7.24-36.05,13.58-72.29,21.1-108.28,2.51-12,3.13-24.14,6.27-36s-.6-16.05-12.54-14.83c-6.49.66-13.45-.63-19.72,4.67-5.52,4.64-11.29.25-16.14-4.14-16.34-14.64-29-32.57-43.89-48.5-.32-4.82,0-4.92,6.74-3.51a17.15,17.15,0,0,1,7.3,7.28,28,28,0,0,0,7.84,10.22,9.82,9.82,0,0,1,1.41,2C-9.81,895.48-4.7,906.11,7.43,910a18.8,18.8,0,0,0,14.42.81c5.77-2.16,13.33-3.13,7.59-12.54a5.45,5.45,0,0,1,2.08-7.43l.3-.16a6.71,6.71,0,0,1,8,1.73c5,4.23,8.34,10.34,15.21,14.14,6-27.81,10.94-55.18,16.65-82.39a30.24,30.24,0,0,0-1.2-8.24c-3.76-7.18-9.4-13.17-12.54-20.7C30,749.77,15.43,699.61,6.58,647.57a579,579,0,0,1-8.9-99,20.59,20.59,0,0,0-4.17-13.85c-6.08-7.53-4.86-16.46-3.79-25.08A440.14,440.14,0,0,1-.37,457.28c2.35-9.63,4-19.44,6.86-28.91,1.13-3.73,1.54-8.31,6.8-9.06,4.42,3.14,4.46,7.9,3.45,12.54a85.87,85.87,0,0,1-2.54,13.48c-4.45,11.13-1.6,22.6-2.91,33.83.59,10-2.7,19.56-3.64,29.4C6.46,521.32,6.3,521.29,18,525.12a6.7,6.7,0,0,1,1,9.43,7.7,7.7,0,0,1-.54.6c-1.76,2.32-4,4.23-3.8,7.49A768.23,768.23,0,0,0,24.89,651.17c1.29,7.15,3.89,10.16,11.48,8.87s14.83-3.13,22.22-4.42a257.49,257.49,0,0,0,53.3-16.93,389.11,389.11,0,0,0,62.51-32.85c8.28-5.42,8.49-6.43,4.76-15.67A343,343,0,0,1,166,550.38a18.31,18.31,0,0,1-.63-9.4c2.32-4.89,4.42-9.91,9.22-13,4.73,1.25,4.54,5.64,5.48,9.09a365.88,365.88,0,0,0,18.06,53c1.07,2.51,1.44,6.27,5.24,6.08,3.13-.28,3-3.92,4-6.27,4.61-10.41,11.72-13.39,21.44-8.87-2.66-6.62-7.84-11.26-12.54-16.4-12.54-13.95-17.84-31.35-21.07-49.28-6.86-38.18-7.71-76.52.69-114.71a139.11,139.11,0,0,1,14.8-39.15,68,68,0,0,1,28.66-28.66,33.67,33.67,0,0,0,13.54-12c27.87-42.26,65.52-73.64,110.47-95.74A293.2,293.2,0,0,1,482.5,194c42.29-1.6,83.14,3.51,122.27,19.66,8.33,3.45,16.27,7.87,25.48,8.84a11.26,11.26,0,0,1,6.27,3c21.19,19.09,46,34,64.77,55.86,8.21,9.56,15.68,19.6,23.11,29.69a10.33,10.33,0,0,1,2.53,8.94c-6.67,4.54-10.37,3.79-18.62-3.7-10.59-10.41-19.12-22.64-29.75-33.08C636.65,242,586.43,219,528.08,212.56c-49.78-5.52-97.46,2.48-143.67,21a53.08,53.08,0,0,0-7.68,4.14C333,257.64,298,288.08,269.42,326.52c-5.14,6.92-8,13.41-4.42,22.44,2.79,7,1.54,15,.5,22.51C263,389.78,268.64,406,278,421.29c2.95,4.82,5.58,4.67,9.56,1.06,12-10.94,26.34-14.42,42.2-12.54,4.45,1.95,9.87-5.08,13.79,1.54,1.82,8,8.47,11.63,14.39,15.67,4.89,3.33,6.49-3.7,10.32-4.32,5.14-2,10.69-8.62,14.92,1.19a16.21,16.21,0,0,1-4.86,10c-5.61,6.83-5.8,13.39-2.29,21.66a154.69,154.69,0,0,1,8.21,99.07,60.36,60.36,0,0,1-4.86,14c-3.95,7.68-6.27,15.52-3.38,24.11a13.19,13.19,0,0,1-10.13,5.45c-8.65,0-13.82,6.49-19.43,11.22-3.73,3.14,1.53,7.69,2.82,11.64a49.29,49.29,0,0,0,3.6,7.64c2,4.39,3.89,9.16-1.69,12.7-4.08.31-6.27-2.41-8.65-5.11a94.2,94.2,0,0,1-9.6-12.54,25.05,25.05,0,0,0-18.15-13.32,45.21,45.21,0,0,1-25.92-17,28.76,28.76,0,0,0-21.76-11.13c-6.27-.44-12.54-2.2-19.87-3.14,2.53,11.07,9.21,19.25,14.1,28.22,17.81,33.23,48.41,52.16,79.32,70.63a195.38,195.38,0,0,0,28.74,14.86c2.92,1.16,6,2.51,6.52,6.27a9,9,0,0,1-12,4.27l-.5-.26a201.84,201.84,0,0,1-31.07-16.27c-6.43-4.26-14.24-6.27-19.85-12.19-1.47-1.51-3.88.43-5.92,0a7.54,7.54,0,0,1-2.57-.6,63.59,63.59,0,0,1-14.49-9.69c-4.6-3.82-8.12-3.76-11,2-4,8.06-9.12,15.67-11.85,24.3-3.76,11.94-.63,21.72,8.65,29.87a274.92,274.92,0,0,0,70.54,43.3,447.93,447.93,0,0,0,134.8,35.17,416.3,416.3,0,0,0,111.48-3.14c15.86-2.57,25.39-11.78,33-24.51,7.71-8.25,8.22-8.12,13.45,3.38-.28,15.05-10.53,23.33-21.38,31a39.49,39.49,0,0,1-17.12,6.27c-113.17,16.52-219.66-.35-316.63-63.7A188.15,188.15,0,0,1,268,736.88c-14.39-11.63-22.2-26.11-19.6-45a12.54,12.54,0,0,0-6-12.54A120.21,120.21,0,0,1,217.6,656c-4.14-5.42-7.34-4.51-12-.44-33,28.5-69.53,51.1-111.7,63.61-5.33,1.6-10.78,2.57-16.08,4.14a211.47,211.47,0,0,1-25.9,4c-5.42.59-6.08,2.76-4.23,7.46,23.77,61.13,58.81,113,117.91,145.59a343.76,343.76,0,0,0,32.7,14.58c9,3.85,12.16,7.8,10.31,12.75s-6.61,6.84-16,3.7c-2.23-.69-4.45-1.38-6.61-2.19a5.24,5.24,0,0,0-7.2,1.75,5.36,5.36,0,0,0-.74,2.23c-5.36,19.28-10.22,38.69-14.73,59.56a629.55,629.55,0,0,1,66.9-23.32c27.56-9.06,56-13.82,84.64-18.15a74.24,74.24,0,0,1,8.62-1.35c16-.63,14.64-2.38,17.09-18.31a783.28,783.28,0,0,1,15.67-78c2.51-9.41,7.43-14.2,17.5-15a583.2,583.2,0,0,1,84.64,0c14.83,1,29.66,1,44.52,2A709.31,709.31,0,0,1,611,834.91c12.54,2.73,14.24,5.39,15.3,18.22a494.07,494.07,0,0,1,1.66,76.74c-.62,8.9-2.54,17.71-2.6,26.68a403.91,403.91,0,0,0,2-87.44c-.47-5.2-.28-10.47-1-15.67a7.15,7.15,0,0,1,5.47-8.51l.27,0a7.94,7.94,0,0,1,9.41,4.67,15.06,15.06,0,0,1,2,8.4c-.59,10.47,1.88,20.79,1.32,31.35a77.41,77.41,0,0,1,.22,14c-.16,5.55,1.75,8.06,7.68,7.31a540.4,540.4,0,0,0,133.67-36c4.83-2,5.3-4.42,2.42-8.56a237.78,237.78,0,0,1-19.47-36.05c-15.86-36.68-24.39-75.24-30.88-114.49-2.07-12.54-2.07-12.54-14.26-10-20.51,4.45-41,9.06-62,10.59-6.55.47-12,4.39-18.06,6.27-1.63.47-3.39.16-5,.57-2.35.59-4.67,1.06-5.89-1.6a4.19,4.19,0,0,1,2.34-5.46,1.57,1.57,0,0,1,.23-.09c2.32-1.19,1.91-2.1.41-3.48.63-7.43,8-7.9,12-11.79,5.8-7.68,11.63-15.17,21.94-17.58,5.43-1.26,7.31-6.53,8.81-11.2a32,32,0,0,1,13.48-17.49c6.27-4,11.16-9.4,9.41-18.09a5.36,5.36,0,0,1,3.31-6.82l.48-.14c9.56-1.13,18.5-5.08,28-6.05a4.63,4.63,0,0,1,3.13,1.26c2.89,5.42-1.38,9.06-3.38,13.26-1.35,2.85-3.7,5-5.21,7.8-13.29,19.28-28.21,37.06-47,50.79a542.43,542.43,0,0,0,62.95-14.11q60.95-16.08,120.29-37.3c14.57-5.18,29.12-10.38,43.57-15.87A17.67,17.67,0,0,0,919,619.67c3.83-8.25,11.16-12.2,19.44-15.15,38.93-13.73,79.16-22.1,119.88-28.21a137.09,137.09,0,0,0,23-5.17c3.13-1.1,6.61-2.57,10.19-1.13,1.94,2.73,4,1.1,6.27.31,31.94-11.91,64.45-21.94,98.28-26.93,32.85-4.76,65.83-8.46,98.56,1.6,14.33,4.42,18.65,13.61,12.79,27.71a156.16,156.16,0,0,0-6.27,19.82c-2.63,9.81-8.4,14.07-18.4,15-32.13,2.76-64.52,1.66-96.46,6.87a10.2,10.2,0,0,0-6.27,2.47c-1.6,1.66-3.92,3.14-3.14,5.87s3.83,2.19,6,2.16a180.36,180.36,0,0,1,39,3.42c9.19,1.88,18.37,5.58,18.62,16.61.22,10.38-6.52,17.59-15.2,22.92A173.36,173.36,0,0,1,1153,692.24c-29.29,3.14-51.86,17.21-74,34.17-8.75,6.71-17.93,12.85-27,19.19s-10.82,13.51-3.86,21.66c11.85,13.89,6.87,19.69-.25,35.36-2.07,4.55-7.52,1.1-10.06,4.39-3.42-6.52,1.69-11.07,4.17-15.86a13.46,13.46,0,0,0-1-16.12c-3.14-4-5.58-6.95-10-1.85-.57.63-1.57,1.45-2.23,1.23-10.16-3.33-15.86,5.23-23.45,8.74a19.37,19.37,0,0,1-13.61,1.35,15.14,15.14,0,0,0-13.82,3.14c-37,26.36-75.08,51-116,71.19-2.89,1.44-5.4,3.45-8.25,5a710.14,710.14,0,0,1-128.19,49.34,535.76,535.76,0,0,1-71,14.76c-7.14,1-10.47,3.89-9.68,11.29a32.31,32.31,0,0,1-.28,11.35c-3.8,13.57-.19,24,12.32,30.88,4.48,5.08,8.55,9.4,17,7.08,6.27-1.85,11.94,2.26,14.67,8.5s2.07,12.91-3.39,16.74c-9.4,6.65-6.89,16.61-8.68,25.36-.69,3.14,2.13,4.36,4.92,4.89a49,49,0,0,0,29.19-1.91c40.06-17.09,79-36.27,114.89-61.13,7.9-5.46,16.81-9.41,24-16C851.39,963.1,854,960.94,857.16,962.88Z"/><path class="cls-2" d="M882.8,6.56a1.22,1.22,0,0,1-1.22-1C877.32-.71,870.39-3.85,864.25-7.8A12.64,12.64,0,0,1,862.18-9c-6.27-9.15-15.4-13.92-25.08-18.18a9.45,9.45,0,0,1-2.92-2.16,10.38,10.38,0,0,0-8.71-5.11c-13.11-6.43-25.3-14.49-37.91-22a588.26,588.26,0,0,0-96.21-43.89c-14.2-5.11-28-11.88-43.2-14a4.54,4.54,0,0,1-3.13-2.54c-.6-6.74,4.58-7,9.06-8.09a9.58,9.58,0,0,0,1.75-2.6,32.16,32.16,0,0,0-6.64-21,5.71,5.71,0,0,1-1.6-4.33c2-6-3.14-3.82-5.58-5-15.21-7.37-32-7.43-48.06-10.22-18.53-3.14-37.27-4.92-56-6.52-11.41-1-23.2-2.64-34.48,1.78a23.88,23.88,0,0,0-8.62,10.13c-2.64,4.67-5.49,9.4-8.12,13.89,4,3.35,10.09,1.41,12,6.93-1.6,4.82-6.27,5.2-10,6.83-8.81,1.85-17.34-.94-26-1.51-4.42-1.5-9.15-1.47-13.64-2.57-2.82-.69-.91,1.76-1.88,2.2-7.05,4.7-15.3,3.13-22.91,4a610.77,610.77,0,0,0-122.93,25.08,37,37,0,0,1-9.4,2.13c-11.79-.78-21.57,5-31.63,9.78a7.63,7.63,0,0,1-3.14,1.6,13.13,13.13,0,0,0-10.31,4,7.28,7.28,0,0,1-4.23,2c-7.53.37-13.17,4.86-19.16,8.65A12.94,12.94,0,0,1,217-76.39,15.49,15.49,0,0,0,205.84-71a26.75,26.75,0,0,1-9.4,5,26.54,26.54,0,0,0-14,7.75c-10.35,6.74-19.91,14.73-31.6,19.31C133.39-31.31,117.19-22,105.68-6.23c-5.89,8.56-15,13.61-22.51,20.41C39.75,53.65-.09,96.13-29.69,147.23a11,11,0,0,1-6.05,6c-5.26.66-8-2.25-7-6.86,1.82-8.37-2.88-8.25-8.53-7.71A15.66,15.66,0,0,0-67,147.38a531.5,531.5,0,0,0-34,69.82c-4.42,11.07-2.72,14.2,7.37,20.6,2.38,1.53,2.82,1.85,4.11-.6a9,9,0,0,1,4-3.29c1.94-1.07,4-3.14,6.27-1.41s1.63,4.2,1.29,6.52a26.56,26.56,0,0,1-2.26,8.4c-5.71,10.69-7.81,23.11-15.68,32.73-2.72-.69-6.83,2.88-8-2.57A40.38,40.38,0,0,1-102,270c5.33-11.75,4-21.35-6.68-30.06-8-6.59-6.93-16-3.13-25.08,5.45-13.14,12.26-25.68,16.39-39.41A31.83,31.83,0,0,0-93.8,161c-.91-6-.18-11.13,7.75-11.6a14.66,14.66,0,0,0,12.54-8.71c6.74-14.9,19.37-13.17,31.35-11.35,6.67,1,10.66.37,14.67-5.49A617.74,617.74,0,0,1,64.14,17.72a745.46,745.46,0,0,1,68.28-53.95,443.12,443.12,0,0,1,43.67-28.62,625.4,625.4,0,0,1,106.15-48.44c25.71-8.56,51.48-16.83,78.12-21.47,30.57-5.33,61-12.54,92.3-11.29,16.49.69,26.58-6.67,33.1-20.25s15.68-19.22,30.91-18.81a539.13,539.13,0,0,1,86.06,8.65c9.09,1.67,18.34,2.83,27.52,4.05,15.4,2.1,23.89,10.69,27.18,25.42a81.76,81.76,0,0,0,7,19.66,22.41,22.41,0,0,0,16.12,12.07,215.43,215.43,0,0,1,56.21,21c21.94,12.07,45,21.67,66.24,35A832,832,0,0,1,883.27-2.37c.85.69,1.79,1.25,2.8,2,1.84-4.54-.82-9.21,2.47-13.51,4.14,3.86-.37,10.16,4.33,13.42,4,2.82,9.4,0,14.54,4Z"/><path class="cls-2" d="M-121.51,379.81a10.68,10.68,0,0,0,1.35-7.43c.31-4.55-.79-9.4,2.16-13.48a11.47,11.47,0,0,0,1.54-7.46c1.47-10.66,1.35-21.66,7.08-31.35l12.14-40.35c4.63-15.2,14.07-28.62,17.49-44.73-6.93,1.44-10.69,5.45-13.76,13.88,0-6.11.15-8.24-4.83-9.24-7.43-1.48-10.35-10.69-7.43-18.81,9.78-26.9,23.29-52,37.05-77a14.3,14.3,0,0,1,16.9-7.74c9.41,2.29,11.22,6.27,8.87,21.22-.44-5.14,4-4.42,7.12-5.3C-1.35,91.36,45.68,41.27,99.22-2.81c1.79-1.47,3.36-3.14,5-4.77A143.15,143.15,0,0,1,137.5-33.47a66.13,66.13,0,0,1,12.76-7.3c10.94-5.15,19.66-14.08,31-18.53,3.64-4.39,9.06-5.68,13.92-7.87L204-72a22,22,0,0,1,12.11-5.89l5.45-2.67c6.61-3.85,13.07-8.12,20.88-9.4l3.67-1.6a15.69,15.69,0,0,1,10.22-3.92l2-.91a108.21,108.21,0,0,1,31.35-11.35c31.35-9.4,63.11-18.4,95.71-23.13,20.72-3.14,41.54-5.3,62.29-7.9a22.55,22.55,0,0,1,13.67-.32l28,2c1.91-2.07,4.39,0,6.52-.88,3.13-1.38,5.23-2.82,1.94-6.27a18.54,18.54,0,0,1-5.17-19.56c2.07-3.67,3.13-8,7.46-10,2.32.28,4.7-.75,7,.34,16.15,5.3,33,7.15,49.66,9.75,25.08,3.89,50.47,4.55,75.68,7.34a12,12,0,0,0,6.74-.91c2.19-1.16,4.38.19,6.58,0,2.26.53,4,1.5,3.13,4.29l1.51,3.92c1.79.94,1.91,2.7,2.07,4.42-2.64,12.54-12.07,17.72-23,21.13,3.14-2.1,5.93-.56,8.65,1.19s5.39,1.85,7,4.52c39.16,9.62,76,25.27,112.42,42.2,22.7,10.53,43.52,24.23,65.3,36.36,1.7.94,2.32,3.39,4.67,3.64,4.17.22,6.27,3.13,8.69,6.27l1.72,1A77.5,77.5,0,0,1,864.18-8.86H864c3.77,2,7.62,3.92,9.06,8.4A23.35,23.35,0,0,0,874.34,9C890.45,43.12,900,79.42,907.88,116.13a569.29,569.29,0,0,1,10.91,75.77c1.45,18.81,3.61,37.62,3.14,56.43-1.79,60.91-9.41,121-27.71,179.38C888,448,881,468.09,873,487.78a10.41,10.41,0,0,1-6.68,7.27,49.82,49.82,0,0,0-35.17,48.84c0,6.65-1.07,13.42,1.1,20a7.56,7.56,0,0,1-1.76,6.46,647.13,647.13,0,0,1-64.2,86.93c-6.71,7.68-13.83,15-20.82,22.36a6.68,6.68,0,0,0-1.85,4.76c-9.4,5.08-20,5.89-30.13,8.28-12.54,2.94-25.51,5-38.71,6.8a294.66,294.66,0,0,0,51.19-55.61,36.39,36.39,0,0,0,18.81-14.52c3.14-5.08,5.86-9.4-1.32-13.45-1.28-.69-1.47-2.38-1.56-3.88a23.92,23.92,0,0,1,3.13-9.88,278.83,278.83,0,0,0,23.48-89.91A314.82,314.82,0,0,0,754.8,385.55a234.49,234.49,0,0,0-25.08-55.27c-2.88-3.14-2.91-7.09-3.57-10.88a256.27,256.27,0,0,0-79.78-80.88c-3.39-2.2-6.93-4-8.31-8.43a7.23,7.23,0,0,0-6-4.68c-18.56-1.16-33.76-11.94-50.91-17.27-118.22-36.71-257.07,11.79-326,114.61a32.82,32.82,0,0,1-13.82,12.54c-14.64,6.74-24.05,19-31.1,33.2A167.41,167.41,0,0,0,194,431.73c-2.38,33-1.44,65.83,7.81,98.09,4.23,14.86,10.53,28.21,22.82,38.43,5.68,4.71,6.52,12.54,10.44,19.91-5.42-2.95-8.21-8.53-14.42-7.15-6.74,1.48-11.47,5.3-11,12.54.32,5.33-2.16,6.27-6.27,7.27-5.14,1.42-5.11-2.63-6.27-5.17a384.88,384.88,0,0,1-22.54-67.93,3.13,3.13,0,0,1-1.59-3.76c6.27-15.05.34-30-.82-44.83-1.29-16.84-3.13-33.67-5.67-50.41A40.09,40.09,0,0,1,167.6,413a49.6,49.6,0,0,0-3.14-35.74c-4.11-7.93-3.13-10.59,4.55-14.86,29.25-16.33,48.53-41.35,62-71.29a210.06,210.06,0,0,0,11.66-32.1,51.31,51.31,0,0,0-19.16-52.73,15.85,15.85,0,0,0-8.68-3.79c-8.34-.16-13.23-4.83-17.18-11.6a112.68,112.68,0,0,0-14.54-19.66c-10.22-11-20-12.54-31.35-3-7.43,6.26-14.39,11.06-24.74,10.4-6.11-.4-11.16,4.67-17,6.62A207.37,207.37,0,0,1,69.16,196a59.72,59.72,0,0,1-33.36-4.58c-.47-.34-1.09-.75-1.16-1.25-2.51-19.44-8-38.84,3.14-57.75A207.59,207.59,0,0,1,113.67,58c7.06-4.11,14-8.34,21.45-11.82a36.74,36.74,0,0,1,30.5-1.44,27.69,27.69,0,0,0,19.69.87,30.66,30.66,0,0,1-18.09-2.35,36.31,36.31,0,0,0-32.13,1.07c-40.76,19.81-74.93,47-98.32,86.49-6.45,10.88-10.09,21.95-7.14,35,1.85,8.21,3.13,16.68-.38,25.08-1.25,3.13-.5,5.14,3.14,5.36,16.36.47,32.72,2.88,49-.79a5.05,5.05,0,0,1,5.23,2.39c-3.42,10-8.68,19.18-17.59,24.89a67.94,67.94,0,0,0-29.87,42.41c-5.27,20.6-4.86,41.57-3.14,62.48A69.41,69.41,0,0,1,34,355.23c-5.86,18.59-11.72,37.21-16.8,56.06a10.8,10.8,0,0,1-4.73,8A567,567,0,0,0-8.71,519.91c-.51,4.45-.44,9.41,3.29,12.17,6.27,4.54,5.7,10.59,5.83,17C1.79,622,12.67,693,42.32,760.24c5.4,12.22,11.85,24,17.81,36-3.86,3.13-7.15.28-10.44-1.13-7.24-3.14-13.89-7.37-21-10.72-1.73-.82-4.2-1.79-5.24.84-.75,1.95,1.25,3.14,2.67,4a264.46,264.46,0,0,0,30.69,16.68,72.28,72.28,0,0,1,15.67,9.41c3,2.66,1.54,6,1.29,9.09-3.14,5-7.24,2.48-10.76,1.1A596,596,0,0,1-12.22,789c-13.14-7.43-25.77-15.68-38.6-23.64a46.71,46.71,0,0,1-8.3-7.59A527,527,0,0,1-105,644.12a598.33,598.33,0,0,1-22.2-137.53c-.15-2.89-.78-5.74-1.16-8.59-2.22-7.93-1.28-16-.5-23.95v-8.87a27,27,0,0,1,.44-15.27l4.92-54.74A30,30,0,0,1-121.51,379.81Z"/><path class="cls-2" d="M12.82,419.19c4.36-22.33,11.88-43.89,18.81-65.34a53.76,53.76,0,0,0,2-23.13,225.3,225.3,0,0,1,.53-56.43c2.45-16.9,8.18-33.17,21-44.05a342.3,342.3,0,0,0,31.34-31.13c6.71-6.61,15.68-9.9,23.08-15.45s15.14-11.2,25.52-7.43c2.57.91,4.29-1.1,5.95-2.79a90.6,90.6,0,0,1,6.87-6.71c14.23-11.48,25.74-10.6,38,3a136.46,136.46,0,0,1,17.4,25.08c2,3.51,4,5.32,8.25,4.45a15,15,0,0,1,10.09,2c14.39,7.34,30.6,37.62,25.08,55.49-11.29,37.34-27.59,71-57.9,96.75a79.85,79.85,0,0,1-21.57,13.13c-4,1.63-4.92,3.14-2.1,6.74a36.41,36.41,0,0,1,6.74,32.35c-5.61,19.5,0,38.16,1.57,57.09,1.19,15.68,3.13,31.35,5.55,47,1.16,7.14-4.74,11.72-4.64,18.15,0,5.8-4.17,9.12-7.5,13-11.35-11.35-25.92-10.32-40.22-10.6a454.13,454.13,0,0,0-79.12,4.14c-12.26,1.41-24,6.27-36.46,6.27-2.29-2.82-.29-4.39,2-5,5.27-1.34,5.24-5.23,5.05-9.4,1.07-5.2,5.71-5.08,9.4-6.08,8.91-2.45,18.25-2.54,27.18-4.86a393.51,393.51,0,0,1,97.53-1.82c10.76,1,12.17-.34,11-11.25-4.08-37.06-8.75-74-12-111.17-.22-2.6-1-5.17-1.1-7.77,0-6.12-3.41-8-9.06-7.68a81.08,81.08,0,0,1-30-3.58,18.39,18.39,0,0,1-8.31-4.58,8.34,8.34,0,0,1-2-8.9c1.32-3.67,4.48-4.29,7.87-4.14A92.78,92.78,0,0,1,122.36,357c23,4.7,42.73-2.32,59.72-17.49,25.33-22.61,40.94-51.13,49.78-83.68,4.08-15-1.85-26.77-11.38-37.43a14.6,14.6,0,0,0-12.85-4.07c-6.93-.54-14.83,3.32-20.25-4.3,6.74-14.45-5.3-21.79-11.95-31-4.57-6.27-10.47-7.75-17.08-2.67-4.49,3.14-8.28,6.87-7.12,13.2-.94,3.67-3.54,3.14-6.27,2.54a45.84,45.84,0,0,0-9.4-2,18.79,18.79,0,0,0-13.3,2.42,67.71,67.71,0,0,0-7.36,7.21c-3.14,3.13-1,10.75-8.62,10a14.57,14.57,0,0,0-14.58,3.92c-6.65,8.9-6.9,10.72-.41,19,13.23,16.92,25.77,34.48,39.34,51,3.67,4.49,7.59,8.37,14,4.33,1.47-.63,2.82-1.57,4.38-2.07,6.27-2.07,10.79-6.71,15.46-11.07,3.86-3.38,8.81-4.86,13-7.61a8.94,8.94,0,0,1,2.57-.76c10.19-3.45,11-3.13,11.57,6-3.57,8-10.72,11.91-18.25,15.27-1.85.84-4.67.75-5.64,2.13C159,302.44,143,304.16,132.23,313.66c-15.67,13.8-28.9,14.14-45,.76-4.35-3.64-7.58-8.34-13.79-1.35-4.07,4.61-11.41.91-11.82-5.77a47.94,47.94,0,0,1,6.59-26.74c2.53-4.42,6.67-5.52,10.75-1,6.27,6.92,12.54,13.85,18.4,21,3.76,4.48,7.62,10.34,15.17,6.27,9.13-6.27,9.19-6.93,2.79-15.43q-17.86-23.59-35.36-47.52c-8-10.88-10.44-10.72-18.59,0-1.79,2.32-3.13,4.83-4.89,7.24-12.54,26.18-11.94,53.7-8.06,81.51a50.73,50.73,0,0,1-2.35,24c-11.94,34.77-20.34,70.57-30.44,105.9-.88,3.14-.78,6.27-1.72,9.41s-1.38,7.11-6,7.55c.53-16.58.94-33.23,6-49.25C15.24,426.21,12.54,422.88,12.82,419.19Z"/><path class="cls-2" d="M47,156.23A224.81,224.81,0,0,1,94.27,95.57a249.78,249.78,0,0,1,43.36-30.34A15.35,15.35,0,0,0,145,59.49c11.1,8,16.43,30.28,10,41.95a13.88,13.88,0,0,1-7.15,6.27A109.68,109.68,0,0,0,89.76,163c-4.33,8.81-10.79,11-22.36,8.78C58.19,170,48.91,167.83,47,156.23Z"/><path class="cls-2" d="M47,156.23C51.67,161,55.77,166.92,62.67,168c19.34,3.14,19.66,3.33,27.9-13a99.43,99.43,0,0,1,56.05-49.62A9.87,9.87,0,0,0,153.83,96c1.13-11.57.57-22.7-7.39-32.2a13,13,0,0,1-1.45-4c6.68-2.47,11.35,0,13.92,7.78a64.7,64.7,0,0,1,1.82,32.82c-6.68,34.77-44.89,71.41-79.75,76.21-12.92,1.76-25.08,0-34.74-10C43.14,163,40.32,159.09,47,156.23Z"/><path class="cls-2" d="M30.69,199.11c-6.27.91-8.59-1.32-5.17-7.21a26.48,26.48,0,0,0,2.13-21.07c-4-15.67-.69-29.65,7.62-43.38C59.6,87.32,94.83,60.17,136.59,40.51a34.74,34.74,0,0,1,30.54-.5,22.94,22.94,0,0,0,20.12,1.35c2.1-.94,4.64-1.75,5.71,1.57s-.85,4.39-3.14,5.33a26.81,26.81,0,0,1-21.94.34c-11.51-5.42-22.23-4.14-33.45,1.54-38.56,19.44-71,45.42-93.24,83.23a44.16,44.16,0,0,0-6,34.27,57.14,57.14,0,0,1,.38,22.6A8.22,8.22,0,0,1,30.69,199.11Z"/><path class="cls-2" d="M30.69,199.11c1.26-3.13,1.51-6.74,4.64-8.87a45.58,45.58,0,0,1,14.42,2.32c9.56,3.13,19.25.63,28.75-1.54,10.38-2.41,20.72-5,31.1-7.55-4.45,10-13.89,12.54-23.07,15.45a4.11,4.11,0,0,0-4.77-.91C64.83,203.5,47.72,199.43,30.69,199.11Z"/><path class="cls-2" d="M140.07,141.93c19.22-21.25,24.86-46.74,23.58-75.52C174.52,82.59,156.81,138.11,140.07,141.93Z"/><path class="cls-2" d="M206,211.4a85.25,85.25,0,0,0-27.06,20c-4.7,5.4-9.4,10.66-2.66,18a17.65,17.65,0,0,0,21.47,3.32,53,53,0,0,0,6.77-5.46c1.79-1.5,3.33-3.29,5.24-4.6,2.92-2,5.74-5.49,9.4-.91s.29,7-2.19,9.62c-3,3.14-6.27,5.93-9.59,8.84-8,1.07-11.54,8.47-17.59,12.29-.25-3.51.85-8.62-5.64-4.42a13.41,13.41,0,0,1-4.89.82c-6.43-4.39-12.89-8.59-17.09-15.68-3.13-5.33-5-10.56-2.6-16.49a13.76,13.76,0,0,0-2.13-13.92c-6.27-8.81-11.79-18-18.25-26.61-2.07-2.73-4.83-5.24-4.32-9.19,5-.38,9.62,3.89,14.79,1.13,4.71-.75,6.74,2.73,8.81,5.8,2.95,4.33,5.61,8.81,8.56,13.13,5.86,8.63,5.86,8.63,14.77,2.45a5.48,5.48,0,0,1,6-.56A29.21,29.21,0,0,0,206,211.4Z"/><path class="cls-2" d="M177.78,269.3c-3.29,3.83-8.24,4.77-12.35,7.18-4.42.85-6.27-2.51-8.15-5.26C143.77,252.59,131.76,233,118.78,214c-3.29-4.83-6.67-10.12-6.27-16.61l7.56-6.77a11.05,11.05,0,0,1,4.8,3.66c10.56,15.27,23.13,29.35,31.5,45.87C162.14,251.31,170,260.06,177.78,269.3Z"/><path class="cls-2" d="M177.78,269.3c-7.17-2.85-11.12-9.4-14.86-15.2-13.41-20.75-27.83-40.76-42.1-61a7.78,7.78,0,0,1-.66-2.5c4.14-4.58,9.41-4.8,14.83-3.52,11.13,12,19.28,26.09,28.44,39.47a6.27,6.27,0,0,1,.78,6.27c-4.89,13.61-1,23.08,12.23,30.85,2,1.16,5.92,1.13,2.94,5.11A3,3,0,0,0,177.78,269.3Z"/><path class="cls-2" d="M112.61,197.39c9.06,17.84,21.38,33.6,32.26,50.16,6.46,9.9,12.22,20.25,20.56,28.81a27.38,27.38,0,0,1-15.67,11.94c5.77-5.55,2-10.53-1.19-15.27-12.79-19-25.77-37.9-38.63-56.9-1.78-2.63-3.29-5.42-4.92-8.15C113.33,208.52,108.25,199.74,112.61,197.39Z"/><path class="cls-2" d="M188,209.14,183,211.93a5.07,5.07,0,0,1-6.27-1.78,268.46,268.46,0,0,1-20.25-30.51,6.93,6.93,0,0,1-.25-5.14c11.63-7.15,12.88-7,21.94,3.14A212.17,212.17,0,0,1,191,195.26C195.31,201.4,195.34,205.73,188,209.14Z"/><path class="cls-2" d="M156.28,174.41l22.32,33.67c1.13,1.72,2.19,3.41,4.42,3.73-10.35,8.49-10.09,8.34-17.84-2.54-5.05-7.05-8.21-15.68-15.39-21-3.14-3.13-3.89-6,.72-8.74A41,41,0,0,0,156.28,174.41Z"/></g><path class="cls-1" d="M39.92,155.78a23.94,23.94,0,0,0-.51-3.4,8.73,8.73,0,0,0,.51,3.4Z"/><path d="M128.61,58.45c-6.35,4.43-9.74,5.15-16.23.77C100.65,51.29,88.82,56,77.49,61.6c-1.37.68-2.86,3.18-4.26.35-1-2,.17-3,2.33-3.76,4.07-1.44,5.36-4.74,5.32-9s-2.11-6.05-5.7-7.24c-2.83-.93-5.48-2.38-8.29-3.37-3.65-1.29-11.78,2.29-13.78,6.08-2.48,4.71-.32,8.37,3,11.59,1,1,2.19,1.69,3.27,2.55,7.47,5.86,7.67,9.37,3,17.41-6.31,10.79-11.33,22-4.46,34.7,2.49,4.59.64,8.53-2.76,11.68-4.69,4.36-8.77,9-11.66,14.84-.19.38-.39.75-.6,1.13,0,0-3.42,8-3.5,13.81a23.94,23.94,0,0,1,.51,3.4c2.11,5.21,2.25,8.45,11.22,9.9,1.14,0,2.31-.18,3.44-.27,10.13-.82,18.06-6.95,26.74-11.24,2.67-1.33,4.66-1.93,7.61-.18,10.08,6,25.75,7.36,36.19,1.34,1.51-1.23,18.34-16.15,23.73-26.64,2.86-5.56,6.89-19.31,6.89-19.31h0c.44-2.1.7-4.2-.59-6.27-2.12-3.39-.69-5.46,1.82-8.1,7.62-8,13.7-17,12.66-28.89-.45-5.17-3.07-8.71-7.74-11.09C150,49,138.36,51.64,128.61,58.45ZM75.53,51.57c-.45.82-1.42,1.75-2.39.84-1.39-1.3-.4-3-.15-4.46.16-1,1-1,1.85-.76A3.68,3.68,0,0,1,75.53,51.57ZM56.4,47.19c1.67-2.87,5.17-5.57,8.83-4.23s3.68,5.13,3,8.84c-2.45,2.34-5.47,4.23-8.8,2.79C56.6,53.36,54.88,49.81,56.4,47.19ZM64.64,59c4.14,2.53,4.68,5.13,4.88,9.43C67,65.27,65.55,63.07,64.64,59Zm4.82,60.74a15.05,15.05,0,0,1-6.37-6C58.66,105.86,58.25,96.56,64,83c4.32-10.46,15.13-19.82,31-22.61,10.11-1.78,18.34,2.42,24.48,10.26,4.43,5.64,2.76,15.37-2.66,20-1,.87-1.74.82-2.47,0s-1.38-1.93-2.1-2.88C105.65,79.07,97.59,76.22,89,79.55c-10.19,3.93-15.8,12.6-15.09,23.1.26,3.84,1.6,7.33,2.76,10.91.55,1.72,2.7,3.74.68,5.33A7,7,0,0,1,69.46,119.74Zm40.16-26.35c2,3.26,1.73,5.56-1.17,7.6-6.59,4.63-13.49,8.81-19.73,14-2.84,2.34-5.1,1.87-7.61-1.68-5.74-8.1-2.93-26.6,9.41-28.61h0c4.3-.9,8.11.43,11.75,2.55C105.94,87.84,107.75,90.37,109.62,93.39Zm42.15,10.17c1.88,1.2,1,4.46.43,6.75-2.71,10.53-8.69,19.19-16.33,26.59a96.47,96.47,0,0,1-17.82,13.89c-9.32,5.5-18.06,4.59-27.39-1.83,12.13-8.61,23.56-16.85,35.14-24.87a131.37,131.37,0,0,0,20.38-17.36C147.67,105.17,149.46,102.08,151.77,103.56Zm13.3-29c-3.88,10.28-10.73,18.5-18.47,26-19,18.24-40.9,32.55-62.87,46.79a30.51,30.51,0,0,1-4.85,2.11C71.28,153.26,64.65,159,56,160.7c-9.75,2.14-12.62-.19-11.94-9.61.46-6.45,2.15-12.43,6.45-17.46,2.13-5,6.86-8.22,9.39-13,.69-1.3,1.71-1.7,2.86-.7,8.5,7.4,17.71,4.82,25.5,0,12.22-7.59,24.68-15.27,32.82-27.91,4.73-7.32,8.47-14.58,3.06-23.13-.95-1.51-.51-2.59.8-3.54,4.81-3.51,9.47-7.33,15.89-7.38h0a37.18,37.18,0,0,1,11.06-1.91C162.06,55.62,168.7,65,165.07,74.59Z"/><path class="cls-6" d="M78.37,144.08h0c-3.67-1-5.41-3.33-4.62-7.06.66-3.07,2.33-5.87,5.76-6,4.84-.15,6,3.7,6.83,7.52.76,3.55,3,2.32,4.57,1.08,3.78-3.12-2.56-2.75-1.89-4.93h0c-2.06-4.39-.56-8.42,2-11.83,2.73-3.69,7.48-2.77,9.3,1.51a30.62,30.62,0,0,1,1.24,5.1c10.76-7.11,21.48-14.26,31-23a7.39,7.39,0,0,0,2.35-7h0c-4.68-3.9-3.94-8.08-.81-12.54,3.41-4.85,5.57-9.89,3.62-16.16-1.22-3.91.94-6.48,5-7.14,2.11-.34,4.24-.56,6.36-.83-1.68-3.46-5.52-3.24-8.27-4.87-6.42.05-11.08,3.87-15.89,7.38-1.31,1-1.75,2-.8,3.54,5.41,8.55,1.67,15.81-3.06,23.13-8.14,12.64-20.6,20.32-32.82,27.91-7.79,4.83-17,7.41-25.5,0-1.15-1-2.17-.6-2.86.7-2.53,4.77-7.26,7.94-9.39,13-5.32,9-3.56,16.62,4.54,22.89,1.67,1.3.74,2.78,1,4.18,8.66-1.66,15.29-7.44,22.89-11.26C79.78,147.55,80.89,145.64,78.37,144.08Zm-17.22,3.61c-4.17-1.51-4.76-4.9-3.3-9.12,1.82-3.09,4.84-5.71,8.52-4.07a7.46,7.46,0,0,1,3.79,9.67C68.7,147.87,64.91,149.05,61.15,147.69Z"/><path class="cls-7" d="M77.3,118.89c2-1.59-.13-3.61-.68-5.33-1.16-3.58-2.5-7.07-2.76-10.91-.71-10.5,4.9-19.17,15.09-23.1,8.64-3.33,16.7-.48,23.26,8.23.72,1,1.3,2,2.1,2.88s1.45.85,2.47,0c5.42-4.64,7.09-14.37,2.66-20-6.14-7.84-14.37-12-24.48-10.26C79.08,63.16,68.27,72.52,64,83c-5.7,13.58-5.29,22.88-.86,30.73a15.05,15.05,0,0,0,6.37,6A7,7,0,0,0,77.3,118.89ZM99.75,65.46c1,.47,1.8,1.16,1.45,2.21a2.19,2.19,0,0,1-1.89,1c-5.5-1.22-10.43,1-16.66,3.11C87,66.07,95.55,63.4,99.75,65.46ZM63.89,96.57c-.4-2.63.21-5.11,1.64-8.56a14.39,14.39,0,0,1,1.61-2.54c.75-.88,1.9-1.68,3.07-.8,1,.73.32,1.82-.08,2.66a28,28,0,0,0-2.9,9.6c-.07.9-.44,2-1.77,1.85S64,97.54,63.89,96.57Zm4.7,12.4c-1.55-1.23-2.93-2.75-2.66-4.89a1.51,1.51,0,0,1,2.29-1c1.76,1.16,2.22,3.1,2.28,4.94C70,109,69.35,109.58,68.59,109Z"/><path class="cls-8" d="M146.18,106.73a131.37,131.37,0,0,1-20.38,17.36c-11.58,8-23,16.26-35.14,24.87,9.33,6.42,18.07,7.33,27.39,1.83a96.47,96.47,0,0,0,17.82-13.89c7.64-7.4,13.62-16.06,16.33-26.59.6-2.29,1.45-5.55-.43-6.75C149.46,102.08,147.67,105.17,146.18,106.73Z"/><path class="cls-9" d="M140.82,58h0c3.38.19,7-.13,8.83,3.7a4.49,4.49,0,0,1-.23,1.2c3.77.35,4.92,3.18,5.6,6.35,2,9.47-7.5,26.73-16.64,30.13a6.13,6.13,0,0,1-2.36.18c1.08,4.67-1.43,8.27-4.69,10.8q-12.63,9.81-25.88,18.85a4.93,4.93,0,0,1-3.37.92,3.66,3.66,0,0,1-.68-.36c-2.89,5.27-5.13,6.87-9.39,5.91,1.24,1.59,2.27,3.22-.48,5-2.19,1.45-4.57,2.15-6.07-.52A8.48,8.48,0,0,1,80,143.81l.08.07c1.78,2.32.89,4.07-1.18,5.56a30.51,30.51,0,0,0,4.85-2.11c22-14.24,43.91-28.55,62.87-46.79,7.74-7.45,14.59-15.67,18.47-25.95,3.63-9.61-3-19-13.19-18.53A37.18,37.18,0,0,0,140.82,58Z"/><path class="cls-9" d="M149.09,62.84l.33,0a4.49,4.49,0,0,0,.23-1.2c-1.85-3.83-5.45-3.51-8.83-3.7h0C143.57,59.6,147.41,59.38,149.09,62.84Z"/><path class="cls-9" d="M134.89,99.51a7.39,7.39,0,0,1-2.35,7c-9.52,8.76-20.24,15.91-31,23,0,.09-.09.16-.14.25a3.66,3.66,0,0,0,.68.36,4.93,4.93,0,0,0,3.37-.92q13.23-9,25.88-18.85c3.26-2.53,5.77-6.13,4.69-10.8-.38,0-.76,0-1.13,0Z"/><path class="cls-9" d="M89,134.71c-.67,2.18,5.67,1.81,1.89,4.93-1.52,1.24-3.81,2.47-4.57-1.08a9.52,9.52,0,0,1-.88,1.61c1.5,2.67,3.88,2,6.07.52,2.75-1.82,1.72-3.45.48-5a20.88,20.88,0,0,1-3-.94Z"/><path class="cls-9" d="M80.06,143.88l-.08-.07a11.75,11.75,0,0,1-1.61.27c2.52,1.56,1.41,3.47.51,5.36C81,148,81.84,146.2,80.06,143.88Z"/><path d="M103,92.93c-3.69-3.38-9-3.77-12.59-7.17-.16-.15.09-.73.15-1.11h0c-12.34,2-15.15,20.51-9.41,28.61,2.51,3.55,4.77,4,7.61,1.68,6.24-5.14,13.14-9.32,19.73-14,2.9-2,3.18-4.34,1.17-7.6-1.87-3-3.68-5.55-7.35-6.19a28,28,0,0,1,2.21,4.09C104.84,92.32,103.76,93.67,103,92.93Z"/><path class="cls-10" d="M50.5,133.63c-4.3,5-6,11-6.45,17.46-.68,9.42,2.19,11.75,11.94,9.61-2.15-.64-2.48-2.86-3.67-4.31C44.22,146.48,44.15,144.94,50.5,133.63Z"/><path class="cls-10" d="M55,156.52c-8.1-6.27-9.86-13.9-4.54-22.89-6.35,11.31-6.28,12.85,1.82,22.76,1.19,1.45,1.52,3.67,3.67,4.31C55.78,159.3,56.71,157.82,55,156.52Z"/><path class="cls-11" d="M68.26,51.8c.65-3.71.61-7.5-3-8.84s-7.16,1.36-8.83,4.23c-1.52,2.62.2,6.17,3.06,7.4C62.79,56,65.81,54.14,68.26,51.8Z"/><path class="cls-12" d="M90.52,84.65h0c2.87,2.73,7.16,2.3,10.31,4.73,1.42,1.1.54-1.66,1.44-2.18C98.63,85.08,94.82,83.75,90.52,84.65Z"/><path class="cls-12" d="M100.83,89.38c-3.15-2.43-7.44-2-10.31-4.73-.06.38-.31,1-.15,1.11,3.6,3.4,8.9,3.79,12.59,7.17.8.74,1.88-.61,1.52-1.64a28,28,0,0,0-2.21-4.09C101.37,87.72,102.25,90.48,100.83,89.38Z"/><path class="cls-13" d="M73,48c-.25,1.49-1.24,3.16.15,4.46,1,.91,1.94,0,2.39-.84a3.68,3.68,0,0,0-.69-4.38C74,46.93,73.15,47,73,48Z"/><path class="cls-14" d="M64.64,59c.91,4.07,2.33,6.27,4.88,9.43C69.32,64.13,68.78,61.53,64.64,59Z"/><path d="M144.39,65.23c-4,.57-5.51,2.56-4.72,6.51a18.41,18.41,0,0,1-3.45,15.2c-3.1,4.08-3,7.89-.36,12v0c6.56-3.9,11.64-9,14.8-16.35,3-7.07,3.76-13.35-1.35-19.47C148.46,65,146.19,65,144.39,65.23Zm-2.15,25.68c-1.5,1.65-2.72,4.43-5.47,3.63-1.82-.53-.6-2.27,0-3.59,1-1.51,1.77-3.63,4.38-2.72C142.47,88.67,143.28,89.75,142.24,90.91Zm6.21-8.72c-1.23,1.2-.8,5-4.62,3.27-3-1.39-2.17-3.77-1.73-6.12.64-3.43,3.07-2.42,5.1-2C150.22,78,149.48,80,148.45,82.19Zm2.14-9.67c-1.62,2.8-4.18-.26-6.05.25-2.2-.35-3.34-1.7-2.64-3.35,1.34-3.14,4.44-2,6.68-1.65S151.52,70.91,150.59,72.52Z"/><path d="M135.86,98.91c-2.68-4.08-2.74-7.89.36-12a18.41,18.41,0,0,0,3.45-15.2c-.79-3.95.72-5.94,4.72-6.51,1.8-.26,4.07-.2,4.93-2.11l-.23-.28c-2.12.27-4.25.49-6.36.83-4.09.66-6.25,3.23-5,7.14,2,6.27-.21,11.31-3.62,16.16-3.13,4.46-3.87,8.64.81,12.54h0l1-.57Z"/><path d="M150.67,82.59C147.51,90,142.43,95,135.87,98.94c.06.2.1.39.15.59a6.13,6.13,0,0,0,2.36-.18C147.52,96,157,78.69,155,69.22c-.68-3.17-1.83-6-5.6-6.35,0,.09-.07.17-.1.25C154.43,69.24,153.7,75.52,150.67,82.59Z"/><path d="M134.89,99.51c.37,0,.75,0,1.13,0-.05-.2-.09-.39-.15-.59Z"/><path d="M149.32,63.12c0-.08.07-.16.1-.25l-.33,0Z"/><path d="M94.3,123c-2.24.39-3.27,2.09-3.77,4.12-.57,2.32-1,4.67.3,6.93.08.14.17.27.26.4a18.26,18.26,0,0,0,10.23-4.76c-1.25-.87-1.73-2.36-2.45-3.66C97.87,124.19,96.69,122.58,94.3,123Zm2.21,6.45c-.54,1.32-1.5,2.52-3.12,1.7s-.58-2.38-.64-3.46c.73-1.09,1-2.68,2.53-2.12C97.2,126.24,97.15,127.88,96.51,129.44Z"/><path d="M90.83,134c-1.27-2.26-.87-4.61-.3-6.93.5-2,1.53-3.73,3.77-4.12,2.39-.41,3.57,1.2,4.57,3,.72,1.3,1.2,2.79,2.45,3.66l.22-.19a30.62,30.62,0,0,0-1.24-5.1c-1.82-4.28-6.57-5.2-9.3-1.51-2.54,3.41-4,7.44-2,11.83h0c.7-.06,1.39-.16,2.07-.27C91,134.31,90.91,134.18,90.83,134Z"/><path d="M91.09,134.44c.29.41.61.81.92,1.21,4.26,1,6.5-.64,9.39-5.91l-.08-.06A18.26,18.26,0,0,1,91.09,134.44Z"/><path d="M101.32,129.68l.08.06c0-.09.1-.16.14-.25Z"/><path d="M89,134.71a20.88,20.88,0,0,0,3,.94c-.31-.4-.63-.8-.92-1.21C90.41,134.55,89.72,134.65,89,134.71Z"/><path d="M66.37,134.5c-3.68-1.64-6.7,1-8.52,4.07-1.46,4.22-.87,7.61,3.3,9.12,3.76,1.36,7.55.18,9-3.52A7.46,7.46,0,0,0,66.37,134.5Zm-2.15,4.09a3.46,3.46,0,0,1,1.59,4.09,2.15,2.15,0,0,1-3.12.75c-1.69-.86-1.16-2.29-.63-3.61C62.45,138.87,63.07,137.87,64.22,138.59Z"/><path d="M84.17,137.05c-.79-2.1-1.66-4.14-4.44-3.9-2,.18-3,1.55-3.75,3.31-1,2.41-.25,4.18,1.73,5.63.5.37,1,.71,1.51,1.09a21.08,21.08,0,0,1,5.77-4C84.68,138.49,84.43,137.77,84.17,137.05Zm-5.49,2.29c-1-.48-1.21-1.48-.51-3a1.91,1.91,0,0,1,2.55-1c1,.46,1.06,1.58.66,2.58C80.89,139.13,80.05,140,78.68,139.34Z"/><path d="M79.22,143.18c-.5-.38-1-.72-1.51-1.09-2-1.45-2.73-3.22-1.73-5.63.74-1.76,1.75-3.13,3.75-3.31,2.78-.24,3.65,1.8,4.44,3.9.26.72.51,1.44.82,2.13.45-.22.9-.43,1.35-.62-.85-3.82-2-7.67-6.83-7.52-3.43.11-5.1,2.91-5.76,6-.79,3.73,1,6.1,4.62,7.06h0C78.65,143.77,78.93,143.47,79.22,143.18Z"/><path d="M85,139.18a21.08,21.08,0,0,0-5.77,4c.26.2.52.41.76.63a8.48,8.48,0,0,0,5.48-3.64,5.38,5.38,0,0,1-.44-.93Z"/><path d="M78.37,144.08h0a11.75,11.75,0,0,0,1.61-.27c-.24-.22-.5-.43-.76-.63C78.93,143.47,78.65,143.77,78.37,144.08Z"/><path d="M85,139.18l0,.06a5.38,5.38,0,0,0,.44.93,9.52,9.52,0,0,0,.88-1.61C85.89,138.75,85.44,139,85,139.18Z"/><path d="M67.23,96.93a28,28,0,0,1,2.9-9.6c.4-.84,1.06-1.93.08-2.66-1.17-.88-2.32-.08-3.07.8A14.39,14.39,0,0,0,65.53,88c-1.43,3.45-2,5.93-1.64,8.56.15,1,.35,2,1.57,2.21S67.16,97.83,67.23,96.93Z"/><path d="M101.2,67.67c.35-1-.48-1.74-1.45-2.21-4.2-2.06-12.74.61-17.1,6.31,6.23-2.13,11.16-4.33,16.66-3.11A2.19,2.19,0,0,0,101.2,67.67Z"/><path d="M70.5,108c-.06-1.84-.52-3.78-2.28-4.94a1.51,1.51,0,0,0-2.29,1c-.27,2.14,1.11,3.66,2.66,4.89C69.35,109.58,70,109,70.5,108Z"/><path class="cls-15" d="M142.1,79.34c-.44,2.35-1.29,4.73,1.73,6.12,3.82,1.74,3.39-2.07,4.62-3.27,1-2.22,1.77-4.2-1.25-4.84C145.17,76.92,142.74,75.91,142.1,79.34Z"/><path class="cls-16" d="M141.9,69.42c-.7,1.65.44,3,2.64,3.35,1.87-.51,4.43,2.55,6.05-.25.93-1.61.36-4.36-2-4.75S143.24,66.28,141.9,69.42Z"/><path class="cls-17" d="M136.8,91c-.63,1.32-1.85,3.06,0,3.59,2.75.8,4-2,5.47-3.63,1-1.16.23-2.24-1.06-2.68C138.57,87.32,137.8,89.44,136.8,91Z"/><path class="cls-18" d="M92.75,127.68c.06,1.08-1,2.61.64,3.46s2.58-.38,3.12-1.7c.64-1.56.69-3.2-1.23-3.88C93.71,125,93.48,126.59,92.75,127.68Z"/><path class="cls-19" d="M62.06,139.82c-.53,1.32-1.06,2.75.63,3.61a2.15,2.15,0,0,0,3.12-.75,3.46,3.46,0,0,0-1.59-4.09C63.07,137.87,62.45,138.87,62.06,139.82Z"/><path class="cls-20" d="M80.72,135.33a1.91,1.91,0,0,0-2.55,1c-.7,1.53-.49,2.53.51,3,1.37.67,2.21-.21,2.7-1.43C81.78,136.91,81.75,135.79,80.72,135.33Z"/><polygon class="cls-21" points="144.82 134.59 144.82 134.59 144.82 134.59 144.82 134.59"/><path class="cls-21" d="M144.78,134.67l0-.09h0l-.08.1Z"/><path class="cls-21" d="M144.74,134.69l.08-.1h0l-.09.1Z"/><path class="cls-1" d="M39.91,155.77a24.29,24.29,0,0,0-.51-3.41,8.75,8.75,0,0,0,.51,3.41Z"/><path class="cls-22" d="M128.6,58.44c-6.35,4.43-9.74,5.15-16.24.77-11.72-7.93-23.55-3.27-34.88,2.38-1.37.68-2.86,3.18-4.26.35-1-1.95.17-3,2.32-3.77,4.08-1.43,5.37-4.73,5.33-9s-2.11-6-5.7-7.24c-2.83-.93-5.48-2.38-8.29-3.37-3.65-1.29-11.78,2.29-13.78,6.08-2.48,4.71-.32,8.37,3,11.59,1,1,2.19,1.69,3.27,2.55,7.47,5.86,7.67,9.37,3,17.41-6.31,10.79-11.33,22-4.46,34.7,2.49,4.59.64,8.53-2.76,11.68-4.69,4.36-8.77,9-11.66,14.84-.19.38-.39.75-.61,1.13,0,0-3.41,8-3.49,13.8a24.29,24.29,0,0,1,.51,3.41c2.11,5.21,2.25,8.45,11.22,9.9,1.14,0,2.3-.18,3.44-.27,10.13-.82,18.06-7,26.73-11.24,2.68-1.33,4.67-1.93,7.62-.18,10.08,6,25.75,7.36,36.19,1.34,1.51-1.23,18.34-16.15,23.73-26.64,2.86-5.56,6.89-19.31,6.89-19.31h0c.44-2.1.7-4.2-.59-6.27-2.12-3.39-.69-5.46,1.82-8.1,7.62-8,13.7-17,12.66-28.89-.45-5.17-3.07-8.71-7.75-11.09C150,49,138.35,51.63,128.6,58.44ZM75.52,51.56c-.45.82-1.42,1.75-2.39.84-1.39-1.3-.4-3-.15-4.46.16-1,1-1,1.85-.76A3.68,3.68,0,0,1,75.52,51.56ZM56.39,47.18c1.67-2.87,5.17-5.57,8.83-4.23s3.68,5.13,3,8.84c-2.45,2.34-5.47,4.23-8.8,2.79C56.59,53.35,54.87,49.8,56.39,47.18ZM64.63,59c4.14,2.53,4.68,5.13,4.88,9.43C67,65.26,65.54,63.06,64.63,59Zm4.82,60.74a15.05,15.05,0,0,1-6.37-6c-4.43-7.85-4.84-17.15.86-30.73C68.26,72.5,79.07,63.15,95,60.36c10.11-1.78,18.34,2.42,24.48,10.26,4.42,5.64,2.76,15.37-2.66,20-1,.87-1.74.82-2.47,0s-1.38-1.93-2.1-2.88c-6.56-8.71-14.62-11.56-23.26-8.23-10.19,3.93-15.8,12.6-15.09,23.1.26,3.84,1.6,7.33,2.76,10.91.55,1.72,2.7,3.74.68,5.33A7,7,0,0,1,69.45,119.73Zm40.16-26.35c2,3.26,1.73,5.56-1.17,7.6-6.59,4.63-13.49,8.81-19.73,14-2.84,2.34-5.1,1.87-7.61-1.68-5.74-8.1-2.93-26.6,9.41-28.61h0c4.3-.9,8.11.43,11.75,2.55C105.93,87.83,107.74,90.36,109.61,93.38Zm42.15,10.17c1.88,1.2,1,4.46.43,6.75-2.71,10.53-8.69,19.19-16.33,26.59A96.47,96.47,0,0,1,118,150.78c-9.32,5.5-18.06,4.59-27.39-1.84,12.13-8.6,23.56-16.84,35.14-24.86a131.37,131.37,0,0,0,20.38-17.36C147.66,105.16,149.45,102.07,151.76,103.55Zm13.3-29c-3.88,10.28-10.73,18.5-18.47,26-19,18.24-40.9,32.55-62.87,46.79a30.51,30.51,0,0,1-4.85,2.11c-7.6,3.82-14.23,9.6-22.9,11.26-9.74,2.14-12.61-.19-11.93-9.61.46-6.45,2.15-12.43,6.45-17.46,2.13-5.05,6.86-8.22,9.39-13,.69-1.3,1.71-1.7,2.86-.7,8.5,7.4,17.71,4.82,25.5,0,12.22-7.59,24.68-15.27,32.82-27.91,4.73-7.32,8.46-14.58,3.06-23.14-1-1.5-.51-2.58.8-3.53,4.81-3.51,9.47-7.33,15.89-7.38h0a37.12,37.12,0,0,1,11.06-1.91C162.05,55.61,168.69,65,165.06,74.58Z"/><path class="cls-23" d="M78.36,144.07h0c-3.67-1-5.41-3.33-4.62-7.06.66-3.07,2.32-5.87,5.76-6,4.84-.15,6,3.7,6.83,7.52.75,3.55,3,2.32,4.57,1.07,3.78-3.11-2.56-2.74-1.89-4.92h0c-2.06-4.39-.56-8.42,2-11.84,2.73-3.68,7.48-2.76,9.3,1.52a30.75,30.75,0,0,1,1.24,5.09c10.76-7.1,21.48-14.25,31-23a7.39,7.39,0,0,0,2.35-7h0c-4.68-3.9-3.94-8.08-.81-12.54,3.41-4.85,5.57-9.9,3.62-16.16-1.22-3.91.94-6.48,5-7.14,2.11-.34,4.24-.56,6.36-.83-1.68-3.46-5.52-3.24-8.27-4.87-6.42,0-11.08,3.87-15.89,7.38-1.31,1-1.75,2-.8,3.53,5.4,8.56,1.67,15.82-3.06,23.14-8.14,12.64-20.6,20.32-32.82,27.91-7.79,4.83-17,7.41-25.5,0-1.15-1-2.17-.6-2.86.7-2.53,4.77-7.26,7.94-9.39,13-5.32,9-3.56,16.62,4.54,22.89,1.67,1.3.74,2.77.94,4.18,8.67-1.66,15.3-7.44,22.9-11.26C79.77,147.54,80.88,145.63,78.36,144.07Zm-17.23,3.61c-4.16-1.51-4.75-4.9-3.29-9.12,1.82-3.09,4.84-5.71,8.52-4.07a7.46,7.46,0,0,1,3.79,9.67C68.69,147.86,64.9,149,61.13,147.68Z"/><path class="cls-24" d="M77.29,118.88c2-1.59-.13-3.61-.68-5.33-1.16-3.58-2.5-7.07-2.76-10.91-.71-10.5,4.9-19.17,15.09-23.1,8.64-3.33,16.7-.48,23.26,8.23.72,1,1.3,2,2.1,2.88s1.45.85,2.47,0c5.42-4.64,7.08-14.37,2.66-20-6.14-7.84-14.37-12-24.48-10.26C79.07,63.15,68.26,72.5,63.94,83c-5.7,13.58-5.29,22.88-.86,30.73a15.05,15.05,0,0,0,6.37,6A7,7,0,0,0,77.29,118.88ZM99.74,65.45c1,.47,1.8,1.16,1.45,2.21a2.19,2.19,0,0,1-1.89,1c-5.5-1.22-10.43,1-16.66,3.11C87,66.06,95.54,63.39,99.74,65.45ZM63.88,96.56c-.4-2.63.2-5.11,1.64-8.56a14.39,14.39,0,0,1,1.61-2.54c.74-.88,1.9-1.68,3.07-.8,1,.73.32,1.82-.08,2.66a28,28,0,0,0-2.9,9.6c-.07.9-.44,2-1.77,1.85S64,97.53,63.88,96.56Zm4.7,12.4c-1.55-1.23-2.93-2.75-2.66-4.89a1.51,1.51,0,0,1,2.29-1c1.76,1.16,2.22,3.1,2.28,4.94C70,109,69.34,109.57,68.58,109Z"/><path class="cls-25" d="M146.17,106.72a131.37,131.37,0,0,1-20.38,17.36c-11.58,8-23,16.26-35.14,24.86,9.33,6.43,18.07,7.34,27.39,1.84a96.47,96.47,0,0,0,17.82-13.89c7.64-7.4,13.62-16.06,16.33-26.59.6-2.29,1.45-5.55-.43-6.75C149.45,102.07,147.66,105.16,146.17,106.72Z"/><path class="cls-26" d="M140.81,58h0c3.38.19,7-.13,8.83,3.7a4.49,4.49,0,0,1-.23,1.2c3.77.35,4.92,3.18,5.59,6.35,2,9.47-7.49,26.73-16.63,30.13a6.13,6.13,0,0,1-2.36.18c1.07,4.67-1.43,8.26-4.69,10.8q-12.63,9.81-25.88,18.85a4.93,4.93,0,0,1-3.37.92,3.66,3.66,0,0,1-.68-.36C98.5,135,96.26,136.6,92,135.64c1.24,1.59,2.27,3.22-.48,5-2.19,1.45-4.57,2.15-6.07-.52A8.48,8.48,0,0,1,80,143.8l.08.07c1.78,2.32.89,4.07-1.18,5.56a30.51,30.51,0,0,0,4.85-2.11c22-14.24,43.91-28.55,62.87-46.79,7.74-7.45,14.59-15.67,18.47-25.95,3.63-9.61-3-19-13.19-18.53A37.12,37.12,0,0,0,140.81,58Z"/><path class="cls-27" d="M149.08,62.83l.33,0a4.49,4.49,0,0,0,.23-1.2c-1.85-3.83-5.45-3.51-8.83-3.7h0C143.56,59.59,147.4,59.37,149.08,62.83Z"/><path class="cls-27" d="M134.88,99.5a7.39,7.39,0,0,1-2.35,7c-9.52,8.76-20.24,15.91-31,23l-.14.26a3.66,3.66,0,0,0,.68.36,4.93,4.93,0,0,0,3.37-.92q13.23-9,25.88-18.85c3.26-2.54,5.76-6.13,4.69-10.8-.38,0-.76,0-1.13,0Z"/><path class="cls-27" d="M89,134.7c-.67,2.18,5.67,1.81,1.89,4.92-1.52,1.25-3.82,2.48-4.57-1.07a9.52,9.52,0,0,1-.88,1.61c1.5,2.67,3.88,2,6.07.52,2.75-1.82,1.72-3.45.48-5a20.88,20.88,0,0,1-3-.94Z"/><path class="cls-27" d="M80.05,143.87,80,143.8a11.75,11.75,0,0,1-1.61.27c2.52,1.56,1.41,3.47.51,5.36C80.94,147.94,81.83,146.19,80.05,143.87Z"/><path class="cls-28" d="M103,92.92c-3.69-3.38-9-3.77-12.59-7.17-.16-.15.09-.73.15-1.11h0c-12.34,2-15.15,20.51-9.41,28.61,2.51,3.55,4.77,4,7.61,1.68,6.24-5.14,13.14-9.32,19.73-14,2.9-2,3.18-4.34,1.17-7.6-1.87-3-3.68-5.55-7.35-6.19a28,28,0,0,1,2.21,4.09C104.83,92.31,103.75,93.66,103,92.92Z"/><path class="cls-29" d="M50.49,133.62c-4.3,5-6,11-6.45,17.46-.68,9.42,2.19,11.75,11.93,9.61-2.14-.64-2.47-2.86-3.66-4.32C44.21,146.47,44.14,144.93,50.49,133.62Z"/><path class="cls-29" d="M55,156.51c-8.1-6.27-9.86-13.9-4.54-22.89-6.35,11.31-6.28,12.85,1.82,22.75,1.19,1.46,1.52,3.68,3.66,4.32C55.77,159.28,56.7,157.81,55,156.51Z"/><path class="cls-25" d="M68.25,51.79c.65-3.71.61-7.5-3-8.84s-7.16,1.36-8.83,4.23c-1.52,2.62.2,6.17,3.06,7.4C62.78,56,65.8,54.13,68.25,51.79Z"/><path class="cls-30" d="M90.51,84.64h0c2.87,2.73,7.16,2.29,10.31,4.73,1.42,1.1.54-1.66,1.44-2.18C98.62,85.07,94.81,83.74,90.51,84.64Z"/><path class="cls-30" d="M100.82,89.37c-3.15-2.44-7.44-2-10.31-4.73-.06.38-.31,1-.15,1.11,3.59,3.4,8.9,3.79,12.59,7.17.8.74,1.88-.61,1.52-1.64a28,28,0,0,0-2.21-4.09C101.36,87.71,102.24,90.47,100.82,89.37Z"/><path class="cls-31" d="M73,47.94c-.25,1.49-1.24,3.16.15,4.46,1,.91,1.94,0,2.39-.84a3.68,3.68,0,0,0-.69-4.38C74,46.92,73.14,47,73,47.94Z"/><path class="cls-32" d="M64.63,59c.91,4.07,2.33,6.27,4.88,9.43C69.31,64.12,68.77,61.52,64.63,59Z"/><path class="cls-33" d="M144.38,65.22c-4,.57-5.51,2.56-4.72,6.51a18.41,18.41,0,0,1-3.45,15.2c-3.1,4.08-3,7.89-.36,12v0c6.56-3.9,11.64-9,14.8-16.35,3-7.07,3.75-13.35-1.35-19.47C148.45,65,146.18,65,144.38,65.22ZM142.23,90.9c-1.5,1.65-2.72,4.43-5.47,3.63-1.82-.53-.6-2.28,0-3.59,1-1.51,1.77-3.63,4.38-2.72C142.46,88.66,143.27,89.74,142.23,90.9Zm6.21-8.72c-1.23,1.2-.8,5-4.62,3.27-3-1.39-2.17-3.77-1.73-6.12.64-3.43,3.07-2.42,5.1-2C150.21,78,149.47,80,148.44,82.18Zm2.14-9.68c-1.62,2.81-4.18-.26-6.05.26-2.2-.35-3.34-1.7-2.64-3.35,1.34-3.14,4.44-2,6.68-1.65S151.51,70.9,150.58,72.5Z"/><path class="cls-33" d="M135.85,98.89c-2.68-4.07-2.74-7.88.36-12a18.41,18.41,0,0,0,3.45-15.2c-.79-4,.72-5.94,4.72-6.51,1.8-.26,4.07-.2,4.93-2.11l-.23-.28c-2.12.27-4.25.49-6.36.83-4.09.66-6.25,3.23-5,7.14,1.95,6.26-.21,11.31-3.62,16.16-3.13,4.46-3.87,8.64.81,12.54h0l1-.57Z"/><path class="cls-33" d="M150.66,82.58C147.5,90,142.42,95,135.86,98.93c.06.2.1.39.15.59a6.13,6.13,0,0,0,2.36-.18C147.51,95.94,157,78.68,155,69.21c-.67-3.17-1.82-6-5.59-6.35,0,.09-.07.17-.1.25C154.41,69.23,153.69,75.51,150.66,82.58Z"/><path class="cls-33" d="M134.88,99.5c.37,0,.75,0,1.13,0,0-.2-.09-.39-.15-.59Z"/><path class="cls-33" d="M149.31,63.11c0-.08.07-.16.1-.25l-.33,0Z"/><path class="cls-34" d="M94.29,123c-2.24.39-3.27,2.09-3.77,4.12-.57,2.32-1,4.67.3,6.93.08.14.17.27.26.4a18.26,18.26,0,0,0,10.23-4.76c-1.25-.87-1.73-2.36-2.45-3.66C97.86,124.18,96.68,122.57,94.29,123Zm2.21,6.45c-.54,1.32-1.5,2.52-3.12,1.7s-.58-2.38-.64-3.46c.73-1.09,1-2.68,2.53-2.12C97.19,126.23,97.13,127.87,96.5,129.43Z"/><path class="cls-34" d="M90.82,134c-1.27-2.26-.87-4.61-.3-6.93.5-2,1.53-3.73,3.77-4.12s3.57,1.2,4.57,3c.72,1.3,1.2,2.79,2.45,3.66a2.09,2.09,0,0,0,.22-.2,30.75,30.75,0,0,0-1.24-5.09c-1.82-4.28-6.57-5.2-9.3-1.52-2.54,3.42-4,7.45-2,11.84h0c.7-.06,1.39-.16,2.07-.27C91,134.3,90.9,134.17,90.82,134Z"/><path class="cls-34" d="M91.08,134.43c.28.4.61.81.92,1.21,4.26,1,6.5-.64,9.39-5.91l-.08-.06A18.26,18.26,0,0,1,91.08,134.43Z"/><path class="cls-34" d="M101.31,129.67l.08.06.14-.26A2.09,2.09,0,0,1,101.31,129.67Z"/><path class="cls-34" d="M89,134.7a20.88,20.88,0,0,0,3,.94c-.31-.4-.64-.81-.92-1.21C90.4,134.54,89.71,134.64,89,134.7Z"/><path class="cls-35" d="M66.36,134.49c-3.68-1.64-6.7,1-8.52,4.07-1.46,4.22-.87,7.61,3.29,9.12,3.77,1.36,7.56.18,9-3.52A7.46,7.46,0,0,0,66.36,134.49Zm-2.16,4.09a3.45,3.45,0,0,1,1.6,4.08,2.14,2.14,0,0,1-3.12.76c-1.69-.86-1.16-2.29-.63-3.61C62.44,138.86,63.06,137.86,64.2,138.58Z"/><path class="cls-36" d="M84.16,137c-.79-2.1-1.66-4.14-4.44-3.9-2,.18-3,1.55-3.75,3.31-1,2.41-.25,4.18,1.73,5.63.49.37,1,.71,1.51,1.09a21.08,21.08,0,0,1,5.77-4C84.67,138.48,84.42,137.76,84.16,137Zm-5.49,2.29c-1-.48-1.21-1.48-.51-3a1.91,1.91,0,0,1,2.55-1c1,.46,1.06,1.58.66,2.58C80.88,139.12,80,140,78.67,139.33Z"/><path class="cls-36" d="M79.21,143.17c-.5-.38-1-.72-1.51-1.09-2-1.45-2.74-3.22-1.73-5.63.74-1.76,1.75-3.13,3.75-3.31,2.78-.24,3.65,1.8,4.44,3.9.26.72.51,1.44.82,2.13.45-.22.89-.43,1.35-.62-.85-3.82-2-7.67-6.83-7.52-3.44.11-5.1,2.91-5.76,6-.79,3.73,1,6.1,4.62,7.06h0C78.64,143.76,78.92,143.46,79.21,143.17Z"/><path class="cls-36" d="M85,139.17a21.08,21.08,0,0,0-5.77,4,9.06,9.06,0,0,1,.76.63,8.48,8.48,0,0,0,5.48-3.64,5.75,5.75,0,0,1-.44-.93Z"/><path class="cls-36" d="M78.36,144.07h0A11.75,11.75,0,0,0,80,143.8a9.06,9.06,0,0,0-.76-.63C78.92,143.46,78.64,143.76,78.36,144.07Z"/><path class="cls-36" d="M85,139.17l0,.06a5.75,5.75,0,0,0,.44.93,9.52,9.52,0,0,0,.88-1.61C85.87,138.74,85.43,139,85,139.17Z"/><path class="cls-37" d="M67.22,96.92a28,28,0,0,1,2.9-9.6c.4-.84,1-1.93.08-2.66-1.17-.88-2.33-.08-3.07.8A14.39,14.39,0,0,0,65.52,88c-1.44,3.45-2,5.93-1.64,8.56.14,1,.35,2,1.57,2.21S67.15,97.82,67.22,96.92Z"/><path class="cls-38" d="M101.19,67.66c.35-1-.49-1.74-1.45-2.21-4.2-2.06-12.74.61-17.1,6.31,6.23-2.13,11.16-4.33,16.66-3.11A2.19,2.19,0,0,0,101.19,67.66Z"/><path class="cls-39" d="M70.49,108c-.06-1.84-.52-3.78-2.28-4.94a1.51,1.51,0,0,0-2.29,1c-.27,2.14,1.11,3.66,2.66,4.89C69.34,109.57,70,109,70.49,108Z"/><path class="cls-40" d="M142.09,79.33c-.44,2.35-1.29,4.73,1.73,6.12,3.82,1.74,3.39-2.07,4.62-3.27,1-2.22,1.77-4.2-1.25-4.84C145.16,76.91,142.73,75.9,142.09,79.33Z"/><path class="cls-41" d="M141.89,69.41c-.7,1.65.44,3,2.64,3.35,1.87-.52,4.43,2.55,6.05-.26.93-1.6.36-4.35-2-4.74S143.23,66.27,141.89,69.41Z"/><path class="cls-25" d="M136.79,90.94c-.63,1.31-1.85,3.06,0,3.59,2.75.8,4-2,5.47-3.63,1-1.16.23-2.24-1.06-2.68C138.56,87.31,137.79,89.43,136.79,90.94Z"/><path class="cls-42" d="M92.74,127.67c.06,1.08-1,2.61.64,3.46s2.58-.38,3.12-1.7c.63-1.56.69-3.2-1.23-3.88C93.7,125,93.47,126.58,92.74,127.67Z"/><path class="cls-43" d="M62.05,139.81c-.53,1.32-1.06,2.75.63,3.61a2.14,2.14,0,0,0,3.12-.76,3.45,3.45,0,0,0-1.6-4.08C63.06,137.86,62.44,138.86,62.05,139.81Z"/><path class="cls-25" d="M80.71,135.32a1.91,1.91,0,0,0-2.55,1c-.7,1.53-.49,2.53.51,3,1.37.67,2.21-.21,2.7-1.43C81.77,136.9,81.74,135.78,80.71,135.32Z"/><polygon class="cls-44" points="144.81 134.57 144.81 134.57 144.81 134.57 144.81 134.57"/><path class="cls-44" d="M144.77,134.66l0-.09h0l-.08.11Z"/><path class="cls-44" d="M144.73,134.68l.08-.11h0l-.09.11Z"/></g></g></g></svg>