<svg xmlns="http://www.w3.org/2000/svg" xmlns:xlink="http://www.w3.org/1999/xlink" viewBox="0 0 200 200"><defs><style>.cls-1{fill:none;}.cls-2{fill:#3a3e5e;}.cls-3{clip-path:url(#clip-path);}.cls-4{fill:#1f1f1f;}.cls-5{fill:#080807;}.cls-6{fill:#48afd6;}.cls-7{fill:#50add0;}.cls-8{fill:#286f71;}.cls-9{fill:#1e5651;}.cls-10{fill:#152b30;}.cls-11{fill:#062a35;}</style><clipPath id="clip-path"><circle class="cls-1" cx="100" cy="100" r="93.27"/></clipPath></defs><g id="Layer_2" data-name="Layer 2"><g id="Layer_1-2" data-name="Layer 1"><circle class="cls-2" cx="100" cy="100" r="100"/><g class="cls-3"><path class="cls-4" d="M-1001.39,495.37c1-4.83,4.22-8.62,6.41-12.9,15.82-31.11,19.06-63.07,6.37-96.06a102.74,102.74,0,0,0-50.72-54c-10.38-5.15-21.56-7.49-32.77-2.31-5,1-8.72,4.52-13,6.89-3.91,1.11-4.83-1.5-5.32-4.4a23.8,23.8,0,0,0-1.73-8.78c-4.13-15.39-14.13-23-29.81-24.42a164.16,164.16,0,0,1-22.57-3.82c-14.79-3.51-22.58-15.09-20.67-30.21,3.76-14.35,14-22.91,26.3-29.84,17.4-9.86,1.76-71.63,12.69-89.31,29.93-48.48-489.3-262.61-529.18-309.91-18-24,535.06-80.07,504.73-83.68-2.81-.33-361.31-144.74-363.41-146.9,0-78.31,644.09,23.69,644.09-54.6,0-393.52,620.28-785.32,620.37-1178.84,0-2.5-2-5.82,1.6-7.7,3.42,5.6,3.61,12,4.41,18.23-3.36,52.85-.62,105.79-1.6,158.66-1.3,16,2.21,31.69,1.81,47.65-.49,19-1.07,38.09,0,57.13,1.17,23.59,2.81,47.24,1.11,70.83-3.08,44.07.93,88.23-2.49,132.42a374.16,374.16,0,0,0,.52,51.22,423.69,423.69,0,0,1-.21,59.62c-2,24.12-1,48.38-.34,72.59.43,14.75,1.35,29.54,1.2,44.29-.19,17.83,2.34,35.63-1.08,53.58-2.16,11.46,2,23.13,4.5,34.56.33,1.63.74,3.82,2.83,3.72,6.81-.27,13.55,3.45,20.26.77a36.35,36.35,0,0,1,25.9.31c3.27,1.08,5.76,1.57,7.73-2.31,1.73-3.32,5.27-2.68,8.44-2.34,10.47,1.14,10.47,1.11,13.25-8.78a4,4,0,0,1,2.18-2.43c5.58-.31,6.16,4.34,7.36,7.92,3.7,11.08,7.7,22,12.32,32.73a104.26,104.26,0,0,0,12.32,21.38c1.35,2,2.56,4.12,3.94,6.16a44.43,44.43,0,0,0,6.35,8.22c1.31,1.37,2.66,2.73,4.06,4.06,4.68,5.27,10.75,9.24,14,15.8a65.87,65.87,0,0,0,18.88,27c15.74,14.66,33.88,22.21,55.75,20.14,5.91-1.69,10.65-6.53,17.21-6.49a250.86,250.86,0,0,0,76.81-9,13.69,13.69,0,0,1,2.46-1A207.11,207.11,0,0,0,98.3-730.13a24.23,24.23,0,0,1,2.28-1.14c2.16-1.38,4.32-2.74,6.53-4,4.07-2.34,5-5.36,3.51-10-7.11-22.51,2-41.64,24.09-50.88,2.09-.86,4.25-1.63,6.4-2.37A15,15,0,0,0,152-812.14a23.41,23.41,0,0,1,25.78-20.76,23.16,23.16,0,0,1,5.39,1.23,7.47,7.47,0,0,1-2.68,9.24,13.41,13.41,0,0,0-17.94,6.1q-.3.62-.54,1.26a22.37,22.37,0,0,0-1.51,5.79c-1.51,10.63-7.76,16.17-18,19.1-13.18,3.72-22.33,12.16-25,26.33a15.56,15.56,0,0,0,0,7.61c1,3.07,1.57,6.65,4.56,7.88,3.66,1.54,5.2-2.56,7.42-4.47a164.92,164.92,0,0,0,43.36-59.31,11.48,11.48,0,0,1,3.55-4.74c6.16-10.35,19-12.85,26.64-21.72,2.61-3.08,7.45-1.87,11.42-1.1,2.68.49,5.11,2.67,8.16,1.2.83-3.36-1.6-5.92-2.22-8.9-.46-2.31-.89-4.59,1.36-6.16s4.87-.53,6.93,1.14a13.53,13.53,0,0,1,5.45,8.43A19.48,19.48,0,0,0,247-827.42a12.33,12.33,0,0,1,8.66,12.32A10.05,10.05,0,0,0,262-805a10.4,10.4,0,0,1,4.22,8.9c-.25,3.33-4.4,4.9-3.51,9.09,1.75,8.44,6.4,11.09,14.17,7.05a17.57,17.57,0,0,1,9.88-1c10.66.46,14-1.48,17.28-9.55a5.28,5.28,0,0,1,3.29-1.08c4.72.19,3.88-3.63,4.56-6.34s.74-5.45,3.85-6.53c4.74-5.67,7.82-6.16,15.86-3.24,3.6,1.36,7.76,2.25,9.24-2.43,1.42-4.13-2-6.16-5.42-7.24-1.88-.7-3.88-.89-5.79-1.47-3.88-1.21-6.65-3.48-6.34-7.92a8.27,8.27,0,0,1,6.8-7.79,34.15,34.15,0,0,1,16.08,0,75.38,75.38,0,0,0,17.64,2.86c3.76,0,6.81,1.36,6.41,6.16a9.85,9.85,0,0,0,3.08,6.81,7.32,7.32,0,0,1,1.29,6.4c-.52,2.65-5.51,6.41,1,7.83,5.33,1.17,11.15,1.78,14.91-3.3,2.15-2.92-.65-5.26-3.08-6.93-3.55-2.55-7.7-4.52-3.48-9.95,6.16-7.94,10.84-10.19,16.13-6.15,4.13,3.08,8.63,5.42,12.75,8.34a10.66,10.66,0,0,1,1,7.39c-3.23,7.92-6.47,4.9-10.35-1.91-1.05,5.33-.77,8.2,3.64,8.75a9,9,0,0,1,8,6.47c1,4.77,1.63,9.61,3.08,14.35-4.13,8.5,4.84,9.85,7.95,14.41,7.85,10.63,14.53,21.56,13.82,35.66-.3,6.41,2.93,12.69,3.79,19.16.43,3.08,2.25,6.81-2,9-6.44-1.88-13.12-2.28-19.59-4.15a15,15,0,0,0-14.56,4.55,17.83,17.83,0,0,1-5.18,4.16,86.54,86.54,0,0,1-34.8,1.91c-6.9-4.71-13.3-2.68-19.58,1.42-9,1.44-18.14,1.29-27.17,3.08-22.85,4.15-54.69,28-51.67,62.05a70.26,70.26,0,0,1-2,22,71.54,71.54,0,0,0-1.14,23c3.08,33.29,1.18,66.64,1.21,100,0,10.75-2.93,21.78-1.11,32.34A85.87,85.87,0,0,1,262.88-418a83.46,83.46,0,0,0-2.28,25.44c.47,39.32.81,78.68-1.9,117.89-2.28,33-.71,66.09-1.42,99.1a77.09,77.09,0,0,0,4.83,29.35,38.74,38.74,0,0,1,2,14.29c-.15,31.35-.77,62.7,3.52,93.87,5.79,41.85,13,83.15,32.21,121.68a80.84,80.84,0,0,0,53.56,44.22,190.91,190.91,0,0,0,58.51,6.53c2.68,0,6.34-1.45,7.48,2.06s-2.58,4.65-5,5.7c-7.6,3.27-12.75,9.55-18.48,14.91-21,19.31-41.23,39.36-58.2,62.42a24.81,24.81,0,0,1-7.52,8.07c-25.34,13.15-40,36-53.18,59.69-9.86,17.64-18.48,36.09-19.77,56.88-.5,7.39.21,14.29,5.26,20.08A10.21,10.21,0,0,1,264,374.59a663.6,663.6,0,0,0-14.13,69.1,210.63,210.63,0,0,0-1.11,22.18c-.4,10.44-4.19,18-14.51,22.91-22.45,10.66-40.19,27.72-57.74,45A248.28,248.28,0,0,0,142.38,573c-20,30-29.79,61.9-20.33,97.9C122.82,674,225.5,804,224.79,807.22c35.57,86.63-62.95,62.09-76.62,114.17-11.89,45.33,41.08,94.88,25.49,154-8,30.37-183.91-30.4-191.71-1-28,105.27,101,268.18,99.54,267.94C65.32,1340-1146,722.75-1156.33,709.41a32.93,32.93,0,0,1,3.08-38.13c12.6-16.32,11.49-32.83,1.91-49.79"/><path class="cls-5" d="M130.88,40.87c-6-2.43-29.32-10.61-39.77-9.41S50.54,45,43.71,63.53s-22.38,54.7,4.68,81.61,48.75,24.51,76.47,14.06S159.8,117.82,161,112.4,169.85,56.69,130.88,40.87Z"/><path class="cls-6" d="M144.3,116.78a20.93,20.93,0,0,1-2.71,21.06c-15.24,20-20.45,20.79-39.29,4.69-24.3-20.79-41-46.2-45.24-78.6-.87-6.4.3-11,6.59-13.8,3.08-1.35,5.73-3.69,8.74-5.2,5.45-2.68,11.49-9.24,13.83,3.63,1.08,5.89,7.64,7.09,13.37,6.63,6.16-.5,11.11,1.29,13.79,7.36,1.85,1.91.74,3.85,0,5.82-3.72,9.24-3.48,9.94,5.79,11.95,4.78,1,9.24,2.64,9.24,8.25s-4.56,7.36-9.24,8a22.52,22.52,0,0,0-9.51,3.35,12.06,12.06,0,0,0-4.85,16.37c.12.23.25.45.38.66,3.91,7.3,10.69,9.7,17.53,6.5a56.41,56.41,0,0,0,9.7-6.84A18,18,0,0,1,144.3,116.78Z"/><path class="cls-7" d="M112.86,158.35c-24.64,8.32-48.75,2-63.13-17.21-15.4-20.67-18.48-48.44.8-78.29C56.9,104.92,80.55,134.46,112.86,158.35Z"/><path class="cls-8" d="M112,67.17c.46-1.54,1-3.08,1.41-4.62,1.21-5.89-2.12-8.1-7.17-9.24a70.57,70.57,0,0,0-9.89-1.73,9,9,0,0,1-8.09-9.75c0-.15,0-.3,0-.44.22-5.42,5.15-3.08,8-3.27,8.44-.4,16.91-.49,24.21,4.93,1.78,5.33,3.08,10.9,8.9,13.71a4.62,4.62,0,0,1,2.65,5c-1.6,6.69,1.26,11,6,15.4a10.77,10.77,0,0,1,.84,15.22l-.16.18c-3.57,4.25-5.51,7.36-.31,12,4.07,3.57.89,6.47-2.49,8.66h0c-1.79,1.78-3.73,3.35-5.45,5.2-10.51,8.84-16.82,8.9-23.9.25-6.32-7.73-3.79-16.91,5.6-20.48,3.08-1.14,6.16-.87,9.24-1.79,4-1.23,7.42-3.48,7.42-8.1s-3.91-6.5-7.94-7.39C109.41,78.47,109.41,78.53,112,67.17Z"/><path class="cls-9" d="M136,113.33c1.35-3.08,5.63-6.16-.37-8.72-7.36-3.26-3.82-7.66-.71-11.14,6.16-6.9,6.38-11.92-1-17.19-4.38-3.08-6.16-6.74-4.29-11.49s0-6.16-3.54-7.85c-5.85-3.08-8.13-7.51-5.51-13.92,17,4,35.39,25.68,35.72,43.12.22,11.42,2.47,23.28-4.43,34.55C148.06,115.12,143,111.76,136,113.33Z"/><path class="cls-10" d="M61.21,72.06c.59-8.93,6.69-12.72,13.37-15.61,4.1-1.76,8.72-3.36,13.4,4.34C74.89,56.79,68.24,64.39,61.21,72.06Z"/><path class="cls-11" d="M53.42,107c-5.73,16,3.08,25.62,14.75,34.36-8-.3-13.92-5.11-17.8-14.1A17.34,17.34,0,0,1,53.42,107Z"/></g></g></g></svg>