<svg xmlns="http://www.w3.org/2000/svg" xmlns:xlink="http://www.w3.org/1999/xlink" viewBox="0 0 200 200"><defs><style>.cls-1{fill:none;}.cls-2{fill:#3a3e5e;}.cls-3{clip-path:url(#clip-path);}.cls-4{fill:#3f3f3f;}.cls-5{fill:#282828;}.cls-6{fill:#090809;}.cls-7{fill:#020305;}.cls-8{fill:#778392;}.cls-9{fill:#9de5c2;}.cls-10{fill:#778393;}.cls-11{fill:#5b6672;}.cls-12{fill:#5c6672;}.cls-13{fill:#404752;}.cls-14{fill:#93a1b7;}.cls-15{fill:#89c8ab;}.cls-16{fill:#8ac8ab;}.cls-17{fill:#b6f1d5;}.cls-18{fill:#4c545e;}.cls-19{fill:#709f88;}.cls-20{fill:#6ea088;}.cls-21{fill:#4c545d;}.cls-22{fill:#4a555f;}.cls-23{fill:#040708;}.cls-24{fill:#040809;}.cls-25{fill:#070c12;}.cls-26{fill:#070911;}.cls-27{fill:#090f1a;}.cls-28{fill:#b3f1d3;}.cls-29{fill:#0a1a0e;}.cls-30{fill:#162e1e;}.cls-31{fill:#12331d;}.cls-32{fill:#0b1019;}.cls-33{fill:#030808;}.cls-34{fill:#040808;}.cls-35{fill:#0d0f18;}.cls-36{fill:#10171f;}.cls-37{fill:#a8e2c6;}.cls-38{fill:#a8e3c6;}.cls-39{fill:#abe6c9;}.cls-40{fill:#ace4c8;}</style><clipPath id="clip-path"><circle class="cls-1" cx="100" cy="100" r="93.27"/></clipPath></defs><g id="Layer_2" data-name="Layer 2"><g id="Layer_1-2" data-name="Layer 1"><circle class="cls-2" cx="100" cy="100" r="100"/><g class="cls-3"><path class="cls-4" d="M-1223.42,1336.33V1165.87c14.08-1.46,22.32,6.45,28.89,20,3.82-9.76,6.09-18.61,15.75-20.56.35-4-2.52-4.3-4.28-5.54-2.84-2-5.74-4.06-4.85-8.12s4.54-4.74,7.79-5.43c12.56-2.7,24.94-6.09,37.42-9a145.6,145.6,0,0,0,57.59-28.7,148.54,148.54,0,0,1,55.09-27c29.39-7.83,59.38-12.66,89.53-16.72a818.72,818.72,0,0,0,117.09-23.52c13.29-3.81,26.52-8,40.12-10.71A199.6,199.6,0,0,0-731.6,1012c-41.09,9-84.72,4.69-128.22-1.64-27-3.94-53.27-.9-79.33,5.66a383.33,383.33,0,0,1-99.33,11.16c-38.17-.51-76.32.35-114.16-6.33-22.14-3.9-42.94-11.81-63.76-19.79a18.78,18.78,0,0,1-7-5.66v-14.2c2.27-2.34,5.4-2.56,8.28-3.45,71.81-22.32,114.49-71.17,129.42-144.28,4.49-22-.53-43.08-12.17-62.22-3.64-6.09-3.39-10.47,1.23-15.34,6.36-6.7,10.39-15,15.12-22.75,8.91-14.71,7.51-30.44,4.06-46.16-.83-3.82-3-7.81.63-11.43,17.59-4.83,35.35-9,53.67-6.19a188.38,188.38,0,0,0,89.76-7.73,50.7,50.7,0,0,0,19.74-11.87c4.38-4.26,3.69-7.73-2-9.82a70.82,70.82,0,0,0-24.67-4.67c-16.83,0-33.71,1.08-50.43-2-7.69-1.48-15.2-3.16-20.54-9.59-1.7-4.06.35-7.17,2.54-10.25,11.42-16.24,20.66-33.3,24.23-53a13.93,13.93,0,0,1,4.73-8.74c17.53-8.12,36.75-8.42,55.29-11.67,33-5.8,66.32-8.65,99.64-11.61,5.4-.48,10.78-.73,16.23-.75,37.52,0,75.09-.32,112.59.14,18.64.25,37.07-3,55.68-2.33a11.05,11.05,0,0,0,9.31-3.21c11.12-12.86,26.38-18.73,41.83-23.58a300.55,300.55,0,0,1,119.17-12,453.29,453.29,0,0,0,172.49-16.23c30.68-9,57.89-25.92,85.71-41.26,29.14-16.07,53.37-39.14,81.48-56.82A612.94,612.94,0,0,1-13.65,316.21c22.1-8.12,41.28-19.89,55.07-39.55,3.9-5.58,5.34-10.54,1-16.54A24.81,24.81,0,0,1,38,245.79c-.12-10.69,4.06-16.42,14.47-18.95a102.56,102.56,0,0,1,28.21-2.54c26.38,1,52.64,1.73,78.88,4.59,15.24,1.64,30.43-.49,45.33-3.64,13.47-2.84,20.94-13.65,24.57-24.95,6-18.63,20-26.93,35.56-35,16.23-8.4,33.74-13.92,50.34-21.47,4.53-2,9.64-3.2,14.39-9-13.5-3.71-26.24-6.53-39.08-6.53-29.73,0-59.42-.94-89.19,1.13a373.09,373.09,0,0,1-71.9-1,74.15,74.15,0,0,0-20.29.39,34.05,34.05,0,0,1-5,.62c-4.06,0-9.6,1-10.25-3.73-.53-3.81,5-4.91,8.54-5.62a569.06,569.06,0,0,0,62-15.34C205.1,92,246.3,80.94,286.13,65.72c17.41-6.66,33.2-16.56,49.8-24.84,6.67-.43,9.33,5,12.32,9.17C370.57,80.94,402.49,91,438.53,91.18c13.86,0,27.41-3.45,40.58-8.26,9.94-3.65,12.18-2.25,13.07,7.84,5.56,56.65,37.26,92.94,88.7,113.94,7.38,3,16.23,2.88,22,9.39V341.94c-19.67,8.66-37.3,21.87-58.85,26.25-20,0-32.27-8.9-32.65-31.77-6.23,6.08-6.46,11.81-6.8,17.06-.55,8.32-3.88,12.87-12.52,14.21-4.71.71-10.15,1.07-13.43,6.35,2.21,5.25,10.75,4.2,11.52,11-1.62,4.64-5.8,5.5-9.74,6.09-31.82,4.05-61.12,16.23-90.71,27.67a392.67,392.67,0,0,0-56,25.8c-37.61,21.71-78.25,33.88-120.6,42.39-29.32,5.88-58.85,12.17-86.91,23-11.12,0-17.88-8.81-26.71-13.37-32.2-16.75-65.4-30.34-100.91-38.56a386,386,0,0,0-110.88-9.31c-45.09,2.67-88.43,13.33-126.48,39-31.31,21.12-43.49,51.52-41.1,89.12,3.37,52.76,29.81,94.79,60.88,134.44,30.6,39.08,69.34,68.89,112.67,93,6.65,3.69,15.46,4.71,19.35,12.78-5.64,4.06-12.64,4.06-19,5.93-24.78,7.2-48.88,16.38-73.27,24.63q-41.62,15.24-81.88,33.79c-31.09,12.36-60.31,28.67-90.33,43.26-24.25,13.42-48.41,27-71.87,41.79-4.06,2-7.67,5.23-12.52,5.6-12.18-5-22.49-13.27-34.76-18.27-27-11.18-54-10.28-81.38-3.1a37.09,37.09,0,0,1-20.47,0c-21.65-5.84-43.43-13.27-66.5-7.08-16.23,4.38-32.47,16.37-23,39.45,5.78,14.2,10.9,28.41,19.95,40.74a14.73,14.73,0,0,1,2.51,14.39c-10.77,28.41-6.86,55.74,6.46,82.33a9.74,9.74,0,0,1,.75,2.92c-4.31,7.26-11.63,11.57-17.74,16.88-9.82,8.57-19,17.78-28.15,26.95-8.76,8.69-16.76,18.1-25.26,27a27.2,27.2,0,0,1-9,6.33c-36.52,21.75-77.23,33.71-116.4,49.25-46.12,18.26-92.2,36.71-140,50.57-41.26,12-82.88,22.44-125.51,27.76-36.53,4.52-73,8.87-109.74,11C-1210.46,1339.63-1217.52,1341.16-1223.42,1336.33Z"/><path class="cls-5" d="M30.69-301.15a109.08,109.08,0,0,0-8.22,45.07c1.83,39.55,19.6,69.4,54.32,88.53,36,19.85,72.83,19.28,111,5.48,20.66-7.46,37.87-20.29,56.82-30.31,3.39-1.79,3.49-6.68,8.22-8.12a85.09,85.09,0,0,0-5.34,52.6c5.65,25.08,21.19,41.6,45.34,49.19C304.6-95,316.61-91.06,329.39-92c5.38-.4,5.42,1.77,2.6,6C319-66.87,319.13-45,319.82-23c.69,22.91,7.61,44.17,17.26,64.71-7.77,7.65-17.45,12.74-27,17.27-31.38,14.89-64.57,25-97.77,34.86-30.6,9.11-60.88,19.4-92.19,26l-25.81,5.41c7.71,3.92,13.57.23,19.52-.28,11.24-1,22.14,2,33.26,2.13,45.94.75,91.78-3.55,137.72-2.17a182.26,182.26,0,0,1,46.67,7.49c1.77.5,4.49.44,4.55,3.12,0,2.32-2.13,3.25-4.06,4.06-11.4,5.05-22.66,10.49-34.29,15-18.63,7.22-36.67,15.4-53.31,26.6a16.79,16.79,0,0,0-8,11.08c-1.82,9.62-7.5,17.29-13.17,24.7a33.12,33.12,0,0,1-20.86,12.45c-26.64,5.56-52.9,1.22-79.36,0-23.07-1.09-46.27-3.77-69.28.65C43,232.11,38.52,240,41,250.66a20,20,0,0,1,.65,2c1,6.74,11.46,11.08,8,17.33a98.4,98.4,0,0,1-25.26,29.91C4,315.74-20.81,321.83-44,331.34c-38.55,15.93-75.61,34.5-108.38,60.09A643.42,643.42,0,0,1-260.69,459a250.08,250.08,0,0,1-80.68,24.72c-27.64,3.55-54.91,11-83.2,8.38-26.18-2.45-52.44-4.46-78.65-3.75-34,.93-68,4.42-99.44,18.56-9.31,4.2-20.49,6.7-25.3,18.27-1.65,3.95-6.88,3.35-11,3.55-57.73,3.12-115.52.79-173.24,2.37a761.24,761.24,0,0,0-103.16,10.7c-21.51,3.57-43.19,6.08-64.41,11.32,0-6.41-.12-12.85-.12-19.26,0-13.59.16-14.81,13.94-12.94,20.94,2.84,40.81-.86,60.61-6.38C-883.14,508.5-862,500.14-844,485c15.23-12.85,22.6-30.89,32.34-47.32,16.36-27.6,18.77-58.57,20.6-89.6,4.93-4.22,10.87-3.26,16.48-2.76a600.3,600.3,0,0,0,135.24-2.49c38.26-5.14,75.61-13.58,109.89-32.81,18-10.15,21.51-26.38,22.48-44.49.31-5.62-3.55-8.52-8.89-9.15A38.06,38.06,0,0,0-542,262c-9,5.87-17.31,12.89-27.82,16.34-29.16,9.62-57.49,10.31-84.32-7.1-3.33-3.29-1.3-6.35.93-8.75,4.2-4.54,3.19-8.22-.91-12-1.72-1.56-3.31-3.29-5-4.93-7-6.94-7.12-7-11.69,2.21-3.18,6.43-7.73,9.86-15.16,8.44a37.92,37.92,0,0,1-13.37-8.95c-17.57-17.25-38.56-29.28-59.9-41.11-2.88-1.62-6.09-3-7.71-6.29,8.6-5.22,19.21-6.09,27.21-12.83,1.4-1.15,5.11.21,7.69.76,34.39,7.24,64.22-4.27,92.35-22.55,10.15-6.57,20.29-13.21,30.11-20.29,19.91-14.21,32.82-34.5,45.58-54.65a104.21,104.21,0,0,0,16.8-62.2c-.83-18.26,12.5-32.06,22.1-46.67,22.32-34.09,41.64-69.8,55.62-108.24a199,199,0,0,1,8-19.56A16.76,16.76,0,0,1-449.65-156c22.48-5.86,41.68-17.25,54.6-37.34,12.55-19.44,15.39-41.31-2.45-61.34,33.08,2,64.69-3.94,93.34-20.62,22.65-13.11,44.12-28.2,66.1-42.41,19.21-12.4,38.17-25.2,57.75-37,13.9-8.38,28.65-15.49,45.74-13.46,4.3.49,11.26-2.88,12.17,3.21,1.12,6.72,4.16,14.2-2,21.06-11.34,12.18-24.83,21.78-38.71,30.65-7.51,4.78-14.21,11.58-23.89,12.68a6,6,0,0,0-4.06,4.06c-.85,7.91-5.31,14.2-8.36,21.26-3.79,8.71-3.06,9.2,6.09,11.65a11.82,11.82,0,0,1,7.85,10.39c-.12,6.86,4.35,7.41,8.67,9,23.15,8.52,44.07,1.81,64.93-8.56,30.32-15.1,58.57-35.07,92.92-40.93,14.21-2.42,28.78-2,42.88-5.48C26.23-299.81,28.46-300.58,30.69-301.15Z"/><path class="cls-6" d="M81.32,124.81c-14-7.87-27.6-16.34-39.74-26.95C36,93,30.77,87.78,27,81.3A22.27,22.27,0,0,1,24.76,76c-1.57-5.87.46-10.32,5.95-12.92a35,35,0,0,1,13.76-2.92,90.07,90.07,0,0,1,24.3,2.77,3.52,3.52,0,0,0,3.61-.85,34.88,34.88,0,0,1,24.4-8.53c20.56.49,36.27,9.57,46.41,27.6a32.89,32.89,0,0,1,3.93,22.08c-.19,1.1.38,1.54,1,2.12,6.69,6.29,12.86,13,17.44,21A30.06,30.06,0,0,1,169.77,138c.55,5.1-1.51,8.55-6.32,10.41-4.3,1.68-8.79,1.67-13.29,1.31-10.68-.87-20.87-3.87-30.88-7.48A257.32,257.32,0,0,1,81.32,124.81Z"/><path class="cls-6" d="M83.8,88.12c5.88,3.67,11.79,7.27,18,10.46a186.93,186.93,0,0,0,17.31,8,1.69,1.69,0,0,1,1.25,1.59c0,.28.12.58.44.66s.51-.25.54-.49c.11-.79.52-.69,1.07-.48a82.3,82.3,0,0,0,16.51,4.62,1.73,1.73,0,0,1,1.37,1.13c3.81,7.63,6.79,15.48,6.91,24.17a31.23,31.23,0,0,1-.88,5.53,1.11,1.11,0,0,1-.77.85c-.55-1,.34-2.38-.71-3.31-.09.05-.24.09-.25.16-.64,2.87-.66,2.93-3.58,2.14a186.57,186.57,0,0,1-25.19-8.92c-4.89-2.12-9.72-4.4-14.61-6.55a1.64,1.64,0,0,1-1.18-1.79,3.27,3.27,0,0,0-1-2.56c-.6,1,.24,2-.47,3.33-2.83-1.53-5.64-3.08-8.47-4.59-8.59-4.56-16.9-9.59-25.14-14.76a4.16,4.16,0,0,1-.61-.58c2.06.5,3-.77,4.17-2.22A95.07,95.07,0,0,1,83.08,90.09C83.74,89.55,84.5,89.12,83.8,88.12Z"/><path class="cls-6" d="M99.22,57c-.35.54-1.08.78-1.21,1.49a3.49,3.49,0,0,1-2.51.88,33.67,33.67,0,0,0-7.8,1.77,2,2,0,0,0-.63.28c-.64.49-1.89.76-1.57,1.7.24.69,1.35.16,2,0a47.74,47.74,0,0,1,18.14-.56,48.3,48.3,0,0,1,10.79,3.12,18.71,18.71,0,0,0,2.42.84c.31.08.71.25.92-.12s-.1-.64-.32-.88a12.08,12.08,0,0,0-4.78-3.2,40.57,40.57,0,0,0-13.37-3.25c-.77,0-1.76.2-2.24-.82a14.84,14.84,0,0,1,4.25-1.93,44.87,44.87,0,0,1,27.87,14,37.54,37.54,0,0,1,10.63,21.82,29,29,0,0,1-1.54,12.59,1.69,1.69,0,0,1-2.08,1.28c-1.13-.13-2.26-.28-3.39-.37a122.16,122.16,0,0,1-20.07-6.78A202.85,202.85,0,0,1,96.2,89.53C88.27,85,80.56,80,73.79,73.78c-3.35-3.09-3.48-4.21-.46-7.56,5.88-6.52,13.34-9.66,22-10.21a16.11,16.11,0,0,1,3.4-.06C99.38,56,100,56.22,99.22,57Z"/><path class="cls-6" d="M57.23,102C49.87,96.87,42.71,91.5,36.45,85a12.48,12.48,0,0,1,4.45-3.28A78.07,78.07,0,0,1,65.38,73.6c.62-.1,1.24-.28,1.72.33,2.85,3.86,6.62,6.78,10.26,9.81-2.86,1-5.1,3-7.35,4.85a106.14,106.14,0,0,0-11.74,10.9A3.4,3.4,0,0,0,57.23,102Z"/><path class="cls-6" d="M67.1,73.93a18.83,18.83,0,0,0-5.64.82A78.51,78.51,0,0,0,41.15,82c-1.63.88-3.14,2-4.7,3-.3-.26-.6-.52-.88-.8-2.43-2.38-2.37-2.59,1-3.58A18.69,18.69,0,0,0,39,79.9a6,6,0,0,0-5.08.56c-1.14.57-1.67.31-2.37-.61a28.55,28.55,0,0,1-4.06-6.46,7.36,7.36,0,0,1-.71-4.13c.45-2.08,2.29-2.66,3.85-3.53a.5.5,0,0,1,.78.38A3.27,3.27,0,0,1,31,67.2c-.77,2-.05,3.7,1.74,4.27a3.68,3.68,0,0,0,4.63-2.32,2.46,2.46,0,0,0-.95-2.7c-.53-.42-1.19-.65-1.72-1.08-.71-.71-.27-1.11.4-1.38a11.61,11.61,0,0,1,3.12-.83,84.17,84.17,0,0,1,19.87.74A10.7,10.7,0,0,1,60.91,65l1.32-.35a30.84,30.84,0,0,1,4.24.93c.59.14,1.19.33,1.41,1a4.21,4.21,0,0,1-.48.89A4.62,4.62,0,0,0,67.1,73.93Z"/><path class="cls-6" d="M145.5,144.16a21,21,0,0,0,1-9.67,48.17,48.17,0,0,0-3.9-14.51c-1-2.17-1.83-4.38-2.93-6.49a2.86,2.86,0,0,0-.84-1c.9,0,1.8,0,2.68.06,1.7.2,3-.25,3.5-2,.44-1.41,1.16-.48,1.62-.12,1.78,1.41,3.35,3,5,4.61a2.69,2.69,0,0,1,1.14,2l.25.86a1.46,1.46,0,0,1,1.63.6c3.82,4.22,7.29,8.69,9.5,14,.22.55.68,1.15-.16,1.61a2.09,2.09,0,0,1-.49.13c-2.6.21-3.66,1.24-3.43,3.33a3.53,3.53,0,0,0,4.26,3.33,2.21,2.21,0,0,1,1.17,0c.74.94-.16,1.36-.67,1.75a12,12,0,0,1-6,2.24,46.32,46.32,0,0,1-7.44.54A25.65,25.65,0,0,1,145.5,144.16Z"/><path class="cls-6" d="M26.24,75a32.25,32.25,0,0,0,4.47,6.32c.68.84,1.49,1.55,1.29,2.79-.05.31.22.92.47.71,1.21-1,1.67.27,2.15.77A126.19,126.19,0,0,0,50.81,99.37,274.58,274.58,0,0,0,74.2,114.88C81.33,119.14,88.71,123,96,126.93c1.49.82,1.5.81,1,2.88,2-2.18,3.46-.7,5,0,7.88,3.63,15.8,7.15,24,10.07,5.08,1.81,10.25,3.32,15.32,5.09,1.69.59,3.37.57,5,1,1.84.52,3.79.68,5.68,1.06a39.66,39.66,0,0,0,5.76.53c.21,0,.47-.1.69.47-14.31.86-27.44-3.59-40.58-8.06-.11-.74.81-1,.64-1.85-4.19,1.92-7.49-.91-10.94-2.33a288,288,0,0,1-32.11-16.19,24.26,24.26,0,0,1-4.88-3.07,17.3,17.3,0,0,0-4.36-2.79,91.1,91.1,0,0,1-12.61-8.34A144.49,144.49,0,0,1,38,92.41c-4.33-4.3-8.39-8.81-10.86-14.5a13.67,13.67,0,0,1-.52-1.44C26.46,76,26.36,75.52,26.24,75Z"/><path class="cls-6" d="M57.23,102c-1-.92-.48-1.46.29-2.32A105.26,105.26,0,0,1,74.37,84.77c.85-.62,1.66-1.66,3-1,.34.2.69.38,1,.61,1.35,1,3.34,1.63,1.55,4.21,1.37-1.6,2.59-1.8,3.87-.44,0,.62.78.61,1,1.13a113.6,113.6,0,0,0-16.2,15.65,6.48,6.48,0,0,0-.5.67c-1.43,2.23-1.43,2.23-3.85,1.16C61.81,105.33,59.53,103.64,57.23,102Z"/><path class="cls-6" d="M99.22,57c.39-1.19-.81-.67-1-.66-6.15.15-12.08,1.24-17.48,4.37a30,30,0,0,0-9,8.14c-.37.49-.6,1.18-.21,1.57,1.07,1.08,1.78,2.42,3,3.43,2.47,2.06,5,4.09,7.48,6.07,2.15,1.68,4.44,3.13,6.7,4.6A171.24,171.24,0,0,0,107.43,95a144.14,144.14,0,0,0,18.73,7.84c2.93,1,5.91,1.7,8.87,2.55.86.77.05,1.44-.13,2.15a1,1,0,0,1-1.39.27c-.4-.69-.11-1.68-.93-2.19-.24-.11-.21-1.07-.68-.32a20,20,0,0,1-.89,1.8c-1.71.27-3.24-.52-4.78-1a156.38,156.38,0,0,1-18.46-7.43c-5.1-2.38-10-5.08-14.92-7.83C84.79,86.32,77,81.34,70.23,75c-.87-.42-.93-1.06-.48-1.82s.87-1.42,1.33-2.17c-.76-.3-1.1.27-1.54.55s-.66,1.43-1.29.86a1.86,1.86,0,0,1-.41-2.6c.64-.87,1.19-1.81,1.86-2.65,5.61-7.1,13.22-10.5,22-11.73a43.27,43.27,0,0,1,10.39-.1Z"/><path class="cls-6" d="M134.66,107.55c-.19-.77.66-1.36.37-2.14a9.5,9.5,0,0,1,3.36.24c.76.07,1.15,0,1.46-.91A28.4,28.4,0,0,0,140.44,87a40.45,40.45,0,0,0-10.52-17.41,49.44,49.44,0,0,0-14.44-9.71,38,38,0,0,0-10.09-2.84,5.26,5.26,0,0,1-2-.74,3,3,0,0,1,2.42-.49c16.13,3.44,28.57,11.88,36.41,26.67a14.55,14.55,0,0,1,1.62,7.88c-.06,1.07,0,1.08.75,1.16,1.1,1.76.58,3.72.55,5.57,0,3.39-1.2,6.56-2.27,9.73a2.47,2.47,0,0,1-2.77,2c-1.25-.1-2.5-.11-3.73-.3C135.65,108.4,134.94,108.34,134.66,107.55Z"/><path class="cls-6" d="M99.09,58.26c2.16.76,4.46.32,6.67.86,4,1,8,2,11.64,4.07a13.93,13.93,0,0,1,2.82,2.42c.31.32.61.7.36,1.22-.33.67-.91.42-1.35.28-1.66-.53-3.31-1.1-4.94-1.73A43.67,43.67,0,0,0,91.14,63c-1.73.29-3.45.62-5.17,1-.48.09-.94.12-1.25-.29s0-1.06.34-1.36a7.85,7.85,0,0,1,2.69-1.68A59.91,59.91,0,0,1,98,58.47Z"/><path class="cls-6" d="M163.88,133.87a5.48,5.48,0,0,0-1.08-3.56,60.15,60.15,0,0,0-8.27-11.41,2.6,2.6,0,0,0-1.48-1,6.25,6.25,0,0,0,1.32-3.62c1.29.9,1.29.9.9,3.92.1,0,.27.1.29.07,1.38-2,2.12-.6,3,.52,3.78,4.87,7.21,9.92,9,15.93a16.22,16.22,0,0,1,.76,5.71,5,5,0,0,1-3.85,4.84c-4.31,1.33-8.63.93-13,.12a2.77,2.77,0,0,1,1.56-.42c3.64-.26,7.37-.23,10.7-2.08.76-.42,1.84-.7,1.72-1.95a.93.93,0,0,1,0-.66c1.24-2.3.65-4.19-1.27-5.79A.92.92,0,0,1,163.88,133.87Z"/><path class="cls-6" d="M70.23,75a43,43,0,0,1,5.53,4.16c3,2.43,6.32,4.55,9.58,6.66,5.58,3.61,11.43,6.76,17.33,9.79a144.06,144.06,0,0,0,27.09,11,12,12,0,0,1,1.25.49c-.36,1.54-1.23,1.69-2.64,1.21A193.92,193.92,0,0,1,89.88,90,110.38,110.38,0,0,1,72,77,7,7,0,0,1,70.23,75Z"/><path class="cls-6" d="M134.66,107.55c2,.93,4.21.69,6.35.79.84,0,1-.68,1.22-1.22a31.79,31.79,0,0,0,2.31-15.57l.24-1.12a27.06,27.06,0,0,1-.4,17.11c-1.37,3.68-.45,3.72-5.34,3.22a36.93,36.93,0,0,1-7.47-1.57,4.36,4.36,0,0,1,.79-1.73c.41-.27.79-.34,1.09.16Z"/><path class="cls-6" d="M60.91,65a52.21,52.21,0,0,0-8.35-1.32,53.33,53.33,0,0,0-10.64-.32c-2.23.21-4.52,0-6.64.94-.32.15-1.15.11-.34.78a11.06,11.06,0,0,1-3.73,1.09c-1.16,0-3.57,1.63-4.43,3.05C27,67,28.7,66,30.36,65.09c4.36-2.52,9.21-3.11,14.1-3.31A76,76,0,0,1,60.88,63a5.26,5.26,0,0,1,.72.2C61.88,64.12,60.13,64,60.91,65Z"/><path class="cls-6" d="M152.8,117a66.13,66.13,0,0,0-6.91-6.69c-.37-.34-.6,0-.84.21.4-1.17.8-2.33,1.21-3.49.23-.68.69-.72,1.15-.27a59.14,59.14,0,0,1,5.19,5.32C153.69,113.47,153.1,115.33,152.8,117Z"/><path class="cls-6" d="M67.88,66.64c-1.75-1-4-.62-5.65-2,2.1-1.35,4.22-.71,6.32,0C69.38,64.9,69.22,65.38,67.88,66.64Z"/><path class="cls-6" d="M133.45,107.62l-1.09-.16.22-1.82C134.17,105.73,133.79,106.69,133.45,107.62Z"/><path class="cls-6" d="M133.16,128.78a3.81,3.81,0,0,1,1.52,5.27,3.89,3.89,0,0,1-5.26,1.65,4.07,4.07,0,0,1-1.66-5.29A4,4,0,0,1,133.16,128.78Z"/><path class="cls-6" d="M90.77,117.58a3.74,3.74,0,0,1-1.53-5.24,3.94,3.94,0,0,1,5.44-1.52,4,4,0,0,1,1.41,5.37A3.88,3.88,0,0,1,90.77,117.58Z"/><path class="cls-6" d="M123.82,113.55c1.07,2,.84,7-.45,9.72C122.78,122.12,123.07,115.8,123.82,113.55Z"/><path class="cls-6" d="M82.86,100.74a30.49,30.49,0,0,1-5,7A11.57,11.57,0,0,1,82.86,100.74Z"/><path class="cls-6" d="M109.77,106.05a.68.68,0,0,1,.32.87c-.1.36-.37.62-.76.49s-.4-.52-.31-.87A.6.6,0,0,1,109.77,106.05Z"/><path class="cls-6" d="M136.81,82.42c2.27,5.94,3.42,11.85,1.78,18-.66,2.49-1,2.76-3.51,2.49-5.38-.59-10.43-2.44-15.42-4.38a135.14,135.14,0,0,1-13.86-5.92c-.5-.26-1-.54-1.6-.87.71-.61,1.16-.12,1.6.1a110.45,110.45,0,0,0,20.74,7.77,63,63,0,0,0,6.81,1.32c2,.3,2.61-.21,3.13-2.19a29.1,29.1,0,0,0,.1-14.94C136.47,83.43,136.22,83,136.81,82.42Z"/><path class="cls-6" d="M130.41,81.93c.61-1.58,2.05-2.33,1-4,1.12.43,1.81,1.3,2.88.67a3.82,3.82,0,0,0-.63,3.31C132.75,80.68,131.77,81.17,130.41,81.93Z"/><path class="cls-6" d="M86.48,76c-.2-1.73.75-2.52,1.8-3.23.19-.12.54,0,.49.27A4.56,4.56,0,0,1,86.48,76Z"/><path class="cls-6" d="M121,74.83a1,1,0,0,1,.35,1.19.52.52,0,0,1-.81.29.8.8,0,0,1-.28-1C120.36,74.94,120.53,74.67,121,74.83Z"/><path class="cls-6" d="M59.66,94a3.93,3.93,0,0,1-6.92-3.74,4.09,4.09,0,0,1,5.46-1.61A4,4,0,0,1,59.66,94Z"/><path class="cls-6" d="M47.49,85.74c-.45.55-.92,1.21-1.73,1.09-.46-.06-.27-.53-.09-.81a1.89,1.89,0,0,1,1.75-1.09C47.92,85,47.63,85.44,47.49,85.74Z"/><path class="cls-6" d="M31.21,66.21a6.67,6.67,0,0,1,3.73-1.09c.15.07.3.16.46.22,1.4.57,2.49,1.43,2.54,3.08a3.45,3.45,0,0,1-2.11,3.23,4,4,0,0,1-4.49-.39A3.42,3.42,0,0,1,31.21,66.21Z"/><path class="cls-6" d="M163.88,133.87c3.11,1.83,3.59,4,1.54,7-2.21.93-3.9.52-5-1.24a4,4,0,0,1,.33-5.11A3.49,3.49,0,0,1,163.88,133.87Z"/><path class="cls-6" d="M155,129.83a1.89,1.89,0,0,1,.37,2.15c-.11.29-.44.44-.64.11a2.87,2.87,0,0,1-.47-2.23C154.33,129.52,154.69,129.68,155,129.83Z"/><path class="cls-6" d="M41.68,93.93c-.22.34-.53.48-.85.25s-.69-.62-.41-1.13a.59.59,0,0,1,.84-.29A1,1,0,0,1,41.68,93.93Z"/><path class="cls-6" d="M132.44,130.21a2.32,2.32,0,0,1,.78,3.14,2.25,2.25,0,0,1-3.12.79,2.27,2.27,0,0,1-.78-3.12A2.32,2.32,0,0,1,132.44,130.21Z"/><path class="cls-6" d="M94.64,115.33a2.4,2.4,0,0,1-3.13.88,2.31,2.31,0,0,1-.8-3.13,2.25,2.25,0,0,1,3.09-.87A2.33,2.33,0,0,1,94.64,115.33Z"/><path class="cls-6" d="M58.21,93.24a2.2,2.2,0,0,1-3.09.82A2.24,2.24,0,0,1,54.26,91a2.28,2.28,0,1,1,4,2.27Z"/><path class="cls-6" d="M32.71,70.17a1.51,1.51,0,0,1-.61-2.29,2.55,2.55,0,0,1,3.31-.78A1.52,1.52,0,0,1,36,69.4,2.59,2.59,0,0,1,32.71,70.17Z"/><path class="cls-6" d="M162.56,139.5a2.52,2.52,0,0,1-1.13-3.19,1.48,1.48,0,0,1,2.27-.68,2.66,2.66,0,0,1,1.09,3.38A1.58,1.58,0,0,1,162.56,139.5Z"/><path class="cls-7" d="M82,123.36c-13.25-7.45-26.12-15.47-37.62-25.51-5.29-4.61-10.23-9.54-13.79-15.68a20.91,20.91,0,0,1-2.13-5c-1.48-5.55.44-9.76,5.63-12.23a33,33,0,0,1,13-2.76,84.9,84.9,0,0,1,23,2.62,3.34,3.34,0,0,0,3.42-.8,33,33,0,0,1,23.1-8.08c19.47.46,34.34,9.06,43.94,26.13a31.17,31.17,0,0,1,3.72,20.91c-.18,1,.36,1.45.95,2,6.33,6,12.17,12.33,16.51,19.93a28.51,28.51,0,0,1,4,11c.52,4.83-1.43,8.09-6,9.86-4.07,1.58-8.33,1.58-12.59,1.23-10.11-.82-19.75-3.66-29.23-7.08A244.13,244.13,0,0,1,82,123.36Z"/><path class="cls-8" d="M84.39,88.63c5.57,3.47,11.17,6.88,17,9.9a178.79,178.79,0,0,0,16.39,7.58A1.59,1.59,0,0,1,119,107.6a.64.64,0,0,0,.42.64c.37.09.48-.25.51-.47.1-.75.48-.65,1-.45a79.22,79.22,0,0,0,15.63,4.37,1.64,1.64,0,0,1,1.3,1.06c3.6,7.23,6.43,14.67,6.54,22.89a29,29,0,0,1-.84,5.24,1,1,0,0,1-.72.8c-.52-1,.32-2.25-.68-3.13-.08,0-.22.08-.24.14-.6,2.72-.62,2.79-3.38,2a176.87,176.87,0,0,1-23.85-8.45c-4.63-2-9.21-4.16-13.83-6.2a1.56,1.56,0,0,1-1.12-1.7,3.07,3.07,0,0,0-1-2.42c-.57.91.22,1.91-.45,3.16-2.68-1.46-5.34-2.93-8-4.35-8.13-4.32-16-9.09-23.8-14a3.82,3.82,0,0,1-.58-.56c2,.48,2.86-.72,3.95-2.1A90,90,0,0,1,83.72,90.49C84.34,90,85.05,89.57,84.39,88.63Z"/><path class="cls-9" d="M99,59.15c-.33.51-1,.73-1.15,1.41a3.29,3.29,0,0,1-2.37.83,31.69,31.69,0,0,0-7.39,1.68,1.83,1.83,0,0,0-.59.26c-.61.46-1.79.72-1.48,1.61.22.66,1.27.15,1.91,0a44.65,44.65,0,0,1,27.39,2.43,17.21,17.21,0,0,0,2.29.79c.3.09.67.24.88-.11s-.1-.6-.31-.83a11.39,11.39,0,0,0-4.53-3A38.29,38.29,0,0,0,101,61.13c-.73,0-1.67.19-2.12-.77a13.8,13.8,0,0,1,4-1.83,42.51,42.51,0,0,1,26.39,13.29,35.48,35.48,0,0,1,10.06,20.66,27.44,27.44,0,0,1-1.46,11.92,1.61,1.61,0,0,1-2,1.21c-1.07-.13-2.13-.26-3.21-.35a115,115,0,0,1-19-6.42A188.9,188.9,0,0,1,96.14,90c-7.52-4.33-14.82-9-21.23-14.91-3.17-2.93-3.29-4-.43-7.16,5.57-6.17,12.63-9.15,20.82-9.67a15.85,15.85,0,0,1,3.23,0C99.14,58.26,99.68,58.42,99,59.15Z"/><path class="cls-10" d="M59.23,101.78c-7-4.87-13.74-10-19.67-16.08a12.07,12.07,0,0,1,4.22-3.11A73.77,73.77,0,0,1,67,74.88c.59-.1,1.18-.26,1.63.31,2.7,3.66,6.27,6.42,9.72,9.29-2.71.94-4.84,2.81-7,4.59A99.58,99.58,0,0,0,60.22,99.39,3.23,3.23,0,0,0,59.23,101.78Z"/><path class="cls-11" d="M68.58,75.19a17.84,17.84,0,0,0-5.34.78A74.41,74.41,0,0,0,44,82.87c-1.54.83-3,1.88-4.45,2.83-.28-.25-.56-.49-.83-.75-2.3-2.26-2.24-2.46,1-3.39A19.47,19.47,0,0,0,42,80.85a5.6,5.6,0,0,0-4.81.53c-1.08.54-1.58.29-2.24-.58a27.66,27.66,0,0,1-3.85-6.12,7,7,0,0,1-.67-3.91c.43-2,2.17-2.52,3.65-3.34a.47.47,0,0,1,.73.36,2.75,2.75,0,0,1-.39,1c-.72,1.85,0,3.5,1.65,4.05a3.5,3.5,0,0,0,4.39-2.2,2.36,2.36,0,0,0-.9-2.56c-.51-.4-1.13-.62-1.63-1-.68-.66-.25-1,.38-1.3a11.49,11.49,0,0,1,3-.79,80,80,0,0,1,18.81.7,10.39,10.39,0,0,1,2.67,1.08L64,66.44a30.15,30.15,0,0,1,4,.88c.56.14,1.14.32,1.34,1a4.08,4.08,0,0,1-.46.85A4.37,4.37,0,0,0,68.58,75.19Z"/><path class="cls-12" d="M142.81,141.68a19.9,19.9,0,0,0,1-9.15,45.5,45.5,0,0,0-3.69-13.74c-.91-2.06-1.74-4.15-2.77-6.15a2.75,2.75,0,0,0-.8-1,23.87,23.87,0,0,1,2.54.06c1.61.18,2.81-.24,3.31-1.92.42-1.34,1.1-.46,1.54-.11,1.68,1.34,3.17,2.89,4.72,4.36a2.6,2.6,0,0,1,1.08,1.88l.23.83a1.38,1.38,0,0,1,1.55.56c3.61,4,6.9,8.22,9,13.25.21.52.65,1.09-.15,1.52a1.57,1.57,0,0,1-.47.13c-2.46.2-3.46,1.17-3.24,3.16a3.35,3.35,0,0,0,4,3.15,2.09,2.09,0,0,1,1.11,0c.7.89-.16,1.28-.63,1.66a11.3,11.3,0,0,1-5.67,2.12,44.9,44.9,0,0,1-7,.51A24.47,24.47,0,0,1,142.81,141.68Z"/><path class="cls-13" d="M29.9,76.24a30.66,30.66,0,0,0,4.23,6c.65.8,1.41,1.47,1.22,2.65,0,.29.21.86.44.67,1.15-.93,1.59.26,2.05.73a119.58,119.58,0,0,0,15.32,13A263.56,263.56,0,0,0,75.3,114c6.76,4,13.74,7.64,20.63,11.41,1.42.77,1.42.76.94,2.72,1.87-2.06,3.28-.66,4.78,0,7.46,3.44,15,6.77,22.71,9.53,4.8,1.72,9.69,3.15,14.5,4.83,1.6.55,3.19.54,4.74,1,1.75.5,3.59.64,5.38,1a38.33,38.33,0,0,0,5.45.49c.2,0,.45-.09.66.45-13.56.82-26-3.39-38.42-7.63-.11-.7.76-.95.6-1.75-4,1.82-7.09-.86-10.36-2.21a271.12,271.12,0,0,1-30.4-15.33,23,23,0,0,1-4.62-2.9A16,16,0,0,0,67.77,113a85.68,85.68,0,0,1-11.94-7.9A137.58,137.58,0,0,1,41,92.69c-4.1-4.07-7.94-8.34-10.28-13.73a13,13,0,0,1-.49-1.36C30.11,77.16,30,76.7,29.9,76.24Z"/><path class="cls-14" d="M59.23,101.78c-1-.88-.45-1.39.28-2.2A100.09,100.09,0,0,1,75.46,85.45c.81-.58,1.58-1.57,2.84-1,.32.19.65.36,1,.57,1.28.9,3.16,1.55,1.47,4,1.29-1.52,2.45-1.72,3.66-.42,0,.59.74.57,1,1.06A108,108,0,0,0,70,104.51a5.84,5.84,0,0,0-.47.64c-1.36,2.11-1.36,2.11-3.65,1.09C63.57,104.92,61.42,103.32,59.23,101.78Z"/><path class="cls-15" d="M99,59.15c.37-1.13-.77-.64-.91-.63-5.82.14-11.43,1.18-16.55,4.14A28.59,28.59,0,0,0,73,70.36c-.35.47-.56,1.12-.19,1.49,1,1,1.68,2.29,2.82,3.25,2.34,2,4.69,3.87,7.09,5.75,2,1.58,4.2,3,6.33,4.35a164.38,164.38,0,0,0,17.7,10,136.34,136.34,0,0,0,17.73,7.43c2.77.9,5.59,1.6,8.39,2.4.82.73.05,1.37-.12,2a1,1,0,0,1-1.31.25c-.38-.65-.11-1.58-.89-2.07-.23-.11-.2-1-.64-.3-.33.52-.44,1.19-.84,1.71-1.63.24-3.07-.5-4.52-1a149.09,149.09,0,0,1-17.48-7c-4.84-2.25-9.5-4.81-14.13-7.41-7.63-4.29-15-9-21.42-15-.82-.4-.88-1-.45-1.73s.82-1.34,1.26-2c-.72-.28-1,.25-1.46.51s-.63,1.36-1.22.82a1.76,1.76,0,0,1-.39-2.46c.61-.82,1.13-1.71,1.76-2.51,5.32-6.72,12.52-9.94,20.8-11.1a41.28,41.28,0,0,1,9.84-.1Z"/><path class="cls-16" d="M132.54,107c-.18-.73.62-1.28.35-2a9.18,9.18,0,0,1,3.18.23c.72.06,1.09,0,1.39-.86A27,27,0,0,0,138,87.59a38.47,38.47,0,0,0-10-16.48,47,47,0,0,0-13.67-9.2,36.46,36.46,0,0,0-9.55-2.68,4.91,4.91,0,0,1-2-.7,2.83,2.83,0,0,1,2.29-.47c15.27,3.27,27,11.26,34.48,25.25a13.9,13.9,0,0,1,1.53,7.47c-.06,1,0,1,.71,1.09,1,1.67.54,3.52.52,5.28,0,3.2-1.14,6.21-2.15,9.21a2.33,2.33,0,0,1-2.63,1.85c-1.18-.09-2.36-.1-3.53-.28C133.48,107.82,132.81,107.77,132.54,107Z"/><path class="cls-17" d="M98.87,60.36c2,.72,4.22.3,6.32.81,3.8.94,7.58,1.87,11,3.85a13.08,13.08,0,0,1,2.67,2.3c.29.3.58.66.34,1.15s-.86.4-1.27.26q-2.37-.75-4.69-1.63a41.28,41.28,0,0,0-21.91-2.28c-1.64.27-3.27.58-4.9.89-.45.09-.88.12-1.17-.27s0-1,.31-1.28a7.32,7.32,0,0,1,2.55-1.59,54.73,54.73,0,0,1,9.71-2Z"/><path class="cls-18" d="M160.21,131.94a5.22,5.22,0,0,0-1-3.37,56.15,56.15,0,0,0-7.83-10.8,2.37,2.37,0,0,0-1.4-1,6.07,6.07,0,0,0,1.26-3.44c1.21.86,1.21.86.84,3.72.1,0,.26.09.28.07,1.3-1.91,2-.57,2.82.48,3.58,4.61,6.83,9.4,8.48,15.08a15.45,15.45,0,0,1,.71,5.41,4.75,4.75,0,0,1-3.64,4.58c-4.08,1.26-8.17.89-12.27.12a2.5,2.5,0,0,1,1.48-.4c3.45-.25,7-.22,10.12-2,.72-.4,1.75-.66,1.64-1.85a.88.88,0,0,1,0-.62c1.18-2.18.62-4-1.2-5.48A.85.85,0,0,1,160.21,131.94Z"/><path class="cls-19" d="M71.54,76.19a40.93,40.93,0,0,1,5.24,3.93,110.44,110.44,0,0,0,9.07,6.31c5.28,3.42,10.82,6.4,16.4,9.27a137.09,137.09,0,0,0,25.65,10.45,10.88,10.88,0,0,1,1.19.47c-.35,1.45-1.16,1.59-2.5,1.14A184,184,0,0,1,90.15,90.38,105.69,105.69,0,0,1,73.22,78.11,6.86,6.86,0,0,1,71.54,76.19Z"/><path class="cls-20" d="M132.54,107c1.93.88,4,.65,6,.75.79,0,1-.64,1.15-1.16a30.2,30.2,0,0,0,2.19-14.74l.23-1.06a25.65,25.65,0,0,1-.39,16.2c-1.29,3.49-.42,3.52-5.05,3a35.86,35.86,0,0,1-7.07-1.48,3.92,3.92,0,0,1,.75-1.64c.38-.26.74-.33,1,.15Z"/><path class="cls-21" d="M62.72,66.77a50.14,50.14,0,0,0-7.9-1.24,50.72,50.72,0,0,0-10.08-.31c-2.1.2-4.28,0-6.28.89-.31.14-1.09.11-.33.74a10.28,10.28,0,0,1-3.52,1c-1.11,0-3.39,1.55-4.2,2.89.19-2.12,1.82-3,3.39-4,4.13-2.38,8.72-2.94,13.35-3.13a71.74,71.74,0,0,1,15.54,1.19,6.43,6.43,0,0,1,.68.19C63.64,65.9,62,65.83,62.72,66.77Z"/><path class="cls-22" d="M149.72,116a64.09,64.09,0,0,0-6.54-6.33c-.36-.31-.57,0-.8.2.38-1.1.75-2.21,1.14-3.3.23-.65.65-.69,1.09-.25a54.26,54.26,0,0,1,4.92,5C150.56,112.63,150,114.39,149.72,116Z"/><path class="cls-21" d="M69.32,68.29c-1.65-1-3.79-.59-5.35-1.85,2-1.28,4-.67,6,0C70.74,66.64,70.59,67.09,69.32,68.29Z"/><path class="cls-16" d="M131.39,107.09l-1-.15.2-1.73C132.08,105.3,131.72,106.2,131.39,107.09Z"/><path class="cls-23" d="M131.13,127.12a3.61,3.61,0,0,1,1.43,5,3.67,3.67,0,0,1-5,1.56,3.85,3.85,0,0,1-1.57-5A3.74,3.74,0,0,1,131.13,127.12Z"/><path class="cls-24" d="M91,116.52a3.54,3.54,0,0,1-1.44-5,3.73,3.73,0,0,1,5.14-1.43A3.82,3.82,0,0,1,96,115.2,3.66,3.66,0,0,1,91,116.52Z"/><path class="cls-25" d="M122.28,112.7c1,1.89.79,6.64-.43,9.21C121.3,120.82,121.57,114.84,122.28,112.7Z"/><path class="cls-26" d="M83.5,100.57a28.39,28.39,0,0,1-4.76,6.59A10.93,10.93,0,0,1,83.5,100.57Z"/><path class="cls-27" d="M109,105.6a.65.65,0,0,1,.3.83c-.09.33-.35.58-.71.45s-.39-.49-.3-.81A.58.58,0,0,1,109,105.6Z"/><path class="cls-28" d="M134.57,83.23c2.15,5.62,3.24,11.22,1.69,17.08-.62,2.36-1,2.62-3.32,2.37-5.1-.56-9.87-2.31-14.6-4.15a128.35,128.35,0,0,1-13.12-5.61l-1.51-.82c.67-.58,1.09-.11,1.51.09a104.57,104.57,0,0,0,19.63,7.36,58.92,58.92,0,0,0,6.46,1.25c1.88.28,2.47-.2,2.95-2.07a27.48,27.48,0,0,0,.1-14.15C134.26,84.18,134,83.77,134.57,83.23Z"/><path class="cls-29" d="M128.52,82.76c.57-1.49,1.94-2.2,1-3.82,1.07.41,1.72,1.23,2.73.64a3.62,3.62,0,0,0-.59,3.13C130.73,81.59,129.81,82.05,128.52,82.76Z"/><path class="cls-30" d="M86.93,77.17c-.19-1.63.71-2.38,1.7-3,.19-.13.52,0,.46.25A4.27,4.27,0,0,1,86.93,77.17Z"/><path class="cls-31" d="M119.58,76.05a.93.93,0,0,1,.33,1.12.48.48,0,0,1-.76.27.75.75,0,0,1-.27-1C119,76.15,119.17,75.89,119.58,76.05Z"/><path class="cls-24" d="M61.53,94.22A3.72,3.72,0,0,1,55,90.68a3.87,3.87,0,0,1,5.17-1.52A3.75,3.75,0,0,1,61.53,94.22Z"/><path class="cls-32" d="M50,86.38c-.43.52-.87,1.14-1.64,1-.44-.07-.25-.51-.08-.77.39-.59.89-1.13,1.65-1C50.42,85.67,50.15,86.09,50,86.38Z"/><path class="cls-33" d="M34.61,67.88a6.3,6.3,0,0,1,3.52-1c.15.07.29.15.44.21,1.32.54,2.36,1.35,2.41,2.91A3.26,3.26,0,0,1,39,73a3.79,3.79,0,0,1-4.25-.37A3.23,3.23,0,0,1,34.61,67.88Z"/><path class="cls-34" d="M160.21,131.94c2.94,1.74,3.4,3.81,1.46,6.65-2.1.89-3.7.5-4.78-1.17a3.73,3.73,0,0,1,.32-4.84A3.28,3.28,0,0,1,160.21,131.94Z"/><path class="cls-35" d="M151.77,128.11a1.78,1.78,0,0,1,.35,2c-.1.27-.42.42-.6.1a2.7,2.7,0,0,1-.45-2.11C151.16,127.82,151.51,128,151.77,128.11Z"/><path class="cls-36" d="M44.51,94.13c-.2.32-.5.45-.8.23s-.65-.59-.39-1.07a.56.56,0,0,1,.8-.27A1,1,0,0,1,44.51,94.13Z"/><path class="cls-37" d="M130.44,128.47a2.2,2.2,0,0,1,.74,3,2.15,2.15,0,1,1-3.69-2.2A2.19,2.19,0,0,1,130.44,128.47Z"/><path class="cls-38" d="M94.66,114.39a2.29,2.29,0,0,1-3,.83,2.18,2.18,0,0,1-.75-3,2.12,2.12,0,0,1,2.92-.83A2.23,2.23,0,0,1,94.66,114.39Z"/><path class="cls-38" d="M60.17,93.47a2.15,2.15,0,0,1-3.74-2.14,2.15,2.15,0,1,1,3.74,2.14Z"/><path class="cls-39" d="M36,71.63a1.41,1.41,0,0,1-.58-2.16,2.4,2.4,0,0,1,3.13-.74,1.43,1.43,0,0,1,.58,2.17A2.44,2.44,0,0,1,36,71.63Z"/><path class="cls-40" d="M159,137.27a2.37,2.37,0,0,1-1.07-3,1.4,1.4,0,0,1,2.15-.65,2.55,2.55,0,0,1,1,3.21A1.51,1.51,0,0,1,159,137.27Z"/></g></g></g></svg>