<svg xmlns="http://www.w3.org/2000/svg" xmlns:xlink="http://www.w3.org/1999/xlink" viewBox="0 0 200 200"><defs><style>.cls-1{fill:none;}.cls-2{fill:#3a3e5e;}.cls-3{clip-path:url(#clip-path);}.cls-4{clip-path:url(#clip-path-2);}.cls-5{fill:#1f1f1f;}.cls-6{fill:#080808;}.cls-7{fill:#1a1a1a;}.cls-8{fill:#f3f3f3;}.cls-9{fill:#f1f1f1;}.cls-10{fill:#494949;}.cls-11{fill:#bfbfbf;}.cls-12{fill:#bebebe;}.cls-13{fill:#8d8d8d;}.cls-14{fill:#555;}.cls-15{fill:#646464;}.cls-16{fill:#222;}.cls-17{fill:#9d9d9d;}.cls-18{fill:#6c6c6c;}.cls-19{fill:#242424;}.cls-20{fill:#5a5a5a;}.cls-21{fill:#b2b2b2;}.cls-22{fill:#b1b1b1;}.cls-23{fill:#999;}.cls-24{fill:#818181;}.cls-25{fill:#2f2f2f;}.cls-26{fill:#333;}.cls-27{fill:#9a9a9a;}.cls-28{fill:#a5a5a5;}.cls-29{fill:#666;}.cls-30{fill:#6f6f6f;}.cls-31{fill:#ababab;}.cls-32{fill:#343434;}.cls-33{fill:#565656;}.cls-34{fill:#070908;}.cls-35{fill:#32192b;}.cls-36{fill:#f1787b;}.cls-37{fill:#d14339;}.cls-38{fill:#521110;}.cls-39{fill:#af3731;}.cls-40{fill:#f9a729;}.cls-41{fill:#f7a72a;}.cls-42{fill:#df7a7c;}.cls-43{fill:#c96a35;}.cls-44{fill:#621d04;}.cls-45{fill:#642305;}.cls-46{fill:#e4797e;}.cls-47{fill:#d69a58;}.cls-48{fill:#8c5a3b;}.cls-49{fill:#c54b43;}.cls-50{fill:#dda250;}.cls-51{fill:#6f1b19;}.cls-52{fill:#784b37;}</style><clipPath id="clip-path"><circle class="cls-1" cx="100" cy="100" r="93.27"/></clipPath><clipPath id="clip-path-2"><path class="cls-1" d="M427.8,1875.13c110.58-102.49,180-233,241.87-368.81,77.32-170,124.87-346.2,118.87-533.67-4.83-154-26.77-306.09-69.07-454.73-3.55-12.54-7.69-24.81-19.07-32.86-12.75-1.62-15.8,7-17.61,16.91a28.82,28.82,0,0,0,0,3.22c-12-44.05-33.44-84.57-52.16-126C565.61,235.48,487.5,101.1,367.27-5.74,195.18-158.68,2.32-249.72-234.16-243.22-496.91-236-715-132.88-879.57,64.47c-250.33,300.25-336.25,656.23-282.81,1038.7,42.53,304.76,183.34,568.65,409,780.54,127.91,120.06,281.7,198,455.65,232.09C-297.71,2115.8,97.74,2181,427.8,1875.13ZM512.36,682.38a48.11,48.11,0,0,1,1.74,10.92c-.34-3.74-1.06-7.24-1.64-10.92Z"/></clipPath></defs><g id="Layer_2" data-name="Layer 2"><g id="Layer_1-2" data-name="Layer 1"><circle class="cls-2" cx="100" cy="100" r="100"/><g class="cls-3"><g class="cls-4"><path class="cls-5" d="M892.89-146.87l-144,2204.23a14.76,14.76,0,0,1-7.25.62c-480.42,342.44-992.31,167.87-1503.8,0a22.55,22.55,0,0,1-7.37-.41c-2.15-3.28-1.21-7-1.21-10.51-.09-250.28-783.34-211.65-783.34-461.95,0-322.65-69-968.69-69-1291.31,0-132.3,624.75-237,852.3-362.41,3.24-1.79-2.08-8.19,2.41-11.11,2.42-.15,5.56,1.54,7.42,0C-150.32-604,332.63-521.14,740.25-79.85,742.2-77.65,890.09-148.2,892.89-146.87Z"/><path class="cls-5" d="M26.44,139.46c-.27,3.17-2.9,4-5.22,4.18-3,.22-4.42-2.41-4.54-4.83s2.41-3.84,4.63-4C24.12,134.7,25.59,136.88,26.44,139.46Z"/><path class="cls-6" d="M237.46,40.36c-6.62-7.06-5.39-15.73-5-24.17a8.13,8.13,0,0,1,5.17-6.86c8.94-3.65,12.71-12.66,19.91-18.24a56.82,56.82,0,0,1,25.95-10.7c7.71-1.33,13.09-6.38,12.63-13.89-.55-9.19.34-16.92,9.67-22.23,3.38-1.91,4.57-7,6.43-10.66a69.16,69.16,0,0,1,34.4-32.3c6.67-3,12.52-5.29,15.92-12.08,1.5-3,4.84-2.15,7.47-2.73,13.29-3,17.9-1.19,25.66,9.66a15.58,15.58,0,0,0,10.12,6c8.53,1.77,14.09,8,20,13.61A35.64,35.64,0,0,0,435-78.61c3,1.47,5.51,3.28,5.6,7a6,6,0,0,0,2.73,4.67,15.49,15.49,0,0,1,6.12,15.77c-1.7,7.61-1,15.25-1.12,22.86a26.19,26.19,0,0,1-1.83,10.58,4.24,4.24,0,0,0,1.35,5.63c2.42,1.86,3.79,0,5.51-1.25,6.06-4.45,11.43-9.67,20.15-9.28,10.05.53,16.31,5.82,20.68,13.89A25.84,25.84,0,0,1,498.32,3.8c0,4.4,4,6.28,7.25,8.05a82.25,82.25,0,0,1,16.31,10.67c9.66,8.46,10.53,21.36-1.28,31.78-4.4,3.86-8,8.62-13.63,11.28-3.6,1.67-4,6.23-3.65,10.22.75,9.66-2.27,18.34-10.29,23.51a22.82,22.82,0,0,1-25.78.34c-3.91-2.42-7.78-5.13-11.62-7.76s-6.06-1.38-7.44,2.92c-4.83,15.25-9.93,30.42-14.84,45.67S423.69,170.7,419,185.8q-5.75,18.1-11.62,36.25c-3.19,9.95-5.63,20.15-9.86,29.76-1.59,3.58,1.19,5.8,3.27,7.61,13.6,11.77,12.63,27.35,10.82,42.72-1.93,16.4-9.16,31.41-15.2,46.51a52.35,52.35,0,0,1-7.73,12.2,4.23,4.23,0,0,0-.52,6l.3.32c7,9,9.45,20.18,13.2,30.61,3.38,9.45,7.24,18.87,8.69,29,1.26,8.77,2.76,17.46,3.58,26.36,2.42,26.14-3.26,51.89-3.05,77.94A64.66,64.66,0,0,1,395.45,574a38.68,38.68,0,0,1-19,11.62c-16.63,5.19-30.86,1-42.89-11.48a40.58,40.58,0,0,1-4.25-7c-2-3.1-3.94-3.48-5.17.21-2.61,7.76-8.55,12.88-13.8,18.63a24.52,24.52,0,0,1-10.22,5.73c-14.06,5.14-28.58,6.79-42.59-.39-9-4.59-18.49-9.4-22.4-19.16-3.67-9.28-8.5-18.31-9.11-28.6a40,40,0,0,0-8.58-24c-2-2.41-3.35-2.82-5.75-1.37-6.64,4-14.61,1.78-21.6,4.52-2.41,1-4.83-1.94-7.68-2.28-19.62-2.24-29.31-18.09-30.85-34.23-1.65-17.25,4-32.31,8.74-48,5.22-17.42,14.94-32.47,23.73-48,3.21-5.68,2.42-7-4.28-7.59a121,121,0,0,1-50.06-16.26A113.06,113.06,0,0,1,93.7,333.81,118.29,118.29,0,0,1,75,295.86c-3.53-13.12-6.45-26.27-6-39.82a148,148,0,0,1,49.24-104.52,120,120,0,0,1,27.52-18.75,158.89,158.89,0,0,1,39.77-13.87c12.76-2.41,26.17-4.42,39.51.12,5.77,2,12.41.51,18.65,2.85,19.59,7.25,38.65,15.15,53,31.41A21.18,21.18,0,0,0,308,159.42c8.24,2.05,14.5,8.29,18.7,15.63,1.86,3.19,3.26,6.84,5,10.2,5.75,11,6.55,22.08.58,33.29a7.79,7.79,0,0,0-1.21,6.09c3,10.17,2.42,20.56,1.76,31,0,1-.77,2.08.58,2.68s2-.24,2.93-.75c8.31-4.54,16.45-9.27,26.57-9.32,4.64,0,5.73-3.87,4.47-8q-13.06-42.74-26.26-85.43c-7.25-23.31-14.64-46.58-21.74-69.9-1-3.43-3.72-2.94-5.61-2.27-9.28,3.22-18.58,5.44-28.49,3.92a6.38,6.38,0,0,0-3,1.06c-11.5,5.58-21.09,1.86-25.56-10.34-1.47-4-6-4.25-7.68-7.61,6.5-3,12.08-1.16,15.36,5,3.94,7.44,5.66,8.23,14.09,6.49a69.17,69.17,0,0,1,13.34-.53,48.61,48.61,0,0,0,21.35-5.26c3.1-1.89,6.19-3.68,10.06-3.07,3.09.46,5.07-1.74,7.24-3.31,3.17-2.81,3.63-6.55,3.77-10.46a11.54,11.54,0,0,1,4-9,3.87,3.87,0,0,1,4.83-.7c2,1.26,1.09,2.95.27,4.47a9.6,9.6,0,0,0-1.86,6c1.18,8.6-3.46,14.84-8.87,20.25-3.62,3.62-3.89,6.76-2.42,11.33,7.64,25.88,16.12,51.49,24,77.31,5.48,18.08,11.62,36,16.21,54.32a55,55,0,0,0,3.14,8.72c0-37.35-1.59-74.37-2.42-111.38-.43-17.42-.45-34.84-.89-52.24,0-3.62-.22-7.25-.56-10.82a7.63,7.63,0,0,0-7.1-7.71,26.1,26.1,0,0,1-15.44-8.17c-1.86-1.35-4.13-.84-6.21-1.2a5,5,0,0,1-2.41-5.27,6.19,6.19,0,0,0-5-6.72,59.85,59.85,0,0,1-12.3-10.07A90.13,90.13,0,0,1,306.56-8.14c-3.05-8.72-6.43-9.83-15-6.4-5.7,2.27-12.08,1.21-17.83,3.89-9.83,3.94-16.7,11.41-23,19.33a28.88,28.88,0,0,1-5.61,6c-5.34,3.81-6.33,8.79-3.93,15.1,3.43,9.08,4,19.08,8.6,27.85,1.33,2.42-.58,3.89-3.17,4.16-8.86.89-13.6-5.07-9.93-13C237.53,46,235.53,43,237.46,40.36Z"/><path class="cls-7" d="M77.66,269.13a100.34,100.34,0,0,1,7.56-30c4.83-12.35,13-21.75,21-31.41,5.68-6.77,13.68-11.45,21.33-16.12a104,104,0,0,1,47.84-15.41c3.77-.24,7.25-2.2,11.24-1.79a155.3,155.3,0,0,1,35.1,7.83c9.28,3.19,17.18,8.75,25.57,13.14a48.09,48.09,0,0,1,22.63,23,69.8,69.8,0,0,0,7,11.21,60.35,60.35,0,0,1,7.95,19.2c1.76,6.5,1.66,13.51,2.41,20.3.85,8.24-1.81,15.83-3.77,23.65a112.5,112.5,0,0,1-11.23,30c-2,3.35-5.34,4.47-7.66,7.24-4.33,5.17-7.49,11.46-14.5,14.5-6.28,2.68-12.66,2.85-19,4-27.81,5.13-54.22-.65-80-10.29-22.25-8.28-41.07-22.2-57-39.36-5.12-5.46-9.23-12.08-14.49-17.56C76.23,277.91,78.53,273.41,77.66,269.13Z"/><path class="cls-8" d="M238.84,161.57c-25.13-11-51-11.79-77.32-5.75-1.76.41-3.79,2.2-5.32.44s.58-3.85,1.45-5.63a71.16,71.16,0,0,1,16-20.44c4.83-4.64,11.84-4.5,18-5.27,35.54-4.4,67.39,4.15,94.74,27.88a14,14,0,0,0,2.12,1.3c6.55,4.84,6.19,4.52,2.25,11.19-6.26,10.58-4.83,21.48,0,32.21.34.77,1.09,1.33,1.43,2.1.53,1.3,1.93,2.85.29,4s-3.07-.48-4-1.83c-1.59-2.23-3.24-4.4-5-6.55a105.76,105.76,0,0,0-40.66-31.41A14.49,14.49,0,0,1,238.84,161.57Z"/><path class="cls-9" d="M152,165.48c50.5-18.94,107-.91,135.3,44.46,20.08,32.35,20.85,66.71,5.39,101.33A103.25,103.25,0,0,1,258,354.42a54.58,54.58,0,0,0-4.83,4.16,18,18,0,0,0-1.71.7c-1.24.51-2.64,2-3.68,0-.7-1.35.66-2.42,1.6-3a53.28,53.28,0,0,0,7.25-5.8c13.26-12.78,24.45-27,31-44.43A99.31,99.31,0,0,0,247.7,187.25C212.23,165,175,163.62,136.56,178.8l-2.41.84a49.35,49.35,0,0,0-11.7,6.26h0c-1.3.94-2.78,1.43-3.69-.27s.6-2.41,1.52-3a38.17,38.17,0,0,0,5.89-4.54h0C134.77,173.84,142.89,168.72,152,165.48Z"/><path class="cls-10" d="M109.55,181.7c1.26-7.25,3-13.8,7.73-18.34a172.11,172.11,0,0,1,25.9-21.53c4.06-2.56,8.72-4.15,12.69-7a2,2,0,0,1,2.73,2.9h0a66.23,66.23,0,0,0-9.89,19.64A5.94,5.94,0,0,1,145,161.5C132.12,165.61,121.85,174.3,109.55,181.7Z"/><path class="cls-11" d="M91.7,194.77c.67-4.35,4.59-6.67,6.37-10.32,1.28-.87,1-2.83,2.42-3.53,2.78-1.35,4-.67,3.14,2.42.22,7.83-7,11-10.44,16.45-.94,1.24-1.76,3.51-3.57,2.42s0-2.85.53-4.28S91.28,195.93,91.7,194.77Z"/><path class="cls-12" d="M126.25,178.05c-.46,3.16-3.65,3.55-5.42,5.36-3.45,3.58.82,1.86,1.69,2.42-6.08,6.47-14.93,9.49-20.65,16.45-2.42-.36-1.67-1.71-.85-3s2.42-2.11,3.48-3.46h0a98.65,98.65,0,0,1,7.78-7.66A58.05,58.05,0,0,1,126.25,178.05Z"/><path class="cls-13" d="M104.5,195.9c.24,2.61-4.83,3.07-2.63,6.45-2.08,4.16-6,6.72-8.77,10.27-2.23,0-2-1.06-1.26-2.41C96.12,205.47,98.53,199,104.5,195.9Z"/><path class="cls-12" d="M152,165.48c-8.33,4.84-16.52,9.67-25.73,12.62A67,67,0,0,1,152,165.48Z"/><path class="cls-14" d="M91.7,194.77C92.23,197.38,89,199,90,202l3.09-2.11c-.94,4-3.53,6.84-7.56,10.61A20.09,20.09,0,0,1,91.7,194.77Z"/><path class="cls-15" d="M103.56,183.51c-3.14-7-3.41,2-5.49,1A12,12,0,0,1,99.26,181c1.13-1.57,2.12-4.56,4.61-3S104.65,181.62,103.56,183.51Z"/><path class="cls-12" d="M122.55,185.92a14.79,14.79,0,0,1,11.69-6.25A37,37,0,0,1,122.55,185.92Z"/><path class="cls-13" d="M112.23,188.34a20.51,20.51,0,0,1-7.78,7.66A14.51,14.51,0,0,1,112.23,188.34Z"/></g><path class="cls-6" d="M123.33,141.86l1.44-2.42c.1-1.73-.81-3.11-1.61-4.51q-9.72-16.94-19.47-33.86c-.81-1.41-1.43-3.16-3.67-2.39-2.07,1.1-3.68-3.25-5.8-.57a40.51,40.51,0,0,0-3.4,5.24A324.13,324.13,0,0,1,68.2,138.52c-2.68,3.57-5,7.46-9.06,9.9s-7.67,1.7-11.26-.28-4.2-5.39-1.79-9.34c5.53-9.07,12.45-17.05,19.55-24.88a108.15,108.15,0,0,1,25.7-21,4.3,4.3,0,0,0,2.06-2.83c1.06-3.86,3.51-6.07,7.63-5.92,2.27.08,2.74-1.6,3.3-3.08,2.76-7.29,5.44-14.61,8.89-21.61,3.88-7.84,8.68-15,15.54-20.64,1.86-1.52,3.8-3.19,6.39-3.13,5.18.12,8,5.78,5.33,10.48C134.92,55.87,128,64.55,120.81,73c-4.21,4.92-8.76,9.57-12.58,14.76-1.55,2.12-1.44,5.76,0,8,7.52,11.83,14.61,23.92,21.51,36.11,1.31,2.3,2.68,3.14,5.26,2.54a16.62,16.62,0,0,1,6.85-.31c3.57.07,4.38,2.91,5.47,5.47a2,2,0,0,1-.18,1,1.59,1.59,0,0,1-.88.53c-1.39,0-2.69-.1-3.3-1.63-1.68-2.23-4.08-2.16-6.46-2s-1.45,2.92-2.82,3.92c-2.88,2.84-6.42,1.83-9.82,1.69A1.23,1.23,0,0,1,123.33,141.86Z"/><path class="cls-16" d="M100,98.68c1.63-1.2,2.68-.74,3.66,1,6.73,11.83,13.55,23.62,20.3,35.43.76,1.33,1.41,2.75.79,4.36q-11.16-19.65-22.32-39.3A3.32,3.32,0,0,0,100,98.68Z"/><path class="cls-17" d="M133.45,140.78a6,6,0,0,1,.32-.93c.54-1.09-2.09-2.93.95-3.5,4-.75,8,.33,9,2.7a5.46,5.46,0,0,1-1.72,3.78A30.26,30.26,0,0,1,125.94,151c-1.74.27-3.36-.14-3.38-2.48l.36-1.22c.16-.29.41-.64.7-.62C128.28,147,130.74,143.69,133.45,140.78Z"/><path class="cls-18" d="M144.25,146.59c-3.18,1.9-6.34,3.86-9.56,5.69a15.58,15.58,0,0,1-10,2.3l-1.11-2c1-2.28,3.34-1.75,5.07-2.18a30.39,30.39,0,0,0,12.46-6.82c1.48-1.26,2.79-2.72,4.74-3.29l.64.53C148.38,143.77,145.63,144.91,144.25,146.59Z"/><path class="cls-19" d="M145.84,140.29a33.86,33.86,0,0,1-22.27,12.29c-.83-1.23-2.12-2.35-1-4.06.66,1.78,2.09,1.72,3.54,1.42,7.21-1.47,13.37-4.66,17.63-10.89C143.87,140.42,145.09,140,145.84,140.29Z"/><path class="cls-20" d="M133.45,140.78c-1.59,5.17-5.44,7.56-10.53,6.53l.54-2.6a1.88,1.88,0,0,0,.59-1.62c1.14-1.13,2.14-1.74,3.94-.79C130,143.36,131.68,141.55,133.45,140.78Z"/><path class="cls-21" d="M84.12,100.25,85.8,99.1c1.54,1.36.33,3.23.88,4.77-2.34,5.14-5.85,9.55-9,14.17-5,7.24-10.35,14.17-16,20.93a26.5,26.5,0,0,1-6.33,5.69c-2.49,1.56-4.68,1.6-6.95-.21-1.74-1.06-2.05-2.48-.93-4.15,7.6-11.36,16.09-22,26.26-31.16C77.48,106.5,80.64,103.19,84.12,100.25Z"/><path class="cls-22" d="M109.78,73.12c2.62-7.51,5.72-14.78,10.44-21.26,3.12-3.44,5.79-7.29,9.38-10.32,1.19-1,2.26-2.18,4-1.83a2.85,2.85,0,0,1,1.32,4.71c-1.2,1.31-2.07,2.52-1.49,4.35C133.07,52,130.71,54,129,56.36Q123.66,63.73,118.19,71a12.07,12.07,0,0,1-4,3.87c-.37.22-.73.45-1.12.64-1,.51-2.06,1.39-3.26.55S110.09,74.1,109.78,73.12Z"/><path class="cls-23" d="M119.48,117.88c3.63,6.31,7.27,12.61,10.87,18.93.59,1,2,2.16,0,3.29-1.66,1-2.28-.08-3-1.34q-10.8-18.58-21.69-37.13a14.72,14.72,0,0,1-.92-1.76c-.4-1-.54-2,.5-2.64,1.24-.72,1.8.37,2.28,1.2q5.72,9.88,11.38,19.78Z"/><path class="cls-24" d="M82.51,113.37c-6.58,10.78-13.4,21.4-21.48,31.14-3.26,3.92-7,4.5-11.37,2,1.33-1.56,3.41-.87,5.08-1.8,4.6-2.56,7.36-6.82,10.58-10.63,5.11-6,9.55-12.58,14.1-19.05a6.36,6.36,0,0,1,1.88-2.24C81.86,112.67,82.34,112.7,82.51,113.37Z"/><path class="cls-25" d="M81.54,113.11c-6.87,10.1-13.79,20.18-22.29,29-2.64,2.74-5.68,4.48-9.59,4.37l-1.24-2.06c4.86,1.72,8-1.14,10.81-4.32a226.9,226.9,0,0,0,18.08-23.46c3-4.35,5.75-8.83,8.62-13.25.65-2.23.8-4.86,4-5a1.16,1.16,0,0,1,.35,2c-2,3.22-4.25,6.23-6.11,9.51A9.88,9.88,0,0,1,81.54,113.11Z"/><path class="cls-26" d="M114.26,73.79a235.73,235.73,0,0,0,18.41-24.68c.1-1.21.22-2.54,1.12-3.34,2.37-2.08,1.94-4.31.69-6.69.84-.27,1-1.84,2.33-1.21,2.62,3.28,1.72,6.5-.22,9.66-3.8,6.18-8.45,11.75-12.73,17.57-4.73,6-9.75,11.83-14.63,17.74-.56,2.21-1.63-.76-2.31.22.13-2.69,1.91-4.42,3.67-6.12C111.75,75.83,113.15,75,114.26,73.79Z"/><path class="cls-27" d="M96.16,89.61c.49-2.49,2.22-3.46,4.52-3.4,2.7.07,3.66,1.57,2.89,4.16-.45,2.19-2.09,2.65-4,2.67C97.33,93.06,96.76,91.31,96.16,89.61Z"/><path class="cls-28" d="M114.26,73.79l-7.34,9.27c-.35-.22-1.76,1.66-1.07-.29,1.17-3.26,2.05-6.67,3.93-9.65C110.49,78.66,112.8,73.33,114.26,73.79Z"/><path class="cls-29" d="M123.48,64.7l1.34-.11a141.24,141.24,0,0,1-15.59,18.24c1.55-3.42,4.49-5.78,6.71-8.7C118.38,70.93,121,67.84,123.48,64.7Z"/><path class="cls-30" d="M105.62,91.5a5.24,5.24,0,0,1-4.88,5c-2.07.22-4.16-.47-5-2.86.1-.78.76-1.44,1.31-1.18,3,1.39,5.31-.07,7.72-1.4C105.23,90.77,105.6,90.88,105.62,91.5Z"/><path class="cls-31" d="M90,98.43c-1.89,1.23-2.42,3.55-4,5-1.07-1.41,0-2.88-.13-4.32,1.57-1.93,3.83-2.81,6.25-3.72Z"/><path class="cls-32" d="M105.62,91.5c-2.94,2.38-6.42,2.18-9.88,2.1-.74-1.42.94-2.59.42-4,2.39,3.18,4.06,3.35,7.41.76C105.56,90.64,105.56,90.64,105.62,91.5Z"/><path class="cls-33" d="M81.54,113.11c2.59-4.47,5.21-8.91,8.78-12.7a71.63,71.63,0,0,1-7.81,13Z"/><path class="cls-31" d="M84.12,100.25a1.28,1.28,0,0,1-.57,1.7c-3,1.44-5,4-7.07,6.5-.81,1-1.9.15-2.73.69A42.84,42.84,0,0,1,84.12,100.25Z"/><path class="cls-6" d="M124.82,156.69H125a1.75,1.75,0,0,0,.67-.73,2.38,2.38,0,0,0-.09-1.49,8.1,8.1,0,0,0-1.13-2.11c-.45-1.17-1.59-2.18-.83-3.62a5.08,5.08,0,0,0,.25-1.39c.3-1.18.71-2.38-.35-3.43a3.11,3.11,0,0,0-2.64.4c-.23,1.06-1,5.27.45,7.91C122.14,153.77,122.8,155.82,124.82,156.69Z"/><path class="cls-6" d="M143.38,149.72c3.07-2.56,4-5.15,4.24-7.07-1.64.71-2.55,2.54-4.36,3-5.62,3-10.62,7.32-17.33,8a1.72,1.72,0,0,0-1.25,1l.65,1.53c0,.33-.53.32-.38.57C128.86,157.82,137.73,154.43,143.38,149.72Z"/><path class="cls-6" d="M120.83,144.31a6.36,6.36,0,0,1,1.48-2.22c1-.93,2.46-2.65,2.46-2.65l1,2.48s-2.06,1.81-2.4,3.33a15,15,0,0,0,0,5C123.56,150.71,120.83,144.31,120.83,144.31Z"/><path class="cls-6" d="M145.84,140.29s.6,3.43-1.73,5,1.92,1.53,1.92,1.53,3-4.18,1-8S145.84,140.29,145.84,140.29Z"/><path class="cls-20" d="M125.75,141.92a11.9,11.9,0,0,0-2.85,3.37c-.68,1.59-.23,1.85.92,2.05s2.29-2.36,2.29-2.36Z"/><path class="cls-17" d="M122.58,146.72s.34,1.72.66,2.86a2.37,2.37,0,0,0,1.8.51c1.06-.15,2.22-.41,2.22-.41L126,147.56S123.19,147.61,122.58,146.72Z"/><path class="cls-6" d="M126.62,153.53a2,2,0,0,1-2-.85c-.58-1.07-1.82,1.84.33,4l2.08-1.6Z"/><path class="cls-23" d="M119.48,117.88S107.73,98,106.89,97.47s7.75,17.09,7.75,17.09l4.89,7.23Z"/></g><path class="cls-34" d="M122.79,142.82l1.45-2.42c.1-1.73-.81-3.1-1.62-4.5q-9.7-17-19.46-33.87c-.81-1.41-1.43-3.15-3.67-2.38-2.08,1.1-3.69-3.25-5.81-.58a41.14,41.14,0,0,0-3.39,5.24,326.76,326.76,0,0,1-22.62,35.18c-2.68,3.56-5,7.45-9.07,9.9s-7.67,1.7-11.26-.28-4.19-5.39-1.78-9.35c5.53-9.06,12.44-17,19.54-24.87a108.44,108.44,0,0,1,25.7-21,4.33,4.33,0,0,0,2.07-2.82c1.06-3.86,3.5-6.08,7.63-5.92,2.26.08,2.74-1.61,3.29-3.08,2.76-7.29,5.45-14.62,8.9-21.61,3.87-7.84,8.68-15,15.54-20.65,1.86-1.51,3.8-3.19,6.39-3.13,5.17.12,8,5.79,5.33,10.49-5.56,9.65-12.46,18.33-19.68,26.77-4.2,4.91-8.76,9.56-12.57,14.76-1.56,2.12-1.44,5.76,0,8,7.52,11.83,14.61,23.91,21.51,36.1,1.3,2.31,2.67,3.14,5.26,2.55a16.76,16.76,0,0,1,6.84-.32c3.57.08,4.38,2.92,5.48,5.47a2,2,0,0,1-.19,1.05,1.61,1.61,0,0,1-.88.53c-1.39,0-2.69-.1-3.3-1.64-1.68-2.22-4.07-2.16-6.46-1.94s-1.44,2.91-2.81,3.92c-2.88,2.84-6.42,1.83-9.82,1.69A1.23,1.23,0,0,1,122.79,142.82Z"/><path class="cls-35" d="M99.49,99.65c1.62-1.21,2.68-.75,3.65,1,6.74,11.83,13.55,23.61,20.31,35.43.76,1.32,1.41,2.74.79,4.35q-11.17-19.64-22.32-39.3A3.34,3.34,0,0,0,99.49,99.65Z"/><path class="cls-36" d="M132.91,141.74a9.07,9.07,0,0,1,.32-.92c.55-1.1-2.08-2.93,1-3.51,4-.75,8,.34,9,2.7a5.45,5.45,0,0,1-1.73,3.78A30.16,30.16,0,0,1,125.41,152c-1.74.28-3.36-.13-3.38-2.47l.35-1.22c.17-.29.41-.64.7-.62C127.74,148,130.2,144.65,132.91,141.74Z"/><path class="cls-37" d="M143.72,147.55c-3.19,1.91-6.34,3.86-9.57,5.7a15.49,15.49,0,0,1-10,2.29l-1.11-2c1-2.27,3.35-1.74,5.07-2.17a30.56,30.56,0,0,0,12.47-6.83c1.48-1.26,2.78-2.72,4.74-3.28l.63.53C147.85,144.73,145.09,145.88,143.72,147.55Z"/><path class="cls-38" d="M145.31,141.26A33.83,33.83,0,0,1,123,153.54c-.82-1.23-2.11-2.34-1-4,.66,1.77,2.09,1.71,3.54,1.41,7.2-1.47,13.36-4.66,17.63-10.89C143.34,141.38,144.56,140.92,145.31,141.26Z"/><path class="cls-39" d="M132.91,141.74c-1.59,5.17-5.44,7.56-10.53,6.53l.54-2.59a1.93,1.93,0,0,0,.6-1.62c1.13-1.13,2.13-1.75,3.94-.79C129.44,144.32,131.15,142.52,132.91,141.74Z"/><path class="cls-40" d="M83.58,101.22l1.68-1.15c1.55,1.36.33,3.22.89,4.77-2.35,5.14-5.85,9.55-9,14.16-5,7.25-10.36,14.17-16,20.93a26.67,26.67,0,0,1-6.33,5.69c-2.49,1.57-4.69,1.6-7-.2-1.74-1.07-2-2.48-.93-4.15,7.61-11.36,16.09-22,26.27-31.17C77,107.46,80.11,104.16,83.58,101.22Z"/><path class="cls-41" d="M109.24,74.09c2.62-7.51,5.72-14.79,10.44-21.27,3.13-3.44,5.8-7.29,9.38-10.32,1.19-1,2.27-2.18,4-1.83a2.86,2.86,0,0,1,1.33,4.71c-1.21,1.31-2.08,2.52-1.49,4.35-.33,3.18-2.68,5.24-4.39,7.6q-5.34,7.35-10.82,14.61a11.88,11.88,0,0,1-4,3.88c-.37.21-.74.44-1.12.63-1,.52-2.07,1.39-3.27.56S109.56,75.07,109.24,74.09Z"/><path class="cls-42" d="M119,118.84c3.62,6.31,7.26,12.61,10.86,18.94.59,1,2,2.15,0,3.28-1.67,1-2.29-.08-3-1.34Q116,121.14,105.13,102.59a13.34,13.34,0,0,1-.93-1.75c-.39-1-.54-2,.51-2.65,1.23-.72,1.79.37,2.28,1.21q5.72,9.87,11.38,19.77Z"/><path class="cls-43" d="M82,114.34c-6.59,10.77-13.4,21.4-21.49,31.13-3.25,3.92-7,4.5-11.36,2,1.32-1.57,3.41-.87,5.08-1.8,4.6-2.57,7.35-6.83,10.57-10.64,5.11-6,9.56-12.58,14.1-19a6.5,6.5,0,0,1,1.88-2.25C81.32,113.63,81.81,113.67,82,114.34Z"/><path class="cls-44" d="M81,114.07c-6.87,10.11-13.78,20.18-22.29,29-2.64,2.75-5.67,4.48-9.58,4.38-.42-.69-.83-1.38-1.25-2.06,4.87,1.72,8-1.15,10.82-4.32a228.42,228.42,0,0,0,18.08-23.47c3-4.35,5.75-8.82,8.61-13.24.66-2.23.8-4.87,4-5a1.16,1.16,0,0,1,.34,2c-2,3.21-4.24,6.22-6.1,9.5A9.91,9.91,0,0,1,81,114.07Z"/><path class="cls-45" d="M113.72,74.75a234.34,234.34,0,0,0,18.41-24.68c.1-1.2.22-2.54,1.13-3.33,2.36-2.08,1.94-4.31.68-6.69.85-.28,1-1.85,2.33-1.22,2.62,3.29,1.73,6.51-.22,9.67-3.8,6.17-8.44,11.74-12.73,17.57-4.72,6-9.74,11.83-14.63,17.73-.55,2.21-1.62-.76-2.3.23.13-2.7,1.9-4.43,3.67-6.12C111.22,76.8,112.61,75.94,113.72,74.75Z"/><path class="cls-46" d="M95.63,90.57c.48-2.48,2.21-3.45,4.51-3.4,2.7.07,3.66,1.57,2.9,4.16-.45,2.2-2.1,2.66-4,2.67C96.79,94,96.22,92.27,95.63,90.57Z"/><path class="cls-47" d="M113.72,74.75,106.39,84c-.36-.23-1.77,1.66-1.07-.3,1.16-3.25,2-6.67,3.92-9.64C110,79.63,112.26,74.29,113.72,74.75Z"/><path class="cls-48" d="M123,65.66l1.33-.1A140.35,140.35,0,0,1,108.69,83.8c1.56-3.43,4.5-5.79,6.72-8.7C117.85,71.9,120.43,68.8,123,65.66Z"/><path class="cls-49" d="M105.08,92.46a5.24,5.24,0,0,1-4.88,5c-2.07.21-4.15-.47-5-2.86.1-.78.76-1.44,1.3-1.19,3,1.4,5.31-.06,7.73-1.4C104.69,91.73,105.06,91.84,105.08,92.46Z"/><path class="cls-50" d="M89.44,99.39c-1.89,1.23-2.43,3.55-4,5-1.06-1.41,0-2.89-.13-4.32,1.58-1.93,3.84-2.82,6.26-3.73Z"/><path class="cls-51" d="M105.08,92.46c-2.93,2.39-6.42,2.18-9.87,2.11-.74-1.43.93-2.6.42-4,2.39,3.19,4.05,3.36,7.41.77C105,91.6,105,91.6,105.08,92.46Z"/><path class="cls-52" d="M81,114.07c2.59-4.46,5.22-8.9,8.78-12.69a72.86,72.86,0,0,1-7.8,13Z"/><path class="cls-50" d="M83.58,101.22a1.27,1.27,0,0,1-.56,1.7c-3,1.44-5,4-7.08,6.5-.8,1-1.9.14-2.72.68A42.35,42.35,0,0,1,83.58,101.22Z"/><path class="cls-34" d="M124.29,157.66l.12,0a1.61,1.61,0,0,0,.67-.72,2.27,2.27,0,0,0-.09-1.5,8.32,8.32,0,0,0-1.12-2.1c-.46-1.17-1.59-2.19-.83-3.63a4.94,4.94,0,0,0,.24-1.39c.3-1.18.72-2.37-.34-3.42a3.1,3.1,0,0,0-2.64.39c-.24,1.06-1,5.27.45,7.92C121.6,154.73,122.27,156.79,124.29,157.66Z"/><path class="cls-34" d="M142.84,150.69c3.07-2.56,4-5.15,4.24-7.07-1.64.71-2.54,2.54-4.36,3-5.62,3-10.62,7.32-17.33,8a1.76,1.76,0,0,0-1.25,1l.65,1.54c0,.33-.53.31-.38.56C128.32,158.78,137.2,155.39,142.84,150.69Z"/><path class="cls-34" d="M120.3,145.27a6.26,6.26,0,0,1,1.47-2.22c1-.93,2.47-2.65,2.47-2.65l1,2.49s-2.06,1.8-2.4,3.32a15.25,15.25,0,0,0,0,5C123,151.68,120.3,145.27,120.3,145.27Z"/><path class="cls-34" d="M145.31,141.26s.59,3.42-1.74,5,1.93,1.54,1.93,1.54,3-4.19,1-8S145.31,141.26,145.31,141.26Z"/><path class="cls-39" d="M125.21,142.89a12,12,0,0,0-2.85,3.36c-.68,1.59-.22,1.86.92,2.05s2.3-2.36,2.3-2.36Z"/><path class="cls-36" d="M122,147.68s.35,1.73.67,2.86a2.34,2.34,0,0,0,1.79.52c1.07-.16,2.23-.41,2.23-.41l-1.23-2.13S122.66,148.58,122,147.68Z"/><path class="cls-34" d="M126.08,154.49a2,2,0,0,1-2-.84c-.57-1.07-1.82,1.84.33,4l2.09-1.6Z"/><path class="cls-42" d="M119,118.84s-11.76-19.93-12.6-20.4,7.75,17.09,7.75,17.09l4.89,7.23Z"/></g></g></svg>