<svg xmlns="http://www.w3.org/2000/svg" xmlns:xlink="http://www.w3.org/1999/xlink" viewBox="0 0 200 200"><defs><style>.cls-1{fill:none;}.cls-2{fill:#3a3e5e;}.cls-3{clip-path:url(#clip-path);}.cls-4{clip-path:url(#clip-path-2);}.cls-5{fill:#1c1c1c;}.cls-6{fill:#161616;}.cls-7{fill:#080808;}.cls-8{fill:#f8f8f8;}.cls-9{fill:#d7d7d7;}.cls-10{fill:#f7f7f7;}.cls-11{fill:#f6f6f6;}.cls-12{fill:#d6d6d6;}.cls-13{fill:#1b1b1b;}.cls-14{fill:#5b5b5b;}.cls-15{fill:#1f1f1f;}.cls-16{fill:#d9d9d9;}.cls-17{fill:#2b2b2b;}.cls-18{fill:#5d5d5d;}.cls-19{fill:#2d2d2d;}.cls-20{fill:#262626;}.cls-21{fill:#2a2a2a;}.cls-22{fill:#363636;}.cls-23{fill:#d1d1d1;}.cls-24{fill:#4d4d4d;}.cls-25{fill:#585858;}.cls-26{fill:#060606;}.cls-27{fill:#6c6c6c;}.cls-28{fill:#bababa;}.cls-29{fill:#727272;}.cls-30{fill:#b6b6b6;}.cls-31{fill:#6e6e6e;}.cls-32{fill:#bfbfbf;}.cls-33{fill:#353535;}.cls-34{fill:#929292;}.cls-35{fill:#5e5e5e;}.cls-36{fill:#e0e0e0;}.cls-37{fill:#ececec;}.cls-38{fill:#080807;}.cls-39{fill:#366760;}.cls-40{fill:#376f6f;}.cls-41{fill:#337067;}.cls-42{fill:#5c4745;}.cls-43{fill:#050606;}.cls-44{fill:#ae504b;}.cls-45{fill:#d7b294;}.cls-46{fill:#c54e55;}.cls-47{fill:#c9b29a;}.cls-48{fill:#bc4c50;}.cls-49{fill:#e4b491;}.cls-50{fill:#dbe2e3;}.cls-51{fill:#dde1e2;}.cls-52{fill:#ebecec;}.cls-53{fill:#383339;}.cls-54{fill:#979090;}</style><clipPath id="clip-path"><circle class="cls-1" cx="100" cy="100" r="93.27"/></clipPath><clipPath id="clip-path-2"><path class="cls-1" d="M1176.27,904.19C1384.93,792,1501.61,390.45,1480,158.5c0,0-19-238.21-50-414.49,3-51.72-36-106.69-49.91-158.12-37.28-137.41-121.45-240.68-236-320.35C972.61-853.84,777.9-912.57,574.07-945.07c-22.86-3.65-43.31-8.15-59-25.81-26.68-13.74-54.43-9.54-81.63-3.31C77-892.48-247.21-751.66-484-458.71c-55,68.1-110.12,140-127.25,230.86-13.85,33.89-28,67.64-41.55,101.58-35.72,90.75-96.53,174.12-81.61,279.87,2.81,20.07-5.84,36-25.4,44.51-13.37,38-10,76.4-2.75,114.91A1216.33,1216.33,0,0,0-631,679.21C-556.7,813-460.73,934.8-329.65,1017.68c257.39,162.69,541.68,185,833.42,132.86"/></clipPath></defs><g id="Layer_2" data-name="Layer 2"><g id="Layer_1-2" data-name="Layer 1"><circle class="cls-2" cx="100" cy="100" r="100"/><g class="cls-3"><g class="cls-4"><path class="cls-5" d="M-890.95,591.74c.79-3.63,3.17-6.47,4.81-9.68,11.86-23.31,14.29-47.28,4.78-72a77.07,77.07,0,0,0-38-40.45c-7.78-3.86-16.16-5.61-24.56-1.73-3.76.74-6.54,3.39-9.74,5.17-2.94.83-3.63-1.13-4-3.3a17.85,17.85,0,0,0-1.29-6.58c-3.09-11.54-10.6-17.27-22.35-18.31A124.28,124.28,0,0,1-998.25,442c-11.08-2.63-16.92-11.31-15.49-22.65,2.81-10.76,10.5-17.18,19.71-22.37,13-7.39,1.32-53.7,9.52-67,22.44-36.34-366.8-196.86-396.7-232.32-13.46-18,401.11-60,378.36-62.72-2.1-.26-270.84-108.51-272.41-110.13,0-58.7,482.82,17.76,482.82-40.93,0-295,465-588.7,465.05-883.7,0-1.87-1.47-4.36,1.21-5.77,2.56,4.2,2.7,9,3.3,13.67-2.52,39.62-.47,79.3-1.2,118.94-1,12,1.66,23.76,1.36,35.72-.37,14.26-.81,28.55,0,42.82.88,17.68,2.1,35.41.83,53.1-2.31,33,.69,66.14-1.87,99.27a279.47,279.47,0,0,0,.39,38.39,317.55,317.55,0,0,1-.16,44.7c-1.5,18.07-.76,36.27-.25,54.41.32,11.06,1,22.14.9,33.2-.14,13.37,1.75,26.71-.81,40.17-1.62,8.59,1.52,17.34,3.37,25.9.25,1.23.55,2.87,2.12,2.8,5.11-.21,10.16,2.58,15.19.57a27.25,27.25,0,0,1,19.42.23c2.45.81,4.32,1.18,5.79-1.73,1.3-2.49,3.95-2,6.33-1.75,7.85.85,7.85.83,9.93-6.58a2.93,2.93,0,0,1,1.64-1.82c4.17-.24,4.61,3.25,5.51,5.93,2.77,8.31,5.78,16.51,9.24,24.54a77.8,77.8,0,0,0,9.23,16c1,1.5,1.92,3.09,3,4.62a33.39,33.39,0,0,0,4.75,6.16c1,1,2,2.05,3.05,3.05,3.51,3.95,8.06,6.93,10.53,11.84a49.28,49.28,0,0,0,14.15,20.27c11.8,11,25.4,16.65,41.79,15.1,4.43-1.27,8-4.89,12.9-4.87a188.13,188.13,0,0,0,57.58-6.76,9.72,9.72,0,0,1,1.85-.79,156.35,156.35,0,0,0,19.78-8.52,17,17,0,0,1,1.71-.85c1.62-1,3.23-2.06,4.89-3,3-1.75,3.74-4,2.64-7.5-5.34-16.88,1.52-31.21,18.05-38.14,1.57-.64,3.18-1.22,4.8-1.78a11.28,11.28,0,0,0,8.15-10.18A17.55,17.55,0,0,1-7-404,17.47,17.47,0,0,1-3-403a5.6,5.6,0,0,1-2,6.92,10,10,0,0,0-13.45,4.58,9.88,9.88,0,0,0-.41.94A16.73,16.73,0,0,0-20-386.27c-1.13,8-5.82,12.12-13.48,14.31-9.88,2.8-16.74,9.12-18.72,19.74a11.46,11.46,0,0,0,0,5.7c.71,2.31,1.17,5,3.41,5.91,2.75,1.16,3.91-1.91,5.57-3.34a123.83,123.83,0,0,0,32.5-44.47A8.64,8.64,0,0,1-8-392c4.62-7.76,14.22-9.63,20-16.28,2-2.31,5.58-1.41,8.56-.83,2,.37,3.83,2,6.12.9.62-2.52-1.2-4.43-1.66-6.67-.35-1.73-.67-3.44,1-4.62s3.65-.39,5.2.86a10.09,10.09,0,0,1,4.08,6.32,14.62,14.62,0,0,0,9.61,12.42,9.25,9.25,0,0,1,6.49,9.24A7.55,7.55,0,0,0,56.12-383a7.8,7.8,0,0,1,3.17,6.67c-.19,2.5-3.3,3.68-2.63,6.81,1.31,6.33,4.8,8.32,10.62,5.29a13.21,13.21,0,0,1,7.41-.76c8,.35,10.48-1.11,13-7.16a4,4,0,0,1,2.47-.81c3.53.14,2.91-2.72,3.41-4.75s.56-4.09,2.89-4.9c3.56-4.24,5.86-4.61,11.89-2.42,2.7,1,5.82,1.69,6.93-1.82,1.06-3.1-1.53-4.62-4.07-5.43-1.41-.53-2.91-.67-4.34-1.11-2.91-.9-5-2.61-4.75-5.93a6.19,6.19,0,0,1,5.1-5.84,25.57,25.57,0,0,1,12,0A56.5,56.5,0,0,0,132.45-403c2.81,0,5.1,1,4.8,4.61a7.42,7.42,0,0,0,2.31,5.11,5.54,5.54,0,0,1,1,4.8c-.39,2-4.13,4.8.76,5.86,4,.88,8.36,1.34,11.17-2.47,1.62-2.19-.48-3.95-2.3-5.19-2.66-1.92-5.78-3.4-2.61-7.46,4.61-6,8.12-7.64,12.09-4.62,3.1,2.31,6.47,4.07,9.56,6.26a8,8,0,0,1,.74,5.54c-2.42,5.93-4.85,3.67-7.76-1.43-.78,4-.57,6.14,2.73,6.56a6.74,6.74,0,0,1,6,4.84c.74,3.58,1.22,7.21,2.31,10.76-3.1,6.37,3.62,7.39,6,10.81,5.89,8,10.9,16.16,10.37,26.73-.23,4.8,2.19,9.51,2.84,14.36.32,2.31,1.68,5.1-1.5,6.76-4.83-1.4-9.84-1.7-14.69-3.11a11.27,11.27,0,0,0-10.92,3.41,13.27,13.27,0,0,1-3.87,3.12,64.86,64.86,0,0,1-26.09,1.43c-5.17-3.53-10-2-14.69,1.06-6.74,1.09-13.59,1-20.36,2.31-17.13,3.12-41,21-38.74,46.52A52.56,52.56,0,0,1,60-239.95a53.56,53.56,0,0,0-.85,17.22c2.31,25,.88,50,.9,74.94,0,8.06-2.19,16.32-.83,24.24a64.34,64.34,0,0,1-2.43,30.61,62.5,62.5,0,0,0-1.7,19.07c.34,29.49.6,59-1.44,88.38C52,39.28,53.12,64.05,52.59,88.8a57.72,57.72,0,0,0,3.63,22,29.28,29.28,0,0,1,1.47,10.71c-.11,23.51-.57,47,2.64,70.37,4.34,31.38,9.79,62.33,24.14,91.21a60.64,60.64,0,0,0,40.15,33.16,143.64,143.64,0,0,0,43.87,4.89c2,0,4.75-1.08,5.61,1.55s-1.94,3.48-3.77,4.27c-5.7,2.45-9.55,7.16-13.85,11.17-15.74,14.48-30.91,29.51-43.63,46.8a18.65,18.65,0,0,1-5.64,6.05c-19,9.86-30,27-39.87,44.74C60,449,53.49,462.78,52.52,478.36c-.37,5.54.17,10.71,3.95,15.05a7.67,7.67,0,0,1,1.16,7.78A496.52,496.52,0,0,0,47,553a159,159,0,0,0-.83,16.62c-.3,7.83-3.14,13.5-10.88,17.18C18.49,594.78,5.2,607.57-8,620.5a185.79,185.79,0,0,0-25.58,29.44c-15,22.46-22.33,46.4-15.24,73.39.58,2.31,77.55,99.78,77,102.18,26.66,64.94-47.19,46.54-57.44,85.58-8.91,34,30.79,71.13,19.11,115.43-6,22.76-137.87-22.79-143.71-.76-21,78.91,75.7,201,74.62,200.85-12.12-1.71-920.18-464.43-927.91-474.42a24.67,24.67,0,0,1,2.31-28.58c9.44-12.24,8.61-24.61,1.43-37.34"/><path class="cls-6" d="M-326.25-872.14c.69-40.17-1.48-80.39,1.27-120.54,2.3-4.27-2.61-8.54,0-12.81H57.14c.85,2.56-1.13,3.85-2.49,5.31-4.74,5-8.38,11-13.72,15.49a4.61,4.61,0,0,0-5.23,3.91,4.7,4.7,0,0,0,.09,1.75,11.33,11.33,0,0,1-4.62,5.93,17.49,17.49,0,0,1-14,2.05,26.81,26.81,0,0,0-7.53-.5,28.49,28.49,0,0,1-11.54-1.57c-10.46-1.67-20.94-4.62-31.24.78a41.72,41.72,0,0,1-8,2c-13.37,2.3-18.29,11.79-12.28,24A149.42,149.42,0,0,0-19.55-901.9,405.47,405.47,0,0,0,14.71-874c1.68,1.24,3.62,2.3,4.41,4.61,0,1.55-1.16,2.06-2.45,2.31-4.94,0-7.57-4.13-11.34-6.26-.8-.46-1.75-1.73-2.65-.57-.65.81.14,2,.25,3,.19,1.66-.5,3.39.35,5a101.25,101.25,0,0,0,8.66,28.76,26.78,26.78,0,0,1,2.31,6.93c-1.23,2.31-1.85,4.29,2.05,3.95,3,1.66,3.21,5.35,5.63,7.43,3.26,5,6.51,9.93,11.82,13a117.52,117.52,0,0,0,51.63,32.11,202.94,202.94,0,0,0,26.29,5.52,51.91,51.91,0,0,0,18.31-.16c5.15,0,9.9-2.47,15.07-2.31,2.87.93,1.78,2.8,1.13,4.62-.5,1.43-1,3.05.49,4.11s3,0,4-.92c4.23-4,9.42-4.16,14.73-5.48,9.38-2.3,19.12-3.64,28.26-6.92,1.41-.51,1.75-1.59,2.31-2.82q3.53-8.78,11.31-3.21a48.22,48.22,0,0,1,6,4.69c.6.6,1.11,1.62,1.82,1.73,7.3,1.25,12,6.63,17.6,10.64,2.3,1.6,4,.77,5.17-1.61,2.31-5,6-5.47,11.17-4a73.08,73.08,0,0,0,29.21,2,31.4,31.4,0,0,1,17.43,2.3c4,1.83,6.67.81,8.65-2.3a20.48,20.48,0,0,1,11.92-9.05c4.61-1.44,5.3-6.93,9.23-9.54-6.19,4.62-13.21,4.62-20.32,4.62-6-.16-11.95,0-17.93,0-3.81,0-7.18-.49-9.24-4.32a7.13,7.13,0,0,0-5.35-3.16c-1.46-.28-3.49,0-4.21-1.23-4.13-6.39-9.23-4-14.56-2.17-2.71.93-5.5,0-8.25-.41-10.59-1.27-19.55.95-24.35,11.75-.67,1.5-1.73,2.59-3.46,2.31-4.23-.88-5.71-4.27-6.54-7.87a5.06,5.06,0,0,1,2.89-6.55l.23-.08c4.22-2,1.94-7.09,3.32-10.76-3.09,3.26-6.05,4.78-9.49,1,.28-4.62,1.78-8,7.32-7.34a17.28,17.28,0,0,1,3.21.48,344.32,344.32,0,0,0,45.2,0,20.61,20.61,0,0,1,5.13-.53c1.85.23,3.86,0,5,2.68-3.9,2.63-8.5,3.16-13.86,4.62,6.72-.3,12.17.87,16,5.93.9,1.2,2.79,2.31,3.88,1.62,4.61-3.1,11-1.25,14.86-5.85a8.59,8.59,0,0,1,3.72-2.3c4.62-1.76,10.2-3.12,4.43-9.79-.76-.9.26-2.87.53-4.32,2-3.62,5.57-6.07,7.41-9.83.42-.74,1.14-1.55,1-2.31-.32-2.43,5-.56,3-4.16-3.3-5.91-1.55-14.89-10.6-17.29a13.35,13.35,0,0,1-5.95-6.65c-.67-2.54-.67-5.7-4.76-5.08a8.51,8.51,0,0,1-5.54-5.61c-.12-4.34-.79-8.1-6.72-6a5,5,0,0,1-4.2-3c-1-5.75-4.18-8.15-9.24-6.92-7.61-1.9-12.55-8.61-19.9-11-1.36-.44-2.3-1.87-4.34-1.59-1.36,5,.65,7.87,5.27,10.46a102.42,102.42,0,0,1,38.07,35.87c5.61,9.24,3.14,16.44-6.93,20.39A35.15,35.15,0,0,1,265.86-828a226.4,226.4,0,0,1-29.11,1.3c-4.38-.14-7.87-1.41-9.88-5.57-1.25-4.82,2-8.61,3-13a56,56,0,0,0,3-8.24c2.31-6.12,2.73-12.7,4.46-19,1.75-2.31.58-4.81.18-7.25-.18-6.28-1.91-12.42-1.57-18.73a16.78,16.78,0,0,0-.69-7.92c-1.71-7.64-4.8-14.91-6.44-22.57-.44-2.5,3.37-6.58-2.65-6.93a192.2,192.2,0,0,0-37.52-41.56c-.95-4-4.27-3.64-7.27-3.87a239.37,239.37,0,0,0-33.92-12.4,5,5,0,0,1-3.46-2.7c.65-3.67,3.46-2.86,5.82-2.68a26.5,26.5,0,0,0,8.24.37c0-2.61-4.62-3.69-2.31-6.93H509.66c.48,3.54-.74,6.93-.65,10.48a68.19,68.19,0,0,1-10.64,15.43,4.29,4.29,0,0,1-.6.13c-2.5.35-5.87-2.83-7.3.28s4.46,1.34,4.62,4.43a9,9,0,0,1-2.82,6.49c-6.12-.14-.51,3.93-1.94,5.47a37.44,37.44,0,0,1-1.38,5.52,114.87,114.87,0,0,0-6.1,27.4c-1.48,6.24-.76,12.54-.55,18.82a11.43,11.43,0,0,1,.51,1.82,118.19,118.19,0,0,0,7.48,30.71,89.73,89.73,0,0,0,14.1,27.06,14.55,14.55,0,0,1,3.26,5.44c-.86,3.14.2,4.62,3.6,4.32A121.1,121.1,0,0,1,525.52-829c.34,3.37,2.67,3.67,5.35,3.51,2.8,1.27,5.93,2,7.34,5.22-1.22,3.09-4.75,1.15-7.06,3.39,5.89,1.76,8.19,6,9.63,11.54a8.51,8.51,0,0,0,7.31,7.11,8.14,8.14,0,0,0,8.66-5c2.17-3.9,5.2-3.67,6.72.6,1.08,3,2.19,4.62,5.59,4.62a5.31,5.31,0,0,1,5.88,4.67,5.3,5.3,0,0,1-.16,2c-.55,4.18,2.1,4.76,5.15,4.32a112.22,112.22,0,0,1,31.17,0,7.27,7.27,0,0,0,3.78-.32c1.27-.51,2.31-1.32,2.13-2.8s-1.34-1.66-2.31-1.8c-7.46-.87-14.55-4.31-22.51-1-4.43,1.82-10.18,2.49-12-5-.48-1.89-3.37-2.31-5.35-3.14a32.08,32.08,0,0,1-8.15-3.65c-1.92-1.45-3.28-3.25.41-4.41,16.16,4.11,32.49,3.28,48.79.67a5.66,5.66,0,0,1,5.74,3.19c1,2.45-1.33,3.14-3.18,4.34,6.67-.92,1.94-5.26,3-7.8a17.3,17.3,0,0,1,10-3.21c3.62.67,4.24,2.47,2,5.31a21.08,21.08,0,0,0-2.43,3c-.73,1.38-1.2,2.86.19,4.06s2.47.35,3.44-.55c4.94-4.62,9.65-4,14.89-.14a11.55,11.55,0,0,0,16.06-2.95c.09-.13.18-.26.26-.4,1.25-1.78.86-2.84-.25-4.62-4.18-6.28-3.21-8.19,4.36-9.23s8.41-2.31,8.1-10a10.69,10.69,0,0,1,.91-5.63,6.94,6.94,0,0,0-1.69-9.12c-.35-2.91,1.82-4.62,3.19-6.74,5.65-8.77,12.35-17,15.42-27.2a120.49,120.49,0,0,0,8.1-42.59A113.19,113.19,0,0,0,693.58-971,13.44,13.44,0,0,1,692-976.7c2.71-7.11,2.47-6.93-4-12.24a40.37,40.37,0,0,1-11.54-16.51h333.34c1.14,7.23-5,4.85-8.33,6.54,0,1.38,1.92,1.87,2.31,3.32,0,2.1-.65,4.62,2.31,5.5,5.33-.81,5.33-.81,11.29,4-1.62-5.89-1.55-10.76,5-12.63,5.81,1.41,7.29-4.11,10.62-6.68h78.86c3.83,0,4.62.79,4.62,4.62q-.26,87.52-.12,175c91.4-53.3,927.4,1196.47,873.66,1233.87,0,6.47-464.62-58.52-547.63-378.2-51.86-202.49-91.38-125.33-107.38-163.17-52.45-123.9-106.2-197.34-168-141-42.29,38.5-70.25-59-70.25-58.85-1.66,2.42,17.27-380.72,17.85-378.25,2.6,11-3.21,21-3.12,31.61,0,1.64-.28,3.95-2.31,3.95s-2.52-2.06-3-3.77a1,1,0,0,1-.12-.62c2.31-12.86-1.38-25.9,1.13-38.76a20.28,20.28,0,0,0,.72-6.93c-.46-2.95-1.2-5.42-5.15-4.89s-6.3-1.67-8.29-4.83c-3.67-5.86-6.51-6.3-11.75-1.82a22.44,22.44,0,0,1-9.83,5.72,3.89,3.89,0,0,0-3.08,2.08c-3.07,8.5-10.18,6.93-16.71,6.79a35.65,35.65,0,0,1-10.46-2.91c-2.47-.9-3.83-3.67-.78-4.36a7.86,7.86,0,0,0,6.92-6.93c.19-.95,1.64-1.25,3-3.16-6.21,4-10.92,3.32-16.16-.33-4.62-3.2-10.78-1.5-16.28-1.06-1.4,0-1.87,1.46-2.3,2.73-1.78,4.38-11.55,10.66-16,10.36a5.89,5.89,0,0,1-5.38-4.75c-1.93-5.87-8.81-6.12-12.07-10.55-.46-.63-2.12-.26-3,.32a23.68,23.68,0,0,1-13.6,2.82,7,7,0,0,0-5.91,3.14,11,11,0,0,1-13.62,3.37c-3.84-2.15-5-6.54-3-12.31,1-3,.9-5.65-1.64-7.5-5.13-3.72-5.22-8.91-4.83-14.38a43.67,43.67,0,0,0,.74-7.65c-.25-2.7-1-5.21-4.24-5.51a57.28,57.28,0,0,1-11.36-1.76c-2.68-.81-3.28,1.39-3.54,3.35-.62,4.85-3.09,5.06-6.92,2.15a13,13,0,0,1-7.57,10c-4.62,2.31-3.93,7.21-3.63,11.41s2.13,7.68,3.19,12c2.93-1.94,2.75-4.62,3.6-6.93,2.1-5.49,5.7-7.41,10.37-4.11,5.51,3.93,9.53,3.74,14.56-.87,3.58-3.28,7.18-1.6,7.55,3.21.26,3.37,3.51,7.36,0,10.15a13.32,13.32,0,0,1-15,1.83c-4.13-2.31-6.74-1.64-8.68,2.63a15,15,0,0,1-3.19,4c-5.33,5.47-7.5,5.38-12.12-.57-.78-1-1.52-2.06-2.31-3-4.87-5.45-8-11.54-5.74-19A6.56,6.56,0,0,1,894-759c2.72-5.63-.39-10.5-3-14.66-3.14-5-7.62-9.09-7.12-15.65-4.06.26-3.2,5-6.39,5.29a14.86,14.86,0,0,1-5.06-.39c-10.36-1.73-18.33,1.68-23.47,11A26.32,26.32,0,0,0,849.6-745a47.88,47.88,0,0,0,7.94,9,22.28,22.28,0,0,0,15.56,10c5.54.72,6.93-1.15,5.59-6.74C882.34-736,885.29-740,890-742c3.55,2.3,7.78,3.57,10.82,6.65,2.06,2.07,4.62,4.2,3.28,7.68s-4.25,2.87-7.57,2.91c1.89,0,3.42-.25,4.34.58,9.07,8.15,20.78,8.33,31.74,9.72,10.16,1.29,19.23,5.17,28.75,8,3.64,1.09,7.11,2.68,10.89,3.47s6.37,3.27,5.31,7.34-4.48,3.39-7.82,2.65c-10.21-2.31-20.62-1.8-31-2.12a31.66,31.66,0,0,1-11.24-1.9,12.39,12.39,0,0,0-13.2,1.18,5.13,5.13,0,0,1-2,0c-11-7.36-23.09-4-34.88-3.41-3.4.18-6.79,1-10.09-.47a3.83,3.83,0,0,1-2.73-3.25c0-2,1.32-3,3-3.67,3.09-1.18,6.32-.14,9.83-.53-3.74-1-8.4.13-8.75-5.45-3.58,1.94-6.35,5.15-10.62,6a3.16,3.16,0,0,0,1.82,1.07c2.06.71,4.37,1.45,4.41,4a4.77,4.77,0,0,1-4.61,4.62c-9.08,1.2-16.83,6.23-25.54,8.31a55.43,55.43,0,0,0-24.49,13.28c-5.17,4.61-11.78,7.29-16.32,13.06-2.47,3.1-5.52,5.41-6.93,9.56-1.48,4.73-5.91,7.92-9.23,11.06-4.09,3.79-7.71,8.56-13.26,10.78a5.93,5.93,0,0,0-3.79,7.48l.12.35a14.51,14.51,0,0,1,.44,2.54,6.93,6.93,0,0,1-5.55,8.07h-.06c-2.47.64-6.48-3.88-6.76-7.28-.6-6.81-2.77-8.58-9.68-7.87-1.26.14-2.49.56-3.78.65a4.35,4.35,0,0,1-4.62-2.73c-1.08-2.3.53-3.62,2.31-4.47a13,13,0,0,0,7.94-12.08c.37-5.4,4.62-8.47,8.71-11.33,2.9-2.08,5.7-3.86,4.61-8.13a3.46,3.46,0,0,1,.95-3.6c6-4,6.39-11.85,11.7-16.46,3.77-3.26,3.12-4.3-1.75-5.29-3.21-.67-7.32-.3-7.85-4.89-.39-3.51,4.94-9.72,8.75-9.79,6.53-.12,12.67-.76,17.82-5.4a5.88,5.88,0,0,1,5-.6,10.65,10.65,0,0,0,9.42-2.54c3.83-3.17,8.08-1.32,11.93.73,1.69.91.53,4.92,4,3.86,3-1,6.51-1.29,8.25-4.41s4.61-4.2,7.31-5.72c-.62-2.84-3-3.28-4.75-4.18-4-2-6.33-3.95-4.85-9.45,1.32-4.84-4.62-5.63-7.62-7.71-2.49-1.75-4.11.35-5.26,2.77-3,6.26-9.07,10.09-12.91,15.75a4.38,4.38,0,0,1-5.91.85c-9.76-5.72-21.17-6-31.67-9.23-9.61-2.91-19.86-4.62-29.87-6.6a4.33,4.33,0,0,0-4.16,1.24c-7.73,8.75-17,7-26.25,3.56-3.76-1.41-6.12-1.23-7.57,2.74-.58,1.64-1.34,3.28-3.42,3.33s-2.82-1.57-3-3.39c-.26-3-2.61-3.63-4.85-4.37a62,62,0,0,0-20.78-2.72,66.86,66.86,0,0,1-12.81,0c-10.83-1.8-19.07,3-26.3,9.95a16.14,16.14,0,0,1-11.54,4.32c-13.48.69-26.8-2-40.29-1.46-8.47.35-17.2,3.16-25.39,0s-16.39-1.85-24.27-4.43a14.56,14.56,0,0,0-7.61-.32,26.49,26.49,0,0,1-16.93-1.53,2.47,2.47,0,0,0-1.22-.32c-22.51,2.42-44.35-9.88-67.07-3-3.64,1.11-7.18-.28-10.57-1.66a11.37,11.37,0,0,0-12,1.38c-8.4,6.38-17.5,8-28.21,6.17a139.92,139.92,0,0,0-44.65,0c-6.81,1-12.7-2.93-19.12-4a3,3,0,0,1-2-2.31c-1-5.77-4.18-6.12-8.65-3.72-.86.44-31.45-.71-32.33-1.1a18,18,0,0,0-11.65-1.09,60.74,60.74,0,0,0,22.74,2.52,47.7,47.7,0,0,1,8.28,0c2.45.27,4.87,1,5.08,3.92s-2.05,4-4.29,4.92a19.61,19.61,0,0,1-6.93.92c-8.24.19-16.16,0-24.49,3-7.18,2.61-15.63.88-23.5,1.32a6.68,6.68,0,0,1-3.61-1.22c-1.66-1-3.5-2.31-2.88-4.46s2.65-1.85,4.34-2.08c3.74-.57,7.66.58,11.87-1.15a9.25,9.25,0,0,0-10.74-3.26,39.07,39.07,0,0,0-9.23,4.44c-6.51,3.74-10.85,2.7-15.1-3.4-3.93-5.61-15.86-8.45-21.68-4.91-4.36,2.67-6.28,1.54-6.42-3.4,8.08-7.73,8.08-7.73,13.41-7.09-3.16-3.32-3.16-3.32-13.57-1.82.53,2.91,4.06,6-.14,8.77-7.16,0-14.34,1.09-20.15-5.19-2.7-2.86-6.93-.62-9.4,1.36-10.27,8.17-21.65,5-32.87,3.86-2.31-2.31,0-3.28,1.43-4.37s3.69-1.15,4.73-3.53a4.22,4.22,0,0,0-5.7-.32c-5.1,4.75-10.71,4.61-16.72,2.54a3.62,3.62,0,0,0-2.51.16c-.42.18-.7.48-1.07,1.43,4.14,1.52,8.48,1.25,12.7,1.69,2.5.27,5.22-.21,6.93,2.44-.44,10.65-2,11.78-12.28,9.49A45.09,45.09,0,0,1,91-736.79c-2.89-1.5-5.17-.23-7.55,1.64-5.4,4.25-8.2,3.69-12-1.87s-5.45-5.75-9.23.32c-3.14,5.13-8.36,6.61-13.65,7.23-10.32,1.2-20.91.48-30.7,5a2.06,2.06,0,0,1-1.27.18C4-726.61-8.45-722.52-21-722.82a12.85,12.85,0,0,1-5-.74c-3.19-1.48-4.2-3.51-1.22-6.7-12-.34-23.78.44-35.6-.16-4.34-.23-8.24-2.31-12.22-2.93-11.35-1.8-20.91-9.23-33.08-8.84-33.7,1.11-67.43,1.85-101.19,1.57-13.66,0-27.24-2.31-40.93-1.41a27.15,27.15,0,0,0-5.1,0c-12.67,3.39-22.83-.83-31.81-9.65-2-1.94-3.81-3.16-2.66-6.28,3.65-9.74-1.22-18-5.56-25.88-3.67-6.67-8.77-12.54-11.27-19.92-.85-2.52-2.51-5-5.21-5.1-3.19,0-3.47,3.23-4.34,5.58-.3.79.11-.21-.17.6-.69,2-1.2,4.76-3.69,4.62s-2.59-3.12-2.61-5.13c-.11-8.75,0-17.5,0-26.24C-322.58-843.7-322.35-858.11-326.25-872.14Z"/><path class="cls-7" d="M-49.24,731c-1.5-9.23-3.95-18.12-4.18-27.7-.39-16.16,4.62-30.41,12.1-44.21a155.87,155.87,0,0,1,29-36.8c12.76-12.54,25.55-24.91,41-34.21a16.67,16.67,0,0,1,3.9-2.15c9.86-2.82,12.14-10.09,11.82-19.21-.65-18.08,4.85-35.28,8-52.77.95-5.18,1.45-10.58,4.08-15.33.65-1.18.95-2.52-.3-3.49-8.47-6.58-6.23-15.72-4.84-23.92,2.54-15.05,9.23-28.72,17-41.78a132.8,132.8,0,0,1,24.27-31.08,31.62,31.62,0,0,1,10.83-7.64c7.43-2.59,10-10.23,14.52-15.65a381.16,381.16,0,0,1,39.24-40.22c5-4.5,9.08-10,16.3-11.77a193.12,193.12,0,0,1-37.12-2.66c-27.7-3.88-46.17-18.47-57.23-44.51s-16.16-53.56-20.29-81.22a389.71,389.71,0,0,1-2.89-66.3c.19-7.43.3-14.75-2.82-22a37.94,37.94,0,0,1-2.3-15c0-19.44-.81-38.93.2-58.32,2-38.76,2.47-77.52,2.57-116.33a49.9,49.9,0,0,1,5.37-23.37,5.86,5.86,0,0,0,.63-4.91c-4.3-10.76-2.31-21.7-1.27-32.65a55.15,55.15,0,0,0,.21-5.75v-59c0-7.69-2.52-15.23-1.25-22.9,2.31-13.23,1.92-26.66,3.92-39.87,2.11-13.74,23.92-31.93,39.76-33.84a171.19,171.19,0,0,1,20.36-1.25A17.67,17.67,0,0,1,134.06-308a162.36,162.36,0,0,0,28.22-1.37c8.86-6.71,18.46-4.29,28.21-2.56,2.7-2.15.5-4.62-.12-6.39-3-8.85-1.31-18.47-4.8-27.22-2-5.06-5.91-8.84-7.94-13.85-2.31-3.07-4.94-6.05-5.1-10.23-2.8-3.44-2.59-7.53-2.59-11.54-1.64-2.82-1.15-5.94-1.25-9v-6.39c-2.61-5.06-.85-10.23.74-14.78,5-14.29,12.61-26.66,28.44-31.35a11.08,11.08,0,0,0,7.3-7.38,301.2,301.2,0,0,1,19.09-38.26,16.26,16.26,0,0,1,6-6.51c3.21-1.59,6.51-3.07,5.91-7.62a96,96,0,0,1,32.53-33.36,7.44,7.44,0,0,1,5.47,3.51c-4.16,7.11-10.67,12-16.46,17.57a160.3,160.3,0,0,0-31.17,42c-4,7.55-8.06,15.05-11.36,22.95-1.54,3.69-1.22,5.31,3.35,5.68a73.87,73.87,0,0,1,24.17,5.81c11.2,8.11,16.49,19.77,19.81,32.65,4.83,18.77,1.48,36.34-7.8,53.1-4.16,3.69-6.93,9.23-13.46,9.62-9.81.35-19.23,3.42-29,4-3.16.21-6.3.74-9.54.67-2.12,0-4.94-1.61-6.05,1.64a5.29,5.29,0,0,0,2.45,6.6,4,4,0,0,1,2,2.31c-3.32,3-3,6.58-2.3,10.51A311.32,311.32,0,0,0,238-216.47c3.93,6.51,9.24,12.26,11.43,19.81a11.54,11.54,0,0,1-8,10.39c-4.39,1.11-7,2.63-3.33,7.68a25.18,25.18,0,0,1,4.13,13.67c.79-1.94-.37-3.32,0-4.8a3.89,3.89,0,0,1,3.1-3.12c3.85,0,6.76,2.31,9.88,4.23,1.94,1.71,4.39,0,6.44.92a56.33,56.33,0,0,0,13.11,6.47c3.51,1.33,6.12.87,8.15-2.31,4.41-.76,3.37,3.58,5.08,5.38,2.31,3.16,6.93,2.3,9.24,5.51-1.25,4.94-4.78,3.81-8.06,2.87-8.15-2.31-15.58-6.7-23.87-8.66-4.83-1.16-9.42-3.53-14.59-2.49a83.91,83.91,0,0,1-13.58,12c-18.88,12.42-32.87,29.42-45.48,47.82a79.82,79.82,0,0,0-13.64,38.69,17.71,17.71,0,0,1-1.48,6.16c-1.75,4.3-1.06,8.73-.88,13a4.25,4.25,0,0,1,1.48-2.54c1.89-1.25,3.46-1.48,3.95,1.36a7.34,7.34,0,0,1-.28,1.85c-2.56,7.22-5.7,14.36-3.09,22.3,1.8,3.39,1.45,7.82,5,10.36,2.68,2.77,1,6.74,2.7,9.79,24.22,38.49,59,61.48,103.17,71,2.77-.42,5.1,1.22,7.71,1.57s4.85,1.08,7.34,1.29c3.14.28,1-1.78,1.3-2.77a2.62,2.62,0,0,1,2.31-2.63c5.12,1.71,8.49,6.92,14.77,6.62,6.81-.36,13.67.28,20.48-.16a318.23,318.23,0,0,0,58-9c13.62-3.51,25.92-9.88,38.11-16.43,22.79-12.22,45-25.26,62.34-45.09,7.45-8.47,8.63-13.62,3-23.55a52.24,52.24,0,0,0-15.72-17.43A169.83,169.83,0,0,0,432.8-71.63a25.41,25.41,0,0,0-14.34-1.54c-19.3,3.64-38.71,6.53-58.43,5.47-11.89-.65-23.85-1.39-35-6.26a12.45,12.45,0,0,1-3.2-3.39c-.42-.74-.72-1.5-1.09-2.31-.76-1.5-2.72-1.5-3.62-2.84a4.19,4.19,0,0,1-.4-1.59,25.74,25.74,0,0,0-.9-6,92.1,92.1,0,0,0-11.89-39.87c-.85-1.43-2.07-3-.71-4.62s2.72-.51,4.08,0c6.93,5.17,9.52,13.21,12.84,21.1,3-8.38,1.11-16.71,2.31-24.77,2.61-4.48,4.5-1.8,6.39.65,3.1,6.67,1.57,13.66,1.53,20.57a51,51,0,0,1-5.08,14.33c-5.57,10.18,4.2,23.09,17,22.88,13.14,3.23,26.51,3.56,40,3.46,5.25,0,8.11-1.61,9.86-6.78a52.53,52.53,0,0,1,23.41-28.52c8.73-5.26,17.34-10.94,27.87-12.16,4.43-.14,8.89-.12,13.32,0,3.58-.28,6.92,2.79,10.6.81a3.37,3.37,0,0,0,.53-3.05c-2.47-4.27-6.65-3.39-10.23-2.86a165.58,165.58,0,0,1-45.94-.93c-6.19-1.31-12.45-2-18.66-3.28-1.64-.32-3.92-.6-3.71-2.6s2.44-2,4.13-2.15c2.31-.19,4.62,0,6.92-.16,4.51.34,3.56-5.5,7.09-6.26a5.2,5.2,0,0,1,3.83,3.07c1.32,2.77,3.93,2.79,6.47,3.26,10.73,1.94,21.61.62,32.32,1.29,5.68.83,11.33,2.82,17,0,1.5-2.31.92-5,1.06-7.48a18.87,18.87,0,0,1,3.16-10.2c1.18-1.71,3.93-3,3.05-5.25-1.06-2.65-4.11-1.31-6.3-1.7-1.8-.35-4.62-.12-4.37-2.52s2.82-2,4.62-2.31,3.42.28,4.62-1.27c-4-3.55-9.07-2.49-13.53-2.7-23.5-1.08-45.27-8-66.07-18.47-3-1.5-6.37-2.72-7.51-6.46a3.59,3.59,0,0,1,3.21-3.56,10.87,10.87,0,0,1,6,2c21.59,12.7,45.25,18.08,69.9,20,2.54.19,6.93,1.32,7.14-1.61.16-3.4-4.3-1.8-6.77-2.31-4.61-.86-9.83,2-13.66-2.61,1.45-2.68,4.61-2.54,6.76-4a11.52,11.52,0,0,1,3.74-.44c10.37,0,10.34,0,13.28-9.58a11.86,11.86,0,0,1,6.28-8.33c3.87-.85,7.73-2.72,11.54,0a6.29,6.29,0,0,1,1.29,3.53c.44,14.94.39,29.9,0,44.84,0,2-.25,4.82-3.14,4.61s-2.95-2.93-2.88-5c.3-11.13-1.83-22.12-1.55-33.24,0-2.31.81-5.06-1.41-7.67-3.12,3.37-3.37,7.34-3.55,11.34a203.36,203.36,0,0,0,2,33.17,50.31,50.31,0,0,1,.44,9.58c-.16,2.06.14,4.9-2.31,5.4-2.86.56-3.67-2.3-4.62-4.41a3.4,3.4,0,0,0-2.15-2.47c1.55,13.67,2.68,27-6.28,38.35a41.49,41.49,0,0,0-6.18,16.6c-.33,3,.46,5,3.67,5.59,19.23,3.76,32.5,15.76,43.47,31.09,5.12,7.18,6.26,7.16,12.44.63,10-10.53,13-23.57,13.42-37.54-.12-23.09,1.06-46.17-4.25-68.82a62.48,62.48,0,0,0-2.31-9.93c-.58-1.36-1.13-3.18-2.86-3s-1.78,2.15-1.92,3.56c-.37,3.83.16,7.71-.37,11.54-.44,3.26-.18,8.45-3.88,8.45-4.18,0-3.44-5.1-3.53-8.38a69,69,0,0,1,2.06-20.78c2.17-7.61-1.48-14.61-4.46-21.47-.23-1.75.9-3.53,2.19-3.23,7.25,1.64,9.24-4.78,13.23-8.17A22.49,22.49,0,0,1,536.6-216c2.51-.94,5-1.29,6.69,1.46-1.52,5.7-7.2,7.38-10.73,11.15,4.8,5.63,5.12,5.75,10,.5,18.77-20,33.24-43,46.36-67,7.8-14.26,11.7-29.57,14.08-45.43q1.17-7.89,3.12-15.65a18.41,18.41,0,0,1,1.15-2.66c.65-8.86,2.15-17.75,0-26.59-.74-2.93-.32-6-1.06-8.94a4.72,4.72,0,0,1,.51-2.88,3.52,3.52,0,0,1,3.57-1,3.67,3.67,0,0,1,1.41.9c1,1.78,3.4,1.08,4.62,2.56A8.53,8.53,0,0,1,615-364.5c-2.58,6.93-.46,14.31-1.78,21.38-.25,1.43,0,3-.74,4.29v10.28c2,4.5-1.24,8.49-1.29,12.81-2,16.16-7.52,31-14.24,45.83-11.15,24.72-26.78,46.31-43.38,67.34a71.23,71.23,0,0,1-7.8,7.34c-2.47,4.39-5.5,8.63-3.84,14.13l3.86,2.51c6.37.63,8.24,6.26,11.54,10.35a7.59,7.59,0,0,0,6.4,2.56,26.12,26.12,0,0,1,11.54,3.86c1.36,1.82,3.35,1.08,5.1,1.27,2.45.78,5.15,1.13,6.42,3.85,9.79,6.93,20.92,11,31.67,15.91S638-129,647.11-122.12c6.56,3.58,13,7.46,19.21,11.55h0a34.91,34.91,0,0,1,10.23,9l9,10.25c1.55,1.5,4.11,2.31,3.86,5.1,1.15,5,5,8.38,7.91,12.17a159,159,0,0,1,16.9,29.59c3.07,6.47,2.31,13.37,2.68,19.93.21,4.24,1.23,8.61.46,13.13-3.58,20.78-16.73,35.16-31.28,48.88a108.88,108.88,0,0,1-23.82,17c-13.86,7.34-28.33,6.6-43,4.61a87.82,87.82,0,0,1-26.55-8.56c-1.94-.95-2.7-1.27-3.71,2.31-2.31,7.59.74,11.95,5.91,16.16,2.44,2,2.51,5.31,3.62,8,2.15,5.33,4.32,8.89,12,8,8.87-1.09,17,4.38,25.14,8a67.24,67.24,0,0,1,31.75,29.32c4.8,8.54,7.06,18.19,10,27.49a7.45,7.45,0,0,0,5,5.73c13.46,5.21,27.05,10.18,38.44,19.62,10.57,8.77,20.64,17.78,23.87,32a11.24,11.24,0,0,0,3.21,5.45c6.81,6.26,8.52,14.64,9.23,23.09a132.93,132.93,0,0,1-1.29,31.88,20.73,20.73,0,0,1-8.41,13.85c-16.92,11.68-32.78,24.87-51.18,34.49-17.59,9.24-35.67,15.73-56.72,16.16,4.62,6.12,10.53,10.05,15.07,15.17,12.15,13.69,25.24,26.57,34.24,42.73a6.14,6.14,0,0,0,6.93,3.35c7.8-1,15.67.39,23.38-.14,28.19-2,53.91,6.35,79.51,16.72a111.48,111.48,0,0,1,45.07,32.32,72,72,0,0,1,17.36,43.54c0,2.31-.23,4.62,0,6.93,1.82,15.21-2.93,28.72-9.7,42.08a297.92,297.92,0,0,1-27.52,45.81,4.92,4.92,0,0,1-3.85,5.12l-2.56,3.95c-6.93,5.65-11.71,13.46-18.47,19.39q-16.17,14.4-32.65,28.42a23.1,23.1,0,0,0-9.07,16.71c-1.62,23.25-7.39,45.65-14.06,67.88a152.72,152.72,0,0,1-14.89,35.16,21.6,21.6,0,0,0-3.28,12.07c.6,24.66-10.11,44.72-25.23,63.14a126,126,0,0,1-30.64,27.71c-6.92,4.34-15,6.92-22.21,10.94-13.46,7.71-25.72,17.34-39.08,25.4a339.91,339.91,0,0,1-75.82,34.35c-19.09,5.79-37.84,12.9-57.71,15.74-21.82,3.14-43.52,6.93-65.55,8.91a337.11,337.11,0,0,1-55.4-.48,223,223,0,0,1-34-5.61c-13-3-26.16-5.47-39-9.24a326.58,326.58,0,0,1-65.61-26.08c-29.05-15.93-53.89-37.24-76-61.6-12.26-13.5-24.88-26.87-34.63-42.38-3.55-5.59-8.28-7.67-14.47-9-31.79-6.77-63-15.49-91.93-30.8l-2.84-1.48c-7.6-4-14.31-10.39-23.94-9,0-2.31.6-4.92-2.31-6.28C-38.74,747.2-44,739.1-49.24,731Z"/><path class="cls-8" d="M56,79.24c-.5-19,.26-38,1.18-57,1.57-31.84,1.2-63.67,1.39-95.51a121.51,121.51,0,0,1,2.58-23.52c1.41-6.93,4.16-8.89,11.15-8.38a48.28,48.28,0,0,1,13.48,3.85c19.86,7.41,40.43,12.35,60.84,17.8,4.36,1.16,4.61,2.54,4.31,6.77-1.27,16.8-1.64,33.68-2.54,50.53-2.3,44.17-1.17,88.45-3.71,132.61a55.5,55.5,0,0,0,.57,6.93c0,1.47,1.57,3.64-1.36,3.94s-2.81-1.59-2.81-3.76c-.12-13-.35-26.06-.6-39.09a68,68,0,0,0-.58-8.31c-1.25-8.56-2.31-9.79-10.94-10.09-4.18-.13-5.41-1.33-5.38-5.49,0-7-.58-14.08-1-21.12-.21-4.07.16-8.36-6-8.5s-10.5,2.7-11.19,8.22a149.4,149.4,0,0,0-1.18,19.83c0,5.13-2,6.56-6.74,6.26-9.74-.6-18.47,2.88-26.67,7.66a9.64,9.64,0,0,0-4.91,4.87C64.14,76.29,62.17,78.53,56,79.24Z"/><path class="cls-9" d="M407,175.33a4.35,4.35,0,0,0-3.65,1.48c-2.81,3.5-7.18,4.45-10.87,6.51a90.87,90.87,0,0,0-11.8,6.41c-4.78,3.72-9.51,4.37-14.7,1.18-4-2.31-7.78.72-11.69.69a23.24,23.24,0,0,1-13.66-7.71c-5.73-6-11.43-12.09-19.14-15.79-2.19-1-4.06-2.7-3.44-5.49s2.93-3.47,5.29-4c5.58-1.15,10.48,1.13,15.42,3.16,3.32,1.39,6.21,3.56,10.36,5.7-27.42-17.4-54.9-14.77-82.51-4.34a92.86,92.86,0,0,0-29.69,17.37c-7.36,6.6-8.54,9.46-6.65,20,3-.72,4-3.53,5.8-5.4,4.09-4.3,7.48-9.4,13.62-11.25,8.36-2.49,11.41.26,9.49,8.75-2.77,12.28-7.2,24.2-8.47,36.78-1,9.51-2.31,19.07-.7,28.67.33,1.83,0,3.88,2,5.47,2.05-1.54,2-4,2.72-6.09a22.4,22.4,0,0,1,5.52-10c3.23-2.87,5.84-2.17,7.27,1.91a31.73,31.73,0,0,1,1.62,8.8,31.78,31.78,0,0,0,4.4,15.19c-.16,5.26-.32,10.55-.76,15.81a77.29,77.29,0,0,0,4.41,36.09,103.11,103.11,0,0,1,6.7,25.07c.46,5.95-3.33,1.36-3.7,1.06-4.18-3.51-8.1-7.29-12.14-11-33.24-30.38-56.33-67.25-67.53-110.81-6.92-27.15-7.25-55.41-5.56-83.3.25-4.24.58-8.49.88-12.74,1.73-2.54,4.13-1.5,6.34-1.08a313.93,313.93,0,0,0,33.48,4.15c7.87.56,15.61,3.23,23.71,2.77a7.37,7.37,0,0,1,4.13,1.62,31.27,31.27,0,0,0,28.4,3.67,13.2,13.2,0,0,1,6.19.81c10.45,4.38,20.31,2.81,29.59-3.4,8.31-3.94,16.79-.9,25.17-.53,19.55.9,36.59,7.67,50.49,21.68a19.3,19.3,0,0,1,4.91,6.65C409,172,409.92,174.1,407,175.33Z"/><path class="cls-10" d="M159.76,245c2.12,2.54,1.45,6,2.84,8.77.23,4.85-3.49,4.18-6.19,4a320.41,320.41,0,0,1-74-12.17c-3.23-.94-6.74-1.59-8.68-4.87a20.8,20.8,0,0,1-2.49-9c1.2-1.55,2.93-1.41,4.62-1.43s3.69.16,4.06-2c.44-2.54-1.43-3.69-3.49-4.61-2.42-1.07-5.61,0-7.54-2.47a251.17,251.17,0,0,1-5.55-38c1-4.62,4.85-3.42,7.62-3.4,12.79.19,25.4-1.84,38.16-2a33.71,33.71,0,0,0,28.65-14.52,11.29,11.29,0,0,0,2.91-8.71c0-9.37.35-18.74.6-28.14,0-2.19-.71-4.62,3.31-4.62,3.55,0,3.25,1.8,3.41,4.41q3.07,50.43,8.94,100.59c.34,2.89-.33,6,1.31,8.68-2.61,2.61-5.63.9-8.49.79-2.45,0-5.22,0-5.8,2.77-.69,3.41,2.56,3.14,4.62,3.81C152.23,244.17,156.23,243.36,159.76,245Z"/><path class="cls-9" d="M289.13,72.89c-37.86-7-67.89-27.42-93.89-54.87C190.46,13,187.76,6.66,184,1c-3-14.43,1.78-27.45,7.32-40.33a4.15,4.15,0,0,1,2.19-2.19c8.59,3.32,10.12,5.68,9.59,16.16a33.48,33.48,0,0,0,.69,10.13c1.66,6.54,5.72,9.24,12.26,8,8.84-1.61,11.17-.51,16.16,7.62,4.15,6.93,8,14.13,15.51,18.24,6.93,3.72,10.09,2,10.27-5.61A111,111,0,0,1,259.79-8.6c.74-3.28,1.53-7.67,6.93-5.59,2,3.35,1.41,7.07,1.22,10.6A110.89,110.89,0,0,0,288,67.26C289.18,69,290.87,70.59,289.13,72.89Z"/><path class="cls-11" d="M171.26,116.39c-4.48.41-8.94,1-13.39,1.22-8.31.42-9.56-.69-9.65-9.23s0-17.09.48-25.6c1.59-29.86-.21-59.78,1.89-89.65,1.55-21.93,3.35-43.86,2.77-65.89A11.65,11.65,0,0,1,155-79.5c4.62-.9,3.26,3,3.44,4.9,1.11,10.59,2,21.21,2.8,31.83a73.22,73.22,0,0,0,8.65,30.48c4,13.69,6.79,27.7,12.06,41,4,27.47-.72,54.3-6,81.1C175.34,112.67,175.09,115.72,171.26,116.39Z"/><path class="cls-12" d="M163.25,121.38c5.79-1.76,11.84-.67,17.7-1.53,1.32-.21,2.8,0,3.07,1.57,1.27,6.77,5.87,12.38,5.31,20a477.22,477.22,0,0,0-.11,70.13c.18,2.54.76,5,1.15,7.55a6.12,6.12,0,0,1,0,6.24c-3.53,2.88-6.92,5.86-7.62,10.82a3.34,3.34,0,0,1-1.82.21c-2.54-1.89-6.19-2.31-7.69-5.58a401.71,401.71,0,0,1-6.53-74.87,156.4,156.4,0,0,1,2-23.48C169.59,126.69,169.5,122.92,163.25,121.38Z"/><path class="cls-11" d="M163.25,121.38c8.84.8,8.17.73,7.18,10.27a268.47,268.47,0,0,0-.77,54.81c1.25,12.46,2.31,24.95,4.34,37.3.47,2.82,2.59,5.47-.14,8.15-.64,2.31-2.88,2.93-4.5,4.23s-3,2.7-1.87,4.8,2.89,1.15,4.62.9c2.66-.44,5-2.42,7.94-1.36a11.85,11.85,0,0,1,2.31,10.41c-5.33,5.1-11.8,6.69-16.16,4C156,215.22,155.33,174.38,151.31,134,150.11,122.37,150.92,121.81,163.25,121.38Z"/><path class="cls-7" d="M70.11,116.39c0-13.67.12-27.36,0-41,0-3.78,1-5.17,5.08-5.14,13.86.16,27.71,2,41.56,1.1,4.62-.27,4.36,2.77,4.43,5.87.49,20.89,1.09,41.78,1.43,62.7.12,6.76,1.94,13.46.44,20.39-.76,3.46-2.1,4.77-5.38,4.84-13.23.3-26.41.47-39.54-2-5-.92-7.21-3.16-6.75-8.12a3.5,3.5,0,0,1,3.54-.81,86.58,86.58,0,0,0,28.19,0c2.3-.44,4.61.83,6.92,1.22,6.58,1.09,9.63-2.31,6.93-8.29-1.57-3.64-3.07-6.65-.37-10.5,1.27-1.85,0-4.62-.53-6.93a18.33,18.33,0,0,1-.3-2.77,42.67,42.67,0,0,1,.3-6.39c.69-6.42-1.48-8.61-7.51-6.26-4.2,1.66-7.82,0-11.38,0-6.92.12-13.85.58-20.78-1.15C73.51,112.49,73.92,118.86,70.11,116.39Z"/><path class="cls-13" d="M181.18-9.45c4.14-38.07,25.68-64.09,64.39-74.16,19.6-5.1,39.25-5.89,58.57.53,4.62,1.55,8.82-.81,13.23-.57,1.11,2.1,4.13.53,5.19,2.7-12.25-.86-21.58,4.48-29.64,13.32-32,35.09-30,99.55-3.35,134.43,1.94,2.52,4.21,4.8,6.33,7.2-2.31.69-4.13-2.88-6.72-1.11-4-6.92-8.63-13.5-12.05-20.77a113.2,113.2,0,0,1-11-57c.21-3.19.12-6.38.17-9.54a5.49,5.49,0,0,1-1.23-5.93c5.36-22.95,14.48-43.75,34.63-59.4a69.54,69.54,0,0,0-24.15-3.1c-17.1.93-33.86,3.95-49.33,12.15a67.16,67.16,0,0,0-28,25.48c-.95,1.64-1.78,3.44-3.88,4C187.69-27.95,183.4-14.07,184,1,180.93-1.86,184.9-6.71,181.18-9.45Z"/><path class="cls-7" d="M126.19,163.18c.79-9.23-1.06-17.73-1.18-26.48-.23-18.74-.8-37.46-1.17-56.21-.26-11.75.16-12.31,11.77-17.18q1.66,44.26,1.18,88.42C136.72,159.26,133,161.73,126.19,163.18Z"/><path class="cls-14" d="M195.68,77.83c6,6,12.14,9.89,12.88,18.82a20,20,0,0,0,14.09,17.41c6,2.1,5.44,8.1,8.12,12.12,1,1.52-1.17,1.84-2.31,1.77-10-.57-20-.25-29.64-3.37a6.23,6.23,0,0,1-4.78-4.43C189.66,106.09,193.19,92.54,195.68,77.83Z"/><path class="cls-15" d="M117.28,129.41c1.45,3.62,2.56,7.36-.67,10.55-2.31,2.31.19,2.56,1,3.83,2,3.35,3.53,7.41,1.45,10.78a7.85,7.85,0,0,1-9.23,2.47c-7.41-2.81-14.78.49-22.28-.3a153.63,153.63,0,0,1-16.16-1.68c-.42-3.07-2.75-6.1-.23-9.24,2.31-1.87,1.36-4,.44-6.07-2.91-3.16-1-6.92-1.5-10.53,3.14-1.36-.44-5.58,2.93-6.92,3.11.16,6.6-.88,8.86,2.42-.25,1.83-1.43,2.43-3.09,2.43.35.37.78,0,1.13,0,7.27,2.67,14.71-3.24,22,.44,1.46.73,2.86-.54,4.3-.81C110.19,126.15,114.26,125.62,117.28,129.41Z"/><path class="cls-10" d="M137.73,163.46c-2.44,3.7-4.73,7.53-7.38,11.06-3.88,5.15-10,4.09-15.29,4.62A349.14,349.14,0,0,1,66.58,182a3.77,3.77,0,0,0-3.39,1.43c-3.65-20.94-2.31-42-2.1-63.12,0-1.57,0-3.9,2.42-3.58,2,.28,1.25,2.31,1.25,3.7V155c.28,2.1.58,4.2.71,6.34.7,9.24,2.31,10.76,11.92,10.92s19.14-.46,28.67.79C117.79,173.71,128.62,171.4,137.73,163.46Z"/><path class="cls-12" d="M171.26,116.39c3.9-2.31,2.3-6.53,3-9.86,3.65-18.68,8-37.28,7.23-56.54-.3-7.32-.78-14.66-1.2-22,4.13.49,4,4,4.85,6.81A63.14,63.14,0,0,0,193,62.53c-3.34,16.16-8.56,31.9-8.42,48.64a5.61,5.61,0,0,1-2.2,5Z"/><path class="cls-16" d="M228.79,69.73c-7.85,1.53-14.43,4.85-18.06,12.44-1,2-2.3,1.92-4,.42-6.25-5.26-9.51-15.84-7.06-23.27a5.64,5.64,0,0,1,5.91-4.62C213.62,54.73,225,61.88,228.79,69.73Z"/><path class="cls-7" d="M81.66,125.3c-2.73-2.31-6.49-.3-9.24-2.31a1.52,1.52,0,0,1-2.15,0l0,0c0-2.31,0-4.45-.11-6.67,4.43-5.56,9.23-7.73,15.33-2.15,1.52,1.41,2.61-.48,3.92-.85,4-1.13,8.41-4.16,11.82,1.27,1,1.54,2.15,1.2,3,0,1.85-2.82,4.78-2.31,7.41-2.59,5.64-.83,7.25,2,6.56,7-.35,2.52-.53,5.06-.78,7.58-8.68,1.68-17.43-.26-26.16.43-2.42.19-5-.13-7.5.14C82.4,127.33,80.92,127.35,81.66,125.3Z"/><path class="cls-17" d="M291.93,144.76c-10.09,4.62-19.86,3.16-29.3-1.87a14.35,14.35,0,0,0-6.35-2.31A340,340,0,0,1,200.11,134c-1.43-.32-2.74-1.22-4.24-.32.9-3.65,2.93-4.13,6.62-3.62,11.22,1.54,22.65,1.84,33.78,3.81,4.87.85,9.37,4,14.68,3.9,1.25,0,3,.78,3.67.23,4.83-4.37,8.68-.44,11.54,2,6.68,5.63,13.86,6.46,21.91,4.87A20.75,20.75,0,0,1,291.93,144.76Z"/><path class="cls-18" d="M133,60.77a27,27,0,0,1-20.25,8c-12.08,0-24.13-.56-36.18-.93-1.64,0-4.06.33-4.45-1.59C71.64,63.78,74.46,63.64,76,63a56,56,0,0,1,20.5-4.08c3.41,0,6.25-.3,8,4.18s14.18,4.45,17.82.36C125.2,60.24,128.2,59.8,133,60.77Z"/><path class="cls-19" d="M185.11,34.76,180.26,28C174,15.41,171.9,1.67,168.72-11.74c0-3.86.11-7.71.18-11.54,4.62,14.19,9.77,28.18,17.92,41C190.16,23,186.42,29.1,185.11,34.76Z"/><path class="cls-8" d="M56,79.24c5.66-1.8,7.32-7.06,10-11.54-.56,13.41-1.5,26.8-1.09,40.26,0,1.16.81,2.8-.67,3.42s-2.81-.58-3.72-1.82a25.05,25.05,0,0,1-4.38-13.19C55.69,90.74,56,85,56,79.24Z"/><path class="cls-20" d="M106.08,173a158.58,158.58,0,0,1-33.73,1.41A7.8,7.8,0,0,1,64.19,167a4.85,4.85,0,0,1,0-.66,29.67,29.67,0,0,1,.6-11.38,24.28,24.28,0,0,1,2.31,3.69c2.31,5.59,6.37,8,12.42,9.37C88.35,170,97.82,168.4,106.08,173Z"/><path class="cls-21" d="M192.93,46c-3-6.24-1.15-12.75-.9-19.14,0-1.67,1.34-2.61,3.1-.93,5.93,5.73,12.19,11.11,17.7,17.18a29.9,29.9,0,0,0,6.1,4.25h-9.56c-1.75,1.22-3.28.18-4.62-.63C200.83,44.54,196.91,45.12,192.93,46Z"/><path class="cls-22" d="M182.38,116.23c.83-11.78,1.27-23.6,4.37-35.12A103.79,103.79,0,0,1,193,62.64a48.8,48.8,0,0,1-2.31,17.55,77.69,77.69,0,0,0-2.83,28.33C188.18,112.76,186.93,115.58,182.38,116.23Z"/><path class="cls-23" d="M192.93,46c3.31-4.62,7.53-2.71,11.55-1.41a27.87,27.87,0,0,1,4.94,2.77C207.11,51,202.7,52,199.33,53,195.2,54.24,194.09,49.44,192.93,46Z"/><path class="cls-24" d="M70.11,123.08h2.18a32.85,32.85,0,0,1,.2,6.19c-.53,3.42-1.64.23-2.49,0C70.11,127.17,70.11,125.12,70.11,123.08Z"/><path class="cls-25" d="M71.52,139.75c1.32.21,3.14-.11,2.52,2.31-.46,1.64.42,4.41-3,3.83C71.22,143.79,71.36,141.78,71.52,139.75Z"/><path class="cls-8" d="M194.34-41.2c8.08-18.47,23.55-28.69,41.42-35.74,21.63-8.52,44.35-9.53,68.43-3.39C295-75.53,289.53-68,283.94-60.66a82,82,0,0,0-15.07,34.21c-.79,4.07-3.95,7.62-2.59,12.12-7.46,1.9-5,8.64-5.91,13.28-1.09,5.52-.49,11.38-.69,17.08s-4.14,8.08-9.63,5.84C241,18.18,236,10.63,231.4,2.62S224.35-9.13,215-5c-5.08,2.31-11.25-3.17-13.09-9.24-1.62-5.26-.12-10.45-.76-15.67-.53-4.3-.83-7.87-5.75-9.24C194.92-39.17,194.78-40.46,194.34-41.2Z"/><path class="cls-26" d="M100.31,107.52c-7.06,1.32-14.57-1.2-22.23-1.31-4.46,0-6.35-2.63-6.72-6.93-.55-6.46,1.23-12.72,1.43-19.09A3.35,3.35,0,0,1,76,76.72a2.88,2.88,0,0,1,.59,0c11.73,0,23.46-.69,35.16.78,4.39.56,5.77,2.68,5.64,6.79-.19,5.54-.21,11.13,0,16.67.23,4.62-1.5,6.76-6.24,6.53C107.81,107.39,104.38,107.52,100.31,107.52Z"/><path class="cls-24" d="M81.66,125.3a17.81,17.81,0,0,1,11.68,1.2,5.89,5.89,0,0,0,6.12-.62c2.58-2.2,4.48-1.85,7.29,0s7.07.55,10.65.74v2.77c-4.48-.74-9.24-4.07-13.19,1.22-1.2,1.59-2-.12-3-.72-4.62-2.67-9.24-4.08-13,1.16-.62.85-1,1.52-1.5.23-2.17-5.1-7.16-2.31-12.15-4.46C77.69,126.32,80,126.73,81.66,125.3Z"/><path class="cls-27" d="M77.53,130.43c3.67,0,6.14.46,6.25,3.94s-2.31,3.74-5.12,3.84-4.76-.91-4.74-4.25S75.77,130.06,77.53,130.43Z"/><path class="cls-28" d="M79.35,153.53c-.88-.2-4,.91-4-3.23,0-3.32,1.23-4.45,4.46-4.36,2.86,0,5,.53,5.08,4C84.82,152.75,83.62,154.25,79.35,153.53Z"/><path class="cls-29" d="M110.82,138.18c-3.17.35-4.85-.71-4.74-4.2,0-2.82,1.43-3.65,4-3.51,3.05.14,5.7.95,5.77,4.48S113.06,138,110.82,138.18Z"/><path class="cls-30" d="M112.09,145.94c3.3-.35,5,1.25,5,4.62s-2.68,2.95-4.9,3.16c-3.23.32-4.62-1-4.62-4.29S109.15,145.48,112.09,145.94Z"/><path class="cls-31" d="M94.4,138.07c-2.47.37-4.13,0-4.18-3.14s1.55-4.62,4.62-4.48c2.66,0,4.62,1.08,4.78,4C99.9,138.57,96.9,138,94.4,138.07Z"/><path class="cls-32" d="M94.86,145.94c3.49.11,5.84.55,6.08,4,.27,3.83-2.31,3.74-5,3.85s-4.31-.58-4.4-3.78S92.74,145.78,94.86,145.94Z"/><path class="cls-25" d="M99,142.36c3.47-5.72,7.09-.46,11.31-.28C106.18,144.76,102.64,145.45,99,142.36Z"/><path class="cls-25" d="M95.23,142.73c-1.59.39-2.31.6-3,.74-2.45.46-5.08,3.05-7.13-.67-.51-.92-1.27-2.1,0-2.72,2.51-1.34,4.18,1.2,6.28,1.77C92.3,142.11,93.32,142.29,95.23,142.73Z"/><path class="cls-7" d="M79.07,122.55c-3.18.56-5.1,0-4.91-3.78.11-2.77.85-4.62,4-4.16,2.47.44,5.77-.11,5.7,4.23C83.78,122.53,81.87,123.11,79.07,122.55Z"/><path class="cls-7" d="M106.48,118.42c-1.14-3.67,1.24-3.88,3.81-3.81s5.58,0,5.65,4.2c0,3.3-1.75,3.9-4.43,3.84S105.58,122.9,106.48,118.42Z"/><path class="cls-7" d="M94.63,122.48c-2.84.44-4.61-.34-4.61-4,0-4,2.53-3.74,5.12-3.79,3.21,0,4.48,1.5,4.46,4.76C99.62,123.31,97.22,122.74,94.63,122.48Z"/><path class="cls-33" d="M77.41,79c5.56-.25,8,2.56,10.09,5.91,2.93,4.62,6,9.24,8.73,14,.94,1.61,3.41,3.92.62,5.4a5.15,5.15,0,0,1-7.14-1.42l-.18-.29C85.47,95,81.66,87.28,77.41,79Z"/><path class="cls-34" d="M110.33,104.31A76.24,76.24,0,0,1,97.26,79.89C102.44,87.55,107.88,95.15,110.33,104.31Z"/><polygon class="cls-8" points="63.3 111.55 143.85 117.24 141.11 47.9 122.59 15.69 82.23 14.65 73.92 43.05 55.8 65.95 58.23 92.1 63.3 111.55"/><polygon class="cls-8" points="63.51 116.71 144.54 121.88 140.97 191.72 63.7 188.29 61.84 151.74 63.51 116.71"/></g><path class="cls-1" d="M64.82,117.82l-.06,2.59A13.27,13.27,0,0,0,64.82,117.82Z"/><path class="cls-7" d="M64.76,120.41V155c.28,2.1.58,4.2.71,6.34.7,9.24,2.31,10.76,11.92,10.92s19.14-.46,28.67.79c11.64.62,22.38-1.66,31.46-9.45.07-.1.15-.19.21-.29a11.29,11.29,0,0,0,2.91-8.71c0-9.34.35-18.69.6-28.06l-.22-.08V112.23c-.12-12.63-.34-25.23-.58-37.84a68.12,68.12,0,0,0-.58-8.31c-1.25-8.56-2.31-9.79-10.94-10.09-4.18-.13-5.41-1.33-5.38-5.49,0-7-.58-14.08-1-21.12-.21-4.07.16-8.36-6-8.5s-10.5,2.7-11.19,8.22a149.4,149.4,0,0,0-1.18,19.83c0,5.13-2,6.56-6.74,6.26-9.74-.6-18.47,2.88-26.67,7.66a9.64,9.64,0,0,0-4.91,4.87l-1.12,50.1A13.27,13.27,0,0,1,64.76,120.41Z"/><path class="cls-25" d="M70.11,116.39c0-13.67.12-27.36,0-41,0-3.78,1-5.17,5.08-5.14,13.86.16,27.71,2,41.56,1.1,4.62-.27,4.36,2.77,4.43,5.87.49,20.89,1.09,41.78,1.43,62.7.12,6.76,1.94,13.46.44,20.39-.76,3.46-2.1,4.77-5.38,4.84-13.23.3-26.41.47-39.54-2-5-.92-7.21-3.16-6.75-8.12a3.5,3.5,0,0,1,3.54-.81,86.58,86.58,0,0,0,28.19,0c2.3-.44,4.61.83,6.92,1.22,6.58,1.09,9.63-2.31,6.93-8.29-1.57-3.64-3.07-6.65-.37-10.5,1.27-1.85,0-4.62-.53-6.93a18.33,18.33,0,0,1-.3-2.77,42.67,42.67,0,0,1,.3-6.39c.69-6.42-1.48-8.61-7.51-6.26-4.2,1.66-7.82,0-11.38,0-6.92.12-13.85.58-20.78-1.15C73.51,112.49,73.92,118.86,70.11,116.39Z"/><path class="cls-35" d="M126.19,163.18c.79-9.23-1.06-17.73-1.18-26.48-.23-18.74-.8-37.46-1.17-56.21-.26-11.75.16-12.31,11.77-17.18q1.66,44.26,1.18,88.42C136.72,159.26,133,161.73,126.19,163.18Z"/><path class="cls-18" d="M133,60.77a27,27,0,0,1-20.25,8c-12.08,0-24.13-.56-36.18-.93-1.64,0-4.06.33-4.45-1.59C71.64,63.78,74.46,63.64,76,63a56,56,0,0,1,20.5-4.08c3.41,0,6.25-.3,8,4.18s14.18,4.45,17.82.36C125.2,60.24,128.2,59.8,133,60.77Z"/><path class="cls-24" d="M70.11,123.08h2.18a32.85,32.85,0,0,1,.2,6.19c-.53,3.42-1.64.23-2.49,0C70.11,127.17,70.11,125.12,70.11,123.08Z"/><path class="cls-25" d="M71.52,139.75c1.32.21,3.14-.11,2.52,2.31-.46,1.64.42,4.41-3,3.83C71.22,143.79,71.36,141.78,71.52,139.75Z"/><path class="cls-26" d="M100.31,107.52c-7.06,1.32-14.57-1.2-22.23-1.31-4.46,0-6.35-2.63-6.72-6.93-.55-6.46,1.23-12.72,1.43-19.09A3.35,3.35,0,0,1,76,76.72a2.88,2.88,0,0,1,.59,0c11.73,0,23.46-.69,35.16.78,4.39.56,5.77,2.68,5.64,6.79-.19,5.54-.21,11.13,0,16.67.23,4.62-1.5,6.76-6.24,6.53C107.81,107.39,104.38,107.52,100.31,107.52Z"/><path class="cls-24" d="M81.66,125.3a17.81,17.81,0,0,1,11.68,1.2,5.89,5.89,0,0,0,6.12-.62c2.58-2.2,4.48-1.85,7.29,0s7.07.55,10.65.74v2.77c-4.48-.74-9.24-4.07-13.19,1.22-1.2,1.59-2-.12-3-.72-4.62-2.67-9.24-4.08-13,1.16-.62.85-1,1.52-1.5.23-2.17-5.1-7.16-2.31-12.15-4.46C77.69,126.32,80,126.73,81.66,125.3Z"/><path class="cls-27" d="M77.53,130.43c3.67,0,6.14.46,6.25,3.94s-2.31,3.74-5.12,3.84-4.76-.91-4.74-4.25S75.77,130.06,77.53,130.43Z"/><path class="cls-28" d="M79.35,153.53c-.88-.2-4,.91-4-3.23,0-3.32,1.23-4.45,4.46-4.36,2.86,0,5,.53,5.08,4C84.82,152.75,83.62,154.25,79.35,153.53Z"/><path class="cls-29" d="M110.82,138.18c-3.17.35-4.85-.71-4.74-4.2,0-2.82,1.43-3.65,4-3.51,3.05.14,5.7.95,5.77,4.48S113.06,138,110.82,138.18Z"/><path class="cls-30" d="M112.09,145.94c3.3-.35,5,1.25,5,4.62s-2.68,2.95-4.9,3.16c-3.23.32-4.62-1-4.62-4.29S109.15,145.48,112.09,145.94Z"/><path class="cls-31" d="M94.4,138.07c-2.47.37-4.13,0-4.18-3.14s1.55-4.62,4.62-4.48c2.66,0,4.62,1.08,4.78,4C99.9,138.57,96.9,138,94.4,138.07Z"/><path class="cls-32" d="M94.86,145.94c3.49.11,5.84.55,6.08,4,.27,3.83-2.31,3.74-5,3.85s-4.31-.58-4.4-3.78S92.74,145.78,94.86,145.94Z"/><path class="cls-25" d="M99,142.36c3.47-5.72,7.09-.46,11.31-.28C106.18,144.76,102.64,145.45,99,142.36Z"/><path class="cls-25" d="M95.23,142.73c-1.59.39-2.31.6-3,.74-2.45.46-5.08,3.05-7.13-.67-.51-.92-1.27-2.1,0-2.72,2.51-1.34,4.18,1.2,6.28,1.77C92.3,142.11,93.32,142.29,95.23,142.73Z"/><path class="cls-36" d="M79.07,122.55c-3.18.56-5.1,0-4.91-3.78.11-2.77.85-4.62,4-4.16,2.47.44,5.77-.11,5.7,4.23C83.78,122.53,81.87,123.11,79.07,122.55Z"/><path class="cls-36" d="M106.48,118.42c-1.14-3.67,1.24-3.88,3.81-3.81s5.58,0,5.65,4.2c0,3.3-1.75,3.9-4.43,3.84S105.58,122.9,106.48,118.42Z"/><path class="cls-37" d="M94.63,122.48c-2.84.44-4.61-.34-4.61-4,0-4,2.53-3.74,5.12-3.79,3.21,0,4.48,1.5,4.46,4.76C99.62,123.31,97.22,122.74,94.63,122.48Z"/><path class="cls-33" d="M77.41,79c5.56-.25,8,2.56,10.09,5.91,2.93,4.62,6,9.24,8.73,14,.94,1.61,3.41,3.92.62,5.4a5.15,5.15,0,0,1-7.14-1.42l-.18-.29C85.47,95,81.66,87.28,77.41,79Z"/><path class="cls-34" d="M110.33,104.31A76.24,76.24,0,0,1,97.26,79.89C102.44,87.55,107.88,95.15,110.33,104.31Z"/><path class="cls-1" d="M64.37,118.57l-.06,2.59A12.53,12.53,0,0,0,64.37,118.57Z"/><path class="cls-38" d="M64.31,121.16v34.63c.28,2.1.58,4.2.72,6.34.69,9.24,2.31,10.76,11.91,10.92s19.14-.46,28.68.79c11.63.62,22.38-1.66,31.45-9.45l.22-.29a11.33,11.33,0,0,0,2.91-8.71c0-9.34.34-18.69.6-28.06l-.22-.08V113c-.12-12.63-.34-25.23-.59-37.84a66.05,66.05,0,0,0-.58-8.31c-1.24-8.56-2.3-9.79-10.94-10.09-4.18-.13-5.4-1.33-5.38-5.49,0-7-.57-14.08-.94-21.12-.21-4.07.16-8.36-6-8.5s-10.5,2.7-11.2,8.22a149.39,149.39,0,0,0-1.17,19.83c0,5.13-2,6.56-6.75,6.26-9.74-.6-18.47,2.88-26.66,7.66a9.66,9.66,0,0,0-4.92,4.87l-1.12,50.1A12.53,12.53,0,0,1,64.31,121.16Z"/><path class="cls-39" d="M69.67,117.14c0-13.67.12-27.36,0-41,0-3.78,1-5.17,5.08-5.14,13.85.16,27.7,2,41.55,1.1,4.62-.27,4.37,2.77,4.44,5.87.48,20.89,1.08,41.78,1.43,62.7.11,6.76,1.94,13.46.44,20.39-.76,3.46-2.1,4.77-5.38,4.84-13.23.3-26.41.47-39.55-2-5-.92-7.2-3.16-6.74-8.12a3.48,3.48,0,0,1,3.53-.81,86.58,86.58,0,0,0,28.19,0c2.31-.44,4.62.83,6.93,1.22,6.58,1.09,9.62-2.31,6.92-8.29-1.57-3.65-3.07-6.65-.37-10.5,1.27-1.85,0-4.62-.53-6.93a18.33,18.33,0,0,1-.3-2.77,42.67,42.67,0,0,1,.3-6.39c.69-6.42-1.48-8.61-7.5-6.26-4.2,1.66-7.83,0-11.38,0-6.93.12-13.85.58-20.78-1.15C73.06,113.24,73.48,119.61,69.67,117.14Z"/><path class="cls-40" d="M125.75,163.93c.78-9.23-1.06-17.73-1.18-26.48-.23-18.74-.81-37.46-1.18-56.21-.25-11.75.16-12.31,11.78-17.18q1.65,44.26,1.17,88.42C136.27,160,132.53,162.48,125.75,163.93Z"/><path class="cls-41" d="M132.58,61.52a27,27,0,0,1-20.25,8c-12.07,0-24.12-.56-36.17-.93-1.64,0-4.07.33-4.46-1.59-.51-2.52,2.31-2.65,3.88-3.28a56.07,56.07,0,0,1,20.5-4.08c3.42,0,6.26-.3,8,4.18s14.17,4.45,17.82.36C124.75,61,127.76,60.55,132.58,61.52Z"/><path class="cls-42" d="M69.67,123.83h2.17a33.71,33.71,0,0,1,.21,6.19c-.53,3.42-1.64.23-2.5,0C69.67,127.92,69.67,125.87,69.67,123.83Z"/><path class="cls-39" d="M71.08,140.5c1.31.21,3.14-.11,2.51,2.31-.46,1.64.42,4.41-3,3.83C70.78,144.54,70.92,142.53,71.08,140.5Z"/><path class="cls-43" d="M99.87,108.27c-7.07,1.32-14.57-1.2-22.23-1.31-4.46,0-6.35-2.63-6.72-6.93-.56-6.46,1.22-12.72,1.43-19.09a3.34,3.34,0,0,1,3.22-3.47,2.92,2.92,0,0,1,.59,0c11.73,0,23.45-.69,35.16.78,4.38.56,5.77,2.68,5.63,6.79-.18,5.54-.21,11.13,0,16.67.23,4.62-1.5,6.76-6.23,6.53C107.37,108.13,103.93,108.27,99.87,108.27Z"/><path class="cls-42" d="M81.21,126.05a17.84,17.84,0,0,1,11.69,1.2,5.87,5.87,0,0,0,6.11-.62c2.59-2.2,4.48-1.85,7.3,0s7.06.55,10.64.74v2.77c-4.48-.74-9.23-4.07-13.18,1.22-1.2,1.59-2-.12-3-.72-4.61-2.67-9.23-4.08-13,1.16-.62.85-.94,1.52-1.5.23-2.17-5.1-7.15-2.31-12.14-4.46C77.24,127.07,79.51,127.48,81.21,126.05Z"/><path class="cls-44" d="M77.08,131.17c3.67,0,6.14.47,6.26,4S81,138.86,78.21,139s-4.75-.9-4.73-4.24S75.33,130.81,77.08,131.17Z"/><path class="cls-45" d="M78.9,154.28c-.87-.2-4,.9-4-3.23,0-3.32,1.22-4.45,4.45-4.36,2.87,0,5,.53,5.08,4C84.38,153.5,83.18,155,78.9,154.28Z"/><path class="cls-46" d="M110.37,138.93c-3.16.35-4.85-.71-4.73-4.2,0-2.82,1.43-3.65,4-3.51,3,.14,5.7.95,5.77,4.48S112.61,138.72,110.37,138.93Z"/><path class="cls-47" d="M111.64,146.69c3.3-.35,5,1.25,5,4.62s-2.68,2.95-4.89,3.16c-3.24.32-4.62-1-4.62-4.3S108.71,146.23,111.64,146.69Z"/><path class="cls-48" d="M94,138.82c-2.47.37-4.14,0-4.18-3.14s1.55-4.62,4.62-4.48c2.65,0,4.61,1.08,4.77,4C99.45,139.32,96.45,138.72,94,138.82Z"/><path class="cls-49" d="M94.42,146.69c3.48.11,5.84.55,6.07,4,.28,3.83-2.31,3.74-4.94,3.85s-4.32-.58-4.41-3.78S92.29,146.53,94.42,146.69Z"/><path class="cls-39" d="M98.6,143.11c3.46-5.72,7.09-.46,11.31-.28C105.73,145.51,102.2,146.2,98.6,143.11Z"/><path class="cls-39" d="M94.79,143.48c-1.59.39-2.31.6-3,.74-2.45.46-5.08,3.05-7.14-.67-.5-.92-1.27-2.1,0-2.72,2.52-1.34,4.18,1.2,6.28,1.77C91.86,142.86,92.87,143,94.79,143.48Z"/><path class="cls-50" d="M78.63,123.3c-3.19.56-5.1,0-4.92-3.78.12-2.77.85-4.62,4-4.16,2.47.44,5.77-.11,5.7,4.23C83.34,123.28,81.42,123.86,78.63,123.3Z"/><path class="cls-51" d="M106,119.17c-1.13-3.67,1.25-3.88,3.81-3.81s5.59,0,5.66,4.2c0,3.3-1.76,3.9-4.44,3.83S105.13,123.65,106,119.17Z"/><path class="cls-52" d="M94.19,123.23c-2.84.44-4.62-.34-4.62-4,0-4,2.54-3.74,5.13-3.79,3.2,0,4.47,1.5,4.45,4.76C99.17,124.06,96.77,123.49,94.19,123.23Z"/><path class="cls-53" d="M77,79.76c5.56-.25,8,2.56,10.08,5.91,2.94,4.62,6,9.24,8.73,14,1,1.61,3.42,3.92.62,5.4a5.15,5.15,0,0,1-7.14-1.42c-.06-.1-.12-.19-.17-.29C85,95.78,81.21,88,77,79.76Z"/><path class="cls-54" d="M109.89,105.06A76.24,76.24,0,0,1,96.82,80.64C102,88.3,107.44,95.9,109.89,105.06Z"/></g></g></g></svg>