<svg xmlns="http://www.w3.org/2000/svg" xmlns:xlink="http://www.w3.org/1999/xlink" viewBox="0 0 186.54 186.54"><defs><style>.cls-1{fill:none;}.cls-2{clip-path:url(#clip-path);}.cls-3{clip-path:url(#clip-path-2);}.cls-4{fill:#1d1d1d;}.cls-5{fill:#161616;}.cls-6{fill:#282828;}.cls-7{fill:#181818;}.cls-8{fill:#939393;}.cls-9{fill:#a6a6a6;}.cls-10{fill:#c8c8c8;}.cls-11{fill:#c7c7c7;}.cls-12{fill:#555;}.cls-13{fill:#fcfcfc;}.cls-14{fill:#fdfdfd;}.cls-15{fill:#cfcfcf;}.cls-16{fill:#bebebe;}.cls-17{fill:#d1d1d1;}.cls-18{fill:#636363;}.cls-19{fill:#e9e9e9;}.cls-20{fill:#eaeaea;}.cls-21{fill:#bfbfbf;}.cls-22{fill:#cdcdcd;}.cls-23{fill:#f8f8f8;}.cls-24{fill:#ccc;}.cls-25{fill:#bababa;}.cls-26{fill:#4c4c4c;}.cls-27{fill:#d0d0d0;}.cls-28{fill:#646464;}.cls-29{fill:#381a46;}.cls-30{fill:#cba92f;}.cls-31{fill:#cd1c41;}.cls-32{fill:#fdfcfc;}.cls-33{fill:#cc1c42;}.cls-34{fill:#cc1c41;}.cls-35{fill:#fcd826;}.cls-36{fill:#f9a2b3;}.cls-37{fill:#f9da32;}.cls-38{fill:#f71e40;}.cls-39{fill:#fad829;}.cls-40{fill:#cba833;}.cls-41{fill:#f9a2b2;}.cls-42{fill:#fbeea0;}.cls-43{fill:#fbeea7;}.cls-44{fill:#f8a4b3;}.cls-45{fill:#f6d72c;}.cls-46{fill:#fbeda9;}.cls-47{fill:#f0d43c;}.cls-48{fill:#f1a0b1;}.cls-49{fill:#9d253e;}.cls-50{fill:#fed924;}.cls-51{fill:#fe1c41;}.cls-52{fill:#fd1d41;}.cls-53{fill:#fcd926;}</style><clipPath id="clip-path"><circle class="cls-1" cx="93.27" cy="93.27" r="93.27"/></clipPath><clipPath id="clip-path-2"><path class="cls-1" d="M-136.69,922.27C129.78,779,278.79,266.16,251.16-30.06c0,0-24.29-304.21-63.8-529.35,3.78-66.05-45.93-136.25-63.74-201.94C76-936.83-31.5-1068.71-177.74-1170.46c-219.06-152.46-467.73-227.47-728-269-29.19-4.66-55.31-10.41-75.39-33-34.08-17.54-69.52-12.17-104.25-4.21-455.12,104.34-869.22,284.19-1171.57,658.31-70.29,87-140.64,178.79-162.52,294.84-17.69,43.28-35.76,86.39-53.07,129.73-45.61,115.9-123.27,222.36-104.22,357.43,3.59,25.62-7.46,45.91-32.44,56.84-17.07,48.54-12.73,97.57-3.5,146.75A1552.89,1552.89,0,0,0-2444.8,635c94.9,170.8,217.47,326.41,384.88,432.26,328.71,207.77,691.78,236.22,1064.36,169.68"/></clipPath></defs><g id="Layer_2" data-name="Layer 2"><g id="Layer_1-2" data-name="Layer 1"><g class="cls-2"><g class="cls-3"><path class="cls-4" d="M386.44,832.43C381.81,855.37-322.38,55.74-318.4,79.5"/><path class="cls-4" d="M61.76,1316.79c1.65,7.22,0,13.27-6.75,16.69-5.16,2.59-8.85,9.76-16.39,5.89-.24-2.94,1.06-4,3.68-5.36,11.65-5.57-372.73-577.18-378-588.62a58,58,0,0,0-15.45-20.1,54,54,0,0,0-28-13.27c-5.13-.59-8.55-2-10.5-5.9a18.21,18.21,0,0,0-9.52-8.4c-8.84-4.19-8.84-4.48-5.42-14.42-7.29,1.65-10-2.06-10.21-8.49a3.4,3.4,0,0,0-.7-2.24c-11.33-8.85-11.35-8.85-13.68-19.22-2.63-11.65-2.66-12.15-14.75-11.5a35.81,35.81,0,0,1-23.58-8.61c-11.8-9-23.59-18.31-35.91-26.54a15.57,15.57,0,0,1-6.4-9.9C-512.41,587-521,585-528.42,581.38a4.88,4.88,0,0,0-6.56,2.19,4.89,4.89,0,0,0-.51,2.35c-.42,5.48-3,5.89-7.58,5.1-5.31-.86-8.85.82-11.41,6.54-4,8.85-13.77,8.85-21.67,10.47-6.81,1.24-19.58-7.67-20.34-13.92a14.44,14.44,0,0,1,5.27-11,42.53,42.53,0,0,1,9.58-5.9c9.68-3.66,9.85-3.16,16.87-11a15.89,15.89,0,0,0-8.64,1.12c1.92-3.65,3.63-6.57,5-9.64s6.93-4.42,5.4-9.29c-2-6.25-4.07-12.65-9.05-17.13s-9-8.84-16.84-4.45c-6.57,3.8-2.56-5.45-5.89-6.28a3.86,3.86,0,0,1,2-5.1,5.29,5.29,0,0,1,.6-.21c6.22.45,5.07-4,5.13-7.72,3.27-7.9,9.32-14,13.77-21.17a579.19,579.19,0,0,0,28.16-54.46c5.3-11.08,3.21-23,4-34.61,1.32-19.7-4.84-37.27-14.75-53.48a121.72,121.72,0,0,0-55.37-46.91c-24.41-10.94-49.41-20.44-76.27-23.59a122,122,0,0,0-26.86-1.21c-11.79,1.18-23.85-1.56-35.85,0-5.49.74-9.17-2.56-11.8-7.1-15-25-35.38-45.47-56-65.81-2.09-2.07-5.21-4.16-3.92-7.4s4.63-2.36,7.32-2.54c30.6-2.06,57.25-14.74,82.55-30.9,12.21-7.72,23.17-17.36,35.38-24.79,14.39-8.64,21.94-20.64,22.53-37.33a224.87,224.87,0,0,0,0-27c-.89-10.43-3-20.64-10.79-28.48a19,19,0,0,1-4.57-7.69c-7.82-25.42-27.1-40.16-49-52.19a137.48,137.48,0,0,0-25.5-11,18,18,0,0,1-12.77-13.38c-4.83-15.84-9.64-31.61-20.64-44.94A93.36,93.36,0,0,0-835.28-115c-9.11-3.78-18.14-8.55-29-6.75-5.66.94-9.22-4.46-11-9.41a49.11,49.11,0,0,0-11-18c-3.78-3.9-4.42-15.4-1.56-19.35,2.27-3.09,5.36-2,8.16-.88a179.66,179.66,0,0,0,21.56,7.72c34.46,9.11,64.86,2.69,91.4-22.2a194.46,194.46,0,0,0,34.82-42,52.36,52.36,0,0,0,6.75-26.69,166.62,166.62,0,0,0-1.48-26.88c-2-13.24-9.2-24.36-16.12-35.38-4.34-6.9-9.17-13.54-14.19-20a8.89,8.89,0,0,1-2.47-6.73c.76-3.15,4.69-.26,5.89-3.39-2.8-2.95-6.9-1.53-10.17-2.8a35.82,35.82,0,0,1-12.15-13.62c-2.65-4.92-4.59-10.53-11.29-11.47a6.89,6.89,0,0,1-2.12-.71c-7.46-5.66-14.74-11.79-24.24-13.65a162.72,162.72,0,0,1-17.33-12c-13.59-9-28.63-14.92-43.37-22-5.9-2.95-11.8-5.4-16.37-10.32-1-4.57-3.83-5.9-8.13-4.25a7.6,7.6,0,0,1-6.52-2.09c-3.18-6.72-8.84-5.9-14.45-4.51a8.86,8.86,0,0,1-8.43-4c-1.21-4.72,2-5.46,5.22-5.9-3.42-10.26-12-7.28-19.4-7.46a5.88,5.88,0,0,1-5.66-3.48c-1-4.33,2.3-6.22,4.89-8.46a48.62,48.62,0,0,0,6.78-7.9c-2.47-.53-6.31,1.65-6.54-2.71a405.55,405.55,0,0,0,31.87-40.19c22.38-33.11,42.84-67.13,49.3-107.56a40.53,40.53,0,0,1,1.53-5.51c1.18-5.9,6.4-11.23,1.65-17.69a26.66,26.66,0,0,1,0-11.79c3.39-10.5,2.24-21.44,3-32.17a39.55,39.55,0,0,1,2.15-7.31,47.27,47.27,0,0,1,7.79-11.12q3.5-2.78,6.69-5.89c4-3.9,8-5.43,13.06-1.74,1.62,1.2,3.57,3.27,5.72,1.23a4.63,4.63,0,0,0,.21-5.42c-2.75-5.9.73-7.84,5.51-9.17a48.22,48.22,0,0,1,12.15-1.27c9.79-.2,19.6.53,29.48-1,4.34-.68,9.26-.32,10,5.57.44,3.75-5.9,8.08-10.47,6.64A17,17,0,0,0-791.8-722a9.89,9.89,0,0,1-7.72,2.53,77.41,77.41,0,0,1,17,.41c.8,0,1.92.39,2.42,0,7.72-7.19,15.63-1.79,23.59-.35,9.08,1.68,18.51-1.18,27.45,2.36a4.15,4.15,0,0,0,3.92-.74c10-8.46,22.46-4.45,33.67-6.75a1.42,1.42,0,0,1,.71,0,160.47,160.47,0,0,0,34.52,6.93c9.26,1,17.69-1.36,26.54-1.15,7,.18,13.77-3.24,20.9-3.45a3.45,3.45,0,0,0,3.77-2.51c.39-2.12-1.53-2.62-2.94-3.36a19.42,19.42,0,0,0-12-.79c-5.31.73-10.21-.53-11.59-6.46-2-8.46,1.83-12.47,9.73-10.56s13.74,6.55,20.87,8.85c7.88,2.68,15.69,5.9,23.35,8.46a131,131,0,0,0,47.18,7.17,49.1,49.1,0,0,0-18.05-10.65c-22.76-6.1-40.59-20.84-59.73-33.37a10.56,10.56,0,0,1-2.65-2.6c-1.48-1.94-3.69-4.13-1.65-6.51s4.06-.36,5.89.64a52.66,52.66,0,0,0,5.55,3.42,12.68,12.68,0,0,1,2,1.18c3.45,3.25,6.87,6.49,12,6.64a81.76,81.76,0,0,1,19.34,12.41,10,10,0,0,0,11.18,2,252.37,252.37,0,0,0,67.45,14.74,34.35,34.35,0,0,0,17.4-3c5.69.21,10.67-4.25,16.6-2.6,1,4,3.89,3,6.57,2.51a226.27,226.27,0,0,0,112.66-50.59,125.38,125.38,0,0,0,42.4-67.34c2.48-9.91,3.86-20.29,8.85-29.49,1.44-1.18,3.47-2,3.42-4.24-.24-10.21,2.21-20.64-2-30.52-1.06-5.9-2.59-11.79-.85-17.69,1.59-1.95,3.5-1.83,4.65,0,2.78,4.63,6.23,9.05,6.25,14.74,0,16,.68,31.84-5.63,47.18-2.56,6.31-2.94,13.71-4.83,20.63a90,90,0,0,1-14.07,31c-2.18,2.95-2.41,6.64-3.83,9.76A102.86,102.86,0,0,1-334-773.49c-7.7,2.56-13.33,8.31-19.9,12.62-2.95,1.85-2.3,3.77-.62,6.16s4.33,4.54,1.89,7.9c-2.13.8-3.6-.35-5.16-1.56-8.14-6.28-12-5.61-20.94,2.53a41.3,41.3,0,0,1-19.72,10.09c-15.42,2.94-30.13,9.28-46,10.11a57.12,57.12,0,0,0-17.48,3.89c-1.95.74-4.75,1.21-4.39,4s2.94,3,5,3.27h.82c10.79,1.42,12.3,3.48,10.2,14.07,5.61-3.22,12.51-4.16,16.46-10.15a4.33,4.33,0,0,1,5.89-1.2c5,2.94,9.91,1.47,15,.61,6.93-1.15,13.83-3.18,21.05-1.32a10.82,10.82,0,0,0,7.81-1.83c5.9-3.21,11.62-5.9,18.43-2.54,1.71.89,3.72,0,5.49-.94,7.63-3.71-21.14-5.9-14.75.15,2.95,3,4.87,3.42,8.35-.65,4.51-5.28,8.84-11.12,15.18-14.74,2.95-1.59,2.95-4.16,3.63-6.84,1.68-7,4.19-8.52,11-6.72,4.06,1.06,44,3.36,48.05,3.59,7.17.36,8.29,1.09,12,8a8,8,0,0,1,5.9-9.46,6.83,6.83,0,0,1,8.49,3c3.57,4.39,7.79,4.3,10.91,0,5-6.9,11.12-7.05,18.1-4.54a19.6,19.6,0,0,0,11.8,1.68c4.48-1.18,6.28,2.12,8.08,5.25,0,81,103.19,62.62,201.81,137.27C153-477.45,347.93-262.24,347.93-127.18,344-123.76,479.34,735.52,474.71,736.7a121.65,121.65,0,0,0-50.92,27.86"/><path class="cls-5" d="M-2055.59-1346.3c.89-51.31-1.89-102.67,1.62-153.94,2.95-5.45-3.33-10.91,0-16.36h488c1.09,3.27-1.45,4.92-3.19,6.78-6,6.4-10.7,14.06-17.51,19.78a5.91,5.91,0,0,0-6.68,5,5.82,5.82,0,0,0,.11,2.24,14.45,14.45,0,0,1-5.9,7.57,22.3,22.3,0,0,1-17.87,2.63,33.69,33.69,0,0,0-9.61-.65,36.21,36.21,0,0,1-14.74-2c-13.36-2.12-26.74-5.89-39.89,1a53.42,53.42,0,0,1-10.26,2.53c-17.07,3-23.35,15.07-15.69,30.64a191,191,0,0,0,43.28,56.78,518.7,518.7,0,0,0,43.76,35.62c2.15,1.59,4.63,3,5.63,5.89,0,2-1.48,2.63-3.13,3-6.31,0-9.67-5.28-14.47-8-1-.59-2.24-2.21-3.39-.73-.83,1,.17,2.56.32,3.89.24,2.12-.65,4.33.44,6.42a129.44,129.44,0,0,0,11.06,36.74,33.76,33.76,0,0,1,3,8.85c-1.56,2.94-2.36,5.48,2.62,5,3.78,2.12,4.1,6.84,7.2,9.49,4.15,6.34,8.31,12.68,15.09,16.63a150.16,150.16,0,0,0,65.93,41,259.46,259.46,0,0,0,33.58,7,66.07,66.07,0,0,0,23.38-.21c6.57,0,12.65-3.15,19.25-2.95,3.66,1.18,2.27,3.57,1.45,5.9-.65,1.83-1.24,3.89.62,5.25s3.77,0,5.1-1.18c5.39-5.13,12-5.31,18.81-7,12-2.95,24.41-4.66,36.09-8.84,1.79-.65,2.24-2,2.94-3.6q4.51-11.21,14.45-4.1a61.23,61.23,0,0,1,7.64,6c.76.76,1.41,2.06,2.33,2.21,9.31,1.59,15.33,8.46,22.46,13.59,3,2,5.13,1,6.61-2.06,3-6.4,7.72-7,14.27-5.16a93.18,93.18,0,0,0,37.3,2.56,40,40,0,0,1,22.26,3c5.16,2.33,8.52,1,11-3a26.22,26.22,0,0,1,15.22-11.56c5.89-1.82,6.78-8.84,11.79-12.17-7.9,5.89-16.87,5.89-26,5.89-7.63-.2-15.27,0-22.91,0-4.86,0-9.16-.61-11.79-5.51a9.11,9.11,0,0,0-6.84-4c-1.86-.35-4.45,0-5.37-1.56-5.27-8.17-11.79-5.07-18.6-2.77-3.45,1.18-7,0-10.53-.53-13.53-1.62-25,1.21-31.1,15-.86,1.92-2.21,3.31-4.42,3-5.4-1.12-7.29-5.45-8.35-10.05a6.46,6.46,0,0,1,3.69-8.36l.29-.1c5.4-2.6,2.48-9.05,4.25-13.74-3.95,4.15-7.73,6.1-12.12,1.21.35-5.9,2.27-10.21,9.35-9.38a21.17,21.17,0,0,1,4.1.62,437.85,437.85,0,0,0,57.73,0,25.69,25.69,0,0,1,6.54-.68c2.36.3,4.92,0,6.37,3.42-5,3.36-10.85,4-17.69,5.9,8.58-.38,15.54,1.12,20.46,7.58,1.15,1.53,3.57,2.94,5,2.06,5.9-4,14-1.59,19-7.46a11.07,11.07,0,0,1,4.75-3c5.89-2.24,13-4,5.66-12.5-1-1.15.32-3.66.68-5.51,2.53-4.63,7.1-7.76,9.46-12.56.53-1,1.45-2,1.33-3-.41-3.1,6.37-.71,3.77-5.31-4.21-7.55-2-19-13.53-22.08a17.16,17.16,0,0,1-7.61-8.49c-.85-3.25-.85-7.29-6.07-6.49a10.9,10.9,0,0,1-7.08-7.16c-.14-5.55-1-10.35-8.58-7.7a6.3,6.3,0,0,1-5.36-3.86c-1.27-7.34-5.34-10.41-11.8-8.85-9.73-2.41-16-11-25.41-14.09-1.74-.56-3-2.39-5.54-2-1.74,6.45.82,10,6.72,13.35a130.88,130.88,0,0,1,48.62,45.82c7.16,11.79,4,21-8.85,26a44.84,44.84,0,0,1-18.31,3.69,290.31,290.31,0,0,1-37.18,1.65c-5.6-.18-10-1.8-12.62-7.11-1.59-6.16,2.6-11,3.81-16.54a72.8,72.8,0,0,0,3.86-10.52c3-7.81,3.48-16.22,5.69-24.21,2.24-3,.74-6.13.24-9.26-.24-8-2.45-15.86-2-23.91a21.42,21.42,0,0,0-.88-10.11c-2.19-9.76-6.14-19-8.23-28.84-.56-3.18,4.3-8.4-3.39-8.84a244.9,244.9,0,0,0-47.91-53.07c-1.21-5.13-5.46-4.66-9.29-5a304.93,304.93,0,0,0-43.31-15.84A6.33,6.33,0,0,1-1455-1505c.82-4.68,4.42-3.65,7.43-3.42a33.48,33.48,0,0,0,10.52.47c0-3.33-5.89-4.71-3-8.84h452c.62,4.51-.94,8.84-.83,13.39a86.83,86.83,0,0,1-13.59,19.69,4.94,4.94,0,0,1-.76.18c-3.19.44-7.49-3.63-9.32.35s5.69,1.71,5.9,5.66a11.42,11.42,0,0,1-3.6,8.29c-7.81-.18-.65,5-2.48,7a47.53,47.53,0,0,1-1.77,7,146.76,146.76,0,0,0-7.78,35c-1.89,8-1,16-.71,24a12.38,12.38,0,0,1,.65,2.33,151.4,151.4,0,0,0,9.55,39.21,114.62,114.62,0,0,0,18,34.56,18.62,18.62,0,0,1,4.16,7c-1.1,4,.26,5.9,4.59,5.52a154.27,154.27,0,0,1,18.23,16.33c.44,4.31,3.42,4.69,6.84,4.48,3.56,1.62,7.57,2.6,9.37,6.67-1.56,3.95-6.07,1.47-9,4.33,7.52,2.24,10.47,7.7,12.29,14.74a10.88,10.88,0,0,0,9.35,9.08,10.41,10.41,0,0,0,11.06-6.42c2.77-5,6.63-4.69,8.58.76,1.38,3.81,2.8,5.9,7.13,5.9a6.79,6.79,0,0,1,7.52,6,6.66,6.66,0,0,1-.21,2.59c-.7,5.34,2.69,6.07,6.58,5.51a143.4,143.4,0,0,1,39.8,0,9.38,9.38,0,0,0,4.84-.41c1.62-.65,2.95-1.68,2.71-3.57s-1.71-2.12-2.95-2.3c-9.52-1.12-18.57-5.51-28.75-1.32-5.66,2.33-13,3.18-15.33-6.34-.62-2.42-4.3-3-6.84-4a41.19,41.19,0,0,1-10.4-4.66c-2.45-1.86-4.19-4.16.53-5.63,20.63,5.25,41.48,4.18,62.3.85a7.24,7.24,0,0,1,7.34,4.07c1.32,3.13-1.71,4-4.07,5.54,8.52-1.18,2.47-6.72,3.8-10a22.1,22.1,0,0,1,12.71-4.1c4.63.86,5.42,3.16,2.5,6.78a28.27,28.27,0,0,0-3.09,3.81c-.94,1.76-1.53,3.65.24,5.18s3.15.45,4.39-.7c6.31-5.9,12.32-5.07,19-.18a14.74,14.74,0,0,0,20.5-3.76c.12-.17.23-.34.34-.52,1.59-2.27,1.09-3.62-.32-5.89-5.34-8-4.1-10.47,5.57-11.8s10.73-2.94,10.35-12.76a13.61,13.61,0,0,1,1.15-7.2,8.84,8.84,0,0,0-2.15-11.64c-.45-3.72,2.32-5.9,4.06-8.61,7.23-11.21,15.78-21.64,19.7-34.73a154.09,154.09,0,0,0,10.35-54.4,144.59,144.59,0,0,0-13.15-66.63,17.2,17.2,0,0,1-2-7.32c3.45-9.08,3.16-8.84-5.07-15.62A51.67,51.67,0,0,1-775-1516.54h425.72c1.44,9.22-6.4,6.19-10.65,8.34,0,1.77,2.45,2.39,2.95,4.25,0,2.68-.82,5.89,2.95,7,6.81-1,6.81-1,14.42,5-2.07-7.51-2-13.73,6.39-16.12,7.43,1.8,9.32-5.25,13.57-8.52H-218.9c4.9,0,5.9,1,5.9,5.89q-.33,111.78-.15,223.55c116.73-68.08,1184.4,1528,1115.76,1575.79,0,8.26-593.36-74.74-699.39-483C137-452.92,86.53-354.38,66.09-402.7c-67-158.24-135.62-252-214.55-180.12-54,49.18-89.72-75.3-89.72-75.16-2.12,3.1,22.06-486.21,22.79-483.06,3.33,14-4.1,26.8-4,40.37,0,2.09-.35,5-2.95,5s-3.21-2.63-3.86-4.81a1.28,1.28,0,0,1-.15-.79c3-16.43-1.77-33.09,1.45-49.51a25.85,25.85,0,0,0,.91-8.84c-.59-3.78-1.53-6.93-6.57-6.25s-8.05-2.13-10.59-6.17c-4.69-7.48-8.31-8-15-2.33a28.85,28.85,0,0,1-12.56,7.32,4.91,4.91,0,0,0-3.93,2.65c-3.92,10.85-13,8.85-21.34,8.67a45.06,45.06,0,0,1-13.36-3.72c-3.15-1.15-4.89-4.68-1-5.57a10,10,0,0,0,8.84-8.84c.24-1.21,2.1-1.6,3.81-4-7.93,5-13.95,4.24-20.64-.42-5.9-4.09-13.77-1.91-20.79-1.35-1.8,0-2.39,1.86-2.95,3.48-2.27,5.6-14.74,13.62-20.37,13.23a7.52,7.52,0,0,1-6.87-6.07c-2.48-7.49-11.26-7.81-15.42-13.47-.59-.8-2.71-.33-3.86.41a30.26,30.26,0,0,1-17.37,3.6,9,9,0,0,0-7.54,4,14,14,0,0,1-17.4,4.3c-4.89-2.74-6.4-8.34-3.8-15.71,1.32-3.81,1.15-7.23-2.1-9.59-6.54-4.74-6.66-11.38-6.16-18.36a57.11,57.11,0,0,0,.94-9.76c-.32-3.45-1.29-6.67-5.42-7a73.39,73.39,0,0,1-14.51-2.24c-3.42-1-4.18,1.77-4.51,4.27-.79,6.2-3.95,6.46-8.84,2.75a16.54,16.54,0,0,1-9.67,12.76c-5.9,3-5,9.2-4.63,14.57s2.71,9.82,4.07,15.3c3.74-2.48,3.51-5.9,4.6-8.85,2.68-7,7.28-9.46,13.23-5.24,7.05,5,12.18,4.77,18.61-1.12,4.57-4.19,9.17-2,9.64,4.09.32,4.31,4.48,9.41,0,13a17,17,0,0,1-19.22,2.33c-5.28-3-8.61-2.1-11.09,3.36a19.31,19.31,0,0,1-4.07,5.1c-6.81,7-9.58,6.87-15.48-.74-1-1.3-1.94-2.62-2.95-3.86-6.22-7-10.2-14.74-7.34-24.33a8.12,8.12,0,0,1,.42-2.29c3.48-7.2-.51-13.42-3.87-18.73-4-6.37-9.73-11.61-9.08-20-5.19.33-4.1,6.37-8.16,6.75a18.74,18.74,0,0,1-6.46-.5c-13.24-2.21-23.41,2.16-30,14a33.62,33.62,0,0,0,.83,36.23,61,61,0,0,0,10.14,11.56,28.4,28.4,0,0,0,19.87,12.74c7.08.91,8.85-1.48,7.14-8.61,4.66-4.13,8.43-9.32,14.48-11.79,4.54,2.94,9.93,4.57,13.82,8.49,2.63,2.65,5.9,5.36,4.19,9.81s-5.43,3.66-9.67,3.72c2.42,0,4.36-.32,5.54.74,11.59,10.4,26.54,10.64,40.54,12.41,13,1.65,24.56,6.6,36.71,10.26,4.66,1.39,9.08,3.42,13.92,4.42s8.13,4.19,6.78,9.38-5.72,4.33-10,3.39c-13-3-26.33-2.3-39.57-2.71a40.57,40.57,0,0,1-14.35-2.42,15.81,15.81,0,0,0-16.87,1.5,6.73,6.73,0,0,1-2.53,0c-14.07-9.4-29.49-5.13-44.55-4.36-4.34.23-8.67,1.3-12.89-.59a4.91,4.91,0,0,1-3.48-4.16c0-2.56,1.68-3.86,3.84-4.69,4-1.5,8.07-.17,12.56-.67-4.78-1.27-10.74.17-11.18-7-4.57,2.47-8.11,6.57-13.56,7.6a4,4,0,0,0,2.33,1.36c2.62.91,5.57,1.86,5.63,5.13a6.12,6.12,0,0,1-5.9,5.9c-11.58,1.53-21.49,8-32.61,10.61a70.74,70.74,0,0,0-31.28,17c-6.6,5.89-15,9.31-20.84,16.68-3.16,4-7.05,6.9-8.85,12.21-1.89,6-7.55,10.11-11.79,14.12-5.22,4.84-9.85,10.94-16.93,13.77a7.58,7.58,0,0,0-4.84,9.56c.05.15.1.29.16.44a20.7,20.7,0,0,1,.56,3.24,8.85,8.85,0,0,1-7.09,10.3l-.08,0c-3.15.82-8.28-4.95-8.64-9.29-.76-8.7-3.54-11-12.35-10.05-1.62.17-3.19.7-4.84.82a5.54,5.54,0,0,1-5.89-3.48c-1.39-2.94.67-4.63,3-5.72a16.67,16.67,0,0,0,10.14-15.42c.47-6.9,5.89-10.82,11.11-14.47,3.72-2.66,7.29-4.93,5.9-10.38a4.42,4.42,0,0,1,1.21-4.6c7.66-5.07,8.17-15.13,15-21,4.8-4.16,4-5.49-2.24-6.75-4.1-.86-9.35-.39-10-6.26-.5-4.48,6.31-12.41,11.18-12.5,8.34-.14,16.18-1,22.76-6.9a7.53,7.53,0,0,1,6.34-.76,13.58,13.58,0,0,0,12-3.25c4.89-4,10.32-1.68,15.24,1,2.15,1.15.68,6.28,5.1,4.92,3.83-1.21,8.31-1.65,10.53-5.63s5.89-5.37,9.34-7.31c-.79-3.63-3.8-4.19-6.07-5.34-5-2.59-8.08-5-6.19-12.06,1.68-6.19-5.9-7.19-9.73-9.84-3.19-2.25-5.25.44-6.73,3.53-3.86,8-11.58,12.89-16.48,20.11a5.59,5.59,0,0,1-7.54,1.09c-12.48-7.31-27-7.66-40.46-11.79-12.26-3.72-25.35-5.9-38.15-8.43a5.53,5.53,0,0,0-5.31,1.59c-9.87,11.17-21.7,9-33.52,4.54-4.8-1.8-7.81-1.56-9.67,3.51-.74,2.09-1.71,4.18-4.36,4.24s-3.6-2-3.78-4.33c-.32-3.83-3.33-4.63-6.19-5.57a79.2,79.2,0,0,0-26.53-3.48,84.47,84.47,0,0,1-16.37,0c-13.83-2.3-24.35,3.83-33.58,12.71a20.65,20.65,0,0,1-14.74,5.51c-17.22.88-34.23-2.6-51.45-1.86-10.82.44-22,4-32.43,0s-20.94-2.36-31-5.66a18.79,18.79,0,0,0-9.73-.41,33.8,33.8,0,0,1-21.61-1.95,3.19,3.19,0,0,0-1.56-.41c-28.75,3.09-56.64-12.62-85.65-3.8-4.66,1.41-9.17-.36-13.51-2.13a14.5,14.5,0,0,0-15.39,1.77c-10.73,8.14-22.35,10.26-36,7.87a178.81,178.81,0,0,0-57,0c-8.7,1.3-16.22-3.74-24.41-5.13a3.75,3.75,0,0,1-2.6-2.94c-1.26-7.38-5.33-7.82-11-4.75-1.09.56-40.16-.92-41.28-1.42a23.11,23.11,0,0,0-14.89-1.38,77.54,77.54,0,0,0,29,3.21,60.41,60.41,0,0,1,10.59,0c3.12.36,6.22,1.3,6.48,5s-2.62,5.13-5.48,6.28a25.05,25.05,0,0,1-8.85,1.18c-10.52.24-20.63,0-31.28,3.84-9.17,3.33-20,1.12-30,1.68a8.45,8.45,0,0,1-4.6-1.57c-2.13-1.32-4.48-2.94-3.69-5.69s3.39-2.36,5.54-2.65c4.78-.74,9.79.74,15.16-1.47a11.78,11.78,0,0,0-13.71-4.16,50,50,0,0,0-11.79,5.66c-8.32,4.78-13.86,3.45-19.29-4.33-5-7.17-20.25-10.8-27.68-6.28-5.57,3.42-8,2-8.2-4.34,10.32-9.88,10.32-9.88,17.13-9-4-4.25-4-4.25-17.33-2.33.67,3.72,5.18,7.73-.18,11.2-9.14,0-18.31,1.39-25.74-6.63-3.45-3.66-8.85-.8-12,1.74-13.12,10.44-27.66,6.43-42,4.92-2.94-2.94,0-4.18,1.83-5.57s4.72-1.47,6-4.51a5.39,5.39,0,0,0-7.29-.41c-6.51,6.07-13.68,5.89-21.34,3.24a4.7,4.7,0,0,0-3.22.21c-.53.23-.88.62-1.35,1.83,5.28,1.94,10.82,1.59,16.21,2.15,3.19.35,6.67-.27,8.85,3.12-.56,13.59-2.54,15-15.69,12.12a57.75,57.75,0,0,1-14.12-3.92c-3.68-1.92-6.6-.3-9.64,2.09-6.9,5.43-10.47,4.72-15.36-2.39s-7-7.34-11.79.42c-4,6.54-10.68,8.43-17.43,9.23-13.18,1.53-26.71.61-39.21,6.36a2.53,2.53,0,0,1-1.62.24c-16.13-3-32,2.27-48,1.89a16.17,16.17,0,0,1-6.43-1c-4.07-1.88-5.37-4.48-1.56-8.55-15.31-.44-30.37.56-45.47-.2-5.54-.3-10.52-3-15.6-3.75-14.5-2.3-26.71-11.79-42.25-11.29-43,1.42-86.12,2.36-129.22,2-17.46,0-34.79-2.94-52.28-1.79a33.71,33.71,0,0,0-6.51,0c-16.19,4.33-29.16-1.07-40.63-12.33-2.51-2.47-4.87-4-3.39-8,4.66-12.44-1.57-23-7.11-33-4.69-8.52-11.2-16-14.39-25.44-1.09-3.22-3.21-6.43-6.66-6.52-4.07,0-4.42,4.13-5.54,7.14-.39,1,.14-.27-.21.76-.88,2.57-1.53,6.08-4.72,5.9s-3.3-4-3.33-6.55c-.15-11.17,0-22.34,0-33.52C-2050.9-1310-2050.61-1328.38-2055.59-1346.3Z"/></g><path class="cls-6" d="M88.61,400.91c2.15-7.31-.77-13.5-8.38-17.07a6.34,6.34,0,0,1-3.69-4.23c-3.24-10.08-6.6-20.12-10-30.15-.5-1.49-.27-1.79,1.31-1.7,8.16.44,13.86-4.45,14.43-12.61.73-10.51,1.23-21,1.81-31.55.51-9,1-18,1.47-27,.05-.95.63-1.22,1.27-1.56a84.76,84.76,0,0,0,9.73-5.74c-1.77-1.13-2.9-3.27-5.32-3.37-2.43.69-4.44,2.23-6.65,3.36-8.09,4.14-16.38,7.71-25.34,9.5-2,.4-2.18.26-2.32-1.81-.27-4-.31-8-.84-12-.12-1-.08-2-1.48-2.08-1,.4-1.16,1.31-1.24,2.22-.33,4-.8,7.92-1.09,11.89.29,2.56-.37,5.06-.51,7.59-.06,1.1-.14,2.19-.11,3.28.09,2.72-.33,3.06-3.07,2.5-4.69-.77-9.38-1.54-14.09-2.23-1.46-.21-2-.78-1.71-2.3.39-1.78.58-3.61.86-5.41,1-6.2-2.42-11.34-8.59-12.63-4.83-1-9.73-1.62-14.61-2.41-15.52-2.52-31-4.95-46.57-7.46-4.42-.72-8.23,0-11.3,3.49a11.22,11.22,0,0,0-2.65,6.11c-.26,1.81-.5,3.63-.89,5.41-.14.65-.2,1.4-1.17,1.32-1.43,0-1.79-.63-1.33-2A93.72,93.72,0,0,1-50,262.74a112.94,112.94,0,0,1,4.92-10.37c.14-.27.31-.53.43-.8.38-.84.88-1.78-.21-2.4s-1.72.23-2.24,1c-1.43,2-2.78,4.14-4,6.31-.15.27-.27.55-.44.8a86.45,86.45,0,0,0-4.66,8.7c-.9,2-1.09,2-2.63.59a128,128,0,0,1-21.46-25.31c-2-3.14-3.81-6.39-5.59-9.65-.86-1.58-.73-1.75,1.09-2,2.59-.39,5.14-1,7.69-1.61a54.92,54.92,0,0,0,18.65-8.47,6.17,6.17,0,0,0,.74-.52c1.66-1.21,1.78-1.24,3.09.4a90.38,90.38,0,0,0,20.76,19.09c14.28,9.51,30.21,14.2,47.13,15.87a86.07,86.07,0,0,0,16,.23C44.15,253.27,58,249,70.49,240.81c1.93-1.26,3.64-2.85,5.65-4,1.36-.44,1,.77,1.14,1.3A64.73,64.73,0,0,0,83,253.29a53.58,53.58,0,0,0,3.46,6c.43.66.81,1.38,1.71,1.5,1.32-.26,1.73.75,2.32,1.58,1.06,1.52,1.74,3.33,3.33,4.48.9.65,1.72,1.52,2.92.85s1-1.69.63-2.73c-.2-.55.16-1.08,0-1.63a59.19,59.19,0,0,1-8.74-12.65,60.32,60.32,0,0,1-6-17,10.06,10.06,0,0,1-.1-2.51c-.08-.55-.54-.74-.93-1-.8-.52-1.16-1.15-.59-2.09.34-.57.56-1.22-.29-1.63-1.24.18-2,1.11-2.84,1.89A78.8,78.8,0,0,1,43.8,246.7a90.12,90.12,0,0,1-39.15,1.06c-3.16-.57-6.32-1.16-8.76-1.55,9,1.86,15,1.35,24.3.33C39.7,244.4,57.24,237.36,72,224c1-.89,1.68-2.43,3-2.58s2,1.53,3.16,2.24A14.26,14.26,0,0,1,81,225.48c.47,1.88.7,2,2.29.92,1.35-.92,2.74-1.74,4.16-2.53a3,3,0,0,0,1.92-2.43c-.66-2.57-1.67-5.05-1.87-7.76a39.2,39.2,0,0,1,5.83-23.27c.8-1.33,1.2-3,2.62-3.87,2.27-2.54,4.5-5.08,7.65-6.65,4.53-2.25,8.72-1,11.07,3.49a14.69,14.69,0,0,1,1.65,5.92,35.46,35.46,0,0,0,.48,5.63c.8,1.91.83,2,2.59,1.15.92-.43,2.13.23,2.84-.82-.94-.35-.91-1.12-.91-1.94a27.05,27.05,0,0,0-2-11.06c-1.83-4.13-4.61-7.16-9.25-8-1-.19-1.26-.64-1.17-1.62a70.21,70.21,0,0,0,.12-10.05,18.34,18.34,0,0,1,.9-5q7.46-33.61,15-67.23c.18-.8.41-1.59.7-2.69a39.06,39.06,0,0,1,1.9,5.8c.72,2.46,1.66,2.87,4,1.73,1.7-.81,3.37-1.71,5.09-2.48s2-1.71,1.46-3.36A26.22,26.22,0,0,0,129,76c-.33-.25-1-.32-.74-1.25,2.08,1.16,4.1,2.31,6.16,3.4,2.42,1.29,4.85,2.55,7.31,3.76,1.8.88,2.65.54,3.46-1.29a31.41,31.41,0,0,0,3-9.93,10.32,10.32,0,0,0-.22-3.63c-.61-2.3-1.36-2.93-3.74-3.29-2.54-.38-5.1-.25-8-.42,2.45-2.09,4.6-4,6.88-5.8a3.1,3.1,0,0,0,1.13-4.11,14.73,14.73,0,0,0-7.77-8.33,2.45,2.45,0,0,0-3.45,1c-1.62,2.43-3.31,4.81-5,7.23-.66-.35-.32-.89-.33-1.3a29.25,29.25,0,0,0-2-11.62c-.69-1.59-1.58-2.23-3.41-1.75-3.18.82-6.43,1.37-9.64,2.09-2,.44-2.43,1.22-1.85,3.13a57.6,57.6,0,0,1,2.09,10c-.7-.21-.73-.83-1-1.25-1-1.55-1.82-3.17-2.88-4.65-2.4-3.35-2.66-3.37-6.17-1.39-1.7,1-3.41,1.9-5.11,2.84-2.45,1.35-2.61,2-1.25,4.48.64,1.18,1.22,2.39,1.94,3.52s.52,1.47-.75,1.76C91.59,60.55,85.67,62,79.75,63.4q-31.65,7.53-63.3,15a20.74,20.74,0,0,1-3.62.33c-25.38,1.3-46.82,11.11-64,29.85a81.88,81.88,0,0,0-18.48,33.06c-.19.64-.39,1.28-.63,2.06-1.06-.8-2-1.63-3-2.31-7.7-5.08-16.65-3.82-22.64,3.24a1.55,1.55,0,0,1-2.25.45c-16.86-7.65-33.77-15.18-50.59-22.94-4.4-2-8.64-4-13.62-2.58a24.78,24.78,0,0,0-13.33,9.75,50,50,0,0,0-9.7,36.89,23.83,23.83,0,0,0,6.07,13.83,14.05,14.05,0,0,0,10,4.65c10.29.37,20.52,1.52,30.79,2.27,10.63.77,21.25,1.73,31.88,2.51,1.84.14,2.64.57,2.86,2.65,3.05,28.48,15.37,52.55,35,73.08,1.39,1.45,2.84,2.85,4.31,4.22s2.9,2.56,4.53,4c-.83.39-1.38,0-1.93,0A5.19,5.19,0,0,0-68,278.11c-.6,3.73-1.18,7.46-1.79,11.18A5,5,0,0,0-68,294.36c.91.69.81,1.24.54,2.13-5.27,17.24-10.26,34.57-15.19,51.91q-4.86,17.14-9.6,34.31a3.24,3.24,0,0,1-1.82,2.3,27,27,0,0,0-7.2,5.26c-5.4,5.54-6.16,14.69.36,21.59A3.05,3.05,0,0,0-99.29,414a17.21,17.21,0,0,0,9.68,2.8c7.9.19,15.8.27,23.69-.17a91.45,91.45,0,0,0,14.81-2c5.54-1.24,10.17-3.95,13.36-8.81,4.41-6.12,6.62-13.11,8-20.42a12.88,12.88,0,0,1,2.74-6,145.31,145.31,0,0,0,12.44-18.25c1.09-1.88,2.2-2.84,4.47-2.32a16.52,16.52,0,0,0,4.92.24,4.54,4.54,0,0,1,4.35,2.08,241.67,241.67,0,0,1,15,24.46c3.06,5.53,5.59,11.36,9,16.72,5.62,7.23,12.83,11.3,22.13,11.65,3.84.14,7.69.07,11.48-.12,6.9-.35,13.84-1,20.46-3.28,3.88-1.36,7.59-3,10.26-6.34A4,4,0,0,0,88.61,400.91Z"/><path class="cls-7" d="M4.26,216.35c-3,1.12-6,.47-9,.33a87.39,87.39,0,0,1-13.17-1.6c-9.16-1.84-18-4.57-26.15-9.22a63.3,63.3,0,0,1-14.8-11.7c-.51-.54-1.19-1.16-1.89-.78s-.33,1.31,0,1.94a55.5,55.5,0,0,0,12.25,17.42c1.78,1.65,3.56,3.3,5.43,4.85a55.2,55.2,0,0,0,12.86,7.76,97,97,0,0,0,23.17,6.76,91.55,91.55,0,0,0,26.18.64,72.28,72.28,0,0,0,23.23-6.45c.83-.4,2.31-.09,2.35-1.32,0-1-1.42-.88-2.1-1.45-3.14-2.62-2.93-5.62.27-8.05,1-.77-.51-2.18,1.2-2.4.39,0,.73.47.8.86.4,2,1.84,1.61,3.18,1.46.65-.07,1.51-.4,1.9-.12s.12,1.28-.13,1.84c-.74,1.64.17,2.71,1.21,3.65s1.9-.06,2.71-.62a72.14,72.14,0,0,0,13.43-12.21,37,37,0,0,0,4.67-6.5c.93-1.77.74-4,1.34-6a47.62,47.62,0,0,1,6.46-14.17c.8-1.14.6-2.46.79-3.7a57.19,57.19,0,0,0,.26-16c-.86-7-2.2-13.88-5.63-20.38-.53.78-.11,1.43-.07,2a83.87,83.87,0,0,1,.2,11.86,68.21,68.21,0,0,1-1.31,8.24,55.69,55.69,0,0,1-4.13,13.13c-2.44,5.15-5.11,10.15-9,14.45-1.71,1.88-3.45,3.73-5.16,5.61a1.94,1.94,0,0,1-2.28.67h0c.51.69.29,1.12-.35,1.66a61.84,61.84,0,0,1-11.86,8.06c-1.08.55-2.48,1-.85,2.54.47.44-.7,3.82-1.36,3.91-1.34.19-1.86,1.29-2.68,2.06-.38.35-.73,1-1.34.4s-.17-1,.2-1.44.83-.9,1.19-1.39a1.26,1.26,0,0,0-.16-1.81c-.72-.72-1,0-1.42.42s-.84.71-1.23,1.09c-.9.89-1.73,1.5-1.9-.46-.05-.6-.36-.51-.74-.42-.76.19-1.56.29-2.3.55-.9.32-.94-.33-1.12-.86-1-.13-1.33.71-1.8,1.29a14.83,14.83,0,0,1-19.08,4.11C5.79,216.52,5.13,216,4.26,216.35Z"/><path class="cls-8" d="M-.79,102.63c-13.14,1.05-25.18,5-35.26,13.82-8.13,7.12-12.65,16.24-14.17,26.89-.2,1.46.07,2.69,1.48,3.41s2.59.35,3.74-.8a111.14,111.14,0,0,1,31.87-22.64,90,90,0,0,1,40-8.61h1.46a2.76,2.76,0,0,0,2.9-2.29,2.72,2.72,0,0,0-1.67-3.28,58.92,58.92,0,0,0-15.47-5.42A55.3,55.3,0,0,0-.79,102.63Z"/><path class="cls-9" d="M92.5,145.64c3.22,3.49,7,6.4,10.43,9.64.22.2.46.39.69.59,2.21,1.93,2.21,1.93,2.87-1.05q1.89-8.64,3.78-17.28c.13-.59.19-1.2.27-1.8.8-4.33-.14-8.55-.63-12.84-.55-4.85-1.56-9.59-2.38-14.38a8,8,0,0,0-1.22-3.19c-.85-.22-.92.5-1,1a3.42,3.42,0,0,1-1.67,2.46,30.06,30.06,0,0,1-10.55,5.11c-.78.21-1.74.11-2.16,1.08.18,3.51.23,7,.74,10.5a41.74,41.74,0,0,1,.38,7.06c-.09,3.87.3,7.75-.14,11.63A2.48,2.48,0,0,0,92.5,145.64Z"/><path class="cls-10" d="M103,213.29a53.05,53.05,0,0,0,5-2.94,2.32,2.32,0,0,0,.93-1.29c2.11-4.54,4-9.22,8.1-12.49.56-.45,0-1.15.28-1.69,0-3.47-.1-6.91-1.34-10.23-2.42-6.43-7.58-8.32-13.51-4.89a20.84,20.84,0,0,0-6.9,6.34c-2.33,5.08-2.29,10.38-1.46,15.74.56,3.64,1.79,7,4.63,9.49C99.94,212.39,101.12,213.71,103,213.29Z"/><path class="cls-11" d="M102.5,175.08c-5.69-3.54-10.65-1.79-14.85,2.26C78.07,186.57,73.9,198,75.47,211.21c.65,5.38,3.24,9.55,9.28,10.88-3.46-9-2.35-17.8.87-26.45S93.73,179.45,102.5,175.08Z"/><path class="cls-12" d="M92.5,145.64c.93-8.27.37-16.51-.4-24.76a51.82,51.82,0,0,0-.76-6.33,1.82,1.82,0,0,0-.41-2.57c-.35-.09-.56.11-.75.36-.44.56-.14,1.57-1,1.83a6.24,6.24,0,0,1-3.06.18c-1.91-.36-3.79-.86-5.72-1.09-.9-.11-1.19-.72-1.27-1.52a28.87,28.87,0,0,0-.27-3.08c-.19-.85-.29-1.88-1.59-1.78-.68.92-.33,1.89-.17,2.86a98.91,98.91,0,0,1,1.07,15.18c0,2-.27,4-.23,6a3.94,3.94,0,0,0,.49,2.28c3,2.76,6,5.58,9.14,8.27C89.2,142.85,90.54,144.61,92.5,145.64Z"/><path class="cls-13" d="M-36.9,101.74A67.53,67.53,0,0,1-12,91.83c13.13-2.33,26-.92,38.6,3,1.1.33,2.19.71,3.29,1.06.05,0,.12,0,.43-.13A98.3,98.3,0,0,1,22.93,89c-2.55-2.79-5.67-3.58-9.22-4-14.94-1.63-28.63,2-41.43,9.54a74.79,74.79,0,0,0-9.92,6.81C-37.61,102-37.33,102-36.9,101.74Z"/><path class="cls-9" d="M78.42,133.17a82.87,82.87,0,0,0-.08-18.56c-.19-1.69-.41-3.37-.62-5.06-1.33.54-.41,1.84-1,2.81-3-1-6-2.15-8.94-3.42-.94-.4-1.88-.84-2.83-1.24a4.31,4.31,0,0,1-2.93-3c-.11-.48-.3-1.8-1.35-.58a7.9,7.9,0,0,0,0,2.91,46.34,46.34,0,0,1,1,8.7,5.44,5.44,0,0,0,.85,2.94c1.36,2.13,3.48,3.47,5.3,5.12C71.34,127,74.72,130.25,78.42,133.17Z"/><path class="cls-10" d="M103,213.29c-5.84-2.49-7.78-7.48-8.49-13.25a36.24,36.24,0,0,1,.67-11.42c.16-.83.25-1.68.37-2.52-4.36,5.15-6.77,11.2-8.1,17.73-1.25,6.1-1.23,12.11,1.62,17.85.22,0,.5.08.67,0C94.2,218.88,98.75,216.3,103,213.29Z"/><path class="cls-8" d="M53.28,197.18a9,9,0,0,0,2.95-11.09,8.82,8.82,0,0,0-10.9-4.64,9,9,0,0,0-5.79,10,8.86,8.86,0,0,0,9.13,7.1l1.1,0a3.31,3.31,0,0,0,2.81-1c.24-.14.47-.29.7-.44Z"/><path class="cls-12" d="M62.55,118.69a59.05,59.05,0,0,0-1.16-12.22,19.78,19.78,0,0,1-.26-2.68c.95-1.71.13-3.16-.67-4.6-1.34-.63-1.12.51-1.09,1.1.06,1.15.25,2.3.36,3.45.08.79-.2,1-.93.77a6.69,6.69,0,0,1-1.54-.53c-5.74-3.43-11.62-6.65-17.11-10.44-4.09-2.81-8.59-5.05-12.27-8.43.1-.87,1.5-.63,1.27-1.59-.11-.44-.64-.51-1.07-.58-1.49.25-3.16-.1-4.25,1.37,3.4,3.09,6.79,6.19,10.2,9.26q13.42,12,26.87,24.05A3.54,3.54,0,0,0,62.55,118.69Z"/><path class="cls-14" d="M77.57,138.08A72.87,72.87,0,0,1,84,175.81a26.14,26.14,0,0,1,7.06-4.8c.69-.28.55-.86.55-1.39A78,78,0,0,0,89,149.05a2.79,2.79,0,0,0-.6-1.3C84.9,144.59,81.38,141.47,77.57,138.08Z"/><path class="cls-12" d="M106,105.35a129.6,129.6,0,0,1,2.94,15.36c.67,5,1.36,10,1.64,15,2.21-8.53,3.95-17.15,5.87-25.74a54.17,54.17,0,0,0-1-11.78c-.16-.91-.75-1.67-.77-2.61a1.5,1.5,0,0,0-.26-.52c-1.07-.42-1,.49-1.17,1.05a11.43,11.43,0,0,1-.56,2.85,21.74,21.74,0,0,1-2.39,3.21,12.72,12.72,0,0,1-2.75,2.85,10.06,10.06,0,0,1-1.1-3.2,15.37,15.37,0,0,0-.85-3c-.24-.58-.26-1.56-1.07-1.46s-.56,1.06-.67,1.68a21.59,21.59,0,0,0,1.09,4.69C105.13,104.39,105.24,105.08,106,105.35Z"/><path class="cls-15" d="M122.28,61.05c1.36-5.7,1.82-11.25.37-16.87-.29-1.12-.8-1.47-1.92-1.17-1.75.46-4.07.29-5.16,1.38s.37,3.23.6,4.92a73.89,73.89,0,0,1,.85,7.42,1.86,1.86,0,0,0,1.15,1.83C119.52,59.25,120.77,60.12,122.28,61.05Z"/><path class="cls-10" d="M95,167.83c-.43,1.61.15,2.17,1.82,2,2.33-.2,4.39.87,6.44,1.77,1.17.51,1.86.7,1.79-1-.1-2.31,0-4.62,0-6.93a1.93,1.93,0,0,0-.63-1.64c-2.31-2-4.39-4.19-6.86-6-1.5.72-1.37,2.18-1.5,3.47C95.83,162.32,95.46,165.08,95,167.83Z"/><path class="cls-16" d="M23.83,84.31l4.52-.82c2.46.31,4.76-.5,7.08-1.07,4.89-1.2,9.81-2.27,14.69-3.53a5.41,5.41,0,0,0,2.05-.72c.7-1.86-.62-2.67-1.83-3.55l-22,5.14c-2.41.56-4.8,1.15-7.68,1.85Z"/><path class="cls-17" d="M128.44,69.9a117.52,117.52,0,0,0,12.74,7.26c.6.3,1,.25,1.28-.45a21.34,21.34,0,0,0,1.7-7.6c0-1-.42-1.42-1.38-1.49a67.68,67.68,0,0,0-11.3.15C130.17,67.89,129.47,69,128.44,69.9Z"/><path class="cls-18" d="M123.44,78a13.08,13.08,0,0,0-3.24-13c-2.16-1.3-4.38-2.33-7-1.72a1,1,0,0,0-.35.45,2.22,2.22,0,0,0,.39,1.73,59.42,59.42,0,0,1,7.07,18.84,1.46,1.46,0,0,0,.23.49.72.72,0,0,0,.75.33C122.47,82.9,122.75,80.39,123.44,78Z"/><path class="cls-15" d="M125.84,64.25a6.26,6.26,0,0,0,4.86-1.6c2.61-2.45,5.43-4.68,8.21-6.94,1.09-.88,1.37-1.66.47-2.86s-1.79-2.83-3.18-3.13c-1.74-.38-1.94,1.78-2.73,2.83-2.37,3.16-4.54,6.47-6.78,9.73A3,3,0,0,0,125.84,64.25Z"/><path class="cls-9" d="M121.2,85.08l-.33-.39c-1.14,0-1.24,1-1.56,1.73a67.14,67.14,0,0,1-3.57,7.52,3.55,3.55,0,0,1-1.53,1.47q1.1,7.31,2.2,14.6,2.52-11.24,5.06-22.46C121.39,86.72,122,85.83,121.2,85.08Z"/><path class="cls-16" d="M103.49,61.94l-15.2,3.6A18.26,18.26,0,0,0,91.12,69a1.37,1.37,0,0,0,.57,0c3.45-.79,6.87-1.67,10.32-2.45a4.23,4.23,0,0,0,2.46-1.1C105.3,64,104.32,63,103.49,61.94Z"/><path class="cls-19" d="M91,68.63c-.58-1.32-1-2.79-2.72-3.09L76,68.47c-1.2,1.54.3,2.4.88,3.49a1.55,1.55,0,0,0,.55.22c1.4.31,2.64-.4,3.9-.75,2.63-.72,5.38-.93,8-1.84A3,3,0,0,0,91,68.63Z"/><path class="cls-20" d="M50.34,74.62c.29,1.24,1.3,2,1.95,3a.72.72,0,0,0,.51.66C56.85,77,61.18,76.65,65.14,75a1.2,1.2,0,0,0,.39-.45c-.28-2.24-1.19-3-3.23-2.79Z"/><path class="cls-21" d="M62.3,71.72c1.9,0,2.18,1.72,3.11,2.76a1.51,1.51,0,0,0,1.67.37c2.73-.57,5.44-1.25,8.16-1.88a2,2,0,0,0,1.64-1.28c.45-1.28-1.4-1.92-.88-3.22Z"/><path class="cls-22" d="M104,57.56c1.38-.26,2.74-.58,4.13-.77.94-.12.93-.54.57-1.21s-.66-1.3-1-1.92c-3-4.84-1.5-4.21-6.64-1.52-.5.26-.79.56-.47,1.14l2.21,4C103.09,57.82,103.56,57.78,104,57.56Z"/><path class="cls-23" d="M95,167.83c1.31-2.4,1.37-5.09,1.7-7.7a11.06,11.06,0,0,1,.86-4.06l-4.27-4c.5,3.5.93,6.55,1.37,9.6a22.71,22.71,0,0,1,.31,5.14Z"/><path class="cls-20" d="M103.49,61.94c-.56,1.28,1.25,1.93.85,3.17l.22.24a1.18,1.18,0,0,0,.68.23c2.31-.33,4.6-.81,6.92-1.12.44-.06.69-.46.88-.85a.19.19,0,0,0,.12-.14,3.13,3.13,0,0,0-2.37-2.71C108.26,60.52,105.88,61.28,103.49,61.94Z"/><path class="cls-24" d="M127.14,79.78c1.39,3.71,2.72,7,3.64,10.32.19.67.64.79,1.08.42.63-.54,2.31-.25,1.79-1.71A20,20,0,0,0,127.14,79.78Z"/><path class="cls-25" d="M110.79,60.76c.95.77,1.22,2.12,2.37,2.71a42.32,42.32,0,0,1,7,1.55A13,13,0,0,0,110.79,60.76Z"/><path class="cls-26" d="M121.2,85.08l.27,2.47a47.94,47.94,0,0,0,2-9.55c-1.25.34-.8,1.58-.91,2.27C122.26,81.94,121,83.31,121.2,85.08Z"/><path class="cls-10" d="M95,166.77a9.87,9.87,0,0,0-.31-5.14Z"/><path class="cls-27" d="M91,68.63c-2.59.53-5.18,1-7.76,1.59-2,.45-4,1-5.92,1.55-.46.9,0,1.66.39,2.4a130.77,130.77,0,0,1,11.11,31c.43,1.76.76,3.55,1.2,5.32.14.59.19,1.21.76,1.59.18.84.37,1.68.55,2.52,1.58.54,3-.22,4.37-.73a32.89,32.89,0,0,0,9.62-5.45c1.15-1,.28-2.05.63-3l-1.59-6.52c-.85-7.72-4.35-14.54-7.47-21.46a64.51,64.51,0,0,0-3.63-6.94c-.47-.77-.87-1.62-1.91-1.79A.82.82,0,0,1,91,68.63Z"/><path class="cls-28" d="M90.79,112a77,77,0,0,0-2.44-11.76,130.47,130.47,0,0,0-11-28.5l-.45-.08L65.41,74.48l-.09.15c-.48.85.05,1.55.41,2.21a114.49,114.49,0,0,1,9.8,25.71c.23.89.23,1.83.54,2.69.23.64.22,1.51,1.2,1.61,1.44,1.14.91,2.8,1,4.25.25,2.7.19,2.6,2.93,3,2.3.29,4.48,1.22,6.88,1.08,1.7-.09,2.88-.33,2.43-2.44C90.51,112.5,90.71,112.25,90.79,112Z"/><path class="cls-27" d="M77.27,106.85c-1-3-1.54-6.21-2.43-9.29A109.28,109.28,0,0,0,66.61,77c-.42-.79-.86-1.58-1.29-2.38A31.66,31.66,0,0,0,59,76.09c-1.66.56-3.49.3-5.09,1.19a2.86,2.86,0,0,0-1.15.79c-.71.76-.23,1.51.13,2.17a71.93,71.93,0,0,1,6.2,16.87c.18.68.24,1.46,1,1.89a26.12,26.12,0,0,1,1.07,4.79c.17,3.51,3,4.33,5.52,5.36,3,1.22,6.08,2.38,9.1,3.6,1.49.6,2.27.45,1.88-1.43a2.32,2.32,0,0,1,.1-1.77C77.84,108.61,77.07,107.81,77.27,106.85Z"/><path class="cls-28" d="M60.06,99A63.73,63.73,0,0,0,55.2,83.29c-.77-1.76-2-3.33-2.42-5.22l-.49-.41Q40.65,80.42,29,83.18a3,3,0,0,0-.66.31c.06,0,.14,0,.18,0a1.61,1.61,0,0,1,.22.23c-.69.36-2-.07-2,1,0,.73,1.25,1,1.77,1.64,2,2.35,5,3.23,7.45,5,4.22,3.09,8.76,5.76,13.21,8.52,2.16,1.33,4.65,2.2,6.58,3.78,1.51,1.21,3.3,1.1,4.92,2-.58-1.76-.19-3.55-.69-5.24C59.83,100,59.65,99.5,60.06,99Z"/><path class="cls-28" d="M91.36,68.64a113.46,113.46,0,0,1,10.15,21.63c1,2.85,1.8,5.75,2.86,8.56l0-.91.24-.06,2.35,8.82c3.29-3.46,7.12-6.37,7.05-11.69.7-.57.5-1.31.35-2a126.73,126.73,0,0,0-7-23.1c-.42-1-.8-2-1.28-3a2.92,2.92,0,0,0-1.56-1.69.23.23,0,0,1-.17-.07c-3.6,1.22-7.36,1.81-11,2.78C92.64,68.07,91.88,68,91.36,68.64Z"/><path class="cls-27" d="M104.51,65.18a114,114,0,0,1,6.86,18.52A101.71,101.71,0,0,1,114,95c0,.14.11.28.17.42.61.87,1,.94,1.58-.13,2-3.39,3.23-7.14,5.08-10.59-.44-5.52-2.58-10.52-4.9-15.44-.9-1.92-2-3.76-2.93-5.64A53.8,53.8,0,0,0,104.51,65.18Z"/><path class="cls-29" d="M77.27,106.54h0l0,0S77.27,106.53,77.27,106.54Z"/><path class="cls-29" d="M114,94.65s0,0,0,.06h0l0-.07Z"/><path class="cls-29" d="M21.81,87.63a11.1,11.1,0,0,1,1.12,1.06c5.61,5.07,49.43,44.29,70.4,63.06v-.06l1.11,1.05,6,5.38c1.34,1.2,2.65,2.43,4,3.59l4.61.51a18.28,18.28,0,0,1,.9-5q7.46-33.61,15-67.23c.18-.8.41-1.59.7-2.69a39,39,0,0,1,1.9,5.79c.72,2.46,1.66,2.88,4,1.74,1.7-.81,3.37-1.71,5.09-2.48s2-1.72,1.46-3.36A26.22,26.22,0,0,0,129,75.65c-.33-.25-1-.32-.74-1.25,2.09,1.16,4.1,2.31,6.15,3.4,2.43,1.29,4.86,2.55,7.32,3.76,1.8.87,2.65.54,3.46-1.29a31.41,31.41,0,0,0,3-9.93,10.56,10.56,0,0,0-.21-3.63c-.62-2.3-1.37-2.93-3.75-3.29-2.54-.38-5.1-.25-8-.42,2.45-2.09,4.6-4,6.88-5.8a3.1,3.1,0,0,0,1.13-4.12,14.74,14.74,0,0,0-7.77-8.32,2.45,2.45,0,0,0-3.45,1c-1.62,2.43-3.31,4.81-5,7.23-.66-.35-.32-.89-.32-1.3a29.43,29.43,0,0,0-2-11.62c-.69-1.59-1.58-2.23-3.41-1.75-3.18.82-6.43,1.37-9.64,2.09-2,.44-2.43,1.22-1.85,3.13a57.69,57.69,0,0,1,2.09,10c-.7-.2-.73-.82-1-1.24-1-1.55-1.82-3.17-2.88-4.66-2.4-3.34-2.66-3.36-6.17-1.38l-5.11,2.84C95.14,50.44,95,51,96.34,53.57c.64,1.18,1.22,2.39,1.94,3.52s.52,1.47-.75,1.76c-5.94,1.36-11.86,2.8-17.78,4.21q-31.65,7.53-63.3,15S15.63,81.58,21.81,87.63Zm111.84.84c.52,1.46-1.15,1.17-1.79,1.71-.44.36-.89.25-1.08-.42-.92-3.37-2.25-6.61-3.64-10.32A20,20,0,0,1,133.65,88.47Zm9.13-21.19c1,.07,1.37.49,1.39,1.49a21.56,21.56,0,0,1-1.71,7.6c-.25.7-.68.75-1.28.45a117.52,117.52,0,0,1-12.74-7.26c1-.9,1.73-2,3-2.13A67.68,67.68,0,0,1,142.78,67.28Zm-16.09-5.34c2.24-3.26,4.41-6.57,6.78-9.73.79-1.05,1-3.21,2.73-2.84,1.39.31,2.27,1.9,3.18,3.13s.62,2-.47,2.87c-2.78,2.25-5.6,4.49-8.21,6.94a6.3,6.3,0,0,1-4.86,1.6A2.94,2.94,0,0,1,126.69,61.94ZM115.57,44.05c1.09-1.09,3.41-.92,5.16-1.39,1.12-.29,1.63.06,1.92,1.18,1.45,5.62,1,11.17-.37,16.87-1.51-.93-2.76-1.8-4.11-2.49A1.86,1.86,0,0,1,117,56.39a73.56,73.56,0,0,0-.85-7.42C115.94,47.27,114.43,45.17,115.57,44.05Zm-14.52,7.74c5.14-2.69,3.6-3.31,6.64,1.53.39.62.7,1.28,1,1.92s.38,1.09-.57,1.21c-1.39.19-2.75.51-4.13.77-.48.22-1,.26-1.25-.29q-1.11-2-2.2-4C100.26,52.36,100.55,52.06,101.05,51.79ZM28.36,79.42l22-5.14,12-2.9L76,68.13h0L88.29,65.2h0l15.21-3.6c2.39-.66,4.76-1.42,7.29-1.18a13,13,0,0,1,9.41,4.26h0a13.08,13.08,0,0,1,3.24,13h0a47.7,47.7,0,0,1-2,9.54h0q-2.53,11.24-5.06,22.47h0c-1.92,8.58-3.66,17.21-5.87,25.73h0c-.08.6-.14,1.21-.27,1.8q-1.87,8.64-3.78,17.28c-.66,3-.66,3-2.87,1.05-.23-.2-.47-.39-.69-.6-3.45-3.24-7.21-6.14-10.43-9.63-2-1-3.3-2.79-4.94-4.2-3.11-2.69-6.1-5.51-9.14-8.27-3.7-2.92-7.08-6.21-10.57-9.36-1.82-1.65-3.94-3-5.3-5.12a3.54,3.54,0,0,1-1.65-1.07q-13.45-12-26.87-24c-3.41-3.07-6.8-6.17-10.2-9.26l-3.14-2.7C23.56,80.57,26,80,28.36,79.42Z"/><path class="cls-29" d="M60.09,98.76l0-.1s0,0,0,.08Z"/><path class="cls-30" d="M106,105h0c-.35,1,.52,2.06-.63,3a32.89,32.89,0,0,1-9.62,5.45c-1.36.51-2.79,1.27-4.37.73a51.82,51.82,0,0,1,.76,6.33c.77,8.25,1.34,16.49.4,24.76,3.22,3.49,7,6.39,10.43,9.63.22.21.46.4.69.6,2.21,1.93,2.21,1.93,2.87-1.05q1.89-8.64,3.78-17.28c.13-.59.19-1.2.27-1.8-.28-5-1-10-1.64-15A129.6,129.6,0,0,0,106,105Z"/><path class="cls-31" d="M92.09,132.16a41.74,41.74,0,0,0-.38-7.06c-.51-3.47-.56-7-.74-10.5a1.49,1.49,0,0,1,.35-.48l-.53-2.44c-.08.23-.28.48-.23.67.45,2.1-.73,2.35-2.43,2.44-2.4.13-4.58-.79-6.88-1.08-2.74-.35-2.68-.26-2.93-3-.13-1.43.38-3.07-1-4.21h0c-.18.94.56,1.73.46,2.67h0c.21,1.69.43,3.37.62,5.06a82.87,82.87,0,0,1,.08,18.56c3,2.76,6,5.58,9.14,8.27,1.64,1.41,3,3.17,4.94,4.2a2.49,2.49,0,0,1-.55-1.52C92.39,139.91,92,136,92.09,132.16Z"/><path class="cls-31" d="M92.1,120.54a51.82,51.82,0,0,0-.76-6.33l0-.09a1.49,1.49,0,0,0-.35.48c.18,3.51.23,7,.74,10.5a41.74,41.74,0,0,1,.38,7.06c-.09,3.87.3,7.75-.14,11.62a2.49,2.49,0,0,0,.55,1.52C93.44,137,92.87,128.79,92.1,120.54Z"/><path class="cls-32" d="M22.93,88.69a11.1,11.1,0,0,0-1.12-1.06C22.17,88,22.53,88.33,22.93,88.69Z"/><path class="cls-30" d="M78.16,124.57a92.17,92.17,0,0,0-.68-12.09c-.31.32-.89.27-1.73-.07-3-1.22-6.07-2.38-9.1-3.6-2.56-1-5.35-1.85-5.52-5.37h0a19.93,19.93,0,0,0,.26,2.68,59.05,59.05,0,0,1,1.16,12.22c1.36,2.13,3.48,3.47,5.3,5.12,3.49,3.15,6.87,6.44,10.57,9.36a4,4,0,0,1-.49-2.28C77.89,128.56,78.12,126.57,78.16,124.57Z"/><path class="cls-30" d="M78.34,114.27c-.19-1.69-.41-3.37-.62-5.06a2.36,2.36,0,0,0-.09,1.77c.17.81.09,1.26-.15,1.5a92.17,92.17,0,0,1,.68,12.09c0,2-.27,4-.23,6a4,4,0,0,0,.49,2.28A82.87,82.87,0,0,0,78.34,114.27Z"/><path class="cls-33" d="M60.75,106.71a7.09,7.09,0,0,1-.15-1.29c-1.59-.89-3.36-.8-4.84-2-1.94-1.57-4.43-2.44-6.59-3.77-4.45-2.76-9-5.43-13.21-8.53-2.42-1.77-5.41-2.65-7.45-5-.52-.6-1.76-.91-1.77-1.65,0-1.11,1.32-.68,2-1a1.61,1.61,0,0,0-.22-.23s-.12,0-.18,0h0L23.83,84c3.4,3.09,6.79,6.19,10.2,9.26q13.42,12,26.87,24a3.54,3.54,0,0,0,1.65,1.07,5.44,5.44,0,0,1-.85-2.94A46.25,46.25,0,0,0,60.75,106.71Z"/><path class="cls-33" d="M60,98.74a1.59,1.59,0,0,0,0,1.47c.47,1.58.18,3.26.62,4.91a8.38,8.38,0,0,1,.1-1.32,1.71,1.71,0,0,1,.43-.38,25.53,25.53,0,0,0-1-4.66Z"/><path class="cls-33" d="M61.13,103.45h0v0a1.71,1.71,0,0,0-.43.38,8.38,8.38,0,0,0-.1,1.32c0,.11,0,.22.07.33l-.07,0a7.09,7.09,0,0,0,.15,1.29,46.25,46.25,0,0,1,1,8.7,5.44,5.44,0,0,0,.85,2.94,59.05,59.05,0,0,0-1.16-12.22A19.93,19.93,0,0,1,61.13,103.45Z"/><path class="cls-34" d="M104.4,97.58l0,.91h0L106,105a.68.68,0,0,1,.35,0,6.83,6.83,0,0,1,.66,1.29c-.82-3.09-1.58-5.93-2.33-8.76Z"/><path class="cls-34" d="M114.21,95.07h0l-.15-.35h0c0,5.28-3.75,8.18-7,11.62a8.75,8.75,0,0,1,.53,1.85c.82,4.78,1.83,9.53,2.38,14.38.49,4.28,1.43,8.51.63,12.84h0c2.21-8.52,3.95-17.15,5.87-25.73h0q-1.09-7.29-2.2-14.59Z"/><path class="cls-34" d="M109.91,122.56c-.55-4.85-1.56-9.6-2.38-14.38a8.75,8.75,0,0,0-.53-1.85h0l0-.06a6.83,6.83,0,0,0-.66-1.29.68.68,0,0,0-.35,0v0h0a129.6,129.6,0,0,1,2.94,15.36c.67,5,1.36,10,1.64,15h0C111.34,131.07,110.4,126.84,109.91,122.56Z"/><path class="cls-35" d="M117,56.39a1.86,1.86,0,0,0,1.15,1.83c1.35.69,2.6,1.56,4.11,2.49,1.36-5.7,1.82-11.25.37-16.87-.29-1.12-.8-1.47-1.92-1.18-1.75.47-4.07.3-5.16,1.39s.37,3.22.6,4.92A73.56,73.56,0,0,1,117,56.39Z"/><path class="cls-29" d="M104.45,161.71c-1.36-1.16-2.67-2.39-4-3.59Z"/><path class="cls-36" d="M28.08,82.6a2,2,0,0,1,.8.3.52.52,0,0,1,.13-.06q11.62-2.78,23.28-5.52h0c-.65-1-1.66-1.8-1.95-3l-22,5.14c-2.41.56-4.8,1.15-7.67,1.85L23.83,84C24.92,82.5,26.59,82.85,28.08,82.6Z"/><path class="cls-36" d="M28.35,83.15c.18-.09.35-.18.53-.25a2,2,0,0,0-.8-.3c-1.49.25-3.16-.1-4.25,1.37l4.52-.82Z"/><path class="cls-37" d="M128.44,69.56a117.52,117.52,0,0,0,12.74,7.26c.6.3,1,.25,1.28-.45a21.56,21.56,0,0,0,1.71-7.6c0-1-.43-1.42-1.39-1.49a67.68,67.68,0,0,0-11.3.15C130.17,67.55,129.47,68.66,128.44,69.56Z"/><path class="cls-38" d="M113,63.27h0c1,1.87,2,3.72,2.93,5.64,2.32,4.92,4.46,9.92,4.9,15.44h0l.33.39c-.2-1.77,1.06-3.14,1.33-4.81.11-.69-.34-1.93.91-2.27a13.08,13.08,0,0,0-3.24-13h0a42.32,42.32,0,0,0-7-1.55A.19.19,0,0,1,113,63.27Z"/><path class="cls-39" d="M138.91,55.37c1.09-.88,1.37-1.66.47-2.87s-1.79-2.82-3.18-3.13c-1.74-.37-1.94,1.79-2.73,2.84-2.37,3.16-4.54,6.47-6.78,9.73a2.94,2.94,0,0,0-.85,2,6.3,6.3,0,0,0,4.86-1.6C133.31,59.86,136.13,57.62,138.91,55.37Z"/><path class="cls-40" d="M121.21,84.79a.62.62,0,0,1-.48-.15c-1.77,3.37-3,7-4.94,10.29-.45.77-.75.93-1.11.66.12.8.58,1.5.72,2.3a53.51,53.51,0,0,1,1,11.77h0q2.52-11.23,5.06-22.47h0C121.38,86.4,121.29,85.6,121.21,84.79Z"/><path class="cls-40" d="M115.4,97.89c-.14-.8-.6-1.5-.72-2.3a2.05,2.05,0,0,1-.47-.52h0q1.1,7.29,2.2,14.59A53.51,53.51,0,0,0,115.4,97.89Z"/><path class="cls-40" d="M120.73,84.64a.62.62,0,0,0,.48.15v-.05l-.33-.39h0C120.82,84.45,120.78,84.55,120.73,84.64Z"/><path class="cls-41" d="M91,68.29a.82.82,0,0,0,.35,0c.52-.6,1.28-.57,2-.75,3.65-1,7.41-1.56,11-2.78h0c.4-1.24-1.41-1.89-.84-3.17L88.29,65.2h0C90,65.5,90.43,67,91,68.29Z"/><path class="cls-42" d="M76.88,71.35h0l.45.08h0c2-.52,3.93-1.1,5.92-1.55,2.52-.57,5.06-1,7.59-1.55a21.8,21.8,0,0,1-2.55-3.13h0L76,68.13h0C75.48,69.43,77.33,70.07,76.88,71.35Z"/><path class="cls-42" d="M91,68.29c-.58-1.32-1-2.79-2.72-3.09a21.8,21.8,0,0,0,2.55,3.13Z"/><path class="cls-43" d="M52.3,77.33l.48.39h0a3.08,3.08,0,0,1,1.15-.79c1.6-.88,3.43-.62,5.09-1.19a31.64,31.64,0,0,1,6.3-1.45h0l.09-.15h0c-.93-1-1.21-2.81-3.11-2.76l-12,2.9C51.43,75.07,52.6,75.82,52.3,77.33Z"/><path class="cls-43" d="M52.29,77.32h0c.3-1.51-.87-2.26-2-3,.29,1.24,1.3,2,1.95,3Z"/><path class="cls-44" d="M65.51,74.12l11.22-2.74c-.64-1-1.84-1.82-.73-3.25h0L62.3,71.38C64.32,71.15,65.23,71.93,65.51,74.12Z"/><path class="cls-44" d="M76.73,71.38l.15,0h0c.45-1.28-1.4-1.92-.88-3.22C74.89,69.56,76.09,70.4,76.73,71.38Z"/><path class="cls-44" d="M65.41,74.14h0l.1,0c-.28-2.19-1.19-3-3.21-2.74C64.2,71.33,64.48,73.1,65.41,74.14Z"/><path class="cls-45" d="M102.79,56.93c.3.55.77.51,1.25.29,1.38-.26,2.74-.58,4.13-.77,1-.12.93-.54.57-1.21s-.66-1.3-1-1.92c-3-4.84-1.5-4.22-6.64-1.53-.5.27-.79.57-.46,1.15Q101.68,54.94,102.79,56.93Z"/><path class="cls-29" d="M93.32,151.69v.06l1.1,1Z"/><path class="cls-46" d="M104.59,64.82a53.82,53.82,0,0,1,8.35-1.54,1.56,1.56,0,0,1,.16-.2c-1.09-.61-1.38-1.91-2.31-2.66-2.53-.24-4.9.52-7.29,1.18C104.27,62.56,105.15,63.49,104.59,64.82Z"/><path class="cls-46" d="M113.16,63.13h0l-.06-.05a1.56,1.56,0,0,0-.16.2h.1A.19.19,0,0,0,113.16,63.13Z"/><path class="cls-46" d="M104.34,64.77h0a.23.23,0,0,0,.17.07l.08,0c.56-1.33-.32-2.26-1.09-3.22C102.93,62.88,104.74,63.53,104.34,64.77Z"/><path class="cls-47" d="M130.78,89.76c.19.67.64.78,1.08.42.64-.54,2.31-.25,1.79-1.71a20,20,0,0,0-6.51-9C128.53,83.15,129.86,86.39,130.78,89.76Z"/><path class="cls-48" d="M113.14,63l0-.07c2.63-.61,4.85.42,7,1.72h0a13,13,0,0,0-9.41-4.26A3.13,3.13,0,0,1,113.14,63Z"/><path class="cls-48" d="M113.19,63l0,.07s0,.07,0,.1h0a42.32,42.32,0,0,1,7,1.55C118,63.38,115.82,62.35,113.19,63Z"/><path class="cls-48" d="M113.1,63.08l0,0a3.13,3.13,0,0,0-2.35-2.61C111.72,61.17,112,62.47,113.1,63.08Z"/><path class="cls-48" d="M113.16,63.13h0s0-.06,0-.1l0,0,.06.05Z"/><path class="cls-49" d="M121.28,84.8h0c.69.74.17,1.61.24,2.41a47.7,47.7,0,0,0,2-9.54h0C122.75,80.05,122.47,82.56,121.28,84.8Z"/><path class="cls-49" d="M122.53,79.93c-.27,1.67-1.53,3-1.33,4.81,0,0,0,0,0,.05h0c1.19-2.24,1.47-4.75,2.16-7.14h0C122.19,78,122.64,79.24,122.53,79.93Z"/><path class="cls-49" d="M121.23,84.79h0c.08.81.17,1.61.26,2.42h0C121.4,86.4,121.92,85.53,121.23,84.79Z"/><path class="cls-49" d="M121.23,84.79s0,0,0-.05v.05Z"/><path class="cls-50" d="M90.79,111.65s.08,0,.14,0a1.82,1.82,0,0,1,.49,2.4,4.72,4.72,0,0,1,1.71-.51,30.06,30.06,0,0,0,10.55-5.11,3.42,3.42,0,0,0,1.67-2.46c0-.37.11-.88.57-1-.67-.29-.8-1-1-1.54a21.59,21.59,0,0,1-1.09-4.69,5.24,5.24,0,0,1,.19-1.35c-.88-2.48-1.65-5-2.49-7.48a112.41,112.41,0,0,0-10-21.28,1.25,1.25,0,0,1-.43,0c-.08-.07-.14-.16-.21-.23a3.3,3.3,0,0,1-1.61.84c-2.59.92-5.34,1.12-8,1.85-1.22.34-2.43,1-3.78.76A130.45,130.45,0,0,1,88.35,99.93,77.93,77.93,0,0,1,90.79,111.65Z"/><path class="cls-50" d="M105.35,106a3.42,3.42,0,0,1-1.67,2.46,30.06,30.06,0,0,1-10.55,5.11,4.72,4.72,0,0,0-1.71.51c0,.06,0,.11-.08.18,1.58.54,3-.22,4.37-.73a32.89,32.89,0,0,0,9.62-5.45c1.15-1,.28-2.06.63-3,0,0,0,0,0,0C105.46,105.07,105.39,105.58,105.35,106Z"/><path class="cls-50" d="M91.42,114a1.82,1.82,0,0,0-.49-2.4c-.06,0-.09,0-.14,0v0l.53,2.44Z"/><path class="cls-50" d="M91.32,114.12l0,.09c0-.07,0-.12.08-.18Z"/><path class="cls-50" d="M104.37,98.49c-.13-.36-.24-.72-.37-1.08a5.24,5.24,0,0,0-.19,1.35,21.59,21.59,0,0,0,1.09,4.69c.22.58.35,1.25,1,1.54h0l-1.59-6.5Z"/><path class="cls-50" d="M106,105h0v0h0S106,105,106,105Z"/><path class="cls-50" d="M91.12,68.63a1.25,1.25,0,0,0,.43,0l-.19-.35a.82.82,0,0,1-.35,0l-.1.11C91,68.47,91,68.56,91.12,68.63Z"/><path class="cls-50" d="M81.32,71.09c2.64-.73,5.39-.93,8-1.85a3.3,3.3,0,0,0,1.61-.84l-.07-.07c-2.53.51-5.07,1-7.59,1.55-2,.45-4,1-5.92,1.55h0c.07.14.13.28.21.42C78.89,72.1,80.1,71.43,81.32,71.09Z"/><path class="cls-50" d="M91,68.29l-.17,0,.07.07Z"/><path class="cls-51" d="M78.85,108.32a28.87,28.87,0,0,1,.27,3.08c.08.8.37,1.41,1.27,1.52,1.93.23,3.81.73,5.72,1.09a6.41,6.41,0,0,0,3.07-.18c.86-.27.56-1.27,1-1.83a.76.76,0,0,1,.58-.34c-.54-.38-.59-1-.73-1.56-.44-1.77-.77-3.56-1.2-5.32A130.61,130.61,0,0,0,77.72,73.83a2.74,2.74,0,0,1-.48-2.07,1.42,1.42,0,0,1-.36-.14l-.07-.12a2.07,2.07,0,0,1-1.57,1.13c-2.72.63-5.43,1.31-8.16,1.88a1.58,1.58,0,0,1-1.59-.3.93.93,0,0,1-.13.15c.42.77.84,1.54,1.25,2.31a109.28,109.28,0,0,1,8.23,20.55c.89,3.08,1.44,6.24,2.43,9.29l0,0C78.56,106.48,78.66,107.48,78.85,108.32Z"/><path class="cls-51" d="M90.18,112c-.44.56-.14,1.56-1,1.83a6.41,6.41,0,0,1-3.07.18c-1.91-.36-3.79-.86-5.72-1.09-.9-.11-1.19-.72-1.27-1.52a28.87,28.87,0,0,0-.27-3.08c-.19-.84-.29-1.84-1.55-1.78,1.4,1.14.89,2.78,1,4.21.25,2.7.19,2.61,2.93,3,2.3.29,4.48,1.21,6.88,1.08,1.7-.09,2.88-.34,2.43-2.44,0-.19.15-.44.23-.67l0,0A.76.76,0,0,0,90.18,112Z"/><path class="cls-51" d="M76.88,71.62a1.42,1.42,0,0,0,.36.14,1.48,1.48,0,0,1,.09-.33h0l-.45-.08h0c0,.06,0,.1-.07.15Z"/><path class="cls-51" d="M65.49,74.21s-.06,0-.08-.07h0l-.09.15,0,.07A.93.93,0,0,0,65.49,74.21Z"/><path class="cls-51" d="M65.49,74.21a1.58,1.58,0,0,0,1.59.3c2.73-.57,5.44-1.25,8.16-1.88a2.07,2.07,0,0,0,1.57-1.13l-.08-.12L65.51,74.12l0,0Z"/><path class="cls-51" d="M76.88,71.35l-.15,0,.08.12S76.86,71.41,76.88,71.35Z"/><path class="cls-51" d="M65.53,74.17l0,0-.1,0s0,0,.08.07Z"/><path class="cls-51" d="M77.72,73.83a130.61,130.61,0,0,1,11.11,31c.43,1.76.76,3.55,1.2,5.32.14.57.19,1.18.73,1.56h0a77.93,77.93,0,0,0-2.44-11.72A130.45,130.45,0,0,0,77.54,71.85h-.11a1.08,1.08,0,0,1-.19-.08A2.74,2.74,0,0,0,77.72,73.83Z"/><path class="cls-51" d="M90.76,111.66l0,0v0Z"/><path class="cls-51" d="M77.43,71.84h.11c-.08-.14-.14-.28-.21-.42a1.48,1.48,0,0,0-.09.33A1.08,1.08,0,0,0,77.43,71.84Z"/><path class="cls-50" d="M76.07,104.9c-.31-.87-.31-1.8-.54-2.69a114.49,114.49,0,0,0-9.8-25.71c-.33-.62-.78-1.26-.46-2,0,0-.07.11-.13.15-3.94,1.68-8.25,2-12.28,3.34.51,1.79,1.61,3.3,2.34,5a63.73,63.73,0,0,1,4.86,15.71l0,.1a1,1,0,0,1,.37.09c.8,1.43,1.6,2.87.69,4.56.65-.4.81.57.9,1a4.31,4.31,0,0,0,2.93,3c1,.4,1.89.83,2.83,1.24,2.93,1.27,5.93,2.38,8.94,3.42.43-.75,0-1.69.38-2.33a2.89,2.89,0,0,0,0-.29c-.16-1-.51-1.94.17-2.86h0s0,0,0,0C76.29,106.4,76.3,105.54,76.07,104.9Z"/><path class="cls-50" d="M77.09,109.4a2.89,2.89,0,0,1,0,.29,1.13,1.13,0,0,1,.59-.48h0c.1-.94-.64-1.73-.46-2.67h0C76.58,107.46,76.93,108.43,77.09,109.4Z"/><path class="cls-50" d="M76.75,112c-3-1-6-2.15-8.94-3.42-.94-.41-1.88-.84-2.83-1.24a4.31,4.31,0,0,1-2.93-3c-.09-.4-.25-1.37-.9-1l0,0c.17,3.52,3,4.33,5.52,5.37,3,1.22,6.08,2.38,9.1,3.6.84.34,1.42.39,1.73.07-.11-.93-.22-1.86-.35-2.79C76.75,110.33,77.18,111.27,76.75,112Z"/><path class="cls-50" d="M77.13,109.69c.13.93.24,1.86.35,2.79.24-.24.32-.69.15-1.5a2.36,2.36,0,0,1,.09-1.77h0A1.13,1.13,0,0,0,77.13,109.69Z"/><path class="cls-50" d="M60.46,98.85a1,1,0,0,0-.37-.09,25.53,25.53,0,0,1,1,4.66h0C62.06,101.72,61.26,100.28,60.46,98.85Z"/><path class="cls-50" d="M61.13,103.42v0h0l0,0Z"/><path class="cls-50" d="M52.86,78c4-1.34,8.34-1.66,12.28-3.34.06,0,.08-.1.13-.15a1.21,1.21,0,0,1,0-.18h0A31.64,31.64,0,0,0,59,75.74c-1.66.57-3.49.31-5.09,1.19a3.08,3.08,0,0,0-1.15.79h0C52.8,77.81,52.84,77.88,52.86,78Z"/><path class="cls-50" d="M65.73,76.5a114.49,114.49,0,0,1,9.8,25.71c.23.89.23,1.82.54,2.69.23.64.22,1.5,1.2,1.61-1-3.05-1.54-6.21-2.43-9.29a109.28,109.28,0,0,0-8.23-20.55c-.41-.77-.83-1.54-1.25-2.31l-.09.11C65,75.24,65.4,75.88,65.73,76.5Z"/><path class="cls-50" d="M65.27,74.47l.09-.11,0-.07h0A1.21,1.21,0,0,0,65.27,74.47Z"/><path class="cls-51" d="M27.88,84.77c3.68,3.38,8.18,5.62,12.27,8.43,5.49,3.79,11.37,7,17.11,10.44a6.69,6.69,0,0,0,1.54.53c.73.23,1,0,.93-.77-.11-1.16-.3-2.3-.36-3.45,0-.5-.13-1.33.65-1.21,0,0,0,0,0-.08-.71-.43-.77-1.21-1-1.9a72,72,0,0,0-6.2-16.86c-.33-.61-.72-1.3-.23-2a.68.68,0,0,1-.38-.56c0,.16-.07.32-.13.49a5.41,5.41,0,0,1-2.05.72c-4.88,1.26-9.8,2.33-14.69,3.53a23.26,23.26,0,0,1-6.3,1.09h0C29.38,84.14,28,83.9,27.88,84.77Z"/><path class="cls-51" d="M60,98.74c-.78-.12-.68.71-.65,1.21.06,1.15.25,2.29.36,3.45.08.79-.2,1-.93.77a6.69,6.69,0,0,1-1.54-.53C51.52,100.21,45.64,97,40.15,93.2c-4.09-2.81-8.59-5-12.27-8.43.1-.87,1.5-.63,1.27-1.59h0c-.26,0-.51,0-.78,0h0c.06,0,.14,0,.18,0a1.61,1.61,0,0,1,.22.23c-.69.36-2-.07-2,1,0,.74,1.25,1.05,1.77,1.65,2,2.35,5,3.23,7.45,5,4.22,3.1,8.76,5.77,13.21,8.53,2.16,1.33,4.65,2.2,6.59,3.77,1.48,1.21,3.25,1.12,4.84,2v-.3c-.44-1.65-.15-3.33-.62-4.91A1.59,1.59,0,0,1,60,98.74Z"/><path class="cls-51" d="M60.6,105.42l.07,0c0-.11,0-.22-.07-.33Z"/><path class="cls-51" d="M35.43,82.08c4.89-1.2,9.81-2.27,14.69-3.53a5.41,5.41,0,0,0,2.05-.72c.06-.17.09-.33.13-.49s0,0,0,0Q40.65,80.07,29,82.84a.52.52,0,0,0-.13.06c.1.07.21.13.25.27A23.26,23.26,0,0,0,35.43,82.08Z"/><path class="cls-51" d="M29.13,83.17c0-.14-.15-.2-.25-.27s-.35.16-.53.25C28.62,83.18,28.87,83.16,29.13,83.17Z"/><path class="cls-51" d="M52.68,77.9a1.62,1.62,0,0,1,.1-.18l-.48-.39h0A.68.68,0,0,0,52.68,77.9Z"/><path class="cls-51" d="M52.3,77.33h0s0,0,0,0Z"/><path class="cls-51" d="M52.91,79.9a72,72,0,0,1,6.2,16.86c.18.69.24,1.47,1,1.9A63.73,63.73,0,0,0,55.2,83c-.73-1.69-1.83-3.2-2.34-5l-.06,0a1.25,1.25,0,0,1-.12-.08C52.19,78.6,52.58,79.29,52.91,79.9Z"/><path class="cls-51" d="M52.8,78l.06,0c0-.08-.06-.15-.08-.24h0a1.62,1.62,0,0,0-.1.18A1.25,1.25,0,0,0,52.8,78Z"/><path class="cls-52" d="M111.37,83.36A114.8,114.8,0,0,0,104.6,65l0,0,0,0s0,.09-.06.14a4.23,4.23,0,0,1-2.46,1.1c-3.32.75-6.63,1.6-10,2.36a4.32,4.32,0,0,1,1.21,1.52A62.69,62.69,0,0,1,96.9,77c2.95,6.54,6.2,13,7.28,20.2a.48.48,0,0,1,.3-.15c.81-.1.83.88,1.07,1.46a15.37,15.37,0,0,1,.85,3,10.14,10.14,0,0,0,1.1,3.2,12.94,12.94,0,0,0,2.75-2.85,21.31,21.31,0,0,0,2.39-3.22,11.26,11.26,0,0,0,.56-2.84c.11-.49.15-1.17.83-1.1,0,0,0,0,0-.06A101.71,101.71,0,0,0,111.37,83.36Z"/><path class="cls-52" d="M113.2,95.81a11.26,11.26,0,0,1-.56,2.84,21.31,21.31,0,0,1-2.39,3.22,12.94,12.94,0,0,1-2.75,2.85,10.14,10.14,0,0,1-1.1-3.2,15.37,15.37,0,0,0-.85-3c-.24-.58-.26-1.56-1.07-1.46a.48.48,0,0,0-.3.15c.06.42.14.83.19,1.26h0l0-.91.24-.06c.75,2.83,1.51,5.67,2.33,8.76l0,0c3.28-3.44,7.07-6.34,7-11.62C113.35,94.64,113.31,95.32,113.2,95.81Z"/><path class="cls-52" d="M107,106.34h0l0,0Z"/><path class="cls-52" d="M102,66.21a4.23,4.23,0,0,0,2.46-1.1s0-.09.06-.14l-.19-.2c-3.6,1.22-7.36,1.81-11,2.78-.69.18-1.45.15-2,.75a1.9,1.9,0,0,1,.7.27C95.38,67.81,98.69,67,102,66.21Z"/><path class="cls-52" d="M104.6,65a1.17,1.17,0,0,0,0-.11l0,0,0,0Z"/><path class="cls-52" d="M104.55,64.92a.2.2,0,0,0,0-.08.23.23,0,0,1-.17-.07h0l.19.2Z"/><path class="cls-52" d="M104,97.41a.52.52,0,0,1,.18-.18C103.1,90,99.85,83.57,96.9,77a62.69,62.69,0,0,0-3.63-6.94,4.32,4.32,0,0,0-1.21-1.52l-.37.09a.66.66,0,0,1-.14,0,112.41,112.41,0,0,1,10,21.28C102.35,92.42,103.12,94.93,104,97.41Z"/><path class="cls-52" d="M104,97.41c.13.36.24.72.37,1.08-.05-.43-.13-.84-.19-1.26A.52.52,0,0,0,104,97.41Z"/><path class="cls-52" d="M91.69,68.66l.37-.09a1.9,1.9,0,0,0-.7-.27l.19.35A.66.66,0,0,0,91.69,68.66Z"/><path class="cls-53" d="M114.44,94.91a3.71,3.71,0,0,0,1.3-1.31,67.14,67.14,0,0,0,3.57-7.52c.28-.61.43-1.42,1.21-1.64a1.44,1.44,0,0,1-.22-.47,59.45,59.45,0,0,0-7.07-18.83,2.48,2.48,0,0,1-.42-1.51,1,1,0,0,1-.65.49c-2.32.31-4.61.79-6.92,1.12a.57.57,0,0,1-.22,0,3.58,3.58,0,0,1,1,1.32c.48,1,.86,2,1.28,3a126.87,126.87,0,0,1,7,23.09c.15.71.35,1.45-.35,2h0l0,.07a.91.91,0,0,1,.31,0S114.41,94.86,114.44,94.91Z"/><path class="cls-53" d="M114.37,94.76a.91.91,0,0,0-.31,0l.15.35h0a1.88,1.88,0,0,0,.23-.16S114.4,94.8,114.37,94.76Z"/><path class="cls-53" d="M112.81,63.63a2.48,2.48,0,0,0,.42,1.51A59.45,59.45,0,0,1,120.3,84a1.44,1.44,0,0,0,.22.47,1.12,1.12,0,0,1,.35-.09c-.44-5.52-2.58-10.52-4.9-15.44-.9-1.92-2-3.77-2.93-5.64h0A2.74,2.74,0,0,1,112.81,63.63Z"/><path class="cls-53" d="M120.52,84.44c-.78.22-.93,1-1.21,1.64a67.14,67.14,0,0,1-3.57,7.52,3.71,3.71,0,0,1-1.3,1.31,1.62,1.62,0,0,1,.19.37,1.54,1.54,0,0,0,.05.31c.36.27.66.11,1.11-.66,1.95-3.29,3.17-6.92,4.94-10.29a1.06,1.06,0,0,1-.2-.17Z"/><path class="cls-53" d="M114.44,94.91a1.88,1.88,0,0,1-.23.16,2.05,2.05,0,0,0,.47.52,1.54,1.54,0,0,1-.05-.31A1.62,1.62,0,0,0,114.44,94.91Z"/><path class="cls-53" d="M120.53,84.47a1.06,1.06,0,0,0,.2.17c0-.09.09-.19.14-.29h0a1.12,1.12,0,0,0-.35.09Z"/><path class="cls-53" d="M105,65.2a.57.57,0,0,0,.22,0c2.31-.33,4.6-.81,6.92-1.12a1,1,0,0,0,.65-.49,1.92,1.92,0,0,1,0-.22s.07-.08.1-.13a53.82,53.82,0,0,0-8.35,1.54.14.14,0,0,1,0,.06A1.66,1.66,0,0,1,105,65.2Z"/><path class="cls-53" d="M112.81,63.63a2.74,2.74,0,0,0,.23-.36h-.1s-.08.08-.1.13A1.92,1.92,0,0,0,112.81,63.63Z"/><path class="cls-53" d="M104.59,64.82l-.08,0s0,0,.06,0A.14.14,0,0,0,104.59,64.82Z"/><path class="cls-53" d="M111.37,83.36A101.71,101.71,0,0,1,114,94.65h0c.7-.57.5-1.31.35-2a126.87,126.87,0,0,0-7-23.09c-.42-1-.8-2-1.28-3a3.58,3.58,0,0,0-1-1.32,1.38,1.38,0,0,1-.42-.17A114.8,114.8,0,0,1,111.37,83.36Z"/><path class="cls-53" d="M105,65.2a1.66,1.66,0,0,0-.45-.32l0,0a1.17,1.17,0,0,1,0,.11A1.38,1.38,0,0,0,105,65.2Z"/><path class="cls-53" d="M104.57,64.88s0,0-.06,0a.2.2,0,0,1,0,.08Z"/><path class="cls-29" d="M100.44,158.12l-6-5.38,3.17,3A35.9,35.9,0,0,1,100.44,158.12Z"/></g></g></g></svg>