<svg xmlns="http://www.w3.org/2000/svg" xmlns:xlink="http://www.w3.org/1999/xlink" viewBox="0 0 200 200"><defs><style>.cls-1{fill:none;}.cls-2{fill:#3a3e5e;}.cls-3{clip-path:url(#clip-path);}.cls-4{fill:#353535;}.cls-5{fill:#060606;}.cls-6{fill:#9a9a9a;}.cls-7{fill:#282828;}.cls-8{fill:#f2f2f2;}.cls-9{fill:#f1f1f1;}.cls-10{fill:#424242;}.cls-11{fill:#b2b2b2;}.cls-12{fill:#545454;}.cls-13{fill:#8d8d8d;}.cls-14{fill:#232323;}.cls-15{fill:#bebebe;}.cls-16{fill:#adadad;}.cls-17{fill:#e8e8e8;}.cls-18{fill:#4c4c4c;}.cls-19{fill:#929292;}.cls-20{fill:#191919;}.cls-21{fill:#d1d1d1;}.cls-22{fill:#939393;}.cls-23{fill:#d9d9d9;}.cls-24{fill:#c5c5c5;}.cls-25{fill:#494949;}.cls-26{fill:#535353;}.cls-27{fill:#505050;}.cls-28{fill:#4d4d4d;}.cls-29{fill:#0b0b0b;}.cls-30{fill:#b9885d;}.cls-31{fill:#2b130a;}.cls-32{fill:#efcd93;}.cls-33{fill:#bd8a4e;}.cls-34{fill:#f0d8a1;}.cls-35{fill:#f7be61;}.cls-36{fill:#723e13;}.cls-37{fill:#7e4b0a;}.cls-38{fill:#754911;}.cls-39{fill:#744511;}.cls-40{fill:#0d0a08;}</style><clipPath id="clip-path"><circle class="cls-1" cx="100" cy="100" r="93.27"/></clipPath></defs><g id="Layer_2" data-name="Layer 2"><g id="Layer_1-2" data-name="Layer 1"><circle class="cls-2" cx="100" cy="100" r="100"/><g class="cls-3"><path class="cls-4" d="M-418.18,95V-34.3c10.68-1.1,16.93,4.9,21.91,15.15,2.9-7.4,4.62-14.11,11.95-15.59.26-3-1.91-3.26-3.25-4.2-2.15-1.54-4.36-3.08-3.68-6.16s3.45-3.6,5.91-4.12c9.53-2.05,18.92-4.62,28.38-6.84a110.33,110.33,0,0,0,43.68-21.76,112.59,112.59,0,0,1,41.79-20.5c22.28-5.94,45-9.61,67.9-12.68a621.5,621.5,0,0,0,88.81-17.84c10.08-2.9,20.11-6.08,30.42-8.13A151.07,151.07,0,0,0-45.15-151c-31.17,6.8-64.26,3.56-97.26-1.25-20.45-3-40.4-.67-60.16,4.3a290.64,290.64,0,0,1-75.34,8.46c-28.95-.38-57.89.26-86.59-4.8-16.79-2.95-32.57-9-48.36-15a14.33,14.33,0,0,1-5.32-4.29v-10.77c1.72-1.77,4.09-1.94,6.28-2.62,54.47-16.93,86.83-54,98.16-109.43,3.4-16.65-.4-32.67-9.23-47.19-2.76-4.61-2.57-7.94.93-11.63,4.82-5.08,7.88-11.35,11.47-17.26,6.76-11.15,5.69-23.08,3.08-35-.63-2.89-2.28-5.92.48-8.66,13.34-3.67,26.81-6.87,40.7-4.7a142.91,142.91,0,0,0,68.08-5.86,38.56,38.56,0,0,0,15-9c3.33-3.23,2.8-5.86-1.54-7.45a53.87,53.87,0,0,0-18.71-3.54c-12.76,0-25.57.82-38.25-1.53-5.83-1.13-11.53-2.41-15.57-7.28-1.3-3.08.26-5.44,1.92-7.78,8.67-12.31,15.67-25.25,18.38-40.23a10.56,10.56,0,0,1,3.58-6.63c13.3-6.16,27.88-6.39,41.94-8.85,25-4.4,50.3-6.56,75.57-8.8,4.1-.37,8.18-.56,12.32-.57,28.45,0,56.94-.25,85.38.1,14.15.19,28.12-2.27,42.24-1.77a8.39,8.39,0,0,0,7.06-2.43c8.43-9.76,20-14.2,31.72-17.88a228,228,0,0,1,90.39-9.11A343.83,343.83,0,0,0,284-561.82c23.27-6.85,43.91-19.65,65-31.29,22.11-12.19,40.48-29.68,61.8-43.09a465.45,465.45,0,0,1,88.57-42.53c16.76-6.15,31.31-15.08,41.77-30,3-4.23,4.05-8,.79-12.55a18.74,18.74,0,0,1-3.4-10.86c-.1-8.11,3.08-12.45,11-14.38a78.12,78.12,0,0,1,21.39-1.92c20,.75,39.93,1.31,59.83,3.48,11.56,1.24,23.08-.37,34.38-2.76,10.22-2.15,15.88-10.35,18.64-18.93,4.52-14.13,15.14-20.42,27-26.53,12.32-6.37,25.6-10.56,38.19-16.28,3.43-1.54,7.31-2.44,10.91-6.85-10.23-2.82-19.9-5-29.64-5-22.55,0-45.07-.71-67.64.86a283.07,283.07,0,0,1-54.53-.74,56.27,56.27,0,0,0-15.39.3,25.89,25.89,0,0,1-3.82.47c-3.08,0-7.28.79-7.77-2.83-.4-2.89,3.75-3.72,6.48-4.26a431.86,431.86,0,0,0,47-11.64c30.79-9.66,62-18.07,92.24-29.61,13.21-5,25.18-12.56,37.77-18.84,5.06-.32,7.08,3.83,9.34,7,16.93,23.42,41.14,31,68.48,31.2,10.51,0,20.79-2.62,30.78-6.27,7.54-2.77,9.23-1.71,9.91,5.94,4.22,43,28.26,70.49,67.27,86.42,5.61,2.3,12.32,2.19,16.72,7.13v97c-14.92,6.57-28.29,16.59-44.64,19.92-15.19,0-24.47-6.76-24.76-24.11-4.72,4.62-4.89,9-5.16,12.95-.41,6.31-2.93,9.76-9.49,10.77-3.57.54-7.7.82-10.19,4.82,1.68,4,8.16,3.18,8.74,8.36-1.23,3.52-4.4,4.17-7.39,4.61-24.13,3.08-46.35,12.32-68.79,21a296.05,296.05,0,0,0-42.47,19.56c-28.52,16.47-59.34,25.7-91.46,32.15-22.24,4.46-44.64,9.23-65.92,17.45-8.44,0-13.56-6.68-20.26-10.14-24.42-12.7-49.6-23-76.54-29.24a292.48,292.48,0,0,0-84.09-7.07c-34.2,2-67.07,10.11-95.93,29.58-23.75,16-33,39.08-31.17,67.6,2.56,40,22.61,71.89,46.17,102,23.21,29.65,52.59,52.26,85.45,70.54,5.05,2.8,11.73,3.57,14.69,9.7-4.28,3.08-9.59,3.08-14.39,4.49-18.8,5.47-37.08,12.42-55.58,18.69q-31.56,11.55-62.1,25.62c-23.58,9.37-45.74,21.75-68.51,32.82C224.83-207,206.5-196.72,188.71-185.5c-3.08,1.54-5.82,4-9.5,4.25-9.23-3.81-17.05-10.06-26.36-13.85-20.46-8.48-41-7.8-61.72-2.35a28.27,28.27,0,0,1-15.53,0c-16.42-4.44-32.93-10.07-50.43-5.38C12.85-199.5.54-190.4,7.68-172.91,12.07-162.13,16-151.36,22.81-142a11.14,11.14,0,0,1,1.91,10.91c-8.17,21.55-5.2,42.28,4.89,62.44a7.12,7.12,0,0,1,.57,2.22c-3.26,5.51-8.82,8.77-13.45,12.8C9.28-47.13,2.36-40.14-4.62-33.19c-6.64,6.59-12.71,13.73-19.16,20.5a20.64,20.64,0,0,1-6.8,4.81c-27.7,16.49-58.58,25.56-88.28,37.35-35,13.85-69.94,27.84-106.2,38.35-31.29,9.1-62.85,17-95.19,21.06-27.7,3.43-55.41,6.72-83.23,8.34C-408.35,97.5-413.7,98.65-418.18,95Z"/><path class="cls-5" d="M-418.18,207.34v-9.23c6-2.61,11.56-.36,16.84,2.15a105.17,105.17,0,0,1,41.92,35c11,15.66,13.64,33,13.39,51.66-.25,17.76-6.66,33.44-13.3,49.25-2.88,6.88-2.88,6.75,4.62,7.55a39.79,39.79,0,0,1,29,16.55c2.57,3.49,5.55,6.71,7.43,10.77,2,11.27.25,22.44-2.46,33.18-1.68,6.7.24,7,5.69,7.13,14.78.28,29.48,1.54,43.59,6.43,17.85,5.9,33.37,15.21,44.63,30.66,12.92,15.64,16.93,34.14,17.1,53.87.17,15.88.65,31.78-5.25,47a87.75,87.75,0,0,1-8.4,17.23c-2.59,3.88-2,6.38,2.22,8.52A191.09,191.09,0,0,1-202,586.51a15.61,15.61,0,0,1,7.56,11c.81,5.63,3.57,10.65,5.25,16,4.85,15.39,1.63,29.38-5.33,43-2.29,4.46-2.52,8,1,11.82,12.9,13.85,20.14,30.78,24.28,49,1.24,5.44,3.08,6.37,8.36,4.36,16-6.16,32.49-7.28,48.82-1.37,18.61,6.71,27.43,21.16,30,40a55.08,55.08,0,0,1,.14,6.16c.15,9.24.46,9.84,9.77,11.25a167.36,167.36,0,0,1,50.25,16,16.65,16.65,0,0,1,4.79,3.4c9.46,8.22,20.24,15.05,27.58,25.58A51.32,51.32,0,0,1,22.52,841.2c2.46,7.08,7,9.23,14,8.86s14.37-.57,21.23,2.06c3.08,1.2,7.22,1.71,7.42,6.45-3.18,2.48-6.43,1-9.46-.15-6.42-2.37-13-2.29-19.69-2.36-4.83,0-6.48,1.67-5.11,6.51,3.19,11.36,4.62,23.09,6.16,34.7,2.23,16.22-.79,31.59-5.3,46.86-2.3,7.85-5.61,15.39-12.91,21.15,4.37,1.21,7.53-.23,10.78-1.54a1005.74,1005.74,0,0,1,112.69-37.8,13.57,13.57,0,0,1,6.86-.63c-10.14-1.31-17.08-9.67-25.12-16.32-10.32-10.26-21.7-19.51-29.82-31.9-14.13-21.55-23.09-44.48-20.66-70.8,2.68-21,8.76-40.29,26.94-53.5,8.83-8.56,19.65-13.7,31-18,7-1.91,13.85-4.34,21.24-4.92,4.08-.22,8.05-1.54,12.17-1.44a42.22,42.22,0,0,1,6.16,0c26.32,0,51.26,6.16,75.27,16.55,9.75,4.22,10.13,4.62,14.93-4.46,17.5-32.74,27.24-67.35,24.63-104.85-.76-10.77-5.25-16.28-15.55-18.8C242.21,610,230.13,585.63,240,555.54a48.6,48.6,0,0,1,8.77-16.93c3.91-4.61,4.75-9.69,5.12-15.57,1.25-19.75,3.74-39.37,12.32-57.53,2.11-4.45,1.75-7-2.39-10.24-8.46-6.65-10.19-16.14-6.05-27.12C261.6,418,261.6,418,252,413.93c-1.75-.77-3.17-2.15-4.94-2.91a272.24,272.24,0,0,1-91.82-58.91c-1.79-1.77-3.79-3.33-5.56-5.11a274.94,274.94,0,0,1-35.61-38.94c-1.42-1.83-2.28-6.31-5.91-3.87s-5.7,5.85-2.86,10.53c3.15,5.24,6.54,10.36,8.68,16.18,3.07,8.26,2.84,11.26-4.11,16.76C94.24,360,78.77,372.56,62.73,384.4a22,22,0,0,0-9.46,6.31,58.6,58.6,0,0,1-10.08,8.22c-11.71,7.69-14.38,7.38-24-2.79-2-2.16-4.14-5.66-7.49-4.13a25.63,25.63,0,0,0-11,9.16c-1.2,1.86.78,3.27,2.21,4.31a205.66,205.66,0,0,1,26.09,23.7C32,432.42,34.29,432.86,36,428a19.49,19.49,0,0,1,4-7.37c1.54-1.65,3.32-4.62,5.94-1,.32,3.77-1.54,7-3,10.15-2.82,5.91-1.54,10.12,2.89,15,13.27,14.52,27.7,27.93,40.51,42.89a22,22,0,0,0,3.94,3.71c7,5.19,15.39,7,23.61,8.73,6.29,1.32,12.31,3.43,18.54,4.89,6.73,1.54,9.09,5.76,8.84,12.31-.63,16.7-5.6,32.18-12.84,47.07-4.11,8.43-3.92,8.77,5.11,9.23,9.76.43,16.41,6.91,16.86,16.42s-6.42,19.15-14.9,20.66c-7.77,1.38-17.09-5.34-19.41-14.05-.2-.74-.26-1.54-.45-2.27-1.54-6.49-2.12-6.69-7-2.46a170.09,170.09,0,0,1-32.11,22.29c-4.48,2.35-9.07,5.08-14.47,2.34-2.28-2-3.81-4.62-6-6.77a141.61,141.61,0,0,1-11.4-17.24C39.51,583,32.45,576.29,21.55,574c-2.23-.48-4.37-1.43-6.56-2.12-10.23-3.3-10.23-3.3-14.63,5.49-4.82.77-4.84-3.08-5.07-5.86-.37-4.74-2.84-7.41-7-9.14-20.12-8.38-40-17.1-59.47-27-3.08-1.53-7-4.61-9.87.84s-2.21,10.12,2.34,13.51a48.44,48.44,0,0,0,6.61,3.94c8.25,4.25,9.68,6.42,7.89,15.11-6,29.4-13.17,58.49-20.76,87.52-1.69,6.47-5.51,9.6-12.22,8.92-17.82-1.77-35.89-2.66-52.51-10.23-8.35-3.8-16.7-7.84-23.68-14.09s-7.38-7.8-2.72-15.71c8.85-15,18.47-29.61,27.58-44.43,7.7-12.44,16.45-24.14,25.15-35.86,3.72-5,7.69-9.24,14.71-5.81,2.48,1.19,4.47.13,5.68-2.3.23-.47.45-.93.69-1.39,6.68-12.59,6.61-12.87-5.47-21.1-11.16-7.59-14.5-17.52-11.44-30.78a271.36,271.36,0,0,1,10.48-33.69c4-10.78,3.4-11.82-6.82-16.18-14.66-6.25-15.23-6.06-21.44,8.67-2.6,6.15-3.74,12.77-5.89,19.08-3.08,9.14-6.16,11.44-15.39,9.45-14.73-3.17-28.29-9-39.4-19.67-3.76-3.6-4.3-7.91-3.73-12.7a141.61,141.61,0,0,1,17.13-53c5-8.91,8.14-18.87,15.21-26.61,7.88-9.05,15.91-17.84,26.79-23.64,5.59-3,10.64-4,16.73-1.82a112.08,112.08,0,0,1,21.72,11.18c5.39,5,11.93,8.8,16,15.28,4.74,7.54,4.71,10-2.2,15.53-8.42,6.74-16.65,13.51-22.61,22.72-4.61,7.06-4.46,8.2,3.08,12.16,3.62,1.89,7.43,3.52,10.39,6.43,3.39,3.32,5.69,2.69,8.68-.94C-78,400.6-62.16,390.11-44.55,382c8.54-3.95,16.46-3.44,23.61,2.73,4.3,3.72,7.69,4.85,12.14-.19,7-7.88,7.39-7.69,2.55-14.06a9.94,9.94,0,0,1-1.54-10.08,74.57,74.57,0,0,1,5.51-11.81c6.16-8.14,10.39-17.65,16.86-25.64,9.23-15.67,20.47-30,30.47-45.22,5.05-7.69,9.39-8.65,17.76-4.38A89.18,89.18,0,0,1,92.5,298.24c1.32,1.68,2.09,4.89,5.08,3.25a6.73,6.73,0,0,0,3.79-7.7c-.68-2.79-2.65-5-3.91-7.46C86.81,265.07,72,245.91,64.5,223.1c-6.77-20.5-9.37-41.55-3.3-62.69,5.64-19.67,18.8-31.92,39.15-35.69C125.67,120,148.52,127.2,170,140c11.67,6.91,23.56,13.48,34.81,21.08,4.62,3.08,8.19,3.48,11.61-1.53,5.54-8.19,13.56-13.86,21-20.12,13.39-11.14,26.61-22.46,38.93-34.8a14.09,14.09,0,0,1,1.66-1.54c1.92-1.54,3.85-4.38,6.45-3.28,2.88,1.22.9,4.62,1.4,6.91,0,3.65-2.71,5.16-5.24,6.95-20.42,14.52-38.7,31.61-57.14,48.48-7.13,6.52-6.7,6.94,1.23,13a314.73,314.73,0,0,0,42,27.71c.95.5,1.86,1.06,2.78,1.61,14.35,7.7,28.58,15.79,44.27,20.72,2.91.91,5.81,1.72,10,2.86a142.29,142.29,0,0,1-26.53-47.1,34.58,34.58,0,0,0-1.11-3.4c-6.87-20-9.42-40.89-11.68-61.81-.33-2.92.78-5.54,1.41-8.26-3.18-26,4-50.19,13.3-74,2.59-8.87,7.54-16.71,11.17-25.13a7.28,7.28,0,0,1,4.81-4.62c3.83,2.6,3.18,8.53,7.81,10.56-1.3,11.19-8.09,20.3-11.78,30.61-2.1,5.88-4.05,11.47-3.81,17.76.16,3.91-.35,7.7-3.64,10.48-4,2.63-2,7.17-3.36,10.64-1.54,6.78-.38,13.63-.69,20.45V121c4.25,37.28,12.71,72.88,38.8,102,10.1,11.27,20.25,22.29,32.94,30.79a8.28,8.28,0,0,1,3.95,5.41c-.83,5.31-3.83,7.79-9.23,7.11-6-1.41-10.52-5.32-14.78-9.23a36.91,36.91,0,0,0-15.16-8.62,336.43,336.43,0,0,1-89.9-40.72c-6.77-4.41-6.8-4.13-9.43,3.4a130.18,130.18,0,0,1-23.46,41.14A253,253,0,0,1,175.37,290c-10.67,7.8-21.55,15.39-33.86,20.45-4.08,1.7-4.14,3.87-1.34,6.84,4.52,4.8,9.57,9.11,13.66,14.31a23.3,23.3,0,0,0,4.3,4.06c1.69,1.54,3.29,3.24,5,4.81,1.23,1.2,2.46,2.37,3.74,3.51a277.1,277.1,0,0,0,75.41,49.62c1.54.78,3.31,1.29,5,1.93,4.62,2.37,9,4.62,13.85-.07,1.8-1.77,5.23-1.54,4.28,2-1.65,6,2.11,6.87,6.08,8.16,2.88.94,5.86,1.76,7.69,4.45a8.1,8.1,0,0,1,0,8.93,64.24,64.24,0,0,1-6.66,8.41c-3.91,4.76-4.92,12.18-1.62,16.41,3.71,4.73,7.93,7,15.12,6.16,7.69-.91,15.56-.79,23.24-2.53,2.49-.57,5-1.18,7.43-1.94,7.14-2.2,12.76-5.38,11.28-14.42a5.61,5.61,0,0,1,2.17-5.49,5.27,5.27,0,0,1,5.56,2.46c2,7.14,1,14.39.69,21.55-.86,2.43-1.43,5.08-4.37,6-3.71-3.41-7.42-3.65-12.31-1.84-10.31,3.77-21,6.64-32.11,6.71-5.55,0-8.42,2.37-9.54,7.7s-3.34,10.19-4.42,15.39c-1.8,7-3.07,14.16-4.95,21.15-2.08,6.15-.74,12.53-1.09,18.77a20,20,0,0,0,.15,2.19c1.92,3.8,2.46,7.5-.77,10.93a11,11,0,0,1-1.54,1.43c-3,2.14-6.34,4-6.52,8.36-.77,3.81-3.44,6.81-4.55,10.49-.49,1.36-1,2.7-1.53,4.05-2,9.23-4.19,18.61.4,27.81,3.15,6.31,7.88,10.78,15,12.05,5.78,1.06,11.25,3.67,17.26,3.53,2.53.3,4.51,1.26,5,4.06-1.91,3-1.25,5.39,1,8.1,7.42,8.88,10.43,19.51,11.57,30.78.68,18.7-3.42,36.58-9.36,54.11-1.61,4.76-1.66,7.13,4.62,6.36,30.91-3.77,60.64,1,89.27,13.06,11.11,5.27,22.39,10.24,32.6,17.21,4.51,3.08,7.11,2.39,9.23-2.86,4.89-12.31,11.24-24.09,14.22-37.25s-.95-22.61-12.31-29.42a22.47,22.47,0,0,1-3.73-2.71c-1.32-5.48,0-7,6-6A49.39,49.39,0,0,1,462.79,677c17.65,20.33,33.77,41.87,49.65,63.59,5.23,7.16,5.43,7.36,12.31,1.54a175.45,175.45,0,0,1,60.81-33.66c18.82-6.16,37.94-10.5,57.93-8.48,5.68.57,5.13-1.85,3.76-5.77-4.62-13.3-9-26.58-8.88-41a42.78,42.78,0,0,1,11.25-29.32,86.06,86.06,0,0,0,8.52-10.78c4.13-6.43,3.79-7.43-3.07-10.32a9.09,9.09,0,0,1-3.8-2.5,4.14,4.14,0,0,1,1.06-5.34,4,4,0,0,1,2.86-.84c16.31,2.86,25.61-7.31,33.77-18.75,4.46-6.25,3.2-8.3-4.4-10.77-3.41-1.13-7-1.68-10.22-3.33-19.81-6.08-33.51-20.7-48-34.27-5.28-5.67-6.95-13.46-11.48-19.57-2.12-3.15-6.31-3.07-8.85-5.58-1.54-1.94-2.46-3.9.13-5.74a8.35,8.35,0,0,1,5.37.55c3.07,1.54,5.88-.71,8.82-1a4.48,4.48,0,0,0,2.87-3.33c3.17-10.14,8.58-19.11,14.5-27.82,27.07-33.13,59.47-58.69,101-71.42,16.11-4.12,32.56-6.15,49-7.85,5.11-.52,7.89-2.49,8.74-7.69,1.94-11.82,5.17-23.43,5.68-35.4a18.71,18.71,0,0,1,.11-3.51c.24-1.83.67-3.63.93-5.46.44-2.59-.49-5-1-7.42C799.29,296.64,785.87,274.32,760,260a16.08,16.08,0,0,0-7.47-2.5c-1.69-.44-3.08-1.72-4.94-1.8-23.64-7.69-46.4-4.8-69.6,3.41-21.11,7.46-41.34,16.06-59.53,29.24-2.51,1.81-5.59,4.46-8.51.24-1.17-2.49-3.55-3.15-5.89-3.87-3.08-1.17-6.56-1.71-8.56-4.82a8.23,8.23,0,0,1,.15-5.62c1.06-3.55,2.85-6.88,3.19-10.65,1.65-5.8,3.43-11.59,2.17-17.76a10.29,10.29,0,0,1,2.45-6.5c3.7-2,7-.1,10.15,1.4,8.28,4,16.83,7.53,24.31,12.93,4.1,3,7.43,2.67,10.68-1,3.66-4.17,8.55-7.07,12.57-11.29-2.95-2.17-6.16-2.21-8.83-3.52-17.55-8.48-26.51-22.53-27.46-41.82-.28-5.61,0-11.23,0-16.93,4.79-30.78,19.44-55.4,45.8-72.24,12.68-8.13,26.71-11.93,41.82-8,5.17,1.34,4.74-1.31,4.72-4.75,0-19.55-5.66-37.94-11.51-56.27-1.15-3.65-2.71-7.19-3.81-10.87-.56-2.23-1.42-4.45-.37-6.76,2.63-1.53,4.47-4.54,8-4.61,7.82,5.11,8.81,14,11.64,21.76,1.66,4.52,2.68,9.34,4.29,13.85a53.15,53.15,0,0,1,2.47,12c.37,3.55,1.69,6.63,5.64,7.23,6.61,1,13.24,1.4,19.54-1.65,4.41-2.12,7.89-4.51,5.81-10.57a7.07,7.07,0,0,1,3.31-8.57c6,15.2,16.41,25.34,33.48,22.9,13.74-2,26.16-7.7,30.55-23.09,0-6,1.31-12.08-1.54-17.81a15.39,15.39,0,0,1-.88-2.09c-4.83-12.17-20.21-18.27-34.55-15.1-8.19,1.8-15.5,6-23.72,7.34-2.6-.55-3.51-2.92-5.05-4.61C751,5.8,738.42,5,725,7.12c-5.51.89-10.37,4.37-16.2,4.05-2.9-1-5.53-2.26-5.21-6C717.85-9.82,750-11.64,765.54,2c3.57,3.08,6.42,4.05,10.85,2.17A61.39,61.39,0,0,1,801.66.27C820.38.69,835,11.34,840.59,29.16a41,41,0,0,1,1.54,4.45c2.24,19.25-3.91,35-20.75,45.16-7.3,4.4-10.59,9.78-11.85,18.06-1.93,12.64-2.43,12.32,9,17.89,13.51,6.51,26.45,13.85,31.46,29.49a61.16,61.16,0,0,1,1.8,5.92c2.06,12.67-.91,25-2.43,37.45-3.08,25.7-6.84,51.3-13.86,76.29-.24,1.68-.13,3.39-.52,5.05-7.69,37-16.93,73.78-23.58,111.06-.14.75-.4,1.54-.51,2.25-.72,5.28-5.89,11-3.07,15.16,2.6,3.91,9.94,2.49,15,4.32,20,7.3,37.55,17.56,46.45,38.32,2.53,3.19,3.07,6.93,3.17,10.78.3,4.62-.37,9.23-.17,13.85-2.27,21.18-12.52,38.72-25.2,55.15-8.43,9.32-17.81,17.74-26.27,27.05a26.75,26.75,0,0,1-7.7,2.85c-9.14,3.34-17.59,8.2-26.81,11.48-24.08,8.56-48.89,11.07-74.18,9.87-6.43-.31-9.71,1.54-11.91,7.69a45.38,45.38,0,0,1-18.92,23.55,14.86,14.86,0,0,0-6.74,8.91c-1.8,6.16-4.62,12.31-9.37,16.59-14.67,13-13,29.25-9.7,45.5,3.43,17,12.19,32,20.86,46.85,2.18,3.74,4.61,7.4,7,11,1.67,2.34,3.33,4.7,5,7a12.79,12.79,0,0,0,5.5,4.61c5.29.56,9.06-3.08,13.43-5a141.07,141.07,0,0,1,59.86-11.33c23.19-1.45,45.34,2,65.73,13.85a92.42,92.42,0,0,1,41.68,36,82.52,82.52,0,0,1,8.54,18.76c7.79,27-2,50.42-15.74,72.62-7.27,11.69-16.47,22.11-26.44,33.1,15.39,4.74,30.22,8.4,45.12,11.48a583.92,583.92,0,0,1,75.42,20.49c2.26.8,4.27,1.64,5.43,3.86v9.24c-5.17,3.92-10.33,1.06-15.22-.45-14.3-4.43-28.54-9-43.3-11.67-16.48-3.74-33.13-6.63-49.65-10.25-9.23-3.08-18.87-4.69-28.27-7.2a18.44,18.44,0,0,0-13.34,1.42c-28.45,13.54-59,18.19-90,21.27a318.31,318.31,0,0,1-95.42-4.62c-33.21-6.76-64.55-18.1-91.48-39.51a51.07,51.07,0,0,1-7.3-7.83c-2.89-3.48-5.74-7.51-11.34-6.42a53.55,53.55,0,0,1-8-.17c-16.13-.23-32.32,0-48.38-.09a21,21,0,0,0-7.56,1,13.21,13.21,0,0,1-2.63.54c-14.1-2.22-21.55,6.15-29.06,16.52-10.25,14.29-24.13,24.49-41.56,28.52-28.49,6.56-57.4,10.49-86.43,13.86a489,489,0,0,1-56,3.07c-21.4,0-42.5-1.54-63.11-7.69a24.62,24.62,0,0,0-15.79.6c-3.77,1.54-7.81,1.89-11.69,3-35.83,8.92-71.31,18.9-105,34.31-4.46,2-6.64,3.23-2,7.59a42.42,42.42,0,0,1,10.2,16.13c1.42,3.66,1.54,7.69,3,11.33,3.08,6.94,1.08,14.06.26,21.87a222.46,222.46,0,0,1,28.8-11.82c31.52-9.81,62.1-8.24,91.75,7a61.27,61.27,0,0,1,16.59,13.47c2.69,3.39,4.88,7.14,7.45,10.64a90.61,90.61,0,0,1,14.12,42.46c.48,6.16.11,12.31.24,18.36.16,7.7.49,7.94,7.84,6.16,12.89-3.19,25.82-6.16,39.22-6a59.62,59.62,0,0,1,12.9,1.54,53,53,0,0,1,5.79,1.65,98.93,98.93,0,0,1,25.67,9.71,13.34,13.34,0,0,1,2.75,1.84c4.47,4.08,9.91,6.76,14.81,10.24a40.38,40.38,0,0,1,3,3.29c8.82,9.62,15.76,20.24,16.73,33.72.36,5,2.16,5.17,6.34,3.39,13.86-5.9,27.71-10,43.24-6.43,16.62,3.86,31.7,17.65,36.29,37.43H420.53c-4.62-3.62-6.51-9.12-9.5-13.86-7.93-12.46-27.32-16.93-42.59-10.77-8.2,2.91-16.05,6.43-22.7,12.31-2.11,1.87-4.54,3.67-7.56,2.14-2.77-1.4-2.35-4.21-2.37-6.75a83.31,83.31,0,0,0-1.63-16.67c-6.15-24.07-33.2-46.17-60.94-50.36-12.64-1.91-24.78.45-37.07,2.39a125.77,125.77,0,0,0-22.68,9c-2.46,1.23-4.74,3.08-7.82,2.41-4.62-2.58-4.16-7.09-4.39-11.34a145,145,0,0,0,.56-37.41c-1.79-16.13-9.51-29.46-19.23-41.93a20.76,20.76,0,0,0-5.63-5.14,100.4,100.4,0,0,0-66.83-14.1c-20,2.67-38.87,8.67-55.66,20.3a9.73,9.73,0,0,1-6.42,2.16c-4.5-1.86-5-6.16-6.16-10-.17-5,2.11-9.4,3.08-14.13,4.69-23.25-10.77-47.08-33.49-51.31-4.62-1.25-11-.4-10.77-8.11,2-4.86,6.29-8,9.23-12.22,11.1-16.31,13.85-34.63,12.62-53.64S17.5,863,8.73,845.78c-17-33.2-44.16-51.4-80.91-56.4-7.77-1-16,.53-23.33-3.27a8.93,8.93,0,0,1-1.54-6,73.94,73.94,0,0,0,1.21-16.8c-1.92-23.93-20.28-38.38-44-34.64a118.86,118.86,0,0,0-32.08,10.2,7.84,7.84,0,0,1-2.28.65c-6.89-.26-7.06-5.52-7.6-10.37-2.19-19.55-8.51-37.5-21.16-52.72-37.53-45.11-95.81-29.72-117.68,14.87-3.08,6.33-3.89,12.68-.11,19-.29,3.08-2.52,3.9-5.09,4.3a7.84,7.84,0,0,1-4.37-1.23c-24.63-16.39-58.49-6.39-78.07,12.49-2.78,2.68-4.91,6.82-9.91,6v-9.24c8.51-13.65,21.43-21.07,36.54-24.62,14.27-3.39,28.73-5.59,43.09-.16,2.56,1,5,1.41,5.95-2.35,7.37-29,28-44.76,54.65-54.5,3.32-.41,6.43-1.83,9.8-2,5.65,0,11.28-.24,16.93-.18,8.47,2.05,17.42,2.22,25.34,6.48a96.13,96.13,0,0,1,12,6.69c4.18,2.68,7,1.34,9.24-2.89,8.19-15.39,4.8-42.8-7.17-55.53-4.31-4.62-10.18-6.65-15.86-8.93a62.68,62.68,0,0,1-9.74-3.46c-2.85-1.89-7.11-2.14-7.69-6.6,1.35-5.77,6.15-9.24,9.31-13.85a71.77,71.77,0,0,0,12.31-40.39c.11-6.39.23-12.79,0-19.16-1.08-26.9-10.33-49.25-35.2-62.92-2.66-1.54-4.82-3.83-7.92-4.52-20.66-8.1-42.44-9.24-64.2-10.39-2.05-.11-4.11,0-6.16,0-8.09-.46-9-2.11-5.61-9.41,3.07-6.71,8.43-12.2,10.08-19.76,4.61-21.34-3.08-34.24-24.24-39.44-4.24-1.05-8.58-1.54-12.84-2.48-9.91-2-11.42-5.77-6.32-14.45,10.14-17.3,16.46-35.7,17.05-56,.91-31.71-18.38-54.85-45.27-67.12C-408.95,212.65-414.53,211.8-418.18,207.34Z"/><path class="cls-6" d="M-39.66,2.33c1.25-5.47,7.43-7.06,9.39-12l24.5-24.62c15.39-.63,30.27,3.45,45.48,4.62,4.62.35,9.8-.34,14,2.89,2.06,2.2,1.12,4.39-.48,6.16Q39-5.13,23.38,8.89a8.94,8.94,0,0,1-4.94,1.91,54.93,54.93,0,0,1-15.31-.43A268.29,268.29,0,0,0-29.78,8C-33.78,8.09-38.92,8.58-39.66,2.33Z"/><path class="cls-7" d="M54.85-24.78l6.65-5c3.5.23,6.16,2.31,8.85,4.14,13.19,8.8,28,12.87,43.54,14.45,3.77.39,7.51,1.06,11.27,1.54,2.86,4.14,0,7.26-2,10.4-4.37,6.61-9.62,12.66-13.11,19.83-3.85,8-1.9,10.77,7.06,10.34a23,23,0,0,0,11.57-3.66c21.91-14,46.56-17.19,71.74-19.52,22.23-2,43.82,1,65.54,4.62a117.83,117.83,0,0,1,23.45,7.08c6.47,2.49,9.9,7.79,12.51,13.85C299,44.63,293.67,55.09,291,66.59c-3.17,13.51-2.9,27.21-4.31,40.8-.5.71-1,.66-1.44,0-.09-2-.18-4.06-.27-5.94-1.34-.88-2.1-.15-2.79.56a642.78,642.78,0,0,1-53.31,47.28,44.67,44.67,0,0,0-10.78,11.86c-3.35,5.73-6.89,6.91-13.34,2.57a441.21,441.21,0,0,0-47.48-28.05c-18.93-9.58-38.86-12.89-59.58-8.27-17.37,3.89-29.24,14.94-33.86,32-8.19,29.89-2.18,58.13,12.67,84.77,8.83,15.84,17.73,31.66,27,47.27,4.45,7.51-2.51,10.77-5.79,13.85C94.7,308,93,302.21,91,299.72,81.43,288.8,71.68,278,57.24,273.24c-6.49-2.14-8.71,3.08-11.3,6.75-10.14,14.69-20,29.62-29.9,44.46-23.73-2.14-47.28-6-71-7.56-28.06-1.8-55.13-8.2-82.19-15.27-10.87-2.83-22.23-3.55-33.51-3.95a3.28,3.28,0,0,1-1.89-1.54c-1.09-3.46.38-6.53,1.83-9.42,6.54-13.14,11.91-26.84,19-39.71,7.69-14.39,15.3-28.89,23.22-43.09,7.56-11.62,14.7-23.49,21.64-35.49,9-14,18.62-27.71,27.71-41.56C-69,114.27-60.25,100.59-50.1,88c11-13.56,22.09-27,33.5-40.24C-7.26,35.59,4.27,25.47,13.84,13.55a18.5,18.5,0,0,1,6.92-4.61Z"/><path class="cls-4" d="M301.92,33.27c-14.57-18.47-36.21-18-56.51-21.55a175.74,175.74,0,0,0-40-1.63c-22.51,1.22-44.54,4-65.39,13.07A47.53,47.53,0,0,0,133,27.78,33.37,33.37,0,0,1,112,33.52c-6.68-.34-8-3.5-6.25-9,3-9.44,9.75-16.64,15.21-24.63,2.08-3.08,4.23-5.75,4.17-9.59,20.65-3.07,40.6-8.12,56.7-22.53,6.94-6.15,14.76-6,23.09-4.62a95.12,95.12,0,0,0,27.58.48c21.47-2.65,27.7-20,17.59-38.34a186.61,186.61,0,0,0-29.44-38.89c-8-8.36-6.82-19.84-9.32-30l41.56-24.78,55.73-28.78,55-23.87c24.07-8.84,47.92-18.27,72.47-25.72l58.35-16.93c8.88-6,19.28-6.28,29.36-7.79,8.55,2.49,17.09,5,25.65,7.43,2.15.62,4.21.56,5.12,3.58,6.48,21.45,20,38,36.86,52.2-18.22,2.76-34.63,10.88-51.16,18.18C520.49-181.39,501-171.86,483-159.59c-13.68,9.23-24.62,21.18-35.64,33.29-7.61,8.4-12.61,18.47-19.5,27.33a18.73,18.73,0,0,0-4.18,13.64c-1.41,3.49-4.71,4.62-7.69,5.77-7.7,3.08-15,6.69-22.35,10.25-30.5,14.67-53.87,37-71.35,65.76-1.71,2.81-2.86,6.16-6.16,7.56A121.34,121.34,0,0,0,301.92,33.27Z"/><path class="cls-8" d="M174.3,288.79c15-13.56,30.08-27,41.94-43.63,9.78-13.66,18-27.95,20.95-45.41,6.76,4,13.31,7.59,19.59,11.61C283,228,311.45,239.06,341,247.6a22.61,22.61,0,0,1,9.79,5.73c4.62,4.42,9.23,8.92,15.39,11.17,2.59,1.65,1.14,3.66.11,5.17-7.82,11.52-5.77,22.06,2.89,32.05a7.43,7.43,0,0,1,1.1,2,4.43,4.43,0,0,1-1.65,4.74c-9.36,7.36-16.45,17.13-26.17,24.14a172.85,172.85,0,0,1-34,21.82,59.35,59.35,0,0,1-29.68,5.94,17.46,17.46,0,0,1-10.69-3.55c-5.83-6.16-5.52-16.1-12.15-19.7,1.92,3,6.54,6.4,7.43,12.08-.54,3.91-2.79,3.48-5.36,2.06-3.07-1.68-5.61-4.17-8.94-5.37a14.81,14.81,0,0,1-5-4.62c-6.61-9.11-16.57-12.31-26.71-15.28-3.91-1.29-6.44-4.28-8.93-7.3a25.83,25.83,0,0,0-7.33-3.71c-8.08-6.15-15.7-12.71-23.42-19.2C175.72,294.05,173.12,292.21,174.3,288.79Z"/><path class="cls-9" d="M161.84,155.1c1.43-1.63-1.87-3.18-.31-4.4,1.25-1,2.91,0,4.22.88q20,12.75,40.1,25.49a3.07,3.07,0,0,1,1.7,4,2.49,2.49,0,0,1-.16.33c-12.2,33.49-34.35,58.82-63.79,78.23a4.5,4.5,0,0,1-1.54.31c-7-2.44-10.11-9.08-14.41-14.19-11.92-14.18-23.08-29-31.58-45.58,1-16.57,1-16.62,15.72-11a62.8,62.8,0,0,0,11.08,2.68c11.39,2.12,14.71-.42,15.25-12.16.21-4.84-.09-9.68.14-14.52.27-5.4,3-8.12,8.48-6.84A17.54,17.54,0,0,0,161.84,155.1Z"/><path class="cls-10" d="M223.71,190.19c11.71,6.27,11.25,6.16,7.32,17.74-8.85,26.16-25.84,46.29-45.38,65.1-15.23,14.64-32.77,25-51.59,33.75-2.6,1.22-4.79,2.76-6.87-1.09a114.92,114.92,0,0,0-13.48-18.58c-2.32-2.8-2.82-4.62,1.54-6.77C126,275,136.3,268.81,146.8,263a14.49,14.49,0,0,1,1.35.71c14.06,9.37,15.1,9.43,29.82-.53,10.35-7,16.85-17.59,24.51-27.12,8.44-10.49,11.5-23.67,18.47-34.84C223,197.89,221.77,193.58,223.71,190.19Z"/><path class="cls-11" d="M77,153.36c7.7-13.62,20.83-17.23,35-17.8A74.35,74.35,0,0,1,157.79,149c.49,8.25-1.66,10.32-10,9.66-9.54-.75-9.5-.75-9.6,8.51,0,6.16.49,12.32-1.39,18.29-1.63,5.23-5.08,7.69-10.42,6.74-7.29-1.22-14.9-2-21.21-6.16-5.58-3.66-7.69-2-8.36,3.93-2.38,2.43-4.35,1.32-5.23-1.19-3.4-9.85-10.08-18.07-13.5-27.9A20.57,20.57,0,0,1,77,153.36Z"/><path class="cls-12" d="M223.71,190.19a10.94,10.94,0,0,1-.86,12.23c-5.28,5.43-6.7,12.42-8.81,18.68-2.52,7.48-7.92,12.65-12,18.61-8.34,12.31-17.67,23.87-32.23,30.46-11.34,5.12-16.43,4.61-23.08-7.19,29.07-21.26,53.2-46.51,65.32-82.28Z"/><path class="cls-13" d="M77,153.36c6.08,8.48,6.16,20.21,14.89,27.37,2.73,2.22-1.34,7.88,3.81,9.62,2,9.23-1.83,14-10.57,12.87-4.5-.57-9-1.4-12.31-5-4-5.46-4.14-11.9-3.71-18.12C69.68,170.69,71.83,161.54,77,153.36Z"/><path class="cls-14" d="M72.75,198.2c2.47.64,4.94,1.23,7.39,1.92,12,3.37,13,2.73,15.56-9.8a20.33,20.33,0,0,0-1.12-10.39c7.39,1.2,12.74,5.26,18.88,7.19,19.26,6,23.4,2.89,22.77-17.53-.42-12.93-.4-13.21,13-12.76,6.15.2,9.23-1.54,8.6-8,2.34,1.4.08,5.83,4.05,6.15.7,6.63-4.94,4.42-7.93,5.37-4.22,1.34-10.23-2.46-12.79,1.22-2,2.89,0,8.4-.23,12.73-1.25,23-5.34,23-27.09,17.77-5-1.18-9.42-3.83-14.54-7,1.54,6.16-1.19,10.88-2,16-1.54,4.06-4.81,4.53-8.55,4.49-6,0-11.46-2.43-17.16-3.78Z"/><path class="cls-15" d="M-15.34,48.66a158.07,158.07,0,0,0-34.79-3.08c-8.91.08-17.83,0-26.76,0,11.3-15.39,23.24-30.24,37.23-43.31a7.09,7.09,0,0,0,6.54,3.27C-15,4.3,2.73,9,20.75,8.83Z"/><path class="cls-16" d="M175.72,67C191.4,63.73,194,53.19,194.1,40.21c2.35,10.77,4,21.55,18.22,22.89-13.25,3.26-9.13,15.57-14.15,24.15C194.13,76.61,193.2,63,175.72,67Z"/><path class="cls-8" d="M88,151.33c4.17-7.4,9.82-10.77,16.93-11.56,3.21-.33,6.82-.12,7.79,4.22,1.13,5.19-3,5-6,5.59C100.92,150.64,95.22,153.1,88,151.33Z"/><path class="cls-17" d="M121.1,138.17c3.41.27,6.08,1.37,5.72,5.5-.29,3.57-2.64,4.62-5.85,4.4-3.83-.32-4.89-2.72-5-6.29C116,137.8,118.43,138,121.1,138.17Z"/><path class="cls-18" d="M123.16,182.65c-7.47.73-14.28-.63-19.84-6.15Z"/><path class="cls-19" d="M148.31,98.38c5.65,4,8.83,10.18,12.62,15.67,2.66,3.83-.91,7.77-2.39,11.51A11.15,11.15,0,0,1,148,131.18c-5.88-.13-12,1.09-17.59-.77-6.21-2.07-8.49,1.1-9.63,5.86-2.06,8.59-8.35,13.91-14.6,19-9.27,7.48-23.36,2.69-27.49-9-2.13-6-2.94-12.59-8.31-17-7.72-1.93-15.14-4.65-21.31-9.83-6.78-5.7-7.28-10.28-1.86-16.73a48.76,48.76,0,0,1,18.64-14c5.55-2.26,4.45-5.66,3.7-9.38-2-9.73-.07-18.72,4.57-27.3.66-1.23,1.73-1.21,2.82-1.35,2.29,1.6,2.42,4,2.42,6.46a11.39,11.39,0,0,1-.87,4c-4.14,9-3.29,17.83,2.24,23.12,2.16,4.63-1.22,6.84-4.3,8.55-4.64,2.59-8.54,6.23-13.24,8.73-4.07,2.17-7.1,5.41-7.22,10.47-.43,3.67,2.28,5,4.91,5.93,6.56,2.33,12.94,5.5,20.19,5.25,3,.27,6,.32,7.18,3.9,0,3.15-4.33,8.4,3.75,7.56,9.82,6.5,11.94,5.83,17.92-5.39,2.06-3.87,3.27-8.65,8.79-9.31,8.1-1.09,16.43,1.43,24.36-1.72,4.16-2.62,6.65-5.67,4-11a8.44,8.44,0,0,1,.33-8Z"/><path class="cls-20" d="M70.4,129.25c9,.66,9.18,8.14,10,14.14,2,13.92,16.67,16.21,25.8,9.46,7.72-5.69,11.39-13.81,14.34-22.19,1.66-4.72,2.72-4.84,7.46-3.67,10.08,2.49,20.59,4.13,30.5-1.43l3.27,6.71c-9.33,2.56-18.58,3-28.37,2.63-4.69-.16-12.47,5.95-15.75,13.68A23.12,23.12,0,0,1,97.76,163c-13.68,1.17-23.05-6.74-23.79-20.61-.41-7.8-5.29-5.77-10.12-8.3C63.17,128.9,70.41,133.7,70.4,129.25Z"/><path class="cls-21" d="M77.4,57.72c-.15-2.35-.29-4.71-.44-7.07,5.18-7.67,10.44-8.72,20.4-2.19,6.51,4.27,14.09,7.8,17.55,15.73,1.73,4,4.34-1.36,6.37.43,1.33,1.48,3.84,1.77,4.24,4.2-4.08,5.88-13.6,6.66-20.09,1.47C102,67.51,99.05,64.08,95.81,61c-4.51-4.26-9.18-7.49-15.37-2.8C79.5,58.92,78.31,58.52,77.4,57.72Z"/><path class="cls-22" d="M148.53,60.87c3.31-.24,3.42,2.11,3.42,4.38,0,8.34,1.71,17.06-5.36,23.86-4,3.85,1,6.2,1.72,9.27-.23.2-.46.4-.67.6-5.87,2.75-8.61-1.85-11.82-5.12s-1.48-6.69.15-10c3.33-6.72,6.59-13.48,10.14-20.1A5.17,5.17,0,0,1,148.53,60.87Z"/><path class="cls-23" d="M148.53,60.87c-.22,1.19-.45,2.38-.68,3.57C140.41,67.22,133,70.11,124.77,68c-2.1-.17-3.42-1.15-3.49-3.4,6.71-4,13.47-7.9,21.72-7.11C145.31,57.73,148.29,57.13,148.53,60.87Z"/><path class="cls-24" d="M124.77,68c7.53-2.3,15-4.65,23.09-3.58-2.64,5.66-5.05,11.44-7.94,17-5.13,9.78-3.38,14,7.72,17.58.49,2.75.14,6.12,1.63,8.12,5.09,6.79.57,9.28-4.52,11.83-6.14,2.94-12.66.74-19,1.41-2.64.27-5.69-1.28-7.73,1.7-4.91,1.66-5,6.74-6.84,10.35a26.15,26.15,0,0,1-7.55,8.67c-7.08,5.54-8.59-3.45-12.81-5.51-2.8-1.42-5.5-2.9-3.46-6.78-.34-4.77-4-3.08-6.59-3.38-5.78-5.31-14.09-4-20.56-7.86a22.23,22.23,0,0,1-6.7-5.7c-.64-7.13,4.54-10.56,9.53-13.18S71.36,91.42,77,89.91c1.65-.45,4.05-2.22,3.49-5.09C74,77.7,74.34,69.64,77.16,61.23l.24-3.51c10.75-6.87,11.81-6.82,21.7,3.34,6,6.1,11.43,12.61,21.44,10.22C122.66,70.77,124.31,70.36,124.77,68Z"/><path class="cls-25" d="M53.54,111.83c6.47,2.94,12.37,7.07,20,7.3,3.28.1,6.8,1.92,7.27,6.26-9.13.63-16.69-4.19-24.77-7.18C52.89,117.05,53.67,114.24,53.54,111.83Z"/><path class="cls-26" d="M118.05,122c.3-3-2.12-7.16,5.11-4.49,6.48,2.39,14.34,1.06,21.59,1.38-.69,4.35-4.19,2.84-6.63,2.93C131.44,122.1,124.74,122,118.05,122Z"/><path class="cls-27" d="M77.16,61.23c-1,8.16,2.28,15.71,3.29,23.59-2.71,0-6.08.9-6.27-3.32-.27-6.1-.26-12.23-.15-18.34C74.06,61.46,75.72,61.24,77.16,61.23Z"/><path class="cls-28" d="M87.39,128.77c-.32,3,3.39,4,3.46,6.78-.29,1.25-.15,3.59-1.88,2.88a7.92,7.92,0,0,1-4.58-5.35C83.79,130.64,83.93,128.5,87.39,128.77Z"/><path class="cls-1" d="M51.92,128.09l1,.53C52.58,128.44,52.26,128.26,51.92,128.09Z"/><path class="cls-29" d="M67.3,135.21h0c1.81-2,5.5-3,3.33-6.92-5.44-3.58-11.65-5.65-17.25-8.86-8.27-4.76-8.91-10-2.45-16.85C55,98.23,59.3,94.17,65,92c6.71-2.61,7.6-7,6.83-14.06-1-8.83-1.16-18.49,6.11-25.85,4-5.35,8.57-6,14.62-2.85,7,3.69,13.93,7.32,18.6,13.93,2.9,4.11,6.5,4.93,11,3.38,3.37-1.19,6.38-3.13,9.65-4.54,5.26-2.26,10.47-3.26,15.49.63,3.55,7.73,3.56,15.54-1.21,22.6-3.37,5-3.41,9.07.7,13.3,2.83,2.49,3.16,6.75,6.13,9,6.43,4.88,7.26,10.82,4,17.77-.13,2.87,1.88,4.93,2.81,7.41,4.32-1.64,10.26-6,7.45-17.62a31.79,31.79,0,0,0-10.22-16.94c-3.21-2.76-2.92-7.61-1.36-10.26,4.71-8,2.24-16.45,3-24.66.36-4-1.08-6.54-4.64-9-7.3-5-15.23-5.16-22.13-1.54-7.82,4.11-13.4,5.76-19.93-2.12-3.34-4-9-6.46-14.06-8.66-8.69-3.8-18.18-6.72-25.28,2.33-4,5.05-7.82,10.69-9.18,17.37-2.29,3.14-2.27,6.23.14,9.29-.65,4.5,2.91,10.69-2.06,13.2C55.81,86.94,52.55,91.77,48,95.37c-13.4,10.58-10.93,25.22,3.93,32.72.34.17.66.35,1,.53C55.76,130.17,64.27,134.68,67.3,135.21Z"/><path class="cls-22" d="M140.64,95.84l9.43,12.42.31-3.94a27.85,27.85,0,0,0-5.95-9c-4-3.85,1.62-10.14,1.62-10.14h-5.41Z"/><path class="cls-30" d="M145.67,97.53c5.65,4,8.83,10.18,12.63,15.67,2.65,3.83-.92,7.77-2.39,11.51a11.18,11.18,0,0,1-10.53,5.62c-5.88-.13-12,1.09-17.58-.77-6.22-2.07-8.5,1.1-9.64,5.86-2.06,8.59-8.35,13.91-14.59,19-9.27,7.48-23.36,2.69-27.5-9-2.12-6-2.94-12.59-8.31-17-7.72-1.93-15.14-4.65-21.3-9.83-6.78-5.7-7.29-10.28-1.86-16.73a48.75,48.75,0,0,1,18.63-14c5.55-2.26,4.46-5.66,3.7-9.38-2-9.73-.06-18.71,4.57-27.3.67-1.23,1.74-1.21,2.82-1.35,2.3,1.6,2.42,4,2.43,6.46a11.4,11.4,0,0,1-.88,4c-4.13,9-3.29,17.83,2.25,23.12,2.15,4.64-1.23,6.84-4.31,8.56-4.64,2.58-8.53,6.22-13.23,8.72-4.08,2.17-7.11,5.41-7.23,10.47-.43,3.68,2.29,5,4.91,5.93,6.56,2.33,12.94,5.51,20.19,5.25,3,.28,6,.32,7.18,3.9,0,3.15-4.33,8.4,3.75,7.56,9.83,6.5,12,5.83,17.92-5.39,2.07-3.86,3.27-8.64,8.79-9.31,8.1-1.09,16.44,1.44,24.36-1.72,4.16-2.62,6.66-5.67,4-11a8.48,8.48,0,0,1,.33-8C145.08,98,145.38,97.79,145.67,97.53Z"/><path class="cls-31" d="M67.76,128.4c9,.66,9.18,8.14,10,14.14,2,13.93,16.66,16.21,25.79,9.47,7.72-5.7,11.4-13.82,14.34-22.2,1.66-4.72,2.73-4.83,7.46-3.67,10.08,2.49,20.59,4.14,30.51-1.43q1.62,3.36,3.26,6.71c-9.32,2.56-18.57,3-28.36,2.63-4.7-.16-12.48,5.95-15.75,13.68A23.14,23.14,0,0,1,95.12,162.1c-13.68,1.17-23.05-6.74-23.78-20.61-.42-7.8-5.29-5.76-10.13-8.3C60.53,128.05,67.78,132.85,67.76,128.4Z"/><path class="cls-32" d="M74.76,56.87q-.21-3.52-.44-7.07c5.19-7.67,10.45-8.72,20.4-2.19,6.52,4.28,14.09,7.8,17.55,15.73,1.73,4,4.34-1.36,6.37.43,1.33,1.48,3.84,1.78,4.24,4.2-4.08,5.89-13.59,6.67-20.09,1.47-3.48-2.78-6.38-6.21-9.62-9.27C88.66,55.9,84,52.67,77.8,57.36,76.86,58.07,75.68,57.67,74.76,56.87Z"/><path class="cls-33" d="M145.9,60c3.31-.24,3.41,2.11,3.41,4.38,0,8.35,1.71,17.06-5.35,23.86-4,3.85,1,6.2,1.71,9.27l-.67.6c-5.86,2.75-8.61-1.85-11.82-5.12s-1.48-6.69.15-10c3.33-6.72,6.59-13.48,10.14-20.1A5.25,5.25,0,0,1,145.9,60Z"/><path class="cls-34" d="M145.9,60c-.23,1.19-.46,2.38-.68,3.57-7.45,2.78-14.88,5.67-23.09,3.58-2.1-.17-3.42-1.15-3.49-3.4,6.71-4,13.47-7.9,21.72-7.11C142.67,56.88,145.66,56.28,145.9,60Z"/><path class="cls-35" d="M122.13,67.17c7.53-2.3,15.05-4.65,23.09-3.58-2.63,5.66-5,11.44-7.94,17-5.12,9.78-3.38,14,7.72,17.58.49,2.75.14,6.12,1.63,8.12,5.09,6.8.57,9.28-4.52,11.83-6.14,2.94-12.66.74-19,1.41-2.64.28-5.68-1.28-7.72,1.7-4.91,1.66-5,6.74-6.85,10.35a26.29,26.29,0,0,1-7.55,8.68c-7.08,5.53-8.59-3.46-12.81-5.52-2.8-1.42-5.5-2.89-3.46-6.78-.34-4.77-4-3.08-6.59-3.37-5.77-5.32-14.09-4-20.55-7.87A22.27,22.27,0,0,1,50.9,111c-.64-7.12,4.55-10.56,9.53-13.17s8.29-7.24,13.89-8.75c1.65-.45,4.05-2.22,3.49-5.09-6.44-7.12-6.1-15.18-3.28-23.58.07-1.18.15-2.35.23-3.52C85.51,50,86.57,50.06,96.47,60.21c5.94,6.1,11.42,12.61,21.43,10.22C120,69.92,121.67,69.51,122.13,67.17Z"/><path class="cls-36" d="M50.9,111c6.47,2.94,12.37,7.07,20,7.3,3.28.1,6.8,1.92,7.27,6.27-9.13.62-16.69-4.2-24.77-7.18C50.26,116.21,51,113.39,50.9,111Z"/><path class="cls-37" d="M115.42,121.19c.3-3-2.12-7.16,5.1-4.49,6.48,2.39,14.34,1.06,21.59,1.38-.68,4.36-4.19,2.85-6.62,2.93C128.8,121.26,122.11,121.16,115.42,121.19Z"/><path class="cls-38" d="M74.53,60.39c-1,8.15,2.27,15.71,3.28,23.58-2.71,0-6.08.91-6.26-3.32-.27-6.1-.26-12.23-.16-18.34C71.42,60.62,73.08,60.4,74.53,60.39Z"/><path class="cls-39" d="M84.75,127.92c-.32,3,3.39,4,3.46,6.78-.29,1.25-.15,3.59-1.87,2.88a7.92,7.92,0,0,1-4.59-5.34C81.16,129.79,81.29,127.65,84.75,127.92Z"/><path class="cls-1" d="M49.28,127.24l1,.53C50,127.59,49.63,127.41,49.28,127.24Z"/><path class="cls-40" d="M64.67,134.37h0c1.8-2,5.49-3,3.32-6.93-5.43-3.58-11.65-5.64-17.25-8.86-8.27-4.76-8.91-10-2.45-16.85,4.07-4.35,8.38-8.41,14.05-10.62,6.71-2.61,7.6-7,6.84-14.06-1-8.83-1.17-18.49,6.11-25.84,4-5.36,8.57-6,14.61-2.85,7,3.68,13.93,7.31,18.61,13.92,2.9,4.11,6.49,4.93,11,3.38,3.37-1.19,6.39-3.13,9.65-4.54,5.26-2.26,10.47-3.26,15.49.63,3.55,7.73,3.56,15.54-1.21,22.61-3.37,5-3.41,9.06.7,13.29,2.84,2.49,3.17,6.76,6.14,9,6.43,4.88,7.25,10.82,4,17.77-.12,2.87,1.89,4.94,2.81,7.41,4.32-1.64,10.26-6,7.45-17.62a31.76,31.76,0,0,0-10.22-16.93c-3.21-2.77-2.92-7.62-1.36-10.27,4.71-8,2.24-16.44,3-24.66.37-4-1.08-6.54-4.64-9-7.3-5-15.23-5.16-22.12-1.54-7.83,4.11-13.41,5.76-19.94-2.12-3.34-4-9-6.46-14-8.66-8.7-3.8-18.19-6.72-25.29,2.34-4,5-7.82,10.69-9.18,17.36-2.29,3.14-2.26,6.23.15,9.29-.66,4.5,2.91,10.69-2.06,13.2-5.59,2.82-8.85,7.65-13.41,11.25C32,105.1,34.42,119.74,49.28,127.24c.35.17.67.35,1,.53C53.12,129.32,61.64,133.84,64.67,134.37Z"/><path class="cls-33" d="M138,95l9.43,12.42.31-3.94a28.05,28.05,0,0,0-5.95-9c-4-3.85,1.61-10.13,1.61-10.13H138Z"/></g></g></g></svg>